<svg width="24" height="32" viewBox="0 0 24 32" fill="none" xmlns="http://www.w3.org/2000/svg">
<g clip-path="url(#clip0)">
<path d="M6.29306 28.3865C6.29306 29.318 6.67235 30.2113 7.34748 30.87C8.02261 31.5286 8.93828 31.8987 9.89306 31.8987H14.0931C15.0478 31.8987 15.9635 31.5286 16.6386 30.87C17.3138 30.2113 17.6931 29.318 17.6931 28.3865V24.5269C17.6944 23.7984 17.8553 23.0785 18.1651 22.4155C18.4748 21.7526 18.9262 21.1619 19.4891 20.683C20.8228 19.6217 21.9051 18.2913 22.6617 16.783C23.4182 15.2748 23.831 13.6247 23.8717 11.946C23.9124 10.2673 23.5799 8.59999 22.8973 7.05859C22.2146 5.51719 21.1979 4.13829 19.9171 3.0167C18.2855 1.6037 16.2869 0.655828 14.1401 0.276819C11.9932 -0.10219 9.78091 0.102277 7.74522 0.867841C5.70954 1.6334 3.92895 2.93056 2.59834 4.61733C1.26773 6.30411 0.438378 8.31549 0.201062 10.4313C-0.0218299 12.3209 0.24602 14.2349 0.979963 15.997C1.71391 17.7592 2.89036 19.3129 4.40106 20.5152C4.98523 20.9812 5.45744 21.5667 5.78436 22.2302C6.11128 22.8937 6.28493 23.6191 6.29306 24.3552V28.3865ZM16.8931 28.3865C16.8931 29.111 16.5981 29.8058 16.073 30.3181C15.5479 30.8304 14.8357 31.1182 14.0931 31.1182H9.89306C9.15046 31.1182 8.43826 30.8304 7.91316 30.3181C7.38806 29.8058 7.09306 29.111 7.09306 28.3865V25.003H16.8931V28.3865ZM4.91306 19.9026C3.50975 18.7853 2.416 17.3426 1.73188 15.7064C1.04776 14.0702 0.795117 12.2928 0.997062 10.5367C1.1929 8.77209 1.83143 7.08174 2.85617 5.61515C3.88092 4.14856 5.26031 2.95093 6.87235 2.12816C8.48439 1.3054 10.2794 0.882862 12.0986 0.897917C13.9179 0.912972 15.7053 1.36516 17.3028 2.21448C18.9003 3.0638 20.2587 4.28409 21.2577 5.76743C22.2568 7.25076 22.8659 8.95144 23.031 10.719C23.1962 12.4866 22.9123 14.2667 22.2045 15.9018C21.4967 17.5369 20.3869 18.9767 18.9731 20.0938C18.3617 20.6116 17.863 21.2439 17.5064 21.953C17.1498 22.6622 16.9426 23.4339 16.8971 24.2226H12.4011V14.244H15.3211C15.4271 14.244 15.5289 14.2029 15.6039 14.1297C15.6789 14.0565 15.7211 13.9573 15.7211 13.8538C15.7211 13.7503 15.6789 13.651 15.6039 13.5778C15.5289 13.5046 15.4271 13.4635 15.3211 13.4635H8.67306C8.56697 13.4635 8.46523 13.5046 8.39022 13.5778C8.3152 13.651 8.27306 13.7503 8.27306 13.8538C8.27306 13.9573 8.3152 14.0565 8.39022 14.1297C8.46523 14.2029 8.56697 14.244 8.67306 14.244H11.6011V24.2226H7.08906C7.06326 23.3927 6.85573 22.5779 6.48041 21.8327C6.10509 21.0876 5.57068 20.4295 4.91306 19.9026Z" fill="#D55A5F"/>
<path fill-rule="evenodd" clip-rule="evenodd" d="M19.9171 3.0167C21.1979 4.13829 22.2146 5.51719 22.8973 7.05859C23.5799 8.59999 23.9124 10.2673 23.8717 11.946C23.831 13.6247 23.4182 15.2748 22.6617 16.783C21.9051 18.2913 20.8228 19.6217 19.4891 20.683C18.9262 21.1619 18.4748 21.7526 18.1651 22.4155C17.8553 23.0785 17.6944 23.7984 17.6931 24.5269V28.3865C17.6931 29.318 17.3138 30.2113 16.6386 30.87C15.9635 31.5286 15.0478 31.8987 14.0931 31.8987H9.89306C8.93828 31.8987 8.02261 31.5286 7.34748 30.87C6.67235 30.2113 6.29306 29.318 6.29306 28.3865V24.3552C6.28493 23.6191 6.11128 22.8937 5.78436 22.2302C5.45744 21.5667 4.98523 20.9812 4.40106 20.5152C2.89036 19.3129 1.71391 17.7592 0.979963 15.997C0.24602 14.2349 -0.0218299 12.3209 0.201062 10.4313C0.438378 8.31549 1.26773 6.30411 2.59834 4.61733C3.92895 2.93056 5.70954 1.6334 7.74522 0.867841C9.78091 0.102277 11.9932 -0.10219 14.1401 0.276819C16.2869 0.655828 18.2855 1.6037 19.9171 3.0167ZM0.04206 10.4139C0.282634 8.26977 1.12312 6.23148 2.47154 4.52213C3.82006 2.81266 5.6246 1.49805 7.68767 0.72219C9.75075 -0.0536741 11.9928 -0.260892 14.1685 0.123216C16.3442 0.507324 18.3697 1.46795 20.0233 2.89997L20.0239 2.90053C21.322 4.03718 22.3523 5.43458 23.0442 6.99667C23.736 8.55876 24.0729 10.2485 24.0316 11.9497C23.9904 13.6509 23.5721 15.3232 22.8054 16.8517C22.0391 18.3793 20.9429 19.7271 19.5923 20.8024C19.0475 21.2663 18.6106 21.8384 18.3106 22.4803C18.0104 23.1229 17.8544 23.8207 17.8531 24.5269C17.8531 24.527 17.8531 24.5269 17.8531 24.5269M17.8531 24.5269V28.3865C17.8531 29.3594 17.4569 30.2924 16.7518 30.9803C16.0466 31.6683 15.0903 32.0548 14.0931 32.0548H9.89306C8.89585 32.0548 7.93948 31.6683 7.23434 30.9803C6.5292 30.2924 6.13306 29.3594 6.13306 28.3865V24.3561C6.12506 23.6431 5.95681 22.9405 5.64016 22.2978C5.32341 21.6549 4.8659 21.0877 4.29992 20.6362C2.76843 19.4173 1.57578 17.8422 0.831733 16.0558C0.0877445 14.2695 -0.183808 12.3294 0.04206 10.4139M5.01461 19.7819C5.68987 20.323 6.23862 20.9988 6.62401 21.7639C6.98655 22.4836 7.19663 23.2668 7.24231 24.0665H11.4411V14.4001H8.67306C8.52454 14.4001 8.3821 14.3426 8.27708 14.2401C8.17206 14.1376 8.11306 13.9987 8.11306 13.8538C8.11306 13.7089 8.17206 13.5699 8.27708 13.4675C8.3821 13.365 8.52454 13.3074 8.67306 13.3074H15.3211C15.4696 13.3074 15.612 13.365 15.717 13.4675C15.8221 13.5699 15.8811 13.7089 15.8811 13.8538C15.8811 13.9987 15.8221 14.1376 15.717 14.2401C15.612 14.3426 15.4696 14.4001 15.3211 14.4001H12.5611V24.0665H16.7477C16.8105 23.3083 17.019 22.568 17.3628 21.8843C17.7288 21.1564 18.2407 20.5075 18.8682 19.9759L18.8723 19.9724C20.2657 18.8715 21.3596 17.4526 22.0571 15.8411C22.7547 14.2296 23.0344 12.4753 22.8717 10.7332C22.7089 8.99115 22.1087 7.31505 21.124 5.85315C20.1394 4.39125 18.8006 3.18859 17.2262 2.35155C15.6518 1.5145 13.8902 1.06885 12.0973 1.05401C10.3043 1.03917 8.53526 1.4556 6.94652 2.26648C5.35777 3.07735 3.99832 4.25768 2.98838 5.70307C1.97844 7.14847 1.34914 8.81439 1.15613 10.5535C0.95717 12.2836 1.20601 14.0354 1.88003 15.6475C2.55404 17.2595 3.63203 18.6812 5.01461 19.7819ZM16.8971 24.2226H12.4011V14.244H15.3211C15.4271 14.244 15.5289 14.2029 15.6039 14.1297C15.6789 14.0565 15.7211 13.9573 15.7211 13.8538C15.7211 13.7503 15.6789 13.651 15.6039 13.5778C15.5289 13.5046 15.4271 13.4635 15.3211 13.4635H8.67306C8.56697 13.4635 8.46523 13.5046 8.39022 13.5778C8.3152 13.651 8.27306 13.7503 8.27306 13.8538C8.27306 13.9573 8.3152 14.0565 8.39022 14.1297C8.46523 14.2029 8.56697 14.244 8.67306 14.244H11.6011V24.2226H7.08906C7.06326 23.3927 6.85573 22.5779 6.48041 21.8327C6.10509 21.0876 5.57068 20.4295 4.91306 19.9026C3.50975 18.7853 2.416 17.3426 1.73188 15.7064C1.04776 14.0702 0.795117 12.2928 0.997062 10.5367C1.1929 8.77209 1.83143 7.08174 2.85617 5.61515C3.88092 4.14856 5.26031 2.95093 6.87235 2.12816C8.48439 1.3054 10.2794 0.882862 12.0986 0.897917C13.9179 0.912972 15.7053 1.36516 17.3028 2.21448C18.9003 3.0638 20.2587 4.28409 21.2577 5.76743C22.2568 7.25076 22.8659 8.95144 23.031 10.719C23.1962 12.4866 22.9123 14.2667 22.2045 15.9018C21.4967 17.5369 20.3869 18.9767 18.9731 20.0938C18.3617 20.6116 17.863 21.2439 17.5064 21.953C17.1498 22.6622 16.9426 23.4339 16.8971 24.2226ZM15.9598 30.2077C16.4549 29.7247 16.7331 29.0696 16.7331 28.3865V25.1591H7.25306V28.3865C7.25306 29.0696 7.5312 29.7247 8.0263 30.2077C8.5214 30.6907 9.19289 30.9621 9.89306 30.9621H14.0931C14.7932 30.9621 15.4647 30.6907 15.9598 30.2077ZM16.073 30.3181C16.5981 29.8058 16.8931 29.111 16.8931 28.3865V25.003H7.09306V28.3865C7.09306 29.111 7.38806 29.8058 7.91316 30.3181C8.43826 30.8304 9.15046 31.1182 9.89306 31.1182H14.0931C14.8357 31.1182 15.5479 30.8304 16.073 30.3181Z" fill="#D55A5F"/>
</g>
<defs>
<clipPath id="clip0">
<rect width="24" height="32" fill="white"/>
</clipPath>
</defs>
</svg>
