<svg width="22" height="22" viewBox="0 0 22 22" fill="none" xmlns="http://www.w3.org/2000/svg">
<path d="M19.2487 5.49996H14.6654V3.96913C14.6439 3.3823 14.3906 2.82793 13.961 2.42756C13.5314 2.02719 12.9606 1.81349 12.3737 1.83329H9.6237C9.03681 1.81349 8.466 2.02719 8.03642 2.42756C7.60684 2.82793 7.35354 3.3823 7.33203 3.96913V5.49996H2.7487C2.50558 5.49996 2.27242 5.59654 2.10052 5.76845C1.92861 5.94036 1.83203 6.17351 1.83203 6.41663C1.83203 6.65974 1.92861 6.8929 2.10052 7.06481C2.27242 7.23672 2.50558 7.33329 2.7487 7.33329H3.66536V17.4166C3.66536 18.146 3.9551 18.8454 4.47082 19.3612C4.98655 19.8769 5.68602 20.1666 6.41536 20.1666H15.582C16.3114 20.1666 17.0109 19.8769 17.5266 19.3612C18.0423 18.8454 18.332 18.146 18.332 17.4166V7.33329H19.2487C19.4918 7.33329 19.725 7.23672 19.8969 7.06481C20.0688 6.8929 20.1654 6.65974 20.1654 6.41663C20.1654 6.17351 20.0688 5.94036 19.8969 5.76845C19.725 5.59654 19.4918 5.49996 19.2487 5.49996ZM9.16536 3.96913C9.16536 3.82246 9.35786 3.66663 9.6237 3.66663H12.3737C12.6395 3.66663 12.832 3.82246 12.832 3.96913V5.49996H9.16536V3.96913ZM16.4987 17.4166C16.4987 17.6597 16.4021 17.8929 16.2302 18.0648C16.0583 18.2367 15.8251 18.3333 15.582 18.3333H6.41536C6.17225 18.3333 5.93909 18.2367 5.76718 18.0648C5.59528 17.8929 5.4987 17.6597 5.4987 17.4166V7.33329H16.4987V17.4166Z" fill="#172515"/>
<path d="M8.2487 15.5833C8.49181 15.5833 8.72497 15.4867 8.89688 15.3148C9.06879 15.1429 9.16536 14.9097 9.16536 14.6666V10.9999C9.16536 10.7568 9.06879 10.5236 8.89688 10.3517C8.72497 10.1798 8.49181 10.0833 8.2487 10.0833C8.00558 10.0833 7.77243 10.1798 7.60052 10.3517C7.42861 10.5236 7.33203 10.7568 7.33203 10.9999V14.6666C7.33203 14.9097 7.42861 15.1429 7.60052 15.3148C7.77243 15.4867 8.00558 15.5833 8.2487 15.5833Z" fill="#172515"/>
<path d="M13.7487 15.5833C13.9918 15.5833 14.225 15.4867 14.3969 15.3148C14.5688 15.1429 14.6654 14.9097 14.6654 14.6666V10.9999C14.6654 10.7568 14.5688 10.5236 14.3969 10.3517C14.225 10.1798 13.9918 10.0833 13.7487 10.0833C13.5056 10.0833 13.2724 10.1798 13.1005 10.3517C12.9286 10.5236 12.832 10.7568 12.832 10.9999V14.6666C12.832 14.9097 12.9286 15.1429 13.1005 15.3148C13.2724 15.4867 13.5056 15.5833 13.7487 15.5833Z" fill="#172515"/>
</svg>
