<svg width="30" height="29" viewBox="0 0 30 29" fill="none" xmlns="http://www.w3.org/2000/svg">
<g clip-path="url(#clip0)">
<path d="M14.6726 29C22.7761 29 29.3452 22.5081 29.3452 14.5C29.3452 6.49187 22.7761 0 14.6726 0C6.56915 0 0 6.49187 0 14.5C0 22.5081 6.56915 29 14.6726 29Z" fill="#32BA7C"/>
<path d="M10.9219 21.0411L18.4665 28.4969C24.7151 26.8502 29.3437 21.224 29.3437 14.5001C29.3437 14.3628 29.3437 14.2256 29.3437 14.0884L23.4191 8.69092L10.9219 21.0411Z" fill="#0AA06E"/>
<path d="M15.0432 17.7479C15.6912 18.3883 15.6912 19.4861 15.0432 20.1264L13.7009 21.4529C13.0529 22.0933 11.942 22.0933 11.294 21.4529L5.41569 15.5981C4.76769 14.9577 4.76769 13.8599 5.41569 13.2195L6.75798 11.893C7.40598 11.2526 8.51684 11.2526 9.16485 11.893L15.0432 17.7479Z" fill="white"/>
<path d="M20.1806 7.63885C20.8286 6.99847 21.9395 6.99847 22.5875 7.63885L23.9298 8.96535C24.5778 9.60573 24.5778 10.7035 23.9298 11.3439L13.7469 21.3612C13.0989 22.0016 11.988 22.0016 11.34 21.3612L9.99772 20.0348C9.34972 19.3944 9.34972 18.2966 9.99772 17.6562L20.1806 7.63885Z" fill="white"/>
</g>
<defs>
<clipPath id="clip0">
<rect width="29.3452" height="29" fill="white"/>
</clipPath>
</defs>
</svg>
