<svg width="24" height="24" viewBox="0 0 24 24" fill="none" xmlns="http://www.w3.org/2000/svg">
<g clip-path="url(#clip0)">
<path d="M18.6783 19.9121L12.3783 23.8913C12.1513 24.0348 11.8588 24.0377 11.6273 23.8913L5.32732 19.9121C4.89087 19.6363 4.89092 18.9994 5.32732 18.7235L11.5364 14.8021C11.7632 14.6589 12.0529 14.6576 12.2794 14.7974L18.6708 18.7189C19.114 18.9902 19.1177 19.6343 18.6783 19.9121Z" fill="#7A7272"/>
<path d="M18.6755 19.912L12.3755 23.8911C12.2606 23.9637 12.1303 23.9998 12 23.9998V14.6992C12.2127 14.7273 11.7684 14.4854 18.668 18.7187C19.1112 18.99 19.1149 19.6341 18.6755 19.912Z" fill="#5B5151"/>
<path d="M19.0467 9.96473C18.4448 11.7068 17.3466 13.1935 16.2848 14.631C15.2386 16.0474 15.6489 15.5082 12.5775 19.8952C12.2983 20.296 11.7036 20.296 11.4244 19.8952C8.57194 15.8335 8.92378 16.2647 7.71703 14.631C6.65531 13.1935 5.55703 11.7068 4.95516 9.96473C4.08422 7.44272 4.46063 4.94747 6.01547 2.93822C7.43906 1.09861 9.67688 0 12.0009 0C14.325 0 16.5628 1.09861 17.9864 2.93822C19.6045 5.02903 19.8815 7.54739 19.0467 9.96473Z" fill="#EEAB34"/>
<path d="M19.0458 9.96473C18.4439 11.7068 17.3456 13.1935 16.2839 14.631C15.2377 16.0474 15.648 15.5082 12.5766 19.8952C12.4453 20.0836 12.2297 20.1961 12 20.1961V0C14.3241 0 16.5619 1.09861 17.9855 2.93822C19.6036 5.02903 19.8805 7.54739 19.0458 9.96473Z" fill="#E37D38"/>
<path d="M15.2697 7.56187C15.2697 9.36304 13.8039 10.8286 12.002 10.8286C10.2002 10.8286 8.73438 9.36299 8.73438 7.56187C8.73438 5.76022 10.2002 4.29468 12.002 4.29468C13.8039 4.29468 15.2697 5.76022 15.2697 7.56187Z" fill="white"/>
<path d="M15.2677 7.56187C15.2677 9.36304 13.8019 10.8286 12 10.8286V4.29468C13.8019 4.29468 15.2677 5.76022 15.2677 7.56187Z" fill="white"/>
</g>
<defs>
<clipPath id="clip0">
<rect width="24" height="24" fill="white"/>
</clipPath>
</defs>
</svg>
