<svg width="18" height="18" viewBox="0 0 18 18" fill="none" xmlns="http://www.w3.org/2000/svg">
<path d="M8.99199 0.999939C4.39199 0.999939 0.666992 4.73327 0.666992 9.33327C0.666992 13.9333 4.39199 17.6666 8.99199 17.6666C13.6003 17.6666 17.3337 13.9333 17.3337 9.33327C17.3337 4.73327 13.6003 0.999939 8.99199 0.999939ZM14.767 5.99994H12.3087C12.0478 4.96782 11.6616 3.97152 11.1587 3.03327C12.6788 3.55661 13.9596 4.60971 14.767 5.99994ZM9.00033 2.69994C9.69199 3.69994 10.2337 4.80827 10.592 5.99994H7.40866C7.76699 4.80827 8.30866 3.69994 9.00033 2.69994ZM2.55033 10.9999C2.41699 10.4666 2.33366 9.90827 2.33366 9.33327C2.33366 8.75827 2.41699 8.19994 2.55033 7.66661H5.36699C5.30033 8.21661 5.25033 8.76661 5.25033 9.33327C5.25033 9.89994 5.30033 10.4499 5.36699 10.9999H2.55033ZM3.23366 12.6666H5.69199C5.95866 13.7083 6.34199 14.7083 6.84199 15.6333C5.3203 15.1128 4.03852 14.059 3.23366 12.6666ZM5.69199 5.99994H3.23366C4.03852 4.60759 5.3203 3.55375 6.84199 3.03327C6.33901 3.97152 5.95281 4.96782 5.69199 5.99994ZM9.00033 15.9666C8.30866 14.9666 7.76699 13.8583 7.40866 12.6666H10.592C10.2337 13.8583 9.69199 14.9666 9.00033 15.9666ZM10.9503 10.9999H7.05033C6.97533 10.4499 6.91699 9.89994 6.91699 9.33327C6.91699 8.76661 6.97533 8.20827 7.05033 7.66661H10.9503C11.0253 8.20827 11.0837 8.76661 11.0837 9.33327C11.0837 9.89994 11.0253 10.4499 10.9503 10.9999ZM11.1587 15.6333C11.6587 14.7083 12.042 13.7083 12.3087 12.6666H14.767C13.9596 14.0568 12.6788 15.1099 11.1587 15.6333ZM12.6337 10.9999C12.7003 10.4499 12.7503 9.89994 12.7503 9.33327C12.7503 8.76661 12.7003 8.21661 12.6337 7.66661H15.4503C15.5837 8.19994 15.667 8.75827 15.667 9.33327C15.667 9.90827 15.5837 10.4666 15.4503 10.9999H12.6337Z" fill="#5B5151" stroke="#F4F4EA" stroke-width="0.6"/>
</svg>
