<svg width="18" height="18" viewBox="0 0 18 18" fill="none" xmlns="http://www.w3.org/2000/svg">
<path d="M14.7247 5.99778C14.7345 6.12903 14.7345 6.25953 14.7345 6.39003C14.7345 10.3838 11.6947 14.9858 6.1395 14.9858C4.428 14.9858 2.838 14.49 1.5 13.629C1.743 13.6568 1.977 13.6665 2.22975 13.6665C3.58949 13.6698 4.91073 13.2151 5.9805 12.3758C5.35007 12.3644 4.73893 12.1564 4.23243 11.7808C3.72593 11.4053 3.34934 10.881 3.15525 10.281C3.342 10.3088 3.5295 10.3275 3.726 10.3275C3.99675 10.3275 4.269 10.29 4.52175 10.2248C3.83757 10.0866 3.22236 9.71579 2.78071 9.1753C2.33907 8.6348 2.09827 7.95802 2.09925 7.26003V7.22253C2.502 7.44678 2.96925 7.58703 3.46425 7.60578C3.04957 7.33022 2.70954 6.9563 2.4745 6.51738C2.23947 6.07845 2.11673 5.58817 2.11725 5.09028C2.11725 4.52928 2.2665 4.01478 2.52825 3.56628C3.28735 4.50005 4.23413 5.26395 5.30725 5.80853C6.38038 6.3531 7.55592 6.66619 8.75775 6.72753C8.71125 6.50253 8.68275 6.26928 8.68275 6.03528C8.68255 5.6385 8.76056 5.24558 8.91231 4.87896C9.06406 4.51235 9.28658 4.17924 9.56714 3.89867C9.84771 3.61811 10.1808 3.39559 10.5474 3.24384C10.914 3.09209 11.307 3.01409 11.7037 3.01428C12.5737 3.01428 13.359 3.37878 13.911 3.96828C14.5873 3.8375 15.2359 3.5906 15.828 3.23853C15.6026 3.93664 15.1303 4.52861 14.4998 4.90353C15.0996 4.83512 15.6858 4.67737 16.239 4.43553C15.8258 5.03786 15.3139 5.56604 14.7247 5.99778Z" fill="#E37D38"/>
</svg>
