<svg width="359" height="240" viewBox="0 0 359 240" fill="none" xmlns="http://www.w3.org/2000/svg">
<rect width="359" height="240" rx="12" fill="white"/>
<rect x="0.5" y="0.5" width="358" height="239" rx="11.5" stroke="#5B5151" stroke-opacity="0.1"/>
<path d="M16 36C16 24.9543 24.9543 16 36 16H212C223.046 16 232 24.9543 232 36V56C232 67.0457 223.046 76 212 76H16V36Z" fill="#F5F9FF"/>
<path d="M65.232 32.032H66.38V42H65.232V32.032ZM75.3058 42.098C74.6244 42.098 74.0271 41.9487 73.5138 41.65C73.0098 41.3513 72.6178 40.9313 72.3378 40.39C72.0671 39.8393 71.9318 39.2 71.9318 38.472C71.9318 37.744 72.0718 37.1047 72.3518 36.554C72.6318 35.994 73.0284 35.56 73.5418 35.252C74.0644 34.944 74.6711 34.79 75.3618 34.79C75.8378 34.79 76.2951 34.874 76.7338 35.042C77.1818 35.2007 77.5504 35.4247 77.8398 35.714L77.4618 36.554C77.1071 36.274 76.7618 36.0687 76.4258 35.938C76.0991 35.8073 75.7631 35.742 75.4178 35.742C74.6991 35.742 74.1344 35.9847 73.7238 36.47C73.3131 36.946 73.1078 37.6133 73.1078 38.472C73.1078 39.3213 73.3084 39.984 73.7098 40.46C74.1204 40.9267 74.6898 41.16 75.4178 41.16C75.7631 41.16 76.0991 41.0947 76.4258 40.964C76.7618 40.8333 77.1071 40.628 77.4618 40.348L77.8398 41.188C77.5411 41.468 77.1631 41.692 76.7058 41.86C76.2578 42.0187 75.7911 42.098 75.3058 42.098ZM85.4854 34.958V42H84.3654V40.726C84.1601 41.1647 83.8474 41.5053 83.4274 41.748C83.0167 41.9813 82.5361 42.098 81.9854 42.098C81.3601 42.098 80.8094 41.9487 80.3334 41.65C79.8667 41.3513 79.5027 40.9313 79.2414 40.39C78.9894 39.8393 78.8634 39.2 78.8634 38.472C78.8634 37.744 78.9941 37.1047 79.2554 36.554C79.5167 35.994 79.8807 35.56 80.3474 35.252C80.8234 34.944 81.3694 34.79 81.9854 34.79C82.5361 34.79 83.0167 34.9113 83.4274 35.154C83.8381 35.3967 84.1507 35.7373 84.3654 36.176V34.958H85.4854ZM82.2094 41.16C82.9001 41.16 83.4321 40.9267 83.8054 40.46C84.1787 39.984 84.3654 39.312 84.3654 38.444C84.3654 37.576 84.1787 36.9087 83.8054 36.442C83.4321 35.9753 82.9001 35.742 82.2094 35.742C81.5187 35.742 80.9774 35.9847 80.5854 36.47C80.2027 36.946 80.0114 37.6133 80.0114 38.472C80.0114 39.3307 80.2027 39.9933 80.5854 40.46C80.9681 40.9267 81.5094 41.16 82.2094 41.16ZM91.1919 34.79C92.8813 34.79 93.7259 35.7187 93.7259 37.576V42H92.5919V37.632C92.5919 36.9787 92.4613 36.5027 92.1999 36.204C91.9386 35.896 91.5279 35.742 90.9679 35.742C90.3146 35.742 89.7919 35.9427 89.3999 36.344C89.0079 36.7453 88.8119 37.2867 88.8119 37.968V42H87.6779V36.932C87.6779 36.204 87.6406 35.546 87.5659 34.958H88.6439L88.7559 36.218C88.9706 35.7607 89.2926 35.4107 89.7219 35.168C90.1513 34.916 90.6413 34.79 91.1919 34.79ZM96.8536 32.032V33.054C96.8536 33.446 96.7883 33.8053 96.6576 34.132C96.527 34.4587 96.3076 34.7807 95.9996 35.098L95.4676 34.678C95.8316 34.258 96.037 33.8567 96.0836 33.474H95.4116V32.032H96.8536ZM100.401 35.854V39.704C100.401 40.2267 100.508 40.5953 100.723 40.81C100.938 41.0153 101.241 41.118 101.633 41.118C101.894 41.118 102.146 41.076 102.389 40.992V41.958C102.1 42.0513 101.773 42.098 101.409 42.098C100.737 42.098 100.21 41.9113 99.8269 41.538C99.4535 41.1553 99.2669 40.5953 99.2669 39.858V35.854H97.8949V34.958H99.2669V33.152L100.401 32.746V34.958H102.417V35.854H100.401ZM113.328 38.444H108.162C108.171 39.34 108.376 40.0167 108.778 40.474C109.188 40.9313 109.781 41.16 110.556 41.16C111.377 41.16 112.133 40.8847 112.824 40.334L113.202 41.16C112.894 41.4493 112.497 41.678 112.012 41.846C111.536 42.014 111.046 42.098 110.542 42.098C109.44 42.098 108.577 41.776 107.952 41.132C107.326 40.4787 107.014 39.5873 107.014 38.458C107.014 37.7393 107.154 37.1047 107.434 36.554C107.714 35.994 108.106 35.56 108.61 35.252C109.114 34.944 109.688 34.79 110.332 34.79C111.265 34.79 111.998 35.098 112.53 35.714C113.062 36.3207 113.328 37.1607 113.328 38.234V38.444ZM110.346 35.672C109.758 35.672 109.277 35.8493 108.904 36.204C108.54 36.5587 108.306 37.058 108.204 37.702H112.306C112.25 37.0393 112.054 36.5353 111.718 36.19C111.391 35.8447 110.934 35.672 110.346 35.672ZM121.251 34.958V42H120.131V40.726C119.926 41.1647 119.613 41.5053 119.193 41.748C118.782 41.9813 118.302 42.098 117.751 42.098C117.126 42.098 116.575 41.9487 116.099 41.65C115.632 41.3513 115.268 40.9313 115.007 40.39C114.755 39.8393 114.629 39.2 114.629 38.472C114.629 37.744 114.76 37.1047 115.021 36.554C115.282 35.994 115.646 35.56 116.113 35.252C116.589 34.944 117.135 34.79 117.751 34.79C118.302 34.79 118.782 34.9113 119.193 35.154C119.604 35.3967 119.916 35.7373 120.131 36.176V34.958H121.251ZM117.975 41.16C118.666 41.16 119.198 40.9267 119.571 40.46C119.944 39.984 120.131 39.312 120.131 38.444C120.131 37.576 119.944 36.9087 119.571 36.442C119.198 35.9753 118.666 35.742 117.975 35.742C117.284 35.742 116.743 35.9847 116.351 36.47C115.968 36.946 115.777 37.6133 115.777 38.472C115.777 39.3307 115.968 39.9933 116.351 40.46C116.734 40.9267 117.275 41.16 117.975 41.16ZM125.824 42.098C124.638 42.098 123.7 41.7947 123.01 41.188L123.388 40.348C123.77 40.6467 124.158 40.8613 124.55 40.992C124.942 41.1227 125.38 41.188 125.866 41.188C126.398 41.188 126.799 41.0993 127.07 40.922C127.35 40.7353 127.49 40.4693 127.49 40.124C127.49 39.844 127.396 39.62 127.21 39.452C127.023 39.284 126.715 39.1533 126.286 39.06L125.096 38.78C124.508 38.6493 124.05 38.416 123.724 38.08C123.406 37.744 123.248 37.3427 123.248 36.876C123.248 36.26 123.495 35.7607 123.99 35.378C124.484 34.986 125.138 34.79 125.95 34.79C126.444 34.79 126.911 34.8693 127.35 35.028C127.788 35.1867 128.157 35.4153 128.456 35.714L128.078 36.54C127.415 35.9893 126.706 35.714 125.95 35.714C125.446 35.714 125.054 35.812 124.774 36.008C124.503 36.1947 124.368 36.4607 124.368 36.806C124.368 37.0953 124.452 37.324 124.62 37.492C124.797 37.66 125.077 37.7907 125.46 37.884L126.65 38.178C127.303 38.3273 127.788 38.5607 128.106 38.878C128.423 39.186 128.582 39.592 128.582 40.096C128.582 40.7027 128.334 41.188 127.84 41.552C127.345 41.916 126.673 42.098 125.824 42.098ZM130.389 34.958H131.523V42H130.389V34.958ZM131.663 31.976V33.264H130.277V31.976H131.663ZM133.725 31.696H134.859V42H133.725V31.696ZM143.249 34.958L139.959 42.644C139.613 43.4467 139.179 44.0347 138.657 44.408C138.134 44.7813 137.49 45.038 136.725 45.178L136.487 44.296C137.149 44.1467 137.649 43.946 137.985 43.694C138.33 43.4513 138.615 43.0733 138.839 42.56L139.119 41.93L136.137 34.958H137.327L139.707 40.768L142.115 34.958H143.249ZM148.149 34.958H149.283V42H148.149V34.958ZM149.423 31.976V33.264H148.037V31.976H149.423ZM159.297 34.79C160.855 34.79 161.635 35.7187 161.635 37.576V42H160.501V37.632C160.501 36.9693 160.384 36.4887 160.151 36.19C159.927 35.8913 159.558 35.742 159.045 35.742C158.447 35.742 157.981 35.9427 157.645 36.344C157.309 36.7453 157.141 37.2913 157.141 37.982V42H156.007V37.632C156.007 36.9787 155.89 36.5027 155.657 36.204C155.423 35.896 155.05 35.742 154.537 35.742C153.939 35.742 153.468 35.9427 153.123 36.344C152.787 36.7453 152.619 37.2913 152.619 37.982V42H151.485V36.932C151.485 36.204 151.447 35.546 151.373 34.958H152.451L152.563 36.19C152.759 35.742 153.048 35.3967 153.431 35.154C153.823 34.9113 154.275 34.79 154.789 34.79C155.349 34.79 155.806 34.902 156.161 35.126C156.515 35.35 156.777 35.6953 156.945 36.162C157.159 35.742 157.472 35.4107 157.883 35.168C158.303 34.916 158.774 34.79 159.297 34.79ZM167.303 34.79C167.919 34.79 168.465 34.944 168.941 35.252C169.417 35.56 169.786 35.994 170.047 36.554C170.309 37.1047 170.439 37.744 170.439 38.472C170.439 39.2 170.309 39.8393 170.047 40.39C169.786 40.9313 169.417 41.3513 168.941 41.65C168.475 41.9487 167.929 42.098 167.303 42.098C166.753 42.098 166.272 41.9767 165.861 41.734C165.451 41.4913 165.138 41.146 164.923 40.698V45.024H163.789V36.932C163.789 36.204 163.752 35.546 163.677 34.958H164.755L164.867 36.316C165.063 35.8307 165.371 35.4573 165.791 35.196C166.221 34.9253 166.725 34.79 167.303 34.79ZM167.093 41.16C167.784 41.16 168.316 40.9267 168.689 40.46C169.072 39.9933 169.263 39.3307 169.263 38.472C169.263 37.6133 169.072 36.946 168.689 36.47C168.307 35.9847 167.775 35.742 167.093 35.742C166.393 35.742 165.857 35.9753 165.483 36.442C165.11 36.9087 164.923 37.576 164.923 38.444C164.923 39.312 165.11 39.984 165.483 40.46C165.857 40.9267 166.393 41.16 167.093 41.16ZM175.46 34.79C175.693 34.79 175.908 34.818 176.104 34.874L176.076 35.91C175.861 35.8353 175.614 35.798 175.334 35.798C174.652 35.798 174.144 36.0127 173.808 36.442C173.481 36.862 173.318 37.3753 173.318 37.982V42H172.184V36.932C172.184 36.204 172.146 35.546 172.072 34.958H173.15L173.262 36.26C173.439 35.784 173.724 35.42 174.116 35.168C174.508 34.916 174.956 34.79 175.46 34.79ZM180.031 42.098C179.369 42.098 178.785 41.9487 178.281 41.65C177.777 41.3513 177.385 40.9267 177.105 40.376C176.835 39.8253 176.699 39.1813 176.699 38.444C176.699 37.7067 176.835 37.0627 177.105 36.512C177.385 35.9613 177.777 35.5367 178.281 35.238C178.785 34.9393 179.369 34.79 180.031 34.79C180.694 34.79 181.277 34.9393 181.781 35.238C182.285 35.5367 182.673 35.9613 182.943 36.512C183.223 37.0627 183.363 37.7067 183.363 38.444C183.363 39.1813 183.223 39.8253 182.943 40.376C182.673 40.9267 182.285 41.3513 181.781 41.65C181.277 41.9487 180.694 42.098 180.031 42.098ZM180.031 41.16C180.731 41.16 181.268 40.9313 181.641 40.474C182.015 40.0073 182.201 39.3307 182.201 38.444C182.201 37.5853 182.01 36.9227 181.627 36.456C181.245 35.98 180.713 35.742 180.031 35.742C179.341 35.742 178.804 35.98 178.421 36.456C178.039 36.9227 177.847 37.5853 177.847 38.444C177.847 39.3307 178.034 40.0073 178.407 40.474C178.79 40.9313 179.331 41.16 180.031 41.16ZM191.237 34.972L188.199 42H187.121L184.125 34.972H185.315L187.695 40.768L190.103 34.972H191.237ZM198.299 38.444H193.133C193.142 39.34 193.347 40.0167 193.749 40.474C194.159 40.9313 194.752 41.16 195.527 41.16C196.348 41.16 197.104 40.8847 197.795 40.334L198.173 41.16C197.865 41.4493 197.468 41.678 196.983 41.846C196.507 42.014 196.017 42.098 195.513 42.098C194.411 42.098 193.548 41.776 192.923 41.132C192.297 40.4787 191.985 39.5873 191.985 38.458C191.985 37.7393 192.125 37.1047 192.405 36.554C192.685 35.994 193.077 35.56 193.581 35.252C194.085 34.944 194.659 34.79 195.303 34.79C196.236 34.79 196.969 35.098 197.501 35.714C198.033 36.3207 198.299 37.1607 198.299 38.234V38.444ZM195.317 35.672C194.729 35.672 194.248 35.8493 193.875 36.204C193.511 36.5587 193.277 37.058 193.175 37.702H197.277C197.221 37.0393 197.025 36.5353 196.689 36.19C196.362 35.8447 195.905 35.672 195.317 35.672ZM65.092 52.958H66.226V60H65.092V52.958ZM66.366 49.976V51.264H64.98V49.976H66.366ZM71.9419 52.79C73.6313 52.79 74.4759 53.7187 74.4759 55.576V60H73.3419V55.632C73.3419 54.9787 73.2113 54.5027 72.9499 54.204C72.6886 53.896 72.2779 53.742 71.7179 53.742C71.0646 53.742 70.5419 53.9427 70.1499 54.344C69.7579 54.7453 69.5619 55.2867 69.5619 55.968V60H68.4279V54.932C68.4279 54.204 68.3906 53.546 68.3159 52.958H69.3939L69.5059 54.218C69.7206 53.7607 70.0426 53.4107 70.4719 53.168C70.9013 52.916 71.3913 52.79 71.9419 52.79ZM78.1294 53.854V57.704C78.1294 58.2267 78.2367 58.5953 78.4514 58.81C78.6661 59.0153 78.9694 59.118 79.3614 59.118C79.6227 59.118 79.8747 59.076 80.1174 58.992V59.958C79.8281 60.0513 79.5014 60.098 79.1374 60.098C78.4654 60.098 77.9381 59.9113 77.5554 59.538C77.1821 59.1553 76.9954 58.5953 76.9954 57.858V53.854H75.6234V52.958H76.9954V51.152L78.1294 50.746V52.958H80.1454V53.854H78.1294ZM87.4059 56.444H82.2399C82.2493 57.34 82.4546 58.0167 82.8559 58.474C83.2666 58.9313 83.8593 59.16 84.6339 59.16C85.4553 59.16 86.2113 58.8847 86.9019 58.334L87.2799 59.16C86.9719 59.4493 86.5753 59.678 86.0899 59.846C85.6139 60.014 85.1239 60.098 84.6199 60.098C83.5186 60.098 82.6553 59.776 82.0299 59.132C81.4046 58.4787 81.0919 57.5873 81.0919 56.458C81.0919 55.7393 81.2319 55.1047 81.5119 54.554C81.7919 53.994 82.1839 53.56 82.6879 53.252C83.1919 52.944 83.7659 52.79 84.4099 52.79C85.3433 52.79 86.0759 53.098 86.6079 53.714C87.1399 54.3207 87.4059 55.1607 87.4059 56.234V56.444ZM84.4239 53.672C83.8359 53.672 83.3553 53.8493 82.9819 54.204C82.6179 54.5587 82.3846 55.058 82.2819 55.702H86.3839C86.3279 55.0393 86.1319 54.5353 85.7959 54.19C85.4693 53.8447 85.0119 53.672 84.4239 53.672ZM92.4032 52.79C92.6365 52.79 92.8512 52.818 93.0472 52.874L93.0192 53.91C92.8045 53.8353 92.5572 53.798 92.2772 53.798C91.5958 53.798 91.0872 54.0127 90.7512 54.442C90.4245 54.862 90.2612 55.3753 90.2612 55.982V60H89.1272V54.932C89.1272 54.204 89.0898 53.546 89.0152 52.958H90.0932L90.2052 54.26C90.3825 53.784 90.6672 53.42 91.0592 53.168C91.4512 52.916 91.8992 52.79 92.4032 52.79ZM97.7134 52.79C99.4028 52.79 100.247 53.7187 100.247 55.576V60H99.1134V55.632C99.1134 54.9787 98.9828 54.5027 98.7214 54.204C98.4601 53.896 98.0494 53.742 97.4894 53.742C96.8361 53.742 96.3134 53.9427 95.9214 54.344C95.5294 54.7453 95.3334 55.2867 95.3334 55.968V60H94.1994V54.932C94.1994 54.204 94.1621 53.546 94.0874 52.958H95.1654L95.2774 54.218C95.4921 53.7607 95.8141 53.4107 96.2434 53.168C96.6728 52.916 97.1628 52.79 97.7134 52.79ZM108.591 52.958V60H107.471V58.726C107.266 59.1647 106.953 59.5053 106.533 59.748C106.122 59.9813 105.642 60.098 105.091 60.098C104.466 60.098 103.915 59.9487 103.439 59.65C102.972 59.3513 102.608 58.9313 102.347 58.39C102.095 57.8393 101.969 57.2 101.969 56.472C101.969 55.744 102.1 55.1047 102.361 54.554C102.622 53.994 102.986 53.56 103.453 53.252C103.929 52.944 104.475 52.79 105.091 52.79C105.642 52.79 106.122 52.9113 106.533 53.154C106.944 53.3967 107.256 53.7373 107.471 54.176V52.958H108.591ZM105.315 59.16C106.006 59.16 106.538 58.9267 106.911 58.46C107.284 57.984 107.471 57.312 107.471 56.444C107.471 55.576 107.284 54.9087 106.911 54.442C106.538 53.9753 106.006 53.742 105.315 53.742C104.624 53.742 104.083 53.9847 103.691 54.47C103.308 54.946 103.117 55.6133 103.117 56.472C103.117 57.3307 103.308 57.9933 103.691 58.46C104.074 58.9267 104.615 59.16 105.315 59.16ZM110.783 49.696H111.917V60H110.783V49.696ZM117.77 49.696H118.904V60H117.77V49.696ZM121.106 52.958H122.24V60H121.106V52.958ZM122.38 49.976V51.264H120.994V49.976H122.38ZM127.956 52.79C129.645 52.79 130.49 53.7187 130.49 55.576V60H129.356V55.632C129.356 54.9787 129.225 54.5027 128.964 54.204C128.702 53.896 128.292 53.742 127.732 53.742C127.078 53.742 126.556 53.9427 126.164 54.344C125.772 54.7453 125.576 55.2867 125.576 55.968V60H124.442V54.932C124.442 54.204 124.404 53.546 124.33 52.958H125.408L125.52 54.218C125.734 53.7607 126.056 53.4107 126.486 53.168C126.915 52.916 127.405 52.79 127.956 52.79ZM137.377 60L133.765 56.612V60H132.631V49.696H133.765V56.192L137.083 52.972H138.525L134.997 56.346L138.861 60H137.377ZM139.836 52.958H140.97V60H139.836V52.958ZM141.11 49.976V51.264H139.724V49.976H141.11ZM146.686 52.79C148.375 52.79 149.22 53.7187 149.22 55.576V60H148.086V55.632C148.086 54.9787 147.955 54.5027 147.694 54.204C147.433 53.896 147.022 53.742 146.462 53.742C145.809 53.742 145.286 53.9427 144.894 54.344C144.502 54.7453 144.306 55.2867 144.306 55.968V60H143.172V54.932C143.172 54.204 143.135 53.546 143.06 52.958H144.138L144.25 54.218C144.465 53.7607 144.787 53.4107 145.216 53.168C145.645 52.916 146.135 52.79 146.686 52.79ZM157.634 52.958V59.944C157.634 60.9893 157.363 61.778 156.822 62.31C156.29 62.8513 155.501 63.122 154.456 63.122C153.382 63.122 152.458 62.8793 151.684 62.394L151.88 61.47C152.328 61.722 152.748 61.904 153.14 62.016C153.541 62.128 153.98 62.184 154.456 62.184C155.137 62.184 155.65 62.002 155.996 61.638C156.341 61.2833 156.514 60.7513 156.514 60.042V58.376C156.299 58.824 155.982 59.174 155.562 59.426C155.151 59.6687 154.661 59.79 154.092 59.79C153.476 59.79 152.925 59.6453 152.44 59.356C151.964 59.0667 151.595 58.656 151.334 58.124C151.072 57.592 150.942 56.9807 150.942 56.29C150.942 55.5993 151.072 54.988 151.334 54.456C151.595 53.924 151.964 53.5133 152.44 53.224C152.925 52.9347 153.476 52.79 154.092 52.79C154.652 52.79 155.137 52.9113 155.548 53.154C155.968 53.3967 156.285 53.7373 156.5 54.176V52.958H157.634ZM154.316 58.838C154.997 58.838 155.529 58.614 155.912 58.166C156.304 57.7087 156.5 57.0833 156.5 56.29C156.5 55.4967 156.304 54.876 155.912 54.428C155.529 53.9707 154.997 53.742 154.316 53.742C153.625 53.742 153.079 53.9707 152.678 54.428C152.286 54.876 152.09 55.4967 152.09 56.29C152.09 57.0833 152.286 57.7087 152.678 58.166C153.079 58.614 153.625 58.838 154.316 58.838Z" fill="#5B5151"/>
<circle cx="41" cy="43" r="15" fill="white"/>
<mask id="mask0" mask-type="alpha" maskUnits="userSpaceOnUse" x="26" y="28" width="30" height="30">
<circle cx="41" cy="43" r="15" fill="white"/>
</mask>
<g mask="url(#mask0)">
<path d="M46.3772 40.5393C46.3772 42.0615 45.8313 43.3792 44.7544 44.4562C43.6775 45.5331 42.3597 46.079 40.8375 46.079H40.8348C39.3145 46.0785 37.9976 45.5326 36.9207 44.4562C35.8436 43.3792 35.2979 42.0615 35.2979 40.5393C35.2979 39.0175 35.8436 37.6997 36.9207 36.6228C37.997 35.5463 39.314 35.0005 40.8348 35H40.8375C42.3592 35 43.677 35.5459 44.7544 36.6228C45.8313 37.6997 46.3772 39.0175 46.3772 40.5393Z" fill="#FFD589"/>
<path d="M50.5769 54.0444C50.5769 55.2454 50.1949 56.2177 49.4424 56.9338C48.6988 57.6415 47.7152 58 46.5194 58H35.4447C34.2488 58 33.2653 57.6415 32.5221 56.9338C31.7692 56.2172 31.3877 55.245 31.3877 54.0444C31.3877 53.5826 31.403 53.1256 31.4335 52.6862C31.4646 52.237 31.5274 51.7482 31.62 51.2324C31.7134 50.7125 31.8334 50.221 31.9771 49.7718C32.1263 49.3068 32.3281 48.8481 32.5778 48.4087C32.8371 47.9526 33.1418 47.5553 33.4832 47.2282C33.8412 46.8859 34.2788 46.6109 34.7847 46.4105C35.2889 46.2112 35.8478 46.1101 36.4458 46.1101C36.6804 46.1101 36.9076 46.2061 37.3456 46.4914C37.6197 46.6702 37.9356 46.8738 38.2843 47.0966C38.5854 47.2886 38.9932 47.4686 39.4973 47.6313C39.9404 47.7747 40.3901 47.8547 40.8345 47.8686C40.8834 47.8703 40.9324 47.8712 40.9813 47.8712C41.4748 47.8712 41.9738 47.7903 42.4659 47.6313C42.97 47.4686 43.3783 47.2886 43.6793 47.0966C44.0316 46.8715 44.3475 46.6681 44.6175 46.4919C45.0559 46.2061 45.2828 46.1101 45.5179 46.1101C46.1154 46.1101 46.6743 46.2112 47.1788 46.4105C47.6847 46.6109 48.1223 46.8864 48.4799 47.2282C48.8219 47.5553 49.1266 47.9526 49.3858 48.4087C49.6356 48.8484 49.8378 49.3068 49.9864 49.7712C50.1303 50.221 50.2507 50.7125 50.344 51.2328C50.4362 51.749 50.4991 52.2379 50.53 52.6859C50.5611 53.1239 50.5764 53.5808 50.5769 54.0444Z" fill="#D55A5F"/>
</g>
<path d="M50 112C50 100.954 58.9543 92 70 92H323C334.046 92 343 100.954 343 112V224H70C58.9543 224 50 215.046 50 204V112Z" fill="#FCFCFC"/>
<path d="M110.888 112.876C111.457 113.035 111.901 113.324 112.218 113.744C112.535 114.155 112.694 114.668 112.694 115.284C112.694 116.152 112.405 116.824 111.826 117.3C111.247 117.767 110.431 118 109.376 118H105.232V108.032H109.236C110.253 108.032 111.042 108.261 111.602 108.718C112.171 109.166 112.456 109.805 112.456 110.636C112.456 111.168 112.316 111.63 112.036 112.022C111.765 112.405 111.383 112.689 110.888 112.876ZM106.366 112.456H109.054C109.801 112.456 110.365 112.307 110.748 112.008C111.131 111.709 111.322 111.271 111.322 110.692C111.322 109.553 110.566 108.984 109.054 108.984H106.366V112.456ZM109.278 117.048C110.062 117.048 110.636 116.903 111 116.614C111.373 116.315 111.56 115.863 111.56 115.256C111.56 114.033 110.799 113.422 109.278 113.422H106.366V117.048H109.278ZM117.897 110.79C118.131 110.79 118.345 110.818 118.541 110.874L118.513 111.91C118.299 111.835 118.051 111.798 117.771 111.798C117.09 111.798 116.581 112.013 116.245 112.442C115.919 112.862 115.755 113.375 115.755 113.982V118H114.621V112.932C114.621 112.204 114.584 111.546 114.509 110.958H115.587L115.699 112.26C115.877 111.784 116.161 111.42 116.553 111.168C116.945 110.916 117.393 110.79 117.897 110.79ZM119.694 110.958H120.828V118H119.694V110.958ZM120.968 107.976V109.264H119.582V107.976H120.968ZM126.544 110.79C128.233 110.79 129.078 111.719 129.078 113.576V118H127.944V113.632C127.944 112.979 127.813 112.503 127.552 112.204C127.29 111.896 126.88 111.742 126.32 111.742C125.666 111.742 125.144 111.943 124.752 112.344C124.36 112.745 124.164 113.287 124.164 113.968V118H123.03V112.932C123.03 112.204 122.992 111.546 122.918 110.958H123.995L124.108 112.218C124.322 111.761 124.644 111.411 125.074 111.168C125.503 110.916 125.993 110.79 126.544 110.79ZM137.491 110.958V117.944C137.491 118.989 137.22 119.778 136.679 120.31C136.147 120.851 135.358 121.122 134.313 121.122C133.24 121.122 132.316 120.879 131.541 120.394L131.737 119.47C132.185 119.722 132.605 119.904 132.997 120.016C133.398 120.128 133.837 120.184 134.313 120.184C134.994 120.184 135.508 120.002 135.853 119.638C136.198 119.283 136.371 118.751 136.371 118.042V116.376C136.156 116.824 135.839 117.174 135.419 117.426C135.008 117.669 134.518 117.79 133.949 117.79C133.333 117.79 132.782 117.645 132.297 117.356C131.821 117.067 131.452 116.656 131.191 116.124C130.93 115.592 130.799 114.981 130.799 114.29C130.799 113.599 130.93 112.988 131.191 112.456C131.452 111.924 131.821 111.513 132.297 111.224C132.782 110.935 133.333 110.79 133.949 110.79C134.509 110.79 134.994 110.911 135.405 111.154C135.825 111.397 136.142 111.737 136.357 112.176V110.958H137.491ZM134.173 116.838C134.854 116.838 135.386 116.614 135.769 116.166C136.161 115.709 136.357 115.083 136.357 114.29C136.357 113.497 136.161 112.876 135.769 112.428C135.386 111.971 134.854 111.742 134.173 111.742C133.482 111.742 132.936 111.971 132.535 112.428C132.143 112.876 131.947 113.497 131.947 114.29C131.947 115.083 132.143 115.709 132.535 116.166C132.936 116.614 133.482 116.838 134.173 116.838ZM151.131 110.79C152.689 110.79 153.469 111.719 153.469 113.576V118H152.335V113.632C152.335 112.969 152.218 112.489 151.985 112.19C151.761 111.891 151.392 111.742 150.879 111.742C150.281 111.742 149.815 111.943 149.479 112.344C149.143 112.745 148.975 113.291 148.975 113.982V118H147.841V113.632C147.841 112.979 147.724 112.503 147.491 112.204C147.257 111.896 146.884 111.742 146.371 111.742C145.773 111.742 145.302 111.943 144.957 112.344C144.621 112.745 144.453 113.291 144.453 113.982V118H143.319V112.932C143.319 112.204 143.281 111.546 143.207 110.958H144.285L144.397 112.19C144.593 111.742 144.882 111.397 145.265 111.154C145.657 110.911 146.109 110.79 146.623 110.79C147.183 110.79 147.64 110.902 147.995 111.126C148.349 111.35 148.611 111.695 148.779 112.162C148.993 111.742 149.306 111.411 149.717 111.168C150.137 110.916 150.608 110.79 151.131 110.79ZM158.535 118.098C157.873 118.098 157.289 117.949 156.785 117.65C156.281 117.351 155.889 116.927 155.609 116.376C155.339 115.825 155.203 115.181 155.203 114.444C155.203 113.707 155.339 113.063 155.609 112.512C155.889 111.961 156.281 111.537 156.785 111.238C157.289 110.939 157.873 110.79 158.535 110.79C159.198 110.79 159.781 110.939 160.285 111.238C160.789 111.537 161.177 111.961 161.447 112.512C161.727 113.063 161.867 113.707 161.867 114.444C161.867 115.181 161.727 115.825 161.447 116.376C161.177 116.927 160.789 117.351 160.285 117.65C159.781 117.949 159.198 118.098 158.535 118.098ZM158.535 117.16C159.235 117.16 159.772 116.931 160.145 116.474C160.519 116.007 160.705 115.331 160.705 114.444C160.705 113.585 160.514 112.923 160.131 112.456C159.749 111.98 159.217 111.742 158.535 111.742C157.845 111.742 157.308 111.98 156.925 112.456C156.543 112.923 156.351 113.585 156.351 114.444C156.351 115.331 156.538 116.007 156.911 116.474C157.294 116.931 157.835 117.16 158.535 117.16ZM166.911 110.79C167.144 110.79 167.359 110.818 167.555 110.874L167.527 111.91C167.312 111.835 167.065 111.798 166.785 111.798C166.104 111.798 165.595 112.013 165.259 112.442C164.932 112.862 164.769 113.375 164.769 113.982V118H163.635V112.932C163.635 112.204 163.598 111.546 163.523 110.958H164.601L164.713 112.26C164.89 111.784 165.175 111.42 165.567 111.168C165.959 110.916 166.407 110.79 166.911 110.79ZM174.465 114.444H169.299C169.308 115.34 169.513 116.017 169.915 116.474C170.325 116.931 170.918 117.16 171.693 117.16C172.514 117.16 173.27 116.885 173.961 116.334L174.339 117.16C174.031 117.449 173.634 117.678 173.149 117.846C172.673 118.014 172.183 118.098 171.679 118.098C170.577 118.098 169.714 117.776 169.089 117.132C168.463 116.479 168.151 115.587 168.151 114.458C168.151 113.739 168.291 113.105 168.571 112.554C168.851 111.994 169.243 111.56 169.747 111.252C170.251 110.944 170.825 110.79 171.469 110.79C172.402 110.79 173.135 111.098 173.667 111.714C174.199 112.321 174.465 113.161 174.465 114.234V114.444ZM171.483 111.672C170.895 111.672 170.414 111.849 170.041 112.204C169.677 112.559 169.443 113.058 169.341 113.702H173.443C173.387 113.039 173.191 112.535 172.855 112.19C172.528 111.845 172.071 111.672 171.483 111.672ZM186.024 110.972L182.986 118H181.908L178.912 110.972H180.102L182.482 116.768L184.89 110.972H186.024ZM193.394 110.958V118H192.274V116.726C192.068 117.165 191.756 117.505 191.336 117.748C190.925 117.981 190.444 118.098 189.894 118.098C189.268 118.098 188.718 117.949 188.242 117.65C187.775 117.351 187.411 116.931 187.15 116.39C186.898 115.839 186.772 115.2 186.772 114.472C186.772 113.744 186.902 113.105 187.164 112.554C187.425 111.994 187.789 111.56 188.256 111.252C188.732 110.944 189.278 110.79 189.894 110.79C190.444 110.79 190.925 110.911 191.336 111.154C191.746 111.397 192.059 111.737 192.274 112.176V110.958H193.394ZM190.118 117.16C190.808 117.16 191.34 116.927 191.714 116.46C192.087 115.984 192.274 115.312 192.274 114.444C192.274 113.576 192.087 112.909 191.714 112.442C191.34 111.975 190.808 111.742 190.118 111.742C189.427 111.742 188.886 111.985 188.494 112.47C188.111 112.946 187.92 113.613 187.92 114.472C187.92 115.331 188.111 115.993 188.494 116.46C188.876 116.927 189.418 117.16 190.118 117.16ZM195.586 107.696H196.72V118H195.586V107.696ZM204.816 110.958V118H203.71V116.782C203.486 117.211 203.173 117.538 202.772 117.762C202.371 117.986 201.918 118.098 201.414 118.098C200.583 118.098 199.953 117.865 199.524 117.398C199.095 116.931 198.88 116.241 198.88 115.326V110.958H200.014V115.298C200.014 115.933 200.145 116.399 200.406 116.698C200.667 116.997 201.064 117.146 201.596 117.146C202.221 117.146 202.725 116.945 203.108 116.544C203.491 116.133 203.682 115.597 203.682 114.934V110.958H204.816ZM212.896 114.444H207.73C207.739 115.34 207.945 116.017 208.346 116.474C208.757 116.931 209.349 117.16 210.124 117.16C210.945 117.16 211.701 116.885 212.392 116.334L212.77 117.16C212.462 117.449 212.065 117.678 211.58 117.846C211.104 118.014 210.614 118.098 210.11 118.098C209.009 118.098 208.145 117.776 207.52 117.132C206.895 116.479 206.582 115.587 206.582 114.458C206.582 113.739 206.722 113.105 207.002 112.554C207.282 111.994 207.674 111.56 208.178 111.252C208.682 110.944 209.256 110.79 209.9 110.79C210.833 110.79 211.566 111.098 212.098 111.714C212.63 112.321 212.896 113.161 212.896 114.234V114.444ZM209.914 111.672C209.326 111.672 208.845 111.849 208.472 112.204C208.108 112.559 207.875 113.058 207.772 113.702H211.874C211.818 113.039 211.622 112.535 211.286 112.19C210.959 111.845 210.502 111.672 209.914 111.672ZM219.78 111.854V115.704C219.78 116.227 219.887 116.595 220.102 116.81C220.316 117.015 220.62 117.118 221.012 117.118C221.273 117.118 221.525 117.076 221.768 116.992V117.958C221.478 118.051 221.152 118.098 220.788 118.098C220.116 118.098 219.588 117.911 219.206 117.538C218.832 117.155 218.646 116.595 218.646 115.858V111.854H217.274V110.958H218.646V109.152L219.78 108.746V110.958H221.796V111.854H219.78ZM226.074 118.098C225.412 118.098 224.828 117.949 224.324 117.65C223.82 117.351 223.428 116.927 223.148 116.376C222.878 115.825 222.742 115.181 222.742 114.444C222.742 113.707 222.878 113.063 223.148 112.512C223.428 111.961 223.82 111.537 224.324 111.238C224.828 110.939 225.412 110.79 226.074 110.79C226.737 110.79 227.32 110.939 227.824 111.238C228.328 111.537 228.716 111.961 228.986 112.512C229.266 113.063 229.406 113.707 229.406 114.444C229.406 115.181 229.266 115.825 228.986 116.376C228.716 116.927 228.328 117.351 227.824 117.65C227.32 117.949 226.737 118.098 226.074 118.098ZM226.074 117.16C226.774 117.16 227.311 116.931 227.684 116.474C228.058 116.007 228.244 115.331 228.244 114.444C228.244 113.585 228.053 112.923 227.67 112.456C227.288 111.98 226.756 111.742 226.074 111.742C225.384 111.742 224.847 111.98 224.464 112.456C224.082 112.923 223.89 113.585 223.89 114.444C223.89 115.331 224.077 116.007 224.45 116.474C224.833 116.931 225.374 117.16 226.074 117.16ZM241.012 110.958L237.722 118.644C237.377 119.447 236.943 120.035 236.42 120.408C235.898 120.781 235.254 121.038 234.488 121.178L234.25 120.296C234.913 120.147 235.412 119.946 235.748 119.694C236.094 119.451 236.378 119.073 236.602 118.56L236.882 117.93L233.9 110.958H235.09L237.47 116.768L239.878 110.958H241.012ZM245.092 118.098C244.429 118.098 243.846 117.949 243.342 117.65C242.838 117.351 242.446 116.927 242.166 116.376C241.895 115.825 241.76 115.181 241.76 114.444C241.76 113.707 241.895 113.063 242.166 112.512C242.446 111.961 242.838 111.537 243.342 111.238C243.846 110.939 244.429 110.79 245.092 110.79C245.755 110.79 246.338 110.939 246.842 111.238C247.346 111.537 247.733 111.961 248.004 112.512C248.284 113.063 248.424 113.707 248.424 114.444C248.424 115.181 248.284 115.825 248.004 116.376C247.733 116.927 247.346 117.351 246.842 117.65C246.338 117.949 245.755 118.098 245.092 118.098ZM245.092 117.16C245.792 117.16 246.329 116.931 246.702 116.474C247.075 116.007 247.262 115.331 247.262 114.444C247.262 113.585 247.071 112.923 246.688 112.456C246.305 111.98 245.773 111.742 245.092 111.742C244.401 111.742 243.865 111.98 243.482 112.456C243.099 112.923 242.908 113.585 242.908 114.444C242.908 115.331 243.095 116.007 243.468 116.474C243.851 116.931 244.392 117.16 245.092 117.16ZM256.086 110.958V118H254.98V116.782C254.756 117.211 254.443 117.538 254.042 117.762C253.64 117.986 253.188 118.098 252.684 118.098C251.853 118.098 251.223 117.865 250.794 117.398C250.364 116.931 250.15 116.241 250.15 115.326V110.958H251.284V115.298C251.284 115.933 251.414 116.399 251.676 116.698C251.937 116.997 252.334 117.146 252.866 117.146C253.491 117.146 253.995 116.945 254.378 116.544C254.76 116.133 254.952 115.597 254.952 114.934V110.958H256.086ZM261.548 110.79C261.781 110.79 261.996 110.818 262.192 110.874L262.164 111.91C261.949 111.835 261.702 111.798 261.422 111.798C260.74 111.798 260.232 112.013 259.896 112.442C259.569 112.862 259.406 113.375 259.406 113.982V118H258.272V112.932C258.272 112.204 258.234 111.546 258.16 110.958H259.238L259.35 112.26C259.527 111.784 259.812 111.42 260.204 111.168C260.596 110.916 261.044 110.79 261.548 110.79ZM108.046 136.098C107.365 136.098 106.767 135.949 106.254 135.65C105.75 135.351 105.358 134.931 105.078 134.39C104.807 133.839 104.672 133.2 104.672 132.472C104.672 131.744 104.812 131.105 105.092 130.554C105.372 129.994 105.769 129.56 106.282 129.252C106.805 128.944 107.411 128.79 108.102 128.79C108.578 128.79 109.035 128.874 109.474 129.042C109.922 129.201 110.291 129.425 110.58 129.714L110.202 130.554C109.847 130.274 109.502 130.069 109.166 129.938C108.839 129.807 108.503 129.742 108.158 129.742C107.439 129.742 106.875 129.985 106.464 130.47C106.053 130.946 105.848 131.613 105.848 132.472C105.848 133.321 106.049 133.984 106.45 134.46C106.861 134.927 107.43 135.16 108.158 135.16C108.503 135.16 108.839 135.095 109.166 134.964C109.502 134.833 109.847 134.628 110.202 134.348L110.58 135.188C110.281 135.468 109.903 135.692 109.446 135.86C108.998 136.019 108.531 136.098 108.046 136.098ZM117.918 128.958V136H116.812V134.782C116.588 135.211 116.275 135.538 115.874 135.762C115.472 135.986 115.02 136.098 114.516 136.098C113.685 136.098 113.055 135.865 112.626 135.398C112.196 134.931 111.982 134.241 111.982 133.326V128.958H113.116V133.298C113.116 133.933 113.246 134.399 113.508 134.698C113.769 134.997 114.166 135.146 114.698 135.146C115.323 135.146 115.827 134.945 116.21 134.544C116.592 134.133 116.784 133.597 116.784 132.934V128.958H117.918ZM122.484 136.098C121.298 136.098 120.36 135.795 119.67 135.188L120.048 134.348C120.43 134.647 120.818 134.861 121.21 134.992C121.602 135.123 122.04 135.188 122.526 135.188C123.058 135.188 123.459 135.099 123.73 134.922C124.01 134.735 124.15 134.469 124.15 134.124C124.15 133.844 124.056 133.62 123.87 133.452C123.683 133.284 123.375 133.153 122.946 133.06L121.756 132.78C121.168 132.649 120.71 132.416 120.384 132.08C120.066 131.744 119.908 131.343 119.908 130.876C119.908 130.26 120.155 129.761 120.65 129.378C121.144 128.986 121.798 128.79 122.61 128.79C123.104 128.79 123.571 128.869 124.01 129.028C124.448 129.187 124.817 129.415 125.116 129.714L124.738 130.54C124.075 129.989 123.366 129.714 122.61 129.714C122.106 129.714 121.714 129.812 121.434 130.008C121.163 130.195 121.028 130.461 121.028 130.806C121.028 131.095 121.112 131.324 121.28 131.492C121.457 131.66 121.737 131.791 122.12 131.884L123.31 132.178C123.963 132.327 124.448 132.561 124.766 132.878C125.083 133.186 125.242 133.592 125.242 134.096C125.242 134.703 124.994 135.188 124.5 135.552C124.005 135.916 123.333 136.098 122.484 136.098ZM128.493 129.854V133.704C128.493 134.227 128.6 134.595 128.815 134.81C129.029 135.015 129.333 135.118 129.725 135.118C129.986 135.118 130.238 135.076 130.481 134.992V135.958C130.191 136.051 129.865 136.098 129.501 136.098C128.829 136.098 128.301 135.911 127.919 135.538C127.545 135.155 127.359 134.595 127.359 133.858V129.854H125.987V128.958H127.359V127.152L128.493 126.746V128.958H130.509V129.854H128.493ZM134.787 136.098C134.125 136.098 133.541 135.949 133.037 135.65C132.533 135.351 132.141 134.927 131.861 134.376C131.591 133.825 131.455 133.181 131.455 132.444C131.455 131.707 131.591 131.063 131.861 130.512C132.141 129.961 132.533 129.537 133.037 129.238C133.541 128.939 134.125 128.79 134.787 128.79C135.45 128.79 136.033 128.939 136.537 129.238C137.041 129.537 137.429 129.961 137.699 130.512C137.979 131.063 138.119 131.707 138.119 132.444C138.119 133.181 137.979 133.825 137.699 134.376C137.429 134.927 137.041 135.351 136.537 135.65C136.033 135.949 135.45 136.098 134.787 136.098ZM134.787 135.16C135.487 135.16 136.024 134.931 136.397 134.474C136.771 134.007 136.957 133.331 136.957 132.444C136.957 131.585 136.766 130.923 136.383 130.456C136.001 129.98 135.469 129.742 134.787 129.742C134.097 129.742 133.56 129.98 133.177 130.456C132.795 130.923 132.603 131.585 132.603 132.444C132.603 133.331 132.79 134.007 133.163 134.474C133.546 134.931 134.087 135.16 134.787 135.16ZM147.699 128.79C149.258 128.79 150.037 129.719 150.037 131.576V136H148.903V131.632C148.903 130.969 148.786 130.489 148.553 130.19C148.329 129.891 147.96 129.742 147.447 129.742C146.85 129.742 146.383 129.943 146.047 130.344C145.711 130.745 145.543 131.291 145.543 131.982V136H144.409V131.632C144.409 130.979 144.292 130.503 144.059 130.204C143.826 129.896 143.452 129.742 142.939 129.742C142.342 129.742 141.87 129.943 141.525 130.344C141.189 130.745 141.021 131.291 141.021 131.982V136H139.887V130.932C139.887 130.204 139.85 129.546 139.775 128.958H140.853L140.965 130.19C141.161 129.742 141.45 129.397 141.833 129.154C142.225 128.911 142.678 128.79 143.191 128.79C143.751 128.79 144.208 128.902 144.563 129.126C144.918 129.35 145.179 129.695 145.347 130.162C145.562 129.742 145.874 129.411 146.285 129.168C146.705 128.916 147.176 128.79 147.699 128.79ZM158.086 132.444H152.92C152.929 133.34 153.134 134.017 153.536 134.474C153.946 134.931 154.539 135.16 155.314 135.16C156.135 135.16 156.891 134.885 157.582 134.334L157.96 135.16C157.652 135.449 157.255 135.678 156.77 135.846C156.294 136.014 155.804 136.098 155.3 136.098C154.198 136.098 153.335 135.776 152.71 135.132C152.084 134.479 151.772 133.587 151.772 132.458C151.772 131.739 151.912 131.105 152.192 130.554C152.472 129.994 152.864 129.56 153.368 129.252C153.872 128.944 154.446 128.79 155.09 128.79C156.023 128.79 156.756 129.098 157.288 129.714C157.82 130.321 158.086 131.161 158.086 132.234V132.444ZM155.104 129.672C154.516 129.672 154.035 129.849 153.662 130.204C153.298 130.559 153.064 131.058 152.962 131.702H157.064C157.008 131.039 156.812 130.535 156.476 130.19C156.149 129.845 155.692 129.672 155.104 129.672ZM163.083 128.79C163.316 128.79 163.531 128.818 163.727 128.874L163.699 129.91C163.484 129.835 163.237 129.798 162.957 129.798C162.276 129.798 161.767 130.013 161.431 130.442C161.104 130.862 160.941 131.375 160.941 131.982V136H159.807V130.932C159.807 130.204 159.77 129.546 159.695 128.958H160.773L160.885 130.26C161.062 129.784 161.347 129.42 161.739 129.168C162.131 128.916 162.579 128.79 163.083 128.79ZM166.303 129.112V130.568H164.861V129.112H166.303ZM166.303 134.558V136H164.861V134.558H166.303ZM105.022 149.772H108.984V150.71H105.022V149.772ZM124.306 144.032V154H123.242V146.594L120.008 154H119.196L115.934 146.65L115.948 154H114.884V144.032H115.836L119.616 152.628L123.354 144.032H124.306ZM129.537 154.098C128.875 154.098 128.291 153.949 127.787 153.65C127.283 153.351 126.891 152.927 126.611 152.376C126.341 151.825 126.205 151.181 126.205 150.444C126.205 149.707 126.341 149.063 126.611 148.512C126.891 147.961 127.283 147.537 127.787 147.238C128.291 146.939 128.875 146.79 129.537 146.79C130.2 146.79 130.783 146.939 131.287 147.238C131.791 147.537 132.179 147.961 132.449 148.512C132.729 149.063 132.869 149.707 132.869 150.444C132.869 151.181 132.729 151.825 132.449 152.376C132.179 152.927 131.791 153.351 131.287 153.65C130.783 153.949 130.2 154.098 129.537 154.098ZM129.537 153.16C130.237 153.16 130.774 152.931 131.147 152.474C131.521 152.007 131.707 151.331 131.707 150.444C131.707 149.585 131.516 148.923 131.133 148.456C130.751 147.98 130.219 147.742 129.537 147.742C128.847 147.742 128.31 147.98 127.927 148.456C127.545 148.923 127.353 149.585 127.353 150.444C127.353 151.331 127.54 152.007 127.913 152.474C128.296 152.931 128.837 153.16 129.537 153.16ZM137.913 146.79C138.146 146.79 138.361 146.818 138.557 146.874L138.529 147.91C138.314 147.835 138.067 147.798 137.787 147.798C137.106 147.798 136.597 148.013 136.261 148.442C135.934 148.862 135.771 149.375 135.771 149.982V154H134.637V148.932C134.637 148.204 134.6 147.546 134.525 146.958H135.603L135.715 148.26C135.892 147.784 136.177 147.42 136.569 147.168C136.961 146.916 137.409 146.79 137.913 146.79ZM145.466 150.444H140.3C140.31 151.34 140.515 152.017 140.916 152.474C141.327 152.931 141.92 153.16 142.694 153.16C143.516 153.16 144.272 152.885 144.962 152.334L145.34 153.16C145.032 153.449 144.636 153.678 144.15 153.846C143.674 154.014 143.184 154.098 142.68 154.098C141.579 154.098 140.716 153.776 140.09 153.132C139.465 152.479 139.152 151.587 139.152 150.458C139.152 149.739 139.292 149.105 139.572 148.554C139.852 147.994 140.244 147.56 140.748 147.252C141.252 146.944 141.826 146.79 142.47 146.79C143.404 146.79 144.136 147.098 144.668 147.714C145.2 148.321 145.466 149.161 145.466 150.234V150.444ZM142.484 147.672C141.896 147.672 141.416 147.849 141.042 148.204C140.678 148.559 140.445 149.058 140.342 149.702H144.444C144.388 149.039 144.192 148.535 143.856 148.19C143.53 147.845 143.072 147.672 142.484 147.672ZM154.142 154.112C152.583 154.112 151.342 153.692 150.418 152.852L150.852 151.97C151.347 152.39 151.851 152.689 152.364 152.866C152.877 153.043 153.475 153.132 154.156 153.132C154.959 153.132 155.575 152.978 156.004 152.67C156.443 152.353 156.662 151.909 156.662 151.34C156.662 151.004 156.555 150.733 156.34 150.528C156.135 150.313 155.859 150.145 155.514 150.024C155.178 149.903 154.725 149.777 154.156 149.646C153.391 149.478 152.761 149.296 152.266 149.1C151.771 148.904 151.37 148.624 151.062 148.26C150.754 147.887 150.6 147.401 150.6 146.804C150.6 146.235 150.749 145.735 151.048 145.306C151.347 144.867 151.767 144.527 152.308 144.284C152.859 144.041 153.498 143.92 154.226 143.92C154.917 143.92 155.561 144.027 156.158 144.242C156.755 144.457 157.259 144.769 157.67 145.18L157.222 146.062C156.755 145.661 156.279 145.367 155.794 145.18C155.318 144.993 154.795 144.9 154.226 144.9C153.451 144.9 152.845 145.068 152.406 145.404C151.967 145.731 151.748 146.183 151.748 146.762C151.748 147.266 151.939 147.644 152.322 147.896C152.705 148.148 153.293 148.367 154.086 148.554C154.945 148.759 155.617 148.951 156.102 149.128C156.597 149.296 157.007 149.557 157.334 149.912C157.661 150.257 157.824 150.719 157.824 151.298C157.824 151.858 157.675 152.353 157.376 152.782C157.077 153.202 156.648 153.529 156.088 153.762C155.537 153.995 154.889 154.112 154.142 154.112ZM159.701 144.032H166.001V144.984H160.835V148.456H165.721V149.422H160.835V153.048H166.001V154H159.701V144.032ZM172.049 154.112C171.125 154.112 170.322 153.907 169.641 153.496C168.959 153.085 168.432 152.497 168.059 151.732C167.695 150.957 167.513 150.052 167.513 149.016C167.513 147.971 167.695 147.065 168.059 146.3C168.423 145.535 168.945 144.947 169.627 144.536C170.308 144.125 171.115 143.92 172.049 143.92C172.982 143.92 173.789 144.125 174.471 144.536C175.152 144.947 175.675 145.535 176.039 146.3C176.403 147.065 176.585 147.966 176.585 149.002C176.585 150.047 176.398 150.953 176.025 151.718C175.661 152.483 175.138 153.076 174.457 153.496C173.775 153.907 172.973 154.112 172.049 154.112ZM172.049 153.132C173.103 153.132 173.925 152.773 174.513 152.054C175.101 151.335 175.395 150.318 175.395 149.002C175.395 147.686 175.101 146.673 174.513 145.964C173.934 145.255 173.113 144.9 172.049 144.9C170.985 144.9 170.159 145.259 169.571 145.978C168.983 146.687 168.689 147.695 168.689 149.002C168.689 150.318 168.983 151.335 169.571 152.054C170.159 152.773 170.985 153.132 172.049 153.132ZM183.713 147.854V151.704C183.713 152.227 183.821 152.595 184.035 152.81C184.25 153.015 184.553 153.118 184.945 153.118C185.207 153.118 185.459 153.076 185.701 152.992V153.958C185.412 154.051 185.085 154.098 184.721 154.098C184.049 154.098 183.522 153.911 183.139 153.538C182.766 153.155 182.579 152.595 182.579 151.858V147.854H181.207V146.958H182.579V145.152L183.713 144.746V146.958H185.729V147.854H183.713ZM190.372 146.79C190.605 146.79 190.82 146.818 191.016 146.874L190.988 147.91C190.773 147.835 190.526 147.798 190.246 147.798C189.565 147.798 189.056 148.013 188.72 148.442C188.393 148.862 188.23 149.375 188.23 149.982V154H187.096V148.932C187.096 148.204 187.059 147.546 186.984 146.958H188.062L188.174 148.26C188.351 147.784 188.636 147.42 189.028 147.168C189.42 146.916 189.868 146.79 190.372 146.79ZM198.233 146.958V154H197.113V152.726C196.908 153.165 196.595 153.505 196.175 153.748C195.765 153.981 195.284 154.098 194.733 154.098C194.108 154.098 193.557 153.949 193.081 153.65C192.615 153.351 192.251 152.931 191.989 152.39C191.737 151.839 191.611 151.2 191.611 150.472C191.611 149.744 191.742 149.105 192.003 148.554C192.265 147.994 192.629 147.56 193.095 147.252C193.571 146.944 194.117 146.79 194.733 146.79C195.284 146.79 195.765 146.911 196.175 147.154C196.586 147.397 196.899 147.737 197.113 148.176V146.958H198.233ZM194.957 153.16C195.648 153.16 196.18 152.927 196.553 152.46C196.927 151.984 197.113 151.312 197.113 150.444C197.113 149.576 196.927 148.909 196.553 148.442C196.18 147.975 195.648 147.742 194.957 147.742C194.267 147.742 193.725 147.985 193.333 148.47C192.951 148.946 192.759 149.613 192.759 150.472C192.759 151.331 192.951 151.993 193.333 152.46C193.716 152.927 194.257 153.16 194.957 153.16ZM203.128 144.62C202.755 144.62 202.461 144.727 202.246 144.942C202.041 145.147 201.938 145.507 201.938 146.02V146.958H203.66V147.854H201.938V154H200.804V147.854H199.432V146.958H200.804V145.88C200.804 145.143 200.986 144.587 201.35 144.214C201.723 143.831 202.241 143.64 202.904 143.64C203.231 143.64 203.548 143.682 203.856 143.766V144.732C203.595 144.657 203.352 144.62 203.128 144.62ZM206.655 146.958H210.981V154H209.847V147.854H206.655V154H205.521V147.854H204.149V146.958H205.521V146.02C205.521 145.451 205.605 144.993 205.773 144.648C205.95 144.303 206.235 144.051 206.627 143.892C207.019 143.733 207.551 143.654 208.223 143.654H208.671V144.536H208.321C207.835 144.536 207.476 144.578 207.243 144.662C207.019 144.746 206.865 144.909 206.781 145.152C206.697 145.385 206.655 145.749 206.655 146.244V146.958ZM211.121 143.906V145.222H209.707V143.906H211.121ZM216.122 154.098C215.441 154.098 214.844 153.949 214.33 153.65C213.826 153.351 213.434 152.931 213.154 152.39C212.884 151.839 212.748 151.2 212.748 150.472C212.748 149.744 212.888 149.105 213.168 148.554C213.448 147.994 213.845 147.56 214.358 147.252C214.881 146.944 215.488 146.79 216.178 146.79C216.654 146.79 217.112 146.874 217.55 147.042C217.998 147.201 218.367 147.425 218.656 147.714L218.278 148.554C217.924 148.274 217.578 148.069 217.242 147.938C216.916 147.807 216.58 147.742 216.234 147.742C215.516 147.742 214.951 147.985 214.54 148.47C214.13 148.946 213.924 149.613 213.924 150.472C213.924 151.321 214.125 151.984 214.526 152.46C214.937 152.927 215.506 153.16 216.234 153.16C216.58 153.16 216.916 153.095 217.242 152.964C217.578 152.833 217.924 152.628 218.278 152.348L218.656 153.188C218.358 153.468 217.98 153.692 217.522 153.86C217.074 154.019 216.608 154.098 216.122 154.098ZM105.022 167.772H108.984V168.71H105.022V167.772ZM124.306 162.032V172H123.242V164.594L120.008 172H119.196L115.934 164.65L115.948 172H114.884V162.032H115.836L119.616 170.628L123.354 162.032H124.306ZM129.537 172.098C128.875 172.098 128.291 171.949 127.787 171.65C127.283 171.351 126.891 170.927 126.611 170.376C126.341 169.825 126.205 169.181 126.205 168.444C126.205 167.707 126.341 167.063 126.611 166.512C126.891 165.961 127.283 165.537 127.787 165.238C128.291 164.939 128.875 164.79 129.537 164.79C130.2 164.79 130.783 164.939 131.287 165.238C131.791 165.537 132.179 165.961 132.449 166.512C132.729 167.063 132.869 167.707 132.869 168.444C132.869 169.181 132.729 169.825 132.449 170.376C132.179 170.927 131.791 171.351 131.287 171.65C130.783 171.949 130.2 172.098 129.537 172.098ZM129.537 171.16C130.237 171.16 130.774 170.931 131.147 170.474C131.521 170.007 131.707 169.331 131.707 168.444C131.707 167.585 131.516 166.923 131.133 166.456C130.751 165.98 130.219 165.742 129.537 165.742C128.847 165.742 128.31 165.98 127.927 166.456C127.545 166.923 127.353 167.585 127.353 168.444C127.353 169.331 127.54 170.007 127.913 170.474C128.296 170.931 128.837 171.16 129.537 171.16ZM137.913 164.79C138.146 164.79 138.361 164.818 138.557 164.874L138.529 165.91C138.314 165.835 138.067 165.798 137.787 165.798C137.106 165.798 136.597 166.013 136.261 166.442C135.934 166.862 135.771 167.375 135.771 167.982V172H134.637V166.932C134.637 166.204 134.6 165.546 134.525 164.958H135.603L135.715 166.26C135.892 165.784 136.177 165.42 136.569 165.168C136.961 164.916 137.409 164.79 137.913 164.79ZM145.466 168.444H140.3C140.31 169.34 140.515 170.017 140.916 170.474C141.327 170.931 141.92 171.16 142.694 171.16C143.516 171.16 144.272 170.885 144.962 170.334L145.34 171.16C145.032 171.449 144.636 171.678 144.15 171.846C143.674 172.014 143.184 172.098 142.68 172.098C141.579 172.098 140.716 171.776 140.09 171.132C139.465 170.479 139.152 169.587 139.152 168.458C139.152 167.739 139.292 167.105 139.572 166.554C139.852 165.994 140.244 165.56 140.748 165.252C141.252 164.944 141.826 164.79 142.47 164.79C143.404 164.79 144.136 165.098 144.668 165.714C145.2 166.321 145.466 167.161 145.466 168.234V168.444ZM142.484 165.672C141.896 165.672 141.416 165.849 141.042 166.204C140.678 166.559 140.445 167.058 140.342 167.702H144.444C144.388 167.039 144.192 166.535 143.856 166.19C143.53 165.845 143.072 165.672 142.484 165.672ZM153.218 172.098C152.033 172.098 151.095 171.795 150.404 171.188L150.782 170.348C151.165 170.647 151.552 170.861 151.944 170.992C152.336 171.123 152.775 171.188 153.26 171.188C153.792 171.188 154.193 171.099 154.464 170.922C154.744 170.735 154.884 170.469 154.884 170.124C154.884 169.844 154.791 169.62 154.604 169.452C154.417 169.284 154.109 169.153 153.68 169.06L152.49 168.78C151.902 168.649 151.445 168.416 151.118 168.08C150.801 167.744 150.642 167.343 150.642 166.876C150.642 166.26 150.889 165.761 151.384 165.378C151.879 164.986 152.532 164.79 153.344 164.79C153.839 164.79 154.305 164.869 154.744 165.028C155.183 165.187 155.551 165.415 155.85 165.714L155.472 166.54C154.809 165.989 154.1 165.714 153.344 165.714C152.84 165.714 152.448 165.812 152.168 166.008C151.897 166.195 151.762 166.461 151.762 166.806C151.762 167.095 151.846 167.324 152.014 167.492C152.191 167.66 152.471 167.791 152.854 167.884L154.044 168.178C154.697 168.327 155.183 168.561 155.5 168.878C155.817 169.186 155.976 169.592 155.976 170.096C155.976 170.703 155.729 171.188 155.234 171.552C154.739 171.916 154.067 172.098 153.218 172.098ZM161.297 164.79C161.913 164.79 162.459 164.944 162.935 165.252C163.411 165.56 163.78 165.994 164.041 166.554C164.303 167.105 164.433 167.744 164.433 168.472C164.433 169.2 164.303 169.839 164.041 170.39C163.78 170.931 163.411 171.351 162.935 171.65C162.469 171.949 161.923 172.098 161.297 172.098C160.747 172.098 160.266 171.977 159.855 171.734C159.445 171.491 159.132 171.146 158.917 170.698V175.024H157.783V166.932C157.783 166.204 157.746 165.546 157.671 164.958H158.749L158.861 166.316C159.057 165.831 159.365 165.457 159.785 165.196C160.215 164.925 160.719 164.79 161.297 164.79ZM161.087 171.16C161.778 171.16 162.31 170.927 162.683 170.46C163.066 169.993 163.257 169.331 163.257 168.472C163.257 167.613 163.066 166.946 162.683 166.47C162.301 165.985 161.769 165.742 161.087 165.742C160.387 165.742 159.851 165.975 159.477 166.442C159.104 166.909 158.917 167.576 158.917 168.444C158.917 169.312 159.104 169.984 159.477 170.46C159.851 170.927 160.387 171.16 161.087 171.16ZM172.072 168.444H166.906C166.915 169.34 167.121 170.017 167.522 170.474C167.933 170.931 168.525 171.16 169.3 171.16C170.121 171.16 170.877 170.885 171.568 170.334L171.946 171.16C171.638 171.449 171.241 171.678 170.756 171.846C170.28 172.014 169.79 172.098 169.286 172.098C168.185 172.098 167.321 171.776 166.696 171.132C166.071 170.479 165.758 169.587 165.758 168.458C165.758 167.739 165.898 167.105 166.178 166.554C166.458 165.994 166.85 165.56 167.354 165.252C167.858 164.944 168.432 164.79 169.076 164.79C170.009 164.79 170.742 165.098 171.274 165.714C171.806 166.321 172.072 167.161 172.072 168.234V168.444ZM169.09 165.672C168.502 165.672 168.021 165.849 167.648 166.204C167.284 166.559 167.051 167.058 166.948 167.702H171.05C170.994 167.039 170.798 166.535 170.462 166.19C170.135 165.845 169.678 165.672 169.09 165.672ZM176.747 172.098C176.066 172.098 175.469 171.949 174.955 171.65C174.451 171.351 174.059 170.931 173.779 170.39C173.509 169.839 173.373 169.2 173.373 168.472C173.373 167.744 173.513 167.105 173.793 166.554C174.073 165.994 174.47 165.56 174.983 165.252C175.506 164.944 176.113 164.79 176.803 164.79C177.279 164.79 177.737 164.874 178.175 165.042C178.623 165.201 178.992 165.425 179.281 165.714L178.903 166.554C178.549 166.274 178.203 166.069 177.867 165.938C177.541 165.807 177.205 165.742 176.859 165.742C176.141 165.742 175.576 165.985 175.165 166.47C174.755 166.946 174.549 167.613 174.549 168.472C174.549 169.321 174.75 169.984 175.151 170.46C175.562 170.927 176.131 171.16 176.859 171.16C177.205 171.16 177.541 171.095 177.867 170.964C178.203 170.833 178.549 170.628 178.903 170.348L179.281 171.188C178.983 171.468 178.605 171.692 178.147 171.86C177.699 172.019 177.233 172.098 176.747 172.098ZM180.725 164.958H181.859V172H180.725V164.958ZM181.999 161.976V163.264H180.613V161.976H181.999ZM185.573 164.958H189.899V172H188.765V165.854H185.573V172H184.439V165.854H183.067V164.958H184.439V164.02C184.439 163.451 184.523 162.993 184.691 162.648C184.868 162.303 185.153 162.051 185.545 161.892C185.937 161.733 186.469 161.654 187.141 161.654H187.589V162.536H187.239C186.753 162.536 186.394 162.578 186.161 162.662C185.937 162.746 185.783 162.909 185.699 163.152C185.615 163.385 185.573 163.749 185.573 164.244V164.958ZM190.039 161.906V163.222H188.625V161.906H190.039ZM195.04 172.098C194.359 172.098 193.761 171.949 193.248 171.65C192.744 171.351 192.352 170.931 192.072 170.39C191.801 169.839 191.666 169.2 191.666 168.472C191.666 167.744 191.806 167.105 192.086 166.554C192.366 165.994 192.763 165.56 193.276 165.252C193.799 164.944 194.405 164.79 195.096 164.79C195.572 164.79 196.029 164.874 196.468 165.042C196.916 165.201 197.285 165.425 197.574 165.714L197.196 166.554C196.841 166.274 196.496 166.069 196.16 165.938C195.833 165.807 195.497 165.742 195.152 165.742C194.433 165.742 193.869 165.985 193.458 166.47C193.047 166.946 192.842 167.613 192.842 168.472C192.842 169.321 193.043 169.984 193.444 170.46C193.855 170.927 194.424 171.16 195.152 171.16C195.497 171.16 195.833 171.095 196.16 170.964C196.496 170.833 196.841 170.628 197.196 170.348L197.574 171.188C197.275 171.468 196.897 171.692 196.44 171.86C195.992 172.019 195.525 172.098 195.04 172.098ZM202.668 161.696H203.802V172H202.668V161.696ZM212.206 164.958V172H211.086V170.726C210.881 171.165 210.568 171.505 210.148 171.748C209.737 171.981 209.257 172.098 208.706 172.098C208.081 172.098 207.53 171.949 207.054 171.65C206.587 171.351 206.223 170.931 205.962 170.39C205.71 169.839 205.584 169.2 205.584 168.472C205.584 167.744 205.715 167.105 205.976 166.554C206.237 165.994 206.601 165.56 207.068 165.252C207.544 164.944 208.09 164.79 208.706 164.79C209.257 164.79 209.737 164.911 210.148 165.154C210.559 165.397 210.871 165.737 211.086 166.176V164.958H212.206ZM208.93 171.16C209.621 171.16 210.153 170.927 210.526 170.46C210.899 169.984 211.086 169.312 211.086 168.444C211.086 167.576 210.899 166.909 210.526 166.442C210.153 165.975 209.621 165.742 208.93 165.742C208.239 165.742 207.698 165.985 207.306 166.47C206.923 166.946 206.732 167.613 206.732 168.472C206.732 169.331 206.923 169.993 207.306 170.46C207.689 170.927 208.23 171.16 208.93 171.16ZM217.913 164.79C219.602 164.79 220.447 165.719 220.447 167.576V172H219.313V167.632C219.313 166.979 219.182 166.503 218.921 166.204C218.659 165.896 218.249 165.742 217.689 165.742C217.035 165.742 216.513 165.943 216.121 166.344C215.729 166.745 215.533 167.287 215.533 167.968V172H214.399V166.932C214.399 166.204 214.361 165.546 214.287 164.958H215.365L215.477 166.218C215.691 165.761 216.013 165.411 216.443 165.168C216.872 164.916 217.362 164.79 217.913 164.79ZM228.79 161.696V172H227.67V170.726C227.465 171.165 227.152 171.505 226.732 171.748C226.321 171.981 225.841 172.098 225.29 172.098C224.674 172.098 224.128 171.944 223.652 171.636C223.185 171.328 222.821 170.899 222.56 170.348C222.299 169.788 222.168 169.144 222.168 168.416C222.168 167.688 222.294 167.053 222.546 166.512C222.807 165.961 223.176 165.537 223.652 165.238C224.128 164.939 224.674 164.79 225.29 164.79C225.841 164.79 226.321 164.911 226.732 165.154C227.143 165.387 227.451 165.719 227.656 166.148V161.696H228.79ZM225.514 171.16C226.205 171.16 226.737 170.927 227.11 170.46C227.483 169.984 227.67 169.312 227.67 168.444C227.67 167.585 227.483 166.923 227.11 166.456C226.737 165.98 226.205 165.742 225.514 165.742C224.823 165.742 224.282 165.975 223.89 166.442C223.507 166.909 223.316 167.567 223.316 168.416C223.316 169.284 223.507 169.961 223.89 170.446C224.282 170.922 224.823 171.16 225.514 171.16ZM230.983 164.958H232.117V172H230.983V164.958ZM232.257 161.976V163.264H230.871V161.976H232.257ZM237.833 164.79C239.522 164.79 240.367 165.719 240.367 167.576V172H239.233V167.632C239.233 166.979 239.102 166.503 238.841 166.204C238.579 165.896 238.169 165.742 237.609 165.742C236.955 165.742 236.433 165.943 236.041 166.344C235.649 166.745 235.453 167.287 235.453 167.968V172H234.319V166.932C234.319 166.204 234.281 165.546 234.207 164.958H235.285L235.397 166.218C235.611 165.761 235.933 165.411 236.363 165.168C236.792 164.916 237.282 164.79 237.833 164.79ZM248.78 164.958V171.944C248.78 172.989 248.509 173.778 247.968 174.31C247.436 174.851 246.647 175.122 245.602 175.122C244.529 175.122 243.605 174.879 242.83 174.394L243.026 173.47C243.474 173.722 243.894 173.904 244.286 174.016C244.687 174.128 245.126 174.184 245.602 174.184C246.283 174.184 246.797 174.002 247.142 173.638C247.487 173.283 247.66 172.751 247.66 172.042V170.376C247.445 170.824 247.128 171.174 246.708 171.426C246.297 171.669 245.807 171.79 245.238 171.79C244.622 171.79 244.071 171.645 243.586 171.356C243.11 171.067 242.741 170.656 242.48 170.124C242.219 169.592 242.088 168.981 242.088 168.29C242.088 167.599 242.219 166.988 242.48 166.456C242.741 165.924 243.11 165.513 243.586 165.224C244.071 164.935 244.622 164.79 245.238 164.79C245.798 164.79 246.283 164.911 246.694 165.154C247.114 165.397 247.431 165.737 247.646 166.176V164.958H248.78ZM245.462 170.838C246.143 170.838 246.675 170.614 247.058 170.166C247.45 169.709 247.646 169.083 247.646 168.29C247.646 167.497 247.45 166.876 247.058 166.428C246.675 165.971 246.143 165.742 245.462 165.742C244.771 165.742 244.225 165.971 243.824 166.428C243.432 166.876 243.236 167.497 243.236 168.29C243.236 169.083 243.432 169.709 243.824 170.166C244.225 170.614 244.771 170.838 245.462 170.838ZM258.122 164.79C258.738 164.79 259.284 164.944 259.76 165.252C260.236 165.56 260.604 165.994 260.866 166.554C261.127 167.105 261.258 167.744 261.258 168.472C261.258 169.2 261.127 169.839 260.866 170.39C260.604 170.931 260.236 171.351 259.76 171.65C259.293 171.949 258.747 172.098 258.122 172.098C257.571 172.098 257.09 171.977 256.68 171.734C256.269 171.491 255.956 171.146 255.742 170.698V175.024H254.608V166.932C254.608 166.204 254.57 165.546 254.496 164.958H255.574L255.686 166.316C255.882 165.831 256.19 165.457 256.61 165.196C257.039 164.925 257.543 164.79 258.122 164.79ZM257.912 171.16C258.602 171.16 259.134 170.927 259.508 170.46C259.89 169.993 260.082 169.331 260.082 168.472C260.082 167.613 259.89 166.946 259.508 166.47C259.125 165.985 258.593 165.742 257.912 165.742C257.212 165.742 256.675 165.975 256.302 166.442C255.928 166.909 255.742 167.576 255.742 168.444C255.742 169.312 255.928 169.984 256.302 170.46C256.675 170.927 257.212 171.16 257.912 171.16ZM269.204 164.958V172H268.084V170.726C267.879 171.165 267.566 171.505 267.146 171.748C266.735 171.981 266.255 172.098 265.704 172.098C265.079 172.098 264.528 171.949 264.052 171.65C263.585 171.351 263.221 170.931 262.96 170.39C262.708 169.839 262.582 169.2 262.582 168.472C262.582 167.744 262.713 167.105 262.974 166.554C263.235 165.994 263.599 165.56 264.066 165.252C264.542 164.944 265.088 164.79 265.704 164.79C266.255 164.79 266.735 164.911 267.146 165.154C267.557 165.397 267.869 165.737 268.084 166.176V164.958H269.204ZM265.928 171.16C266.619 171.16 267.151 170.927 267.524 170.46C267.897 169.984 268.084 169.312 268.084 168.444C268.084 167.576 267.897 166.909 267.524 166.442C267.151 165.975 266.619 165.742 265.928 165.742C265.237 165.742 264.696 165.985 264.304 166.47C263.921 166.946 263.73 167.613 263.73 168.472C263.73 169.331 263.921 169.993 264.304 170.46C264.687 170.927 265.228 171.16 265.928 171.16ZM277.669 164.958V171.944C277.669 172.989 277.398 173.778 276.857 174.31C276.325 174.851 275.536 175.122 274.491 175.122C273.417 175.122 272.493 174.879 271.719 174.394L271.915 173.47C272.363 173.722 272.783 173.904 273.175 174.016C273.576 174.128 274.015 174.184 274.491 174.184C275.172 174.184 275.685 174.002 276.031 173.638C276.376 173.283 276.549 172.751 276.549 172.042V170.376C276.334 170.824 276.017 171.174 275.597 171.426C275.186 171.669 274.696 171.79 274.127 171.79C273.511 171.79 272.96 171.645 272.475 171.356C271.999 171.067 271.63 170.656 271.369 170.124C271.107 169.592 270.977 168.981 270.977 168.29C270.977 167.599 271.107 166.988 271.369 166.456C271.63 165.924 271.999 165.513 272.475 165.224C272.96 164.935 273.511 164.79 274.127 164.79C274.687 164.79 275.172 164.911 275.583 165.154C276.003 165.397 276.32 165.737 276.535 166.176V164.958H277.669ZM274.351 170.838C275.032 170.838 275.564 170.614 275.947 170.166C276.339 169.709 276.535 169.083 276.535 168.29C276.535 167.497 276.339 166.876 275.947 166.428C275.564 165.971 275.032 165.742 274.351 165.742C273.66 165.742 273.114 165.971 272.713 166.428C272.321 166.876 272.125 167.497 272.125 168.29C272.125 169.083 272.321 169.709 272.713 170.166C273.114 170.614 273.66 170.838 274.351 170.838ZM285.74 168.444H280.574C280.583 169.34 280.789 170.017 281.19 170.474C281.601 170.931 282.193 171.16 282.968 171.16C283.789 171.16 284.545 170.885 285.236 170.334L285.614 171.16C285.306 171.449 284.909 171.678 284.424 171.846C283.948 172.014 283.458 172.098 282.954 172.098C281.853 172.098 280.989 171.776 280.364 171.132C279.739 170.479 279.426 169.587 279.426 168.458C279.426 167.739 279.566 167.105 279.846 166.554C280.126 165.994 280.518 165.56 281.022 165.252C281.526 164.944 282.1 164.79 282.744 164.79C283.677 164.79 284.41 165.098 284.942 165.714C285.474 166.321 285.74 167.161 285.74 168.234V168.444ZM282.758 165.672C282.17 165.672 281.689 165.849 281.316 166.204C280.952 166.559 280.719 167.058 280.616 167.702H284.718C284.662 167.039 284.466 166.535 284.13 166.19C283.803 165.845 283.346 165.672 282.758 165.672ZM289.841 172.098C288.656 172.098 287.718 171.795 287.027 171.188L287.405 170.348C287.788 170.647 288.175 170.861 288.567 170.992C288.959 171.123 289.398 171.188 289.883 171.188C290.415 171.188 290.816 171.099 291.087 170.922C291.367 170.735 291.507 170.469 291.507 170.124C291.507 169.844 291.414 169.62 291.227 169.452C291.04 169.284 290.732 169.153 290.303 169.06L289.113 168.78C288.525 168.649 288.068 168.416 287.741 168.08C287.424 167.744 287.265 167.343 287.265 166.876C287.265 166.26 287.512 165.761 288.007 165.378C288.502 164.986 289.155 164.79 289.967 164.79C290.462 164.79 290.928 164.869 291.367 165.028C291.806 165.187 292.174 165.415 292.473 165.714L292.095 166.54C291.432 165.989 290.723 165.714 289.967 165.714C289.463 165.714 289.071 165.812 288.791 166.008C288.52 166.195 288.385 166.461 288.385 166.806C288.385 167.095 288.469 167.324 288.637 167.492C288.814 167.66 289.094 167.791 289.477 167.884L290.667 168.178C291.32 168.327 291.806 168.561 292.123 168.878C292.44 169.186 292.599 169.592 292.599 170.096C292.599 170.703 292.352 171.188 291.857 171.552C291.362 171.916 290.69 172.098 289.841 172.098ZM300.759 162.62C300.386 162.62 300.092 162.727 299.877 162.942C299.672 163.147 299.569 163.507 299.569 164.02V164.958H301.291V165.854H299.569V172H298.435V165.854H297.063V164.958H298.435V163.88C298.435 163.143 298.617 162.587 298.981 162.214C299.354 161.831 299.872 161.64 300.535 161.64C300.862 161.64 301.179 161.682 301.487 161.766V162.732C301.226 162.657 300.983 162.62 300.759 162.62ZM305.617 172.098C304.955 172.098 304.371 171.949 303.867 171.65C303.363 171.351 302.971 170.927 302.691 170.376C302.421 169.825 302.285 169.181 302.285 168.444C302.285 167.707 302.421 167.063 302.691 166.512C302.971 165.961 303.363 165.537 303.867 165.238C304.371 164.939 304.955 164.79 305.617 164.79C306.28 164.79 306.863 164.939 307.367 165.238C307.871 165.537 308.259 165.961 308.529 166.512C308.809 167.063 308.949 167.707 308.949 168.444C308.949 169.181 308.809 169.825 308.529 170.376C308.259 170.927 307.871 171.351 307.367 171.65C306.863 171.949 306.28 172.098 305.617 172.098ZM305.617 171.16C306.317 171.16 306.854 170.931 307.227 170.474C307.601 170.007 307.787 169.331 307.787 168.444C307.787 167.585 307.596 166.923 307.213 166.456C306.831 165.98 306.299 165.742 305.617 165.742C304.927 165.742 304.39 165.98 304.007 166.456C303.625 166.923 303.433 167.585 303.433 168.444C303.433 169.331 303.62 170.007 303.993 170.474C304.376 170.931 304.917 171.16 305.617 171.16ZM313.993 164.79C314.226 164.79 314.441 164.818 314.637 164.874L314.609 165.91C314.394 165.835 314.147 165.798 313.867 165.798C313.186 165.798 312.677 166.013 312.341 166.442C312.014 166.862 311.851 167.375 311.851 167.982V172H310.717V166.932C310.717 166.204 310.68 165.546 310.605 164.958H311.683L311.795 166.26C311.972 165.784 312.257 165.42 312.649 165.168C313.041 164.916 313.489 164.79 313.993 164.79ZM105.232 180.032H109.208C110.235 180.032 111.033 180.279 111.602 180.774C112.181 181.269 112.47 181.95 112.47 182.818C112.47 183.686 112.181 184.372 111.602 184.876C111.023 185.371 110.225 185.618 109.208 185.618H106.38V190H105.232V180.032ZM109.11 184.666C109.847 184.666 110.403 184.507 110.776 184.19C111.149 183.873 111.336 183.415 111.336 182.818C111.336 182.221 111.149 181.768 110.776 181.46C110.403 181.143 109.847 180.984 109.11 180.984H106.38V184.666H109.11ZM120.194 182.958V190H119.074V188.726C118.869 189.165 118.556 189.505 118.136 189.748C117.726 189.981 117.245 190.098 116.694 190.098C116.069 190.098 115.518 189.949 115.042 189.65C114.576 189.351 114.212 188.931 113.95 188.39C113.698 187.839 113.572 187.2 113.572 186.472C113.572 185.744 113.703 185.105 113.964 184.554C114.226 183.994 114.59 183.56 115.056 183.252C115.532 182.944 116.078 182.79 116.694 182.79C117.245 182.79 117.726 182.911 118.136 183.154C118.547 183.397 118.86 183.737 119.074 184.176V182.958H120.194ZM116.918 189.16C117.609 189.16 118.141 188.927 118.514 188.46C118.888 187.984 119.074 187.312 119.074 186.444C119.074 185.576 118.888 184.909 118.514 184.442C118.141 183.975 117.609 183.742 116.918 183.742C116.228 183.742 115.686 183.985 115.294 184.47C114.912 184.946 114.72 185.613 114.72 186.472C114.72 187.331 114.912 187.993 115.294 188.46C115.677 188.927 116.218 189.16 116.918 189.16ZM122.387 182.958H123.521V190H122.387V182.958ZM123.661 179.976V181.264H122.275V179.976H123.661ZM131.925 179.696V190H130.805V188.726C130.6 189.165 130.287 189.505 129.867 189.748C129.456 189.981 128.976 190.098 128.425 190.098C127.809 190.098 127.263 189.944 126.787 189.636C126.32 189.328 125.956 188.899 125.695 188.348C125.434 187.788 125.303 187.144 125.303 186.416C125.303 185.688 125.429 185.053 125.681 184.512C125.942 183.961 126.311 183.537 126.787 183.238C127.263 182.939 127.809 182.79 128.425 182.79C128.976 182.79 129.456 182.911 129.867 183.154C130.278 183.387 130.586 183.719 130.791 184.148V179.696H131.925ZM128.649 189.16C129.34 189.16 129.872 188.927 130.245 188.46C130.618 187.984 130.805 187.312 130.805 186.444C130.805 185.585 130.618 184.923 130.245 184.456C129.872 183.98 129.34 183.742 128.649 183.742C127.958 183.742 127.417 183.975 127.025 184.442C126.642 184.909 126.451 185.567 126.451 186.416C126.451 187.284 126.642 187.961 127.025 188.446C127.417 188.922 127.958 189.16 128.649 189.16ZM141.072 190.112C139.513 190.112 138.272 189.692 137.348 188.852L137.782 187.97C138.276 188.39 138.78 188.689 139.294 188.866C139.807 189.043 140.404 189.132 141.086 189.132C141.888 189.132 142.504 188.978 142.934 188.67C143.372 188.353 143.592 187.909 143.592 187.34C143.592 187.004 143.484 186.733 143.27 186.528C143.064 186.313 142.789 186.145 142.444 186.024C142.108 185.903 141.655 185.777 141.086 185.646C140.32 185.478 139.69 185.296 139.196 185.1C138.701 184.904 138.3 184.624 137.992 184.26C137.684 183.887 137.53 183.401 137.53 182.804C137.53 182.235 137.679 181.735 137.978 181.306C138.276 180.867 138.696 180.527 139.238 180.284C139.788 180.041 140.428 179.92 141.156 179.92C141.846 179.92 142.49 180.027 143.088 180.242C143.685 180.457 144.189 180.769 144.6 181.18L144.152 182.062C143.685 181.661 143.209 181.367 142.724 181.18C142.248 180.993 141.725 180.9 141.156 180.9C140.381 180.9 139.774 181.068 139.336 181.404C138.897 181.731 138.678 182.183 138.678 182.762C138.678 183.266 138.869 183.644 139.252 183.896C139.634 184.148 140.222 184.367 141.016 184.554C141.874 184.759 142.546 184.951 143.032 185.128C143.526 185.296 143.937 185.557 144.264 185.912C144.59 186.257 144.754 186.719 144.754 187.298C144.754 187.858 144.604 188.353 144.306 188.782C144.007 189.202 143.578 189.529 143.018 189.762C142.467 189.995 141.818 190.112 141.072 190.112ZM152.384 186.444H147.218C147.228 187.34 147.433 188.017 147.834 188.474C148.245 188.931 148.838 189.16 149.612 189.16C150.434 189.16 151.19 188.885 151.88 188.334L152.258 189.16C151.95 189.449 151.554 189.678 151.068 189.846C150.592 190.014 150.102 190.098 149.598 190.098C148.497 190.098 147.634 189.776 147.008 189.132C146.383 188.479 146.07 187.587 146.07 186.458C146.07 185.739 146.21 185.105 146.49 184.554C146.77 183.994 147.162 183.56 147.666 183.252C148.17 182.944 148.744 182.79 149.388 182.79C150.322 182.79 151.054 183.098 151.586 183.714C152.118 184.321 152.384 185.161 152.384 186.234V186.444ZM149.402 183.672C148.814 183.672 148.334 183.849 147.96 184.204C147.596 184.559 147.363 185.058 147.26 185.702H151.362C151.306 185.039 151.11 184.535 150.774 184.19C150.448 183.845 149.99 183.672 149.402 183.672ZM160.308 182.958V190H159.188V188.726C158.982 189.165 158.67 189.505 158.25 189.748C157.839 189.981 157.358 190.098 156.808 190.098C156.182 190.098 155.632 189.949 155.156 189.65C154.689 189.351 154.325 188.931 154.064 188.39C153.812 187.839 153.686 187.2 153.686 186.472C153.686 185.744 153.816 185.105 154.078 184.554C154.339 183.994 154.703 183.56 155.17 183.252C155.646 182.944 156.192 182.79 156.808 182.79C157.358 182.79 157.839 182.911 158.25 183.154C158.66 183.397 158.973 183.737 159.188 184.176V182.958H160.308ZM157.032 189.16C157.722 189.16 158.254 188.927 158.628 188.46C159.001 187.984 159.188 187.312 159.188 186.444C159.188 185.576 159.001 184.909 158.628 184.442C158.254 183.975 157.722 183.742 157.032 183.742C156.341 183.742 155.8 183.985 155.408 184.47C155.025 184.946 154.834 185.613 154.834 186.472C154.834 187.331 155.025 187.993 155.408 188.46C155.79 188.927 156.332 189.16 157.032 189.16ZM165.776 182.79C166.01 182.79 166.224 182.818 166.42 182.874L166.392 183.91C166.178 183.835 165.93 183.798 165.65 183.798C164.969 183.798 164.46 184.013 164.124 184.442C163.798 184.862 163.634 185.375 163.634 185.982V190H162.5V184.932C162.5 184.204 162.463 183.546 162.388 182.958H163.466L163.578 184.26C163.756 183.784 164.04 183.42 164.432 183.168C164.824 182.916 165.272 182.79 165.776 182.79ZM170.39 190.098C169.708 190.098 169.111 189.949 168.598 189.65C168.094 189.351 167.702 188.931 167.422 188.39C167.151 187.839 167.016 187.2 167.016 186.472C167.016 185.744 167.156 185.105 167.436 184.554C167.716 183.994 168.112 183.56 168.626 183.252C169.148 182.944 169.755 182.79 170.446 182.79C170.922 182.79 171.379 182.874 171.818 183.042C172.266 183.201 172.634 183.425 172.924 183.714L172.546 184.554C172.191 184.274 171.846 184.069 171.51 183.938C171.183 183.807 170.847 183.742 170.502 183.742C169.783 183.742 169.218 183.985 168.808 184.47C168.397 184.946 168.192 185.613 168.192 186.472C168.192 187.321 168.392 187.984 168.794 188.46C169.204 188.927 169.774 189.16 170.502 189.16C170.847 189.16 171.183 189.095 171.51 188.964C171.846 188.833 172.191 188.628 172.546 188.348L172.924 189.188C172.625 189.468 172.247 189.692 171.79 189.86C171.342 190.019 170.875 190.098 170.39 190.098ZM177.881 182.79C179.571 182.79 180.415 183.719 180.415 185.576V190H179.281V185.632C179.281 184.979 179.151 184.503 178.889 184.204C178.628 183.896 178.217 183.742 177.657 183.742C177.004 183.742 176.481 183.943 176.089 184.344C175.697 184.745 175.501 185.287 175.501 185.968V190H174.367V179.696H175.501V184.106C175.725 183.677 176.043 183.35 176.453 183.126C176.873 182.902 177.349 182.79 177.881 182.79ZM105.022 203.772H108.984V204.71H105.022V203.772ZM120.54 202.876C121.11 203.035 121.553 203.324 121.87 203.744C122.188 204.155 122.346 204.668 122.346 205.284C122.346 206.152 122.057 206.824 121.478 207.3C120.9 207.767 120.083 208 119.028 208H114.884V198.032H118.888C119.906 198.032 120.694 198.261 121.254 198.718C121.824 199.166 122.108 199.805 122.108 200.636C122.108 201.168 121.968 201.63 121.688 202.022C121.418 202.405 121.035 202.689 120.54 202.876ZM116.018 202.456H118.706C119.453 202.456 120.018 202.307 120.4 202.008C120.783 201.709 120.974 201.271 120.974 200.692C120.974 199.553 120.218 198.984 118.706 198.984H116.018V202.456ZM118.93 207.048C119.714 207.048 120.288 206.903 120.652 206.614C121.026 206.315 121.212 205.863 121.212 205.256C121.212 204.033 120.452 203.422 118.93 203.422H116.018V207.048H118.93ZM130.168 204.444H125.002C125.011 205.34 125.216 206.017 125.618 206.474C126.028 206.931 126.621 207.16 127.396 207.16C128.217 207.16 128.973 206.885 129.664 206.334L130.042 207.16C129.734 207.449 129.337 207.678 128.852 207.846C128.376 208.014 127.886 208.098 127.382 208.098C126.28 208.098 125.417 207.776 124.792 207.132C124.166 206.479 123.854 205.587 123.854 204.458C123.854 203.739 123.994 203.105 124.274 202.554C124.554 201.994 124.946 201.56 125.45 201.252C125.954 200.944 126.528 200.79 127.172 200.79C128.105 200.79 128.838 201.098 129.37 201.714C129.902 202.321 130.168 203.161 130.168 204.234V204.444ZM127.186 201.672C126.598 201.672 126.117 201.849 125.744 202.204C125.38 202.559 125.146 203.058 125.044 203.702H129.146C129.09 203.039 128.894 202.535 128.558 202.19C128.231 201.845 127.774 201.672 127.186 201.672ZM133.36 201.854V205.704C133.36 206.227 133.467 206.595 133.682 206.81C133.897 207.015 134.2 207.118 134.592 207.118C134.853 207.118 135.105 207.076 135.348 206.992V207.958C135.059 208.051 134.732 208.098 134.368 208.098C133.696 208.098 133.169 207.911 132.786 207.538C132.413 207.155 132.226 206.595 132.226 205.858V201.854H130.854V200.958H132.226V199.152L133.36 198.746V200.958H135.376V201.854H133.36ZM138.295 201.854V205.704C138.295 206.227 138.403 206.595 138.617 206.81C138.832 207.015 139.135 207.118 139.527 207.118C139.789 207.118 140.041 207.076 140.283 206.992V207.958C139.994 208.051 139.667 208.098 139.303 208.098C138.631 208.098 138.104 207.911 137.721 207.538C137.348 207.155 137.161 206.595 137.161 205.858V201.854H135.789V200.958H137.161V199.152L138.295 198.746V200.958H140.311V201.854H138.295ZM147.572 204.444H142.406C142.415 205.34 142.621 206.017 143.022 206.474C143.433 206.931 144.025 207.16 144.8 207.16C145.621 207.16 146.377 206.885 147.068 206.334L147.446 207.16C147.138 207.449 146.741 207.678 146.256 207.846C145.78 208.014 145.29 208.098 144.786 208.098C143.685 208.098 142.821 207.776 142.196 207.132C141.571 206.479 141.258 205.587 141.258 204.458C141.258 203.739 141.398 203.105 141.678 202.554C141.958 201.994 142.35 201.56 142.854 201.252C143.358 200.944 143.932 200.79 144.576 200.79C145.509 200.79 146.242 201.098 146.774 201.714C147.306 202.321 147.572 203.161 147.572 204.234V204.444ZM144.59 201.672C144.002 201.672 143.521 201.849 143.148 202.204C142.784 202.559 142.551 203.058 142.448 203.702H146.55C146.494 203.039 146.298 202.535 145.962 202.19C145.635 201.845 145.178 201.672 144.59 201.672ZM152.569 200.79C152.803 200.79 153.017 200.818 153.213 200.874L153.185 201.91C152.971 201.835 152.723 201.798 152.443 201.798C151.762 201.798 151.253 202.013 150.917 202.442C150.591 202.862 150.427 203.375 150.427 203.982V208H149.293V202.932C149.293 202.204 149.256 201.546 149.181 200.958H150.259L150.371 202.26C150.549 201.784 150.833 201.42 151.225 201.168C151.617 200.916 152.065 200.79 152.569 200.79ZM160.97 208.098C160.288 208.098 159.691 207.949 159.178 207.65C158.674 207.351 158.282 206.931 158.002 206.39C157.731 205.839 157.596 205.2 157.596 204.472C157.596 203.744 157.736 203.105 158.016 202.554C158.296 201.994 158.692 201.56 159.206 201.252C159.728 200.944 160.335 200.79 161.026 200.79C161.502 200.79 161.959 200.874 162.398 201.042C162.846 201.201 163.214 201.425 163.504 201.714L163.126 202.554C162.771 202.274 162.426 202.069 162.09 201.938C161.763 201.807 161.427 201.742 161.082 201.742C160.363 201.742 159.798 201.985 159.388 202.47C158.977 202.946 158.772 203.613 158.772 204.472C158.772 205.321 158.972 205.984 159.374 206.46C159.784 206.927 160.354 207.16 161.082 207.16C161.427 207.16 161.763 207.095 162.09 206.964C162.426 206.833 162.771 206.628 163.126 206.348L163.504 207.188C163.205 207.468 162.827 207.692 162.37 207.86C161.922 208.019 161.455 208.098 160.97 208.098ZM167.859 208.098C167.197 208.098 166.613 207.949 166.109 207.65C165.605 207.351 165.213 206.927 164.933 206.376C164.663 205.825 164.527 205.181 164.527 204.444C164.527 203.707 164.663 203.063 164.933 202.512C165.213 201.961 165.605 201.537 166.109 201.238C166.613 200.939 167.197 200.79 167.859 200.79C168.522 200.79 169.105 200.939 169.609 201.238C170.113 201.537 170.501 201.961 170.771 202.512C171.051 203.063 171.191 203.707 171.191 204.444C171.191 205.181 171.051 205.825 170.771 206.376C170.501 206.927 170.113 207.351 169.609 207.65C169.105 207.949 168.522 208.098 167.859 208.098ZM167.859 207.16C168.559 207.16 169.096 206.931 169.469 206.474C169.843 206.007 170.029 205.331 170.029 204.444C170.029 203.585 169.838 202.923 169.455 202.456C169.073 201.98 168.541 201.742 167.859 201.742C167.169 201.742 166.632 201.98 166.249 202.456C165.867 202.923 165.675 203.585 165.675 204.444C165.675 205.331 165.862 206.007 166.235 206.474C166.618 206.931 167.159 207.16 167.859 207.16ZM176.473 200.79C178.163 200.79 179.007 201.719 179.007 203.576V208H177.873V203.632C177.873 202.979 177.743 202.503 177.481 202.204C177.22 201.896 176.809 201.742 176.249 201.742C175.596 201.742 175.073 201.943 174.681 202.344C174.289 202.745 174.093 203.287 174.093 203.968V208H172.959V202.932C172.959 202.204 172.922 201.546 172.847 200.958H173.925L174.037 202.218C174.252 201.761 174.574 201.411 175.003 201.168C175.433 200.916 175.923 200.79 176.473 200.79ZM187.337 200.972L184.299 208H183.221L180.225 200.972H181.415L183.795 206.768L186.203 200.972H187.337ZM194.398 204.444H189.232C189.241 205.34 189.447 206.017 189.848 206.474C190.259 206.931 190.851 207.16 191.626 207.16C192.447 207.16 193.203 206.885 193.894 206.334L194.272 207.16C193.964 207.449 193.567 207.678 193.082 207.846C192.606 208.014 192.116 208.098 191.612 208.098C190.511 208.098 189.647 207.776 189.022 207.132C188.397 206.479 188.084 205.587 188.084 204.458C188.084 203.739 188.224 203.105 188.504 202.554C188.784 201.994 189.176 201.56 189.68 201.252C190.184 200.944 190.758 200.79 191.402 200.79C192.335 200.79 193.068 201.098 193.6 201.714C194.132 202.321 194.398 203.161 194.398 204.234V204.444ZM191.416 201.672C190.828 201.672 190.347 201.849 189.974 202.204C189.61 202.559 189.377 203.058 189.274 203.702H193.376C193.32 203.039 193.124 202.535 192.788 202.19C192.461 201.845 192.004 201.672 191.416 201.672ZM199.395 200.79C199.629 200.79 199.843 200.818 200.039 200.874L200.011 201.91C199.797 201.835 199.549 201.798 199.269 201.798C198.588 201.798 198.079 202.013 197.743 202.442C197.417 202.862 197.253 203.375 197.253 203.982V208H196.119V202.932C196.119 202.204 196.082 201.546 196.007 200.958H197.085L197.197 202.26C197.375 201.784 197.659 201.42 198.051 201.168C198.443 200.916 198.891 200.79 199.395 200.79ZM203.25 201.854V205.704C203.25 206.227 203.358 206.595 203.572 206.81C203.787 207.015 204.09 207.118 204.482 207.118C204.744 207.118 204.996 207.076 205.238 206.992V207.958C204.949 208.051 204.622 208.098 204.258 208.098C203.586 208.098 203.059 207.911 202.676 207.538C202.303 207.155 202.116 206.595 202.116 205.858V201.854H200.744V200.958H202.116V199.152L203.25 198.746V200.958H205.266V201.854H203.25ZM206.633 200.958H207.767V208H206.633V200.958ZM207.907 197.976V199.264H206.521V197.976H207.907ZM213.483 200.79C215.172 200.79 216.017 201.719 216.017 203.576V208H214.883V203.632C214.883 202.979 214.752 202.503 214.491 202.204C214.23 201.896 213.819 201.742 213.259 201.742C212.606 201.742 212.083 201.943 211.691 202.344C211.299 202.745 211.103 203.287 211.103 203.968V208H209.969V202.932C209.969 202.204 209.932 201.546 209.857 200.958H210.935L211.047 202.218C211.262 201.761 211.584 201.411 212.013 201.168C212.442 200.916 212.932 200.79 213.483 200.79ZM224.43 200.958V207.944C224.43 208.989 224.16 209.778 223.618 210.31C223.086 210.851 222.298 211.122 221.252 211.122C220.179 211.122 219.255 210.879 218.48 210.394L218.676 209.47C219.124 209.722 219.544 209.904 219.936 210.016C220.338 210.128 220.776 210.184 221.252 210.184C221.934 210.184 222.447 210.002 222.792 209.638C223.138 209.283 223.31 208.751 223.31 208.042V206.376C223.096 206.824 222.778 207.174 222.358 207.426C221.948 207.669 221.458 207.79 220.888 207.79C220.272 207.79 219.722 207.645 219.236 207.356C218.76 207.067 218.392 206.656 218.13 206.124C217.869 205.592 217.738 204.981 217.738 204.29C217.738 203.599 217.869 202.988 218.13 202.456C218.392 201.924 218.76 201.513 219.236 201.224C219.722 200.935 220.272 200.79 220.888 200.79C221.448 200.79 221.934 200.911 222.344 201.154C222.764 201.397 223.082 201.737 223.296 202.176V200.958H224.43ZM221.112 206.838C221.794 206.838 222.326 206.614 222.708 206.166C223.1 205.709 223.296 205.083 223.296 204.29C223.296 203.497 223.1 202.876 222.708 202.428C222.326 201.971 221.794 201.742 221.112 201.742C220.422 201.742 219.876 201.971 219.474 202.428C219.082 202.876 218.886 203.497 218.886 204.29C218.886 205.083 219.082 205.709 219.474 206.166C219.876 206.614 220.422 206.838 221.112 206.838ZM233.772 200.79C234.388 200.79 234.934 200.944 235.41 201.252C235.886 201.56 236.255 201.994 236.516 202.554C236.777 203.105 236.908 203.744 236.908 204.472C236.908 205.2 236.777 205.839 236.516 206.39C236.255 206.931 235.886 207.351 235.41 207.65C234.943 207.949 234.397 208.098 233.772 208.098C233.221 208.098 232.741 207.977 232.33 207.734C231.919 207.491 231.607 207.146 231.392 206.698V211.024H230.258V202.932C230.258 202.204 230.221 201.546 230.146 200.958H231.224L231.336 202.316C231.532 201.831 231.84 201.457 232.26 201.196C232.689 200.925 233.193 200.79 233.772 200.79ZM233.562 207.16C234.253 207.16 234.785 206.927 235.158 206.46C235.541 205.993 235.732 205.331 235.732 204.472C235.732 203.613 235.541 202.946 235.158 202.47C234.775 201.985 234.243 201.742 233.562 201.742C232.862 201.742 232.325 201.975 231.952 202.442C231.579 202.909 231.392 203.576 231.392 204.444C231.392 205.312 231.579 205.984 231.952 206.46C232.325 206.927 232.862 207.16 233.562 207.16ZM244.855 200.958V208H243.735V206.726C243.529 207.165 243.217 207.505 242.797 207.748C242.386 207.981 241.905 208.098 241.355 208.098C240.729 208.098 240.179 207.949 239.703 207.65C239.236 207.351 238.872 206.931 238.611 206.39C238.359 205.839 238.233 205.2 238.233 204.472C238.233 203.744 238.363 203.105 238.625 202.554C238.886 201.994 239.25 201.56 239.717 201.252C240.193 200.944 240.739 200.79 241.355 200.79C241.905 200.79 242.386 200.911 242.797 201.154C243.207 201.397 243.52 201.737 243.735 202.176V200.958H244.855ZM241.579 207.16C242.269 207.16 242.801 206.927 243.175 206.46C243.548 205.984 243.735 205.312 243.735 204.444C243.735 203.576 243.548 202.909 243.175 202.442C242.801 201.975 242.269 201.742 241.579 201.742C240.888 201.742 240.347 201.985 239.955 202.47C239.572 202.946 239.381 203.613 239.381 204.472C239.381 205.331 239.572 205.993 239.955 206.46C240.337 206.927 240.879 207.16 241.579 207.16ZM253.319 200.958V207.944C253.319 208.989 253.048 209.778 252.507 210.31C251.975 210.851 251.186 211.122 250.141 211.122C249.068 211.122 248.144 210.879 247.369 210.394L247.565 209.47C248.013 209.722 248.433 209.904 248.825 210.016C249.226 210.128 249.665 210.184 250.141 210.184C250.822 210.184 251.336 210.002 251.681 209.638C252.026 209.283 252.199 208.751 252.199 208.042V206.376C251.984 206.824 251.667 207.174 251.247 207.426C250.836 207.669 250.346 207.79 249.777 207.79C249.161 207.79 248.61 207.645 248.125 207.356C247.649 207.067 247.28 206.656 247.019 206.124C246.758 205.592 246.627 204.981 246.627 204.29C246.627 203.599 246.758 202.988 247.019 202.456C247.28 201.924 247.649 201.513 248.125 201.224C248.61 200.935 249.161 200.79 249.777 200.79C250.337 200.79 250.822 200.911 251.233 201.154C251.653 201.397 251.97 201.737 252.185 202.176V200.958H253.319ZM250.001 206.838C250.682 206.838 251.214 206.614 251.597 206.166C251.989 205.709 252.185 205.083 252.185 204.29C252.185 203.497 251.989 202.876 251.597 202.428C251.214 201.971 250.682 201.742 250.001 201.742C249.31 201.742 248.764 201.971 248.363 202.428C247.971 202.876 247.775 203.497 247.775 204.29C247.775 205.083 247.971 205.709 248.363 206.166C248.764 206.614 249.31 206.838 250.001 206.838ZM261.39 204.444H256.224C256.234 205.34 256.439 206.017 256.84 206.474C257.251 206.931 257.844 207.16 258.618 207.16C259.44 207.16 260.196 206.885 260.886 206.334L261.264 207.16C260.956 207.449 260.56 207.678 260.074 207.846C259.598 208.014 259.108 208.098 258.604 208.098C257.503 208.098 256.64 207.776 256.014 207.132C255.389 206.479 255.076 205.587 255.076 204.458C255.076 203.739 255.216 203.105 255.496 202.554C255.776 201.994 256.168 201.56 256.672 201.252C257.176 200.944 257.75 200.79 258.394 200.79C259.328 200.79 260.06 201.098 260.592 201.714C261.124 202.321 261.39 203.161 261.39 204.234V204.444ZM258.408 201.672C257.82 201.672 257.34 201.849 256.966 202.204C256.602 202.559 256.369 203.058 256.266 203.702H260.368C260.312 203.039 260.116 202.535 259.78 202.19C259.454 201.845 258.996 201.672 258.408 201.672ZM265.492 208.098C264.306 208.098 263.368 207.795 262.678 207.188L263.056 206.348C263.438 206.647 263.826 206.861 264.218 206.992C264.61 207.123 265.048 207.188 265.534 207.188C266.066 207.188 266.467 207.099 266.738 206.922C267.018 206.735 267.158 206.469 267.158 206.124C267.158 205.844 267.064 205.62 266.878 205.452C266.691 205.284 266.383 205.153 265.954 205.06L264.764 204.78C264.176 204.649 263.718 204.416 263.392 204.08C263.074 203.744 262.916 203.343 262.916 202.876C262.916 202.26 263.163 201.761 263.658 201.378C264.152 200.986 264.806 200.79 265.618 200.79C266.112 200.79 266.579 200.869 267.018 201.028C267.456 201.187 267.825 201.415 268.124 201.714L267.746 202.54C267.083 201.989 266.374 201.714 265.618 201.714C265.114 201.714 264.722 201.812 264.442 202.008C264.171 202.195 264.036 202.461 264.036 202.806C264.036 203.095 264.12 203.324 264.288 203.492C264.465 203.66 264.745 203.791 265.128 203.884L266.318 204.178C266.971 204.327 267.456 204.561 267.774 204.878C268.091 205.186 268.25 205.592 268.25 206.096C268.25 206.703 268.002 207.188 267.508 207.552C267.013 207.916 266.341 208.098 265.492 208.098Z" fill="#5B5151"/>
<circle cx="81" cy="119" r="15" fill="white"/>
<mask id="mask1" mask-type="alpha" maskUnits="userSpaceOnUse" x="66" y="104" width="30" height="30">
<circle cx="81" cy="119" r="15" fill="#F4F4EA"/>
</mask>
<g mask="url(#mask1)">
<path fill-rule="evenodd" clip-rule="evenodd" d="M86.9303 111.298C85.522 115.565 84.1631 119.437 82.783 123.704C82.7004 124.067 82.5174 124.399 82.2549 124.662C81.8931 124.926 81.4474 125.048 81.0016 125.007H79.3398L80.2834 127.274H82.8957C83.2501 127.296 83.6033 127.216 83.9139 127.044C84.2244 126.872 84.4794 126.614 84.6489 126.302C84.7624 126.09 84.8589 125.868 84.9376 125.641L89.7961 111.298H86.9303Z" fill="#635452"/>
<path fill-rule="evenodd" clip-rule="evenodd" d="M77.376 119.043H79.087C79.2676 119.052 79.4378 119.13 79.5623 119.261C79.6868 119.392 79.7562 119.566 79.7559 119.747V119.902C79.7562 120.083 79.6868 120.257 79.5623 120.388C79.4378 120.519 79.2676 120.597 79.087 120.606H77.376C77.1893 120.606 77.0102 120.532 76.8781 120.4C76.7461 120.268 76.6719 120.089 76.6719 119.902V119.747C76.6719 119.56 76.7461 119.381 76.8781 119.249C77.0102 119.117 77.1893 119.043 77.376 119.043Z" fill="#F0AD00"/>
<path fill-rule="evenodd" clip-rule="evenodd" d="M80.8535 119.043H82.642C82.8287 119.043 83.0078 119.117 83.1399 119.249C83.2719 119.381 83.3461 119.56 83.3461 119.747V119.902C83.3461 120.089 83.2719 120.268 83.1399 120.4C83.0078 120.532 82.8287 120.606 82.642 120.606H80.8535C80.6668 120.606 80.4877 120.532 80.3556 120.4C80.2236 120.268 80.1494 120.089 80.1494 119.902V119.747C80.1494 119.56 80.2236 119.381 80.3556 119.249C80.4877 119.117 80.6668 119.043 80.8535 119.043Z" fill="#E1760C"/>
<path fill-rule="evenodd" clip-rule="evenodd" d="M76.7344 117.114H78.5862C78.767 117.113 78.941 117.183 79.0721 117.307C79.2032 117.432 79.2813 117.602 79.2904 117.782V117.944C79.2904 118.131 79.2162 118.31 79.0841 118.442C78.9521 118.574 78.773 118.649 78.5862 118.649H76.7344C76.5477 118.649 76.3686 118.574 76.2365 118.442C76.1045 118.31 76.0303 118.131 76.0303 117.944V117.782C76.0393 117.602 76.1175 117.432 76.2485 117.307C76.3796 117.183 76.5536 117.113 76.7344 117.114Z" fill="#E1760C"/>
<path fill-rule="evenodd" clip-rule="evenodd" d="M80.3682 117.114H83.3114C83.4861 117.122 83.6513 117.195 83.7749 117.319C83.8986 117.443 83.9718 117.608 83.9803 117.782V117.944C83.9806 118.125 83.9112 118.299 83.7867 118.43C83.6622 118.561 83.492 118.639 83.3114 118.649H80.3682C80.1814 118.649 80.0023 118.574 79.8703 118.442C79.7382 118.31 79.6641 118.131 79.6641 117.944V117.782C79.6731 117.602 79.7513 117.432 79.8823 117.307C80.0134 117.183 80.1874 117.113 80.3682 117.114Z" fill="#F0AD00"/>
<path fill-rule="evenodd" clip-rule="evenodd" d="M80.1006 120.986H82.0088C82.1894 120.995 82.3595 121.074 82.4841 121.205C82.6086 121.336 82.6779 121.51 82.6777 121.69V121.859C82.6779 122.04 82.6086 122.214 82.4841 122.345C82.3595 122.476 82.1894 122.555 82.0088 122.564H80.1006C79.9139 122.564 79.7348 122.489 79.6027 122.357C79.4707 122.225 79.3965 122.046 79.3965 121.859V121.697C79.3965 121.511 79.4707 121.332 79.6027 121.2C79.7348 121.068 79.9139 120.993 80.1006 120.993V120.986Z" fill="#D65359"/>
<path fill-rule="evenodd" clip-rule="evenodd" d="M79.0156 122.923H81.3674C81.5542 122.923 81.7333 122.997 81.8653 123.129C81.9974 123.261 82.0715 123.44 82.0715 123.627V123.789C82.0715 123.976 81.9974 124.155 81.8653 124.287C81.7333 124.419 81.5542 124.493 81.3674 124.493H79.0156C78.8289 124.493 78.6498 124.419 78.5178 124.287C78.3857 124.155 78.3115 123.976 78.3115 123.789V123.627C78.3115 123.44 78.3857 123.261 78.5178 123.129C78.6498 122.997 78.8289 122.923 79.0156 122.923Z" fill="#F0AD00"/>
<path fill-rule="evenodd" clip-rule="evenodd" d="M78.0801 115.17H80.3826C80.5693 115.17 80.7484 115.244 80.8805 115.376C81.0125 115.508 81.0867 115.688 81.0867 115.874V116.036C81.0867 116.223 81.0125 116.402 80.8805 116.534C80.7484 116.666 80.5693 116.74 80.3826 116.74H78.0801C77.8934 116.74 77.7143 116.666 77.5822 116.534C77.4502 116.402 77.376 116.223 77.376 116.036V115.874C77.376 115.688 77.4502 115.508 77.5822 115.376C77.7143 115.244 77.8934 115.17 78.0801 115.17Z" fill="#F0AD00"/>
<path fill-rule="evenodd" clip-rule="evenodd" d="M82.1348 115.17H83.9655C84.1523 115.17 84.3314 115.244 84.4634 115.376C84.5955 115.508 84.6696 115.688 84.6696 115.874V116.036C84.6696 116.223 84.5955 116.402 84.4634 116.534C84.3314 116.666 84.1523 116.74 83.9655 116.74H82.1348C81.948 116.74 81.7689 116.666 81.6369 116.534C81.5048 116.402 81.4307 116.223 81.4307 116.036V115.874C81.4307 115.688 81.5048 115.508 81.6369 115.376C81.7689 115.244 81.948 115.17 82.1348 115.17Z" fill="#E1760C"/>
<path fill-rule="evenodd" clip-rule="evenodd" d="M76.2419 115.17C76.3923 115.17 76.5394 115.215 76.6644 115.298C76.7895 115.382 76.8869 115.501 76.9445 115.64C77.0021 115.779 77.0171 115.931 76.9878 116.079C76.9584 116.227 76.886 116.362 76.7797 116.468C76.6733 116.575 76.5378 116.647 76.3903 116.676C76.2428 116.706 76.0899 116.691 75.9509 116.633C75.812 116.576 75.6932 116.478 75.6096 116.353C75.5261 116.228 75.4815 116.081 75.4815 115.931C75.4805 115.831 75.4996 115.731 75.5374 115.639C75.5753 115.546 75.6313 115.462 75.7021 115.391C75.7729 115.32 75.8571 115.264 75.9498 115.226C76.0425 115.188 76.1418 115.169 76.2419 115.17Z" fill="#D65359"/>
<path fill-rule="evenodd" clip-rule="evenodd" d="M74.8965 113.234H79.4874C79.6741 113.234 79.8532 113.308 79.9853 113.44C80.1173 113.572 80.1915 113.751 80.1915 113.938V114.1C80.1915 114.287 80.1173 114.466 79.9853 114.598C79.8532 114.73 79.6741 114.804 79.4874 114.804H74.8965C74.7098 114.804 74.5307 114.73 74.3986 114.598C74.2666 114.466 74.1924 114.287 74.1924 114.1V113.938C74.1924 113.751 74.2666 113.572 74.3986 113.44C74.5307 113.308 74.7098 113.234 74.8965 113.234Z" fill="#D65359"/>
<path fill-rule="evenodd" clip-rule="evenodd" d="M81.2129 113.234H84.6209C84.8076 113.234 84.9867 113.308 85.1188 113.44C85.2508 113.572 85.325 113.751 85.325 113.938V114.1C85.325 114.287 85.2508 114.466 85.1188 114.598C84.9867 114.73 84.8076 114.804 84.6209 114.804H81.2129C81.0262 114.804 80.8471 114.73 80.715 114.598C80.583 114.466 80.5088 114.287 80.5088 114.1V113.938C80.5088 113.751 80.583 113.572 80.715 113.44C80.8471 113.308 81.0262 113.234 81.2129 113.234Z" fill="#F0AD00"/>
<path fill-rule="evenodd" clip-rule="evenodd" d="M73.6153 111.297H77.1781C77.3649 111.297 77.544 111.372 77.676 111.504C77.8081 111.636 77.8822 111.815 77.8822 112.001V112.156C77.8822 112.343 77.8081 112.522 77.676 112.654C77.544 112.786 77.3649 112.861 77.1781 112.861H73.6153C73.4285 112.861 73.2494 112.786 73.1174 112.654C72.9853 112.522 72.9111 112.343 72.9111 112.156V112.001C72.9111 111.815 72.9853 111.636 73.1174 111.504C73.2494 111.372 73.4285 111.297 73.6153 111.297Z" fill="#E1760C"/>
<path fill-rule="evenodd" clip-rule="evenodd" d="M80.8965 111.297H85.255C85.4418 111.297 85.6209 111.372 85.7529 111.504C85.885 111.636 85.9592 111.815 85.9592 112.001V112.156C85.9592 112.343 85.885 112.522 85.7529 112.654C85.6209 112.786 85.4418 112.861 85.255 112.861H80.8965C80.7098 112.861 80.5307 112.786 80.3986 112.654C80.2666 112.522 80.1924 112.343 80.1924 112.156V112.001C80.1924 111.815 80.2666 111.636 80.3986 111.504C80.5307 111.372 80.7098 111.297 80.8965 111.297Z" fill="#D65359"/>
<path fill-rule="evenodd" clip-rule="evenodd" d="M79.0376 111.297C79.1866 111.297 79.3323 111.342 79.4562 111.424C79.5801 111.507 79.6766 111.625 79.7337 111.762C79.7907 111.9 79.8056 112.052 79.7765 112.198C79.7475 112.344 79.6757 112.478 79.5703 112.584C79.465 112.689 79.3307 112.761 79.1846 112.79C79.0384 112.819 78.8869 112.804 78.7493 112.747C78.6116 112.69 78.4939 112.593 78.4112 112.469C78.3284 112.345 78.2842 112.2 78.2842 112.051C78.2842 111.851 78.3636 111.659 78.5049 111.518C78.6461 111.377 78.8378 111.297 79.0376 111.297Z" fill="#F0AD00"/>
<path fill-rule="evenodd" clip-rule="evenodd" d="M78.2417 120.986C78.3927 120.985 78.5407 121.028 78.6668 121.111C78.793 121.194 78.8915 121.313 78.9499 121.452C79.0084 121.592 79.024 121.745 78.9949 121.893C78.9658 122.041 78.8932 122.177 78.7865 122.284C78.6797 122.391 78.5435 122.464 78.3954 122.493C78.2472 122.522 78.0937 122.506 77.9545 122.448C77.8152 122.389 77.6965 122.291 77.6135 122.165C77.5305 122.039 77.4869 121.891 77.4883 121.74C77.4883 121.54 77.5677 121.348 77.709 121.207C77.8503 121.065 78.0419 120.986 78.2417 120.986Z" fill="#E1760C"/>
</g>
</svg>
