<svg width="359" height="259" viewBox="0 0 359 259" fill="none" xmlns="http://www.w3.org/2000/svg">
<rect width="359" height="259" rx="12" fill="white"/>
<rect x="0.5" y="0.5" width="358" height="258" rx="11.5" stroke="#5B5151" stroke-opacity="0.1"/>
<path d="M16 57C16 45.9543 24.9543 37 36 37H212C223.046 37 232 45.9543 232 57V77C232 88.0457 223.046 97 212 97H16V57Z" fill="#FEF3F4"/>
<path d="M65.232 53.032H66.38V63H65.232V53.032ZM78.5538 55.958V63H77.4338V61.726C77.2284 62.1647 76.9158 62.5053 76.4958 62.748C76.0851 62.9813 75.6044 63.098 75.0538 63.098C74.4284 63.098 73.8778 62.9487 73.4018 62.65C72.9351 62.3513 72.5711 61.9313 72.3098 61.39C72.0578 60.8393 71.9318 60.2 71.9318 59.472C71.9318 58.744 72.0624 58.1047 72.3238 57.554C72.5851 56.994 72.9491 56.56 73.4158 56.252C73.8918 55.944 74.4378 55.79 75.0538 55.79C75.6044 55.79 76.0851 55.9113 76.4958 56.154C76.9064 56.3967 77.2191 56.7373 77.4338 57.176V55.958H78.5538ZM75.2778 62.16C75.9684 62.16 76.5004 61.9267 76.8738 61.46C77.2471 60.984 77.4338 60.312 77.4338 59.444C77.4338 58.576 77.2471 57.9087 76.8738 57.442C76.5004 56.9753 75.9684 56.742 75.2778 56.742C74.5871 56.742 74.0458 56.9847 73.6538 57.47C73.2711 57.946 73.0798 58.6133 73.0798 59.472C73.0798 60.3307 73.2711 60.9933 73.6538 61.46C74.0364 61.9267 74.5778 62.16 75.2778 62.16ZM88.5583 55.79C90.117 55.79 90.8963 56.7187 90.8963 58.576V63H89.7623V58.632C89.7623 57.9693 89.6456 57.4887 89.4123 57.19C89.1883 56.8913 88.8196 56.742 88.3063 56.742C87.709 56.742 87.2423 56.9427 86.9063 57.344C86.5703 57.7453 86.4023 58.2913 86.4023 58.982V63H85.2683V58.632C85.2683 57.9787 85.1516 57.5027 84.9183 57.204C84.685 56.896 84.3116 56.742 83.7983 56.742C83.201 56.742 82.7296 56.9427 82.3843 57.344C82.0483 57.7453 81.8803 58.2913 81.8803 58.982V63H80.7463V57.932C80.7463 57.204 80.709 56.546 80.6343 55.958H81.7123L81.8243 57.19C82.0203 56.742 82.3096 56.3967 82.6923 56.154C83.0843 55.9113 83.537 55.79 84.0503 55.79C84.6103 55.79 85.0676 55.902 85.4223 56.126C85.777 56.35 86.0383 56.6953 86.2063 57.162C86.421 56.742 86.7336 56.4107 87.1443 56.168C87.5643 55.916 88.0356 55.79 88.5583 55.79ZM96.7014 52.696H97.8354V63H96.7014V52.696ZM100.037 55.958H101.171V63H100.037V55.958ZM101.311 52.976V54.264H99.9253V52.976H101.311ZM111.185 55.79C112.744 55.79 113.523 56.7187 113.523 58.576V63H112.389V58.632C112.389 57.9693 112.273 57.4887 112.039 57.19C111.815 56.8913 111.447 56.742 110.933 56.742C110.336 56.742 109.869 56.9427 109.533 57.344C109.197 57.7453 109.029 58.2913 109.029 58.982V63H107.895V58.632C107.895 57.9787 107.779 57.5027 107.545 57.204C107.312 56.896 106.939 56.742 106.425 56.742C105.828 56.742 105.357 56.9427 105.011 57.344C104.675 57.7453 104.507 58.2913 104.507 58.982V63H103.373V57.932C103.373 57.204 103.336 56.546 103.261 55.958H104.339L104.451 57.19C104.647 56.742 104.937 56.3967 105.319 56.154C105.711 55.9113 106.164 55.79 106.677 55.79C107.237 55.79 107.695 55.902 108.049 56.126C108.404 56.35 108.665 56.6953 108.833 57.162C109.048 56.742 109.361 56.4107 109.771 56.168C110.191 55.916 110.663 55.79 111.185 55.79ZM115.678 55.958H116.812V63H115.678V55.958ZM116.952 52.976V54.264H115.566V52.976H116.952ZM120.526 56.854V60.704C120.526 61.2267 120.633 61.5953 120.848 61.81C121.063 62.0153 121.366 62.118 121.758 62.118C122.019 62.118 122.271 62.076 122.514 61.992V62.958C122.225 63.0513 121.898 63.098 121.534 63.098C120.862 63.098 120.335 62.9113 119.952 62.538C119.579 62.1553 119.392 61.5953 119.392 60.858V56.854H118.02V55.958H119.392V54.152L120.526 53.746V55.958H122.542V56.854H120.526ZM129.802 59.444H124.636C124.646 60.34 124.851 61.0167 125.252 61.474C125.663 61.9313 126.256 62.16 127.03 62.16C127.852 62.16 128.608 61.8847 129.298 61.334L129.676 62.16C129.368 62.4493 128.972 62.678 128.486 62.846C128.01 63.014 127.52 63.098 127.016 63.098C125.915 63.098 125.052 62.776 124.426 62.132C123.801 61.4787 123.488 60.5873 123.488 59.458C123.488 58.7393 123.628 58.1047 123.908 57.554C124.188 56.994 124.58 56.56 125.084 56.252C125.588 55.944 126.162 55.79 126.806 55.79C127.74 55.79 128.472 56.098 129.004 56.714C129.536 57.3207 129.802 58.1607 129.802 59.234V59.444ZM126.82 56.672C126.232 56.672 125.752 56.8493 125.378 57.204C125.014 57.5587 124.781 58.058 124.678 58.702H128.78C128.724 58.0393 128.528 57.5353 128.192 57.19C127.866 56.8447 127.408 56.672 126.82 56.672ZM137.726 52.696V63H136.606V61.726C136.4 62.1647 136.088 62.5053 135.668 62.748C135.257 62.9813 134.776 63.098 134.226 63.098C133.61 63.098 133.064 62.944 132.588 62.636C132.121 62.328 131.757 61.8987 131.496 61.348C131.234 60.788 131.104 60.144 131.104 59.416C131.104 58.688 131.23 58.0533 131.482 57.512C131.743 56.9613 132.112 56.5367 132.588 56.238C133.064 55.9393 133.61 55.79 134.226 55.79C134.776 55.79 135.257 55.9113 135.668 56.154C136.078 56.3873 136.386 56.7187 136.592 57.148V52.696H137.726ZM134.45 62.16C135.14 62.16 135.672 61.9267 136.046 61.46C136.419 60.984 136.606 60.312 136.606 59.444C136.606 58.5853 136.419 57.9227 136.046 57.456C135.672 56.98 135.14 56.742 134.45 56.742C133.759 56.742 133.218 56.9753 132.826 57.442C132.443 57.9087 132.252 58.5667 132.252 59.416C132.252 60.284 132.443 60.9607 132.826 61.446C133.218 61.922 133.759 62.16 134.45 62.16ZM147.083 55.79C147.699 55.79 148.245 55.9393 148.721 56.238C149.197 56.5367 149.565 56.9613 149.827 57.512C150.088 58.0533 150.219 58.688 150.219 59.416C150.219 60.144 150.088 60.788 149.827 61.348C149.565 61.8987 149.197 62.328 148.721 62.636C148.245 62.944 147.699 63.098 147.083 63.098C146.532 63.098 146.051 62.9767 145.641 62.734C145.23 62.4913 144.917 62.146 144.703 61.698V63H143.569V52.696H144.703V57.204C144.908 56.7467 145.216 56.3967 145.627 56.154C146.047 55.9113 146.532 55.79 147.083 55.79ZM146.873 62.16C147.554 62.16 148.086 61.922 148.469 61.446C148.851 60.9607 149.043 60.284 149.043 59.416C149.043 58.5667 148.851 57.9087 148.469 57.442C148.095 56.9753 147.563 56.742 146.873 56.742C146.173 56.742 145.636 56.9753 145.263 57.442C144.889 57.9087 144.703 58.576 144.703 59.444C144.703 60.312 144.889 60.984 145.263 61.46C145.636 61.9267 146.173 62.16 146.873 62.16ZM158.069 55.958L154.779 63.644C154.434 64.4467 154 65.0347 153.477 65.408C152.954 65.7813 152.31 66.038 151.545 66.178L151.307 65.296C151.97 65.1467 152.469 64.946 152.805 64.694C153.15 64.4513 153.435 64.0733 153.659 63.56L153.939 62.93L150.957 55.958H152.147L154.527 61.768L156.935 55.958H158.069ZM170.781 55.79C172.34 55.79 173.119 56.7187 173.119 58.576V63H171.985V58.632C171.985 57.9693 171.868 57.4887 171.635 57.19C171.411 56.8913 171.042 56.742 170.529 56.742C169.932 56.742 169.465 56.9427 169.129 57.344C168.793 57.7453 168.625 58.2913 168.625 58.982V63H167.491V58.632C167.491 57.9787 167.374 57.5027 167.141 57.204C166.908 56.896 166.534 56.742 166.021 56.742C165.424 56.742 164.952 56.9427 164.607 57.344C164.271 57.7453 164.103 58.2913 164.103 58.982V63H162.969V57.932C162.969 57.204 162.932 56.546 162.857 55.958H163.935L164.047 57.19C164.243 56.742 164.532 56.3967 164.915 56.154C165.307 55.9113 165.76 55.79 166.273 55.79C166.833 55.79 167.29 55.902 167.645 56.126C168 56.35 168.261 56.6953 168.429 57.162C168.644 56.742 168.956 56.4107 169.367 56.168C169.787 55.916 170.258 55.79 170.781 55.79ZM181.462 55.958L178.172 63.644C177.826 64.4467 177.392 65.0347 176.87 65.408C176.347 65.7813 175.703 66.038 174.938 66.178L174.7 65.296C175.362 65.1467 175.862 64.946 176.198 64.694C176.543 64.4513 176.828 64.0733 177.052 63.56L177.332 62.93L174.35 55.958H175.54L177.92 61.768L180.328 55.958H181.462ZM186.502 53.032H187.65V63H186.502V53.032ZM192.519 54.012H189.047V53.032H197.153V54.012H193.681V63H192.519V54.012ZM71.294 70.696V81H70.174V79.726C69.9687 80.1647 69.656 80.5053 69.236 80.748C68.8253 80.9813 68.3447 81.098 67.794 81.098C67.178 81.098 66.632 80.944 66.156 80.636C65.6893 80.328 65.3253 79.8987 65.064 79.348C64.8027 78.788 64.672 78.144 64.672 77.416C64.672 76.688 64.798 76.0533 65.05 75.512C65.3113 74.9613 65.68 74.5367 66.156 74.238C66.632 73.9393 67.178 73.79 67.794 73.79C68.3447 73.79 68.8253 73.9113 69.236 74.154C69.6467 74.3873 69.9547 74.7187 70.16 75.148V70.696H71.294ZM68.018 80.16C68.7087 80.16 69.2407 79.9267 69.614 79.46C69.9873 78.984 70.174 78.312 70.174 77.444C70.174 76.5853 69.9873 75.9227 69.614 75.456C69.2407 74.98 68.7087 74.742 68.018 74.742C67.3273 74.742 66.786 74.9753 66.394 75.442C66.0113 75.9087 65.82 76.5667 65.82 77.416C65.82 78.284 66.0113 78.9607 66.394 79.446C66.786 79.922 67.3273 80.16 68.018 80.16ZM79.3805 77.444H74.2145C74.2239 78.34 74.4292 79.0167 74.8305 79.474C75.2412 79.9313 75.8339 80.16 76.6085 80.16C77.4299 80.16 78.1859 79.8847 78.8765 79.334L79.2545 80.16C78.9465 80.4493 78.5499 80.678 78.0645 80.846C77.5885 81.014 77.0985 81.098 76.5945 81.098C75.4932 81.098 74.6299 80.776 74.0045 80.132C73.3792 79.4787 73.0665 78.5873 73.0665 77.458C73.0665 76.7393 73.2065 76.1047 73.4865 75.554C73.7665 74.994 74.1585 74.56 74.6625 74.252C75.1665 73.944 75.7405 73.79 76.3845 73.79C77.3179 73.79 78.0505 74.098 78.5825 74.714C79.1145 75.3207 79.3805 76.1607 79.3805 77.234V77.444ZM76.3985 74.672C75.8105 74.672 75.3299 74.8493 74.9565 75.204C74.5925 75.5587 74.3592 76.058 74.2565 76.702H78.3585C78.3025 76.0393 78.1065 75.5353 77.7705 75.19C77.4439 74.8447 76.9865 74.672 76.3985 74.672ZM84.6158 73.79C85.2318 73.79 85.7778 73.944 86.2538 74.252C86.7298 74.56 87.0984 74.994 87.3598 75.554C87.6211 76.1047 87.7518 76.744 87.7518 77.472C87.7518 78.2 87.6211 78.8393 87.3598 79.39C87.0984 79.9313 86.7298 80.3513 86.2538 80.65C85.7871 80.9487 85.2411 81.098 84.6158 81.098C84.0651 81.098 83.5844 80.9767 83.1738 80.734C82.7631 80.4913 82.4504 80.146 82.2358 79.698V84.024H81.1018V75.932C81.1018 75.204 81.0644 74.546 80.9898 73.958H82.0678L82.1798 75.316C82.3758 74.8307 82.6838 74.4573 83.1038 74.196C83.5331 73.9253 84.0371 73.79 84.6158 73.79ZM84.4058 80.16C85.0964 80.16 85.6284 79.9267 86.0018 79.46C86.3844 78.9933 86.5758 78.3307 86.5758 77.472C86.5758 76.6133 86.3844 75.946 86.0018 75.47C85.6191 74.9847 85.0871 74.742 84.4058 74.742C83.7058 74.742 83.1691 74.9753 82.7958 75.442C82.4224 75.9087 82.2358 76.576 82.2358 77.444C82.2358 78.312 82.4224 78.984 82.7958 79.46C83.1691 79.9267 83.7058 80.16 84.4058 80.16ZM95.6983 73.958V81H94.5783V79.726C94.373 80.1647 94.0603 80.5053 93.6403 80.748C93.2296 80.9813 92.749 81.098 92.1983 81.098C91.573 81.098 91.0223 80.9487 90.5463 80.65C90.0796 80.3513 89.7156 79.9313 89.4543 79.39C89.2023 78.8393 89.0763 78.2 89.0763 77.472C89.0763 76.744 89.207 76.1047 89.4683 75.554C89.7296 74.994 90.0936 74.56 90.5603 74.252C91.0363 73.944 91.5823 73.79 92.1983 73.79C92.749 73.79 93.2296 73.9113 93.6403 74.154C94.051 74.3967 94.3636 74.7373 94.5783 75.176V73.958H95.6983ZM92.4223 80.16C93.113 80.16 93.645 79.9267 94.0183 79.46C94.3916 78.984 94.5783 78.312 94.5783 77.444C94.5783 76.576 94.3916 75.9087 94.0183 75.442C93.645 74.9753 93.113 74.742 92.4223 74.742C91.7316 74.742 91.1903 74.9847 90.7983 75.47C90.4156 75.946 90.2243 76.6133 90.2243 77.472C90.2243 78.3307 90.4156 78.9933 90.7983 79.46C91.181 79.9267 91.7223 80.16 92.4223 80.16ZM101.167 73.79C101.4 73.79 101.615 73.818 101.811 73.874L101.783 74.91C101.568 74.8353 101.321 74.798 101.041 74.798C100.359 74.798 99.8508 75.0127 99.5148 75.442C99.1882 75.862 99.0248 76.3753 99.0248 76.982V81H97.8908V75.932C97.8908 75.204 97.8535 74.546 97.7788 73.958H98.8568L98.9688 75.26C99.1462 74.784 99.4308 74.42 99.8228 74.168C100.215 73.916 100.663 73.79 101.167 73.79ZM105.022 74.854V78.704C105.022 79.2267 105.129 79.5953 105.344 79.81C105.559 80.0153 105.862 80.118 106.254 80.118C106.515 80.118 106.767 80.076 107.01 79.992V80.958C106.721 81.0513 106.394 81.098 106.03 81.098C105.358 81.098 104.831 80.9113 104.448 80.538C104.075 80.1553 103.888 79.5953 103.888 78.858V74.854H102.516V73.958H103.888V72.152L105.022 71.746V73.958H107.038V74.854H105.022ZM116.217 73.79C117.775 73.79 118.555 74.7187 118.555 76.576V81H117.421V76.632C117.421 75.9693 117.304 75.4887 117.071 75.19C116.847 74.8913 116.478 74.742 115.965 74.742C115.367 74.742 114.901 74.9427 114.565 75.344C114.229 75.7453 114.061 76.2913 114.061 76.982V81H112.927V76.632C112.927 75.9787 112.81 75.5027 112.577 75.204C112.343 74.896 111.97 74.742 111.457 74.742C110.859 74.742 110.388 74.9427 110.043 75.344C109.707 75.7453 109.539 76.2913 109.539 76.982V81H108.405V75.932C108.405 75.204 108.367 74.546 108.293 73.958H109.37L109.483 75.19C109.679 74.742 109.968 74.3967 110.351 74.154C110.743 73.9113 111.195 73.79 111.709 73.79C112.269 73.79 112.726 73.902 113.081 74.126C113.435 74.35 113.697 74.6953 113.865 75.162C114.079 74.742 114.392 74.4107 114.803 74.168C115.223 73.916 115.694 73.79 116.217 73.79ZM126.603 77.444H121.437C121.447 78.34 121.652 79.0167 122.053 79.474C122.464 79.9313 123.057 80.16 123.831 80.16C124.653 80.16 125.409 79.8847 126.099 79.334L126.477 80.16C126.169 80.4493 125.773 80.678 125.287 80.846C124.811 81.014 124.321 81.098 123.817 81.098C122.716 81.098 121.853 80.776 121.227 80.132C120.602 79.4787 120.289 78.5873 120.289 77.458C120.289 76.7393 120.429 76.1047 120.709 75.554C120.989 74.994 121.381 74.56 121.885 74.252C122.389 73.944 122.963 73.79 123.607 73.79C124.541 73.79 125.273 74.098 125.805 74.714C126.337 75.3207 126.603 76.1607 126.603 77.234V77.444ZM123.621 74.672C123.033 74.672 122.553 74.8493 122.179 75.204C121.815 75.5587 121.582 76.058 121.479 76.702H125.581C125.525 76.0393 125.329 75.5353 124.993 75.19C124.667 74.8447 124.209 74.672 123.621 74.672ZM131.838 73.79C133.528 73.79 134.372 74.7187 134.372 76.576V81H133.238V76.632C133.238 75.9787 133.108 75.5027 132.846 75.204C132.585 74.896 132.174 74.742 131.614 74.742C130.961 74.742 130.438 74.9427 130.046 75.344C129.654 75.7453 129.458 76.2867 129.458 76.968V81H128.324V75.932C128.324 75.204 128.287 74.546 128.212 73.958H129.29L129.402 75.218C129.617 74.7607 129.939 74.4107 130.368 74.168C130.798 73.916 131.288 73.79 131.838 73.79ZM138.026 74.854V78.704C138.026 79.2267 138.133 79.5953 138.348 79.81C138.563 80.0153 138.866 80.118 139.258 80.118C139.519 80.118 139.771 80.076 140.014 79.992V80.958C139.725 81.0513 139.398 81.098 139.034 81.098C138.362 81.098 137.835 80.9113 137.452 80.538C137.079 80.1553 136.892 79.5953 136.892 78.858V74.854H135.52V73.958H136.892V72.152L138.026 71.746V73.958H140.042V74.854H138.026Z" fill="#5B5151"/>
<circle cx="41" cy="64" r="15" fill="white"/>
<mask id="mask0" mask-type="alpha" maskUnits="userSpaceOnUse" x="26" y="49" width="30" height="30">
<circle cx="41" cy="64" r="15" fill="white"/>
</mask>
<g mask="url(#mask0)">
<path d="M46.3772 61.5393C46.3772 63.0615 45.8313 64.3792 44.7544 65.4562C43.6775 66.5331 42.3597 67.079 40.8375 67.079H40.8348C39.3145 67.0785 37.9976 66.5326 36.9207 65.4562C35.8436 64.3792 35.2979 63.0615 35.2979 61.5393C35.2979 60.0175 35.8436 58.6997 36.9207 57.6228C37.997 56.5463 39.314 56.0005 40.8348 56H40.8375C42.3592 56 43.677 56.5459 44.7544 57.6228C45.8313 58.6997 46.3772 60.0175 46.3772 61.5393Z" fill="#FFD589"/>
<path d="M50.5769 75.0444C50.5769 76.2454 50.1949 77.2177 49.4424 77.9338C48.6988 78.6415 47.7152 79 46.5194 79H35.4447C34.2488 79 33.2653 78.6415 32.5221 77.9338C31.7692 77.2172 31.3877 76.245 31.3877 75.0444C31.3877 74.5826 31.403 74.1256 31.4335 73.6862C31.4646 73.237 31.5274 72.7482 31.62 72.2324C31.7134 71.7125 31.8334 71.221 31.9771 70.7718C32.1263 70.3068 32.3281 69.8481 32.5778 69.4087C32.8371 68.9526 33.1418 68.5553 33.4832 68.2282C33.8412 67.8859 34.2788 67.6109 34.7847 67.4105C35.2889 67.2112 35.8478 67.1101 36.4458 67.1101C36.6804 67.1101 36.9076 67.2061 37.3456 67.4914C37.6197 67.6702 37.9356 67.8738 38.2843 68.0966C38.5854 68.2886 38.9932 68.4686 39.4973 68.6313C39.9404 68.7747 40.3901 68.8547 40.8345 68.8686C40.8834 68.8703 40.9324 68.8712 40.9813 68.8712C41.4748 68.8712 41.9738 68.7903 42.4659 68.6313C42.97 68.4686 43.3783 68.2886 43.6793 68.0966C44.0316 67.8715 44.3475 67.6681 44.6175 67.4919C45.0559 67.2061 45.2828 67.1101 45.5179 67.1101C46.1154 67.1101 46.6743 67.2112 47.1788 67.4105C47.6847 67.6109 48.1223 67.8864 48.4799 68.2282C48.8219 68.5553 49.1266 68.9526 49.3858 69.4087C49.6356 69.8484 49.8378 70.3068 49.9864 70.7712C50.1303 71.221 50.2507 71.7125 50.344 72.2328C50.4362 72.749 50.4991 73.2379 50.53 73.6859C50.5611 74.1239 50.5764 74.5808 50.5769 75.0444Z" fill="#D55A5F"/>
</g>
<path d="M50 133C50 121.954 58.9543 113 70 113H323C334.046 113 343 121.954 343 133V191H70C58.9543 191 50 182.046 50 171V133Z" fill="#FCFCFC"/>
<path d="M108.396 139.112C106.837 139.112 105.596 138.692 104.672 137.852L105.106 136.97C105.601 137.39 106.105 137.689 106.618 137.866C107.131 138.043 107.729 138.132 108.41 138.132C109.213 138.132 109.829 137.978 110.258 137.67C110.697 137.353 110.916 136.909 110.916 136.34C110.916 136.004 110.809 135.733 110.594 135.528C110.389 135.313 110.113 135.145 109.768 135.024C109.432 134.903 108.979 134.777 108.41 134.646C107.645 134.478 107.015 134.296 106.52 134.1C106.025 133.904 105.624 133.624 105.316 133.26C105.008 132.887 104.854 132.401 104.854 131.804C104.854 131.235 105.003 130.735 105.302 130.306C105.601 129.867 106.021 129.527 106.562 129.284C107.113 129.041 107.752 128.92 108.48 128.92C109.171 128.92 109.815 129.027 110.412 129.242C111.009 129.457 111.513 129.769 111.924 130.18L111.476 131.062C111.009 130.661 110.533 130.367 110.048 130.18C109.572 129.993 109.049 129.9 108.48 129.9C107.705 129.9 107.099 130.068 106.66 130.404C106.221 130.731 106.002 131.183 106.002 131.762C106.002 132.266 106.193 132.644 106.576 132.896C106.959 133.148 107.547 133.367 108.34 133.554C109.199 133.759 109.871 133.951 110.356 134.128C110.851 134.296 111.261 134.557 111.588 134.912C111.915 135.257 112.078 135.719 112.078 136.298C112.078 136.858 111.929 137.353 111.63 137.782C111.331 138.202 110.902 138.529 110.342 138.762C109.791 138.995 109.143 139.112 108.396 139.112ZM119.709 131.958V139H118.603V137.782C118.379 138.211 118.066 138.538 117.665 138.762C117.263 138.986 116.811 139.098 116.307 139.098C115.476 139.098 114.846 138.865 114.417 138.398C113.987 137.931 113.773 137.241 113.773 136.326V131.958H114.907V136.298C114.907 136.933 115.037 137.399 115.299 137.698C115.56 137.997 115.957 138.146 116.489 138.146C117.114 138.146 117.618 137.945 118.001 137.544C118.383 137.133 118.575 136.597 118.575 135.934V131.958H119.709ZM125.409 131.79C126.025 131.79 126.571 131.944 127.047 132.252C127.523 132.56 127.891 132.994 128.153 133.554C128.414 134.105 128.545 134.744 128.545 135.472C128.545 136.2 128.414 136.839 128.153 137.39C127.891 137.931 127.523 138.351 127.047 138.65C126.58 138.949 126.034 139.098 125.409 139.098C124.858 139.098 124.377 138.977 123.967 138.734C123.556 138.491 123.243 138.146 123.029 137.698V142.024H121.895V133.932C121.895 133.204 121.857 132.546 121.783 131.958H122.861L122.973 133.316C123.169 132.831 123.477 132.457 123.897 132.196C124.326 131.925 124.83 131.79 125.409 131.79ZM125.199 138.16C125.889 138.16 126.421 137.927 126.795 137.46C127.177 136.993 127.369 136.331 127.369 135.472C127.369 134.613 127.177 133.946 126.795 133.47C126.412 132.985 125.88 132.742 125.199 132.742C124.499 132.742 123.962 132.975 123.589 133.442C123.215 133.909 123.029 134.576 123.029 135.444C123.029 136.312 123.215 136.984 123.589 137.46C123.962 137.927 124.499 138.16 125.199 138.16ZM136.183 135.444H131.017C131.027 136.34 131.232 137.017 131.633 137.474C132.044 137.931 132.637 138.16 133.411 138.16C134.233 138.16 134.989 137.885 135.679 137.334L136.057 138.16C135.749 138.449 135.353 138.678 134.867 138.846C134.391 139.014 133.901 139.098 133.397 139.098C132.296 139.098 131.433 138.776 130.807 138.132C130.182 137.479 129.869 136.587 129.869 135.458C129.869 134.739 130.009 134.105 130.289 133.554C130.569 132.994 130.961 132.56 131.465 132.252C131.969 131.944 132.543 131.79 133.187 131.79C134.121 131.79 134.853 132.098 135.385 132.714C135.917 133.321 136.183 134.161 136.183 135.234V135.444ZM133.201 132.672C132.613 132.672 132.133 132.849 131.759 133.204C131.395 133.559 131.162 134.058 131.059 134.702H135.161C135.105 134.039 134.909 133.535 134.573 133.19C134.247 132.845 133.789 132.672 133.201 132.672ZM141.181 131.79C141.414 131.79 141.629 131.818 141.825 131.874L141.797 132.91C141.582 132.835 141.335 132.798 141.055 132.798C140.373 132.798 139.865 133.013 139.529 133.442C139.202 133.862 139.039 134.375 139.039 134.982V139H137.905V133.932C137.905 133.204 137.867 132.546 137.793 131.958H138.87L138.983 133.26C139.16 132.784 139.445 132.42 139.837 132.168C140.229 131.916 140.677 131.79 141.181 131.79ZM149.007 139.098C147.822 139.098 146.884 138.795 146.193 138.188L146.571 137.348C146.954 137.647 147.341 137.861 147.733 137.992C148.125 138.123 148.564 138.188 149.049 138.188C149.581 138.188 149.982 138.099 150.253 137.922C150.533 137.735 150.673 137.469 150.673 137.124C150.673 136.844 150.58 136.62 150.393 136.452C150.206 136.284 149.898 136.153 149.469 136.06L148.279 135.78C147.691 135.649 147.234 135.416 146.907 135.08C146.59 134.744 146.431 134.343 146.431 133.876C146.431 133.26 146.678 132.761 147.173 132.378C147.668 131.986 148.321 131.79 149.133 131.79C149.628 131.79 150.094 131.869 150.533 132.028C150.972 132.187 151.34 132.415 151.639 132.714L151.261 133.54C150.598 132.989 149.889 132.714 149.133 132.714C148.629 132.714 148.237 132.812 147.957 133.008C147.686 133.195 147.551 133.461 147.551 133.806C147.551 134.095 147.635 134.324 147.803 134.492C147.98 134.66 148.26 134.791 148.643 134.884L149.833 135.178C150.486 135.327 150.972 135.561 151.289 135.878C151.606 136.186 151.765 136.592 151.765 137.096C151.765 137.703 151.518 138.188 151.023 138.552C150.528 138.916 149.856 139.098 149.007 139.098ZM153.572 131.958H154.706V139H153.572V131.958ZM154.846 128.976V130.264H153.46V128.976H154.846ZM164.72 131.79C166.279 131.79 167.058 132.719 167.058 134.576V139H165.924V134.632C165.924 133.969 165.808 133.489 165.574 133.19C165.35 132.891 164.982 132.742 164.468 132.742C163.871 132.742 163.404 132.943 163.068 133.344C162.732 133.745 162.564 134.291 162.564 134.982V139H161.43V134.632C161.43 133.979 161.314 133.503 161.08 133.204C160.847 132.896 160.474 132.742 159.96 132.742C159.363 132.742 158.892 132.943 158.546 133.344C158.21 133.745 158.042 134.291 158.042 134.982V139H156.908V133.932C156.908 133.204 156.871 132.546 156.796 131.958H157.874L157.986 133.19C158.182 132.742 158.472 132.397 158.854 132.154C159.246 131.911 159.699 131.79 160.212 131.79C160.772 131.79 161.23 131.902 161.584 132.126C161.939 132.35 162.2 132.695 162.368 133.162C162.583 132.742 162.896 132.411 163.306 132.168C163.726 131.916 164.198 131.79 164.72 131.79ZM172.727 131.79C173.343 131.79 173.889 131.944 174.365 132.252C174.841 132.56 175.21 132.994 175.471 133.554C175.732 134.105 175.863 134.744 175.863 135.472C175.863 136.2 175.732 136.839 175.471 137.39C175.21 137.931 174.841 138.351 174.365 138.65C173.898 138.949 173.352 139.098 172.727 139.098C172.176 139.098 171.696 138.977 171.285 138.734C170.874 138.491 170.562 138.146 170.347 137.698V142.024H169.213V133.932C169.213 133.204 169.176 132.546 169.101 131.958H170.179L170.291 133.316C170.487 132.831 170.795 132.457 171.215 132.196C171.644 131.925 172.148 131.79 172.727 131.79ZM172.517 138.16C173.208 138.16 173.74 137.927 174.113 137.46C174.496 136.993 174.687 136.331 174.687 135.472C174.687 134.613 174.496 133.946 174.113 133.47C173.73 132.985 173.198 132.742 172.517 132.742C171.817 132.742 171.28 132.975 170.907 133.442C170.534 133.909 170.347 134.576 170.347 135.444C170.347 136.312 170.534 136.984 170.907 137.46C171.28 137.927 171.817 138.16 172.517 138.16ZM177.608 128.696H178.742V139H177.608V128.696ZM186.838 135.444H181.672C181.681 136.34 181.886 137.017 182.288 137.474C182.698 137.931 183.291 138.16 184.066 138.16C184.887 138.16 185.643 137.885 186.334 137.334L186.712 138.16C186.404 138.449 186.007 138.678 185.522 138.846C185.046 139.014 184.556 139.098 184.052 139.098C182.95 139.098 182.087 138.776 181.462 138.132C180.836 137.479 180.524 136.587 180.524 135.458C180.524 134.739 180.664 134.105 180.944 133.554C181.224 132.994 181.616 132.56 182.12 132.252C182.624 131.944 183.198 131.79 183.842 131.79C184.775 131.79 185.508 132.098 186.04 132.714C186.572 133.321 186.838 134.161 186.838 135.234V135.444ZM183.856 132.672C183.268 132.672 182.787 132.849 182.414 133.204C182.05 133.559 181.816 134.058 181.714 134.702H185.816C185.76 134.039 185.564 133.535 185.228 133.19C184.901 132.845 184.444 132.672 183.856 132.672ZM193.721 132.854V136.704C193.721 137.227 193.829 137.595 194.043 137.81C194.258 138.015 194.561 138.118 194.953 138.118C195.215 138.118 195.467 138.076 195.709 137.992V138.958C195.42 139.051 195.093 139.098 194.729 139.098C194.057 139.098 193.53 138.911 193.147 138.538C192.774 138.155 192.587 137.595 192.587 136.858V132.854H191.215V131.958H192.587V130.152L193.721 129.746V131.958H195.737V132.854H193.721ZM200.016 139.098C199.353 139.098 198.77 138.949 198.266 138.65C197.762 138.351 197.37 137.927 197.09 137.376C196.819 136.825 196.684 136.181 196.684 135.444C196.684 134.707 196.819 134.063 197.09 133.512C197.37 132.961 197.762 132.537 198.266 132.238C198.77 131.939 199.353 131.79 200.016 131.79C200.678 131.79 201.262 131.939 201.766 132.238C202.27 132.537 202.657 132.961 202.928 133.512C203.208 134.063 203.348 134.707 203.348 135.444C203.348 136.181 203.208 136.825 202.928 137.376C202.657 137.927 202.27 138.351 201.766 138.65C201.262 138.949 200.678 139.098 200.016 139.098ZM200.016 138.16C200.716 138.16 201.252 137.931 201.626 137.474C201.999 137.007 202.186 136.331 202.186 135.444C202.186 134.585 201.994 133.923 201.612 133.456C201.229 132.98 200.697 132.742 200.016 132.742C199.325 132.742 198.788 132.98 198.406 133.456C198.023 133.923 197.832 134.585 197.832 135.444C197.832 136.331 198.018 137.007 198.392 137.474C198.774 137.931 199.316 138.16 200.016 138.16ZM211.146 139.098C209.96 139.098 209.022 138.795 208.332 138.188L208.71 137.348C209.092 137.647 209.48 137.861 209.872 137.992C210.264 138.123 210.702 138.188 211.188 138.188C211.72 138.188 212.121 138.099 212.392 137.922C212.672 137.735 212.812 137.469 212.812 137.124C212.812 136.844 212.718 136.62 212.532 136.452C212.345 136.284 212.037 136.153 211.608 136.06L210.418 135.78C209.83 135.649 209.372 135.416 209.046 135.08C208.728 134.744 208.57 134.343 208.57 133.876C208.57 133.26 208.817 132.761 209.312 132.378C209.806 131.986 210.46 131.79 211.272 131.79C211.766 131.79 212.233 131.869 212.672 132.028C213.11 132.187 213.479 132.415 213.778 132.714L213.4 133.54C212.737 132.989 212.028 132.714 211.272 132.714C210.768 132.714 210.376 132.812 210.096 133.008C209.825 133.195 209.69 133.461 209.69 133.806C209.69 134.095 209.774 134.324 209.942 134.492C210.119 134.66 210.399 134.791 210.782 134.884L211.972 135.178C212.625 135.327 213.11 135.561 213.428 135.878C213.745 136.186 213.904 136.592 213.904 137.096C213.904 137.703 213.656 138.188 213.162 138.552C212.667 138.916 211.995 139.098 211.146 139.098ZM221.605 135.444H216.439C216.448 136.34 216.654 137.017 217.055 137.474C217.466 137.931 218.058 138.16 218.833 138.16C219.654 138.16 220.41 137.885 221.101 137.334L221.479 138.16C221.171 138.449 220.774 138.678 220.289 138.846C219.813 139.014 219.323 139.098 218.819 139.098C217.718 139.098 216.854 138.776 216.229 138.132C215.604 137.479 215.291 136.587 215.291 135.458C215.291 134.739 215.431 134.105 215.711 133.554C215.991 132.994 216.383 132.56 216.887 132.252C217.391 131.944 217.965 131.79 218.609 131.79C219.542 131.79 220.275 132.098 220.807 132.714C221.339 133.321 221.605 134.161 221.605 135.234V135.444ZM218.623 132.672C218.035 132.672 217.554 132.849 217.181 133.204C216.817 133.559 216.584 134.058 216.481 134.702H220.583C220.527 134.039 220.331 133.535 219.995 133.19C219.668 132.845 219.211 132.672 218.623 132.672ZM224.797 132.854V136.704C224.797 137.227 224.905 137.595 225.119 137.81C225.334 138.015 225.637 138.118 226.029 138.118C226.291 138.118 226.543 138.076 226.785 137.992V138.958C226.496 139.051 226.169 139.098 225.805 139.098C225.133 139.098 224.606 138.911 224.223 138.538C223.85 138.155 223.663 137.595 223.663 136.858V132.854H222.291V131.958H223.663V130.152L224.797 129.746V131.958H226.813V132.854H224.797ZM237.724 131.958V139H236.618V137.782C236.394 138.211 236.082 138.538 235.68 138.762C235.279 138.986 234.826 139.098 234.322 139.098C233.492 139.098 232.862 138.865 232.432 138.398C232.003 137.931 231.788 137.241 231.788 136.326V131.958H232.922V136.298C232.922 136.933 233.053 137.399 233.314 137.698C233.576 137.997 233.972 138.146 234.504 138.146C235.13 138.146 235.634 137.945 236.016 137.544C236.399 137.133 236.59 136.597 236.59 135.934V131.958H237.724ZM243.424 131.79C244.04 131.79 244.586 131.944 245.062 132.252C245.538 132.56 245.907 132.994 246.168 133.554C246.43 134.105 246.56 134.744 246.56 135.472C246.56 136.2 246.43 136.839 246.168 137.39C245.907 137.931 245.538 138.351 245.062 138.65C244.596 138.949 244.05 139.098 243.424 139.098C242.874 139.098 242.393 138.977 241.982 138.734C241.572 138.491 241.259 138.146 241.044 137.698V142.024H239.91V133.932C239.91 133.204 239.873 132.546 239.798 131.958H240.876L240.988 133.316C241.184 132.831 241.492 132.457 241.912 132.196C242.342 131.925 242.846 131.79 243.424 131.79ZM243.214 138.16C243.905 138.16 244.437 137.927 244.81 137.46C245.193 136.993 245.384 136.331 245.384 135.472C245.384 134.613 245.193 133.946 244.81 133.47C244.428 132.985 243.896 132.742 243.214 132.742C242.514 132.742 241.978 132.975 241.604 133.442C241.231 133.909 241.044 134.576 241.044 135.444C241.044 136.312 241.231 136.984 241.604 137.46C241.978 137.927 242.514 138.16 243.214 138.16ZM254.867 139.098C254.205 139.098 253.621 138.949 253.117 138.65C252.613 138.351 252.221 137.927 251.941 137.376C251.671 136.825 251.535 136.181 251.535 135.444C251.535 134.707 251.671 134.063 251.941 133.512C252.221 132.961 252.613 132.537 253.117 132.238C253.621 131.939 254.205 131.79 254.867 131.79C255.53 131.79 256.113 131.939 256.617 132.238C257.121 132.537 257.509 132.961 257.779 133.512C258.059 134.063 258.199 134.707 258.199 135.444C258.199 136.181 258.059 136.825 257.779 137.376C257.509 137.927 257.121 138.351 256.617 138.65C256.113 138.949 255.53 139.098 254.867 139.098ZM254.867 138.16C255.567 138.16 256.104 137.931 256.477 137.474C256.851 137.007 257.037 136.331 257.037 135.444C257.037 134.585 256.846 133.923 256.463 133.456C256.081 132.98 255.549 132.742 254.867 132.742C254.177 132.742 253.64 132.98 253.257 133.456C252.875 133.923 252.683 134.585 252.683 135.444C252.683 136.331 252.87 137.007 253.243 137.474C253.626 137.931 254.167 138.16 254.867 138.16ZM263.481 131.79C265.17 131.79 266.015 132.719 266.015 134.576V139H264.881V134.632C264.881 133.979 264.75 133.503 264.489 133.204C264.228 132.896 263.817 132.742 263.257 132.742C262.604 132.742 262.081 132.943 261.689 133.344C261.297 133.745 261.101 134.287 261.101 134.968V139H259.967V133.932C259.967 133.204 259.93 132.546 259.855 131.958H260.933L261.045 133.218C261.26 132.761 261.582 132.411 262.011 132.168C262.44 131.916 262.93 131.79 263.481 131.79ZM273.319 132.854V136.704C273.319 137.227 273.426 137.595 273.641 137.81C273.856 138.015 274.159 138.118 274.551 138.118C274.812 138.118 275.064 138.076 275.307 137.992V138.958C275.018 139.051 274.691 139.098 274.327 139.098C273.655 139.098 273.128 138.911 272.745 138.538C272.372 138.155 272.185 137.595 272.185 136.858V132.854H270.813V131.958H272.185V130.152L273.319 129.746V131.958H275.335V132.854H273.319ZM280.215 131.79C281.905 131.79 282.749 132.719 282.749 134.576V139H281.615V134.632C281.615 133.979 281.485 133.503 281.223 133.204C280.962 132.896 280.551 132.742 279.991 132.742C279.338 132.742 278.815 132.943 278.423 133.344C278.031 133.745 277.835 134.287 277.835 134.968V139H276.701V128.696H277.835V133.106C278.059 132.677 278.377 132.35 278.787 132.126C279.207 131.902 279.683 131.79 280.215 131.79ZM290.785 135.444H285.619C285.628 136.34 285.833 137.017 286.235 137.474C286.645 137.931 287.238 138.16 288.013 138.16C288.834 138.16 289.59 137.885 290.281 137.334L290.659 138.16C290.351 138.449 289.954 138.678 289.469 138.846C288.993 139.014 288.503 139.098 287.999 139.098C286.897 139.098 286.034 138.776 285.409 138.132C284.783 137.479 284.471 136.587 284.471 135.458C284.471 134.739 284.611 134.105 284.891 133.554C285.171 132.994 285.563 132.56 286.067 132.252C286.571 131.944 287.145 131.79 287.789 131.79C288.722 131.79 289.455 132.098 289.987 132.714C290.519 133.321 290.785 134.161 290.785 135.234V135.444ZM287.803 132.672C287.215 132.672 286.734 132.849 286.361 133.204C285.997 133.559 285.763 134.058 285.661 134.702H289.763C289.707 134.039 289.511 133.535 289.175 133.19C288.848 132.845 288.391 132.672 287.803 132.672ZM111.294 146.696V157H110.174V155.726C109.969 156.165 109.656 156.505 109.236 156.748C108.825 156.981 108.345 157.098 107.794 157.098C107.178 157.098 106.632 156.944 106.156 156.636C105.689 156.328 105.325 155.899 105.064 155.348C104.803 154.788 104.672 154.144 104.672 153.416C104.672 152.688 104.798 152.053 105.05 151.512C105.311 150.961 105.68 150.537 106.156 150.238C106.632 149.939 107.178 149.79 107.794 149.79C108.345 149.79 108.825 149.911 109.236 150.154C109.647 150.387 109.955 150.719 110.16 151.148V146.696H111.294ZM108.018 156.16C108.709 156.16 109.241 155.927 109.614 155.46C109.987 154.984 110.174 154.312 110.174 153.444C110.174 152.585 109.987 151.923 109.614 151.456C109.241 150.98 108.709 150.742 108.018 150.742C107.327 150.742 106.786 150.975 106.394 151.442C106.011 151.909 105.82 152.567 105.82 153.416C105.82 154.284 106.011 154.961 106.394 155.446C106.786 155.922 107.327 156.16 108.018 156.16ZM116.399 157.098C115.736 157.098 115.153 156.949 114.649 156.65C114.145 156.351 113.753 155.927 113.473 155.376C113.202 154.825 113.067 154.181 113.067 153.444C113.067 152.707 113.202 152.063 113.473 151.512C113.753 150.961 114.145 150.537 114.649 150.238C115.153 149.939 115.736 149.79 116.399 149.79C117.061 149.79 117.645 149.939 118.149 150.238C118.653 150.537 119.04 150.961 119.311 151.512C119.591 152.063 119.731 152.707 119.731 153.444C119.731 154.181 119.591 154.825 119.311 155.376C119.04 155.927 118.653 156.351 118.149 156.65C117.645 156.949 117.061 157.098 116.399 157.098ZM116.399 156.16C117.099 156.16 117.635 155.931 118.009 155.474C118.382 155.007 118.569 154.331 118.569 153.444C118.569 152.585 118.377 151.923 117.995 151.456C117.612 150.98 117.08 150.742 116.399 150.742C115.708 150.742 115.171 150.98 114.789 151.456C114.406 151.923 114.215 152.585 114.215 153.444C114.215 154.331 114.401 155.007 114.775 155.474C115.157 155.931 115.699 156.16 116.399 156.16ZM129.31 149.79C130.869 149.79 131.648 150.719 131.648 152.576V157H130.514V152.632C130.514 151.969 130.398 151.489 130.164 151.19C129.94 150.891 129.572 150.742 129.058 150.742C128.461 150.742 127.994 150.943 127.658 151.344C127.322 151.745 127.154 152.291 127.154 152.982V157H126.02V152.632C126.02 151.979 125.904 151.503 125.67 151.204C125.437 150.896 125.064 150.742 124.55 150.742C123.953 150.742 123.482 150.943 123.136 151.344C122.8 151.745 122.632 152.291 122.632 152.982V157H121.498V151.932C121.498 151.204 121.461 150.546 121.386 149.958H122.464L122.576 151.19C122.772 150.742 123.062 150.397 123.444 150.154C123.836 149.911 124.289 149.79 124.802 149.79C125.362 149.79 125.82 149.902 126.174 150.126C126.529 150.35 126.79 150.695 126.958 151.162C127.173 150.742 127.486 150.411 127.896 150.168C128.316 149.916 128.788 149.79 129.31 149.79ZM140.005 149.958V157H138.885V155.726C138.68 156.165 138.367 156.505 137.947 156.748C137.536 156.981 137.056 157.098 136.505 157.098C135.88 157.098 135.329 156.949 134.853 156.65C134.386 156.351 134.022 155.931 133.761 155.39C133.509 154.839 133.383 154.2 133.383 153.472C133.383 152.744 133.514 152.105 133.775 151.554C134.036 150.994 134.4 150.56 134.867 150.252C135.343 149.944 135.889 149.79 136.505 149.79C137.056 149.79 137.536 149.911 137.947 150.154C138.358 150.397 138.67 150.737 138.885 151.176V149.958H140.005ZM136.729 156.16C137.42 156.16 137.952 155.927 138.325 155.46C138.698 154.984 138.885 154.312 138.885 153.444C138.885 152.576 138.698 151.909 138.325 151.442C137.952 150.975 137.42 150.742 136.729 150.742C136.038 150.742 135.497 150.985 135.105 151.47C134.722 151.946 134.531 152.613 134.531 153.472C134.531 154.331 134.722 154.993 135.105 155.46C135.488 155.927 136.029 156.16 136.729 156.16ZM142.197 149.958H143.331V157H142.197V149.958ZM143.471 146.976V148.264H142.085V146.976H143.471ZM149.047 149.79C150.737 149.79 151.581 150.719 151.581 152.576V157H150.447V152.632C150.447 151.979 150.317 151.503 150.055 151.204C149.794 150.896 149.383 150.742 148.823 150.742C148.17 150.742 147.647 150.943 147.255 151.344C146.863 151.745 146.667 152.287 146.667 152.968V157H145.533V151.932C145.533 151.204 145.496 150.546 145.421 149.958H146.499L146.611 151.218C146.826 150.761 147.148 150.411 147.577 150.168C148.007 149.916 148.497 149.79 149.047 149.79ZM160.285 157.098C159.623 157.098 159.039 156.949 158.535 156.65C158.031 156.351 157.639 155.927 157.359 155.376C157.089 154.825 156.953 154.181 156.953 153.444C156.953 152.707 157.089 152.063 157.359 151.512C157.639 150.961 158.031 150.537 158.535 150.238C159.039 149.939 159.623 149.79 160.285 149.79C160.948 149.79 161.531 149.939 162.035 150.238C162.539 150.537 162.927 150.961 163.197 151.512C163.477 152.063 163.617 152.707 163.617 153.444C163.617 154.181 163.477 154.825 163.197 155.376C162.927 155.927 162.539 156.351 162.035 156.65C161.531 156.949 160.948 157.098 160.285 157.098ZM160.285 156.16C160.985 156.16 161.522 155.931 161.895 155.474C162.269 155.007 162.455 154.331 162.455 153.444C162.455 152.585 162.264 151.923 161.881 151.456C161.499 150.98 160.967 150.742 160.285 150.742C159.595 150.742 159.058 150.98 158.675 151.456C158.293 151.923 158.101 152.585 158.101 153.444C158.101 154.331 158.288 155.007 158.661 155.474C159.044 155.931 159.585 156.16 160.285 156.16ZM168.073 147.62C167.7 147.62 167.406 147.727 167.191 147.942C166.986 148.147 166.883 148.507 166.883 149.02V149.958H168.605V150.854H166.883V157H165.749V150.854H164.377V149.958H165.749V148.88C165.749 148.143 165.931 147.587 166.295 147.214C166.669 146.831 167.187 146.64 167.849 146.64C168.176 146.64 168.493 146.682 168.801 146.766V147.732C168.54 147.657 168.297 147.62 168.073 147.62ZM179.926 149.958L176.636 157.644C176.291 158.447 175.857 159.035 175.334 159.408C174.812 159.781 174.168 160.038 173.402 160.178L173.164 159.296C173.827 159.147 174.326 158.946 174.662 158.694C175.008 158.451 175.292 158.073 175.516 157.56L175.796 156.93L172.814 149.958H174.004L176.384 155.768L178.792 149.958H179.926ZM184.006 157.098C183.343 157.098 182.76 156.949 182.256 156.65C181.752 156.351 181.36 155.927 181.08 155.376C180.809 154.825 180.674 154.181 180.674 153.444C180.674 152.707 180.809 152.063 181.08 151.512C181.36 150.961 181.752 150.537 182.256 150.238C182.76 149.939 183.343 149.79 184.006 149.79C184.669 149.79 185.252 149.939 185.756 150.238C186.26 150.537 186.647 150.961 186.918 151.512C187.198 152.063 187.338 152.707 187.338 153.444C187.338 154.181 187.198 154.825 186.918 155.376C186.647 155.927 186.26 156.351 185.756 156.65C185.252 156.949 184.669 157.098 184.006 157.098ZM184.006 156.16C184.706 156.16 185.243 155.931 185.616 155.474C185.989 155.007 186.176 154.331 186.176 153.444C186.176 152.585 185.985 151.923 185.602 151.456C185.219 150.98 184.687 150.742 184.006 150.742C183.315 150.742 182.779 150.98 182.396 151.456C182.013 151.923 181.822 152.585 181.822 153.444C181.822 154.331 182.009 155.007 182.382 155.474C182.765 155.931 183.306 156.16 184.006 156.16ZM195 149.958V157H193.894V155.782C193.67 156.211 193.357 156.538 192.956 156.762C192.554 156.986 192.102 157.098 191.598 157.098C190.767 157.098 190.137 156.865 189.708 156.398C189.278 155.931 189.064 155.241 189.064 154.326V149.958H190.198V154.298C190.198 154.933 190.328 155.399 190.59 155.698C190.851 155.997 191.248 156.146 191.78 156.146C192.405 156.146 192.909 155.945 193.292 155.544C193.674 155.133 193.866 154.597 193.866 153.934V149.958H195ZM200.462 149.79C200.695 149.79 200.91 149.818 201.106 149.874L201.078 150.91C200.863 150.835 200.616 150.798 200.336 150.798C199.654 150.798 199.146 151.013 198.81 151.442C198.483 151.862 198.32 152.375 198.32 152.982V157H197.186V151.932C197.186 151.204 197.148 150.546 197.074 149.958H198.152L198.264 151.26C198.441 150.784 198.726 150.42 199.118 150.168C199.51 149.916 199.958 149.79 200.462 149.79ZM208.862 157.098C208.181 157.098 207.584 156.949 207.07 156.65C206.566 156.351 206.174 155.931 205.894 155.39C205.624 154.839 205.488 154.2 205.488 153.472C205.488 152.744 205.628 152.105 205.908 151.554C206.188 150.994 206.585 150.56 207.098 150.252C207.621 149.944 208.228 149.79 208.918 149.79C209.394 149.79 209.852 149.874 210.29 150.042C210.738 150.201 211.107 150.425 211.396 150.714L211.018 151.554C210.664 151.274 210.318 151.069 209.982 150.938C209.656 150.807 209.32 150.742 208.974 150.742C208.256 150.742 207.691 150.985 207.28 151.47C206.87 151.946 206.664 152.613 206.664 153.472C206.664 154.321 206.865 154.984 207.266 155.46C207.677 155.927 208.246 156.16 208.974 156.16C209.32 156.16 209.656 156.095 209.982 155.964C210.318 155.833 210.664 155.628 211.018 155.348L211.396 156.188C211.098 156.468 210.72 156.692 210.262 156.86C209.814 157.019 209.348 157.098 208.862 157.098ZM218.734 149.958V157H217.628V155.782C217.404 156.211 217.091 156.538 216.69 156.762C216.289 156.986 215.836 157.098 215.332 157.098C214.501 157.098 213.871 156.865 213.442 156.398C213.013 155.931 212.798 155.241 212.798 154.326V149.958H213.932V154.298C213.932 154.933 214.063 155.399 214.324 155.698C214.585 155.997 214.982 156.146 215.514 156.146C216.139 156.146 216.643 155.945 217.026 155.544C217.409 155.133 217.6 154.597 217.6 153.934V149.958H218.734ZM223.3 157.098C222.115 157.098 221.177 156.795 220.486 156.188L220.864 155.348C221.247 155.647 221.634 155.861 222.026 155.992C222.418 156.123 222.857 156.188 223.342 156.188C223.874 156.188 224.275 156.099 224.546 155.922C224.826 155.735 224.966 155.469 224.966 155.124C224.966 154.844 224.873 154.62 224.686 154.452C224.499 154.284 224.191 154.153 223.762 154.06L222.572 153.78C221.984 153.649 221.527 153.416 221.2 153.08C220.883 152.744 220.724 152.343 220.724 151.876C220.724 151.26 220.971 150.761 221.466 150.378C221.961 149.986 222.614 149.79 223.426 149.79C223.921 149.79 224.387 149.869 224.826 150.028C225.265 150.187 225.633 150.415 225.932 150.714L225.554 151.54C224.891 150.989 224.182 150.714 223.426 150.714C222.922 150.714 222.53 150.812 222.25 151.008C221.979 151.195 221.844 151.461 221.844 151.806C221.844 152.095 221.928 152.324 222.096 152.492C222.273 152.66 222.553 152.791 222.936 152.884L224.126 153.178C224.779 153.327 225.265 153.561 225.582 153.878C225.899 154.186 226.058 154.592 226.058 155.096C226.058 155.703 225.811 156.188 225.316 156.552C224.821 156.916 224.149 157.098 223.3 157.098ZM229.309 150.854V154.704C229.309 155.227 229.416 155.595 229.631 155.81C229.846 156.015 230.149 156.118 230.541 156.118C230.802 156.118 231.054 156.076 231.297 155.992V156.958C231.008 157.051 230.681 157.098 230.317 157.098C229.645 157.098 229.118 156.911 228.735 156.538C228.362 156.155 228.175 155.595 228.175 154.858V150.854H226.803V149.958H228.175V148.152L229.309 147.746V149.958H231.325V150.854H229.309ZM235.604 157.098C234.941 157.098 234.358 156.949 233.854 156.65C233.35 156.351 232.958 155.927 232.678 155.376C232.407 154.825 232.272 154.181 232.272 153.444C232.272 152.707 232.407 152.063 232.678 151.512C232.958 150.961 233.35 150.537 233.854 150.238C234.358 149.939 234.941 149.79 235.604 149.79C236.266 149.79 236.85 149.939 237.354 150.238C237.858 150.537 238.245 150.961 238.516 151.512C238.796 152.063 238.936 152.707 238.936 153.444C238.936 154.181 238.796 154.825 238.516 155.376C238.245 155.927 237.858 156.351 237.354 156.65C236.85 156.949 236.266 157.098 235.604 157.098ZM235.604 156.16C236.304 156.16 236.84 155.931 237.214 155.474C237.587 155.007 237.774 154.331 237.774 153.444C237.774 152.585 237.582 151.923 237.2 151.456C236.817 150.98 236.285 150.742 235.604 150.742C234.913 150.742 234.376 150.98 233.994 151.456C233.611 151.923 233.42 152.585 233.42 153.444C233.42 154.331 233.606 155.007 233.98 155.474C234.362 155.931 234.904 156.16 235.604 156.16ZM248.515 149.79C250.074 149.79 250.853 150.719 250.853 152.576V157H249.719V152.632C249.719 151.969 249.603 151.489 249.369 151.19C249.145 150.891 248.777 150.742 248.263 150.742C247.666 150.742 247.199 150.943 246.863 151.344C246.527 151.745 246.359 152.291 246.359 152.982V157H245.225V152.632C245.225 151.979 245.109 151.503 244.875 151.204C244.642 150.896 244.269 150.742 243.755 150.742C243.158 150.742 242.687 150.943 242.341 151.344C242.005 151.745 241.837 152.291 241.837 152.982V157H240.703V151.932C240.703 151.204 240.666 150.546 240.591 149.958H241.669L241.781 151.19C241.977 150.742 242.267 150.397 242.649 150.154C243.041 149.911 243.494 149.79 244.007 149.79C244.567 149.79 245.025 149.902 245.379 150.126C245.734 150.35 245.995 150.695 246.163 151.162C246.378 150.742 246.691 150.411 247.101 150.168C247.521 149.916 247.993 149.79 248.515 149.79ZM258.902 153.444H253.736C253.745 154.34 253.951 155.017 254.352 155.474C254.763 155.931 255.355 156.16 256.13 156.16C256.951 156.16 257.707 155.885 258.398 155.334L258.776 156.16C258.468 156.449 258.071 156.678 257.586 156.846C257.11 157.014 256.62 157.098 256.116 157.098C255.015 157.098 254.151 156.776 253.526 156.132C252.901 155.479 252.588 154.587 252.588 153.458C252.588 152.739 252.728 152.105 253.008 151.554C253.288 150.994 253.68 150.56 254.184 150.252C254.688 149.944 255.262 149.79 255.906 149.79C256.839 149.79 257.572 150.098 258.104 150.714C258.636 151.321 258.902 152.161 258.902 153.234V153.444ZM255.92 150.672C255.332 150.672 254.851 150.849 254.478 151.204C254.114 151.559 253.881 152.058 253.778 152.702H257.88C257.824 152.039 257.628 151.535 257.292 151.19C256.965 150.845 256.508 150.672 255.92 150.672ZM263.899 149.79C264.133 149.79 264.347 149.818 264.543 149.874L264.515 150.91C264.301 150.835 264.053 150.798 263.773 150.798C263.092 150.798 262.583 151.013 262.247 151.442C261.921 151.862 261.757 152.375 261.757 152.982V157H260.623V151.932C260.623 151.204 260.586 150.546 260.511 149.958H261.589L261.701 151.26C261.879 150.784 262.163 150.42 262.555 150.168C262.947 149.916 263.395 149.79 263.899 149.79ZM268.007 157.098C266.822 157.098 265.884 156.795 265.193 156.188L265.571 155.348C265.954 155.647 266.341 155.861 266.733 155.992C267.125 156.123 267.564 156.188 268.049 156.188C268.581 156.188 268.982 156.099 269.253 155.922C269.533 155.735 269.673 155.469 269.673 155.124C269.673 154.844 269.58 154.62 269.393 154.452C269.206 154.284 268.898 154.153 268.469 154.06L267.279 153.78C266.691 153.649 266.234 153.416 265.907 153.08C265.59 152.744 265.431 152.343 265.431 151.876C265.431 151.26 265.678 150.761 266.173 150.378C266.668 149.986 267.321 149.79 268.133 149.79C268.628 149.79 269.094 149.869 269.533 150.028C269.972 150.187 270.34 150.415 270.639 150.714L270.261 151.54C269.598 150.989 268.889 150.714 268.133 150.714C267.629 150.714 267.237 150.812 266.957 151.008C266.686 151.195 266.551 151.461 266.551 151.806C266.551 152.095 266.635 152.324 266.803 152.492C266.98 152.66 267.26 152.791 267.643 152.884L268.833 153.178C269.486 153.327 269.972 153.561 270.289 153.878C270.606 154.186 270.765 154.592 270.765 155.096C270.765 155.703 270.518 156.188 270.023 156.552C269.528 156.916 268.856 157.098 268.007 157.098ZM286.919 149.958L284.315 157H283.223L281.207 151.498L279.205 157H278.113L275.509 149.958H276.699L278.687 155.642L280.745 149.958H281.739L283.769 155.656L285.799 149.958H286.919ZM288.391 149.958H289.525V157H288.391V149.958ZM289.665 146.976V148.264H288.279V146.976H289.665ZM293.239 150.854V154.704C293.239 155.227 293.346 155.595 293.561 155.81C293.775 156.015 294.079 156.118 294.471 156.118C294.732 156.118 294.984 156.076 295.227 155.992V156.958C294.937 157.051 294.611 157.098 294.247 157.098C293.575 157.098 293.047 156.911 292.665 156.538C292.291 156.155 292.105 155.595 292.105 154.858V150.854H290.733V149.958H292.105V148.152L293.239 147.746V149.958H295.255V150.854H293.239ZM300.135 149.79C301.825 149.79 302.669 150.719 302.669 152.576V157H301.535V152.632C301.535 151.979 301.405 151.503 301.143 151.204C300.882 150.896 300.471 150.742 299.911 150.742C299.258 150.742 298.735 150.943 298.343 151.344C297.951 151.745 297.755 152.287 297.755 152.968V157H296.621V146.696H297.755V151.106C297.979 150.677 298.297 150.35 298.707 150.126C299.127 149.902 299.603 149.79 300.135 149.79ZM106.604 168.854V172.704C106.604 173.227 106.711 173.595 106.926 173.81C107.141 174.015 107.444 174.118 107.836 174.118C108.097 174.118 108.349 174.076 108.592 173.992V174.958C108.303 175.051 107.976 175.098 107.612 175.098C106.94 175.098 106.413 174.911 106.03 174.538C105.657 174.155 105.47 173.595 105.47 172.858V168.854H104.098V167.958H105.47V166.152L106.604 165.746V167.958H108.62V168.854H106.604ZM113.501 167.79C115.19 167.79 116.035 168.719 116.035 170.576V175H114.901V170.632C114.901 169.979 114.77 169.503 114.509 169.204C114.247 168.896 113.837 168.742 113.277 168.742C112.623 168.742 112.101 168.943 111.709 169.344C111.317 169.745 111.121 170.287 111.121 170.968V175H109.987V164.696H111.121V169.106C111.345 168.677 111.662 168.35 112.073 168.126C112.493 167.902 112.969 167.79 113.501 167.79ZM124.07 171.444H118.904C118.913 172.34 119.119 173.017 119.52 173.474C119.931 173.931 120.523 174.16 121.298 174.16C122.119 174.16 122.875 173.885 123.566 173.334L123.944 174.16C123.636 174.449 123.239 174.678 122.754 174.846C122.278 175.014 121.788 175.098 121.284 175.098C120.183 175.098 119.319 174.776 118.694 174.132C118.069 173.479 117.756 172.587 117.756 171.458C117.756 170.739 117.896 170.105 118.176 169.554C118.456 168.994 118.848 168.56 119.352 168.252C119.856 167.944 120.43 167.79 121.074 167.79C122.007 167.79 122.74 168.098 123.272 168.714C123.804 169.321 124.07 170.161 124.07 171.234V171.444ZM121.088 168.672C120.5 168.672 120.019 168.849 119.646 169.204C119.282 169.559 119.049 170.058 118.946 170.702H123.048C122.992 170.039 122.796 169.535 122.46 169.19C122.133 168.845 121.676 168.672 121.088 168.672ZM125.791 167.958H126.925V175H125.791V167.958ZM127.065 164.976V166.264H125.679V164.976H127.065ZM132.403 167.79C132.636 167.79 132.851 167.818 133.047 167.874L133.019 168.91C132.804 168.835 132.557 168.798 132.277 168.798C131.596 168.798 131.087 169.013 130.751 169.442C130.424 169.862 130.261 170.375 130.261 170.982V175H129.127V169.932C129.127 169.204 129.09 168.546 129.015 167.958H130.093L130.205 169.26C130.382 168.784 130.667 168.42 131.059 168.168C131.451 167.916 131.899 167.79 132.403 167.79ZM141.364 167.79C141.98 167.79 142.526 167.944 143.002 168.252C143.478 168.56 143.846 168.994 144.108 169.554C144.369 170.105 144.5 170.744 144.5 171.472C144.5 172.2 144.369 172.839 144.108 173.39C143.846 173.931 143.478 174.351 143.002 174.65C142.535 174.949 141.989 175.098 141.364 175.098C140.813 175.098 140.332 174.977 139.922 174.734C139.511 174.491 139.198 174.146 138.984 173.698V178.024H137.85V169.932C137.85 169.204 137.812 168.546 137.738 167.958H138.816L138.928 169.316C139.124 168.831 139.432 168.457 139.852 168.196C140.281 167.925 140.785 167.79 141.364 167.79ZM141.154 174.16C141.844 174.16 142.376 173.927 142.75 173.46C143.132 172.993 143.324 172.331 143.324 171.472C143.324 170.613 143.132 169.946 142.75 169.47C142.367 168.985 141.835 168.742 141.154 168.742C140.454 168.742 139.917 168.975 139.544 169.442C139.17 169.909 138.984 170.576 138.984 171.444C138.984 172.312 139.17 172.984 139.544 173.46C139.917 173.927 140.454 174.16 141.154 174.16ZM152.446 167.958V175H151.326V173.726C151.121 174.165 150.808 174.505 150.388 174.748C149.978 174.981 149.497 175.098 148.946 175.098C148.321 175.098 147.77 174.949 147.294 174.65C146.828 174.351 146.464 173.931 146.202 173.39C145.95 172.839 145.824 172.2 145.824 171.472C145.824 170.744 145.955 170.105 146.216 169.554C146.478 168.994 146.842 168.56 147.308 168.252C147.784 167.944 148.33 167.79 148.946 167.79C149.497 167.79 149.978 167.911 150.388 168.154C150.799 168.397 151.112 168.737 151.326 169.176V167.958H152.446ZM149.17 174.16C149.861 174.16 150.393 173.927 150.766 173.46C151.14 172.984 151.326 172.312 151.326 171.444C151.326 170.576 151.14 169.909 150.766 169.442C150.393 168.975 149.861 168.742 149.17 168.742C148.48 168.742 147.938 168.985 147.546 169.47C147.164 169.946 146.972 170.613 146.972 171.472C146.972 172.331 147.164 172.993 147.546 173.46C147.929 173.927 148.47 174.16 149.17 174.16ZM160.911 167.958V174.944C160.911 175.989 160.64 176.778 160.099 177.31C159.567 177.851 158.778 178.122 157.733 178.122C156.66 178.122 155.736 177.879 154.961 177.394L155.157 176.47C155.605 176.722 156.025 176.904 156.417 177.016C156.818 177.128 157.257 177.184 157.733 177.184C158.414 177.184 158.928 177.002 159.273 176.638C159.618 176.283 159.791 175.751 159.791 175.042V173.376C159.576 173.824 159.259 174.174 158.839 174.426C158.428 174.669 157.938 174.79 157.369 174.79C156.753 174.79 156.202 174.645 155.717 174.356C155.241 174.067 154.872 173.656 154.611 173.124C154.35 172.592 154.219 171.981 154.219 171.29C154.219 170.599 154.35 169.988 154.611 169.456C154.872 168.924 155.241 168.513 155.717 168.224C156.202 167.935 156.753 167.79 157.369 167.79C157.929 167.79 158.414 167.911 158.825 168.154C159.245 168.397 159.562 168.737 159.777 169.176V167.958H160.911ZM157.593 173.838C158.274 173.838 158.806 173.614 159.189 173.166C159.581 172.709 159.777 172.083 159.777 171.29C159.777 170.497 159.581 169.876 159.189 169.428C158.806 168.971 158.274 168.742 157.593 168.742C156.902 168.742 156.356 168.971 155.955 169.428C155.563 169.876 155.367 170.497 155.367 171.29C155.367 172.083 155.563 172.709 155.955 173.166C156.356 173.614 156.902 173.838 157.593 173.838ZM168.982 171.444H163.816C163.825 172.34 164.031 173.017 164.432 173.474C164.843 173.931 165.435 174.16 166.21 174.16C167.031 174.16 167.787 173.885 168.478 173.334L168.856 174.16C168.548 174.449 168.151 174.678 167.666 174.846C167.19 175.014 166.7 175.098 166.196 175.098C165.095 175.098 164.231 174.776 163.606 174.132C162.981 173.479 162.668 172.587 162.668 171.458C162.668 170.739 162.808 170.105 163.088 169.554C163.368 168.994 163.76 168.56 164.264 168.252C164.768 167.944 165.342 167.79 165.986 167.79C166.919 167.79 167.652 168.098 168.184 168.714C168.716 169.321 168.982 170.161 168.982 171.234V171.444ZM166 168.672C165.412 168.672 164.931 168.849 164.558 169.204C164.194 169.559 163.961 170.058 163.858 170.702H167.96C167.904 170.039 167.708 169.535 167.372 169.19C167.045 168.845 166.588 168.672 166 168.672ZM175.866 168.854V172.704C175.866 173.227 175.973 173.595 176.188 173.81C176.402 174.015 176.706 174.118 177.098 174.118C177.359 174.118 177.611 174.076 177.854 173.992V174.958C177.564 175.051 177.238 175.098 176.874 175.098C176.202 175.098 175.674 174.911 175.292 174.538C174.918 174.155 174.732 173.595 174.732 172.858V168.854H173.36V167.958H174.732V166.152L175.866 165.746V167.958H177.882V168.854H175.866ZM185.142 171.444H179.976C179.986 172.34 180.191 173.017 180.592 173.474C181.003 173.931 181.596 174.16 182.37 174.16C183.192 174.16 183.948 173.885 184.638 173.334L185.016 174.16C184.708 174.449 184.312 174.678 183.826 174.846C183.35 175.014 182.86 175.098 182.356 175.098C181.255 175.098 180.392 174.776 179.766 174.132C179.141 173.479 178.828 172.587 178.828 171.458C178.828 170.739 178.968 170.105 179.248 169.554C179.528 168.994 179.92 168.56 180.424 168.252C180.928 167.944 181.502 167.79 182.146 167.79C183.08 167.79 183.812 168.098 184.344 168.714C184.876 169.321 185.142 170.161 185.142 171.234V171.444ZM182.16 168.672C181.572 168.672 181.092 168.849 180.718 169.204C180.354 169.559 180.121 170.058 180.018 170.702H184.12C184.064 170.039 183.868 169.535 183.532 169.19C183.206 168.845 182.748 168.672 182.16 168.672ZM194.675 167.79C196.234 167.79 197.013 168.719 197.013 170.576V175H195.879V170.632C195.879 169.969 195.763 169.489 195.529 169.19C195.305 168.891 194.937 168.742 194.423 168.742C193.826 168.742 193.359 168.943 193.023 169.344C192.687 169.745 192.519 170.291 192.519 170.982V175H191.385V170.632C191.385 169.979 191.269 169.503 191.035 169.204C190.802 168.896 190.429 168.742 189.915 168.742C189.318 168.742 188.847 168.943 188.501 169.344C188.165 169.745 187.997 170.291 187.997 170.982V175H186.863V169.932C186.863 169.204 186.826 168.546 186.751 167.958H187.829L187.941 169.19C188.137 168.742 188.427 168.397 188.809 168.154C189.201 167.911 189.654 167.79 190.167 167.79C190.727 167.79 191.185 167.902 191.539 168.126C191.894 168.35 192.155 168.695 192.323 169.162C192.538 168.742 192.851 168.411 193.261 168.168C193.681 167.916 194.153 167.79 194.675 167.79ZM202.682 167.79C203.298 167.79 203.844 167.944 204.32 168.252C204.796 168.56 205.165 168.994 205.426 169.554C205.688 170.105 205.818 170.744 205.818 171.472C205.818 172.2 205.688 172.839 205.426 173.39C205.165 173.931 204.796 174.351 204.32 174.65C203.854 174.949 203.308 175.098 202.682 175.098C202.132 175.098 201.651 174.977 201.24 174.734C200.83 174.491 200.517 174.146 200.302 173.698V178.024H199.168V169.932C199.168 169.204 199.131 168.546 199.056 167.958H200.134L200.246 169.316C200.442 168.831 200.75 168.457 201.17 168.196C201.6 167.925 202.104 167.79 202.682 167.79ZM202.472 174.16C203.163 174.16 203.695 173.927 204.068 173.46C204.451 172.993 204.642 172.331 204.642 171.472C204.642 170.613 204.451 169.946 204.068 169.47C203.686 168.985 203.154 168.742 202.472 168.742C201.772 168.742 201.236 168.975 200.862 169.442C200.489 169.909 200.302 170.576 200.302 171.444C200.302 172.312 200.489 172.984 200.862 173.46C201.236 173.927 201.772 174.16 202.472 174.16ZM207.563 164.696H208.697V175H207.563V164.696ZM217.101 167.958V175H215.981V173.726C215.775 174.165 215.463 174.505 215.043 174.748C214.632 174.981 214.151 175.098 213.601 175.098C212.975 175.098 212.425 174.949 211.949 174.65C211.482 174.351 211.118 173.931 210.857 173.39C210.605 172.839 210.479 172.2 210.479 171.472C210.479 170.744 210.609 170.105 210.871 169.554C211.132 168.994 211.496 168.56 211.963 168.252C212.439 167.944 212.985 167.79 213.601 167.79C214.151 167.79 214.632 167.911 215.043 168.154C215.453 168.397 215.766 168.737 215.981 169.176V167.958H217.101ZM213.825 174.16C214.515 174.16 215.047 173.927 215.421 173.46C215.794 172.984 215.981 172.312 215.981 171.444C215.981 170.576 215.794 169.909 215.421 169.442C215.047 168.975 214.515 168.742 213.825 168.742C213.134 168.742 212.593 168.985 212.201 169.47C211.818 169.946 211.627 170.613 211.627 171.472C211.627 172.331 211.818 172.993 212.201 173.46C212.583 173.927 213.125 174.16 213.825 174.16ZM220.805 168.854V172.704C220.805 173.227 220.913 173.595 221.127 173.81C221.342 174.015 221.645 174.118 222.037 174.118C222.299 174.118 222.551 174.076 222.793 173.992V174.958C222.504 175.051 222.177 175.098 221.813 175.098C221.141 175.098 220.614 174.911 220.231 174.538C219.858 174.155 219.671 173.595 219.671 172.858V168.854H218.299V167.958H219.671V166.152L220.805 165.746V167.958H222.821V168.854H220.805ZM230.082 171.444H224.916C224.925 172.34 225.13 173.017 225.532 173.474C225.942 173.931 226.535 174.16 227.31 174.16C228.131 174.16 228.887 173.885 229.578 173.334L229.956 174.16C229.648 174.449 229.251 174.678 228.766 174.846C228.29 175.014 227.8 175.098 227.296 175.098C226.194 175.098 225.331 174.776 224.706 174.132C224.08 173.479 223.768 172.587 223.768 171.458C223.768 170.739 223.908 170.105 224.188 169.554C224.468 168.994 224.86 168.56 225.364 168.252C225.868 167.944 226.442 167.79 227.086 167.79C228.019 167.79 228.752 168.098 229.284 168.714C229.816 169.321 230.082 170.161 230.082 171.234V171.444ZM227.1 168.672C226.512 168.672 226.031 168.849 225.658 169.204C225.294 169.559 225.06 170.058 224.958 170.702H229.06C229.004 170.039 228.808 169.535 228.472 169.19C228.145 168.845 227.688 168.672 227.1 168.672ZM234.183 175.098C232.998 175.098 232.06 174.795 231.369 174.188L231.747 173.348C232.13 173.647 232.517 173.861 232.909 173.992C233.301 174.123 233.74 174.188 234.225 174.188C234.757 174.188 235.158 174.099 235.429 173.922C235.709 173.735 235.849 173.469 235.849 173.124C235.849 172.844 235.756 172.62 235.569 172.452C235.382 172.284 235.074 172.153 234.645 172.06L233.455 171.78C232.867 171.649 232.41 171.416 232.083 171.08C231.766 170.744 231.607 170.343 231.607 169.876C231.607 169.26 231.854 168.761 232.349 168.378C232.844 167.986 233.497 167.79 234.309 167.79C234.804 167.79 235.27 167.869 235.709 168.028C236.148 168.187 236.516 168.415 236.815 168.714L236.437 169.54C235.774 168.989 235.065 168.714 234.309 168.714C233.805 168.714 233.413 168.812 233.133 169.008C232.862 169.195 232.727 169.461 232.727 169.806C232.727 170.095 232.811 170.324 232.979 170.492C233.156 170.66 233.436 170.791 233.819 170.884L235.009 171.178C235.662 171.327 236.148 171.561 236.465 171.878C236.782 172.186 236.941 172.592 236.941 173.096C236.941 173.703 236.694 174.188 236.199 174.552C235.704 174.916 235.032 175.098 234.183 175.098Z" fill="#5B5151"/>
<circle cx="81" cy="140" r="15" fill="white"/>
<mask id="mask1" mask-type="alpha" maskUnits="userSpaceOnUse" x="66" y="125" width="30" height="30">
<circle cx="81" cy="140" r="15" fill="#F4F4EA"/>
</mask>
<g mask="url(#mask1)">
<path fill-rule="evenodd" clip-rule="evenodd" d="M86.9303 132.298C85.522 136.565 84.1631 140.437 82.783 144.704C82.7004 145.067 82.5174 145.399 82.2549 145.662C81.8931 145.926 81.4474 146.048 81.0016 146.007H79.3398L80.2834 148.274H82.8957C83.2501 148.296 83.6033 148.216 83.9139 148.044C84.2244 147.872 84.4794 147.614 84.6489 147.302C84.7624 147.09 84.8589 146.868 84.9376 146.641L89.7961 132.298H86.9303Z" fill="#635452"/>
<path fill-rule="evenodd" clip-rule="evenodd" d="M77.376 140.043H79.087C79.2676 140.052 79.4378 140.13 79.5623 140.261C79.6868 140.392 79.7562 140.566 79.7559 140.747V140.902C79.7562 141.083 79.6868 141.257 79.5623 141.388C79.4378 141.519 79.2676 141.597 79.087 141.606H77.376C77.1893 141.606 77.0102 141.532 76.8781 141.4C76.7461 141.268 76.6719 141.089 76.6719 140.902V140.747C76.6719 140.56 76.7461 140.381 76.8781 140.249C77.0102 140.117 77.1893 140.043 77.376 140.043Z" fill="#F0AD00"/>
<path fill-rule="evenodd" clip-rule="evenodd" d="M80.8535 140.043H82.642C82.8287 140.043 83.0078 140.117 83.1399 140.249C83.2719 140.381 83.3461 140.56 83.3461 140.747V140.902C83.3461 141.089 83.2719 141.268 83.1399 141.4C83.0078 141.532 82.8287 141.606 82.642 141.606H80.8535C80.6668 141.606 80.4877 141.532 80.3556 141.4C80.2236 141.268 80.1494 141.089 80.1494 140.902V140.747C80.1494 140.56 80.2236 140.381 80.3556 140.249C80.4877 140.117 80.6668 140.043 80.8535 140.043Z" fill="#E1760C"/>
<path fill-rule="evenodd" clip-rule="evenodd" d="M76.7344 138.114H78.5862C78.767 138.113 78.941 138.183 79.0721 138.307C79.2032 138.432 79.2813 138.602 79.2904 138.782V138.944C79.2904 139.131 79.2162 139.31 79.0841 139.442C78.9521 139.574 78.773 139.649 78.5862 139.649H76.7344C76.5477 139.649 76.3686 139.574 76.2365 139.442C76.1045 139.31 76.0303 139.131 76.0303 138.944V138.782C76.0393 138.602 76.1175 138.432 76.2485 138.307C76.3796 138.183 76.5536 138.113 76.7344 138.114Z" fill="#E1760C"/>
<path fill-rule="evenodd" clip-rule="evenodd" d="M80.3682 138.114H83.3114C83.4861 138.122 83.6513 138.195 83.7749 138.319C83.8986 138.443 83.9718 138.608 83.9803 138.782V138.944C83.9806 139.125 83.9112 139.299 83.7867 139.43C83.6622 139.561 83.492 139.639 83.3114 139.649H80.3682C80.1814 139.649 80.0023 139.574 79.8703 139.442C79.7382 139.31 79.6641 139.131 79.6641 138.944V138.782C79.6731 138.602 79.7513 138.432 79.8823 138.307C80.0134 138.183 80.1874 138.113 80.3682 138.114Z" fill="#F0AD00"/>
<path fill-rule="evenodd" clip-rule="evenodd" d="M80.1006 141.986H82.0088C82.1894 141.995 82.3595 142.074 82.4841 142.205C82.6086 142.336 82.6779 142.51 82.6777 142.69V142.859C82.6779 143.04 82.6086 143.214 82.4841 143.345C82.3595 143.476 82.1894 143.555 82.0088 143.564H80.1006C79.9139 143.564 79.7348 143.489 79.6027 143.357C79.4707 143.225 79.3965 143.046 79.3965 142.859V142.697C79.3965 142.511 79.4707 142.332 79.6027 142.2C79.7348 142.068 79.9139 141.993 80.1006 141.993V141.986Z" fill="#D65359"/>
<path fill-rule="evenodd" clip-rule="evenodd" d="M79.0156 143.923H81.3674C81.5542 143.923 81.7333 143.997 81.8653 144.129C81.9974 144.261 82.0715 144.44 82.0715 144.627V144.789C82.0715 144.976 81.9974 145.155 81.8653 145.287C81.7333 145.419 81.5542 145.493 81.3674 145.493H79.0156C78.8289 145.493 78.6498 145.419 78.5178 145.287C78.3857 145.155 78.3115 144.976 78.3115 144.789V144.627C78.3115 144.44 78.3857 144.261 78.5178 144.129C78.6498 143.997 78.8289 143.923 79.0156 143.923Z" fill="#F0AD00"/>
<path fill-rule="evenodd" clip-rule="evenodd" d="M78.0801 136.17H80.3826C80.5693 136.17 80.7484 136.244 80.8805 136.376C81.0125 136.508 81.0867 136.688 81.0867 136.874V137.036C81.0867 137.223 81.0125 137.402 80.8805 137.534C80.7484 137.666 80.5693 137.74 80.3826 137.74H78.0801C77.8934 137.74 77.7143 137.666 77.5822 137.534C77.4502 137.402 77.376 137.223 77.376 137.036V136.874C77.376 136.688 77.4502 136.508 77.5822 136.376C77.7143 136.244 77.8934 136.17 78.0801 136.17Z" fill="#F0AD00"/>
<path fill-rule="evenodd" clip-rule="evenodd" d="M82.1348 136.17H83.9655C84.1523 136.17 84.3314 136.244 84.4634 136.376C84.5955 136.508 84.6696 136.688 84.6696 136.874V137.036C84.6696 137.223 84.5955 137.402 84.4634 137.534C84.3314 137.666 84.1523 137.74 83.9655 137.74H82.1348C81.948 137.74 81.7689 137.666 81.6369 137.534C81.5048 137.402 81.4307 137.223 81.4307 137.036V136.874C81.4307 136.688 81.5048 136.508 81.6369 136.376C81.7689 136.244 81.948 136.17 82.1348 136.17Z" fill="#E1760C"/>
<path fill-rule="evenodd" clip-rule="evenodd" d="M76.2419 136.17C76.3923 136.17 76.5394 136.215 76.6644 136.298C76.7895 136.382 76.8869 136.501 76.9445 136.64C77.0021 136.779 77.0171 136.931 76.9878 137.079C76.9584 137.227 76.886 137.362 76.7797 137.468C76.6733 137.575 76.5378 137.647 76.3903 137.676C76.2428 137.706 76.0899 137.691 75.9509 137.633C75.812 137.576 75.6932 137.478 75.6096 137.353C75.5261 137.228 75.4815 137.081 75.4815 136.931C75.4805 136.831 75.4996 136.731 75.5374 136.639C75.5753 136.546 75.6313 136.462 75.7021 136.391C75.7729 136.32 75.8571 136.264 75.9498 136.226C76.0425 136.188 76.1418 136.169 76.2419 136.17Z" fill="#D65359"/>
<path fill-rule="evenodd" clip-rule="evenodd" d="M74.8965 134.234H79.4874C79.6741 134.234 79.8532 134.308 79.9853 134.44C80.1173 134.572 80.1915 134.751 80.1915 134.938V135.1C80.1915 135.287 80.1173 135.466 79.9853 135.598C79.8532 135.73 79.6741 135.804 79.4874 135.804H74.8965C74.7098 135.804 74.5307 135.73 74.3986 135.598C74.2666 135.466 74.1924 135.287 74.1924 135.1V134.938C74.1924 134.751 74.2666 134.572 74.3986 134.44C74.5307 134.308 74.7098 134.234 74.8965 134.234Z" fill="#D65359"/>
<path fill-rule="evenodd" clip-rule="evenodd" d="M81.2129 134.234H84.6209C84.8076 134.234 84.9867 134.308 85.1188 134.44C85.2508 134.572 85.325 134.751 85.325 134.938V135.1C85.325 135.287 85.2508 135.466 85.1188 135.598C84.9867 135.73 84.8076 135.804 84.6209 135.804H81.2129C81.0262 135.804 80.8471 135.73 80.715 135.598C80.583 135.466 80.5088 135.287 80.5088 135.1V134.938C80.5088 134.751 80.583 134.572 80.715 134.44C80.8471 134.308 81.0262 134.234 81.2129 134.234Z" fill="#F0AD00"/>
<path fill-rule="evenodd" clip-rule="evenodd" d="M73.6153 132.297H77.1781C77.3649 132.297 77.544 132.372 77.676 132.504C77.8081 132.636 77.8822 132.815 77.8822 133.001V133.156C77.8822 133.343 77.8081 133.522 77.676 133.654C77.544 133.786 77.3649 133.861 77.1781 133.861H73.6153C73.4285 133.861 73.2494 133.786 73.1174 133.654C72.9853 133.522 72.9111 133.343 72.9111 133.156V133.001C72.9111 132.815 72.9853 132.636 73.1174 132.504C73.2494 132.372 73.4285 132.297 73.6153 132.297Z" fill="#E1760C"/>
<path fill-rule="evenodd" clip-rule="evenodd" d="M80.8965 132.297H85.255C85.4418 132.297 85.6209 132.372 85.7529 132.504C85.885 132.636 85.9592 132.815 85.9592 133.001V133.156C85.9592 133.343 85.885 133.522 85.7529 133.654C85.6209 133.786 85.4418 133.861 85.255 133.861H80.8965C80.7098 133.861 80.5307 133.786 80.3986 133.654C80.2666 133.522 80.1924 133.343 80.1924 133.156V133.001C80.1924 132.815 80.2666 132.636 80.3986 132.504C80.5307 132.372 80.7098 132.297 80.8965 132.297Z" fill="#D65359"/>
<path fill-rule="evenodd" clip-rule="evenodd" d="M79.0376 132.297C79.1866 132.297 79.3323 132.342 79.4562 132.424C79.5801 132.507 79.6766 132.625 79.7337 132.762C79.7907 132.9 79.8056 133.052 79.7765 133.198C79.7475 133.344 79.6757 133.478 79.5703 133.584C79.465 133.689 79.3307 133.761 79.1846 133.79C79.0384 133.819 78.8869 133.804 78.7493 133.747C78.6116 133.69 78.4939 133.593 78.4112 133.469C78.3284 133.345 78.2842 133.2 78.2842 133.051C78.2842 132.851 78.3636 132.659 78.5049 132.518C78.6461 132.377 78.8378 132.297 79.0376 132.297Z" fill="#F0AD00"/>
<path fill-rule="evenodd" clip-rule="evenodd" d="M78.2417 141.986C78.3927 141.985 78.5407 142.028 78.6668 142.111C78.793 142.194 78.8915 142.313 78.9499 142.452C79.0084 142.592 79.024 142.745 78.9949 142.893C78.9658 143.041 78.8932 143.177 78.7865 143.284C78.6797 143.391 78.5435 143.464 78.3954 143.493C78.2472 143.522 78.0937 143.506 77.9545 143.448C77.8152 143.389 77.6965 143.291 77.6135 143.165C77.5305 143.039 77.4869 142.891 77.4883 142.74C77.4883 142.54 77.5677 142.348 77.709 142.207C77.8503 142.065 78.0419 141.986 78.2417 141.986Z" fill="#E1760C"/>
</g>
<path d="M169 20.08C168.2 20.08 167.59 19.7733 167.17 19.16C166.757 18.54 166.55 17.6333 166.55 16.44C166.55 15.2467 166.757 14.3433 167.17 13.73C167.583 13.11 168.193 12.8 169 12.8C169.807 12.8 170.417 13.1067 170.83 13.72C171.243 14.3333 171.45 15.2367 171.45 16.43C171.45 17.6233 171.24 18.53 170.82 19.15C170.407 19.77 169.8 20.08 169 20.08ZM169 19.53C169.613 19.53 170.067 19.28 170.36 18.78C170.66 18.2733 170.81 17.49 170.81 16.43C170.81 15.37 170.663 14.5933 170.37 14.1C170.077 13.6 169.62 13.35 169 13.35C168.387 13.35 167.93 13.6 167.63 14.1C167.337 14.6 167.19 15.3767 167.19 16.43C167.19 17.4833 167.337 18.2633 167.63 18.77C167.93 19.2767 168.387 19.53 169 19.53ZM176.006 16.35C176.479 16.47 176.846 16.6867 177.106 17C177.366 17.3133 177.496 17.69 177.496 18.13C177.496 18.73 177.273 19.2033 176.826 19.55C176.379 19.8967 175.769 20.07 174.996 20.07C174.223 20.07 173.613 19.8967 173.166 19.55C172.719 19.2033 172.496 18.73 172.496 18.13C172.496 17.6967 172.629 17.3233 172.896 17.01C173.163 16.69 173.526 16.47 173.986 16.35C173.559 16.2233 173.229 16.0133 172.996 15.72C172.769 15.4267 172.656 15.08 172.656 14.68C172.656 14.3067 172.753 13.9767 172.946 13.69C173.139 13.4033 173.413 13.1833 173.766 13.03C174.126 12.8767 174.536 12.8 174.996 12.8C175.456 12.8 175.863 12.8767 176.216 13.03C176.576 13.1833 176.853 13.4033 177.046 13.69C177.239 13.9767 177.336 14.3067 177.336 14.68C177.336 15.08 177.219 15.4267 176.986 15.72C176.759 16.0133 176.433 16.2233 176.006 16.35ZM173.286 14.71C173.286 15.1167 173.439 15.4467 173.746 15.7C174.053 15.9533 174.469 16.1067 174.996 16.16C175.523 16.1067 175.939 15.9533 176.246 15.7C176.553 15.4467 176.706 15.1167 176.706 14.71C176.706 14.2833 176.556 13.95 176.256 13.71C175.956 13.4633 175.536 13.34 174.996 13.34C174.456 13.34 174.036 13.4633 173.736 13.71C173.436 13.95 173.286 14.2833 173.286 14.71ZM174.996 19.53C175.603 19.53 176.066 19.41 176.386 19.17C176.706 18.9233 176.866 18.5667 176.866 18.1C176.866 17.6733 176.693 17.3333 176.346 17.08C176.006 16.8267 175.556 16.6733 174.996 16.62C174.436 16.6733 173.983 16.8267 173.636 17.08C173.296 17.3333 173.126 17.6733 173.126 18.1C173.126 18.5667 173.286 18.9233 173.606 19.17C173.926 19.41 174.389 19.53 174.996 19.53ZM179.532 15.1V15.96L178.682 15.96V15.1L179.532 15.1ZM179.532 19.13V20H178.682V19.13H179.532ZM185.329 19.46V20L181.559 20V19.46H183.139L183.139 13.7L181.669 14.65V14.02L183.409 12.88L183.759 12.88L183.759 19.46L185.329 19.46ZM191.575 19.46V20L187.085 20V19.54L189.615 16.71C189.975 16.2967 190.235 15.9333 190.395 15.62C190.555 15.3 190.635 14.9833 190.635 14.67C190.635 14.2433 190.512 13.9167 190.265 13.69C190.025 13.4567 189.678 13.34 189.225 13.34C188.525 13.34 187.842 13.6267 187.175 14.2L186.915 13.71C187.195 13.4367 187.545 13.2167 187.965 13.05C188.385 12.8833 188.805 12.8 189.225 12.8C189.858 12.8 190.355 12.9667 190.715 13.3C191.082 13.6267 191.265 14.0733 191.265 14.64C191.265 15.0467 191.168 15.4433 190.975 15.83C190.788 16.2167 190.482 16.6467 190.055 17.12L187.915 19.46L191.575 19.46Z" fill="#5B5151"/>
<rect y="219" width="359" height="40" rx="10" fill="white"/>
<rect x="0.5" y="219.5" width="358" height="39" rx="9.5" stroke="#5B5151" stroke-opacity="0.1"/>
<rect x="319" y="219" width="40" height="40" rx="10" fill="#E37D38"/>
<path fill-rule="evenodd" clip-rule="evenodd" d="M345.003 247.657C343.225 246.774 344.092 244.48 345.313 242.914C346.37 241.558 347 239.853 347 238C347 233.582 343.418 230 339 230C334.582 230 331 233.582 331 238C331 242.418 334.582 246 339 246C339.185 246 339.359 246.084 339.478 246.226C340.79 247.78 342.979 248.433 345.001 247.698C345.02 247.691 345.021 247.666 345.003 247.657Z" fill="white" fill-opacity="0.55"/>
<path d="M19.64 235.012H16.168V234.032H24.274V235.012H20.802V244H19.64V235.012ZM30.6902 236.958L27.4002 244.644C27.0548 245.447 26.6208 246.035 26.0982 246.408C25.5755 246.781 24.9315 247.038 24.1662 247.178L23.9282 246.296C24.5908 246.147 25.0902 245.946 25.4262 245.694C25.7715 245.451 26.0562 245.073 26.2802 244.56L26.5602 243.93L23.5782 236.958H24.7682L27.1482 242.768L29.5562 236.958H30.6902ZM35.4537 236.79C36.0697 236.79 36.6157 236.944 37.0917 237.252C37.5677 237.56 37.9363 237.994 38.1977 238.554C38.459 239.105 38.5897 239.744 38.5897 240.472C38.5897 241.2 38.459 241.839 38.1977 242.39C37.9363 242.931 37.5677 243.351 37.0917 243.65C36.625 243.949 36.079 244.098 35.4537 244.098C34.903 244.098 34.4223 243.977 34.0117 243.734C33.601 243.491 33.2883 243.146 33.0737 242.698V247.024H31.9397V238.932C31.9397 238.204 31.9023 237.546 31.8277 236.958H32.9057L33.0177 238.316C33.2137 237.831 33.5217 237.457 33.9417 237.196C34.371 236.925 34.875 236.79 35.4537 236.79ZM35.2437 243.16C35.9343 243.16 36.4663 242.927 36.8397 242.46C37.2223 241.993 37.4137 241.331 37.4137 240.472C37.4137 239.613 37.2223 238.946 36.8397 238.47C36.457 237.985 35.925 237.742 35.2437 237.742C34.5437 237.742 34.007 237.975 33.6337 238.442C33.2603 238.909 33.0737 239.576 33.0737 240.444C33.0737 241.312 33.2603 241.984 33.6337 242.46C34.007 242.927 34.5437 243.16 35.2437 243.16ZM40.3342 236.958H41.4682V244H40.3342V236.958ZM41.6082 233.976V235.264H40.2222V233.976H41.6082ZM47.1841 236.79C48.8735 236.79 49.7181 237.719 49.7181 239.576V244H48.5841V239.632C48.5841 238.979 48.4535 238.503 48.1921 238.204C47.9308 237.896 47.5201 237.742 46.9601 237.742C46.3068 237.742 45.7841 237.943 45.3921 238.344C45.0001 238.745 44.8041 239.287 44.8041 239.968V244H43.6701V238.932C43.6701 238.204 43.6328 237.546 43.5581 236.958H44.6361L44.7481 238.218C44.9628 237.761 45.2848 237.411 45.7141 237.168C46.1435 236.916 46.6335 236.79 47.1841 236.79ZM58.1316 236.958V243.944C58.1316 244.989 57.8609 245.778 57.3196 246.31C56.7876 246.851 55.9989 247.122 54.9536 247.122C53.8802 247.122 52.9562 246.879 52.1816 246.394L52.3776 245.47C52.8256 245.722 53.2456 245.904 53.6376 246.016C54.0389 246.128 54.4776 246.184 54.9536 246.184C55.6349 246.184 56.1482 246.002 56.4936 245.638C56.8389 245.283 57.0116 244.751 57.0116 244.042V242.376C56.7969 242.824 56.4796 243.174 56.0596 243.426C55.6489 243.669 55.1589 243.79 54.5896 243.79C53.9736 243.79 53.4229 243.645 52.9376 243.356C52.4616 243.067 52.0929 242.656 51.8316 242.124C51.5702 241.592 51.4396 240.981 51.4396 240.29C51.4396 239.599 51.5702 238.988 51.8316 238.456C52.0929 237.924 52.4616 237.513 52.9376 237.224C53.4229 236.935 53.9736 236.79 54.5896 236.79C55.1496 236.79 55.6349 236.911 56.0456 237.154C56.4656 237.397 56.7829 237.737 56.9976 238.176V236.958H58.1316ZM54.8136 242.838C55.4949 242.838 56.0269 242.614 56.4096 242.166C56.8016 241.709 56.9976 241.083 56.9976 240.29C56.9976 239.497 56.8016 238.876 56.4096 238.428C56.0269 237.971 55.4949 237.742 54.8136 237.742C54.1229 237.742 53.5769 237.971 53.1756 238.428C52.7836 238.876 52.5876 239.497 52.5876 240.29C52.5876 241.083 52.7836 241.709 53.1756 242.166C53.5769 242.614 54.1229 242.838 54.8136 242.838ZM61.5548 242.558V244H60.1128V242.558H61.5548ZM64.795 242.558V244H63.353V242.558H64.795ZM68.0353 242.558V244H66.5933V242.558H68.0353Z" fill="#5B5151"/>
</svg>
