<svg width="947" height="541" viewBox="0 0 947 541" fill="none" xmlns="http://www.w3.org/2000/svg">
<g opacity="0.6">
<path d="M755.173 117.341H243.981C223.812 117.341 207.462 132.061 207.462 150.218V485.891C207.462 504.048 223.812 518.768 243.981 518.768H755.173C775.342 518.768 791.692 504.048 791.692 485.891V150.218C791.692 132.061 775.342 117.341 755.173 117.341Z" fill="#F4F4EA"/>
<path d="M240.251 128.773H762.605C773.073 128.773 781.494 136.308 781.494 145.527V485.641C781.494 494.86 773.073 502.396 762.605 502.396H240.251C229.783 502.396 221.362 494.86 221.362 485.641V145.527C221.362 136.308 229.783 128.773 240.251 128.773Z" fill="white" stroke="#5B5151" stroke-width="0.630031"/>
<g opacity="0.7" clip-path="url(#clip0)">
<rect x="403.852" y="395.252" width="111.164" height="149.454" fill="white" stroke="#5B5151" stroke-opacity="0.1" stroke-width="0.630031" stroke-miterlimit="10"/>
<path d="M484.285 410.073H435.811C433.849 410.073 432.259 411.661 432.259 413.619V462C432.259 463.959 433.849 465.546 435.811 465.546H484.285C486.247 465.546 487.837 463.959 487.837 462V413.619C487.837 411.661 486.247 410.073 484.285 410.073Z" fill="#FEF3F4"/>
<path d="M439.36 453.942L450.159 434.508C450.448 433.988 450.864 433.549 451.368 433.232C451.871 432.914 452.447 432.728 453.042 432.691C453.636 432.654 454.231 432.766 454.771 433.019C455.31 433.271 455.778 433.654 456.13 434.134L462.359 442.615C462.668 443.039 463.068 443.389 463.53 443.64C463.992 443.89 464.504 444.036 465.029 444.065C465.553 444.094 466.078 444.007 466.565 443.809C467.052 443.611 467.489 443.308 467.844 442.921C468.211 442.522 468.664 442.211 469.17 442.014C469.676 441.816 470.22 441.737 470.761 441.782C471.302 441.827 471.826 441.995 472.292 442.273C472.758 442.552 473.154 442.933 473.449 443.388L480.17 453.748C480.517 454.284 480.713 454.902 480.737 455.539C480.761 456.176 480.613 456.808 480.308 457.368C480.003 457.928 479.552 458.396 479.003 458.722C478.454 459.048 477.828 459.22 477.189 459.22H442.464C441.844 459.221 441.235 459.06 440.696 458.753C440.158 458.445 439.71 458.003 439.396 457.469C439.082 456.935 438.914 456.329 438.907 455.71C438.901 455.091 439.057 454.482 439.36 453.942Z" fill="#D55A5F"/>
<path d="M460.673 425.427C460.673 424.588 460.922 423.768 461.389 423.071C461.856 422.373 462.52 421.829 463.296 421.508C464.073 421.187 464.928 421.103 465.752 421.267C466.576 421.43 467.334 421.834 467.928 422.428C468.522 423.021 468.927 423.777 469.091 424.6C469.255 425.422 469.171 426.275 468.849 427.051C468.528 427.826 467.983 428.488 467.284 428.954C466.585 429.42 465.763 429.669 464.923 429.669C463.796 429.669 462.715 429.222 461.918 428.427C461.121 427.631 460.673 426.552 460.673 425.427Z" fill="#D55A5F"/>
<rect opacity="0.3" x="489.076" y="482.947" width="17.2922" height="6.17579" rx="2.47032" fill="#5B5151"/>
<rect opacity="0.5" x="408.791" y="482.948" width="58.0524" height="6.17579" rx="2.47032" fill="#F4F4EA"/>
<rect opacity="0.5" x="408.791" y="495.299" width="101.283" height="6.17579" rx="2.47032" fill="#F4F4EA"/>
</g>
<g opacity="0.7" clip-path="url(#clip1)">
<rect x="529.839" y="395.251" width="111.164" height="149.454" fill="white" stroke="#5B5151" stroke-opacity="0.1" stroke-width="0.630031" stroke-miterlimit="10"/>
<path d="M610.272 410.073H561.798C559.837 410.073 558.246 411.66 558.246 413.619V462C558.246 463.958 559.837 465.545 561.798 465.545H610.272C612.234 465.545 613.824 463.958 613.824 462V413.619C613.824 411.66 612.234 410.073 610.272 410.073Z" fill="#FEF3F4"/>
<path d="M565.35 453.941L576.148 434.508C576.437 433.988 576.853 433.549 577.357 433.232C577.861 432.914 578.436 432.728 579.031 432.691C579.626 432.654 580.22 432.766 580.76 433.018C581.299 433.27 581.767 433.654 582.119 434.134L588.348 442.614C588.658 443.038 589.058 443.388 589.519 443.639C589.981 443.89 590.493 444.036 591.018 444.065C591.543 444.094 592.068 444.007 592.554 443.809C593.041 443.611 593.478 443.308 593.833 442.921C594.2 442.521 594.654 442.211 595.159 442.013C595.665 441.816 596.209 441.736 596.75 441.781C597.292 441.827 597.815 441.995 598.281 442.273C598.747 442.551 599.143 442.932 599.438 443.387L606.159 453.748C606.506 454.283 606.702 454.902 606.726 455.539C606.751 456.176 606.603 456.808 606.297 457.368C605.992 457.928 605.542 458.396 604.993 458.722C604.444 459.047 603.817 459.22 603.178 459.22H568.453C567.833 459.221 567.224 459.06 566.686 458.752C566.147 458.445 565.699 458.003 565.385 457.469C565.071 456.935 564.903 456.329 564.897 455.71C564.89 455.091 565.047 454.481 565.35 453.941Z" fill="#D55A5F"/>
<path d="M586.661 425.427C586.661 424.588 586.91 423.768 587.377 423.07C587.844 422.373 588.508 421.829 589.285 421.508C590.061 421.187 590.916 421.103 591.74 421.267C592.565 421.43 593.322 421.834 593.916 422.427C594.511 423.021 594.915 423.777 595.079 424.599C595.243 425.422 595.159 426.275 594.838 427.05C594.516 427.825 593.971 428.488 593.272 428.954C592.573 429.42 591.752 429.669 590.911 429.669C589.784 429.669 588.703 429.222 587.906 428.426C587.109 427.631 586.661 426.552 586.661 425.427Z" fill="#D55A5F"/>
<rect opacity="0.3" x="615.063" y="482.947" width="17.2922" height="6.17579" rx="2.47032" fill="#5B5151"/>
<rect opacity="0.5" x="534.777" y="482.947" width="58.0524" height="6.17579" rx="2.47032" fill="#F4F4EA"/>
<rect opacity="0.5" x="534.777" y="495.299" width="101.283" height="6.17579" rx="2.47032" fill="#F4F4EA"/>
</g>
<path d="M766.487 154.058H236.056V183.699H766.487V154.058Z" fill="white" stroke="#5B5151" stroke-opacity="0.1" stroke-width="0.630031" stroke-miterlimit="10"/>
<path d="M641.28 161.763H282.85V175.994H641.28V161.763Z" fill="#FEF3F4"/>
<path d="M273.036 161.763H257.821V175.994H273.036V161.763Z" fill="#FEF3F4"/>
<path d="M699.077 174.925V174.081C699.077 172.754 698.55 171.48 697.611 170.541C696.672 169.603 695.399 169.075 694.071 169.075H689.065C687.738 169.075 686.464 169.603 685.526 170.541C684.587 171.48 684.06 172.754 684.06 174.081V174.925H699.077Z" fill="#FEF3F4"/>
<path d="M694.913 163.226C694.919 163.889 694.727 164.539 694.363 165.093C693.998 165.647 693.478 166.08 692.867 166.338C692.256 166.595 691.582 166.666 690.931 166.54C690.28 166.414 689.681 166.097 689.21 165.63C688.739 165.163 688.418 164.567 688.286 163.917C688.155 163.267 688.219 162.593 688.472 161.98C688.724 161.367 689.153 160.842 689.704 160.473C690.255 160.104 690.903 159.907 691.566 159.907C692.449 159.907 693.296 160.256 693.923 160.877C694.55 161.499 694.906 162.343 694.913 163.226Z" fill="#FEF3F4"/>
<path d="M702.956 174.559C702.956 175.445 702.693 176.311 702.2 177.047C701.708 177.782 701.008 178.356 700.189 178.693C699.37 179.031 698.47 179.118 697.602 178.943C696.733 178.768 695.937 178.339 695.312 177.711C694.688 177.083 694.265 176.284 694.095 175.414C693.926 174.545 694.018 173.645 694.361 172.829C694.704 172.012 695.281 171.316 696.02 170.828C696.76 170.34 697.627 170.082 698.512 170.088C699.098 170.088 699.678 170.204 700.219 170.429C700.76 170.654 701.251 170.984 701.664 171.399C702.077 171.815 702.404 172.308 702.626 172.85C702.847 173.393 702.96 173.973 702.956 174.559Z" fill="#D55A5F"/>
<path d="M728.293 160.779H714.71C714.374 160.779 714.052 160.912 713.815 161.149C713.578 161.387 713.444 161.708 713.444 162.044V172.675C713.444 173.01 713.578 173.332 713.815 173.57C714.052 173.807 714.374 173.94 714.71 173.94H715.554V176.921L718.535 173.94H728.293C728.632 173.94 728.957 173.808 729.198 173.571C729.44 173.335 729.58 173.013 729.587 172.675V162.044C729.58 161.706 729.44 161.384 729.198 161.147C728.957 160.911 728.632 160.778 728.293 160.779Z" fill="#FEF3F4"/>
<path d="M733.778 174.559C733.778 175.445 733.515 176.311 733.023 177.047C732.53 177.782 731.83 178.356 731.011 178.693C730.193 179.031 729.292 179.118 728.424 178.943C727.556 178.768 726.759 178.339 726.135 177.711C725.511 177.083 725.087 176.284 724.917 175.414C724.748 174.545 724.841 173.645 725.184 172.829C725.526 172.012 726.104 171.316 726.843 170.828C727.582 170.34 728.449 170.082 729.335 170.088C729.921 170.088 730.501 170.204 731.042 170.429C731.583 170.654 732.074 170.984 732.487 171.399C732.9 171.815 733.227 172.308 733.448 172.85C733.67 173.393 733.782 173.973 733.778 174.559Z" fill="#D55A5F"/>
<path d="M134.902 529.143V514.142H865.486V529.143C865.486 530.646 864.6 532.125 862.892 533.513C861.186 534.9 858.699 536.163 855.597 537.229C849.398 539.361 840.812 540.685 831.315 540.685H169.072C159.575 540.685 150.99 539.361 144.79 537.229C141.689 536.163 139.201 534.9 137.496 533.513C135.788 532.125 134.902 530.646 134.902 529.143Z" fill="#F4F4EA" stroke="#5B5151" stroke-width="0.630031"/>
<path d="M99.3766 154.737L90.2538 154L89.0063 162.442L79.9779 162.115L77.7918 170.041L71 170.897L71.4348 174.337L80.5198 173.191L82.5926 165.681L91.9801 166.021L93.2086 157.717L101.481 158.385L99.3766 154.737Z" fill="#EEAB34"/>
<path d="M872.65 258.782L879.901 260.187L884.324 254.094L892.338 256.249L895.047 248.304L904.221 250.339L907.616 243.327L916.765 243.844L916.569 247.309L909.727 246.918L906.142 254.315L897.328 252.355L894.575 260.439L885.729 258.057L881.413 264.011L874.691 262.707L872.669 267.212L869.506 265.794L872.65 258.782Z" fill="#D55A5F"/>
<path d="M166.656 137.768C163.796 138.461 161.452 136.357 160.753 133.446C159.442 128.034 164.615 125.502 167.803 127.776C171.237 130.258 171.142 136.685 166.656 137.768ZM164.136 119.371C164.275 120.375 163.764 121.018 162.605 121.299C161.345 121.608 160.715 121.696 160.161 120.531C156.884 113.336 154.994 108.692 154.49 106.601C149.803 86.6476 148.896 84.8709 149.639 84.6882C150.754 84.4173 152.531 84.3921 153.684 84.1086C154.837 83.8251 156.469 83.0375 157.578 82.7666C158.208 82.6217 158.353 84.0267 159.424 88.2164C163.336 103.438 163.368 111.345 164.13 119.371H164.136Z" fill="#E37D38"/>
<path d="M362.666 188.049C360.776 185.025 359.743 180.287 360.959 176.286C362.994 169.539 370.409 165.985 368.979 158.79C368.837 157.976 368.526 157.2 368.066 156.513C367.606 155.827 367.007 155.244 366.308 154.802C362.849 152.698 357.935 154.632 354.52 156.806C352.253 158.283 350.265 160.149 348.648 162.318L346.084 149.617C350.124 146.07 355.044 143.676 360.329 142.687C370.989 140.538 379.791 143.562 381.945 154.229C383.905 163.957 377.8 169.11 373.944 174.56C371.802 177.584 371.499 179.751 371.985 182.158C372.248 183.507 372.866 184.762 373.774 185.793L362.666 188.049ZM372.526 204.65C362.162 206.742 359.245 192.831 369.716 190.72C380.024 188.641 382.846 202.571 372.526 204.65Z" fill="#D55A5F"/>
<path d="M9.46233 303.892C9.46233 306.225 7.76976 307.631 4.98254 307.631H2.03893V311.085H0.879883V300.144H4.98254C7.76976 300.144 9.46233 301.549 9.46233 303.892ZM8.30328 303.892C8.30328 302.146 7.14422 301.136 4.95492 301.136H2.03893V306.602H4.95492C7.14422 306.611 8.30328 305.61 8.30328 303.892Z" fill="#5B5151"/>
<path d="M21.1167 300.144V311.085H19.9761V306.032H13.1139V311.085H11.9824V300.144H13.1415V305.022H20.0037V300.144H21.1167Z" fill="#5B5151"/>
<path d="M33.251 303.892C33.251 306.225 31.5676 307.631 28.7804 307.631H25.8368V311.085H24.6777V300.144H28.7804C31.5676 300.144 33.251 301.549 33.251 303.892ZM32.1011 303.892C32.1011 302.146 30.9421 301.136 28.7528 301.136H25.8368V306.602H28.7528C30.9421 306.611 32.1011 305.61 32.1011 303.892Z" fill="#5B5151"/>
<path d="M880.641 124.609C880.442 124.655 880.261 124.757 880.117 124.901C879.973 125.046 879.873 125.228 879.828 125.427C879.383 127.409 876.983 130.168 875.61 131.431L866.34 128.631C865.895 126.818 865.451 123.2 866.153 121.294C866.225 121.103 866.241 120.896 866.201 120.697C866.161 120.497 866.066 120.313 865.926 120.165L860.718 114.614C860.578 114.466 860.4 114.359 860.202 114.307C860.005 114.254 859.798 114.257 859.602 114.316C857.656 114.912 854.074 114.227 852.296 113.667L850.074 104.241C851.407 102.948 854.323 100.748 856.332 100.411C856.536 100.381 856.729 100.294 856.886 100.16C857.043 100.025 857.159 99.8485 857.22 99.6507L859.442 92.3668C859.501 92.1716 859.505 91.9638 859.452 91.7668C859.399 91.5697 859.293 91.3912 859.145 91.2513C857.656 89.8603 856.478 86.4161 856.034 84.5852L863.091 77.959C864.869 78.4745 868.246 79.8922 869.539 81.4654C869.669 81.6223 869.841 81.7399 870.034 81.8051C870.227 81.8702 870.434 81.8803 870.633 81.8342L878.041 80.0966C878.24 80.0501 878.421 79.9488 878.565 79.8043C878.709 79.6597 878.809 79.4777 878.854 79.2789C879.299 77.2968 881.699 74.537 883.072 73.2749L892.342 76.0747C892.787 77.8879 893.231 81.5054 892.529 83.4119C892.457 83.6025 892.441 83.8092 892.481 84.0087C892.521 84.2082 892.616 84.3925 892.756 84.5407L897.964 90.0914C898.103 90.2399 898.281 90.3462 898.477 90.3981C898.674 90.45 898.881 90.4454 899.075 90.3847C901.026 89.7937 904.608 90.4781 906.386 91.038L908.608 100.464C907.274 101.757 904.359 103.957 902.35 104.295C902.145 104.324 901.953 104.411 901.796 104.546C901.638 104.68 901.523 104.857 901.462 105.055L899.239 112.339C899.181 112.534 899.177 112.742 899.23 112.939C899.282 113.136 899.389 113.314 899.537 113.454C901.026 114.845 902.204 118.289 902.648 120.12L895.591 126.746C893.813 126.231 890.44 124.813 889.147 123.24C889.017 123.084 888.845 122.966 888.652 122.901C888.459 122.836 888.252 122.826 888.054 122.871L880.641 124.609ZM888.462 105.117C889.009 103.311 889.007 101.384 888.458 99.5799C887.909 97.7752 886.837 96.174 885.377 94.9786C883.918 93.7832 882.137 93.0474 880.26 92.8642C878.383 92.681 876.493 93.0587 874.83 93.9494C873.167 94.8402 871.806 96.204 870.919 97.8684C870.031 99.5328 869.657 101.423 869.844 103.3C870.03 105.177 870.769 106.957 871.967 108.414C873.166 109.871 874.769 110.94 876.574 111.485C878.993 112.214 881.602 111.954 883.829 110.76C886.055 109.567 887.717 107.539 888.449 105.121L888.462 105.117ZM894.315 106.895C895.211 103.931 895.209 100.769 894.307 97.8071C893.406 94.8453 891.647 92.2174 889.252 90.2557C886.857 88.2939 883.934 87.0864 880.853 86.7859C877.771 86.4853 874.67 87.1053 871.941 88.5673C869.213 90.0293 866.979 92.2678 865.522 94.9995C864.065 97.7313 863.451 100.834 863.758 103.914C864.065 106.995 865.278 109.915 867.244 112.306C869.211 114.697 871.842 116.452 874.806 117.347C878.777 118.545 883.061 118.118 886.716 116.158C890.372 114.199 893.101 110.869 894.302 106.899L894.315 106.895Z" fill="#E37D38"/>
<path d="M939.711 86.3715C939.594 86.2593 939.51 86.1172 939.467 85.9606C939.425 85.8039 939.426 85.6386 939.471 85.4826L941.218 79.7053C941.264 79.5506 941.353 79.4119 941.474 79.3051C941.595 79.1982 941.743 79.1275 941.902 79.1009C943.493 78.8387 945.795 77.0922 946.858 76.07L945.107 68.6039C943.702 68.1595 940.862 67.6217 939.329 68.0884C939.174 68.1375 939.009 68.1419 938.851 68.101C938.694 68.0602 938.552 67.9757 938.44 67.8573L934.316 63.4621C934.209 63.3439 934.135 63.1991 934.103 63.0427C934.071 62.8863 934.082 62.7241 934.134 62.5732C934.703 61.0622 934.343 58.1958 933.987 56.7648L926.65 54.5427C925.561 55.5382 923.673 57.7247 923.308 59.2979C923.269 59.4535 923.188 59.5956 923.075 59.709C922.961 59.8225 922.819 59.9031 922.664 59.9423L916.798 61.3155C916.64 61.3503 916.477 61.3418 916.324 61.291C916.172 61.2401 916.036 61.1488 915.931 61.0267C914.909 59.7823 912.247 58.658 910.829 58.2491L905.238 63.4976C905.558 64.9375 906.509 67.6662 907.687 68.7639C907.804 68.8765 907.887 69.0188 907.929 69.1755C907.97 69.3321 907.968 69.4972 907.923 69.6527L906.181 75.4301C906.134 75.5839 906.045 75.7217 905.924 75.8277C905.803 75.9337 905.655 76.0038 905.496 76.03C903.905 76.2967 901.603 78.0388 900.541 79.0653L902.288 86.527C903.696 86.9714 906.536 87.5136 908.065 87.0425C908.22 86.997 908.385 86.9949 908.542 87.0364C908.699 87.0779 908.841 87.1615 908.954 87.2781L913.078 91.6733C913.188 91.7901 913.262 91.9352 913.294 92.0923C913.325 92.2494 913.312 92.4121 913.256 92.5621C912.691 94.0731 913.051 96.9351 913.407 98.3706L920.744 100.593C921.833 99.5927 923.717 97.4062 924.086 95.8374C924.121 95.6801 924.201 95.5361 924.315 95.422C924.429 95.308 924.573 95.2285 924.73 95.193L930.597 93.8154C930.753 93.7789 930.917 93.7871 931.07 93.8389C931.222 93.8907 931.357 93.9842 931.459 94.1087C932.485 95.353 935.147 96.4729 936.565 96.8818L942.156 91.6377C941.84 90.2023 940.889 87.4736 939.711 86.3715ZM932.69 80.2919C932.153 82.0697 931.1 83.6482 929.666 84.828C928.232 86.0078 926.48 86.7358 924.632 86.9199C922.784 87.1041 920.923 86.7362 919.284 85.8626C917.645 84.9891 916.302 83.6492 915.424 82.0124C914.547 80.3756 914.175 78.5154 914.354 76.667C914.534 74.8185 915.258 73.0649 916.434 71.6278C917.611 70.1907 919.187 69.1347 920.963 68.5933C922.74 68.0519 924.637 68.0494 926.415 68.5861C927.595 68.9426 928.694 69.5282 929.649 70.3094C930.603 71.0906 931.394 72.0522 931.977 73.1392C932.56 74.2262 932.923 75.4174 933.045 76.6447C933.167 77.8719 933.046 79.1113 932.69 80.2919Z" fill="#E37D38"/>
<rect x="782" y="369.35" width="83.2883" height="67.6202" fill="#EEAB34"/>
<path d="M836.37 415.468C836.612 415.107 836.899 414.779 837.225 414.492C837.903 413.826 838.736 412.983 839.713 412.007C841.835 409.921 844.8 407.071 848.088 403.943L848.166 403.876V404.298C844.834 401.225 841.868 398.43 839.736 396.389L837.236 393.948C836.907 393.67 836.615 393.349 836.37 392.994C836.734 393.221 837.072 393.485 837.381 393.782L840.013 396.089C842.235 398.053 845.245 400.803 848.566 403.854L848.788 404.065L848.566 404.275L848.488 404.353C845.156 407.47 842.19 410.276 840.002 412.284L837.381 414.647C837.076 414.958 836.737 415.233 836.37 415.468Z" fill="white" stroke="white" stroke-width="0.617579"/>
<path d="M810.757 392.994C810.516 393.355 810.228 393.683 809.902 393.971L807.403 396.455C805.282 398.541 802.327 401.391 799.04 404.519L798.962 404.586V404.164C802.294 407.237 805.248 410.032 807.392 412.073L809.891 414.514C810.221 414.792 810.512 415.113 810.757 415.468C810.391 415.246 810.051 414.981 809.747 414.68C809.025 414.059 808.147 413.282 807.114 412.373C804.893 410.41 801.883 407.659 798.562 404.608L798.34 404.397L798.562 404.187L798.64 404.109C801.972 400.992 804.937 398.186 807.125 396.178L809.747 393.815C810.055 393.509 810.394 393.234 810.757 392.994Z" fill="white" stroke="white" stroke-width="0.617579"/>
<path d="M817.335 420.759C817.19 420.759 819.878 413.183 823.332 403.976C826.787 394.769 829.73 387.337 829.886 387.393C830.041 387.448 827.342 394.969 823.877 404.176C820.411 413.383 817.479 420.814 817.335 420.759Z" fill="white" stroke="white" stroke-width="0.617579"/>
<path d="M866.113 379.35C866.113 379.505 847.308 379.639 824.128 379.639C800.948 379.639 782.133 379.505 782.133 379.35C782.133 379.195 800.926 379.062 824.128 379.062C847.331 379.062 866.113 379.184 866.113 379.35Z" fill="white"/>
<path d="M788.965 374.411C788.965 374.63 788.899 374.845 788.777 375.027C788.655 375.21 788.482 375.352 788.279 375.436C788.076 375.52 787.853 375.542 787.637 375.499C787.422 375.456 787.224 375.35 787.068 375.195C786.913 375.04 786.807 374.843 786.765 374.627C786.722 374.412 786.744 374.189 786.828 373.987C786.912 373.784 787.054 373.611 787.237 373.489C787.419 373.367 787.634 373.302 787.854 373.302C788.148 373.302 788.431 373.419 788.639 373.627C788.848 373.835 788.965 374.117 788.965 374.411Z" fill="white"/>
<path d="M793.051 374.411C793.051 374.63 792.986 374.845 792.864 375.027C792.742 375.21 792.569 375.352 792.366 375.436C792.163 375.52 791.94 375.542 791.724 375.499C791.509 375.456 791.311 375.35 791.155 375.195C791 375.04 790.894 374.843 790.851 374.627C790.809 374.412 790.831 374.189 790.915 373.987C790.999 373.784 791.141 373.611 791.324 373.489C791.506 373.367 791.721 373.302 791.941 373.302C792.235 373.302 792.518 373.419 792.726 373.627C792.934 373.835 793.051 374.117 793.051 374.411Z" fill="white"/>
<path d="M797.141 374.411C797.141 374.63 797.076 374.845 796.954 375.027C796.832 375.21 796.659 375.352 796.456 375.436C796.253 375.52 796.029 375.542 795.814 375.499C795.598 375.456 795.401 375.35 795.245 375.195C795.09 375.04 794.984 374.843 794.941 374.627C794.898 374.412 794.92 374.189 795.004 373.987C795.089 373.784 795.231 373.611 795.414 373.489C795.596 373.367 795.811 373.302 796.031 373.302C796.325 373.302 796.608 373.419 796.816 373.627C797.024 373.835 797.141 374.117 797.141 374.411Z" fill="white"/>
<g opacity="0.7">
<rect x="403.852" y="218.623" width="111.164" height="149.454" fill="white" stroke="#5B5151" stroke-opacity="0.1" stroke-width="0.630031" stroke-miterlimit="10"/>
<path d="M484.285 233.445H435.811C433.849 233.445 432.259 235.032 432.259 236.99V285.372C432.259 287.33 433.849 288.917 435.811 288.917H484.285C486.247 288.917 487.837 287.33 487.837 285.372V236.99C487.837 235.032 486.247 233.445 484.285 233.445Z" fill="#FEF3F4"/>
<path d="M439.36 277.313L450.159 257.879C450.448 257.36 450.864 256.921 451.368 256.603C451.871 256.286 452.447 256.1 453.042 256.062C453.636 256.025 454.231 256.138 454.771 256.39C455.31 256.642 455.778 257.026 456.13 257.505L462.359 265.986C462.668 266.41 463.068 266.76 463.53 267.011C463.992 267.262 464.504 267.407 465.029 267.436C465.553 267.466 466.078 267.378 466.565 267.181C467.052 266.983 467.489 266.679 467.844 266.293C468.211 265.893 468.664 265.582 469.17 265.385C469.676 265.187 470.22 265.108 470.761 265.153C471.302 265.198 471.826 265.366 472.292 265.645C472.758 265.923 473.154 266.304 473.449 266.759L480.17 277.12C480.517 277.655 480.713 278.274 480.737 278.911C480.761 279.548 480.613 280.18 480.308 280.74C480.003 281.3 479.552 281.767 479.003 282.093C478.454 282.419 477.828 282.591 477.189 282.592H442.464C441.844 282.592 441.235 282.431 440.696 282.124C440.158 281.817 439.71 281.374 439.396 280.84C439.082 280.307 438.914 279.7 438.907 279.081C438.901 278.463 439.057 277.853 439.36 277.313Z" fill="#D55A5F"/>
<path d="M460.673 248.799C460.673 247.96 460.922 247.139 461.389 246.442C461.856 245.744 462.52 245.201 463.296 244.88C464.073 244.558 464.928 244.474 465.752 244.638C466.576 244.802 467.334 245.206 467.928 245.799C468.522 246.392 468.927 247.148 469.091 247.971C469.255 248.794 469.171 249.647 468.849 250.422C468.528 251.197 467.983 251.859 467.284 252.326C466.585 252.792 465.763 253.04 464.923 253.04C463.796 253.04 462.715 252.594 461.918 251.798C461.121 251.003 460.673 249.924 460.673 248.799Z" fill="#D55A5F"/>
<rect opacity="0.3" x="489.076" y="306.319" width="17.2922" height="6.17579" rx="2.47032" fill="#5B5151"/>
<rect opacity="0.5" x="408.791" y="306.319" width="58.0524" height="6.17579" rx="2.47032" fill="#F4F4EA"/>
<rect opacity="0.5" x="408.791" y="318.671" width="101.283" height="6.17579" rx="2.47032" fill="#F4F4EA"/>
<rect opacity="0.9" x="408.791" y="334.728" width="98.8127" height="16.0571" rx="8.02853" fill="#E37D38"/>
</g>
<g opacity="0.7">
<rect x="529.838" y="217.388" width="111.164" height="149.454" fill="white" stroke="#5B5151" stroke-opacity="0.1" stroke-width="0.630031" stroke-miterlimit="10"/>
<path d="M610.271 232.21H561.798C559.836 232.21 558.245 233.797 558.245 235.756V284.137C558.245 286.095 559.836 287.682 561.798 287.682H610.271C612.233 287.682 613.823 286.095 613.823 284.137V235.756C613.823 233.797 612.233 232.21 610.271 232.21Z" fill="#FEF3F4"/>
<path d="M565.349 276.078L576.147 256.645C576.436 256.125 576.852 255.686 577.356 255.368C577.86 255.051 578.435 254.865 579.03 254.828C579.625 254.79 580.219 254.903 580.759 255.155C581.298 255.407 581.766 255.791 582.118 256.27L588.347 264.751C588.657 265.175 589.057 265.525 589.518 265.776C589.98 266.027 590.492 266.172 591.017 266.202C591.542 266.231 592.067 266.144 592.553 265.946C593.04 265.748 593.477 265.445 593.832 265.058C594.199 264.658 594.653 264.348 595.158 264.15C595.664 263.953 596.208 263.873 596.749 263.918C597.291 263.963 597.814 264.131 598.28 264.41C598.746 264.688 599.142 265.069 599.437 265.524L606.158 275.885C606.505 276.42 606.701 277.039 606.725 277.676C606.75 278.313 606.602 278.945 606.296 279.505C605.991 280.065 605.541 280.532 604.992 280.858C604.443 281.184 603.816 281.356 603.177 281.357H568.452C567.832 281.357 567.223 281.196 566.685 280.889C566.146 280.582 565.698 280.139 565.384 279.606C565.07 279.072 564.902 278.465 564.896 277.847C564.889 277.228 565.046 276.618 565.349 276.078Z" fill="#D55A5F"/>
<path d="M586.66 247.564C586.66 246.725 586.909 245.905 587.376 245.207C587.843 244.509 588.507 243.966 589.284 243.645C590.06 243.324 590.915 243.24 591.739 243.403C592.564 243.567 593.321 243.971 593.915 244.564C594.51 245.157 594.915 245.913 595.079 246.736C595.242 247.559 595.158 248.412 594.837 249.187C594.515 249.962 593.97 250.625 593.271 251.091C592.572 251.557 591.751 251.806 590.91 251.806C589.783 251.806 588.702 251.359 587.905 250.563C587.108 249.768 586.66 248.689 586.66 247.564Z" fill="#D55A5F"/>
<rect opacity="0.3" x="615.062" y="305.084" width="17.2922" height="6.17579" rx="2.47032" fill="#5B5151"/>
<rect opacity="0.5" x="534.776" y="305.084" width="58.0524" height="6.17579" rx="2.47032" fill="#F4F4EA"/>
<rect opacity="0.5" x="534.776" y="317.436" width="101.283" height="6.17579" rx="2.47032" fill="#F4F4EA"/>
<rect opacity="0.9" x="534.776" y="333.493" width="98.8127" height="16.0571" rx="8.02853" fill="#E37D38"/>
</g>
<g opacity="0.3">
<rect x="655.824" y="218.623" width="111.164" height="149.454" fill="white" stroke="#5B5151" stroke-opacity="0.1" stroke-width="0.630031" stroke-miterlimit="10"/>
<path d="M736.257 233.445H687.784C685.822 233.445 684.231 235.032 684.231 236.99V285.372C684.231 287.33 685.822 288.917 687.784 288.917H736.257C738.219 288.917 739.81 287.33 739.81 285.372V236.99C739.81 235.032 738.219 233.445 736.257 233.445Z" fill="#FEF3F4"/>
<path d="M691.335 277.313L702.134 257.879C702.423 257.36 702.838 256.921 703.342 256.603C703.846 256.286 704.422 256.1 705.016 256.062C705.611 256.025 706.206 256.138 706.745 256.39C707.285 256.642 707.752 257.026 708.104 257.505L714.333 265.986C714.643 266.41 715.043 266.76 715.505 267.011C715.966 267.262 716.478 267.407 717.003 267.436C717.528 267.466 718.053 267.378 718.54 267.181C719.027 266.983 719.463 266.679 719.819 266.293C720.185 265.893 720.639 265.582 721.145 265.385C721.65 265.187 722.195 265.108 722.736 265.153C723.277 265.198 723.801 265.366 724.266 265.645C724.732 265.923 725.128 266.304 725.424 266.759L732.144 277.12C732.491 277.655 732.687 278.274 732.712 278.911C732.736 279.548 732.588 280.18 732.283 280.74C731.978 281.3 731.527 281.767 730.978 282.093C730.429 282.419 729.802 282.591 729.164 282.592H694.439C693.819 282.592 693.209 282.431 692.671 282.124C692.133 281.817 691.684 281.374 691.37 280.84C691.057 280.307 690.888 279.7 690.882 279.081C690.876 278.463 691.032 277.853 691.335 277.313Z" fill="#D55A5F"/>
<path d="M712.646 248.799C712.646 247.96 712.896 247.139 713.363 246.442C713.83 245.744 714.493 245.201 715.27 244.88C716.047 244.558 716.901 244.474 717.726 244.638C718.55 244.802 719.307 245.206 719.902 245.799C720.496 246.392 720.901 247.148 721.065 247.971C721.229 248.794 721.145 249.647 720.823 250.422C720.501 251.197 719.957 251.859 719.258 252.326C718.559 252.792 717.737 253.04 716.896 253.04C715.769 253.04 714.688 252.594 713.891 251.798C713.094 251.003 712.646 249.924 712.646 248.799Z" fill="#D55A5F"/>
<rect opacity="0.3" x="741.048" y="306.319" width="17.2922" height="6.17579" rx="2.47032" fill="#5B5151"/>
<rect opacity="0.5" x="660.764" y="306.319" width="58.0524" height="6.17579" rx="2.47032" fill="#F4F4EA"/>
<rect opacity="0.5" x="660.763" y="318.671" width="101.283" height="6.17579" rx="2.47032" fill="#F4F4EA"/>
<rect opacity="0.9" x="660.763" y="334.728" width="98.8127" height="16.0571" rx="8.02853" fill="#E37D38"/>
</g>
<g clip-path="url(#clip2)">
<rect x="235.868" y="217.388" width="142.043" height="289.027" fill="white" stroke="#5B5151" stroke-opacity="0.1" stroke-width="0.630031" stroke-miterlimit="10"/>
</g>
<rect x="249.456" y="243.326" width="104.988" height="6.17579" rx="2.47032" fill="#FEF3F4"/>
<rect x="249.456" y="254.443" width="104.988" height="6.17579" rx="2.47032" fill="#FEF3F4"/>
<rect x="249.455" y="232.21" width="24.7032" height="6.17579" rx="2.47032" fill="#FEF3F4"/>
<rect x="618" y="30" width="154.395" height="129.692" rx="12.3516" fill="#FEF3F4"/>
<path d="M743.886 108.686L746.68 108.51C746.68 108.51 750.411 110.926 750.594 111.874C750.778 112.821 750.364 114.89 750.929 115.1C751.493 115.31 752.666 115.415 753.294 114.089C753.751 113.134 753.041 109.811 753.353 109.559C753.542 109.402 755.149 109.255 756.321 109.165C756.702 109.136 757.066 109 757.375 108.774C757.684 108.547 757.925 108.239 758.071 107.882C758.173 107.642 758.192 107.375 758.123 107.123C758.054 106.872 757.903 106.652 757.694 106.499L757.029 106.014L757.465 105.304C757.623 105.049 757.676 104.743 757.613 104.45C757.55 104.156 757.375 103.9 757.127 103.735L756.91 102.971C757.004 102.843 757.07 102.696 757.104 102.54C757.138 102.384 757.14 102.222 757.109 102.066C757.078 101.909 757.015 101.761 756.924 101.63C756.832 101.5 756.715 101.39 756.58 101.308L756.111 101.021L756.168 100.891C756.281 100.631 756.295 100.338 756.206 100.068C756.118 99.7988 755.933 99.5721 755.689 99.4323L755.226 99.1687L747.785 99.6405C747.087 99.6848 746.405 99.8753 745.783 100.2L743.195 100.811C743.059 100.845 742.94 100.926 742.859 101.041C742.778 101.155 742.739 101.295 742.751 101.436L743.272 108.138C743.282 108.293 743.353 108.437 743.468 108.54C743.582 108.642 743.733 108.695 743.886 108.686Z" fill="#F9C9B6"/>
<path d="M638.181 52.7393H642.76C643.897 52.7393 644.781 53.016 645.414 53.5693C646.046 54.1128 646.362 54.8588 646.362 55.8074C646.362 56.756 646.041 57.507 645.399 58.0603C644.766 58.6137 643.887 58.8904 642.76 58.8904H640.093V63.2925H638.181V52.7393ZM642.538 57.4082C643.2 57.4082 643.699 57.2748 644.035 57.008C644.381 56.7313 644.554 56.3361 644.554 55.8222C644.554 55.2985 644.386 54.9033 644.05 54.6365C643.714 54.3598 643.21 54.2215 642.538 54.2215H640.093V57.4082H642.538ZM648.349 52.7393H655.404V54.2511H650.216V57.171H655.093V58.6829H650.216V61.7806H655.404V63.2925H648.349V52.7393ZM666.146 63.2925H664.13L662.781 59.7797C662.662 59.4536 662.48 59.2263 662.233 59.0979C661.986 58.9694 661.664 58.9052 661.269 58.9052H659.357V63.2925H657.46V52.7393H661.981C663.176 52.7393 664.085 53.0011 664.708 53.5248C665.33 54.0486 665.642 54.7995 665.642 55.7778C665.642 56.4793 665.454 57.0772 665.078 57.5712C664.713 58.0554 664.189 58.4013 663.507 58.6088C664.13 58.7372 664.579 59.172 664.856 59.9131L666.146 63.2925ZM661.714 57.423C662.435 57.423 662.969 57.2896 663.315 57.0228C663.661 56.756 663.833 56.3509 663.833 55.8074C663.833 55.2738 663.661 54.8786 663.315 54.6217C662.979 54.3549 662.445 54.2215 661.714 54.2215H659.328V57.423H661.714ZM668.164 52.7393H675.056V54.2659H670.061V57.1562H674.759V58.6977H670.061V63.2925H668.164V52.7393ZM681.481 63.4259C680.463 63.4259 679.574 63.2085 678.813 62.7737C678.062 62.3291 677.479 61.7016 677.064 60.8913C676.659 60.0712 676.456 59.1078 676.456 58.0011C676.456 56.9042 676.659 55.9507 677.064 55.1404C677.469 54.3203 678.047 53.6928 678.798 53.2581C679.559 52.8233 680.453 52.6059 681.481 52.6059C682.509 52.6059 683.398 52.8233 684.149 53.2581C684.91 53.6928 685.488 54.3203 685.883 55.1404C686.288 55.9507 686.491 56.9042 686.491 58.0011C686.491 59.1078 686.288 60.0712 685.883 60.8913C685.478 61.7016 684.9 62.3291 684.149 62.7737C683.398 63.2085 682.509 63.4259 681.481 63.4259ZM681.481 61.8992C682.459 61.8992 683.22 61.5633 683.764 60.8913C684.307 60.2194 684.579 59.256 684.579 58.0011C684.579 56.756 684.307 55.8025 683.764 55.1404C683.22 54.4685 682.459 54.1325 681.481 54.1325C680.503 54.1325 679.742 54.4636 679.199 55.1256C678.655 55.7877 678.383 56.7461 678.383 58.0011C678.383 59.256 678.655 60.2194 679.199 60.8913C679.742 61.5633 680.503 61.8992 681.481 61.8992ZM697.431 63.2925H695.416L694.067 59.7797C693.948 59.4536 693.765 59.2263 693.518 59.0979C693.271 58.9694 692.95 58.9052 692.555 58.9052H690.643V63.2925H688.746V52.7393H693.266C694.462 52.7393 695.371 53.0011 695.994 53.5248C696.616 54.0486 696.927 54.7995 696.927 55.7778C696.927 56.4793 696.74 57.0772 696.364 57.5712C695.999 58.0554 695.475 58.4013 694.793 58.6088C695.416 58.7372 695.865 59.172 696.142 59.9131L697.431 63.2925ZM693 57.423C693.721 57.423 694.255 57.2896 694.6 57.0228C694.946 56.756 695.119 56.3509 695.119 55.8074C695.119 55.2738 694.946 54.8786 694.6 54.6217C694.264 54.3549 693.731 54.2215 693 54.2215H690.613V57.423H693ZM709.736 52.7393V63.2925H708.046V56.7412L705.245 63.2925H703.985L701.169 56.8153V63.2925H699.479V52.7393H700.991L704.622 60.9951L708.224 52.7393H709.736ZM719.349 60.8172H714.191L713.124 63.2925H711.197L715.97 52.7393H717.526L722.314 63.2925H720.402L719.349 60.8172ZM718.712 59.335L716.77 54.8144L714.829 59.335H718.712ZM732.645 52.7393V63.2925H731.222L725.53 55.8964V63.2925H723.752V52.7393H725.174L730.851 60.1206V52.7393H732.645ZM740.024 63.4259C738.987 63.4259 738.078 63.2035 737.297 62.7589C736.526 62.3142 735.933 61.6868 735.518 60.8765C735.103 60.0564 734.896 59.0979 734.896 58.0011C734.896 56.9141 735.103 55.9655 735.518 55.1553C735.933 54.3351 736.526 53.7076 737.297 53.2729C738.078 52.8282 738.987 52.6059 740.024 52.6059C740.736 52.6059 741.403 52.7195 742.025 52.9468C742.658 53.1642 743.181 53.4705 743.596 53.8658L742.974 55.259C742.5 54.8736 742.025 54.597 741.551 54.429C741.086 54.2511 740.587 54.1622 740.054 54.1622C739.036 54.1622 738.246 54.4932 737.682 55.1553C737.129 55.8173 736.852 56.7659 736.852 58.0011C736.852 59.2461 737.129 60.2046 737.682 60.8765C738.236 61.5386 739.026 61.8696 740.054 61.8696C740.587 61.8696 741.086 61.7856 741.551 61.6176C742.025 61.4397 742.5 61.1581 742.974 60.7728L743.596 62.166C743.181 62.5613 742.658 62.8725 742.025 63.0998C741.403 63.3172 740.736 63.4259 740.024 63.4259ZM745.68 52.7393H752.735V54.2511H747.547V57.171H752.424V58.6829H747.547V61.7806H752.735V63.2925H745.68V52.7393Z" fill="#E37D38"/>
<circle cx="694.577" cy="109.05" r="32.1141" fill="white"/>
<path d="M694.811 76.937C700.163 76.9758 705.42 78.3515 710.105 80.9392C714.79 83.5268 718.754 87.2443 721.637 91.7538L718.72 93.6179C716.148 89.5945 712.612 86.2776 708.432 83.9688C704.252 81.6601 699.561 80.4326 694.786 80.398L694.811 76.937Z" fill="#E37D38"/>
<path d="M694.326 112.378V113.934H687.819V112.378H690.131V105.574L687.982 106.864V105.159L690.917 103.381H692.028V112.378H694.326ZM703.465 103.381V104.804L698.677 113.934H696.632L701.405 104.937H696.113V103.381H703.465Z" fill="#E37D38"/>
<rect x="249.456" y="292.733" width="104.988" height="6.17579" rx="2.47032" fill="#FEF3F4"/>
<rect x="249.456" y="303.849" width="104.988" height="6.17579" rx="2.47032" fill="#FEF3F4"/>
<rect x="249.455" y="281.616" width="24.7032" height="6.17579" rx="2.47032" fill="#FEF3F4"/>
<rect x="249.456" y="349.55" width="104.988" height="6.17579" rx="2.47032" fill="#FEF3F4"/>
<rect x="249.456" y="360.667" width="104.988" height="6.17579" rx="2.47032" fill="#FEF3F4"/>
<rect x="249.456" y="371.783" width="104.988" height="6.17579" rx="2.47032" fill="#FEF3F4"/>
<rect x="249.456" y="382.899" width="104.988" height="6.17579" rx="2.47032" fill="#FEF3F4"/>
<rect x="249.455" y="338.434" width="24.7032" height="6.17579" rx="2.47032" fill="#FEF3F4"/>
<rect x="249.455" y="412.543" width="24.7032" height="6.17579" rx="2.47032" fill="#FEF3F4"/>
<circle cx="254.397" cy="433.54" r="4.94063" fill="#EEAB34"/>
<circle cx="269.219" cy="433.54" r="4.94063" fill="#EEAB34"/>
<circle cx="284.04" cy="433.54" r="4.94063" fill="#EEAB34"/>
<circle cx="298.863" cy="433.54" r="4.94063" fill="#EEAB34"/>
<circle cx="313.684" cy="433.54" r="4.94063" fill="#EEAB34"/>
<path d="M442.147 34H366.036V88.1833H442.147V34Z" fill="#EEAB34"/>
<path d="M391.701 59.1541V69.9576H389.208V65.548H384.314V69.9576H381.821V59.1541H384.314V63.3983H389.208V59.1541H391.701Z" fill="white"/>
<path d="M396.475 61.1843H393.025V59.1541H402.417V61.1843H398.968V69.9576H396.475V61.1843Z" fill="white"/>
<path d="M403.763 59.1541H406.256V67.8814H411.655V69.9576H403.763V59.1541Z" fill="white"/>
<path d="M422.856 69.9576V63.5269L419.683 68.8369H418.551L415.396 63.6647V69.9576H413.032V59.1541H415.093L419.131 65.842L423.096 59.1541H425.138V69.9117L422.856 69.9576Z" fill="white"/>
<path d="M442.745 42.0379C442.745 42.1665 425.562 42.2768 404.368 42.2768C383.174 42.2768 366 42.1665 366 42.0379C366 41.9093 383.174 41.7991 404.368 41.7991C425.562 41.7991 442.745 41.9001 442.745 42.0379Z" fill="white"/>
<path d="M372.245 38.0805C372.267 38.2872 372.226 38.4959 372.128 38.6789C372.029 38.862 371.877 39.0108 371.692 39.1059C371.506 39.2009 371.297 39.2377 371.09 39.2113C370.884 39.185 370.69 39.0967 370.535 38.9582C370.379 38.8197 370.27 38.6375 370.22 38.4355C370.17 38.2335 370.183 38.0213 370.257 37.8267C370.331 37.6322 370.462 37.4646 370.633 37.3459C370.804 37.2272 371.007 37.163 371.215 37.1618C371.343 37.1544 371.471 37.1722 371.592 37.2144C371.713 37.2566 371.825 37.3222 371.921 37.4076C372.017 37.4929 372.094 37.5963 372.15 37.7118C372.206 37.8272 372.238 37.9525 372.245 38.0805Z" fill="white"/>
<path d="M375.981 38.0805C376.004 38.2872 375.963 38.4959 375.864 38.6789C375.765 38.862 375.613 39.0108 375.428 39.1059C375.243 39.2009 375.033 39.2377 374.826 39.2113C374.62 39.185 374.426 39.0967 374.271 38.9582C374.116 38.8197 374.006 38.6375 373.956 38.4355C373.907 38.2335 373.92 38.0213 373.993 37.8267C374.067 37.6322 374.198 37.4646 374.369 37.3459C374.54 37.2272 374.743 37.163 374.951 37.1618C375.079 37.1544 375.207 37.1722 375.329 37.2144C375.45 37.2566 375.561 37.3222 375.657 37.4076C375.753 37.4929 375.831 37.5963 375.886 37.7118C375.942 37.8272 375.974 37.9525 375.981 38.0805Z" fill="white"/>
<path d="M379.716 38.0805C379.738 38.2872 379.697 38.4959 379.598 38.6789C379.499 38.862 379.347 39.0108 379.162 39.1059C378.977 39.2009 378.767 39.2377 378.561 39.2113C378.354 39.185 378.161 39.0967 378.005 38.9582C377.85 38.8197 377.74 38.6375 377.691 38.4355C377.641 38.2335 377.654 38.0213 377.728 37.8267C377.801 37.6322 377.932 37.4646 378.103 37.3459C378.274 37.2272 378.477 37.163 378.685 37.1618C378.814 37.1544 378.942 37.1722 379.063 37.2144C379.184 37.2566 379.296 37.3222 379.392 37.4076C379.487 37.4929 379.565 37.5963 379.621 37.7118C379.676 37.8272 379.709 37.9525 379.716 38.0805Z" fill="white"/>
<path d="M281.079 446.164H149.509C146.936 446.163 144.455 445.204 142.552 443.475C140.648 441.745 139.459 439.368 139.217 436.809L130.926 348.957C130.792 347.543 130.952 346.116 131.396 344.766C131.841 343.416 132.559 342.172 133.507 341.112C134.455 340.053 135.611 339.2 136.904 338.607C138.197 338.014 139.599 337.694 141.022 337.668L280.876 335.002C282.25 334.976 283.615 335.223 284.892 335.73C286.169 336.238 287.332 336.994 288.313 337.955C289.293 338.916 290.072 340.063 290.604 341.328C291.136 342.593 291.41 343.952 291.409 345.324V435.839C291.409 438.576 290.321 441.201 288.384 443.137C286.447 445.073 283.82 446.162 281.079 446.164Z" fill="url(#paint0_linear)"/>
<path d="M139.334 356.786L145.217 432.756C145.342 434.346 146.059 435.833 147.226 436.922C148.394 438.011 149.927 438.624 151.525 438.64L277.802 439.961C278.647 439.969 279.485 439.81 280.268 439.492C281.051 439.175 281.764 438.706 282.364 438.113C282.965 437.519 283.441 436.812 283.767 436.034C284.092 435.255 284.26 434.419 284.26 433.576V351.796C284.261 350.939 284.088 350.091 283.753 349.302C283.418 348.513 282.927 347.799 282.31 347.204C281.693 346.608 280.963 346.143 280.162 345.835C279.361 345.528 278.506 345.384 277.649 345.414L145.494 349.913C144.632 349.942 143.784 350.145 143.002 350.51C142.22 350.875 141.52 351.394 140.945 352.036C140.369 352.678 139.93 353.43 139.653 354.247C139.376 355.063 139.268 355.927 139.334 356.786Z" fill="white"/>
<path d="M206.764 356.088L277.973 353.959C278.146 353.954 278.319 353.983 278.481 354.046C278.642 354.109 278.79 354.203 278.914 354.324C279.039 354.444 279.138 354.589 279.205 354.748C279.273 354.908 279.308 355.079 279.307 355.252V356.398C279.307 356.737 279.173 357.063 278.934 357.305C278.695 357.547 278.371 357.685 278.031 357.691L206.82 358.671C206.648 358.673 206.478 358.641 206.319 358.578C206.16 358.514 206.015 358.419 205.893 358.298C205.772 358.178 205.675 358.035 205.609 357.877C205.543 357.718 205.509 357.549 205.51 357.378C205.509 357.042 205.64 356.719 205.874 356.477C206.109 356.236 206.428 356.097 206.764 356.088Z" fill="#F4F4EA"/>
<path d="M278 362.05H206.792C206.077 362.05 205.497 362.629 205.497 363.343V363.832C205.497 364.546 206.077 365.125 206.792 365.125H278C278.715 365.125 279.295 364.546 279.295 363.832V363.343C279.295 362.629 278.715 362.05 278 362.05Z" fill="url(#paint1_linear)"/>
<path d="M240.397 428.347C240.551 428.347 240.698 428.307 240.807 428.235C240.916 428.164 240.978 428.066 240.978 427.964V426.81C240.978 426.708 240.918 426.61 240.809 426.538C240.701 426.466 240.554 426.425 240.4 426.425C240.247 426.425 240.099 426.465 239.99 426.537C239.881 426.608 239.82 426.706 239.819 426.808V427.962C239.819 428.064 239.88 428.162 239.988 428.234C240.097 428.306 240.244 428.347 240.397 428.347ZM240.397 424.5C240.551 424.5 240.698 424.46 240.806 424.388C240.915 424.316 240.975 424.219 240.975 424.117V422.962C240.975 422.86 240.914 422.762 240.805 422.689C240.696 422.617 240.549 422.576 240.394 422.575C240.24 422.575 240.092 422.616 239.983 422.688C239.874 422.76 239.813 422.858 239.813 422.96V424.115C239.812 424.165 239.827 424.215 239.856 424.262C239.885 424.309 239.927 424.351 239.981 424.387C240.035 424.423 240.099 424.451 240.169 424.471C240.239 424.49 240.315 424.5 240.391 424.5H240.397ZM240.397 420.653C240.551 420.653 240.698 420.612 240.807 420.54C240.916 420.469 240.978 420.371 240.978 420.27V419.115C240.979 419.064 240.964 419.014 240.935 418.967C240.906 418.92 240.863 418.877 240.809 418.841C240.755 418.805 240.691 418.777 240.62 418.757C240.55 418.738 240.474 418.728 240.397 418.728C240.321 418.728 240.245 418.738 240.175 418.757C240.104 418.776 240.04 418.805 239.986 418.841C239.932 418.876 239.889 418.919 239.86 418.965C239.831 419.012 239.816 419.062 239.816 419.113V420.266C239.816 420.368 239.877 420.466 239.986 420.538C240.095 420.611 240.243 420.652 240.397 420.653ZM240.397 416.805C240.551 416.805 240.699 416.765 240.808 416.692C240.917 416.62 240.978 416.522 240.978 416.42V415.267C240.979 415.217 240.965 415.167 240.936 415.12C240.908 415.073 240.865 415.03 240.811 414.994C240.758 414.958 240.694 414.929 240.623 414.91C240.552 414.89 240.477 414.88 240.4 414.88C240.324 414.88 240.249 414.89 240.178 414.909C240.108 414.928 240.043 414.956 239.989 414.992C239.935 415.027 239.893 415.07 239.863 415.116C239.834 415.163 239.819 415.213 239.819 415.263V416.418C239.819 416.469 239.833 416.519 239.862 416.566C239.891 416.613 239.934 416.656 239.988 416.692C240.042 416.728 240.106 416.756 240.177 416.776C240.248 416.795 240.324 416.805 240.4 416.805H240.397Z" fill="url(#paint2_linear)"/>
<path d="M211.216 427.254C211.37 427.254 211.518 427.214 211.627 427.141C211.736 427.069 211.797 426.971 211.797 426.869V425.714C211.797 425.612 211.736 425.514 211.627 425.442C211.518 425.37 211.37 425.329 211.216 425.329C211.062 425.329 210.914 425.37 210.805 425.442C210.696 425.514 210.635 425.612 210.635 425.714V426.869C210.635 426.971 210.696 427.069 210.805 427.141C210.914 427.214 211.062 427.254 211.216 427.254ZM211.216 423.407C211.37 423.407 211.518 423.366 211.627 423.294C211.736 423.222 211.797 423.124 211.797 423.022V421.867C211.797 421.765 211.736 421.667 211.627 421.595C211.518 421.523 211.37 421.482 211.216 421.482C211.062 421.482 210.914 421.523 210.805 421.595C210.696 421.667 210.635 421.765 210.635 421.867V423.022C210.635 423.124 210.696 423.222 210.805 423.294C210.914 423.366 211.062 423.407 211.216 423.407ZM211.216 419.559C211.37 419.559 211.518 419.519 211.627 419.447C211.736 419.374 211.797 419.276 211.797 419.174V418.02C211.797 417.917 211.736 417.819 211.627 417.747C211.518 417.675 211.37 417.635 211.216 417.635C211.062 417.635 210.914 417.675 210.805 417.747C210.696 417.819 210.635 417.917 210.635 418.02V419.172C210.634 419.223 210.649 419.273 210.678 419.32C210.707 419.367 210.75 419.41 210.804 419.446C210.858 419.482 210.922 419.51 210.993 419.53C211.063 419.549 211.139 419.559 211.216 419.559ZM211.216 415.71C211.292 415.71 211.368 415.7 211.439 415.681C211.509 415.662 211.574 415.633 211.628 415.598C211.682 415.562 211.724 415.519 211.753 415.473C211.782 415.426 211.797 415.376 211.797 415.325V414.172C211.797 414.07 211.736 413.972 211.627 413.9C211.518 413.828 211.37 413.787 211.216 413.787C211.062 413.787 210.914 413.828 210.805 413.9C210.696 413.972 210.635 414.07 210.635 414.172V415.325C210.635 415.427 210.696 415.525 210.805 415.597C210.914 415.669 211.062 415.71 211.216 415.71ZM211.216 411.862C211.292 411.863 211.368 411.853 211.439 411.834C211.509 411.814 211.574 411.786 211.628 411.75C211.682 411.714 211.724 411.672 211.753 411.625C211.782 411.578 211.797 411.528 211.797 411.477V410.325C211.797 410.223 211.736 410.125 211.627 410.052C211.518 409.98 211.37 409.94 211.216 409.94C211.062 409.94 210.914 409.98 210.805 410.052C210.696 410.125 210.635 410.223 210.635 410.325V411.477C210.635 411.58 210.696 411.677 210.805 411.75C210.914 411.822 211.062 411.862 211.216 411.862Z" fill="url(#paint3_linear)"/>
<path d="M188.96 430.433C189.111 430.433 189.257 430.394 189.365 430.325C189.474 430.255 189.537 430.16 189.542 430.06L189.575 429.372C189.58 429.321 189.569 429.269 189.543 429.221C189.517 429.172 189.477 429.128 189.424 429.09C189.372 429.052 189.308 429.021 189.237 429C189.167 428.978 189.09 428.966 189.013 428.965C188.936 428.962 188.859 428.969 188.787 428.987C188.715 429.004 188.648 429.031 188.592 429.066C188.536 429.101 188.492 429.143 188.461 429.19C188.43 429.236 188.414 429.286 188.413 429.337L188.379 430.026C188.375 430.128 188.432 430.227 188.537 430.301C188.642 430.375 188.788 430.419 188.942 430.423L188.96 430.433ZM189.12 427.052C189.271 427.052 189.416 427.013 189.524 426.943C189.632 426.874 189.696 426.779 189.702 426.679L189.754 425.525C189.761 425.472 189.753 425.419 189.728 425.369C189.704 425.319 189.664 425.273 189.611 425.233C189.558 425.194 189.494 425.162 189.422 425.139C189.35 425.117 189.272 425.105 189.192 425.103C189.113 425.101 189.033 425.111 188.959 425.13C188.886 425.15 188.819 425.179 188.762 425.217C188.706 425.254 188.663 425.299 188.634 425.348C188.605 425.397 188.591 425.45 188.594 425.502L188.539 426.655C188.535 426.706 188.546 426.758 188.572 426.806C188.599 426.854 188.639 426.899 188.691 426.937C188.744 426.975 188.807 427.005 188.878 427.027C188.948 427.048 189.024 427.061 189.102 427.062L189.12 427.052ZM189.302 423.207C189.452 423.206 189.597 423.167 189.704 423.098C189.812 423.028 189.875 422.934 189.88 422.834L189.935 421.679C189.939 421.577 189.883 421.478 189.777 421.404C189.672 421.33 189.526 421.286 189.372 421.282C189.217 421.279 189.065 421.316 188.95 421.385C188.835 421.455 188.766 421.552 188.757 421.655L188.705 422.81C188.703 422.86 188.715 422.911 188.742 422.958C188.769 423.005 188.81 423.049 188.862 423.085C188.914 423.122 188.977 423.152 189.047 423.173C189.116 423.194 189.192 423.205 189.268 423.207H189.302ZM189.48 419.359C189.631 419.36 189.777 419.321 189.886 419.252C189.994 419.182 190.057 419.087 190.061 418.987L190.114 417.834C190.117 417.783 190.104 417.733 190.077 417.685C190.051 417.638 190.01 417.594 189.958 417.557C189.905 417.52 189.842 417.491 189.772 417.47C189.703 417.449 189.627 417.438 189.551 417.437C189.397 417.434 189.249 417.472 189.137 417.542C189.026 417.612 188.96 417.708 188.954 417.809L188.899 418.964C188.895 419.066 188.952 419.165 189.057 419.239C189.163 419.313 189.308 419.356 189.462 419.359H189.48ZM189.662 415.506C189.812 415.505 189.956 415.466 190.064 415.397C190.172 415.327 190.235 415.233 190.24 415.133L190.295 413.98C190.298 413.93 190.285 413.879 190.258 413.832C190.231 413.785 190.19 413.741 190.138 413.704C190.086 413.668 190.023 413.638 189.953 413.617C189.884 413.596 189.809 413.585 189.732 413.583C189.655 413.581 189.578 413.588 189.505 413.606C189.432 413.623 189.365 413.65 189.308 413.685C189.25 413.719 189.204 413.761 189.171 413.808C189.139 413.854 189.12 413.905 189.117 413.956L189.065 415.109C189.062 415.159 189.074 415.21 189.101 415.257C189.128 415.305 189.169 415.348 189.221 415.385C189.273 415.422 189.336 415.452 189.406 415.472C189.476 415.493 189.551 415.504 189.628 415.506H189.662ZM189.84 411.66C189.991 411.66 190.136 411.622 190.245 411.552C190.353 411.482 190.417 411.388 190.421 411.288L190.477 410.133C190.481 410.031 190.424 409.932 190.318 409.858C190.213 409.784 190.067 409.741 189.914 409.738C189.836 409.734 189.758 409.74 189.684 409.757C189.61 409.774 189.542 409.801 189.485 409.836C189.427 409.871 189.381 409.913 189.349 409.96C189.317 410.008 189.3 410.059 189.299 410.11L189.243 411.263C189.239 411.365 189.296 411.464 189.401 411.538C189.507 411.613 189.652 411.657 189.806 411.66H189.84ZM190.021 407.815C190.172 407.815 190.317 407.775 190.425 407.706C190.534 407.637 190.597 407.542 190.603 407.442L190.655 406.287C190.659 406.185 190.602 406.087 190.497 406.012C190.392 405.938 190.246 405.894 190.092 405.89C190.016 405.888 189.94 405.896 189.868 405.914C189.796 405.931 189.731 405.958 189.675 405.993C189.619 406.028 189.575 406.07 189.544 406.116C189.513 406.162 189.497 406.212 189.496 406.263L189.44 407.418C189.436 407.52 189.493 407.619 189.598 407.693C189.704 407.767 189.849 407.811 190.003 407.815H190.021Z" fill="url(#paint4_linear)"/>
<path d="M167.807 428.279C167.961 428.279 168.109 428.238 168.217 428.166C168.326 428.094 168.388 427.996 168.388 427.894V426.739C168.388 426.637 168.326 426.539 168.217 426.467C168.109 426.395 167.961 426.354 167.807 426.354C167.653 426.354 167.505 426.395 167.396 426.467C167.287 426.539 167.226 426.637 167.226 426.739V427.894C167.226 427.996 167.287 428.094 167.396 428.166C167.505 428.238 167.653 428.279 167.807 428.279ZM167.807 424.43C167.883 424.43 167.959 424.42 168.029 424.401C168.1 424.382 168.164 424.353 168.218 424.317C168.272 424.282 168.315 424.239 168.344 424.192C168.373 424.145 168.388 424.095 168.388 424.045V422.892C168.388 422.79 168.326 422.692 168.217 422.62C168.109 422.547 167.961 422.507 167.807 422.507C167.653 422.507 167.505 422.547 167.396 422.62C167.287 422.692 167.226 422.79 167.226 422.892V424.045C167.226 424.147 167.287 424.245 167.396 424.317C167.505 424.389 167.653 424.43 167.807 424.43ZM167.807 420.582C167.883 420.582 167.959 420.573 168.029 420.553C168.1 420.534 168.164 420.506 168.218 420.47C168.272 420.434 168.315 420.392 168.344 420.345C168.373 420.298 168.388 420.248 168.388 420.197V419.044C168.388 418.942 168.326 418.844 168.217 418.772C168.109 418.7 167.961 418.659 167.807 418.659C167.653 418.659 167.505 418.7 167.396 418.772C167.287 418.844 167.226 418.942 167.226 419.044V420.189C167.224 420.24 167.238 420.291 167.266 420.339C167.295 420.386 167.337 420.43 167.391 420.466C167.445 420.503 167.51 420.532 167.581 420.552C167.653 420.572 167.729 420.582 167.807 420.582ZM167.807 416.735C167.883 416.735 167.959 416.725 168.029 416.706C168.1 416.687 168.164 416.658 168.218 416.623C168.272 416.587 168.315 416.544 168.344 416.497C168.373 416.451 168.388 416.4 168.388 416.35V415.195C168.388 415.093 168.326 414.995 168.217 414.923C168.109 414.85 167.961 414.81 167.807 414.81C167.653 414.81 167.505 414.85 167.396 414.923C167.287 414.995 167.226 415.093 167.226 415.195V416.35C167.229 416.45 167.291 416.546 167.4 416.617C167.509 416.687 167.655 416.727 167.807 416.727V416.735ZM167.807 412.887C167.961 412.887 168.109 412.847 168.217 412.774C168.326 412.702 168.388 412.604 168.388 412.502V411.347C168.388 411.245 168.326 411.147 168.217 411.075C168.109 411.003 167.961 410.962 167.807 410.962C167.653 410.962 167.505 411.003 167.396 411.075C167.287 411.147 167.226 411.245 167.226 411.347V412.502C167.226 412.604 167.287 412.702 167.396 412.774C167.505 412.847 167.653 412.887 167.807 412.887ZM167.807 409.04C167.961 409.04 168.109 408.999 168.217 408.927C168.326 408.855 168.388 408.757 168.388 408.655V407.5C168.388 407.398 168.326 407.3 168.217 407.228C168.109 407.156 167.961 407.115 167.807 407.115C167.653 407.115 167.505 407.156 167.396 407.228C167.287 407.3 167.226 407.398 167.226 407.5V408.655C167.226 408.757 167.287 408.855 167.396 408.927C167.505 408.999 167.653 409.04 167.807 409.04ZM167.807 405.19C167.883 405.191 167.958 405.181 168.029 405.162C168.099 405.143 168.163 405.114 168.217 405.079C168.271 405.043 168.314 405.001 168.343 404.954C168.373 404.908 168.388 404.858 168.388 404.807V403.653C168.388 403.55 168.326 403.453 168.217 403.38C168.109 403.308 167.961 403.268 167.807 403.268C167.653 403.268 167.505 403.308 167.396 403.38C167.287 403.453 167.226 403.55 167.226 403.653V404.807C167.226 404.909 167.288 405.007 167.397 405.078C167.506 405.15 167.653 405.19 167.807 405.19ZM167.807 401.343C167.883 401.343 167.959 401.333 168.029 401.314C168.1 401.295 168.164 401.267 168.218 401.231C168.272 401.195 168.315 401.152 168.344 401.106C168.373 401.059 168.388 401.009 168.388 400.958V399.805C168.388 399.703 168.326 399.605 168.217 399.533C168.109 399.461 167.961 399.42 167.807 399.42C167.653 399.42 167.505 399.461 167.396 399.533C167.287 399.605 167.226 399.703 167.226 399.805V400.958C167.226 401.06 167.287 401.158 167.396 401.23C167.505 401.302 167.653 401.343 167.807 401.343ZM167.807 397.495C167.883 397.496 167.959 397.486 168.029 397.467C168.1 397.447 168.164 397.419 168.218 397.383C168.272 397.348 168.315 397.305 168.344 397.258C168.373 397.211 168.388 397.161 168.388 397.111V395.952C168.388 395.85 168.326 395.752 168.217 395.679C168.109 395.607 167.961 395.567 167.807 395.567C167.653 395.567 167.505 395.607 167.396 395.679C167.287 395.752 167.226 395.85 167.226 395.952V397.106C167.225 397.157 167.239 397.208 167.268 397.255C167.297 397.302 167.34 397.345 167.394 397.381C167.448 397.417 167.512 397.446 167.583 397.466C167.654 397.485 167.73 397.495 167.807 397.495Z" fill="url(#paint5_linear)"/>
<path d="M156.867 434.032C156.649 434.031 156.439 433.948 156.278 433.801C156.118 433.653 156.018 433.45 156 433.233L150.046 362.991C150.027 362.761 150.099 362.533 150.248 362.356C150.396 362.18 150.609 362.069 150.84 362.049C151.07 362.032 151.297 362.106 151.473 362.255C151.65 362.403 151.761 362.615 151.784 362.844L157.737 433.086C157.748 433.2 157.735 433.315 157.701 433.424C157.666 433.534 157.611 433.635 157.537 433.723C157.463 433.811 157.373 433.883 157.271 433.936C157.169 433.989 157.058 434.022 156.944 434.032H156.867Z" fill="#5B5151"/>
<path d="M148.263 366.626L150.957 363.435L154.152 366.129L153.94 363.632L150.745 360.938L148.051 364.129L148.263 366.626Z" fill="#5B5151"/>
<path d="M274.902 430.728H152.349C152.127 430.715 151.918 430.617 151.765 430.455C151.612 430.293 151.527 430.079 151.527 429.857C151.527 429.635 151.612 429.421 151.765 429.259C151.918 429.097 152.127 429 152.349 428.986H274.902C275.124 429 275.333 429.097 275.486 429.259C275.639 429.421 275.724 429.635 275.724 429.857C275.724 430.079 275.639 430.293 275.486 430.455C275.333 430.617 275.124 430.715 274.902 430.728Z" fill="#5B5151"/>
<path d="M271.432 432.803L274.387 429.852L271.432 426.9H273.941L276.896 429.852L273.941 432.803H271.432Z" fill="#5B5151"/>
<path d="M264.403 418.067C264.622 418.064 264.833 417.979 264.992 417.828C265.151 417.676 265.247 417.471 265.262 417.252C265.276 417.033 265.207 416.817 265.069 416.647C264.931 416.476 264.734 416.364 264.516 416.332C263.871 416.249 199.705 407.472 164.57 381.606C164.384 381.469 164.151 381.412 163.922 381.446C163.694 381.481 163.489 381.604 163.352 381.79C163.215 381.976 163.157 382.208 163.192 382.436C163.226 382.664 163.35 382.869 163.536 383.006C199.025 409.142 263.628 417.972 264.276 418.058C264.318 418.065 264.36 418.068 264.403 418.067Z" fill="url(#paint6_linear)"/>
<path d="M261.897 413.738L261.849 413.786C261.7 413.959 261.625 414.184 261.64 414.412C261.655 414.64 261.759 414.853 261.929 415.005L264.53 417.24L261.308 418.824C261.154 418.996 261.074 419.222 261.086 419.453C261.099 419.684 261.203 419.9 261.375 420.054C261.547 420.208 261.773 420.287 262.004 420.275C262.234 420.262 262.451 420.158 262.605 419.986L266.421 417.738C266.499 417.65 266.559 417.547 266.597 417.435C266.634 417.323 266.649 417.205 266.641 417.087C266.633 416.971 266.603 416.859 266.552 416.755C266.5 416.652 266.429 416.559 266.341 416.484L263.071 413.672C262.902 413.535 262.689 413.466 262.472 413.478C262.254 413.49 262.05 413.583 261.897 413.738Z" fill="url(#paint7_linear)"/>
</g>
<defs>
<linearGradient id="paint0_linear" x1="130.879" y1="390.582" x2="291.415" y2="390.582" gradientUnits="userSpaceOnUse">
<stop stop-color="#D55A5F"/>
<stop offset="1" stop-color="#D55A5F" stop-opacity="0.8"/>
</linearGradient>
<linearGradient id="paint1_linear" x1="133475" y1="1864.26" x2="151184" y2="1864.26" gradientUnits="userSpaceOnUse">
<stop stop-color="#FEF3F4"/>
<stop offset="1" stop-color="#4F52FF"/>
</linearGradient>
<linearGradient id="paint2_linear" x1="-1801.23" y1="-12411.1" x2="-1805.64" y2="-12411.1" gradientUnits="userSpaceOnUse">
<stop stop-color="#EEAB34"/>
<stop offset="1" stop-color="#4F52FF"/>
</linearGradient>
<linearGradient id="paint3_linear" x1="-1929.57" y1="11632.6" x2="-1933.97" y2="11632.6" gradientUnits="userSpaceOnUse">
<stop stop-color="#EEAB34"/>
<stop offset="1" stop-color="#4F52FF"/>
</linearGradient>
<linearGradient id="paint4_linear" x1="-4159.82" y1="16262.3" x2="-4176.67" y2="16262.3" gradientUnits="userSpaceOnUse">
<stop stop-color="#EEAB34"/>
<stop offset="1" stop-color="#4F52FF"/>
</linearGradient>
<linearGradient id="paint5_linear" x1="-2136.93" y1="20527.7" x2="-2141.33" y2="20527.7" gradientUnits="userSpaceOnUse">
<stop stop-color="#EEAB34"/>
<stop offset="1" stop-color="#4F52FF"/>
</linearGradient>
<linearGradient id="paint6_linear" x1="-169545" y1="25693.9" x2="-180013" y2="6322.94" gradientUnits="userSpaceOnUse">
<stop stop-color="#EEAB34"/>
<stop offset="1" stop-color="#4F52FF"/>
</linearGradient>
<linearGradient id="paint7_linear" x1="5940.14" y1="-11732.7" x2="8593.27" y2="-12053.4" gradientUnits="userSpaceOnUse">
<stop stop-color="#EEAB34"/>
<stop offset="1" stop-color="#4F52FF"/>
</linearGradient>
<clipPath id="clip0">
<rect width="111.164" height="106.224" fill="white" transform="translate(403.852 395.252)"/>
</clipPath>
<clipPath id="clip1">
<rect width="111.164" height="106.224" fill="white" transform="translate(529.838 395.251)"/>
</clipPath>
<clipPath id="clip2">
<rect width="142.043" height="284.086" fill="white" transform="translate(235.868 217.388)"/>
</clipPath>
</defs>
</svg>
