<svg width="1440" height="696" viewBox="0 0 1440 696" fill="none" xmlns="http://www.w3.org/2000/svg">
<path d="M2.98218 0C-130.504 -6.66136e-05 -29.4667 17.6477 -152.179 118.957C-186.939 139.376 -131.955 237.515 -152.179 378.877C-177.459 555.579 -99.8107 696 60.476 696C203.461 696 421.283 391.927 580.421 575.759C699.251 713.03 1511.32 733.419 1573.77 471.428C1631.58 228.884 1669.3 395.647 1513.82 209.049C1385.54 55.0995 1625.81 187.101 1438.83 55.8797C1273.59 -60.0821 922.978 151.583 811.896 191.088C580.421 273.411 126.679 6.17291e-05 2.98218 0Z" fill="#F4F4EA"/>
</svg>
