<svg width="375" height="1050" viewBox="0 0 375 1050" fill="none" xmlns="http://www.w3.org/2000/svg">
<path d="M5 143.5C-58.5291 143.5 -80 88.0512 -80 88.0512L-69.3796 -86H511.265C515.062 287.777 531.386 1056.04 522.271 1042.83C510.879 1026.33 479.221 1080.52 387.5 1018C295.779 955.482 109.286 758.547 86.5 600.5C63.7145 442.453 222.075 321.021 185 248.5C147.925 175.979 68.5291 143.5 5 143.5Z" fill="#F4F4EA"/>
<rect opacity="0.9" x="298" y="157.509" width="97.2019" height="13.9811" rx="6.99056" fill="white"/>
<rect opacity="0.46" x="338" y="136" width="105.302" height="13.9811" rx="6.99056" fill="#D55A5F"/>
<rect opacity="0.46" x="316.619" y="179.019" width="65.5376" height="13.9811" rx="6.99056" fill="#EEAB34"/>
<g opacity="0.32">
<rect opacity="0.32" x="-6.82324" y="642.823" width="55.7647" height="9.17647" rx="4.58824" fill="#EEAB34"/>
<rect opacity="0.32" x="58.1172" y="642.823" width="18" height="9.17647" rx="4.58824" fill="#EEAB34"/>
<rect opacity="0.32" x="4.11719" y="628" width="55.7647" height="9.17647" rx="4.58824" fill="#EEAB34"/>
</g>
</svg>
