<svg width="32" height="32" viewBox="0 0 32 32" fill="none" xmlns="http://www.w3.org/2000/svg">
<g clip-path="url(#clip0)">
<path d="M9.30621 6.85718H8.09256V18.7937H6.87891V22.6032H8.09256V25.1429H9.30621V22.6032H10.5199V18.7937H9.30621V6.85718Z" fill="#5B5151"/>
<path d="M23.9078 18.7937V6.85718H22.6941V18.7937H21.4805V22.6032H22.6941V25.1429H23.9078V22.6032H25.1214V18.7937H23.9078Z" fill="#5B5151"/>
<path d="M19.0562 6.85718H17.8426V12.8678H16.6289V16.6773H17.8426V25.1429H19.0562V16.6773H20.2699V12.8678H19.0562V6.85718Z" fill="#5B5151"/>
<path d="M14.1578 6.85718H12.9441V9.12816H11.7305V12.9377H12.9441V25.1429H14.1578V12.9377H15.3714V9.12816H14.1578V6.85718Z" fill="#5B5151"/>
</g>
<rect x="0.571429" y="0.571429" width="30.8571" height="30.8571" rx="8.57143" stroke="#5B5151" stroke-width="1.14286"/>
<defs>
<clipPath id="clip0">
<rect width="18.2857" height="18.2857" fill="white" transform="translate(6.85547 6.85718)"/>
</clipPath>
</defs>
</svg>
