<svg width="22" height="22" viewBox="0 0 22 22" fill="none" xmlns="http://www.w3.org/2000/svg">
<path fill-rule="evenodd" clip-rule="evenodd" d="M9.62656 2.56664C7.75458 2.56664 5.95926 3.31029 4.63557 4.63398C3.31187 5.95767 2.56823 7.75299 2.56823 9.62498C2.56823 11.497 3.31187 13.2923 4.63557 14.616C5.95926 15.9397 7.75458 16.6833 9.62656 16.6833C11.4985 16.6833 13.2939 15.9397 14.6176 14.616C15.9413 13.2923 16.6849 11.497 16.6849 9.62498C16.6849 7.75299 15.9413 5.95767 14.6176 4.63398C13.2939 3.31029 11.4985 2.56664 9.62656 2.56664ZM3.59848 3.59689C5.19723 1.99814 7.36559 1.09998 9.62656 1.09998C11.8875 1.09998 14.0559 1.99814 15.6546 3.59689C17.2534 5.19564 18.1516 7.36401 18.1516 9.62498C18.1516 11.6387 17.4391 13.5789 16.1538 15.1087L19.2525 18.2129C19.5386 18.4995 19.5382 18.9638 19.2516 19.25C18.9649 19.5361 18.5006 19.5357 18.2145 19.2491L15.1173 16.1463C13.5864 17.4354 11.6433 18.15 9.62656 18.15C7.36559 18.15 5.19723 17.2518 3.59848 15.6531C1.99973 14.0543 1.10156 11.8859 1.10156 9.62498C1.10156 7.364 1.99973 5.19564 3.59848 3.59689Z" fill="#5B5151"/>
</svg>
