<svg width="24" height="20" viewBox="0 0 24 20" fill="none" xmlns="http://www.w3.org/2000/svg">
<path d="M7.48438 2.61617V0.175293H13.2576C13.551 0.175293 13.8147 0.354402 13.9228 0.627168L14.7112 2.61612L10.973 3.944L7.48438 2.61617Z" fill="#F18589"/>
<path d="M14.7098 2.61637H13.6409L12.8525 0.627084C12.7446 0.354318 12.481 0.175537 12.1875 0.175537H13.2559C13.5494 0.175537 13.8129 0.354318 13.9214 0.627084L14.7098 2.61637Z" fill="#D55A5F"/>
<path d="M19.8873 2.61617H9.44977C9.15637 2.61617 8.8927 2.43706 8.78456 2.16429L8.17528 0.627168C8.06719 0.354402 7.80352 0.175293 7.51008 0.175293H2.45236C2.0572 0.175293 1.73681 0.495637 1.73681 0.89084V1.90062C1.73681 2.29578 1.41647 2.61617 1.02127 2.61617H0.955312C0.427687 2.61617 0 3.04386 0 3.57143V18.2251C0 19.1086 0.71625 19.8249 1.5998 19.8249H20.8425V3.57143C20.8425 3.04386 20.4149 2.61617 19.8873 2.61617Z" fill="#FAC600"/>
<path d="M20.8437 4.81006V19.8247H1.6013C1.42683 19.8247 1.25864 19.7968 1.10156 19.7452C1.74056 19.5356 2.20223 18.9342 2.20223 18.2248V5.76518C2.20223 5.23751 2.62969 4.81006 3.15736 4.81006H20.8437Z" fill="#FAA56B"/>
<path d="M9.45031 2.61637H8.48652C8.19303 2.61637 7.92945 2.43712 7.8215 2.16435L7.21189 0.627084C7.10394 0.354318 6.84036 0.175537 6.54688 0.175537H7.51067C7.80416 0.175537 8.06773 0.354318 8.17569 0.627084L8.7853 2.16435C8.89325 2.43712 9.15683 2.61637 9.45031 2.61637Z" fill="#FAA56B"/>
<path d="M4.15681 4.80981H21.9567C22.4843 4.80981 22.9121 5.2375 22.9121 5.76513V18.8696C22.9121 19.3972 22.4844 19.8249 21.9567 19.8249H3.2015H1.60156C2.4852 19.8249 3.2015 19.1086 3.2015 18.225V5.76513C3.2015 5.23755 3.62923 4.80981 4.15681 4.80981Z" fill="#E37D38"/>
<path d="M22.9106 5.76518V18.8696C22.9106 19.3973 22.4831 19.8247 21.9555 19.8247H21.0234C21.5511 19.8247 21.979 19.3973 21.979 18.8696V5.76518C21.979 5.23751 21.5511 4.81006 21.0234 4.81006H21.9555C22.4831 4.81006 22.9106 5.23751 22.9106 5.76518Z" fill="#FAA56B"/>
<path d="M8.57659 15.735H5.45125C5.25166 15.735 5.08984 15.5732 5.08984 15.3736C5.08984 15.174 5.25166 15.0122 5.45125 15.0122H8.57659C8.77619 15.0122 8.938 15.174 8.938 15.3736C8.938 15.5732 8.77619 15.735 8.57659 15.735Z" fill="#FAC600"/>
<path d="M10.4231 17.2379H5.45125C5.25166 17.2379 5.08984 17.0761 5.08984 16.8765C5.08984 16.677 5.25166 16.5151 5.45125 16.5151H10.4231C10.6227 16.5151 10.7845 16.677 10.7845 16.8765C10.7845 17.0761 10.6227 17.2379 10.4231 17.2379Z" fill="#FAC600"/>
<path d="M19.5356 9.27526C22.0017 9.27526 24.0008 7.27609 24.0008 4.80999C24.0008 2.34389 22.0017 0.344727 19.5356 0.344727C17.0695 0.344727 15.0703 2.34389 15.0703 4.80999C15.0703 7.27609 17.0695 9.27526 19.5356 9.27526Z" fill="#97DA7B"/>
<path d="M23.9971 4.81013C23.9971 7.27603 21.9981 9.27544 19.5318 9.27544C18.554 9.27544 17.6494 8.96124 16.9141 8.4278C17.4533 8.65908 18.048 8.78728 18.6721 8.78728C21.1384 8.78728 23.1374 6.78788 23.1374 4.32197C23.1374 2.83388 22.4092 1.51585 21.2898 0.704346C22.8819 1.38666 23.9971 2.9678 23.9971 4.81013Z" fill="#80D261"/>
<path d="M21.7776 4.13755L20.0769 2.22599C19.9397 2.07181 19.7432 1.98364 19.5369 1.98364C19.3305 1.98364 19.134 2.07181 18.9968 2.22599L17.2961 4.13755C17.0307 4.43581 17.0574 4.89275 17.3557 5.15811C17.654 5.42352 18.1109 5.3968 18.3762 5.09853L18.814 4.60644V6.91269C18.814 7.31192 19.1377 7.63555 19.5369 7.63555C19.9361 7.63555 20.2598 7.31192 20.2598 6.91269V4.60644L20.6976 5.09853C20.8404 5.25908 21.0387 5.34088 21.2379 5.34088C21.4088 5.34088 21.5804 5.2806 21.7181 5.15806C22.0163 4.89275 22.043 4.43586 21.7776 4.13755Z" fill="#EAF6FF"/>
<path d="M19.9568 5.09869C20.0407 5.19268 20.1438 5.26013 20.2546 5.29918V6.91308C20.2546 7.31208 19.9313 7.63594 19.5318 7.63594C19.3978 7.63594 19.272 7.59933 19.1641 7.53572C19.3766 7.40944 19.5192 7.17816 19.5192 6.91308V5.24021C19.5192 5.01868 19.793 4.91457 19.9402 5.08008L19.9568 5.09869Z" fill="#D8ECFE"/>
<path d="M21.7133 5.15841C21.5755 5.2808 21.4039 5.34104 21.2328 5.34104C21.1052 5.34104 20.9779 5.30729 20.8656 5.24082C20.9047 5.21719 20.9423 5.18972 20.9774 5.15841C21.2757 4.89287 21.3022 4.43602 21.0372 4.13776L19.3366 2.22605C19.2865 2.16966 19.2281 2.12194 19.1641 2.08487C19.2744 2.01933 19.4012 1.98413 19.5317 1.98413C19.7385 1.98413 19.9346 2.0723 20.072 2.22605L21.7726 4.13776C22.0381 4.43602 22.0111 4.89287 21.7133 5.15841Z" fill="#D8ECFE"/>
</svg>
