<svg width="179" height="21" viewBox="0 0 179 21" fill="none" xmlns="http://www.w3.org/2000/svg">
<path fill-rule="evenodd" clip-rule="evenodd" d="M35.3618 11.8115H40.8343V8.92932H38.3535C37.9821 8.92288 37.6141 9.00085 37.2772 9.15735C36.9823 9.29913 36.714 9.4904 36.4837 9.72284C36.2566 9.94953 36.0631 10.2075 35.9091 10.489C35.7633 10.7639 35.6412 11.0507 35.5442 11.3464L35.3892 11.8115H35.3618Z" fill="#E1760C"/>
<path fill-rule="evenodd" clip-rule="evenodd" d="M18.1595 0.00912283C16.3353 5.53638 14.575 10.5529 12.7873 16.0801C12.6803 16.5497 12.4432 16.9796 12.1032 17.3206C11.6345 17.6623 11.0572 17.8213 10.4797 17.7675H8.32715L9.54934 20.7044H12.9332C13.3923 20.7324 13.8498 20.6289 14.2521 20.4059C14.6544 20.183 14.9847 19.8499 15.2043 19.4457C15.3513 19.1702 15.4763 18.8835 15.5782 18.5884L21.8717 0.00912283H18.1595ZM107.763 3.45681C109.127 3.45501 110.461 3.85788 111.596 4.61446C112.731 5.37104 113.617 6.44732 114.14 7.70713C114.663 8.96693 114.801 10.3537 114.536 11.6918C114.271 13.03 113.615 14.2595 112.651 15.2247C111.687 16.19 110.458 16.8476 109.121 17.1144C107.783 17.3812 106.396 17.2452 105.135 16.7236C103.875 16.2019 102.798 15.3182 102.039 14.184C101.281 13.0499 100.877 11.7164 100.877 10.3522C100.877 8.52501 101.602 6.77252 102.893 5.47965C104.184 4.18677 105.936 3.45923 107.763 3.45681ZM57.5161 11.9575H59.5135C60.0334 12.1399 60.3709 12.4591 60.8999 13.3986C61.2857 14.0562 61.5919 14.7573 61.812 15.4873C62.0674 16.299 62.2863 17.129 62.4778 17.9681C62.6906 18.8434 62.9964 19.6934 63.3899 20.5037L63.4902 20.7044H67.3757L67.1386 20.2027C66.7256 19.3243 66.3988 18.408 66.1626 17.4665C65.9437 16.5544 65.6884 15.6423 65.3965 14.7302C65.1099 13.9207 64.7206 13.1513 64.2381 12.4409C64.0822 12.1954 63.9019 11.9662 63.7 11.7568L63.1072 11.1457C65.2506 9.63165 66.3542 7.82571 66.2903 5.33571C66.2174 2.48088 63.2349 0 60.3435 0H52.381V20.7135H56.0294V2.97341H59.2399C63.3625 2.97341 63.9463 7.83484 60.3526 9.0844C60.0169 9.1241 59.6866 9.20056 59.3676 9.31242C59.0727 9.45421 58.8043 9.64547 58.5741 9.87791C58.347 10.1046 58.1535 10.3626 57.9995 10.6441C57.8554 10.9198 57.7335 11.2065 57.6346 11.5014L57.4796 11.9666L57.5161 11.9575ZM107.763 0.00912283C109.814 0.00912283 111.819 0.617339 113.524 1.75686C115.23 2.89638 116.559 4.51602 117.344 6.41097C118.129 8.30592 118.334 10.3911 117.934 12.4027C117.534 14.4144 116.546 16.2622 115.096 17.7126C113.646 19.1629 111.798 20.1506 109.786 20.5507C107.774 20.9509 105.689 20.7455 103.794 19.9606C101.899 19.1757 100.28 17.8465 99.1403 16.1411C98.0008 14.4357 97.3925 12.4306 97.3925 10.3796C97.3925 7.62915 98.4851 4.99139 100.43 3.04655C102.375 1.10172 105.013 0.00912283 107.763 0.00912283ZM82.5255 20.75H84.4591C86.8762 20.677 87.6423 20.9233 89.4118 19.017C89.9788 18.4295 90.4387 17.7473 90.7708 17.0013C91.0749 16.2826 91.2331 15.5106 91.2359 14.7302C91.2482 13.6247 90.9133 12.5433 90.2782 11.6382C89.8685 11.0626 89.3588 10.5652 88.7733 10.1698C91.6008 6.28429 90.1414 1.0489 85.5719 0.136815C85.1564 0.0408266 84.7304 -0.00207924 84.3041 0.00912283H76.2868V20.7226H79.9352V11.5106H84.0943C84.5231 11.4858 84.9526 11.5484 85.3565 11.6946C85.7605 11.8407 86.1306 12.0673 86.4444 12.3606C86.7582 12.654 87.0092 13.008 87.1822 13.4012C87.3552 13.7944 87.4466 14.2186 87.4508 14.6481C87.4198 15.2475 87.2536 15.8321 86.9645 16.3581C86.6754 16.8842 86.271 17.3379 85.7817 17.6854C85.3256 17.8678 84.8696 17.8678 84.4135 18.0958C84.1191 18.2344 83.8506 18.4226 83.62 18.6522C83.3928 18.88 83.202 19.1415 83.0545 19.4275C82.9039 19.698 82.7787 19.982 82.6806 20.2757L82.5255 20.7409V20.75ZM83.8663 3.05549H79.9625C79.9625 5.08033 79.9625 6.89539 79.9625 8.9111H83.8936C84.2796 8.93198 84.6659 8.87499 85.0295 8.74352C85.393 8.61206 85.7264 8.4088 86.0098 8.14584C86.2931 7.88289 86.5207 7.56562 86.679 7.21291C86.8372 6.8602 86.9229 6.47925 86.9309 6.09275C86.9373 5.32491 86.6499 4.58368 86.1277 4.02075C85.6054 3.45783 84.8878 3.11578 84.1216 3.06462L83.8663 3.05549ZM42.4757 2.97341V0.00912283H30.1899V20.7044H42.8862V17.7675H33.893V2.96429L42.4757 2.97341ZM129.197 0.00912283H125.467V20.7044H138.236V17.7675H129.215V0.00912283H129.197ZM150.175 0.00912283H146.527V20.7044H150.175V0.00912283ZM174.309 20.7044H178.249L170.04 0.00912283H166.602L158.448 20.7044H162.169L168.216 5.12594L174.282 20.7226L174.309 20.7044Z" fill="#635452"/>
<path fill-rule="evenodd" clip-rule="evenodd" d="M5.78269 10.0419H7.99906C8.23297 10.0536 8.45342 10.1548 8.61472 10.3246C8.77603 10.4944 8.86583 10.7198 8.86554 10.954V11.1546C8.86583 11.3888 8.77603 11.6142 8.61472 11.784C8.45342 11.9538 8.23297 12.055 7.99906 12.0667H5.78269C5.54079 12.0667 5.3088 11.9706 5.13775 11.7996C4.9667 11.6285 4.87061 11.3965 4.87061 11.1546V10.954C4.87061 10.7121 4.9667 10.4801 5.13775 10.309C5.3088 10.138 5.54079 10.0419 5.78269 10.0419Z" fill="#F0AD00"/>
<path fill-rule="evenodd" clip-rule="evenodd" d="M10.2881 10.0419H12.6048C12.8467 10.0419 13.0787 10.138 13.2497 10.309C13.4208 10.4801 13.5168 10.7121 13.5168 10.954V11.1546C13.5168 11.3965 13.4208 11.6285 13.2497 11.7996C13.0787 11.9706 12.8467 12.0667 12.6048 12.0667H10.2881C10.0462 12.0667 9.81417 11.9706 9.64312 11.7996C9.47207 11.6285 9.37598 11.3965 9.37598 11.1546V10.954C9.37598 10.7121 9.47207 10.4801 9.64312 10.309C9.81417 10.138 10.0462 10.0419 10.2881 10.0419Z" fill="#E1760C"/>
<path fill-rule="evenodd" clip-rule="evenodd" d="M4.95262 7.54297H7.35141C7.58561 7.54268 7.81096 7.63248 7.98075 7.79379C8.15055 7.9551 8.25179 8.17554 8.2635 8.40945V8.61923C8.2635 8.86113 8.1674 9.09313 7.99636 9.26418C7.82531 9.43523 7.59331 9.53132 7.35141 9.53132H4.95262C4.71071 9.53132 4.47872 9.43523 4.30767 9.26418C4.13662 9.09313 4.04053 8.86113 4.04053 8.61923V8.40945C4.05224 8.17554 4.15348 7.9551 4.32327 7.79379C4.49307 7.63248 4.71841 7.54268 4.95262 7.54297Z" fill="#E1760C"/>
<path fill-rule="evenodd" clip-rule="evenodd" d="M9.65867 7.54297H13.4712C13.6974 7.55402 13.9115 7.64886 14.0716 7.80903C14.2318 7.96919 14.3266 8.18322 14.3377 8.40945V8.61923C14.338 8.85344 14.2482 9.07877 14.0869 9.24857C13.9255 9.41837 13.7051 9.51961 13.4712 9.53132H9.65867C9.41677 9.53132 9.18478 9.43523 9.01373 9.26418C8.84268 9.09313 8.74658 8.86113 8.74658 8.61923V8.40945C8.75829 8.17554 8.85953 7.9551 9.02933 7.79379C9.19912 7.63248 9.42447 7.54268 9.65867 7.54297Z" fill="#F0AD00"/>
<path fill-rule="evenodd" clip-rule="evenodd" d="M9.31248 12.5594H11.7842C12.0182 12.5712 12.2386 12.6724 12.3999 12.8422C12.5612 13.012 12.651 13.2373 12.6507 13.4715V13.6904C12.651 13.9246 12.5612 14.15 12.3999 14.3198C12.2386 14.4896 12.0182 14.5908 11.7842 14.6025H9.31248C9.07058 14.6025 8.83858 14.5064 8.66753 14.3354C8.49648 14.1643 8.40039 13.9323 8.40039 13.6904V13.4807C8.40039 13.2388 8.49648 13.0068 8.66753 12.8357C8.83858 12.6647 9.07058 12.5686 9.31248 12.5686V12.5594Z" fill="#D65359"/>
<path fill-rule="evenodd" clip-rule="evenodd" d="M7.90769 15.0677H10.9541C11.196 15.0677 11.428 15.1638 11.599 15.3348C11.7701 15.5059 11.8662 15.7379 11.8662 15.9798V16.1896C11.8662 16.4315 11.7701 16.6634 11.599 16.8345C11.428 17.0055 11.196 17.1016 10.9541 17.1016H7.90769C7.66579 17.1016 7.4338 17.0055 7.26275 16.8345C7.0917 16.6634 6.99561 16.4315 6.99561 16.1896V15.9798C6.99561 15.7379 7.0917 15.5059 7.26275 15.3348C7.4338 15.1638 7.66579 15.0677 7.90769 15.0677Z" fill="#F0AD00"/>
<path fill-rule="evenodd" clip-rule="evenodd" d="M6.6948 5.02539H9.67732C9.91922 5.02539 10.1512 5.12148 10.3223 5.29253C10.4933 5.46358 10.5894 5.69558 10.5894 5.93748V6.14726C10.5894 6.38916 10.4933 6.62115 10.3223 6.7922C10.1512 6.96325 9.91922 7.05935 9.67732 7.05935H6.6948C6.4529 7.05935 6.22091 6.96325 6.04986 6.7922C5.87881 6.62115 5.78271 6.38916 5.78271 6.14726V5.93748C5.78271 5.69558 5.87881 5.46358 6.04986 5.29253C6.22091 5.12148 6.4529 5.02539 6.6948 5.02539Z" fill="#F0AD00"/>
<path fill-rule="evenodd" clip-rule="evenodd" d="M11.9482 5.02539H14.3197C14.5616 5.02539 14.7935 5.12148 14.9646 5.29253C15.1356 5.46358 15.2317 5.69558 15.2317 5.93748V6.14726C15.2317 6.38916 15.1356 6.62115 14.9646 6.7922C14.7935 6.96325 14.5616 7.05935 14.3197 7.05935H11.9482C11.7063 7.05935 11.4743 6.96325 11.3033 6.7922C11.1322 6.62115 11.0361 6.38916 11.0361 6.14726V5.93748C11.0361 5.69558 11.1322 5.46358 11.3033 5.29253C11.4743 5.12148 11.7063 5.02539 11.9482 5.02539Z" fill="#E1760C"/>
<path fill-rule="evenodd" clip-rule="evenodd" d="M4.3142 5.02543C4.50903 5.02543 4.69947 5.08321 4.86146 5.19145C5.02345 5.29969 5.14971 5.45353 5.22427 5.63352C5.29883 5.81352 5.31834 6.01158 5.28033 6.20266C5.24232 6.39374 5.1485 6.56926 5.01074 6.70703C4.87297 6.84479 4.69745 6.93861 4.50637 6.97662C4.31529 7.01463 4.11723 6.99512 3.93724 6.92056C3.75724 6.846 3.60339 6.71975 3.49515 6.55776C3.38691 6.39576 3.32914 6.20532 3.32914 6.01049C3.32793 5.88079 3.35257 5.75215 3.40164 5.63209C3.45071 5.51203 3.52324 5.40295 3.61495 5.31123C3.70667 5.21952 3.81574 5.14701 3.9358 5.09794C4.05586 5.04886 4.1845 5.02422 4.3142 5.02543Z" fill="#D65359"/>
<path fill-rule="evenodd" clip-rule="evenodd" d="M2.57176 2.51715H8.51857C8.76047 2.51715 8.99247 2.61324 9.16352 2.78429C9.33457 2.95534 9.43066 3.18734 9.43066 3.42924V3.63902C9.43066 3.88092 9.33457 4.11291 9.16352 4.28396C8.99247 4.45501 8.76047 4.55111 8.51857 4.55111H2.57176C2.32986 4.55111 2.09786 4.45501 1.92681 4.28396C1.75576 4.11291 1.65967 3.88092 1.65967 3.63902V3.42924C1.65967 3.18734 1.75576 2.95534 1.92681 2.78429C2.09786 2.61324 2.32986 2.51715 2.57176 2.51715Z" fill="#D65359"/>
<path fill-rule="evenodd" clip-rule="evenodd" d="M10.7534 2.51715H15.1679C15.4098 2.51715 15.6418 2.61324 15.8128 2.78429C15.9839 2.95534 16.08 3.18734 16.08 3.42924V3.63902C16.08 3.88092 15.9839 4.11291 15.8128 4.28396C15.6418 4.45501 15.4098 4.55111 15.1679 4.55111H10.7534C10.5115 4.55111 10.2795 4.45501 10.1085 4.28396C9.9374 4.11291 9.84131 3.88092 9.84131 3.63902V3.42924C9.84131 3.18734 9.9374 2.95534 10.1085 2.78429C10.2795 2.61324 10.5115 2.51715 10.7534 2.51715Z" fill="#F0AD00"/>
<path fill-rule="evenodd" clip-rule="evenodd" d="M0.912088 0.00891113H5.52725C5.76915 0.00891113 6.00115 0.105005 6.1722 0.276055C6.34325 0.447104 6.43934 0.679098 6.43934 0.920999V1.12166C6.43934 1.36356 6.34325 1.59555 6.1722 1.7666C6.00115 1.93765 5.76915 2.03375 5.52725 2.03375H0.912088C0.670187 2.03375 0.438193 1.93765 0.267144 1.7666C0.096094 1.59555 0 1.36356 0 1.12166V0.920999C0 0.679098 0.096094 0.447104 0.267144 0.276055C0.438193 0.105005 0.670187 0.00891113 0.912088 0.00891113Z" fill="#E1760C"/>
<path fill-rule="evenodd" clip-rule="evenodd" d="M10.3428 0.00891113H15.9886C16.2305 0.00891113 16.4625 0.105005 16.6335 0.276055C16.8046 0.447104 16.9007 0.679098 16.9007 0.920999V1.12166C16.9007 1.36356 16.8046 1.59555 16.6335 1.7666C16.4625 1.93765 16.2305 2.03375 15.9886 2.03375H10.3428C10.1009 2.03375 9.86886 1.93765 9.69781 1.7666C9.52676 1.59555 9.43066 1.36356 9.43066 1.12166V0.920999C9.43066 0.679098 9.52676 0.447104 9.69781 0.276055C9.86886 0.105005 10.1009 0.00891113 10.3428 0.00891113Z" fill="#D65359"/>
<path fill-rule="evenodd" clip-rule="evenodd" d="M7.93493 0.00891113C8.12795 0.00891113 8.31663 0.0661494 8.47712 0.173386C8.63761 0.280623 8.76269 0.433044 8.83656 0.611373C8.91043 0.789701 8.92976 0.985929 8.89211 1.17524C8.85445 1.36455 8.7615 1.53845 8.62502 1.67494C8.48853 1.81142 8.31463 1.90437 8.12531 1.94203C7.936 1.97968 7.73978 1.96035 7.56145 1.88649C7.38312 1.81262 7.2307 1.68754 7.12346 1.52704C7.01622 1.36655 6.95898 1.17787 6.95898 0.984845C6.95898 0.726011 7.06181 0.477776 7.24483 0.294753C7.42786 0.11173 7.67609 0.00891113 7.93493 0.00891113Z" fill="#F0AD00"/>
<path fill-rule="evenodd" clip-rule="evenodd" d="M6.90468 12.5591C7.10027 12.5573 7.29197 12.6137 7.45535 12.7213C7.61873 12.8288 7.7464 12.9826 7.82208 13.1629C7.89777 13.3433 7.91805 13.5421 7.88033 13.734C7.84261 13.9259 7.74861 14.1023 7.6103 14.2406C7.47199 14.3789 7.29564 14.4729 7.10371 14.5106C6.91178 14.5484 6.71296 14.5281 6.5326 14.4524C6.35224 14.3767 6.19849 14.249 6.09095 14.0857C5.9834 13.9223 5.92695 13.7306 5.92875 13.535C5.92875 13.2762 6.03156 13.0279 6.21459 12.8449C6.39761 12.6619 6.64585 12.5591 6.90468 12.5591Z" fill="#E1760C"/>
</svg>
