<svg width="1440" height="752" viewBox="0 0 1440 752" fill="none" xmlns="http://www.w3.org/2000/svg">
<path d="M222.126 615.224C-2.80577 845.546 -186.749 611.681 -113.771 501.126L-2.80551 -7H1464.24C1464.24 228.01 1884.68 209.069 1966.35 199.756C1969.92 198.023 1973.5 197.101 1977.09 197.101C1983.53 197.101 1979 198.313 1966.35 199.756C1910.26 226.977 1855.41 454.353 1765.65 454.353C1670.18 454.353 1582.58 105.643 1537.22 523.095C1505.73 812.947 1348.51 796.623 1253.31 637.902C1145.34 457.896 1129.85 752 698.979 752C467.55 752 362.488 471.498 222.126 615.224Z" fill="#F4F4EA"/>
</svg>
