<svg width="359" height="204" viewBox="0 0 359 204" fill="none" xmlns="http://www.w3.org/2000/svg">
<rect width="359" height="204" rx="12" fill="white"/>
<rect x="0.5" y="0.5" width="358" height="203" rx="11.5" stroke="#5B5151" stroke-opacity="0.1"/>
<path d="M16 36C16 24.9543 24.9543 16 36 16H281C292.046 16 301 24.9543 301 36V56C301 67.0457 292.046 76 281 76H16V36Z" fill="#EACFFF"/>
<path d="M65.232 32.032H66.38V42H65.232V32.032ZM75.3058 42.098C74.6244 42.098 74.0271 41.9487 73.5138 41.65C73.0098 41.3513 72.6178 40.9313 72.3378 40.39C72.0671 39.8393 71.9318 39.2 71.9318 38.472C71.9318 37.744 72.0718 37.1047 72.3518 36.554C72.6318 35.994 73.0284 35.56 73.5418 35.252C74.0644 34.944 74.6711 34.79 75.3618 34.79C75.8378 34.79 76.2951 34.874 76.7338 35.042C77.1818 35.2007 77.5504 35.4247 77.8398 35.714L77.4618 36.554C77.1071 36.274 76.7618 36.0687 76.4258 35.938C76.0991 35.8073 75.7631 35.742 75.4178 35.742C74.6991 35.742 74.1344 35.9847 73.7238 36.47C73.3131 36.946 73.1078 37.6133 73.1078 38.472C73.1078 39.3213 73.3084 39.984 73.7098 40.46C74.1204 40.9267 74.6898 41.16 75.4178 41.16C75.7631 41.16 76.0991 41.0947 76.4258 40.964C76.7618 40.8333 77.1071 40.628 77.4618 40.348L77.8398 41.188C77.5411 41.468 77.1631 41.692 76.7058 41.86C76.2578 42.0187 75.7911 42.098 75.3058 42.098ZM85.4854 34.958V42H84.3654V40.726C84.1601 41.1647 83.8474 41.5053 83.4274 41.748C83.0167 41.9813 82.5361 42.098 81.9854 42.098C81.3601 42.098 80.8094 41.9487 80.3334 41.65C79.8667 41.3513 79.5027 40.9313 79.2414 40.39C78.9894 39.8393 78.8634 39.2 78.8634 38.472C78.8634 37.744 78.9941 37.1047 79.2554 36.554C79.5167 35.994 79.8807 35.56 80.3474 35.252C80.8234 34.944 81.3694 34.79 81.9854 34.79C82.5361 34.79 83.0167 34.9113 83.4274 35.154C83.8381 35.3967 84.1507 35.7373 84.3654 36.176V34.958H85.4854ZM82.2094 41.16C82.9001 41.16 83.4321 40.9267 83.8054 40.46C84.1787 39.984 84.3654 39.312 84.3654 38.444C84.3654 37.576 84.1787 36.9087 83.8054 36.442C83.4321 35.9753 82.9001 35.742 82.2094 35.742C81.5187 35.742 80.9774 35.9847 80.5854 36.47C80.2027 36.946 80.0114 37.6133 80.0114 38.472C80.0114 39.3307 80.2027 39.9933 80.5854 40.46C80.9681 40.9267 81.5094 41.16 82.2094 41.16ZM91.1919 34.79C92.8813 34.79 93.7259 35.7187 93.7259 37.576V42H92.5919V37.632C92.5919 36.9787 92.4613 36.5027 92.1999 36.204C91.9386 35.896 91.5279 35.742 90.9679 35.742C90.3146 35.742 89.7919 35.9427 89.3999 36.344C89.0079 36.7453 88.8119 37.2867 88.8119 37.968V42H87.6779V36.932C87.6779 36.204 87.6406 35.546 87.5659 34.958H88.6439L88.7559 36.218C88.9706 35.7607 89.2926 35.4107 89.7219 35.168C90.1513 34.916 90.6413 34.79 91.1919 34.79ZM96.8536 32.032V33.054C96.8536 33.446 96.7883 33.8053 96.6576 34.132C96.527 34.4587 96.3076 34.7807 95.9996 35.098L95.4676 34.678C95.8316 34.258 96.037 33.8567 96.0836 33.474H95.4116V32.032H96.8536ZM100.401 35.854V39.704C100.401 40.2267 100.508 40.5953 100.723 40.81C100.938 41.0153 101.241 41.118 101.633 41.118C101.894 41.118 102.146 41.076 102.389 40.992V41.958C102.1 42.0513 101.773 42.098 101.409 42.098C100.737 42.098 100.21 41.9113 99.8269 41.538C99.4535 41.1553 99.2669 40.5953 99.2669 39.858V35.854H97.8949V34.958H99.2669V33.152L100.401 32.746V34.958H102.417V35.854H100.401ZM113.328 38.444H108.162C108.171 39.34 108.376 40.0167 108.778 40.474C109.188 40.9313 109.781 41.16 110.556 41.16C111.377 41.16 112.133 40.8847 112.824 40.334L113.202 41.16C112.894 41.4493 112.497 41.678 112.012 41.846C111.536 42.014 111.046 42.098 110.542 42.098C109.44 42.098 108.577 41.776 107.952 41.132C107.326 40.4787 107.014 39.5873 107.014 38.458C107.014 37.7393 107.154 37.1047 107.434 36.554C107.714 35.994 108.106 35.56 108.61 35.252C109.114 34.944 109.688 34.79 110.332 34.79C111.265 34.79 111.998 35.098 112.53 35.714C113.062 36.3207 113.328 37.1607 113.328 38.234V38.444ZM110.346 35.672C109.758 35.672 109.277 35.8493 108.904 36.204C108.54 36.5587 108.306 37.058 108.204 37.702H112.306C112.25 37.0393 112.054 36.5353 111.718 36.19C111.391 35.8447 110.934 35.672 110.346 35.672ZM121.251 34.958V42H120.131V40.726C119.926 41.1647 119.613 41.5053 119.193 41.748C118.782 41.9813 118.302 42.098 117.751 42.098C117.126 42.098 116.575 41.9487 116.099 41.65C115.632 41.3513 115.268 40.9313 115.007 40.39C114.755 39.8393 114.629 39.2 114.629 38.472C114.629 37.744 114.76 37.1047 115.021 36.554C115.282 35.994 115.646 35.56 116.113 35.252C116.589 34.944 117.135 34.79 117.751 34.79C118.302 34.79 118.782 34.9113 119.193 35.154C119.604 35.3967 119.916 35.7373 120.131 36.176V34.958H121.251ZM117.975 41.16C118.666 41.16 119.198 40.9267 119.571 40.46C119.944 39.984 120.131 39.312 120.131 38.444C120.131 37.576 119.944 36.9087 119.571 36.442C119.198 35.9753 118.666 35.742 117.975 35.742C117.284 35.742 116.743 35.9847 116.351 36.47C115.968 36.946 115.777 37.6133 115.777 38.472C115.777 39.3307 115.968 39.9933 116.351 40.46C116.734 40.9267 117.275 41.16 117.975 41.16ZM125.824 42.098C124.638 42.098 123.7 41.7947 123.01 41.188L123.388 40.348C123.77 40.6467 124.158 40.8613 124.55 40.992C124.942 41.1227 125.38 41.188 125.866 41.188C126.398 41.188 126.799 41.0993 127.07 40.922C127.35 40.7353 127.49 40.4693 127.49 40.124C127.49 39.844 127.396 39.62 127.21 39.452C127.023 39.284 126.715 39.1533 126.286 39.06L125.096 38.78C124.508 38.6493 124.05 38.416 123.724 38.08C123.406 37.744 123.248 37.3427 123.248 36.876C123.248 36.26 123.495 35.7607 123.99 35.378C124.484 34.986 125.138 34.79 125.95 34.79C126.444 34.79 126.911 34.8693 127.35 35.028C127.788 35.1867 128.157 35.4153 128.456 35.714L128.078 36.54C127.415 35.9893 126.706 35.714 125.95 35.714C125.446 35.714 125.054 35.812 124.774 36.008C124.503 36.1947 124.368 36.4607 124.368 36.806C124.368 37.0953 124.452 37.324 124.62 37.492C124.797 37.66 125.077 37.7907 125.46 37.884L126.65 38.178C127.303 38.3273 127.788 38.5607 128.106 38.878C128.423 39.186 128.582 39.592 128.582 40.096C128.582 40.7027 128.334 41.188 127.84 41.552C127.345 41.916 126.673 42.098 125.824 42.098ZM130.389 34.958H131.523V42H130.389V34.958ZM131.663 31.976V33.264H130.277V31.976H131.663ZM133.725 31.696H134.859V42H133.725V31.696ZM143.249 34.958L139.959 42.644C139.613 43.4467 139.179 44.0347 138.657 44.408C138.134 44.7813 137.49 45.038 136.725 45.178L136.487 44.296C137.149 44.1467 137.649 43.946 137.985 43.694C138.33 43.4513 138.615 43.0733 138.839 42.56L139.119 41.93L136.137 34.958H137.327L139.707 40.768L142.115 34.958H143.249ZM151.103 42.098C150.421 42.098 149.824 41.9487 149.311 41.65C148.807 41.3513 148.415 40.9313 148.135 40.39C147.864 39.8393 147.729 39.2 147.729 38.472C147.729 37.744 147.869 37.1047 148.149 36.554C148.429 35.994 148.825 35.56 149.339 35.252C149.861 34.944 150.468 34.79 151.159 34.79C151.635 34.79 152.092 34.874 152.531 35.042C152.979 35.2007 153.347 35.4247 153.637 35.714L153.259 36.554C152.904 36.274 152.559 36.0687 152.223 35.938C151.896 35.8073 151.56 35.742 151.215 35.742C150.496 35.742 149.931 35.9847 149.521 36.47C149.11 36.946 148.905 37.6133 148.905 38.472C148.905 39.3213 149.105 39.984 149.507 40.46C149.917 40.9267 150.487 41.16 151.215 41.16C151.56 41.16 151.896 41.0947 152.223 40.964C152.559 40.8333 152.904 40.628 153.259 40.348L153.637 41.188C153.338 41.468 152.96 41.692 152.503 41.86C152.055 42.0187 151.588 42.098 151.103 42.098ZM158.356 34.79C158.59 34.79 158.804 34.818 159 34.874L158.972 35.91C158.758 35.8353 158.51 35.798 158.23 35.798C157.549 35.798 157.04 36.0127 156.704 36.442C156.378 36.862 156.214 37.3753 156.214 37.982V42H155.08V36.932C155.08 36.204 155.043 35.546 154.968 34.958H156.046L156.158 36.26C156.336 35.784 156.62 35.42 157.012 35.168C157.404 34.916 157.852 34.79 158.356 34.79ZM165.91 38.444H160.744C160.753 39.34 160.958 40.0167 161.36 40.474C161.77 40.9313 162.363 41.16 163.138 41.16C163.959 41.16 164.715 40.8847 165.406 40.334L165.784 41.16C165.476 41.4493 165.079 41.678 164.594 41.846C164.118 42.014 163.628 42.098 163.124 42.098C162.022 42.098 161.159 41.776 160.534 41.132C159.908 40.4787 159.596 39.5873 159.596 38.458C159.596 37.7393 159.736 37.1047 160.016 36.554C160.296 35.994 160.688 35.56 161.192 35.252C161.696 34.944 162.27 34.79 162.914 34.79C163.847 34.79 164.58 35.098 165.112 35.714C165.644 36.3207 165.91 37.1607 165.91 38.234V38.444ZM162.928 35.672C162.34 35.672 161.859 35.8493 161.486 36.204C161.122 36.5587 160.888 37.058 160.786 37.702H164.888C164.832 37.0393 164.636 36.5353 164.3 36.19C163.973 35.8447 163.516 35.672 162.928 35.672ZM173.833 34.958V42H172.713V40.726C172.508 41.1647 172.195 41.5053 171.775 41.748C171.364 41.9813 170.884 42.098 170.333 42.098C169.708 42.098 169.157 41.9487 168.681 41.65C168.214 41.3513 167.85 40.9313 167.589 40.39C167.337 39.8393 167.211 39.2 167.211 38.472C167.211 37.744 167.342 37.1047 167.603 36.554C167.864 35.994 168.228 35.56 168.695 35.252C169.171 34.944 169.717 34.79 170.333 34.79C170.884 34.79 171.364 34.9113 171.775 35.154C172.186 35.3967 172.498 35.7373 172.713 36.176V34.958H173.833ZM170.557 41.16C171.248 41.16 171.78 40.9267 172.153 40.46C172.526 39.984 172.713 39.312 172.713 38.444C172.713 37.576 172.526 36.9087 172.153 36.442C171.78 35.9753 171.248 35.742 170.557 35.742C169.866 35.742 169.325 35.9847 168.933 36.47C168.55 36.946 168.359 37.6133 168.359 38.472C168.359 39.3307 168.55 39.9933 168.933 40.46C169.316 40.9267 169.857 41.16 170.557 41.16ZM177.538 35.854V39.704C177.538 40.2267 177.645 40.5953 177.86 40.81C178.074 41.0153 178.378 41.118 178.77 41.118C179.031 41.118 179.283 41.076 179.526 40.992V41.958C179.236 42.0513 178.91 42.098 178.546 42.098C177.874 42.098 177.346 41.9113 176.964 41.538C176.59 41.1553 176.404 40.5953 176.404 39.858V35.854H175.032V34.958H176.404V33.152L177.538 32.746V34.958H179.554V35.854H177.538ZM186.814 38.444H181.648C181.657 39.34 181.863 40.0167 182.264 40.474C182.675 40.9313 183.267 41.16 184.042 41.16C184.863 41.16 185.619 40.8847 186.31 40.334L186.688 41.16C186.38 41.4493 185.983 41.678 185.498 41.846C185.022 42.014 184.532 42.098 184.028 42.098C182.927 42.098 182.063 41.776 181.438 41.132C180.813 40.4787 180.5 39.5873 180.5 38.458C180.5 37.7393 180.64 37.1047 180.92 36.554C181.2 35.994 181.592 35.56 182.096 35.252C182.6 34.944 183.174 34.79 183.818 34.79C184.751 34.79 185.484 35.098 186.016 35.714C186.548 36.3207 186.814 37.1607 186.814 38.234V38.444ZM183.832 35.672C183.244 35.672 182.763 35.8493 182.39 36.204C182.026 36.5587 181.793 37.058 181.69 37.702H185.792C185.736 37.0393 185.54 36.5353 185.204 36.19C184.877 35.8447 184.42 35.672 183.832 35.672ZM192.186 31.696H193.32V42H192.186V31.696ZM198.434 42.098C197.771 42.098 197.188 41.9487 196.684 41.65C196.18 41.3513 195.788 40.9267 195.508 40.376C195.237 39.8253 195.102 39.1813 195.102 38.444C195.102 37.7067 195.237 37.0627 195.508 36.512C195.788 35.9613 196.18 35.5367 196.684 35.238C197.188 34.9393 197.771 34.79 198.434 34.79C199.096 34.79 199.68 34.9393 200.184 35.238C200.688 35.5367 201.075 35.9613 201.346 36.512C201.626 37.0627 201.766 37.7067 201.766 38.444C201.766 39.1813 201.626 39.8253 201.346 40.376C201.075 40.9267 200.688 41.3513 200.184 41.65C199.68 41.9487 199.096 42.098 198.434 42.098ZM198.434 41.16C199.134 41.16 199.67 40.9313 200.044 40.474C200.417 40.0073 200.604 39.3307 200.604 38.444C200.604 37.5853 200.412 36.9227 200.03 36.456C199.647 35.98 199.115 35.742 198.434 35.742C197.743 35.742 197.206 35.98 196.824 36.456C196.441 36.9227 196.25 37.5853 196.25 38.444C196.25 39.3307 196.436 40.0073 196.81 40.474C197.192 40.9313 197.734 41.16 198.434 41.16ZM207.047 34.79C208.737 34.79 209.581 35.7187 209.581 37.576V42H208.447V37.632C208.447 36.9787 208.317 36.5027 208.055 36.204C207.794 35.896 207.383 35.742 206.823 35.742C206.17 35.742 205.647 35.9427 205.255 36.344C204.863 36.7453 204.667 37.2867 204.667 37.968V42H203.533V36.932C203.533 36.204 203.496 35.546 203.421 34.958H204.499L204.611 36.218C204.826 35.7607 205.148 35.4107 205.577 35.168C206.007 34.916 206.497 34.79 207.047 34.79ZM217.995 34.958V41.944C217.995 42.9893 217.724 43.778 217.183 44.31C216.651 44.8513 215.862 45.122 214.817 45.122C213.744 45.122 212.82 44.8793 212.045 44.394L212.241 43.47C212.689 43.722 213.109 43.904 213.501 44.016C213.902 44.128 214.341 44.184 214.817 44.184C215.498 44.184 216.012 44.002 216.357 43.638C216.702 43.2833 216.875 42.7513 216.875 42.042V40.376C216.66 40.824 216.343 41.174 215.923 41.426C215.512 41.6687 215.022 41.79 214.453 41.79C213.837 41.79 213.286 41.6453 212.801 41.356C212.325 41.0667 211.956 40.656 211.695 40.124C211.434 39.592 211.303 38.9807 211.303 38.29C211.303 37.5993 211.434 36.988 211.695 36.456C211.956 35.924 212.325 35.5133 212.801 35.224C213.286 34.9347 213.837 34.79 214.453 34.79C215.013 34.79 215.498 34.9113 215.909 35.154C216.329 35.3967 216.646 35.7373 216.861 36.176V34.958H217.995ZM214.677 40.838C215.358 40.838 215.89 40.614 216.273 40.166C216.665 39.7087 216.861 39.0833 216.861 38.29C216.861 37.4967 216.665 36.876 216.273 36.428C215.89 35.9707 215.358 35.742 214.677 35.742C213.986 35.742 213.44 35.9707 213.039 36.428C212.647 36.876 212.451 37.4967 212.451 38.29C212.451 39.0833 212.647 39.7087 213.039 40.166C213.44 40.614 213.986 40.838 214.677 40.838ZM220.102 37.772H224.064V38.71H220.102V37.772ZM227.686 35.854V39.704C227.686 40.2267 227.793 40.5953 228.008 40.81C228.223 41.0153 228.526 41.118 228.918 41.118C229.179 41.118 229.431 41.076 229.674 40.992V41.958C229.385 42.0513 229.058 42.098 228.694 42.098C228.022 42.098 227.495 41.9113 227.112 41.538C226.739 41.1553 226.552 40.5953 226.552 39.858V35.854H225.18V34.958H226.552V33.152L227.686 32.746V34.958H229.702V35.854H227.686ZM237.271 34.958V42H236.151V40.726C235.945 41.1647 235.633 41.5053 235.213 41.748C234.802 41.9813 234.321 42.098 233.771 42.098C233.145 42.098 232.595 41.9487 232.119 41.65C231.652 41.3513 231.288 40.9313 231.027 40.39C230.775 39.8393 230.649 39.2 230.649 38.472C230.649 37.744 230.779 37.1047 231.041 36.554C231.302 35.994 231.666 35.56 232.133 35.252C232.609 34.944 233.155 34.79 233.771 34.79C234.321 34.79 234.802 34.9113 235.213 35.154C235.623 35.3967 235.936 35.7373 236.151 36.176V34.958H237.271ZM233.995 41.16C234.685 41.16 235.217 40.9267 235.591 40.46C235.964 39.984 236.151 39.312 236.151 38.444C236.151 37.576 235.964 36.9087 235.591 36.442C235.217 35.9753 234.685 35.742 233.995 35.742C233.304 35.742 232.763 35.9847 232.371 36.47C231.988 36.946 231.797 37.6133 231.797 38.472C231.797 39.3307 231.988 39.9933 232.371 40.46C232.753 40.9267 233.295 41.16 233.995 41.16ZM239.463 34.958H240.597V42H239.463V34.958ZM240.737 31.976V33.264H239.351V31.976H240.737ZM242.799 31.696H243.933V42H242.799V31.696ZM67.472 60.098C66.2867 60.098 65.3487 59.7947 64.658 59.188L65.036 58.348C65.4187 58.6467 65.806 58.8613 66.198 58.992C66.59 59.1227 67.0287 59.188 67.514 59.188C68.046 59.188 68.4473 59.0993 68.718 58.922C68.998 58.7353 69.138 58.4693 69.138 58.124C69.138 57.844 69.0447 57.62 68.858 57.452C68.6713 57.284 68.3633 57.1533 67.934 57.06L66.744 56.78C66.156 56.6493 65.6987 56.416 65.372 56.08C65.0547 55.744 64.896 55.3427 64.896 54.876C64.896 54.26 65.1433 53.7607 65.638 53.378C66.1327 52.986 66.786 52.79 67.598 52.79C68.0927 52.79 68.5593 52.8693 68.998 53.028C69.4367 53.1867 69.8053 53.4153 70.104 53.714L69.726 54.54C69.0633 53.9893 68.354 53.714 67.598 53.714C67.094 53.714 66.702 53.812 66.422 54.008C66.1513 54.1947 66.016 54.4607 66.016 54.806C66.016 55.0953 66.1 55.324 66.268 55.492C66.4453 55.66 66.7253 55.7907 67.108 55.884L68.298 56.178C68.9513 56.3273 69.4367 56.5607 69.754 56.878C70.0713 57.186 70.23 57.592 70.23 58.096C70.23 58.7027 69.9827 59.188 69.488 59.552C68.9933 59.916 68.3213 60.098 67.472 60.098ZM75.5513 52.79C76.1673 52.79 76.7133 52.944 77.1893 53.252C77.6653 53.56 78.034 53.994 78.2953 54.554C78.5566 55.1047 78.6873 55.744 78.6873 56.472C78.6873 57.2 78.5566 57.8393 78.2953 58.39C78.034 58.9313 77.6653 59.3513 77.1893 59.65C76.7226 59.9487 76.1766 60.098 75.5513 60.098C75.0006 60.098 74.52 59.9767 74.1093 59.734C73.6986 59.4913 73.386 59.146 73.1713 58.698V63.024H72.0373V54.932C72.0373 54.204 72 53.546 71.9253 52.958H73.0033L73.1153 54.316C73.3113 53.8307 73.6193 53.4573 74.0393 53.196C74.4686 52.9253 74.9726 52.79 75.5513 52.79ZM75.3413 59.16C76.032 59.16 76.564 58.9267 76.9373 58.46C77.32 57.9933 77.5113 57.3307 77.5113 56.472C77.5113 55.6133 77.32 54.946 76.9373 54.47C76.5546 53.9847 76.0226 53.742 75.3413 53.742C74.6413 53.742 74.1046 53.9753 73.7313 54.442C73.358 54.9087 73.1713 55.576 73.1713 56.444C73.1713 57.312 73.358 57.984 73.7313 58.46C74.1046 58.9267 74.6413 59.16 75.3413 59.16ZM86.3258 56.444H81.1598C81.1692 57.34 81.3745 58.0167 81.7758 58.474C82.1865 58.9313 82.7792 59.16 83.5538 59.16C84.3752 59.16 85.1312 58.8847 85.8218 58.334L86.1998 59.16C85.8918 59.4493 85.4952 59.678 85.0098 59.846C84.5338 60.014 84.0438 60.098 83.5398 60.098C82.4385 60.098 81.5752 59.776 80.9498 59.132C80.3245 58.4787 80.0118 57.5873 80.0118 56.458C80.0118 55.7393 80.1518 55.1047 80.4318 54.554C80.7118 53.994 81.1038 53.56 81.6078 53.252C82.1118 52.944 82.6858 52.79 83.3298 52.79C84.2632 52.79 84.9958 53.098 85.5278 53.714C86.0598 54.3207 86.3258 55.1607 86.3258 56.234V56.444ZM83.3438 53.672C82.7558 53.672 82.2752 53.8493 81.9018 54.204C81.5378 54.5587 81.3045 55.058 81.2018 55.702H85.3038C85.2478 55.0393 85.0518 54.5353 84.7158 54.19C84.3892 53.8447 83.9318 53.672 83.3438 53.672ZM91.0011 60.098C90.3197 60.098 89.7224 59.9487 89.2091 59.65C88.7051 59.3513 88.3131 58.9313 88.0331 58.39C87.7624 57.8393 87.6271 57.2 87.6271 56.472C87.6271 55.744 87.7671 55.1047 88.0471 54.554C88.3271 53.994 88.7237 53.56 89.2371 53.252C89.7597 52.944 90.3664 52.79 91.0571 52.79C91.5331 52.79 91.9904 52.874 92.4291 53.042C92.8771 53.2007 93.2457 53.4247 93.5351 53.714L93.1571 54.554C92.8024 54.274 92.4571 54.0687 92.1211 53.938C91.7944 53.8073 91.4584 53.742 91.1131 53.742C90.3944 53.742 89.8297 53.9847 89.4191 54.47C89.0084 54.946 88.8031 55.6133 88.8031 56.472C88.8031 57.3213 89.0037 57.984 89.4051 58.46C89.8157 58.9267 90.3851 59.16 91.1131 59.16C91.4584 59.16 91.7944 59.0947 92.1211 58.964C92.4571 58.8333 92.8024 58.628 93.1571 58.348L93.5351 59.188C93.2364 59.468 92.8584 59.692 92.4011 59.86C91.9531 60.0187 91.4864 60.098 91.0011 60.098ZM94.9787 52.958H96.1127V60H94.9787V52.958ZM96.2527 49.976V51.264H94.8667V49.976H96.2527ZM99.8267 52.958H104.153V60H103.019V53.854H99.8267V60H98.6927V53.854H97.3207V52.958H98.6927V52.02C98.6927 51.4507 98.7767 50.9933 98.9447 50.648C99.122 50.3027 99.4067 50.0507 99.7987 49.892C100.191 49.7333 100.723 49.654 101.395 49.654H101.843V50.536H101.493C101.007 50.536 100.648 50.578 100.415 50.662C100.191 50.746 100.037 50.9093 99.9527 51.152C99.8687 51.3853 99.8267 51.7493 99.8267 52.244V52.958ZM104.293 49.906V51.222H102.879V49.906H104.293ZM109.294 60.098C108.613 60.098 108.015 59.9487 107.502 59.65C106.998 59.3513 106.606 58.9313 106.326 58.39C106.055 57.8393 105.92 57.2 105.92 56.472C105.92 55.744 106.06 55.1047 106.34 54.554C106.62 53.994 107.017 53.56 107.53 53.252C108.053 52.944 108.659 52.79 109.35 52.79C109.826 52.79 110.283 52.874 110.722 53.042C111.17 53.2007 111.539 53.4247 111.828 53.714L111.45 54.554C111.095 54.274 110.75 54.0687 110.414 53.938C110.087 53.8073 109.751 53.742 109.406 53.742C108.687 53.742 108.123 53.9847 107.712 54.47C107.301 54.946 107.096 55.6133 107.096 56.472C107.096 57.3213 107.297 57.984 107.698 58.46C108.109 58.9267 108.678 59.16 109.406 59.16C109.751 59.16 110.087 59.0947 110.414 58.964C110.75 58.8333 111.095 58.628 111.45 58.348L111.828 59.188C111.529 59.468 111.151 59.692 110.694 59.86C110.246 60.0187 109.779 60.098 109.294 60.098ZM120.436 52.79C121.052 52.79 121.598 52.944 122.074 53.252C122.55 53.56 122.919 53.994 123.18 54.554C123.441 55.1047 123.572 55.744 123.572 56.472C123.572 57.2 123.441 57.8393 123.18 58.39C122.919 58.9313 122.55 59.3513 122.074 59.65C121.607 59.9487 121.061 60.098 120.436 60.098C119.885 60.098 119.405 59.9767 118.994 59.734C118.583 59.4913 118.271 59.146 118.056 58.698V63.024H116.922V54.932C116.922 54.204 116.885 53.546 116.81 52.958H117.888L118 54.316C118.196 53.8307 118.504 53.4573 118.924 53.196C119.353 52.9253 119.857 52.79 120.436 52.79ZM120.226 59.16C120.917 59.16 121.449 58.9267 121.822 58.46C122.205 57.9933 122.396 57.3307 122.396 56.472C122.396 55.6133 122.205 54.946 121.822 54.47C121.439 53.9847 120.907 53.742 120.226 53.742C119.526 53.742 118.989 53.9753 118.616 54.442C118.243 54.9087 118.056 55.576 118.056 56.444C118.056 57.312 118.243 57.984 118.616 58.46C118.989 58.9267 119.526 59.16 120.226 59.16ZM131.519 52.958V60H130.399V58.726C130.193 59.1647 129.881 59.5053 129.461 59.748C129.05 59.9813 128.569 60.098 128.019 60.098C127.393 60.098 126.843 59.9487 126.367 59.65C125.9 59.3513 125.536 58.9313 125.275 58.39C125.023 57.8393 124.897 57.2 124.897 56.472C124.897 55.744 125.027 55.1047 125.289 54.554C125.55 53.994 125.914 53.56 126.381 53.252C126.857 52.944 127.403 52.79 128.019 52.79C128.569 52.79 129.05 52.9113 129.461 53.154C129.871 53.3967 130.184 53.7373 130.399 54.176V52.958H131.519ZM128.243 59.16C128.933 59.16 129.465 58.9267 129.839 58.46C130.212 57.984 130.399 57.312 130.399 56.444C130.399 55.576 130.212 54.9087 129.839 54.442C129.465 53.9753 128.933 53.742 128.243 53.742C127.552 53.742 127.011 53.9847 126.619 54.47C126.236 54.946 126.045 55.6133 126.045 56.472C126.045 57.3307 126.236 57.9933 126.619 58.46C127.001 58.9267 127.543 59.16 128.243 59.16ZM139.983 52.958V59.944C139.983 60.9893 139.712 61.778 139.171 62.31C138.639 62.8513 137.85 63.122 136.805 63.122C135.732 63.122 134.808 62.8793 134.033 62.394L134.229 61.47C134.677 61.722 135.097 61.904 135.489 62.016C135.89 62.128 136.329 62.184 136.805 62.184C137.486 62.184 138 62.002 138.345 61.638C138.69 61.2833 138.863 60.7513 138.863 60.042V58.376C138.648 58.824 138.331 59.174 137.911 59.426C137.5 59.6687 137.01 59.79 136.441 59.79C135.825 59.79 135.274 59.6453 134.789 59.356C134.313 59.0667 133.944 58.656 133.683 58.124C133.422 57.592 133.291 56.9807 133.291 56.29C133.291 55.5993 133.422 54.988 133.683 54.456C133.944 53.924 134.313 53.5133 134.789 53.224C135.274 52.9347 135.825 52.79 136.441 52.79C137.001 52.79 137.486 52.9113 137.897 53.154C138.317 53.3967 138.634 53.7373 138.849 54.176V52.958H139.983ZM136.665 58.838C137.346 58.838 137.878 58.614 138.261 58.166C138.653 57.7087 138.849 57.0833 138.849 56.29C138.849 55.4967 138.653 54.876 138.261 54.428C137.878 53.9707 137.346 53.742 136.665 53.742C135.974 53.742 135.428 53.9707 135.027 54.428C134.635 54.876 134.439 55.4967 134.439 56.29C134.439 57.0833 134.635 57.7087 135.027 58.166C135.428 58.614 135.974 58.838 136.665 58.838ZM148.054 56.444H142.888C142.898 57.34 143.103 58.0167 143.504 58.474C143.915 58.9313 144.508 59.16 145.282 59.16C146.104 59.16 146.86 58.8847 147.55 58.334L147.928 59.16C147.62 59.4493 147.224 59.678 146.738 59.846C146.262 60.014 145.772 60.098 145.268 60.098C144.167 60.098 143.304 59.776 142.678 59.132C142.053 58.4787 141.74 57.5873 141.74 56.458C141.74 55.7393 141.88 55.1047 142.16 54.554C142.44 53.994 142.832 53.56 143.336 53.252C143.84 52.944 144.414 52.79 145.058 52.79C145.992 52.79 146.724 53.098 147.256 53.714C147.788 54.3207 148.054 55.1607 148.054 56.234V56.444ZM145.072 53.672C144.484 53.672 144.004 53.8493 143.63 54.204C143.266 54.5587 143.033 55.058 142.93 55.702H147.032C146.976 55.0393 146.78 54.5353 146.444 54.19C146.118 53.8447 145.66 53.672 145.072 53.672ZM152.156 60.098C150.97 60.098 150.032 59.7947 149.342 59.188L149.72 58.348C150.102 58.6467 150.49 58.8613 150.882 58.992C151.274 59.1227 151.712 59.188 152.198 59.188C152.73 59.188 153.131 59.0993 153.402 58.922C153.682 58.7353 153.822 58.4693 153.822 58.124C153.822 57.844 153.728 57.62 153.542 57.452C153.355 57.284 153.047 57.1533 152.618 57.06L151.428 56.78C150.84 56.6493 150.382 56.416 150.056 56.08C149.738 55.744 149.58 55.3427 149.58 54.876C149.58 54.26 149.827 53.7607 150.322 53.378C150.816 52.986 151.47 52.79 152.282 52.79C152.776 52.79 153.243 52.8693 153.682 53.028C154.12 53.1867 154.489 53.4153 154.788 53.714L154.41 54.54C153.747 53.9893 153.038 53.714 152.282 53.714C151.778 53.714 151.386 53.812 151.106 54.008C150.835 54.1947 150.7 54.4607 150.7 54.806C150.7 55.0953 150.784 55.324 150.952 55.492C151.129 55.66 151.409 55.7907 151.792 55.884L152.982 56.178C153.635 56.3273 154.12 56.5607 154.438 56.878C154.755 57.186 154.914 57.592 154.914 58.096C154.914 58.7027 154.666 59.188 154.172 59.552C153.677 59.916 153.005 60.098 152.156 60.098Z" fill="#5B5151"/>
<circle cx="41" cy="43" r="15" fill="white"/>
<mask id="mask0" mask-type="alpha" maskUnits="userSpaceOnUse" x="26" y="28" width="30" height="30">
<circle cx="41" cy="43" r="15" fill="white"/>
</mask>
<g mask="url(#mask0)">
<path d="M46.3763 40.5393C46.3763 42.0615 45.8304 43.3792 44.7535 44.4562C43.6766 45.5331 42.3587 46.079 40.8365 46.079H40.8338C39.3135 46.0785 37.9966 45.5326 36.9197 44.4562C35.8426 43.3792 35.2969 42.0615 35.2969 40.5393C35.2969 39.0175 35.8426 37.6997 36.9197 36.6228C37.996 35.5463 39.313 35.0005 40.8338 35H40.8365C42.3582 35 43.676 35.5459 44.7535 36.6228C45.8304 37.6997 46.3763 39.0175 46.3763 40.5393Z" fill="#FFD589"/>
<path d="M50.5759 54.0444C50.5759 55.2454 50.1939 56.2177 49.4415 56.9338C48.6978 57.6415 47.7142 58 46.5184 58H35.4437C34.2479 58 33.2643 57.6415 32.5212 56.9338C31.7682 56.2172 31.3867 55.245 31.3867 54.0444C31.3867 53.5826 31.402 53.1256 31.4325 52.6862C31.4636 52.237 31.5264 51.7482 31.619 51.2324C31.7124 50.7125 31.8324 50.221 31.9761 49.7718C32.1253 49.3068 32.3271 48.8481 32.5768 48.4087C32.8362 47.9526 33.1408 47.5553 33.4823 47.2282C33.8402 46.8859 34.2779 46.6109 34.7838 46.4105C35.2879 46.2112 35.8468 46.1101 36.4448 46.1101C36.6794 46.1101 36.9067 46.2061 37.3447 46.4914C37.6188 46.6702 37.9346 46.8738 38.2833 47.0966C38.5844 47.2886 38.9922 47.4686 39.4963 47.6313C39.9394 47.7747 40.3892 47.8547 40.8335 47.8686C40.8824 47.8703 40.9314 47.8712 40.9803 47.8712C41.4738 47.8712 41.9728 47.7903 42.4649 47.6313C42.969 47.4686 43.3774 47.2886 43.6783 47.0966C44.0306 46.8715 44.3465 46.6681 44.6166 46.4919C45.0549 46.2061 45.2818 46.1101 45.5169 46.1101C46.1144 46.1101 46.6733 46.2112 47.1778 46.4105C47.6837 46.6109 48.1213 46.8864 48.479 47.2282C48.821 47.5553 49.1256 47.9526 49.3848 48.4087C49.6347 48.8484 49.8368 49.3068 49.9854 49.7712C50.1293 50.221 50.2497 50.7125 50.3431 51.2328C50.4352 51.749 50.4982 52.2379 50.5291 52.6859C50.5601 53.1239 50.5754 53.5808 50.5759 54.0444Z" fill="#D55A5F"/>
</g>
<path d="M50 112C50 100.954 58.9543 92 70 92H323C334.046 92 343 100.954 343 112V188H70C58.9543 188 50 179.046 50 168V112Z" fill="#FCFCFC"/>
<path d="M109.488 118.112C108.545 118.112 107.724 117.907 107.024 117.496C106.333 117.085 105.801 116.497 105.428 115.732C105.055 114.957 104.868 114.047 104.868 113.002C104.868 111.957 105.055 111.056 105.428 110.3C105.801 109.535 106.333 108.947 107.024 108.536C107.724 108.125 108.545 107.92 109.488 107.92C110.179 107.92 110.809 108.027 111.378 108.242C111.957 108.447 112.456 108.76 112.876 109.18L112.442 110.062C111.966 109.651 111.495 109.357 111.028 109.18C110.571 109.003 110.062 108.914 109.502 108.914C108.41 108.914 107.561 109.269 106.954 109.978C106.357 110.687 106.058 111.695 106.058 113.002C106.058 114.318 106.357 115.335 106.954 116.054C107.551 116.763 108.401 117.118 109.502 117.118C110.062 117.118 110.571 117.029 111.028 116.852C111.495 116.675 111.966 116.381 112.442 115.97L112.876 116.852C112.456 117.272 111.957 117.589 111.378 117.804C110.809 118.009 110.179 118.112 109.488 118.112ZM117.938 110.79C118.172 110.79 118.386 110.818 118.582 110.874L118.554 111.91C118.34 111.835 118.092 111.798 117.812 111.798C117.131 111.798 116.622 112.013 116.286 112.442C115.96 112.862 115.796 113.375 115.796 113.982V118H114.662V112.932C114.662 112.204 114.625 111.546 114.55 110.958H115.628L115.74 112.26C115.918 111.784 116.202 111.42 116.594 111.168C116.986 110.916 117.434 110.79 117.938 110.79ZM125.492 114.444H120.326C120.335 115.34 120.541 116.017 120.942 116.474C121.353 116.931 121.945 117.16 122.72 117.16C123.541 117.16 124.297 116.885 124.988 116.334L125.366 117.16C125.058 117.449 124.661 117.678 124.176 117.846C123.7 118.014 123.21 118.098 122.706 118.098C121.605 118.098 120.741 117.776 120.116 117.132C119.491 116.479 119.178 115.587 119.178 114.458C119.178 113.739 119.318 113.105 119.598 112.554C119.878 111.994 120.27 111.56 120.774 111.252C121.278 110.944 121.852 110.79 122.496 110.79C123.429 110.79 124.162 111.098 124.694 111.714C125.226 112.321 125.492 113.161 125.492 114.234V114.444ZM122.51 111.672C121.922 111.672 121.441 111.849 121.068 112.204C120.704 112.559 120.471 113.058 120.368 113.702H124.47C124.414 113.039 124.218 112.535 123.882 112.19C123.555 111.845 123.098 111.672 122.51 111.672ZM133.415 110.958V118H132.295V116.726C132.09 117.165 131.777 117.505 131.357 117.748C130.946 117.981 130.466 118.098 129.915 118.098C129.29 118.098 128.739 117.949 128.263 117.65C127.796 117.351 127.432 116.931 127.171 116.39C126.919 115.839 126.793 115.2 126.793 114.472C126.793 113.744 126.924 113.105 127.185 112.554C127.446 111.994 127.81 111.56 128.277 111.252C128.753 110.944 129.299 110.79 129.915 110.79C130.466 110.79 130.946 110.911 131.357 111.154C131.768 111.397 132.08 111.737 132.295 112.176V110.958H133.415ZM130.139 117.16C130.83 117.16 131.362 116.927 131.735 116.46C132.108 115.984 132.295 115.312 132.295 114.444C132.295 113.576 132.108 112.909 131.735 112.442C131.362 111.975 130.83 111.742 130.139 111.742C129.448 111.742 128.907 111.985 128.515 112.47C128.132 112.946 127.941 113.613 127.941 114.472C127.941 115.331 128.132 115.993 128.515 116.46C128.898 116.927 129.439 117.16 130.139 117.16ZM137.12 111.854V115.704C137.12 116.227 137.227 116.595 137.442 116.81C137.656 117.015 137.96 117.118 138.352 117.118C138.613 117.118 138.865 117.076 139.108 116.992V117.958C138.818 118.051 138.492 118.098 138.128 118.098C137.456 118.098 136.928 117.911 136.546 117.538C136.172 117.155 135.986 116.595 135.986 115.858V111.854H134.614V110.958H135.986V109.152L137.12 108.746V110.958H139.136V111.854H137.12ZM146.396 114.444H141.23C141.239 115.34 141.445 116.017 141.846 116.474C142.257 116.931 142.849 117.16 143.624 117.16C144.445 117.16 145.201 116.885 145.892 116.334L146.27 117.16C145.962 117.449 145.565 117.678 145.08 117.846C144.604 118.014 144.114 118.098 143.61 118.098C142.509 118.098 141.645 117.776 141.02 117.132C140.395 116.479 140.082 115.587 140.082 114.458C140.082 113.739 140.222 113.105 140.502 112.554C140.782 111.994 141.174 111.56 141.678 111.252C142.182 110.944 142.756 110.79 143.4 110.79C144.333 110.79 145.066 111.098 145.598 111.714C146.13 112.321 146.396 113.161 146.396 114.234V114.444ZM143.414 111.672C142.826 111.672 142.345 111.849 141.972 112.204C141.608 112.559 141.375 113.058 141.272 113.702H145.374C145.318 113.039 145.122 112.535 144.786 112.19C144.459 111.845 144.002 111.672 143.414 111.672ZM157.956 110.958L154.666 118.644C154.32 119.447 153.886 120.035 153.364 120.408C152.841 120.781 152.197 121.038 151.432 121.178L151.194 120.296C151.856 120.147 152.356 119.946 152.692 119.694C153.037 119.451 153.322 119.073 153.546 118.56L153.826 117.93L150.844 110.958H152.034L154.414 116.768L156.822 110.958H157.956ZM162.035 118.098C161.373 118.098 160.789 117.949 160.285 117.65C159.781 117.351 159.389 116.927 159.109 116.376C158.839 115.825 158.703 115.181 158.703 114.444C158.703 113.707 158.839 113.063 159.109 112.512C159.389 111.961 159.781 111.537 160.285 111.238C160.789 110.939 161.373 110.79 162.035 110.79C162.698 110.79 163.281 110.939 163.785 111.238C164.289 111.537 164.677 111.961 164.947 112.512C165.227 113.063 165.367 113.707 165.367 114.444C165.367 115.181 165.227 115.825 164.947 116.376C164.677 116.927 164.289 117.351 163.785 117.65C163.281 117.949 162.698 118.098 162.035 118.098ZM162.035 117.16C162.735 117.16 163.272 116.931 163.645 116.474C164.019 116.007 164.205 115.331 164.205 114.444C164.205 113.585 164.014 112.923 163.631 112.456C163.249 111.98 162.717 111.742 162.035 111.742C161.345 111.742 160.808 111.98 160.425 112.456C160.043 112.923 159.851 113.585 159.851 114.444C159.851 115.331 160.038 116.007 160.411 116.474C160.794 116.931 161.335 117.16 162.035 117.16ZM173.029 110.958V118H171.923V116.782C171.699 117.211 171.386 117.538 170.985 117.762C170.584 117.986 170.131 118.098 169.627 118.098C168.796 118.098 168.166 117.865 167.737 117.398C167.308 116.931 167.093 116.241 167.093 115.326V110.958H168.227V115.298C168.227 115.933 168.358 116.399 168.619 116.698C168.88 116.997 169.277 117.146 169.809 117.146C170.434 117.146 170.938 116.945 171.321 116.544C171.704 116.133 171.895 115.597 171.895 114.934V110.958H173.029ZM178.491 110.79C178.724 110.79 178.939 110.818 179.135 110.874L179.107 111.91C178.892 111.835 178.645 111.798 178.365 111.798C177.684 111.798 177.175 112.013 176.839 112.442C176.512 112.862 176.349 113.375 176.349 113.982V118H175.215V112.932C175.215 112.204 175.178 111.546 175.103 110.958H176.181L176.293 112.26C176.47 111.784 176.755 111.42 177.147 111.168C177.539 110.916 177.987 110.79 178.491 110.79ZM187.452 110.79C188.068 110.79 188.614 110.944 189.09 111.252C189.566 111.56 189.934 111.994 190.196 112.554C190.457 113.105 190.588 113.744 190.588 114.472C190.588 115.2 190.457 115.839 190.196 116.39C189.934 116.931 189.566 117.351 189.09 117.65C188.623 117.949 188.077 118.098 187.452 118.098C186.901 118.098 186.42 117.977 186.01 117.734C185.599 117.491 185.286 117.146 185.072 116.698V121.024H183.938V112.932C183.938 112.204 183.9 111.546 183.826 110.958H184.904L185.016 112.316C185.212 111.831 185.52 111.457 185.94 111.196C186.369 110.925 186.873 110.79 187.452 110.79ZM187.242 117.16C187.932 117.16 188.464 116.927 188.838 116.46C189.22 115.993 189.412 115.331 189.412 114.472C189.412 113.613 189.22 112.946 188.838 112.47C188.455 111.985 187.923 111.742 187.242 111.742C186.542 111.742 186.005 111.975 185.632 112.442C185.258 112.909 185.072 113.576 185.072 114.444C185.072 115.312 185.258 115.984 185.632 116.46C186.005 116.927 186.542 117.16 187.242 117.16ZM198.534 110.958V118H197.414V116.726C197.209 117.165 196.896 117.505 196.476 117.748C196.066 117.981 195.585 118.098 195.034 118.098C194.409 118.098 193.858 117.949 193.382 117.65C192.916 117.351 192.552 116.931 192.29 116.39C192.038 115.839 191.912 115.2 191.912 114.472C191.912 113.744 192.043 113.105 192.304 112.554C192.566 111.994 192.93 111.56 193.396 111.252C193.872 110.944 194.418 110.79 195.034 110.79C195.585 110.79 196.066 110.911 196.476 111.154C196.887 111.397 197.2 111.737 197.414 112.176V110.958H198.534ZM195.258 117.16C195.949 117.16 196.481 116.927 196.854 116.46C197.228 115.984 197.414 115.312 197.414 114.444C197.414 113.576 197.228 112.909 196.854 112.442C196.481 111.975 195.949 111.742 195.258 111.742C194.568 111.742 194.026 111.985 193.634 112.47C193.252 112.946 193.06 113.613 193.06 114.472C193.06 115.331 193.252 115.993 193.634 116.46C194.017 116.927 194.558 117.16 195.258 117.16ZM206.999 110.958V117.944C206.999 118.989 206.728 119.778 206.187 120.31C205.655 120.851 204.866 121.122 203.821 121.122C202.747 121.122 201.823 120.879 201.049 120.394L201.245 119.47C201.693 119.722 202.113 119.904 202.505 120.016C202.906 120.128 203.345 120.184 203.821 120.184C204.502 120.184 205.015 120.002 205.361 119.638C205.706 119.283 205.879 118.751 205.879 118.042V116.376C205.664 116.824 205.347 117.174 204.927 117.426C204.516 117.669 204.026 117.79 203.457 117.79C202.841 117.79 202.29 117.645 201.805 117.356C201.329 117.067 200.96 116.656 200.699 116.124C200.437 115.592 200.307 114.981 200.307 114.29C200.307 113.599 200.437 112.988 200.699 112.456C200.96 111.924 201.329 111.513 201.805 111.224C202.29 110.935 202.841 110.79 203.457 110.79C204.017 110.79 204.502 110.911 204.913 111.154C205.333 111.397 205.65 111.737 205.865 112.176V110.958H206.999ZM203.681 116.838C204.362 116.838 204.894 116.614 205.277 116.166C205.669 115.709 205.865 115.083 205.865 114.29C205.865 113.497 205.669 112.876 205.277 112.428C204.894 111.971 204.362 111.742 203.681 111.742C202.99 111.742 202.444 111.971 202.043 112.428C201.651 112.876 201.455 113.497 201.455 114.29C201.455 115.083 201.651 115.709 202.043 116.166C202.444 116.614 202.99 116.838 203.681 116.838ZM215.07 114.444H209.904C209.913 115.34 210.119 116.017 210.52 116.474C210.931 116.931 211.523 117.16 212.298 117.16C213.119 117.16 213.875 116.885 214.566 116.334L214.944 117.16C214.636 117.449 214.239 117.678 213.754 117.846C213.278 118.014 212.788 118.098 212.284 118.098C211.183 118.098 210.319 117.776 209.694 117.132C209.069 116.479 208.756 115.587 208.756 114.458C208.756 113.739 208.896 113.105 209.176 112.554C209.456 111.994 209.848 111.56 210.352 111.252C210.856 110.944 211.43 110.79 212.074 110.79C213.007 110.79 213.74 111.098 214.272 111.714C214.804 112.321 215.07 113.161 215.07 114.234V114.444ZM212.088 111.672C211.5 111.672 211.019 111.849 210.646 112.204C210.282 112.559 210.049 113.058 209.946 113.702H214.048C213.992 113.039 213.796 112.535 213.46 112.19C213.133 111.845 212.676 111.672 212.088 111.672ZM219.171 118.098C217.986 118.098 217.048 117.795 216.357 117.188L216.735 116.348C217.118 116.647 217.505 116.861 217.897 116.992C218.289 117.123 218.728 117.188 219.213 117.188C219.745 117.188 220.147 117.099 220.417 116.922C220.697 116.735 220.837 116.469 220.837 116.124C220.837 115.844 220.744 115.62 220.557 115.452C220.371 115.284 220.063 115.153 219.633 115.06L218.443 114.78C217.855 114.649 217.398 114.416 217.071 114.08C216.754 113.744 216.595 113.343 216.595 112.876C216.595 112.26 216.843 111.761 217.337 111.378C217.832 110.986 218.485 110.79 219.297 110.79C219.792 110.79 220.259 110.869 220.697 111.028C221.136 111.187 221.505 111.415 221.803 111.714L221.425 112.54C220.763 111.989 220.053 111.714 219.297 111.714C218.793 111.714 218.401 111.812 218.121 112.008C217.851 112.195 217.715 112.461 217.715 112.806C217.715 113.095 217.799 113.324 217.967 113.492C218.145 113.66 218.425 113.791 218.807 113.884L219.997 114.178C220.651 114.327 221.136 114.561 221.453 114.878C221.771 115.186 221.929 115.592 221.929 116.096C221.929 116.703 221.682 117.188 221.187 117.552C220.693 117.916 220.021 118.098 219.171 118.098ZM233.589 110.958V118H232.469V116.726C232.264 117.165 231.951 117.505 231.531 117.748C231.12 117.981 230.64 118.098 230.089 118.098C229.464 118.098 228.913 117.949 228.437 117.65C227.97 117.351 227.606 116.931 227.345 116.39C227.093 115.839 226.967 115.2 226.967 114.472C226.967 113.744 227.098 113.105 227.359 112.554C227.62 111.994 227.984 111.56 228.451 111.252C228.927 110.944 229.473 110.79 230.089 110.79C230.64 110.79 231.12 110.911 231.531 111.154C231.942 111.397 232.254 111.737 232.469 112.176V110.958H233.589ZM230.313 117.16C231.004 117.16 231.536 116.927 231.909 116.46C232.282 115.984 232.469 115.312 232.469 114.444C232.469 113.576 232.282 112.909 231.909 112.442C231.536 111.975 231.004 111.742 230.313 111.742C229.622 111.742 229.081 111.985 228.689 112.47C228.306 112.946 228.115 113.613 228.115 114.472C228.115 115.331 228.306 115.993 228.689 116.46C229.072 116.927 229.613 117.16 230.313 117.16ZM241.675 110.958V118H240.569V116.782C240.345 117.211 240.033 117.538 239.631 117.762C239.23 117.986 238.777 118.098 238.273 118.098C237.443 118.098 236.813 117.865 236.383 117.398C235.954 116.931 235.739 116.241 235.739 115.326V110.958H236.873V115.298C236.873 115.933 237.004 116.399 237.265 116.698C237.527 116.997 237.923 117.146 238.455 117.146C239.081 117.146 239.585 116.945 239.967 116.544C240.35 116.133 240.541 115.597 240.541 114.934V110.958H241.675ZM245.374 111.854V115.704C245.374 116.227 245.481 116.595 245.696 116.81C245.91 117.015 246.214 117.118 246.606 117.118C246.867 117.118 247.119 117.076 247.362 116.992V117.958C247.072 118.051 246.746 118.098 246.382 118.098C245.71 118.098 245.182 117.911 244.8 117.538C244.426 117.155 244.24 116.595 244.24 115.858V111.854H242.868V110.958H244.24V109.152L245.374 108.746V110.958H247.39V111.854H245.374ZM251.668 118.098C251.005 118.098 250.422 117.949 249.918 117.65C249.414 117.351 249.022 116.927 248.742 116.376C248.471 115.825 248.336 115.181 248.336 114.444C248.336 113.707 248.471 113.063 248.742 112.512C249.022 111.961 249.414 111.537 249.918 111.238C250.422 110.939 251.005 110.79 251.668 110.79C252.331 110.79 252.914 110.939 253.418 111.238C253.922 111.537 254.309 111.961 254.58 112.512C254.86 113.063 255 113.707 255 114.444C255 115.181 254.86 115.825 254.58 116.376C254.309 116.927 253.922 117.351 253.418 117.65C252.914 117.949 252.331 118.098 251.668 118.098ZM251.668 117.16C252.368 117.16 252.905 116.931 253.278 116.474C253.651 116.007 253.838 115.331 253.838 114.444C253.838 113.585 253.647 112.923 253.264 112.456C252.881 111.98 252.349 111.742 251.668 111.742C250.977 111.742 250.441 111.98 250.058 112.456C249.675 112.923 249.484 113.585 249.484 114.444C249.484 115.331 249.671 116.007 250.044 116.474C250.427 116.931 250.968 117.16 251.668 117.16ZM264.58 110.79C266.138 110.79 266.918 111.719 266.918 113.576V118H265.784V113.632C265.784 112.969 265.667 112.489 265.434 112.19C265.21 111.891 264.841 111.742 264.328 111.742C263.73 111.742 263.264 111.943 262.928 112.344C262.592 112.745 262.424 113.291 262.424 113.982V118H261.29V113.632C261.29 112.979 261.173 112.503 260.94 112.204C260.706 111.896 260.333 111.742 259.82 111.742C259.222 111.742 258.751 111.943 258.406 112.344C258.07 112.745 257.902 113.291 257.902 113.982V118H256.768V112.932C256.768 112.204 256.73 111.546 256.656 110.958H257.734L257.846 112.19C258.042 111.742 258.331 111.397 258.714 111.154C259.106 110.911 259.558 110.79 260.072 110.79C260.632 110.79 261.089 110.902 261.444 111.126C261.798 111.35 262.06 111.695 262.228 112.162C262.442 111.742 262.755 111.411 263.166 111.168C263.586 110.916 264.057 110.79 264.58 110.79ZM275.274 110.958V118H274.154V116.726C273.949 117.165 273.636 117.505 273.216 117.748C272.806 117.981 272.325 118.098 271.774 118.098C271.149 118.098 270.598 117.949 270.122 117.65C269.656 117.351 269.292 116.931 269.03 116.39C268.778 115.839 268.652 115.2 268.652 114.472C268.652 113.744 268.783 113.105 269.044 112.554C269.306 111.994 269.67 111.56 270.136 111.252C270.612 110.944 271.158 110.79 271.774 110.79C272.325 110.79 272.806 110.911 273.216 111.154C273.627 111.397 273.94 111.737 274.154 112.176V110.958H275.274ZM271.998 117.16C272.689 117.16 273.221 116.927 273.594 116.46C273.968 115.984 274.154 115.312 274.154 114.444C274.154 113.576 273.968 112.909 273.594 112.442C273.221 111.975 272.689 111.742 271.998 111.742C271.308 111.742 270.766 111.985 270.374 112.47C269.992 112.946 269.8 113.613 269.8 114.472C269.8 115.331 269.992 115.993 270.374 116.46C270.757 116.927 271.298 117.16 271.998 117.16ZM278.979 111.854V115.704C278.979 116.227 279.086 116.595 279.301 116.81C279.516 117.015 279.819 117.118 280.211 117.118C280.472 117.118 280.724 117.076 280.967 116.992V117.958C280.678 118.051 280.351 118.098 279.987 118.098C279.315 118.098 278.788 117.911 278.405 117.538C278.032 117.155 277.845 116.595 277.845 115.858V111.854H276.473V110.958H277.845V109.152L278.979 108.746V110.958H280.995V111.854H278.979ZM282.362 110.958H283.496V118H282.362V110.958ZM283.636 107.976V109.264H282.25V107.976H283.636ZM288.651 118.098C287.97 118.098 287.373 117.949 286.859 117.65C286.355 117.351 285.963 116.931 285.683 116.39C285.413 115.839 285.277 115.2 285.277 114.472C285.277 113.744 285.417 113.105 285.697 112.554C285.977 111.994 286.374 111.56 286.887 111.252C287.41 110.944 288.017 110.79 288.707 110.79C289.183 110.79 289.641 110.874 290.079 111.042C290.527 111.201 290.896 111.425 291.185 111.714L290.807 112.554C290.453 112.274 290.107 112.069 289.771 111.938C289.445 111.807 289.109 111.742 288.763 111.742C288.045 111.742 287.48 111.985 287.069 112.47C286.659 112.946 286.453 113.613 286.453 114.472C286.453 115.321 286.654 115.984 287.055 116.46C287.466 116.927 288.035 117.16 288.763 117.16C289.109 117.16 289.445 117.095 289.771 116.964C290.107 116.833 290.453 116.628 290.807 116.348L291.185 117.188C290.887 117.468 290.509 117.692 290.051 117.86C289.603 118.019 289.137 118.098 288.651 118.098ZM298.831 110.958V118H297.711V116.726C297.506 117.165 297.193 117.505 296.773 117.748C296.362 117.981 295.882 118.098 295.331 118.098C294.706 118.098 294.155 117.949 293.679 117.65C293.212 117.351 292.848 116.931 292.587 116.39C292.335 115.839 292.209 115.2 292.209 114.472C292.209 113.744 292.34 113.105 292.601 112.554C292.862 111.994 293.226 111.56 293.693 111.252C294.169 110.944 294.715 110.79 295.331 110.79C295.882 110.79 296.362 110.911 296.773 111.154C297.184 111.397 297.496 111.737 297.711 112.176V110.958H298.831ZM295.555 117.16C296.246 117.16 296.778 116.927 297.151 116.46C297.524 115.984 297.711 115.312 297.711 114.444C297.711 113.576 297.524 112.909 297.151 112.442C296.778 111.975 296.246 111.742 295.555 111.742C294.864 111.742 294.323 111.985 293.931 112.47C293.548 112.946 293.357 113.613 293.357 114.472C293.357 115.331 293.548 115.993 293.931 116.46C294.314 116.927 294.855 117.16 295.555 117.16ZM301.024 107.696H302.158V118H301.024V107.696ZM304.36 107.696H305.494V118H304.36V107.696ZM313.884 110.958L310.594 118.644C310.248 119.447 309.814 120.035 309.292 120.408C308.769 120.781 308.125 121.038 307.36 121.178L307.122 120.296C307.784 120.147 308.284 119.946 308.62 119.694C308.965 119.451 309.25 119.073 309.474 118.56L309.754 117.93L306.772 110.958H307.962L310.342 116.768L312.75 110.958H313.884ZM115.788 128.958L113.184 136H112.092L110.076 130.498L108.074 136H106.982L104.378 128.958H105.568L107.556 134.642L109.614 128.958H110.608L112.638 134.656L114.668 128.958H115.788ZM117.26 128.958H118.394V136H117.26V128.958ZM118.534 125.976V127.264H117.148V125.976H118.534ZM122.108 129.854V133.704C122.108 134.227 122.215 134.595 122.43 134.81C122.645 135.015 122.948 135.118 123.34 135.118C123.601 135.118 123.853 135.076 124.096 134.992V135.958C123.807 136.051 123.48 136.098 123.116 136.098C122.444 136.098 121.917 135.911 121.534 135.538C121.161 135.155 120.974 134.595 120.974 133.858V129.854H119.602V128.958H120.974V127.152L122.108 126.746V128.958H124.124V129.854H122.108ZM129.004 128.79C130.694 128.79 131.538 129.719 131.538 131.576V136H130.404V131.632C130.404 130.979 130.274 130.503 130.012 130.204C129.751 129.896 129.34 129.742 128.78 129.742C128.127 129.742 127.604 129.943 127.212 130.344C126.82 130.745 126.624 131.287 126.624 131.968V136H125.49V125.696H126.624V130.106C126.848 129.677 127.166 129.35 127.576 129.126C127.996 128.902 128.472 128.79 129.004 128.79ZM140.284 136.098C139.603 136.098 139.006 135.949 138.492 135.65C137.988 135.351 137.596 134.931 137.316 134.39C137.046 133.839 136.91 133.2 136.91 132.472C136.91 131.744 137.05 131.105 137.33 130.554C137.61 129.994 138.007 129.56 138.52 129.252C139.043 128.944 139.65 128.79 140.34 128.79C140.816 128.79 141.274 128.874 141.712 129.042C142.16 129.201 142.529 129.425 142.818 129.714L142.44 130.554C142.086 130.274 141.74 130.069 141.404 129.938C141.078 129.807 140.742 129.742 140.396 129.742C139.678 129.742 139.113 129.985 138.702 130.47C138.292 130.946 138.086 131.613 138.086 132.472C138.086 133.321 138.287 133.984 138.688 134.46C139.099 134.927 139.668 135.16 140.396 135.16C140.742 135.16 141.078 135.095 141.404 134.964C141.74 134.833 142.086 134.628 142.44 134.348L142.818 135.188C142.52 135.468 142.142 135.692 141.684 135.86C141.236 136.019 140.77 136.098 140.284 136.098ZM150.156 128.958V136H149.05V134.782C148.826 135.211 148.513 135.538 148.112 135.762C147.711 135.986 147.258 136.098 146.754 136.098C145.923 136.098 145.293 135.865 144.864 135.398C144.435 134.931 144.22 134.241 144.22 133.326V128.958H145.354V133.298C145.354 133.933 145.485 134.399 145.746 134.698C146.007 134.997 146.404 135.146 146.936 135.146C147.561 135.146 148.065 134.945 148.448 134.544C148.831 134.133 149.022 133.597 149.022 132.934V128.958H150.156ZM154.722 136.098C153.537 136.098 152.599 135.795 151.908 135.188L152.286 134.348C152.669 134.647 153.056 134.861 153.448 134.992C153.84 135.123 154.279 135.188 154.764 135.188C155.296 135.188 155.697 135.099 155.968 134.922C156.248 134.735 156.388 134.469 156.388 134.124C156.388 133.844 156.295 133.62 156.108 133.452C155.921 133.284 155.613 133.153 155.184 133.06L153.994 132.78C153.406 132.649 152.949 132.416 152.622 132.08C152.305 131.744 152.146 131.343 152.146 130.876C152.146 130.26 152.393 129.761 152.888 129.378C153.383 128.986 154.036 128.79 154.848 128.79C155.343 128.79 155.809 128.869 156.248 129.028C156.687 129.187 157.055 129.415 157.354 129.714L156.976 130.54C156.313 129.989 155.604 129.714 154.848 129.714C154.344 129.714 153.952 129.812 153.672 130.008C153.401 130.195 153.266 130.461 153.266 130.806C153.266 131.095 153.35 131.324 153.518 131.492C153.695 131.66 153.975 131.791 154.358 131.884L155.548 132.178C156.201 132.327 156.687 132.561 157.004 132.878C157.321 133.186 157.48 133.592 157.48 134.096C157.48 134.703 157.233 135.188 156.738 135.552C156.243 135.916 155.571 136.098 154.722 136.098ZM160.731 129.854V133.704C160.731 134.227 160.838 134.595 161.053 134.81C161.268 135.015 161.571 135.118 161.963 135.118C162.224 135.118 162.476 135.076 162.719 134.992V135.958C162.43 136.051 162.103 136.098 161.739 136.098C161.067 136.098 160.54 135.911 160.157 135.538C159.784 135.155 159.597 134.595 159.597 133.858V129.854H158.225V128.958H159.597V127.152L160.731 126.746V128.958H162.747V129.854H160.731ZM167.025 136.098C166.363 136.098 165.779 135.949 165.275 135.65C164.771 135.351 164.379 134.927 164.099 134.376C163.829 133.825 163.693 133.181 163.693 132.444C163.693 131.707 163.829 131.063 164.099 130.512C164.379 129.961 164.771 129.537 165.275 129.238C165.779 128.939 166.363 128.79 167.025 128.79C167.688 128.79 168.271 128.939 168.775 129.238C169.279 129.537 169.667 129.961 169.937 130.512C170.217 131.063 170.357 131.707 170.357 132.444C170.357 133.181 170.217 133.825 169.937 134.376C169.667 134.927 169.279 135.351 168.775 135.65C168.271 135.949 167.688 136.098 167.025 136.098ZM167.025 135.16C167.725 135.16 168.262 134.931 168.635 134.474C169.009 134.007 169.195 133.331 169.195 132.444C169.195 131.585 169.004 130.923 168.621 130.456C168.239 129.98 167.707 129.742 167.025 129.742C166.335 129.742 165.798 129.98 165.415 130.456C165.033 130.923 164.841 131.585 164.841 132.444C164.841 133.331 165.028 134.007 165.401 134.474C165.784 134.931 166.325 135.16 167.025 135.16ZM179.937 128.79C181.496 128.79 182.275 129.719 182.275 131.576V136H181.141V131.632C181.141 130.969 181.025 130.489 180.791 130.19C180.567 129.891 180.199 129.742 179.685 129.742C179.088 129.742 178.621 129.943 178.285 130.344C177.949 130.745 177.781 131.291 177.781 131.982V136H176.647V131.632C176.647 130.979 176.531 130.503 176.297 130.204C176.064 129.896 175.691 129.742 175.177 129.742C174.58 129.742 174.109 129.943 173.763 130.344C173.427 130.745 173.259 131.291 173.259 131.982V136H172.125V130.932C172.125 130.204 172.088 129.546 172.013 128.958H173.091L173.203 130.19C173.399 129.742 173.689 129.397 174.071 129.154C174.463 128.911 174.916 128.79 175.429 128.79C175.989 128.79 176.447 128.902 176.801 129.126C177.156 129.35 177.417 129.695 177.585 130.162C177.8 129.742 178.113 129.411 178.523 129.168C178.943 128.916 179.415 128.79 179.937 128.79ZM190.324 132.444H185.158C185.167 133.34 185.373 134.017 185.774 134.474C186.185 134.931 186.777 135.16 187.552 135.16C188.373 135.16 189.129 134.885 189.82 134.334L190.198 135.16C189.89 135.449 189.493 135.678 189.008 135.846C188.532 136.014 188.042 136.098 187.538 136.098C186.437 136.098 185.573 135.776 184.948 135.132C184.323 134.479 184.01 133.587 184.01 132.458C184.01 131.739 184.15 131.105 184.43 130.554C184.71 129.994 185.102 129.56 185.606 129.252C186.11 128.944 186.684 128.79 187.328 128.79C188.261 128.79 188.994 129.098 189.526 129.714C190.058 130.321 190.324 131.161 190.324 132.234V132.444ZM187.342 129.672C186.754 129.672 186.273 129.849 185.9 130.204C185.536 130.559 185.303 131.058 185.2 131.702H189.302C189.246 131.039 189.05 130.535 188.714 130.19C188.387 129.845 187.93 129.672 187.342 129.672ZM195.321 128.79C195.554 128.79 195.769 128.818 195.965 128.874L195.937 129.91C195.722 129.835 195.475 129.798 195.195 129.798C194.514 129.798 194.005 130.013 193.669 130.442C193.342 130.862 193.179 131.375 193.179 131.982V136H192.045V130.932C192.045 130.204 192.008 129.546 191.933 128.958H193.011L193.123 130.26C193.3 129.784 193.585 129.42 193.977 129.168C194.369 128.916 194.817 128.79 195.321 128.79ZM199.429 136.098C198.244 136.098 197.306 135.795 196.615 135.188L196.993 134.348C197.376 134.647 197.763 134.861 198.155 134.992C198.547 135.123 198.986 135.188 199.471 135.188C200.003 135.188 200.404 135.099 200.675 134.922C200.955 134.735 201.095 134.469 201.095 134.124C201.095 133.844 201.002 133.62 200.815 133.452C200.628 133.284 200.32 133.153 199.891 133.06L198.701 132.78C198.113 132.649 197.656 132.416 197.329 132.08C197.012 131.744 196.853 131.343 196.853 130.876C196.853 130.26 197.1 129.761 197.595 129.378C198.09 128.986 198.743 128.79 199.555 128.79C200.05 128.79 200.516 128.869 200.955 129.028C201.394 129.187 201.762 129.415 202.061 129.714L201.683 130.54C201.02 129.989 200.311 129.714 199.555 129.714C199.051 129.714 198.659 129.812 198.379 130.008C198.108 130.195 197.973 130.461 197.973 130.806C197.973 131.095 198.057 131.324 198.225 131.492C198.402 131.66 198.682 131.791 199.065 131.884L200.255 132.178C200.908 132.327 201.394 132.561 201.711 132.878C202.028 133.186 202.187 133.592 202.187 134.096C202.187 134.703 201.94 135.188 201.445 135.552C200.95 135.916 200.278 136.098 199.429 136.098ZM218.341 128.958L215.737 136H214.645L212.629 130.498L210.627 136H209.535L206.931 128.958H208.121L210.109 134.642L212.167 128.958H213.161L215.191 134.656L217.221 128.958H218.341ZM219.813 128.958H220.947V136H219.813V128.958ZM221.087 125.976V127.264H219.701V125.976H221.087ZM224.661 129.854V133.704C224.661 134.227 224.768 134.595 224.983 134.81C225.197 135.015 225.501 135.118 225.893 135.118C226.154 135.118 226.406 135.076 226.649 134.992V135.958C226.359 136.051 226.033 136.098 225.669 136.098C224.997 136.098 224.469 135.911 224.087 135.538C223.713 135.155 223.527 134.595 223.527 133.858V129.854H222.155V128.958H223.527V127.152L224.661 126.746V128.958H226.677V129.854H224.661ZM231.557 128.79C233.247 128.79 234.091 129.719 234.091 131.576V136H232.957V131.632C232.957 130.979 232.827 130.503 232.565 130.204C232.304 129.896 231.893 129.742 231.333 129.742C230.68 129.742 230.157 129.943 229.765 130.344C229.373 130.745 229.177 131.287 229.177 131.968V136H228.043V125.696H229.177V130.106C229.401 129.677 229.719 129.35 230.129 129.126C230.549 128.902 231.025 128.79 231.557 128.79ZM241.395 129.854V133.704C241.395 134.227 241.502 134.595 241.717 134.81C241.932 135.015 242.235 135.118 242.627 135.118C242.888 135.118 243.14 135.076 243.383 134.992V135.958C243.094 136.051 242.767 136.098 242.403 136.098C241.731 136.098 241.204 135.911 240.821 135.538C240.448 135.155 240.261 134.595 240.261 133.858V129.854H238.889V128.958H240.261V127.152L241.395 126.746V128.958H243.411V129.854H241.395ZM248.292 128.79C249.981 128.79 250.826 129.719 250.826 131.576V136H249.692V131.632C249.692 130.979 249.561 130.503 249.3 130.204C249.038 129.896 248.628 129.742 248.068 129.742C247.414 129.742 246.892 129.943 246.5 130.344C246.108 130.745 245.912 131.287 245.912 131.968V136H244.778V125.696H245.912V130.106C246.136 129.677 246.453 129.35 246.864 129.126C247.284 128.902 247.76 128.79 248.292 128.79ZM258.861 132.444H253.695C253.704 133.34 253.91 134.017 254.311 134.474C254.722 134.931 255.314 135.16 256.089 135.16C256.91 135.16 257.666 134.885 258.357 134.334L258.735 135.16C258.427 135.449 258.03 135.678 257.545 135.846C257.069 136.014 256.579 136.098 256.075 136.098C254.974 136.098 254.11 135.776 253.485 135.132C252.86 134.479 252.547 133.587 252.547 132.458C252.547 131.739 252.687 131.105 252.967 130.554C253.247 129.994 253.639 129.56 254.143 129.252C254.647 128.944 255.221 128.79 255.865 128.79C256.798 128.79 257.531 129.098 258.063 129.714C258.595 130.321 258.861 131.161 258.861 132.234V132.444ZM255.879 129.672C255.291 129.672 254.81 129.849 254.437 130.204C254.073 130.559 253.84 131.058 253.737 131.702H257.839C257.783 131.039 257.587 130.535 257.251 130.19C256.924 129.845 256.467 129.672 255.879 129.672ZM260.582 128.958H261.716V136H260.582V128.958ZM261.856 125.976V127.264H260.47V125.976H261.856ZM267.194 128.79C267.428 128.79 267.642 128.818 267.838 128.874L267.81 129.91C267.596 129.835 267.348 129.798 267.068 129.798C266.387 129.798 265.878 130.013 265.542 130.442C265.216 130.862 265.052 131.375 265.052 131.982V136H263.918V130.932C263.918 130.204 263.881 129.546 263.806 128.958H264.884L264.996 130.26C265.174 129.784 265.458 129.42 265.85 129.168C266.242 128.916 266.69 128.79 267.194 128.79ZM276.155 128.79C276.771 128.79 277.317 128.944 277.793 129.252C278.269 129.56 278.637 129.994 278.899 130.554C279.16 131.105 279.291 131.744 279.291 132.472C279.291 133.2 279.16 133.839 278.899 134.39C278.637 134.931 278.269 135.351 277.793 135.65C277.326 135.949 276.78 136.098 276.155 136.098C275.604 136.098 275.123 135.977 274.713 135.734C274.302 135.491 273.989 135.146 273.775 134.698V139.024H272.641V130.932C272.641 130.204 272.603 129.546 272.529 128.958H273.607L273.719 130.316C273.915 129.831 274.223 129.457 274.643 129.196C275.072 128.925 275.576 128.79 276.155 128.79ZM275.945 135.16C276.635 135.16 277.167 134.927 277.541 134.46C277.923 133.993 278.115 133.331 278.115 132.472C278.115 131.613 277.923 130.946 277.541 130.47C277.158 129.985 276.626 129.742 275.945 129.742C275.245 129.742 274.708 129.975 274.335 130.442C273.961 130.909 273.775 131.576 273.775 132.444C273.775 133.312 273.961 133.984 274.335 134.46C274.708 134.927 275.245 135.16 275.945 135.16ZM287.237 128.958V136H286.117V134.726C285.912 135.165 285.599 135.505 285.179 135.748C284.769 135.981 284.288 136.098 283.737 136.098C283.112 136.098 282.561 135.949 282.085 135.65C281.619 135.351 281.255 134.931 280.993 134.39C280.741 133.839 280.615 133.2 280.615 132.472C280.615 131.744 280.746 131.105 281.007 130.554C281.269 129.994 281.633 129.56 282.099 129.252C282.575 128.944 283.121 128.79 283.737 128.79C284.288 128.79 284.769 128.911 285.179 129.154C285.59 129.397 285.903 129.737 286.117 130.176V128.958H287.237ZM283.961 135.16C284.652 135.16 285.184 134.927 285.557 134.46C285.931 133.984 286.117 133.312 286.117 132.444C286.117 131.576 285.931 130.909 285.557 130.442C285.184 129.975 284.652 129.742 283.961 129.742C283.271 129.742 282.729 129.985 282.337 130.47C281.955 130.946 281.763 131.613 281.763 132.472C281.763 133.331 281.955 133.993 282.337 134.46C282.72 134.927 283.261 135.16 283.961 135.16ZM295.702 128.958V135.944C295.702 136.989 295.431 137.778 294.89 138.31C294.358 138.851 293.569 139.122 292.524 139.122C291.451 139.122 290.527 138.879 289.752 138.394L289.948 137.47C290.396 137.722 290.816 137.904 291.208 138.016C291.609 138.128 292.048 138.184 292.524 138.184C293.205 138.184 293.719 138.002 294.064 137.638C294.409 137.283 294.582 136.751 294.582 136.042V134.376C294.367 134.824 294.05 135.174 293.63 135.426C293.219 135.669 292.729 135.79 292.16 135.79C291.544 135.79 290.993 135.645 290.508 135.356C290.032 135.067 289.663 134.656 289.402 134.124C289.141 133.592 289.01 132.981 289.01 132.29C289.01 131.599 289.141 130.988 289.402 130.456C289.663 129.924 290.032 129.513 290.508 129.224C290.993 128.935 291.544 128.79 292.16 128.79C292.72 128.79 293.205 128.911 293.616 129.154C294.036 129.397 294.353 129.737 294.568 130.176V128.958H295.702ZM292.384 134.838C293.065 134.838 293.597 134.614 293.98 134.166C294.372 133.709 294.568 133.083 294.568 132.29C294.568 131.497 294.372 130.876 293.98 130.428C293.597 129.971 293.065 129.742 292.384 129.742C291.693 129.742 291.147 129.971 290.746 130.428C290.354 130.876 290.158 131.497 290.158 132.29C290.158 133.083 290.354 133.709 290.746 134.166C291.147 134.614 291.693 134.838 292.384 134.838ZM303.773 132.444H298.607C298.616 133.34 298.822 134.017 299.223 134.474C299.634 134.931 300.226 135.16 301.001 135.16C301.822 135.16 302.578 134.885 303.269 134.334L303.647 135.16C303.339 135.449 302.942 135.678 302.457 135.846C301.981 136.014 301.491 136.098 300.987 136.098C299.886 136.098 299.022 135.776 298.397 135.132C297.772 134.479 297.459 133.587 297.459 132.458C297.459 131.739 297.599 131.105 297.879 130.554C298.159 129.994 298.551 129.56 299.055 129.252C299.559 128.944 300.133 128.79 300.777 128.79C301.71 128.79 302.443 129.098 302.975 129.714C303.507 130.321 303.773 131.161 303.773 132.234V132.444ZM300.791 129.672C300.203 129.672 299.722 129.849 299.349 130.204C298.985 130.559 298.752 131.058 298.649 131.702H302.751C302.695 131.039 302.499 130.535 302.163 130.19C301.836 129.845 301.379 129.672 300.791 129.672ZM106.604 147.854V151.704C106.604 152.227 106.711 152.595 106.926 152.81C107.141 153.015 107.444 153.118 107.836 153.118C108.097 153.118 108.349 153.076 108.592 152.992V153.958C108.303 154.051 107.976 154.098 107.612 154.098C106.94 154.098 106.413 153.911 106.03 153.538C105.657 153.155 105.47 152.595 105.47 151.858V147.854H104.098V146.958H105.47V145.152L106.604 144.746V146.958H108.62V147.854H106.604ZM115.881 150.444H110.715C110.724 151.34 110.929 152.017 111.331 152.474C111.741 152.931 112.334 153.16 113.109 153.16C113.93 153.16 114.686 152.885 115.377 152.334L115.755 153.16C115.447 153.449 115.05 153.678 114.565 153.846C114.089 154.014 113.599 154.098 113.095 154.098C111.993 154.098 111.13 153.776 110.505 153.132C109.879 152.479 109.567 151.587 109.567 150.458C109.567 149.739 109.707 149.105 109.987 148.554C110.267 147.994 110.659 147.56 111.163 147.252C111.667 146.944 112.241 146.79 112.885 146.79C113.818 146.79 114.551 147.098 115.083 147.714C115.615 148.321 115.881 149.161 115.881 150.234V150.444ZM112.899 147.672C112.311 147.672 111.83 147.849 111.457 148.204C111.093 148.559 110.859 149.058 110.757 149.702H114.859C114.803 149.039 114.607 148.535 114.271 148.19C113.944 147.845 113.487 147.672 112.899 147.672ZM125.414 146.79C126.972 146.79 127.752 147.719 127.752 149.576V154H126.618V149.632C126.618 148.969 126.501 148.489 126.268 148.19C126.044 147.891 125.675 147.742 125.162 147.742C124.564 147.742 124.098 147.943 123.762 148.344C123.426 148.745 123.258 149.291 123.258 149.982V154H122.124V149.632C122.124 148.979 122.007 148.503 121.774 148.204C121.54 147.896 121.167 147.742 120.654 147.742C120.056 147.742 119.585 147.943 119.24 148.344C118.904 148.745 118.736 149.291 118.736 149.982V154H117.602V148.932C117.602 148.204 117.564 147.546 117.49 146.958H118.568L118.68 148.19C118.876 147.742 119.165 147.397 119.548 147.154C119.94 146.911 120.392 146.79 120.906 146.79C121.466 146.79 121.923 146.902 122.278 147.126C122.632 147.35 122.894 147.695 123.062 148.162C123.276 147.742 123.589 147.411 124 147.168C124.42 146.916 124.891 146.79 125.414 146.79ZM133.42 146.79C134.036 146.79 134.582 146.944 135.058 147.252C135.534 147.56 135.903 147.994 136.164 148.554C136.426 149.105 136.556 149.744 136.556 150.472C136.556 151.2 136.426 151.839 136.164 152.39C135.903 152.931 135.534 153.351 135.058 153.65C134.592 153.949 134.046 154.098 133.42 154.098C132.87 154.098 132.389 153.977 131.978 153.734C131.568 153.491 131.255 153.146 131.04 152.698V157.024H129.906V148.932C129.906 148.204 129.869 147.546 129.794 146.958H130.872L130.984 148.316C131.18 147.831 131.488 147.457 131.908 147.196C132.338 146.925 132.842 146.79 133.42 146.79ZM133.21 153.16C133.901 153.16 134.433 152.927 134.806 152.46C135.189 151.993 135.38 151.331 135.38 150.472C135.38 149.613 135.189 148.946 134.806 148.47C134.424 147.985 133.892 147.742 133.21 147.742C132.51 147.742 131.974 147.975 131.6 148.442C131.227 148.909 131.04 149.576 131.04 150.444C131.04 151.312 131.227 151.984 131.6 152.46C131.974 152.927 132.51 153.16 133.21 153.16ZM138.301 143.696H139.435V154H138.301V143.696ZM147.839 146.958V154H146.719V152.726C146.514 153.165 146.201 153.505 145.781 153.748C145.37 153.981 144.89 154.098 144.339 154.098C143.714 154.098 143.163 153.949 142.687 153.65C142.22 153.351 141.856 152.931 141.595 152.39C141.343 151.839 141.217 151.2 141.217 150.472C141.217 149.744 141.348 149.105 141.609 148.554C141.87 147.994 142.234 147.56 142.701 147.252C143.177 146.944 143.723 146.79 144.339 146.79C144.89 146.79 145.37 146.911 145.781 147.154C146.192 147.397 146.504 147.737 146.719 148.176V146.958H147.839ZM144.563 153.16C145.254 153.16 145.786 152.927 146.159 152.46C146.532 151.984 146.719 151.312 146.719 150.444C146.719 149.576 146.532 148.909 146.159 148.442C145.786 147.975 145.254 147.742 144.563 147.742C143.872 147.742 143.331 147.985 142.939 148.47C142.556 148.946 142.365 149.613 142.365 150.472C142.365 151.331 142.556 151.993 142.939 152.46C143.322 152.927 143.863 153.16 144.563 153.16ZM151.543 147.854V151.704C151.543 152.227 151.651 152.595 151.865 152.81C152.08 153.015 152.383 153.118 152.775 153.118C153.037 153.118 153.289 153.076 153.531 152.992V153.958C153.242 154.051 152.915 154.098 152.551 154.098C151.879 154.098 151.352 153.911 150.969 153.538C150.596 153.155 150.409 152.595 150.409 151.858V147.854H149.037V146.958H150.409V145.152L151.543 144.746V146.958H153.559V147.854H151.543ZM160.82 150.444H155.654C155.663 151.34 155.869 152.017 156.27 152.474C156.681 152.931 157.273 153.16 158.048 153.16C158.869 153.16 159.625 152.885 160.316 152.334L160.694 153.16C160.386 153.449 159.989 153.678 159.504 153.846C159.028 154.014 158.538 154.098 158.034 154.098C156.933 154.098 156.069 153.776 155.444 153.132C154.819 152.479 154.506 151.587 154.506 150.458C154.506 149.739 154.646 149.105 154.926 148.554C155.206 147.994 155.598 147.56 156.102 147.252C156.606 146.944 157.18 146.79 157.824 146.79C158.757 146.79 159.49 147.098 160.022 147.714C160.554 148.321 160.82 149.161 160.82 150.234V150.444ZM157.838 147.672C157.25 147.672 156.769 147.849 156.396 148.204C156.032 148.559 155.799 149.058 155.696 149.702H159.798C159.742 149.039 159.546 148.535 159.21 148.19C158.883 147.845 158.426 147.672 157.838 147.672ZM164.921 154.098C163.736 154.098 162.798 153.795 162.107 153.188L162.485 152.348C162.868 152.647 163.255 152.861 163.647 152.992C164.039 153.123 164.478 153.188 164.963 153.188C165.495 153.188 165.897 153.099 166.167 152.922C166.447 152.735 166.587 152.469 166.587 152.124C166.587 151.844 166.494 151.62 166.307 151.452C166.121 151.284 165.813 151.153 165.383 151.06L164.193 150.78C163.605 150.649 163.148 150.416 162.821 150.08C162.504 149.744 162.345 149.343 162.345 148.876C162.345 148.26 162.593 147.761 163.087 147.378C163.582 146.986 164.235 146.79 165.047 146.79C165.542 146.79 166.009 146.869 166.447 147.028C166.886 147.187 167.255 147.415 167.553 147.714L167.175 148.54C166.513 147.989 165.803 147.714 165.047 147.714C164.543 147.714 164.151 147.812 163.871 148.008C163.601 148.195 163.465 148.461 163.465 148.806C163.465 149.095 163.549 149.324 163.717 149.492C163.895 149.66 164.175 149.791 164.557 149.884L165.747 150.178C166.401 150.327 166.886 150.561 167.203 150.878C167.521 151.186 167.679 151.592 167.679 152.096C167.679 152.703 167.432 153.188 166.937 153.552C166.443 153.916 165.771 154.098 164.921 154.098ZM176.049 154.098C175.386 154.098 174.803 153.949 174.299 153.65C173.795 153.351 173.403 152.927 173.123 152.376C172.852 151.825 172.717 151.181 172.717 150.444C172.717 149.707 172.852 149.063 173.123 148.512C173.403 147.961 173.795 147.537 174.299 147.238C174.803 146.939 175.386 146.79 176.049 146.79C176.712 146.79 177.295 146.939 177.799 147.238C178.303 147.537 178.69 147.961 178.961 148.512C179.241 149.063 179.381 149.707 179.381 150.444C179.381 151.181 179.241 151.825 178.961 152.376C178.69 152.927 178.303 153.351 177.799 153.65C177.295 153.949 176.712 154.098 176.049 154.098ZM176.049 153.16C176.749 153.16 177.286 152.931 177.659 152.474C178.032 152.007 178.219 151.331 178.219 150.444C178.219 149.585 178.028 148.923 177.645 148.456C177.262 147.98 176.73 147.742 176.049 147.742C175.358 147.742 174.822 147.98 174.439 148.456C174.056 148.923 173.865 149.585 173.865 150.444C173.865 151.331 174.052 152.007 174.425 152.474C174.808 152.931 175.349 153.16 176.049 153.16ZM187.043 146.958V154H185.937V152.782C185.713 153.211 185.4 153.538 184.999 153.762C184.597 153.986 184.145 154.098 183.641 154.098C182.81 154.098 182.18 153.865 181.751 153.398C181.321 152.931 181.107 152.241 181.107 151.326V146.958H182.241V151.298C182.241 151.933 182.371 152.399 182.633 152.698C182.894 152.997 183.291 153.146 183.823 153.146C184.448 153.146 184.952 152.945 185.335 152.544C185.717 152.133 185.909 151.597 185.909 150.934V146.958H187.043ZM192.505 146.79C192.738 146.79 192.953 146.818 193.149 146.874L193.121 147.91C192.906 147.835 192.659 147.798 192.379 147.798C191.697 147.798 191.189 148.013 190.853 148.442C190.526 148.862 190.363 149.375 190.363 149.982V154H189.229V148.932C189.229 148.204 189.191 147.546 189.117 146.958H190.195L190.307 148.26C190.484 147.784 190.769 147.42 191.161 147.168C191.553 146.916 192.001 146.79 192.505 146.79ZM203.845 150.444H198.679C198.689 151.34 198.894 152.017 199.295 152.474C199.706 152.931 200.299 153.16 201.073 153.16C201.895 153.16 202.651 152.885 203.341 152.334L203.719 153.16C203.411 153.449 203.015 153.678 202.529 153.846C202.053 154.014 201.563 154.098 201.059 154.098C199.958 154.098 199.095 153.776 198.469 153.132C197.844 152.479 197.531 151.587 197.531 150.458C197.531 149.739 197.671 149.105 197.951 148.554C198.231 147.994 198.623 147.56 199.127 147.252C199.631 146.944 200.205 146.79 200.849 146.79C201.783 146.79 202.515 147.098 203.047 147.714C203.579 148.321 203.845 149.161 203.845 150.234V150.444ZM200.863 147.672C200.275 147.672 199.795 147.849 199.421 148.204C199.057 148.559 198.824 149.058 198.721 149.702H202.823C202.767 149.039 202.571 148.535 202.235 148.19C201.909 147.845 201.451 147.672 200.863 147.672ZM211.769 146.958V154H210.649V152.726C210.443 153.165 210.131 153.505 209.711 153.748C209.3 153.981 208.819 154.098 208.269 154.098C207.643 154.098 207.093 153.949 206.617 153.65C206.15 153.351 205.786 152.931 205.525 152.39C205.273 151.839 205.147 151.2 205.147 150.472C205.147 149.744 205.277 149.105 205.539 148.554C205.8 147.994 206.164 147.56 206.631 147.252C207.107 146.944 207.653 146.79 208.269 146.79C208.819 146.79 209.3 146.911 209.711 147.154C210.121 147.397 210.434 147.737 210.649 148.176V146.958H211.769ZM208.493 153.16C209.183 153.16 209.715 152.927 210.089 152.46C210.462 151.984 210.649 151.312 210.649 150.444C210.649 149.576 210.462 148.909 210.089 148.442C209.715 147.975 209.183 147.742 208.493 147.742C207.802 147.742 207.261 147.985 206.869 148.47C206.486 148.946 206.295 149.613 206.295 150.472C206.295 151.331 206.486 151.993 206.869 152.46C207.251 152.927 207.793 153.16 208.493 153.16ZM216.341 154.098C215.156 154.098 214.218 153.795 213.527 153.188L213.905 152.348C214.288 152.647 214.675 152.861 215.067 152.992C215.459 153.123 215.898 153.188 216.383 153.188C216.915 153.188 217.316 153.099 217.587 152.922C217.867 152.735 218.007 152.469 218.007 152.124C218.007 151.844 217.914 151.62 217.727 151.452C217.54 151.284 217.232 151.153 216.803 151.06L215.613 150.78C215.025 150.649 214.568 150.416 214.241 150.08C213.924 149.744 213.765 149.343 213.765 148.876C213.765 148.26 214.012 147.761 214.507 147.378C215.002 146.986 215.655 146.79 216.467 146.79C216.962 146.79 217.428 146.869 217.867 147.028C218.306 147.187 218.674 147.415 218.973 147.714L218.595 148.54C217.932 147.989 217.223 147.714 216.467 147.714C215.963 147.714 215.571 147.812 215.291 148.008C215.02 148.195 214.885 148.461 214.885 148.806C214.885 149.095 214.969 149.324 215.137 149.492C215.314 149.66 215.594 149.791 215.977 149.884L217.167 150.178C217.82 150.327 218.306 150.561 218.623 150.878C218.94 151.186 219.099 151.592 219.099 152.096C219.099 152.703 218.852 153.188 218.357 153.552C217.862 153.916 217.19 154.098 216.341 154.098ZM226.971 146.958L223.681 154.644C223.336 155.447 222.902 156.035 222.379 156.408C221.857 156.781 221.213 157.038 220.447 157.178L220.209 156.296C220.872 156.147 221.371 155.946 221.707 155.694C222.053 155.451 222.337 155.073 222.561 154.56L222.841 153.93L219.859 146.958H221.049L223.429 152.768L225.837 146.958H226.971ZM227.946 149.772H231.908V150.71H227.946V149.772ZM235.53 147.854V151.704C235.53 152.227 235.637 152.595 235.852 152.81C236.066 153.015 236.37 153.118 236.762 153.118C237.023 153.118 237.275 153.076 237.518 152.992V153.958C237.228 154.051 236.902 154.098 236.538 154.098C235.866 154.098 235.338 153.911 234.956 153.538C234.582 153.155 234.396 152.595 234.396 151.858V147.854H233.024V146.958H234.396V145.152L235.53 144.746V146.958H237.546V147.854H235.53ZM241.824 154.098C241.162 154.098 240.578 153.949 240.074 153.65C239.57 153.351 239.178 152.927 238.898 152.376C238.628 151.825 238.492 151.181 238.492 150.444C238.492 149.707 238.628 149.063 238.898 148.512C239.178 147.961 239.57 147.537 240.074 147.238C240.578 146.939 241.162 146.79 241.824 146.79C242.487 146.79 243.07 146.939 243.574 147.238C244.078 147.537 244.466 147.961 244.736 148.512C245.016 149.063 245.156 149.707 245.156 150.444C245.156 151.181 245.016 151.825 244.736 152.376C244.466 152.927 244.078 153.351 243.574 153.65C243.07 153.949 242.487 154.098 241.824 154.098ZM241.824 153.16C242.524 153.16 243.061 152.931 243.434 152.474C243.808 152.007 243.994 151.331 243.994 150.444C243.994 149.585 243.803 148.923 243.42 148.456C243.038 147.98 242.506 147.742 241.824 147.742C241.134 147.742 240.597 147.98 240.214 148.456C239.832 148.923 239.64 149.585 239.64 150.444C239.64 151.331 239.827 152.007 240.2 152.474C240.583 152.931 241.124 153.16 241.824 153.16ZM247.059 149.772H251.021V150.71H247.059V149.772ZM259.025 146.958V154H257.919V152.782C257.695 153.211 257.382 153.538 256.981 153.762C256.58 153.986 256.127 154.098 255.623 154.098C254.792 154.098 254.162 153.865 253.733 153.398C253.304 152.931 253.089 152.241 253.089 151.326V146.958H254.223V151.298C254.223 151.933 254.354 152.399 254.615 152.698C254.876 152.997 255.273 153.146 255.805 153.146C256.43 153.146 256.934 152.945 257.317 152.544C257.7 152.133 257.891 151.597 257.891 150.934V146.958H259.025ZM263.591 154.098C262.406 154.098 261.468 153.795 260.777 153.188L261.155 152.348C261.538 152.647 261.925 152.861 262.317 152.992C262.709 153.123 263.148 153.188 263.633 153.188C264.165 153.188 264.566 153.099 264.837 152.922C265.117 152.735 265.257 152.469 265.257 152.124C265.257 151.844 265.164 151.62 264.977 151.452C264.79 151.284 264.482 151.153 264.053 151.06L262.863 150.78C262.275 150.649 261.818 150.416 261.491 150.08C261.174 149.744 261.015 149.343 261.015 148.876C261.015 148.26 261.262 147.761 261.757 147.378C262.252 146.986 262.905 146.79 263.717 146.79C264.212 146.79 264.678 146.869 265.117 147.028C265.556 147.187 265.924 147.415 266.223 147.714L265.845 148.54C265.182 147.989 264.473 147.714 263.717 147.714C263.213 147.714 262.821 147.812 262.541 148.008C262.27 148.195 262.135 148.461 262.135 148.806C262.135 149.095 262.219 149.324 262.387 149.492C262.564 149.66 262.844 149.791 263.227 149.884L264.417 150.178C265.07 150.327 265.556 150.561 265.873 150.878C266.19 151.186 266.349 151.592 266.349 152.096C266.349 152.703 266.102 153.188 265.607 153.552C265.112 153.916 264.44 154.098 263.591 154.098ZM274.05 150.444H268.884C268.894 151.34 269.099 152.017 269.5 152.474C269.911 152.931 270.504 153.16 271.278 153.16C272.1 153.16 272.856 152.885 273.546 152.334L273.924 153.16C273.616 153.449 273.22 153.678 272.734 153.846C272.258 154.014 271.768 154.098 271.264 154.098C270.163 154.098 269.3 153.776 268.674 153.132C268.049 152.479 267.736 151.587 267.736 150.458C267.736 149.739 267.876 149.105 268.156 148.554C268.436 147.994 268.828 147.56 269.332 147.252C269.836 146.944 270.41 146.79 271.054 146.79C271.988 146.79 272.72 147.098 273.252 147.714C273.784 148.321 274.05 149.161 274.05 150.234V150.444ZM271.068 147.672C270.48 147.672 270 147.849 269.626 148.204C269.262 148.559 269.029 149.058 268.926 149.702H273.028C272.972 149.039 272.776 148.535 272.44 148.19C272.114 147.845 271.656 147.672 271.068 147.672ZM108.606 164.79C109.222 164.79 109.768 164.944 110.244 165.252C110.72 165.56 111.089 165.994 111.35 166.554C111.611 167.105 111.742 167.744 111.742 168.472C111.742 169.2 111.611 169.839 111.35 170.39C111.089 170.931 110.72 171.351 110.244 171.65C109.777 171.949 109.231 172.098 108.606 172.098C108.055 172.098 107.575 171.977 107.164 171.734C106.753 171.491 106.441 171.146 106.226 170.698V175.024H105.092V166.932C105.092 166.204 105.055 165.546 104.98 164.958H106.058L106.17 166.316C106.366 165.831 106.674 165.457 107.094 165.196C107.523 164.925 108.027 164.79 108.606 164.79ZM108.396 171.16C109.087 171.16 109.619 170.927 109.992 170.46C110.375 169.993 110.566 169.331 110.566 168.472C110.566 167.613 110.375 166.946 109.992 166.47C109.609 165.985 109.077 165.742 108.396 165.742C107.696 165.742 107.159 165.975 106.786 166.442C106.413 166.909 106.226 167.576 106.226 168.444C106.226 169.312 106.413 169.984 106.786 170.46C107.159 170.927 107.696 171.16 108.396 171.16ZM113.487 161.696H114.621V172H113.487V161.696ZM123.024 164.958V172H121.904V170.726C121.699 171.165 121.386 171.505 120.966 171.748C120.556 171.981 120.075 172.098 119.524 172.098C118.899 172.098 118.348 171.949 117.872 171.65C117.406 171.351 117.042 170.931 116.78 170.39C116.528 169.839 116.402 169.2 116.402 168.472C116.402 167.744 116.533 167.105 116.794 166.554C117.056 165.994 117.42 165.56 117.886 165.252C118.362 164.944 118.908 164.79 119.524 164.79C120.075 164.79 120.556 164.911 120.966 165.154C121.377 165.397 121.69 165.737 121.904 166.176V164.958H123.024ZM119.748 171.16C120.439 171.16 120.971 170.927 121.344 170.46C121.718 169.984 121.904 169.312 121.904 168.444C121.904 167.576 121.718 166.909 121.344 166.442C120.971 165.975 120.439 165.742 119.748 165.742C119.058 165.742 118.516 165.985 118.124 166.47C117.742 166.946 117.55 167.613 117.55 168.472C117.55 169.331 117.742 169.993 118.124 170.46C118.507 170.927 119.048 171.16 119.748 171.16ZM126.729 165.854V169.704C126.729 170.227 126.836 170.595 127.051 170.81C127.266 171.015 127.569 171.118 127.961 171.118C128.222 171.118 128.474 171.076 128.717 170.992V171.958C128.428 172.051 128.101 172.098 127.737 172.098C127.065 172.098 126.538 171.911 126.155 171.538C125.782 171.155 125.595 170.595 125.595 169.858V165.854H124.223V164.958H125.595V163.152L126.729 162.746V164.958H128.745V165.854H126.729ZM132.964 162.62C132.591 162.62 132.297 162.727 132.082 162.942C131.877 163.147 131.774 163.507 131.774 164.02V164.958H133.496V165.854H131.774V172H130.64V165.854H129.268V164.958H130.64V163.88C130.64 163.143 130.822 162.587 131.186 162.214C131.559 161.831 132.077 161.64 132.74 161.64C133.067 161.64 133.384 161.682 133.692 161.766V162.732C133.431 162.657 133.188 162.62 132.964 162.62ZM137.822 172.098C137.16 172.098 136.576 171.949 136.072 171.65C135.568 171.351 135.176 170.927 134.896 170.376C134.626 169.825 134.49 169.181 134.49 168.444C134.49 167.707 134.626 167.063 134.896 166.512C135.176 165.961 135.568 165.537 136.072 165.238C136.576 164.939 137.16 164.79 137.822 164.79C138.485 164.79 139.068 164.939 139.572 165.238C140.076 165.537 140.464 165.961 140.734 166.512C141.014 167.063 141.154 167.707 141.154 168.444C141.154 169.181 141.014 169.825 140.734 170.376C140.464 170.927 140.076 171.351 139.572 171.65C139.068 171.949 138.485 172.098 137.822 172.098ZM137.822 171.16C138.522 171.16 139.059 170.931 139.432 170.474C139.806 170.007 139.992 169.331 139.992 168.444C139.992 167.585 139.801 166.923 139.418 166.456C139.036 165.98 138.504 165.742 137.822 165.742C137.132 165.742 136.595 165.98 136.212 166.456C135.83 166.923 135.638 167.585 135.638 168.444C135.638 169.331 135.825 170.007 136.198 170.474C136.581 170.931 137.122 171.16 137.822 171.16ZM146.198 164.79C146.431 164.79 146.646 164.818 146.842 164.874L146.814 165.91C146.599 165.835 146.352 165.798 146.072 165.798C145.391 165.798 144.882 166.013 144.546 166.442C144.219 166.862 144.056 167.375 144.056 167.982V172H142.922V166.932C142.922 166.204 142.885 165.546 142.81 164.958H143.888L144 166.26C144.177 165.784 144.462 165.42 144.854 165.168C145.246 164.916 145.694 164.79 146.198 164.79ZM155.806 164.79C157.365 164.79 158.144 165.719 158.144 167.576V172H157.01V167.632C157.01 166.969 156.894 166.489 156.66 166.19C156.436 165.891 156.068 165.742 155.554 165.742C154.957 165.742 154.49 165.943 154.154 166.344C153.818 166.745 153.65 167.291 153.65 167.982V172H152.516V167.632C152.516 166.979 152.4 166.503 152.166 166.204C151.933 165.896 151.56 165.742 151.046 165.742C150.449 165.742 149.978 165.943 149.632 166.344C149.296 166.745 149.128 167.291 149.128 167.982V172H147.994V166.932C147.994 166.204 147.957 165.546 147.882 164.958H148.96L149.072 166.19C149.268 165.742 149.558 165.397 149.94 165.154C150.332 164.911 150.785 164.79 151.298 164.79C151.858 164.79 152.316 164.902 152.67 165.126C153.025 165.35 153.286 165.695 153.454 166.162C153.669 165.742 153.982 165.411 154.392 165.168C154.812 164.916 155.284 164.79 155.806 164.79Z" fill="#5B5151"/>
<circle cx="81" cy="119" r="15" fill="white"/>
<mask id="mask1" mask-type="alpha" maskUnits="userSpaceOnUse" x="66" y="104" width="30" height="30">
<circle cx="81" cy="119" r="15" fill="#F4F4EA"/>
</mask>
<g mask="url(#mask1)">
<path fill-rule="evenodd" clip-rule="evenodd" d="M86.9322 111.298C85.524 115.565 84.165 119.437 82.785 123.704C82.7024 124.067 82.5194 124.399 82.2569 124.662C81.8951 124.926 81.4494 125.048 81.0035 125.007H79.3418L80.2853 127.274H82.8976C83.252 127.296 83.6053 127.216 83.9158 127.044C84.2264 126.872 84.4814 126.614 84.6509 126.302C84.7643 126.09 84.8609 125.868 84.9396 125.641L89.798 111.298H86.9322Z" fill="#635452"/>
<path fill-rule="evenodd" clip-rule="evenodd" d="M77.376 119.043H79.087C79.2676 119.052 79.4378 119.13 79.5623 119.261C79.6868 119.392 79.7562 119.566 79.7559 119.747V119.902C79.7562 120.083 79.6868 120.257 79.5623 120.388C79.4378 120.519 79.2676 120.597 79.087 120.606H77.376C77.1893 120.606 77.0102 120.532 76.8781 120.4C76.7461 120.268 76.6719 120.089 76.6719 119.902V119.747C76.6719 119.56 76.7461 119.381 76.8781 119.249C77.0102 119.117 77.1893 119.043 77.376 119.043Z" fill="#F0AD00"/>
<path fill-rule="evenodd" clip-rule="evenodd" d="M80.8545 119.043H82.643C82.8297 119.043 83.0088 119.117 83.1409 119.249C83.2729 119.381 83.3471 119.56 83.3471 119.747V119.902C83.3471 120.089 83.2729 120.268 83.1409 120.4C83.0088 120.532 82.8297 120.606 82.643 120.606H80.8545C80.6678 120.606 80.4887 120.532 80.3566 120.4C80.2246 120.268 80.1504 120.089 80.1504 119.902V119.747C80.1504 119.56 80.2246 119.381 80.3566 119.249C80.4887 119.117 80.6678 119.043 80.8545 119.043Z" fill="#E1760C"/>
<path fill-rule="evenodd" clip-rule="evenodd" d="M76.7354 117.114H78.5872C78.768 117.113 78.942 117.183 79.0731 117.307C79.2041 117.432 79.2823 117.602 79.2913 117.782V117.944C79.2913 118.131 79.2172 118.31 79.0851 118.442C78.9531 118.574 78.774 118.649 78.5872 118.649H76.7354C76.5486 118.649 76.3695 118.574 76.2375 118.442C76.1054 118.31 76.0312 118.131 76.0312 117.944V117.782C76.0403 117.602 76.1184 117.432 76.2495 117.307C76.3806 117.183 76.5546 117.113 76.7354 117.114Z" fill="#E1760C"/>
<path fill-rule="evenodd" clip-rule="evenodd" d="M80.3682 117.114H83.3114C83.4861 117.122 83.6513 117.195 83.7749 117.319C83.8986 117.443 83.9718 117.608 83.9803 117.782V117.944C83.9806 118.125 83.9112 118.299 83.7867 118.43C83.6622 118.561 83.492 118.639 83.3114 118.649H80.3682C80.1814 118.649 80.0023 118.574 79.8703 118.442C79.7382 118.31 79.6641 118.131 79.6641 117.944V117.782C79.6731 117.602 79.7513 117.432 79.8823 117.307C80.0134 117.183 80.1874 117.113 80.3682 117.114Z" fill="#F0AD00"/>
<path fill-rule="evenodd" clip-rule="evenodd" d="M80.1026 120.986H82.0107C82.1913 120.995 82.3615 121.074 82.486 121.205C82.6105 121.336 82.6799 121.51 82.6797 121.69V121.859C82.6799 122.04 82.6105 122.214 82.486 122.345C82.3615 122.476 82.1913 122.555 82.0107 122.564H80.1026C79.9158 122.564 79.7367 122.489 79.6047 122.357C79.4726 122.225 79.3984 122.046 79.3984 121.859V121.697C79.3984 121.511 79.4726 121.332 79.6047 121.2C79.7367 121.068 79.9158 120.993 80.1026 120.993V120.986Z" fill="#D65359"/>
<path fill-rule="evenodd" clip-rule="evenodd" d="M79.0166 122.923H81.3684C81.5551 122.923 81.7342 122.997 81.8663 123.129C81.9983 123.261 82.0725 123.44 82.0725 123.627V123.789C82.0725 123.976 81.9983 124.155 81.8663 124.287C81.7342 124.419 81.5551 124.493 81.3684 124.493H79.0166C78.8299 124.493 78.6508 124.419 78.5187 124.287C78.3867 124.155 78.3125 123.976 78.3125 123.789V123.627C78.3125 123.44 78.3867 123.261 78.5187 123.129C78.6508 122.997 78.8299 122.923 79.0166 122.923Z" fill="#F0AD00"/>
<path fill-rule="evenodd" clip-rule="evenodd" d="M78.0811 115.17H80.3836C80.5703 115.17 80.7494 115.244 80.8814 115.376C81.0135 115.508 81.0877 115.688 81.0877 115.874V116.036C81.0877 116.223 81.0135 116.402 80.8814 116.534C80.7494 116.666 80.5703 116.74 80.3836 116.74H78.0811C77.8943 116.74 77.7152 116.666 77.5832 116.534C77.4511 116.402 77.377 116.223 77.377 116.036V115.874C77.377 115.688 77.4511 115.508 77.5832 115.376C77.7152 115.244 77.8943 115.17 78.0811 115.17Z" fill="#F0AD00"/>
<path fill-rule="evenodd" clip-rule="evenodd" d="M82.1358 115.17H83.9665C84.1532 115.17 84.3323 115.244 84.4644 115.376C84.5964 115.508 84.6706 115.688 84.6706 115.874V116.036C84.6706 116.223 84.5964 116.402 84.4644 116.534C84.3323 116.666 84.1532 116.74 83.9665 116.74H82.1358C81.949 116.74 81.7699 116.666 81.6379 116.534C81.5058 116.402 81.4316 116.223 81.4316 116.036V115.874C81.4316 115.688 81.5058 115.508 81.6379 115.376C81.7699 115.244 81.949 115.17 82.1358 115.17Z" fill="#E1760C"/>
<path fill-rule="evenodd" clip-rule="evenodd" d="M76.2429 115.17C76.3933 115.17 76.5403 115.215 76.6654 115.298C76.7904 115.382 76.8879 115.501 76.9455 115.64C77.003 115.779 77.0181 115.931 76.9888 116.079C76.9594 116.227 76.887 116.362 76.7806 116.468C76.6743 116.575 76.5388 116.647 76.3913 116.676C76.2437 116.706 76.0909 116.691 75.9519 116.633C75.8129 116.576 75.6942 116.478 75.6106 116.353C75.5271 116.228 75.4825 116.081 75.4825 115.931C75.4815 115.831 75.5005 115.731 75.5384 115.639C75.5763 115.546 75.6323 115.462 75.7031 115.391C75.7739 115.32 75.8581 115.264 75.9508 115.226C76.0435 115.188 76.1428 115.169 76.2429 115.17Z" fill="#D65359"/>
<path fill-rule="evenodd" clip-rule="evenodd" d="M74.8975 113.234H79.4884C79.6751 113.234 79.8542 113.308 79.9863 113.44C80.1183 113.572 80.1925 113.751 80.1925 113.938V114.1C80.1925 114.287 80.1183 114.466 79.9863 114.598C79.8542 114.73 79.6751 114.804 79.4884 114.804H74.8975C74.7107 114.804 74.5316 114.73 74.3996 114.598C74.2675 114.466 74.1934 114.287 74.1934 114.1V113.938C74.1934 113.751 74.2675 113.572 74.3996 113.44C74.5316 113.308 74.7107 113.234 74.8975 113.234Z" fill="#D65359"/>
<path fill-rule="evenodd" clip-rule="evenodd" d="M81.2139 113.234H84.6218C84.8086 113.234 84.9877 113.308 85.1197 113.44C85.2518 113.572 85.326 113.751 85.326 113.938V114.1C85.326 114.287 85.2518 114.466 85.1197 114.598C84.9877 114.73 84.8086 114.804 84.6218 114.804H81.2139C81.0271 114.804 80.848 114.73 80.716 114.598C80.5839 114.466 80.5098 114.287 80.5098 114.1V113.938C80.5098 113.751 80.5839 113.572 80.716 113.44C80.848 113.308 81.0271 113.234 81.2139 113.234Z" fill="#F0AD00"/>
<path fill-rule="evenodd" clip-rule="evenodd" d="M73.6162 111.297H77.1791C77.3658 111.297 77.5449 111.372 77.677 111.504C77.809 111.636 77.8832 111.815 77.8832 112.001V112.156C77.8832 112.343 77.809 112.522 77.677 112.654C77.5449 112.786 77.3658 112.861 77.1791 112.861H73.6162C73.4295 112.861 73.2504 112.786 73.1183 112.654C72.9863 112.522 72.9121 112.343 72.9121 112.156V112.001C72.9121 111.815 72.9863 111.636 73.1183 111.504C73.2504 111.372 73.4295 111.297 73.6162 111.297Z" fill="#E1760C"/>
<path fill-rule="evenodd" clip-rule="evenodd" d="M80.8975 111.297H85.256C85.4428 111.297 85.6218 111.372 85.7539 111.504C85.8859 111.636 85.9601 111.815 85.9601 112.001V112.156C85.9601 112.343 85.8859 112.522 85.7539 112.654C85.6218 112.786 85.4428 112.861 85.256 112.861H80.8975C80.7107 112.861 80.5316 112.786 80.3996 112.654C80.2675 112.522 80.1934 112.343 80.1934 112.156V112.001C80.1934 111.815 80.2675 111.636 80.3996 111.504C80.5316 111.372 80.7107 111.297 80.8975 111.297Z" fill="#D65359"/>
<path fill-rule="evenodd" clip-rule="evenodd" d="M79.0386 111.297C79.1876 111.297 79.3332 111.342 79.4571 111.424C79.581 111.507 79.6776 111.625 79.7346 111.762C79.7917 111.9 79.8066 112.052 79.7775 112.198C79.7484 112.344 79.6767 112.478 79.5713 112.584C79.466 112.689 79.3317 112.761 79.1856 112.79C79.0394 112.819 78.8879 112.804 78.7503 112.747C78.6126 112.69 78.4949 112.593 78.4121 112.469C78.3293 112.345 78.2852 112.2 78.2852 112.051C78.2852 111.851 78.3645 111.659 78.5058 111.518C78.6471 111.377 78.8388 111.297 79.0386 111.297Z" fill="#F0AD00"/>
<path fill-rule="evenodd" clip-rule="evenodd" d="M78.2437 120.986C78.3947 120.985 78.5427 121.028 78.6688 121.111C78.7949 121.194 78.8935 121.313 78.9519 121.452C79.0103 121.592 79.026 121.745 78.9969 121.893C78.9677 122.041 78.8952 122.177 78.7884 122.284C78.6816 122.391 78.5455 122.464 78.3973 122.493C78.2492 122.522 78.0957 122.506 77.9564 122.448C77.8172 122.389 77.6985 122.291 77.6155 122.165C77.5325 122.039 77.4889 121.891 77.4903 121.74C77.4903 121.54 77.5696 121.348 77.7109 121.207C77.8522 121.065 78.0439 120.986 78.2437 120.986Z" fill="#E1760C"/>
</g>
</svg>
