<svg width="359" height="241" viewBox="0 0 359 241" fill="none" xmlns="http://www.w3.org/2000/svg">
<rect width="359" height="241" rx="12" fill="white"/>
<rect x="0.5" y="0.5" width="358" height="240" rx="11.5" stroke="#5B5151" stroke-opacity="0.1"/>
<path d="M16 57C16 45.9543 24.9543 37 36 37H242C253.046 37 262 45.9543 262 57V77C262 88.0457 253.046 97 242 97H16V57Z" fill="#E6FFFC"/>
<path d="M65.232 53.032H66.38V63H65.232V53.032ZM78.5538 52.696V63H77.4338V61.726C77.2284 62.1647 76.9158 62.5053 76.4958 62.748C76.0851 62.9813 75.6044 63.098 75.0538 63.098C74.4378 63.098 73.8918 62.944 73.4158 62.636C72.9491 62.328 72.5851 61.8987 72.3238 61.348C72.0624 60.788 71.9318 60.144 71.9318 59.416C71.9318 58.688 72.0578 58.0533 72.3098 57.512C72.5711 56.9613 72.9398 56.5367 73.4158 56.238C73.8918 55.9393 74.4378 55.79 75.0538 55.79C75.6044 55.79 76.0851 55.9113 76.4958 56.154C76.9064 56.3873 77.2144 56.7187 77.4198 57.148V52.696H78.5538ZM75.2778 62.16C75.9684 62.16 76.5004 61.9267 76.8738 61.46C77.2471 60.984 77.4338 60.312 77.4338 59.444C77.4338 58.5853 77.2471 57.9227 76.8738 57.456C76.5004 56.98 75.9684 56.742 75.2778 56.742C74.5871 56.742 74.0458 56.9753 73.6538 57.442C73.2711 57.9087 73.0798 58.5667 73.0798 59.416C73.0798 60.284 73.2711 60.9607 73.6538 61.446C74.0458 61.922 74.5871 62.16 75.2778 62.16ZM83.6583 63.098C82.9956 63.098 82.4123 62.9487 81.9083 62.65C81.4043 62.3513 81.0123 61.9267 80.7323 61.376C80.4616 60.8253 80.3263 60.1813 80.3263 59.444C80.3263 58.7067 80.4616 58.0627 80.7323 57.512C81.0123 56.9613 81.4043 56.5367 81.9083 56.238C82.4123 55.9393 82.9956 55.79 83.6583 55.79C84.321 55.79 84.9043 55.9393 85.4083 56.238C85.9123 56.5367 86.2996 56.9613 86.5703 57.512C86.8503 58.0627 86.9903 58.7067 86.9903 59.444C86.9903 60.1813 86.8503 60.8253 86.5703 61.376C86.2996 61.9267 85.9123 62.3513 85.4083 62.65C84.9043 62.9487 84.321 63.098 83.6583 63.098ZM83.6583 62.16C84.3583 62.16 84.895 61.9313 85.2683 61.474C85.6416 61.0073 85.8283 60.3307 85.8283 59.444C85.8283 58.5853 85.637 57.9227 85.2543 57.456C84.8716 56.98 84.3396 56.742 83.6583 56.742C82.9676 56.742 82.431 56.98 82.0483 57.456C81.6656 57.9227 81.4743 58.5853 81.4743 59.444C81.4743 60.3307 81.661 61.0073 82.0343 61.474C82.417 61.9313 82.9583 62.16 83.6583 62.16ZM95.9224 55.79C97.6117 55.79 98.4564 56.7187 98.4564 58.576V63H97.3224V58.632C97.3224 57.9787 97.1917 57.5027 96.9304 57.204C96.6691 56.896 96.2584 56.742 95.6984 56.742C95.0451 56.742 94.5224 56.9427 94.1304 57.344C93.7384 57.7453 93.5424 58.2867 93.5424 58.968V63H92.4084V57.932C92.4084 57.204 92.3711 56.546 92.2964 55.958H93.3744L93.4864 57.218C93.7011 56.7607 94.0231 56.4107 94.4524 56.168C94.8817 55.916 95.3717 55.79 95.9224 55.79ZM103.51 63.098C102.847 63.098 102.264 62.9487 101.76 62.65C101.256 62.3513 100.864 61.9267 100.584 61.376C100.313 60.8253 100.178 60.1813 100.178 59.444C100.178 58.7067 100.313 58.0627 100.584 57.512C100.864 56.9613 101.256 56.5367 101.76 56.238C102.264 55.9393 102.847 55.79 103.51 55.79C104.173 55.79 104.756 55.9393 105.26 56.238C105.764 56.5367 106.151 56.9613 106.422 57.512C106.702 58.0627 106.842 58.7067 106.842 59.444C106.842 60.1813 106.702 60.8253 106.422 61.376C106.151 61.9267 105.764 62.3513 105.26 62.65C104.756 62.9487 104.173 63.098 103.51 63.098ZM103.51 62.16C104.21 62.16 104.747 61.9313 105.12 61.474C105.493 61.0073 105.68 60.3307 105.68 59.444C105.68 58.5853 105.489 57.9227 105.106 57.456C104.723 56.98 104.191 56.742 103.51 56.742C102.819 56.742 102.283 56.98 101.9 57.456C101.517 57.9227 101.326 58.5853 101.326 59.444C101.326 60.3307 101.513 61.0073 101.886 61.474C102.269 61.9313 102.81 62.16 103.51 62.16ZM110.108 56.854V60.704C110.108 61.2267 110.215 61.5953 110.43 61.81C110.645 62.0153 110.948 62.118 111.34 62.118C111.601 62.118 111.853 62.076 112.096 61.992V62.958C111.807 63.0513 111.48 63.098 111.116 63.098C110.444 63.098 109.917 62.9113 109.534 62.538C109.161 62.1553 108.974 61.5953 108.974 60.858V56.854H107.602V55.958H108.974V54.152L110.108 53.746V55.958H112.124V56.854H110.108ZM120.655 55.79C122.344 55.79 123.189 56.7187 123.189 58.576V63H122.055V58.632C122.055 57.9787 121.924 57.5027 121.663 57.204C121.401 56.896 120.991 56.742 120.431 56.742C119.777 56.742 119.255 56.9427 118.863 57.344C118.471 57.7453 118.275 58.2867 118.275 58.968V63H117.141V52.696H118.275V57.106C118.499 56.6767 118.816 56.35 119.227 56.126C119.647 55.902 120.123 55.79 120.655 55.79ZM131.532 55.958V63H130.412V61.726C130.207 62.1647 129.894 62.5053 129.474 62.748C129.064 62.9813 128.583 63.098 128.032 63.098C127.407 63.098 126.856 62.9487 126.38 62.65C125.914 62.3513 125.55 61.9313 125.288 61.39C125.036 60.8393 124.91 60.2 124.91 59.472C124.91 58.744 125.041 58.1047 125.302 57.554C125.564 56.994 125.928 56.56 126.394 56.252C126.87 55.944 127.416 55.79 128.032 55.79C128.583 55.79 129.064 55.9113 129.474 56.154C129.885 56.3967 130.198 56.7373 130.412 57.176V55.958H131.532ZM128.256 62.16C128.947 62.16 129.479 61.9267 129.852 61.46C130.226 60.984 130.412 60.312 130.412 59.444C130.412 58.576 130.226 57.9087 129.852 57.442C129.479 56.9753 128.947 56.742 128.256 56.742C127.566 56.742 127.024 56.9847 126.632 57.47C126.25 57.946 126.058 58.6133 126.058 59.472C126.058 60.3307 126.25 60.9933 126.632 61.46C127.015 61.9267 127.556 62.16 128.256 62.16ZM139.913 55.972L136.875 63H135.797L132.801 55.972H133.991L136.371 61.768L138.779 55.972H139.913ZM146.974 59.444H141.808C141.818 60.34 142.023 61.0167 142.424 61.474C142.835 61.9313 143.428 62.16 144.202 62.16C145.024 62.16 145.78 61.8847 146.47 61.334L146.848 62.16C146.54 62.4493 146.144 62.678 145.658 62.846C145.182 63.014 144.692 63.098 144.188 63.098C143.087 63.098 142.224 62.776 141.598 62.132C140.973 61.4787 140.66 60.5873 140.66 59.458C140.66 58.7393 140.8 58.1047 141.08 57.554C141.36 56.994 141.752 56.56 142.256 56.252C142.76 55.944 143.334 55.79 143.978 55.79C144.912 55.79 145.644 56.098 146.176 56.714C146.708 57.3207 146.974 58.1607 146.974 59.234V59.444ZM143.992 56.672C143.404 56.672 142.924 56.8493 142.55 57.204C142.186 57.5587 141.953 58.058 141.85 58.702H145.952C145.896 58.0393 145.7 57.5353 145.364 57.19C145.038 56.8447 144.58 56.672 143.992 56.672ZM158.24 55.958V63H157.134V61.782C156.91 62.2113 156.597 62.538 156.196 62.762C155.795 62.986 155.342 63.098 154.838 63.098C154.007 63.098 153.377 62.8647 152.948 62.398C152.519 61.9313 152.304 61.2407 152.304 60.326V55.958H153.438V60.298C153.438 60.9327 153.569 61.3993 153.83 61.698C154.091 61.9967 154.488 62.146 155.02 62.146C155.645 62.146 156.149 61.9453 156.532 61.544C156.915 61.1333 157.106 60.5967 157.106 59.934V55.958H158.24ZM163.94 55.79C165.629 55.79 166.474 56.7187 166.474 58.576V63H165.34V58.632C165.34 57.9787 165.209 57.5027 164.948 57.204C164.687 56.896 164.276 56.742 163.716 56.742C163.063 56.742 162.54 56.9427 162.148 57.344C161.756 57.7453 161.56 58.2867 161.56 58.968V63H160.426V57.932C160.426 57.204 160.389 56.546 160.314 55.958H161.392L161.504 57.218C161.719 56.7607 162.041 56.4107 162.47 56.168C162.899 55.916 163.389 55.79 163.94 55.79ZM168.615 52.696H169.749V63H168.615V52.696ZM171.951 55.958H173.085V63H171.951V55.958ZM173.225 52.976V54.264H171.839V52.976H173.225ZM183.099 55.79C184.658 55.79 185.437 56.7187 185.437 58.576V63H184.303V58.632C184.303 57.9693 184.187 57.4887 183.953 57.19C183.729 56.8913 183.361 56.742 182.847 56.742C182.25 56.742 181.783 56.9427 181.447 57.344C181.111 57.7453 180.943 58.2913 180.943 58.982V63H179.809V58.632C179.809 57.9787 179.693 57.5027 179.459 57.204C179.226 56.896 178.853 56.742 178.339 56.742C177.742 56.742 177.271 56.9427 176.925 57.344C176.589 57.7453 176.421 58.2913 176.421 58.982V63H175.287V57.932C175.287 57.204 175.25 56.546 175.175 55.958H176.253L176.365 57.19C176.561 56.742 176.851 56.3967 177.233 56.154C177.625 55.9113 178.078 55.79 178.591 55.79C179.151 55.79 179.609 55.902 179.963 56.126C180.318 56.35 180.579 56.6953 180.747 57.162C180.962 56.742 181.275 56.4107 181.685 56.168C182.105 55.916 182.577 55.79 183.099 55.79ZM187.592 55.958H188.726V63H187.592V55.958ZM188.866 52.976V54.264H187.48V52.976H188.866ZM192.44 56.854V60.704C192.44 61.2267 192.547 61.5953 192.762 61.81C192.977 62.0153 193.28 62.118 193.672 62.118C193.933 62.118 194.185 62.076 194.428 61.992V62.958C194.139 63.0513 193.812 63.098 193.448 63.098C192.776 63.098 192.249 62.9113 191.866 62.538C191.493 62.1553 191.306 61.5953 191.306 60.858V56.854H189.934V55.958H191.306V54.152L192.44 53.746V55.958H194.456V56.854H192.44ZM201.716 59.444H196.55C196.56 60.34 196.765 61.0167 197.166 61.474C197.577 61.9313 198.17 62.16 198.944 62.16C199.766 62.16 200.522 61.8847 201.212 61.334L201.59 62.16C201.282 62.4493 200.886 62.678 200.4 62.846C199.924 63.014 199.434 63.098 198.93 63.098C197.829 63.098 196.966 62.776 196.34 62.132C195.715 61.4787 195.402 60.5873 195.402 59.458C195.402 58.7393 195.542 58.1047 195.822 57.554C196.102 56.994 196.494 56.56 196.998 56.252C197.502 55.944 198.076 55.79 198.72 55.79C199.654 55.79 200.386 56.098 200.918 56.714C201.45 57.3207 201.716 58.1607 201.716 59.234V59.444ZM198.734 56.672C198.146 56.672 197.666 56.8493 197.292 57.204C196.928 57.5587 196.695 58.058 196.592 58.702H200.694C200.638 58.0393 200.442 57.5353 200.106 57.19C199.78 56.8447 199.322 56.672 198.734 56.672ZM209.64 52.696V63H208.52V61.726C208.314 62.1647 208.002 62.5053 207.582 62.748C207.171 62.9813 206.69 63.098 206.14 63.098C205.524 63.098 204.978 62.944 204.502 62.636C204.035 62.328 203.671 61.8987 203.41 61.348C203.148 60.788 203.018 60.144 203.018 59.416C203.018 58.688 203.144 58.0533 203.396 57.512C203.657 56.9613 204.026 56.5367 204.502 56.238C204.978 55.9393 205.524 55.79 206.14 55.79C206.69 55.79 207.171 55.9113 207.582 56.154C207.992 56.3873 208.3 56.7187 208.506 57.148V52.696H209.64ZM206.364 62.16C207.054 62.16 207.586 61.9267 207.96 61.46C208.333 60.984 208.52 60.312 208.52 59.444C208.52 58.5853 208.333 57.9227 207.96 57.456C207.586 56.98 207.054 56.742 206.364 56.742C205.673 56.742 205.132 56.9753 204.74 57.442C204.357 57.9087 204.166 58.5667 204.166 59.416C204.166 60.284 204.357 60.9607 204.74 61.446C205.132 61.922 205.673 62.16 206.364 62.16ZM68.046 81.098C67.3647 81.098 66.7673 80.9487 66.254 80.65C65.75 80.3513 65.358 79.9313 65.078 79.39C64.8073 78.8393 64.672 78.2 64.672 77.472C64.672 76.744 64.812 76.1047 65.092 75.554C65.372 74.994 65.7687 74.56 66.282 74.252C66.8047 73.944 67.4113 73.79 68.102 73.79C68.578 73.79 69.0353 73.874 69.474 74.042C69.922 74.2007 70.2907 74.4247 70.58 74.714L70.202 75.554C69.8473 75.274 69.502 75.0687 69.166 74.938C68.8393 74.8073 68.5033 74.742 68.158 74.742C67.4393 74.742 66.8747 74.9847 66.464 75.47C66.0533 75.946 65.848 76.6133 65.848 77.472C65.848 78.3213 66.0487 78.984 66.45 79.46C66.8607 79.9267 67.43 80.16 68.158 80.16C68.5033 80.16 68.8393 80.0947 69.166 79.964C69.502 79.8333 69.8473 79.628 70.202 79.348L70.58 80.188C70.2813 80.468 69.9033 80.692 69.446 80.86C68.998 81.0187 68.5313 81.098 68.046 81.098ZM74.9356 81.098C74.273 81.098 73.6896 80.9487 73.1856 80.65C72.6816 80.3513 72.2896 79.9267 72.0096 79.376C71.739 78.8253 71.6036 78.1813 71.6036 77.444C71.6036 76.7067 71.739 76.0627 72.0096 75.512C72.2896 74.9613 72.6816 74.5367 73.1856 74.238C73.6896 73.9393 74.273 73.79 74.9356 73.79C75.5983 73.79 76.1816 73.9393 76.6856 74.238C77.1896 74.5367 77.577 74.9613 77.8476 75.512C78.1276 76.0627 78.2676 76.7067 78.2676 77.444C78.2676 78.1813 78.1276 78.8253 77.8476 79.376C77.577 79.9267 77.1896 80.3513 76.6856 80.65C76.1816 80.9487 75.5983 81.098 74.9356 81.098ZM74.9356 80.16C75.6356 80.16 76.1723 79.9313 76.5456 79.474C76.919 79.0073 77.1056 78.3307 77.1056 77.444C77.1056 76.5853 76.9143 75.9227 76.5316 75.456C76.149 74.98 75.617 74.742 74.9356 74.742C74.245 74.742 73.7083 74.98 73.3256 75.456C72.943 75.9227 72.7516 76.5853 72.7516 77.444C72.7516 78.3307 72.9383 79.0073 73.3116 79.474C73.6943 79.9313 74.2356 80.16 74.9356 80.16ZM83.5494 73.79C84.1654 73.79 84.7114 73.944 85.1874 74.252C85.6634 74.56 86.032 74.994 86.2934 75.554C86.5547 76.1047 86.6854 76.744 86.6854 77.472C86.6854 78.2 86.5547 78.8393 86.2934 79.39C86.032 79.9313 85.6634 80.3513 85.1874 80.65C84.7207 80.9487 84.1747 81.098 83.5494 81.098C82.9987 81.098 82.518 80.9767 82.1074 80.734C81.6967 80.4913 81.384 80.146 81.1694 79.698V84.024H80.0354V75.932C80.0354 75.204 79.998 74.546 79.9234 73.958H81.0014L81.1134 75.316C81.3094 74.8307 81.6174 74.4573 82.0374 74.196C82.4667 73.9253 82.9707 73.79 83.5494 73.79ZM83.3394 80.16C84.03 80.16 84.562 79.9267 84.9354 79.46C85.318 78.9933 85.5094 78.3307 85.5094 77.472C85.5094 76.6133 85.318 75.946 84.9354 75.47C84.5527 74.9847 84.0207 74.742 83.3394 74.742C82.6394 74.742 82.1027 74.9753 81.7294 75.442C81.356 75.9087 81.1694 76.576 81.1694 77.444C81.1694 78.312 81.356 78.984 81.7294 79.46C82.1027 79.9267 82.6394 80.16 83.3394 80.16ZM94.5359 73.958L91.2459 81.644C90.9005 82.4467 90.4665 83.0347 89.9439 83.408C89.4212 83.7813 88.7772 84.038 88.0119 84.178L87.7739 83.296C88.4365 83.1467 88.9359 82.946 89.2719 82.694C89.6172 82.4513 89.9019 82.0733 90.1259 81.56L90.4059 80.93L87.4239 73.958H88.6139L90.9939 79.768L93.4019 73.958H94.5359ZM106.481 73.958L103.877 81H102.785L100.769 75.498L98.7674 81H97.6754L95.0714 73.958H96.2614L98.2494 79.642L100.307 73.958H101.301L103.331 79.656L105.361 73.958H106.481ZM111.229 73.79C111.463 73.79 111.677 73.818 111.873 73.874L111.845 74.91C111.631 74.8353 111.383 74.798 111.103 74.798C110.422 74.798 109.913 75.0127 109.577 75.442C109.251 75.862 109.087 76.3753 109.087 76.982V81H107.953V75.932C107.953 75.204 107.916 74.546 107.841 73.958H108.919L109.031 75.26C109.209 74.784 109.493 74.42 109.885 74.168C110.277 73.916 110.725 73.79 111.229 73.79ZM113.026 73.958H114.16V81H113.026V73.958ZM114.3 70.976V72.264H112.914V70.976H114.3ZM117.874 74.854V78.704C117.874 79.2267 117.981 79.5953 118.196 79.81C118.41 80.0153 118.714 80.118 119.106 80.118C119.367 80.118 119.619 80.076 119.862 79.992V80.958C119.572 81.0513 119.246 81.098 118.882 81.098C118.21 81.098 117.682 80.9113 117.3 80.538C116.926 80.1553 116.74 79.5953 116.74 78.858V74.854H115.368V73.958H116.74V72.152L117.874 71.746V73.958H119.89V74.854H117.874ZM121.256 73.958H122.39V81H121.256V73.958ZM122.53 70.976V72.264H121.144V70.976H122.53ZM128.106 73.79C129.795 73.79 130.64 74.7187 130.64 76.576V81H129.506V76.632C129.506 75.9787 129.375 75.5027 129.114 75.204C128.853 74.896 128.442 74.742 127.882 74.742C127.229 74.742 126.706 74.9427 126.314 75.344C125.922 75.7453 125.726 76.2867 125.726 76.968V81H124.592V75.932C124.592 75.204 124.555 74.546 124.48 73.958H125.558L125.67 75.218C125.885 74.7607 126.207 74.4107 126.636 74.168C127.065 73.916 127.555 73.79 128.106 73.79ZM139.053 73.958V80.944C139.053 81.9893 138.783 82.778 138.241 83.31C137.709 83.8513 136.921 84.122 135.875 84.122C134.802 84.122 133.878 83.8793 133.103 83.394L133.299 82.47C133.747 82.722 134.167 82.904 134.559 83.016C134.961 83.128 135.399 83.184 135.875 83.184C136.557 83.184 137.07 83.002 137.415 82.638C137.761 82.2833 137.933 81.7513 137.933 81.042V79.376C137.719 79.824 137.401 80.174 136.981 80.426C136.571 80.6687 136.081 80.79 135.511 80.79C134.895 80.79 134.345 80.6453 133.859 80.356C133.383 80.0667 133.015 79.656 132.753 79.124C132.492 78.592 132.361 77.9807 132.361 77.29C132.361 76.5993 132.492 75.988 132.753 75.456C133.015 74.924 133.383 74.5133 133.859 74.224C134.345 73.9347 134.895 73.79 135.511 73.79C136.071 73.79 136.557 73.9113 136.967 74.154C137.387 74.3967 137.705 74.7373 137.919 75.176V73.958H139.053ZM135.735 79.838C136.417 79.838 136.949 79.614 137.331 79.166C137.723 78.7087 137.919 78.0833 137.919 77.29C137.919 76.4967 137.723 75.876 137.331 75.428C136.949 74.9707 136.417 74.742 135.735 74.742C135.045 74.742 134.499 74.9707 134.097 75.428C133.705 75.876 133.509 76.4967 133.509 77.29C133.509 78.0833 133.705 78.7087 134.097 79.166C134.499 79.614 135.045 79.838 135.735 79.838ZM148.157 73.79C148.39 73.79 148.605 73.818 148.801 73.874L148.773 74.91C148.558 74.8353 148.311 74.798 148.031 74.798C147.35 74.798 146.841 75.0127 146.505 75.442C146.178 75.862 146.015 76.3753 146.015 76.982V81H144.881V75.932C144.881 75.204 144.844 74.546 144.769 73.958H145.847L145.959 75.26C146.136 74.784 146.421 74.42 146.813 74.168C147.205 73.916 147.653 73.79 148.157 73.79ZM155.711 77.444H150.545C150.554 78.34 150.759 79.0167 151.161 79.474C151.571 79.9313 152.164 80.16 152.939 80.16C153.76 80.16 154.516 79.8847 155.207 79.334L155.585 80.16C155.277 80.4493 154.88 80.678 154.395 80.846C153.919 81.014 153.429 81.098 152.925 81.098C151.823 81.098 150.96 80.776 150.335 80.132C149.709 79.4787 149.397 78.5873 149.397 77.458C149.397 76.7393 149.537 76.1047 149.817 75.554C150.097 74.994 150.489 74.56 150.993 74.252C151.497 73.944 152.071 73.79 152.715 73.79C153.648 73.79 154.381 74.098 154.913 74.714C155.445 75.3207 155.711 76.1607 155.711 77.234V77.444ZM152.729 74.672C152.141 74.672 151.66 74.8493 151.287 75.204C150.923 75.5587 150.689 76.058 150.587 76.702H154.689C154.633 76.0393 154.437 75.5353 154.101 75.19C153.774 74.8447 153.317 74.672 152.729 74.672ZM159.812 81.098C158.627 81.098 157.689 80.7947 156.998 80.188L157.376 79.348C157.759 79.6467 158.146 79.8613 158.538 79.992C158.93 80.1227 159.369 80.188 159.854 80.188C160.386 80.188 160.787 80.0993 161.058 79.922C161.338 79.7353 161.478 79.4693 161.478 79.124C161.478 78.844 161.385 78.62 161.198 78.452C161.011 78.284 160.703 78.1533 160.274 78.06L159.084 77.78C158.496 77.6493 158.039 77.416 157.712 77.08C157.395 76.744 157.236 76.3427 157.236 75.876C157.236 75.26 157.483 74.7607 157.978 74.378C158.473 73.986 159.126 73.79 159.938 73.79C160.433 73.79 160.899 73.8693 161.338 74.028C161.777 74.1867 162.145 74.4153 162.444 74.714L162.066 75.54C161.403 74.9893 160.694 74.714 159.938 74.714C159.434 74.714 159.042 74.812 158.762 75.008C158.491 75.1947 158.356 75.4607 158.356 75.806C158.356 76.0953 158.44 76.324 158.608 76.492C158.785 76.66 159.065 76.7907 159.448 76.884L160.638 77.178C161.291 77.3273 161.777 77.5607 162.094 77.878C162.411 78.186 162.57 78.592 162.57 79.096C162.57 79.7027 162.323 80.188 161.828 80.552C161.333 80.916 160.661 81.098 159.812 81.098ZM167.289 81.098C166.626 81.098 166.043 80.9487 165.539 80.65C165.035 80.3513 164.643 79.9267 164.363 79.376C164.092 78.8253 163.957 78.1813 163.957 77.444C163.957 76.7067 164.092 76.0627 164.363 75.512C164.643 74.9613 165.035 74.5367 165.539 74.238C166.043 73.9393 166.626 73.79 167.289 73.79C167.952 73.79 168.535 73.9393 169.039 74.238C169.543 74.5367 169.93 74.9613 170.201 75.512C170.481 76.0627 170.621 76.7067 170.621 77.444C170.621 78.1813 170.481 78.8253 170.201 79.376C169.93 79.9267 169.543 80.3513 169.039 80.65C168.535 80.9487 167.952 81.098 167.289 81.098ZM167.289 80.16C167.989 80.16 168.526 79.9313 168.899 79.474C169.272 79.0073 169.459 78.3307 169.459 77.444C169.459 76.5853 169.268 75.9227 168.885 75.456C168.502 74.98 167.97 74.742 167.289 74.742C166.598 74.742 166.062 74.98 165.679 75.456C165.296 75.9227 165.105 76.5853 165.105 77.444C165.105 78.3307 165.292 79.0073 165.665 79.474C166.048 79.9313 166.589 80.16 167.289 80.16ZM178.283 73.958V81H177.177V79.782C176.953 80.2113 176.64 80.538 176.239 80.762C175.838 80.986 175.385 81.098 174.881 81.098C174.05 81.098 173.42 80.8647 172.991 80.398C172.562 79.9313 172.347 79.2407 172.347 78.326V73.958H173.481V78.298C173.481 78.9327 173.612 79.3993 173.873 79.698C174.134 79.9967 174.531 80.146 175.063 80.146C175.688 80.146 176.192 79.9453 176.575 79.544C176.958 79.1333 177.149 78.5967 177.149 77.934V73.958H178.283ZM183.745 73.79C183.978 73.79 184.193 73.818 184.389 73.874L184.361 74.91C184.146 74.8353 183.899 74.798 183.619 74.798C182.938 74.798 182.429 75.0127 182.093 75.442C181.766 75.862 181.603 76.3753 181.603 76.982V81H180.469V75.932C180.469 75.204 180.432 74.546 180.357 73.958H181.435L181.547 75.26C181.724 74.784 182.009 74.42 182.401 74.168C182.793 73.916 183.241 73.79 183.745 73.79ZM188.359 81.098C187.677 81.098 187.08 80.9487 186.567 80.65C186.063 80.3513 185.671 79.9313 185.391 79.39C185.12 78.8393 184.985 78.2 184.985 77.472C184.985 76.744 185.125 76.1047 185.405 75.554C185.685 74.994 186.081 74.56 186.595 74.252C187.117 73.944 187.724 73.79 188.415 73.79C188.891 73.79 189.348 73.874 189.787 74.042C190.235 74.2007 190.603 74.4247 190.893 74.714L190.515 75.554C190.16 75.274 189.815 75.0687 189.479 74.938C189.152 74.8073 188.816 74.742 188.471 74.742C187.752 74.742 187.187 74.9847 186.777 75.47C186.366 75.946 186.16 76.6133 186.16 77.472C186.16 78.3213 186.361 78.984 186.763 79.46C187.173 79.9267 187.743 80.16 188.471 80.16C188.816 80.16 189.152 80.0947 189.479 79.964C189.815 79.8333 190.16 79.628 190.515 79.348L190.893 80.188C190.594 80.468 190.216 80.692 189.759 80.86C189.311 81.0187 188.844 81.098 188.359 81.098ZM198.23 77.444H193.064C193.073 78.34 193.279 79.0167 193.68 79.474C194.091 79.9313 194.683 80.16 195.458 80.16C196.279 80.16 197.035 79.8847 197.726 79.334L198.104 80.16C197.796 80.4493 197.399 80.678 196.914 80.846C196.438 81.014 195.948 81.098 195.444 81.098C194.343 81.098 193.479 80.776 192.854 80.132C192.229 79.4787 191.916 78.5873 191.916 77.458C191.916 76.7393 192.056 76.1047 192.336 75.554C192.616 74.994 193.008 74.56 193.512 74.252C194.016 73.944 194.59 73.79 195.234 73.79C196.167 73.79 196.9 74.098 197.432 74.714C197.964 75.3207 198.23 76.1607 198.23 77.234V77.444ZM195.248 74.672C194.66 74.672 194.179 74.8493 193.806 75.204C193.442 75.5587 193.209 76.058 193.106 76.702H197.208C197.152 76.0393 196.956 75.5353 196.62 75.19C196.293 74.8447 195.836 74.672 195.248 74.672ZM202.331 81.098C201.146 81.098 200.208 80.7947 199.517 80.188L199.895 79.348C200.278 79.6467 200.665 79.8613 201.057 79.992C201.449 80.1227 201.888 80.188 202.373 80.188C202.905 80.188 203.307 80.0993 203.577 79.922C203.857 79.7353 203.997 79.4693 203.997 79.124C203.997 78.844 203.904 78.62 203.717 78.452C203.531 78.284 203.223 78.1533 202.793 78.06L201.603 77.78C201.015 77.6493 200.558 77.416 200.231 77.08C199.914 76.744 199.755 76.3427 199.755 75.876C199.755 75.26 200.003 74.7607 200.497 74.378C200.992 73.986 201.645 73.79 202.457 73.79C202.952 73.79 203.419 73.8693 203.857 74.028C204.296 74.1867 204.665 74.4153 204.963 74.714L204.585 75.54C203.923 74.9893 203.213 74.714 202.457 74.714C201.953 74.714 201.561 74.812 201.281 75.008C201.011 75.1947 200.875 75.4607 200.875 75.806C200.875 76.0953 200.959 76.324 201.127 76.492C201.305 76.66 201.585 76.7907 201.967 76.884L203.157 77.178C203.811 77.3273 204.296 77.5607 204.613 77.878C204.931 78.186 205.089 78.592 205.089 79.096C205.089 79.7027 204.842 80.188 204.347 80.552C203.853 80.916 203.181 81.098 202.331 81.098Z" fill="#5B5151"/>
<circle cx="41" cy="64" r="15" fill="white"/>
<mask id="mask0" mask-type="alpha" maskUnits="userSpaceOnUse" x="26" y="49" width="30" height="30">
<circle cx="41" cy="64" r="15" fill="white"/>
</mask>
<g mask="url(#mask0)">
<path d="M46.3763 61.5393C46.3763 63.0615 45.8304 64.3792 44.7535 65.4562C43.6766 66.5331 42.3587 67.079 40.8365 67.079H40.8338C39.3135 67.0785 37.9966 66.5326 36.9197 65.4562C35.8426 64.3792 35.2969 63.0615 35.2969 61.5393C35.2969 60.0175 35.8426 58.6997 36.9197 57.6228C37.996 56.5463 39.313 56.0005 40.8338 56H40.8365C42.3582 56 43.676 56.5459 44.7535 57.6228C45.8304 58.6997 46.3763 60.0175 46.3763 61.5393Z" fill="#FFD589"/>
<path d="M50.5759 75.0444C50.5759 76.2454 50.1939 77.2177 49.4415 77.9338C48.6978 78.6415 47.7142 79 46.5184 79H35.4437C34.2479 79 33.2643 78.6415 32.5212 77.9338C31.7682 77.2172 31.3867 76.245 31.3867 75.0444C31.3867 74.5826 31.402 74.1256 31.4325 73.6862C31.4636 73.237 31.5264 72.7482 31.619 72.2324C31.7124 71.7125 31.8324 71.221 31.9761 70.7718C32.1253 70.3068 32.3271 69.8481 32.5768 69.4087C32.8362 68.9526 33.1408 68.5553 33.4823 68.2282C33.8402 67.8859 34.2779 67.6109 34.7838 67.4105C35.2879 67.2112 35.8468 67.1101 36.4448 67.1101C36.6794 67.1101 36.9067 67.2061 37.3447 67.4914C37.6188 67.6702 37.9346 67.8738 38.2833 68.0966C38.5844 68.2886 38.9922 68.4686 39.4963 68.6313C39.9394 68.7747 40.3892 68.8547 40.8335 68.8686C40.8824 68.8703 40.9314 68.8712 40.9803 68.8712C41.4738 68.8712 41.9728 68.7903 42.4649 68.6313C42.969 68.4686 43.3774 68.2886 43.6783 68.0966C44.0306 67.8715 44.3465 67.6681 44.6166 67.4919C45.0549 67.2061 45.2818 67.1101 45.5169 67.1101C46.1144 67.1101 46.6733 67.2112 47.1778 67.4105C47.6837 67.6109 48.1213 67.8864 48.479 68.2282C48.821 68.5553 49.1256 68.9526 49.3848 69.4087C49.6347 69.8484 49.8368 70.3068 49.9854 70.7712C50.1293 71.221 50.2497 71.7125 50.3431 72.2328C50.4352 72.749 50.4982 73.2379 50.5291 73.6859C50.5601 74.1239 50.5754 74.5808 50.5759 75.0444Z" fill="#D55A5F"/>
</g>
<path d="M50 133C50 121.954 58.9543 113 70 113H323C334.046 113 343 121.954 343 133V173H70C58.9543 173 50 164.046 50 153V133Z" fill="#FCFCFC"/>
<path d="M105.232 129.032H106.38V138.02H111.378V139H105.232V129.032ZM118.601 135.444H113.435C113.445 136.34 113.65 137.017 114.051 137.474C114.462 137.931 115.055 138.16 115.829 138.16C116.651 138.16 117.407 137.885 118.097 137.334L118.475 138.16C118.167 138.449 117.771 138.678 117.285 138.846C116.809 139.014 116.319 139.098 115.815 139.098C114.714 139.098 113.851 138.776 113.225 138.132C112.6 137.479 112.287 136.587 112.287 135.458C112.287 134.739 112.427 134.105 112.707 133.554C112.987 132.994 113.379 132.56 113.883 132.252C114.387 131.944 114.961 131.79 115.605 131.79C116.539 131.79 117.271 132.098 117.803 132.714C118.335 133.321 118.601 134.161 118.601 135.234V135.444ZM115.619 132.672C115.031 132.672 114.551 132.849 114.177 133.204C113.813 133.559 113.58 134.058 113.477 134.702H117.579C117.523 134.039 117.327 133.535 116.991 133.19C116.665 132.845 116.207 132.672 115.619 132.672ZM121.793 132.854V136.704C121.793 137.227 121.901 137.595 122.115 137.81C122.33 138.015 122.633 138.118 123.025 138.118C123.287 138.118 123.539 138.076 123.781 137.992V138.958C123.492 139.051 123.165 139.098 122.801 139.098C122.129 139.098 121.602 138.911 121.219 138.538C120.846 138.155 120.659 137.595 120.659 136.858V132.854H119.287V131.958H120.659V130.152L121.793 129.746V131.958H123.809V132.854H121.793ZM131.738 139.098C131.076 139.098 130.492 138.949 129.988 138.65C129.484 138.351 129.092 137.927 128.812 137.376C128.542 136.825 128.406 136.181 128.406 135.444C128.406 134.707 128.542 134.063 128.812 133.512C129.092 132.961 129.484 132.537 129.988 132.238C130.492 131.939 131.076 131.79 131.738 131.79C132.401 131.79 132.984 131.939 133.488 132.238C133.992 132.537 134.38 132.961 134.65 133.512C134.93 134.063 135.07 134.707 135.07 135.444C135.07 136.181 134.93 136.825 134.65 137.376C134.38 137.927 133.992 138.351 133.488 138.65C132.984 138.949 132.401 139.098 131.738 139.098ZM131.738 138.16C132.438 138.16 132.975 137.931 133.348 137.474C133.722 137.007 133.908 136.331 133.908 135.444C133.908 134.585 133.717 133.923 133.334 133.456C132.952 132.98 132.42 132.742 131.738 132.742C131.048 132.742 130.511 132.98 130.128 133.456C129.746 133.923 129.554 134.585 129.554 135.444C129.554 136.331 129.741 137.007 130.114 137.474C130.497 137.931 131.038 138.16 131.738 138.16ZM142.732 131.958V139H141.626V137.782C141.402 138.211 141.089 138.538 140.688 138.762C140.287 138.986 139.834 139.098 139.33 139.098C138.499 139.098 137.869 138.865 137.44 138.398C137.011 137.931 136.796 137.241 136.796 136.326V131.958H137.93V136.298C137.93 136.933 138.061 137.399 138.322 137.698C138.583 137.997 138.98 138.146 139.512 138.146C140.137 138.146 140.641 137.945 141.024 137.544C141.407 137.133 141.598 136.597 141.598 135.934V131.958H142.732ZM148.194 131.79C148.428 131.79 148.642 131.818 148.838 131.874L148.81 132.91C148.596 132.835 148.348 132.798 148.068 132.798C147.387 132.798 146.878 133.013 146.542 133.442C146.216 133.862 146.052 134.375 146.052 134.982V139H144.918V133.932C144.918 133.204 144.881 132.546 144.806 131.958H145.884L145.996 133.26C146.174 132.784 146.458 132.42 146.85 132.168C147.242 131.916 147.69 131.79 148.194 131.79ZM157.155 131.79C157.771 131.79 158.317 131.944 158.793 132.252C159.269 132.56 159.637 132.994 159.899 133.554C160.16 134.105 160.291 134.744 160.291 135.472C160.291 136.2 160.16 136.839 159.899 137.39C159.637 137.931 159.269 138.351 158.793 138.65C158.326 138.949 157.78 139.098 157.155 139.098C156.604 139.098 156.123 138.977 155.713 138.734C155.302 138.491 154.989 138.146 154.775 137.698V142.024H153.641V133.932C153.641 133.204 153.603 132.546 153.529 131.958H154.607L154.719 133.316C154.915 132.831 155.223 132.457 155.643 132.196C156.072 131.925 156.576 131.79 157.155 131.79ZM156.945 138.16C157.635 138.16 158.167 137.927 158.541 137.46C158.923 136.993 159.115 136.331 159.115 135.472C159.115 134.613 158.923 133.946 158.541 133.47C158.158 132.985 157.626 132.742 156.945 132.742C156.245 132.742 155.708 132.975 155.335 133.442C154.961 133.909 154.775 134.576 154.775 135.444C154.775 136.312 154.961 136.984 155.335 137.46C155.708 137.927 156.245 138.16 156.945 138.16ZM162.035 128.696H163.169V139H162.035V128.696ZM171.573 131.958V139H170.453V137.726C170.248 138.165 169.935 138.505 169.515 138.748C169.105 138.981 168.624 139.098 168.073 139.098C167.448 139.098 166.897 138.949 166.421 138.65C165.955 138.351 165.591 137.931 165.329 137.39C165.077 136.839 164.951 136.2 164.951 135.472C164.951 134.744 165.082 134.105 165.343 133.554C165.605 132.994 165.969 132.56 166.435 132.252C166.911 131.944 167.457 131.79 168.073 131.79C168.624 131.79 169.105 131.911 169.515 132.154C169.926 132.397 170.239 132.737 170.453 133.176V131.958H171.573ZM168.297 138.16C168.988 138.16 169.52 137.927 169.893 137.46C170.267 136.984 170.453 136.312 170.453 135.444C170.453 134.576 170.267 133.909 169.893 133.442C169.52 132.975 168.988 132.742 168.297 132.742C167.607 132.742 167.065 132.985 166.673 133.47C166.291 133.946 166.099 134.613 166.099 135.472C166.099 136.331 166.291 136.993 166.673 137.46C167.056 137.927 167.597 138.16 168.297 138.16ZM175.278 132.854V136.704C175.278 137.227 175.385 137.595 175.6 137.81C175.814 138.015 176.118 138.118 176.51 138.118C176.771 138.118 177.023 138.076 177.266 137.992V138.958C176.976 139.051 176.65 139.098 176.286 139.098C175.614 139.098 175.086 138.911 174.704 138.538C174.33 138.155 174.144 137.595 174.144 136.858V132.854H172.772V131.958H174.144V130.152L175.278 129.746V131.958H177.294V132.854H175.278ZM181.513 129.62C181.139 129.62 180.845 129.727 180.631 129.942C180.425 130.147 180.323 130.507 180.323 131.02V131.958H182.045V132.854H180.323V139H179.189V132.854H177.817V131.958H179.189V130.88C179.189 130.143 179.371 129.587 179.735 129.214C180.108 128.831 180.626 128.64 181.289 128.64C181.615 128.64 181.933 128.682 182.241 128.766V129.732C181.979 129.657 181.737 129.62 181.513 129.62ZM186.371 139.098C185.709 139.098 185.125 138.949 184.621 138.65C184.117 138.351 183.725 137.927 183.445 137.376C183.175 136.825 183.039 136.181 183.039 135.444C183.039 134.707 183.175 134.063 183.445 133.512C183.725 132.961 184.117 132.537 184.621 132.238C185.125 131.939 185.709 131.79 186.371 131.79C187.034 131.79 187.617 131.939 188.121 132.238C188.625 132.537 189.013 132.961 189.283 133.512C189.563 134.063 189.703 134.707 189.703 135.444C189.703 136.181 189.563 136.825 189.283 137.376C189.013 137.927 188.625 138.351 188.121 138.65C187.617 138.949 187.034 139.098 186.371 139.098ZM186.371 138.16C187.071 138.16 187.608 137.931 187.981 137.474C188.355 137.007 188.541 136.331 188.541 135.444C188.541 134.585 188.35 133.923 187.967 133.456C187.585 132.98 187.053 132.742 186.371 132.742C185.681 132.742 185.144 132.98 184.761 133.456C184.379 133.923 184.187 134.585 184.187 135.444C184.187 136.331 184.374 137.007 184.747 137.474C185.13 137.931 185.671 138.16 186.371 138.16ZM194.747 131.79C194.98 131.79 195.195 131.818 195.391 131.874L195.363 132.91C195.148 132.835 194.901 132.798 194.621 132.798C193.94 132.798 193.431 133.013 193.095 133.442C192.768 133.862 192.605 134.375 192.605 134.982V139H191.471V133.932C191.471 133.204 191.434 132.546 191.359 131.958H192.437L192.549 133.26C192.726 132.784 193.011 132.42 193.403 132.168C193.795 131.916 194.243 131.79 194.747 131.79ZM204.355 131.79C205.914 131.79 206.693 132.719 206.693 134.576V139H205.559V134.632C205.559 133.969 205.443 133.489 205.209 133.19C204.985 132.891 204.617 132.742 204.103 132.742C203.506 132.742 203.039 132.943 202.703 133.344C202.367 133.745 202.199 134.291 202.199 134.982V139H201.065V134.632C201.065 133.979 200.949 133.503 200.715 133.204C200.482 132.896 200.109 132.742 199.595 132.742C198.998 132.742 198.527 132.943 198.181 133.344C197.845 133.745 197.677 134.291 197.677 134.982V139H196.543V133.932C196.543 133.204 196.506 132.546 196.431 131.958H197.509L197.621 133.19C197.817 132.742 198.107 132.397 198.489 132.154C198.881 131.911 199.334 131.79 199.847 131.79C200.407 131.79 200.865 131.902 201.219 132.126C201.574 132.35 201.835 132.695 202.003 133.162C202.218 132.742 202.531 132.411 202.941 132.168C203.361 131.916 203.833 131.79 204.355 131.79ZM214.878 139.098C213.693 139.098 212.755 138.795 212.064 138.188L212.442 137.348C212.825 137.647 213.212 137.861 213.604 137.992C213.996 138.123 214.435 138.188 214.92 138.188C215.452 138.188 215.854 138.099 216.124 137.922C216.404 137.735 216.544 137.469 216.544 137.124C216.544 136.844 216.451 136.62 216.264 136.452C216.078 136.284 215.77 136.153 215.34 136.06L214.15 135.78C213.562 135.649 213.105 135.416 212.778 135.08C212.461 134.744 212.302 134.343 212.302 133.876C212.302 133.26 212.55 132.761 213.044 132.378C213.539 131.986 214.192 131.79 215.004 131.79C215.499 131.79 215.966 131.869 216.404 132.028C216.843 132.187 217.212 132.415 217.51 132.714L217.132 133.54C216.47 132.989 215.76 132.714 215.004 132.714C214.5 132.714 214.108 132.812 213.828 133.008C213.558 133.195 213.422 133.461 213.422 133.806C213.422 134.095 213.506 134.324 213.674 134.492C213.852 134.66 214.132 134.791 214.514 134.884L215.704 135.178C216.358 135.327 216.843 135.561 217.16 135.878C217.478 136.186 217.636 136.592 217.636 137.096C217.636 137.703 217.389 138.188 216.894 138.552C216.4 138.916 215.728 139.098 214.878 139.098ZM225.338 135.444H220.172C220.181 136.34 220.386 137.017 220.788 137.474C221.198 137.931 221.791 138.16 222.566 138.16C223.387 138.16 224.143 137.885 224.834 137.334L225.212 138.16C224.904 138.449 224.507 138.678 224.022 138.846C223.546 139.014 223.056 139.098 222.552 139.098C221.45 139.098 220.587 138.776 219.962 138.132C219.336 137.479 219.024 136.587 219.024 135.458C219.024 134.739 219.164 134.105 219.444 133.554C219.724 132.994 220.116 132.56 220.62 132.252C221.124 131.944 221.698 131.79 222.342 131.79C223.275 131.79 224.008 132.098 224.54 132.714C225.072 133.321 225.338 134.161 225.338 135.234V135.444ZM222.356 132.672C221.768 132.672 221.287 132.849 220.914 133.204C220.55 133.559 220.316 134.058 220.214 134.702H224.316C224.26 134.039 224.064 133.535 223.728 133.19C223.401 132.845 222.944 132.672 222.356 132.672ZM227.059 128.696H228.193V139H227.059V128.696ZM236.289 135.444H231.123C231.132 136.34 231.337 137.017 231.739 137.474C232.149 137.931 232.742 138.16 233.517 138.16C234.338 138.16 235.094 137.885 235.785 137.334L236.163 138.16C235.855 138.449 235.458 138.678 234.973 138.846C234.497 139.014 234.007 139.098 233.503 139.098C232.401 139.098 231.538 138.776 230.913 138.132C230.287 137.479 229.975 136.587 229.975 135.458C229.975 134.739 230.115 134.105 230.395 133.554C230.675 132.994 231.067 132.56 231.571 132.252C232.075 131.944 232.649 131.79 233.293 131.79C234.226 131.79 234.959 132.098 235.491 132.714C236.023 133.321 236.289 134.161 236.289 135.234V135.444ZM233.307 132.672C232.719 132.672 232.238 132.849 231.865 133.204C231.501 133.559 231.267 134.058 231.165 134.702H235.267C235.211 134.039 235.015 133.535 234.679 133.19C234.352 132.845 233.895 132.672 233.307 132.672ZM240.964 139.098C240.283 139.098 239.685 138.949 239.172 138.65C238.668 138.351 238.276 137.931 237.996 137.39C237.725 136.839 237.59 136.2 237.59 135.472C237.59 134.744 237.73 134.105 238.01 133.554C238.29 132.994 238.687 132.56 239.2 132.252C239.723 131.944 240.329 131.79 241.02 131.79C241.496 131.79 241.953 131.874 242.392 132.042C242.84 132.201 243.209 132.425 243.498 132.714L243.12 133.554C242.765 133.274 242.42 133.069 242.084 132.938C241.757 132.807 241.421 132.742 241.076 132.742C240.357 132.742 239.793 132.985 239.382 133.47C238.971 133.946 238.766 134.613 238.766 135.472C238.766 136.321 238.967 136.984 239.368 137.46C239.779 137.927 240.348 138.16 241.076 138.16C241.421 138.16 241.757 138.095 242.084 137.964C242.42 137.833 242.765 137.628 243.12 137.348L243.498 138.188C243.199 138.468 242.821 138.692 242.364 138.86C241.916 139.019 241.449 139.098 240.964 139.098ZM246.467 132.854V136.704C246.467 137.227 246.575 137.595 246.789 137.81C247.004 138.015 247.307 138.118 247.699 138.118C247.961 138.118 248.213 138.076 248.455 137.992V138.958C248.166 139.051 247.839 139.098 247.475 139.098C246.803 139.098 246.276 138.911 245.893 138.538C245.52 138.155 245.333 137.595 245.333 136.858V132.854H243.961V131.958H245.333V130.152L246.467 129.746V131.958H248.483V132.854H246.467ZM255.012 132.854V136.704C255.012 137.227 255.12 137.595 255.334 137.81C255.549 138.015 255.852 138.118 256.244 138.118C256.506 138.118 256.758 138.076 257 137.992V138.958C256.711 139.051 256.384 139.098 256.02 139.098C255.348 139.098 254.821 138.911 254.438 138.538C254.065 138.155 253.878 137.595 253.878 136.858V132.854H252.506V131.958H253.878V130.152L255.012 129.746V131.958H257.028V132.854H255.012ZM261.909 131.79C263.598 131.79 264.443 132.719 264.443 134.576V139H263.309V134.632C263.309 133.979 263.178 133.503 262.917 133.204C262.655 132.896 262.245 132.742 261.685 132.742C261.031 132.742 260.509 132.943 260.117 133.344C259.725 133.745 259.529 134.287 259.529 134.968V139H258.395V128.696H259.529V133.106C259.753 132.677 260.07 132.35 260.481 132.126C260.901 131.902 261.377 131.79 261.909 131.79ZM272.478 135.444H267.312C267.322 136.34 267.527 137.017 267.928 137.474C268.339 137.931 268.932 138.16 269.706 138.16C270.528 138.16 271.284 137.885 271.974 137.334L272.352 138.16C272.044 138.449 271.648 138.678 271.162 138.846C270.686 139.014 270.196 139.098 269.692 139.098C268.591 139.098 267.728 138.776 267.102 138.132C266.477 137.479 266.164 136.587 266.164 135.458C266.164 134.739 266.304 134.105 266.584 133.554C266.864 132.994 267.256 132.56 267.76 132.252C268.264 131.944 268.838 131.79 269.482 131.79C270.416 131.79 271.148 132.098 271.68 132.714C272.212 133.321 272.478 134.161 272.478 135.234V135.444ZM269.496 132.672C268.908 132.672 268.428 132.849 268.054 133.204C267.69 133.559 267.457 134.058 267.354 134.702H271.456C271.4 134.039 271.204 133.535 270.868 133.19C270.542 132.845 270.084 132.672 269.496 132.672ZM281.364 131.79C281.98 131.79 282.526 131.939 283.002 132.238C283.478 132.537 283.846 132.961 284.108 133.512C284.369 134.053 284.5 134.688 284.5 135.416C284.5 136.144 284.369 136.788 284.108 137.348C283.846 137.899 283.478 138.328 283.002 138.636C282.526 138.944 281.98 139.098 281.364 139.098C280.813 139.098 280.332 138.977 279.922 138.734C279.511 138.491 279.198 138.146 278.984 137.698V139H277.85V128.696H278.984V133.204C279.189 132.747 279.497 132.397 279.908 132.154C280.328 131.911 280.813 131.79 281.364 131.79ZM281.154 138.16C281.835 138.16 282.367 137.922 282.75 137.446C283.132 136.961 283.324 136.284 283.324 135.416C283.324 134.567 283.132 133.909 282.75 133.442C282.376 132.975 281.844 132.742 281.154 132.742C280.454 132.742 279.917 132.975 279.544 133.442C279.17 133.909 278.984 134.576 278.984 135.444C278.984 136.312 279.17 136.984 279.544 137.46C279.917 137.927 280.454 138.16 281.154 138.16ZM292.138 135.444H286.972C286.982 136.34 287.187 137.017 287.588 137.474C287.999 137.931 288.592 138.16 289.366 138.16C290.188 138.16 290.944 137.885 291.634 137.334L292.012 138.16C291.704 138.449 291.308 138.678 290.822 138.846C290.346 139.014 289.856 139.098 289.352 139.098C288.251 139.098 287.388 138.776 286.762 138.132C286.137 137.479 285.824 136.587 285.824 135.458C285.824 134.739 285.964 134.105 286.244 133.554C286.524 132.994 286.916 132.56 287.42 132.252C287.924 131.944 288.498 131.79 289.142 131.79C290.076 131.79 290.808 132.098 291.34 132.714C291.872 133.321 292.138 134.161 292.138 135.234V135.444ZM289.156 132.672C288.568 132.672 288.088 132.849 287.714 133.204C287.35 133.559 287.117 134.058 287.014 134.702H291.116C291.06 134.039 290.864 133.535 290.528 133.19C290.202 132.845 289.744 132.672 289.156 132.672ZM296.24 139.098C295.054 139.098 294.116 138.795 293.426 138.188L293.804 137.348C294.186 137.647 294.574 137.861 294.966 137.992C295.358 138.123 295.796 138.188 296.282 138.188C296.814 138.188 297.215 138.099 297.486 137.922C297.766 137.735 297.906 137.469 297.906 137.124C297.906 136.844 297.812 136.62 297.626 136.452C297.439 136.284 297.131 136.153 296.702 136.06L295.512 135.78C294.924 135.649 294.466 135.416 294.14 135.08C293.822 134.744 293.664 134.343 293.664 133.876C293.664 133.26 293.911 132.761 294.406 132.378C294.9 131.986 295.554 131.79 296.366 131.79C296.86 131.79 297.327 131.869 297.766 132.028C298.204 132.187 298.573 132.415 298.872 132.714L298.494 133.54C297.831 132.989 297.122 132.714 296.366 132.714C295.862 132.714 295.47 132.812 295.19 133.008C294.919 133.195 294.784 133.461 294.784 133.806C294.784 134.095 294.868 134.324 295.036 134.492C295.213 134.66 295.493 134.791 295.876 134.884L297.066 135.178C297.719 135.327 298.204 135.561 298.522 135.878C298.839 136.186 298.998 136.592 298.998 137.096C298.998 137.703 298.75 138.188 298.256 138.552C297.761 138.916 297.089 139.098 296.24 139.098ZM302.249 132.854V136.704C302.249 137.227 302.356 137.595 302.571 137.81C302.785 138.015 303.089 138.118 303.481 138.118C303.742 138.118 303.994 138.076 304.237 137.992V138.958C303.947 139.051 303.621 139.098 303.257 139.098C302.585 139.098 302.057 138.911 301.675 138.538C301.301 138.155 301.115 137.595 301.115 136.858V132.854H299.743V131.958H301.115V130.152L302.249 129.746V131.958H304.265V132.854H302.249ZM108.046 157.098C107.365 157.098 106.767 156.949 106.254 156.65C105.75 156.351 105.358 155.931 105.078 155.39C104.807 154.839 104.672 154.2 104.672 153.472C104.672 152.744 104.812 152.105 105.092 151.554C105.372 150.994 105.769 150.56 106.282 150.252C106.805 149.944 107.411 149.79 108.102 149.79C108.578 149.79 109.035 149.874 109.474 150.042C109.922 150.201 110.291 150.425 110.58 150.714L110.202 151.554C109.847 151.274 109.502 151.069 109.166 150.938C108.839 150.807 108.503 150.742 108.158 150.742C107.439 150.742 106.875 150.985 106.464 151.47C106.053 151.946 105.848 152.613 105.848 153.472C105.848 154.321 106.049 154.984 106.45 155.46C106.861 155.927 107.43 156.16 108.158 156.16C108.503 156.16 108.839 156.095 109.166 155.964C109.502 155.833 109.847 155.628 110.202 155.348L110.58 156.188C110.281 156.468 109.903 156.692 109.446 156.86C108.998 157.019 108.531 157.098 108.046 157.098ZM114.936 157.098C114.273 157.098 113.69 156.949 113.186 156.65C112.682 156.351 112.29 155.927 112.01 155.376C111.739 154.825 111.604 154.181 111.604 153.444C111.604 152.707 111.739 152.063 112.01 151.512C112.29 150.961 112.682 150.537 113.186 150.238C113.69 149.939 114.273 149.79 114.936 149.79C115.598 149.79 116.182 149.939 116.686 150.238C117.19 150.537 117.577 150.961 117.848 151.512C118.128 152.063 118.268 152.707 118.268 153.444C118.268 154.181 118.128 154.825 117.848 155.376C117.577 155.927 117.19 156.351 116.686 156.65C116.182 156.949 115.598 157.098 114.936 157.098ZM114.936 156.16C115.636 156.16 116.172 155.931 116.546 155.474C116.919 155.007 117.106 154.331 117.106 153.444C117.106 152.585 116.914 151.923 116.532 151.456C116.149 150.98 115.617 150.742 114.936 150.742C114.245 150.742 113.708 150.98 113.326 151.456C112.943 151.923 112.752 152.585 112.752 153.444C112.752 154.331 112.938 155.007 113.312 155.474C113.694 155.931 114.236 156.16 114.936 156.16ZM123.549 149.79C125.239 149.79 126.083 150.719 126.083 152.576V157H124.949V152.632C124.949 151.979 124.819 151.503 124.557 151.204C124.296 150.896 123.885 150.742 123.325 150.742C122.672 150.742 122.149 150.943 121.757 151.344C121.365 151.745 121.169 152.287 121.169 152.968V157H120.035V151.932C120.035 151.204 119.998 150.546 119.923 149.958H121.001L121.113 151.218C121.328 150.761 121.65 150.411 122.079 150.168C122.509 149.916 122.999 149.79 123.549 149.79ZM129.737 150.854V154.704C129.737 155.227 129.844 155.595 130.059 155.81C130.273 156.015 130.577 156.118 130.969 156.118C131.23 156.118 131.482 156.076 131.725 155.992V156.958C131.435 157.051 131.109 157.098 130.745 157.098C130.073 157.098 129.545 156.911 129.163 156.538C128.789 156.155 128.603 155.595 128.603 154.858V150.854H127.231V149.958H128.603V148.152L129.737 147.746V149.958H131.753V150.854H129.737ZM139.013 153.444H133.847C133.857 154.34 134.062 155.017 134.463 155.474C134.874 155.931 135.467 156.16 136.241 156.16C137.063 156.16 137.819 155.885 138.509 155.334L138.887 156.16C138.579 156.449 138.183 156.678 137.697 156.846C137.221 157.014 136.731 157.098 136.227 157.098C135.126 157.098 134.263 156.776 133.637 156.132C133.012 155.479 132.699 154.587 132.699 153.458C132.699 152.739 132.839 152.105 133.119 151.554C133.399 150.994 133.791 150.56 134.295 150.252C134.799 149.944 135.373 149.79 136.017 149.79C136.951 149.79 137.683 150.098 138.215 150.714C138.747 151.321 139.013 152.161 139.013 153.234V153.444ZM136.031 150.672C135.443 150.672 134.963 150.849 134.589 151.204C134.225 151.559 133.992 152.058 133.889 152.702H137.991C137.935 152.039 137.739 151.535 137.403 151.19C137.077 150.845 136.619 150.672 136.031 150.672ZM144.249 149.79C145.938 149.79 146.783 150.719 146.783 152.576V157H145.649V152.632C145.649 151.979 145.518 151.503 145.257 151.204C144.995 150.896 144.585 150.742 144.025 150.742C143.371 150.742 142.849 150.943 142.457 151.344C142.065 151.745 141.869 152.287 141.869 152.968V157H140.735V151.932C140.735 151.204 140.697 150.546 140.623 149.958H141.701L141.813 151.218C142.027 150.761 142.349 150.411 142.779 150.168C143.208 149.916 143.698 149.79 144.249 149.79ZM150.436 150.854V154.704C150.436 155.227 150.543 155.595 150.758 155.81C150.973 156.015 151.276 156.118 151.668 156.118C151.929 156.118 152.181 156.076 152.424 155.992V156.958C152.135 157.051 151.808 157.098 151.444 157.098C150.772 157.098 150.245 156.911 149.862 156.538C149.489 156.155 149.302 155.595 149.302 154.858V150.854H147.93V149.958H149.302V148.152L150.436 147.746V149.958H152.452V150.854H150.436ZM160.171 147.62C159.798 147.62 159.504 147.727 159.289 147.942C159.084 148.147 158.981 148.507 158.981 149.02V149.958H160.703V150.854H158.981V157H157.847V150.854H156.475V149.958H157.847V148.88C157.847 148.143 158.029 147.587 158.393 147.214C158.766 146.831 159.284 146.64 159.947 146.64C160.274 146.64 160.591 146.682 160.899 146.766V147.732C160.638 147.657 160.395 147.62 160.171 147.62ZM165.029 157.098C164.367 157.098 163.783 156.949 163.279 156.65C162.775 156.351 162.383 155.927 162.103 155.376C161.833 154.825 161.697 154.181 161.697 153.444C161.697 152.707 161.833 152.063 162.103 151.512C162.383 150.961 162.775 150.537 163.279 150.238C163.783 149.939 164.367 149.79 165.029 149.79C165.692 149.79 166.275 149.939 166.779 150.238C167.283 150.537 167.671 150.961 167.941 151.512C168.221 152.063 168.361 152.707 168.361 153.444C168.361 154.181 168.221 154.825 167.941 155.376C167.671 155.927 167.283 156.351 166.779 156.65C166.275 156.949 165.692 157.098 165.029 157.098ZM165.029 156.16C165.729 156.16 166.266 155.931 166.639 155.474C167.013 155.007 167.199 154.331 167.199 153.444C167.199 152.585 167.008 151.923 166.625 151.456C166.243 150.98 165.711 150.742 165.029 150.742C164.339 150.742 163.802 150.98 163.419 151.456C163.037 151.923 162.845 152.585 162.845 153.444C162.845 154.331 163.032 155.007 163.405 155.474C163.788 155.931 164.329 156.16 165.029 156.16ZM173.405 149.79C173.638 149.79 173.853 149.818 174.049 149.874L174.021 150.91C173.806 150.835 173.559 150.798 173.279 150.798C172.598 150.798 172.089 151.013 171.753 151.442C171.426 151.862 171.263 152.375 171.263 152.982V157H170.129V151.932C170.129 151.204 170.092 150.546 170.017 149.958H171.095L171.207 151.26C171.384 150.784 171.669 150.42 172.061 150.168C172.453 149.916 172.901 149.79 173.405 149.79ZM184.746 153.444H179.58C179.589 154.34 179.794 155.017 180.196 155.474C180.606 155.931 181.199 156.16 181.974 156.16C182.795 156.16 183.551 155.885 184.242 155.334L184.62 156.16C184.312 156.449 183.915 156.678 183.43 156.846C182.954 157.014 182.464 157.098 181.96 157.098C180.858 157.098 179.995 156.776 179.37 156.132C178.744 155.479 178.432 154.587 178.432 153.458C178.432 152.739 178.572 152.105 178.852 151.554C179.132 150.994 179.524 150.56 180.028 150.252C180.532 149.944 181.106 149.79 181.75 149.79C182.683 149.79 183.416 150.098 183.948 150.714C184.48 151.321 184.746 152.161 184.746 153.234V153.444ZM181.764 150.672C181.176 150.672 180.695 150.849 180.322 151.204C179.958 151.559 179.724 152.058 179.622 152.702H183.724C183.668 152.039 183.472 151.535 183.136 151.19C182.809 150.845 182.352 150.672 181.764 150.672ZM192.669 149.958V157H191.549V155.726C191.344 156.165 191.031 156.505 190.611 156.748C190.2 156.981 189.72 157.098 189.169 157.098C188.544 157.098 187.993 156.949 187.517 156.65C187.05 156.351 186.686 155.931 186.425 155.39C186.173 154.839 186.047 154.2 186.047 153.472C186.047 152.744 186.178 152.105 186.439 151.554C186.7 150.994 187.064 150.56 187.531 150.252C188.007 149.944 188.553 149.79 189.169 149.79C189.72 149.79 190.2 149.911 190.611 150.154C191.022 150.397 191.334 150.737 191.549 151.176V149.958H192.669ZM189.393 156.16C190.084 156.16 190.616 155.927 190.989 155.46C191.362 154.984 191.549 154.312 191.549 153.444C191.549 152.576 191.362 151.909 190.989 151.442C190.616 150.975 190.084 150.742 189.393 150.742C188.702 150.742 188.161 150.985 187.769 151.47C187.386 151.946 187.195 152.613 187.195 153.472C187.195 154.331 187.386 154.993 187.769 155.46C188.152 155.927 188.693 156.16 189.393 156.16ZM197.816 157.098C197.134 157.098 196.537 156.949 196.024 156.65C195.52 156.351 195.128 155.931 194.848 155.39C194.577 154.839 194.442 154.2 194.442 153.472C194.442 152.744 194.582 152.105 194.862 151.554C195.142 150.994 195.538 150.56 196.052 150.252C196.574 149.944 197.181 149.79 197.872 149.79C198.348 149.79 198.805 149.874 199.244 150.042C199.692 150.201 200.06 150.425 200.35 150.714L199.972 151.554C199.617 151.274 199.272 151.069 198.936 150.938C198.609 150.807 198.273 150.742 197.928 150.742C197.209 150.742 196.644 150.985 196.234 151.47C195.823 151.946 195.618 152.613 195.618 153.472C195.618 154.321 195.818 154.984 196.22 155.46C196.63 155.927 197.2 156.16 197.928 156.16C198.273 156.16 198.609 156.095 198.936 155.964C199.272 155.833 199.617 155.628 199.972 155.348L200.35 156.188C200.051 156.468 199.673 156.692 199.216 156.86C198.768 157.019 198.301 157.098 197.816 157.098ZM205.307 149.79C206.997 149.79 207.841 150.719 207.841 152.576V157H206.707V152.632C206.707 151.979 206.577 151.503 206.315 151.204C206.054 150.896 205.643 150.742 205.083 150.742C204.43 150.742 203.907 150.943 203.515 151.344C203.123 151.745 202.927 152.287 202.927 152.968V157H201.793V146.696H202.927V151.106C203.151 150.677 203.469 150.35 203.879 150.126C204.299 149.902 204.775 149.79 205.307 149.79ZM216.545 157.098C215.882 157.098 215.299 156.949 214.795 156.65C214.291 156.351 213.899 155.927 213.619 155.376C213.348 154.825 213.213 154.181 213.213 153.444C213.213 152.707 213.348 152.063 213.619 151.512C213.899 150.961 214.291 150.537 214.795 150.238C215.299 149.939 215.882 149.79 216.545 149.79C217.208 149.79 217.791 149.939 218.295 150.238C218.799 150.537 219.186 150.961 219.457 151.512C219.737 152.063 219.877 152.707 219.877 153.444C219.877 154.181 219.737 154.825 219.457 155.376C219.186 155.927 218.799 156.351 218.295 156.65C217.791 156.949 217.208 157.098 216.545 157.098ZM216.545 156.16C217.245 156.16 217.782 155.931 218.155 155.474C218.528 155.007 218.715 154.331 218.715 153.444C218.715 152.585 218.524 151.923 218.141 151.456C217.758 150.98 217.226 150.742 216.545 150.742C215.854 150.742 215.318 150.98 214.935 151.456C214.552 151.923 214.361 152.585 214.361 153.444C214.361 154.331 214.548 155.007 214.921 155.474C215.304 155.931 215.845 156.16 216.545 156.16ZM224.333 147.62C223.96 147.62 223.666 147.727 223.451 147.942C223.246 148.147 223.143 148.507 223.143 149.02V149.958H224.865V150.854H223.143V157H222.009V150.854H220.637V149.958H222.009V148.88C222.009 148.143 222.191 147.587 222.555 147.214C222.928 146.831 223.446 146.64 224.109 146.64C224.436 146.64 224.753 146.682 225.061 146.766V147.732C224.8 147.657 224.557 147.62 224.333 147.62ZM236.186 149.958L232.896 157.644C232.551 158.447 232.117 159.035 231.594 159.408C231.072 159.781 230.428 160.038 229.662 160.178L229.424 159.296C230.087 159.147 230.586 158.946 230.922 158.694C231.268 158.451 231.552 158.073 231.776 157.56L232.056 156.93L229.074 149.958H230.264L232.644 155.768L235.052 149.958H236.186ZM240.266 157.098C239.603 157.098 239.02 156.949 238.516 156.65C238.012 156.351 237.62 155.927 237.34 155.376C237.069 154.825 236.934 154.181 236.934 153.444C236.934 152.707 237.069 152.063 237.34 151.512C237.62 150.961 238.012 150.537 238.516 150.238C239.02 149.939 239.603 149.79 240.266 149.79C240.928 149.79 241.512 149.939 242.016 150.238C242.52 150.537 242.907 150.961 243.178 151.512C243.458 152.063 243.598 152.707 243.598 153.444C243.598 154.181 243.458 154.825 243.178 155.376C242.907 155.927 242.52 156.351 242.016 156.65C241.512 156.949 240.928 157.098 240.266 157.098ZM240.266 156.16C240.966 156.16 241.502 155.931 241.876 155.474C242.249 155.007 242.436 154.331 242.436 153.444C242.436 152.585 242.244 151.923 241.862 151.456C241.479 150.98 240.947 150.742 240.266 150.742C239.575 150.742 239.038 150.98 238.656 151.456C238.273 151.923 238.082 152.585 238.082 153.444C238.082 154.331 238.268 155.007 238.642 155.474C239.024 155.931 239.566 156.16 240.266 156.16ZM251.259 149.958V157H250.153V155.782C249.929 156.211 249.617 156.538 249.215 156.762C248.814 156.986 248.361 157.098 247.857 157.098C247.027 157.098 246.397 156.865 245.967 156.398C245.538 155.931 245.323 155.241 245.323 154.326V149.958H246.457V154.298C246.457 154.933 246.588 155.399 246.849 155.698C247.111 155.997 247.507 156.146 248.039 156.146C248.665 156.146 249.169 155.945 249.551 155.544C249.934 155.133 250.125 154.597 250.125 153.934V149.958H251.259ZM256.722 149.79C256.955 149.79 257.17 149.818 257.366 149.874L257.338 150.91C257.123 150.835 256.876 150.798 256.596 150.798C255.914 150.798 255.406 151.013 255.07 151.442C254.743 151.862 254.58 152.375 254.58 152.982V157H253.446V151.932C253.446 151.204 253.408 150.546 253.334 149.958H254.412L254.524 151.26C254.701 150.784 254.986 150.42 255.378 150.168C255.77 149.916 256.218 149.79 256.722 149.79ZM265.682 149.79C266.298 149.79 266.844 149.944 267.32 150.252C267.796 150.56 268.165 150.994 268.426 151.554C268.688 152.105 268.818 152.744 268.818 153.472C268.818 154.2 268.688 154.839 268.426 155.39C268.165 155.931 267.796 156.351 267.32 156.65C266.854 156.949 266.308 157.098 265.682 157.098C265.132 157.098 264.651 156.977 264.24 156.734C263.83 156.491 263.517 156.146 263.302 155.698V160.024H262.168V151.932C262.168 151.204 262.131 150.546 262.056 149.958H263.134L263.246 151.316C263.442 150.831 263.75 150.457 264.17 150.196C264.6 149.925 265.104 149.79 265.682 149.79ZM265.472 156.16C266.163 156.16 266.695 155.927 267.068 155.46C267.451 154.993 267.642 154.331 267.642 153.472C267.642 152.613 267.451 151.946 267.068 151.47C266.686 150.985 266.154 150.742 265.472 150.742C264.772 150.742 264.236 150.975 263.862 151.442C263.489 151.909 263.302 152.576 263.302 153.444C263.302 154.312 263.489 154.984 263.862 155.46C264.236 155.927 264.772 156.16 265.472 156.16ZM276.765 149.958V157H275.645V155.726C275.439 156.165 275.127 156.505 274.707 156.748C274.296 156.981 273.815 157.098 273.265 157.098C272.639 157.098 272.089 156.949 271.613 156.65C271.146 156.351 270.782 155.931 270.521 155.39C270.269 154.839 270.143 154.2 270.143 153.472C270.143 152.744 270.273 152.105 270.535 151.554C270.796 150.994 271.16 150.56 271.627 150.252C272.103 149.944 272.649 149.79 273.265 149.79C273.815 149.79 274.296 149.911 274.707 150.154C275.117 150.397 275.43 150.737 275.645 151.176V149.958H276.765ZM273.489 156.16C274.179 156.16 274.711 155.927 275.085 155.46C275.458 154.984 275.645 154.312 275.645 153.444C275.645 152.576 275.458 151.909 275.085 151.442C274.711 150.975 274.179 150.742 273.489 150.742C272.798 150.742 272.257 150.985 271.865 151.47C271.482 151.946 271.291 152.613 271.291 153.472C271.291 154.331 271.482 154.993 271.865 155.46C272.247 155.927 272.789 156.16 273.489 156.16ZM285.229 149.958V156.944C285.229 157.989 284.959 158.778 284.417 159.31C283.885 159.851 283.097 160.122 282.051 160.122C280.978 160.122 280.054 159.879 279.279 159.394L279.475 158.47C279.923 158.722 280.343 158.904 280.735 159.016C281.137 159.128 281.575 159.184 282.051 159.184C282.733 159.184 283.246 159.002 283.591 158.638C283.937 158.283 284.109 157.751 284.109 157.042V155.376C283.895 155.824 283.577 156.174 283.157 156.426C282.747 156.669 282.257 156.79 281.687 156.79C281.071 156.79 280.521 156.645 280.035 156.356C279.559 156.067 279.191 155.656 278.929 155.124C278.668 154.592 278.537 153.981 278.537 153.29C278.537 152.599 278.668 151.988 278.929 151.456C279.191 150.924 279.559 150.513 280.035 150.224C280.521 149.935 281.071 149.79 281.687 149.79C282.247 149.79 282.733 149.911 283.143 150.154C283.563 150.397 283.881 150.737 284.095 151.176V149.958H285.229ZM281.911 155.838C282.593 155.838 283.125 155.614 283.507 155.166C283.899 154.709 284.095 154.083 284.095 153.29C284.095 152.497 283.899 151.876 283.507 151.428C283.125 150.971 282.593 150.742 281.911 150.742C281.221 150.742 280.675 150.971 280.273 151.428C279.881 151.876 279.685 152.497 279.685 153.29C279.685 154.083 279.881 154.709 280.273 155.166C280.675 155.614 281.221 155.838 281.911 155.838ZM293.3 153.444H288.134C288.144 154.34 288.349 155.017 288.75 155.474C289.161 155.931 289.754 156.16 290.528 156.16C291.35 156.16 292.106 155.885 292.796 155.334L293.174 156.16C292.866 156.449 292.47 156.678 291.984 156.846C291.508 157.014 291.018 157.098 290.514 157.098C289.413 157.098 288.55 156.776 287.924 156.132C287.299 155.479 286.986 154.587 286.986 153.458C286.986 152.739 287.126 152.105 287.406 151.554C287.686 150.994 288.078 150.56 288.582 150.252C289.086 149.944 289.66 149.79 290.304 149.79C291.238 149.79 291.97 150.098 292.502 150.714C293.034 151.321 293.3 152.161 293.3 153.234V153.444ZM290.318 150.672C289.73 150.672 289.25 150.849 288.876 151.204C288.512 151.559 288.279 152.058 288.176 152.702H292.278C292.222 152.039 292.026 151.535 291.69 151.19C291.364 150.845 290.906 150.672 290.318 150.672ZM297.402 157.098C296.216 157.098 295.278 156.795 294.588 156.188L294.966 155.348C295.348 155.647 295.736 155.861 296.128 155.992C296.52 156.123 296.958 156.188 297.444 156.188C297.976 156.188 298.377 156.099 298.648 155.922C298.928 155.735 299.068 155.469 299.068 155.124C299.068 154.844 298.974 154.62 298.788 154.452C298.601 154.284 298.293 154.153 297.864 154.06L296.674 153.78C296.086 153.649 295.628 153.416 295.302 153.08C294.984 152.744 294.826 152.343 294.826 151.876C294.826 151.26 295.073 150.761 295.568 150.378C296.062 149.986 296.716 149.79 297.528 149.79C298.022 149.79 298.489 149.869 298.928 150.028C299.366 150.187 299.735 150.415 300.034 150.714L299.656 151.54C298.993 150.989 298.284 150.714 297.528 150.714C297.024 150.714 296.632 150.812 296.352 151.008C296.081 151.195 295.946 151.461 295.946 151.806C295.946 152.095 296.03 152.324 296.198 152.492C296.375 152.66 296.655 152.791 297.038 152.884L298.228 153.178C298.881 153.327 299.366 153.561 299.684 153.878C300.001 154.186 300.16 154.592 300.16 155.096C300.16 155.703 299.912 156.188 299.418 156.552C298.923 156.916 298.251 157.098 297.402 157.098Z" fill="#5B5151"/>
<circle cx="81" cy="140" r="15" fill="white"/>
<mask id="mask1" mask-type="alpha" maskUnits="userSpaceOnUse" x="66" y="125" width="30" height="30">
<circle cx="81" cy="140" r="15" fill="#F4F4EA"/>
</mask>
<g mask="url(#mask1)">
<path fill-rule="evenodd" clip-rule="evenodd" d="M86.9322 132.298C85.524 136.565 84.165 140.437 82.785 144.704C82.7024 145.067 82.5194 145.399 82.2569 145.662C81.8951 145.926 81.4494 146.048 81.0035 146.007H79.3418L80.2853 148.274H82.8976C83.252 148.296 83.6053 148.216 83.9158 148.044C84.2264 147.872 84.4814 147.614 84.6509 147.302C84.7643 147.09 84.8609 146.868 84.9396 146.641L89.798 132.298H86.9322Z" fill="#635452"/>
<path fill-rule="evenodd" clip-rule="evenodd" d="M77.376 140.043H79.087C79.2676 140.052 79.4378 140.13 79.5623 140.261C79.6868 140.392 79.7562 140.566 79.7559 140.747V140.902C79.7562 141.083 79.6868 141.257 79.5623 141.388C79.4378 141.519 79.2676 141.597 79.087 141.606H77.376C77.1893 141.606 77.0102 141.532 76.8781 141.4C76.7461 141.268 76.6719 141.089 76.6719 140.902V140.747C76.6719 140.56 76.7461 140.381 76.8781 140.249C77.0102 140.117 77.1893 140.043 77.376 140.043Z" fill="#F0AD00"/>
<path fill-rule="evenodd" clip-rule="evenodd" d="M80.8545 140.043H82.643C82.8297 140.043 83.0088 140.117 83.1409 140.249C83.2729 140.381 83.3471 140.56 83.3471 140.747V140.902C83.3471 141.089 83.2729 141.268 83.1409 141.4C83.0088 141.532 82.8297 141.606 82.643 141.606H80.8545C80.6678 141.606 80.4887 141.532 80.3566 141.4C80.2246 141.268 80.1504 141.089 80.1504 140.902V140.747C80.1504 140.56 80.2246 140.381 80.3566 140.249C80.4887 140.117 80.6678 140.043 80.8545 140.043Z" fill="#E1760C"/>
<path fill-rule="evenodd" clip-rule="evenodd" d="M76.7354 138.114H78.5872C78.768 138.113 78.942 138.183 79.0731 138.307C79.2041 138.432 79.2823 138.602 79.2913 138.782V138.944C79.2913 139.131 79.2172 139.31 79.0851 139.442C78.9531 139.574 78.774 139.649 78.5872 139.649H76.7354C76.5486 139.649 76.3695 139.574 76.2375 139.442C76.1054 139.31 76.0312 139.131 76.0312 138.944V138.782C76.0403 138.602 76.1184 138.432 76.2495 138.307C76.3806 138.183 76.5546 138.113 76.7354 138.114Z" fill="#E1760C"/>
<path fill-rule="evenodd" clip-rule="evenodd" d="M80.3682 138.114H83.3114C83.4861 138.122 83.6513 138.195 83.7749 138.319C83.8986 138.443 83.9718 138.608 83.9803 138.782V138.944C83.9806 139.125 83.9112 139.299 83.7867 139.43C83.6622 139.561 83.492 139.639 83.3114 139.649H80.3682C80.1814 139.649 80.0023 139.574 79.8703 139.442C79.7382 139.31 79.6641 139.131 79.6641 138.944V138.782C79.6731 138.602 79.7513 138.432 79.8823 138.307C80.0134 138.183 80.1874 138.113 80.3682 138.114Z" fill="#F0AD00"/>
<path fill-rule="evenodd" clip-rule="evenodd" d="M80.1026 141.986H82.0107C82.1913 141.995 82.3615 142.074 82.486 142.205C82.6105 142.336 82.6799 142.51 82.6797 142.69V142.859C82.6799 143.04 82.6105 143.214 82.486 143.345C82.3615 143.476 82.1913 143.555 82.0107 143.564H80.1026C79.9158 143.564 79.7367 143.489 79.6047 143.357C79.4726 143.225 79.3984 143.046 79.3984 142.859V142.697C79.3984 142.511 79.4726 142.332 79.6047 142.2C79.7367 142.068 79.9158 141.993 80.1026 141.993V141.986Z" fill="#D65359"/>
<path fill-rule="evenodd" clip-rule="evenodd" d="M79.0166 143.923H81.3684C81.5551 143.923 81.7342 143.997 81.8663 144.129C81.9983 144.261 82.0725 144.44 82.0725 144.627V144.789C82.0725 144.976 81.9983 145.155 81.8663 145.287C81.7342 145.419 81.5551 145.493 81.3684 145.493H79.0166C78.8299 145.493 78.6508 145.419 78.5187 145.287C78.3867 145.155 78.3125 144.976 78.3125 144.789V144.627C78.3125 144.44 78.3867 144.261 78.5187 144.129C78.6508 143.997 78.8299 143.923 79.0166 143.923Z" fill="#F0AD00"/>
<path fill-rule="evenodd" clip-rule="evenodd" d="M78.0811 136.17H80.3836C80.5703 136.17 80.7494 136.244 80.8814 136.376C81.0135 136.508 81.0877 136.688 81.0877 136.874V137.036C81.0877 137.223 81.0135 137.402 80.8814 137.534C80.7494 137.666 80.5703 137.74 80.3836 137.74H78.0811C77.8943 137.74 77.7152 137.666 77.5832 137.534C77.4511 137.402 77.377 137.223 77.377 137.036V136.874C77.377 136.688 77.4511 136.508 77.5832 136.376C77.7152 136.244 77.8943 136.17 78.0811 136.17Z" fill="#F0AD00"/>
<path fill-rule="evenodd" clip-rule="evenodd" d="M82.1358 136.17H83.9665C84.1532 136.17 84.3323 136.244 84.4644 136.376C84.5964 136.508 84.6706 136.688 84.6706 136.874V137.036C84.6706 137.223 84.5964 137.402 84.4644 137.534C84.3323 137.666 84.1532 137.74 83.9665 137.74H82.1358C81.949 137.74 81.7699 137.666 81.6379 137.534C81.5058 137.402 81.4316 137.223 81.4316 137.036V136.874C81.4316 136.688 81.5058 136.508 81.6379 136.376C81.7699 136.244 81.949 136.17 82.1358 136.17Z" fill="#E1760C"/>
<path fill-rule="evenodd" clip-rule="evenodd" d="M76.2429 136.17C76.3933 136.17 76.5403 136.215 76.6654 136.298C76.7904 136.382 76.8879 136.501 76.9455 136.64C77.003 136.779 77.0181 136.931 76.9888 137.079C76.9594 137.227 76.887 137.362 76.7806 137.468C76.6743 137.575 76.5388 137.647 76.3913 137.676C76.2437 137.706 76.0909 137.691 75.9519 137.633C75.8129 137.576 75.6942 137.478 75.6106 137.353C75.5271 137.228 75.4825 137.081 75.4825 136.931C75.4815 136.831 75.5005 136.731 75.5384 136.639C75.5763 136.546 75.6323 136.462 75.7031 136.391C75.7739 136.32 75.8581 136.264 75.9508 136.226C76.0435 136.188 76.1428 136.169 76.2429 136.17Z" fill="#D65359"/>
<path fill-rule="evenodd" clip-rule="evenodd" d="M74.8975 134.234H79.4884C79.6751 134.234 79.8542 134.308 79.9863 134.44C80.1183 134.572 80.1925 134.751 80.1925 134.938V135.1C80.1925 135.287 80.1183 135.466 79.9863 135.598C79.8542 135.73 79.6751 135.804 79.4884 135.804H74.8975C74.7107 135.804 74.5316 135.73 74.3996 135.598C74.2675 135.466 74.1934 135.287 74.1934 135.1V134.938C74.1934 134.751 74.2675 134.572 74.3996 134.44C74.5316 134.308 74.7107 134.234 74.8975 134.234Z" fill="#D65359"/>
<path fill-rule="evenodd" clip-rule="evenodd" d="M81.2139 134.234H84.6218C84.8086 134.234 84.9877 134.308 85.1197 134.44C85.2518 134.572 85.326 134.751 85.326 134.938V135.1C85.326 135.287 85.2518 135.466 85.1197 135.598C84.9877 135.73 84.8086 135.804 84.6218 135.804H81.2139C81.0271 135.804 80.848 135.73 80.716 135.598C80.5839 135.466 80.5098 135.287 80.5098 135.1V134.938C80.5098 134.751 80.5839 134.572 80.716 134.44C80.848 134.308 81.0271 134.234 81.2139 134.234Z" fill="#F0AD00"/>
<path fill-rule="evenodd" clip-rule="evenodd" d="M73.6162 132.297H77.1791C77.3658 132.297 77.5449 132.372 77.677 132.504C77.809 132.636 77.8832 132.815 77.8832 133.001V133.156C77.8832 133.343 77.809 133.522 77.677 133.654C77.5449 133.786 77.3658 133.861 77.1791 133.861H73.6162C73.4295 133.861 73.2504 133.786 73.1183 133.654C72.9863 133.522 72.9121 133.343 72.9121 133.156V133.001C72.9121 132.815 72.9863 132.636 73.1183 132.504C73.2504 132.372 73.4295 132.297 73.6162 132.297Z" fill="#E1760C"/>
<path fill-rule="evenodd" clip-rule="evenodd" d="M80.8975 132.297H85.256C85.4428 132.297 85.6218 132.372 85.7539 132.504C85.8859 132.636 85.9601 132.815 85.9601 133.001V133.156C85.9601 133.343 85.8859 133.522 85.7539 133.654C85.6218 133.786 85.4428 133.861 85.256 133.861H80.8975C80.7107 133.861 80.5316 133.786 80.3996 133.654C80.2675 133.522 80.1934 133.343 80.1934 133.156V133.001C80.1934 132.815 80.2675 132.636 80.3996 132.504C80.5316 132.372 80.7107 132.297 80.8975 132.297Z" fill="#D65359"/>
<path fill-rule="evenodd" clip-rule="evenodd" d="M79.0386 132.297C79.1876 132.297 79.3332 132.342 79.4571 132.424C79.581 132.507 79.6776 132.625 79.7346 132.762C79.7917 132.9 79.8066 133.052 79.7775 133.198C79.7484 133.344 79.6767 133.478 79.5713 133.584C79.466 133.689 79.3317 133.761 79.1856 133.79C79.0394 133.819 78.8879 133.804 78.7503 133.747C78.6126 133.69 78.4949 133.593 78.4121 133.469C78.3293 133.345 78.2852 133.2 78.2852 133.051C78.2852 132.851 78.3645 132.659 78.5058 132.518C78.6471 132.377 78.8388 132.297 79.0386 132.297Z" fill="#F0AD00"/>
<path fill-rule="evenodd" clip-rule="evenodd" d="M78.2437 141.986C78.3947 141.985 78.5427 142.028 78.6688 142.111C78.7949 142.194 78.8935 142.313 78.9519 142.452C79.0103 142.592 79.026 142.745 78.9969 142.893C78.9677 143.041 78.8952 143.177 78.7884 143.284C78.6816 143.391 78.5455 143.464 78.3973 143.493C78.2492 143.522 78.0957 143.506 77.9564 143.448C77.8172 143.389 77.6985 143.291 77.6155 143.165C77.5325 143.039 77.4889 142.891 77.4903 142.74C77.4903 142.54 77.5696 142.348 77.7109 142.207C77.8522 142.065 78.0439 141.986 78.2437 141.986Z" fill="#E1760C"/>
</g>
<path d="M169 20.08C168.2 20.08 167.59 19.7733 167.17 19.16C166.757 18.54 166.55 17.6333 166.55 16.44C166.55 15.2467 166.757 14.3433 167.17 13.73C167.583 13.11 168.193 12.8 169 12.8C169.807 12.8 170.417 13.1067 170.83 13.72C171.243 14.3333 171.45 15.2367 171.45 16.43C171.45 17.6233 171.24 18.53 170.82 19.15C170.407 19.77 169.8 20.08 169 20.08ZM169 19.53C169.613 19.53 170.067 19.28 170.36 18.78C170.66 18.2733 170.81 17.49 170.81 16.43C170.81 15.37 170.663 14.5933 170.37 14.1C170.077 13.6 169.62 13.35 169 13.35C168.387 13.35 167.93 13.6 167.63 14.1C167.337 14.6 167.19 15.3767 167.19 16.43C167.19 17.4833 167.337 18.2633 167.63 18.77C167.93 19.2767 168.387 19.53 169 19.53ZM176.006 16.35C176.479 16.47 176.846 16.6867 177.106 17C177.366 17.3133 177.496 17.69 177.496 18.13C177.496 18.73 177.273 19.2033 176.826 19.55C176.379 19.8967 175.769 20.07 174.996 20.07C174.223 20.07 173.613 19.8967 173.166 19.55C172.719 19.2033 172.496 18.73 172.496 18.13C172.496 17.6967 172.629 17.3233 172.896 17.01C173.163 16.69 173.526 16.47 173.986 16.35C173.559 16.2233 173.229 16.0133 172.996 15.72C172.769 15.4267 172.656 15.08 172.656 14.68C172.656 14.3067 172.753 13.9767 172.946 13.69C173.139 13.4033 173.413 13.1833 173.766 13.03C174.126 12.8767 174.536 12.8 174.996 12.8C175.456 12.8 175.863 12.8767 176.216 13.03C176.576 13.1833 176.853 13.4033 177.046 13.69C177.239 13.9767 177.336 14.3067 177.336 14.68C177.336 15.08 177.219 15.4267 176.986 15.72C176.759 16.0133 176.433 16.2233 176.006 16.35ZM173.286 14.71C173.286 15.1167 173.439 15.4467 173.746 15.7C174.053 15.9533 174.469 16.1067 174.996 16.16C175.523 16.1067 175.939 15.9533 176.246 15.7C176.553 15.4467 176.706 15.1167 176.706 14.71C176.706 14.2833 176.556 13.95 176.256 13.71C175.956 13.4633 175.536 13.34 174.996 13.34C174.456 13.34 174.036 13.4633 173.736 13.71C173.436 13.95 173.286 14.2833 173.286 14.71ZM174.996 19.53C175.603 19.53 176.066 19.41 176.386 19.17C176.706 18.9233 176.866 18.5667 176.866 18.1C176.866 17.6733 176.693 17.3333 176.346 17.08C176.006 16.8267 175.556 16.6733 174.996 16.62C174.436 16.6733 173.983 16.8267 173.636 17.08C173.296 17.3333 173.126 17.6733 173.126 18.1C173.126 18.5667 173.286 18.9233 173.606 19.17C173.926 19.41 174.389 19.53 174.996 19.53ZM179.532 15.1V15.96L178.682 15.96V15.1L179.532 15.1ZM179.532 19.13V20H178.682V19.13H179.532ZM185.329 19.46V20L181.559 20V19.46H183.139L183.139 13.7L181.669 14.65V14.02L183.409 12.88L183.759 12.88L183.759 19.46L185.329 19.46ZM191.575 19.46V20L187.085 20V19.54L189.615 16.71C189.975 16.2967 190.235 15.9333 190.395 15.62C190.555 15.3 190.635 14.9833 190.635 14.67C190.635 14.2433 190.512 13.9167 190.265 13.69C190.025 13.4567 189.678 13.34 189.225 13.34C188.525 13.34 187.842 13.6267 187.175 14.2L186.915 13.71C187.195 13.4367 187.545 13.2167 187.965 13.05C188.385 12.8833 188.805 12.8 189.225 12.8C189.858 12.8 190.355 12.9667 190.715 13.3C191.082 13.6267 191.265 14.0733 191.265 14.64C191.265 15.0467 191.168 15.4433 190.975 15.83C190.788 16.2167 190.482 16.6467 190.055 17.12L187.915 19.46L191.575 19.46Z" fill="#5B5151"/>
<rect y="201" width="359" height="40" rx="10" fill="white"/>
<rect x="0.5" y="201.5" width="358" height="39" rx="9.5" stroke="#5B5151" stroke-opacity="0.1"/>
<rect x="319" y="201" width="40" height="40" rx="10" fill="#E37D38"/>
<path fill-rule="evenodd" clip-rule="evenodd" d="M345.003 229.657C343.225 228.774 344.092 226.48 345.313 224.914C346.37 223.558 347 221.853 347 220C347 215.582 343.418 212 339 212C334.582 212 331 215.582 331 220C331 224.418 334.582 228 339 228C339.185 228 339.359 228.084 339.478 228.226C340.79 229.78 342.979 230.433 345.001 229.698C345.02 229.691 345.021 229.666 345.003 229.657Z" fill="white" fill-opacity="0.55"/>
<path d="M19.64 217.012H16.168V216.032H24.274V217.012H20.802V226H19.64V217.012ZM30.6902 218.958L27.4002 226.644C27.0548 227.447 26.6208 228.035 26.0982 228.408C25.5755 228.781 24.9315 229.038 24.1662 229.178L23.9282 228.296C24.5908 228.147 25.0902 227.946 25.4262 227.694C25.7715 227.451 26.0562 227.073 26.2802 226.56L26.5602 225.93L23.5782 218.958H24.7682L27.1482 224.768L29.5562 218.958H30.6902ZM35.4537 218.79C36.0697 218.79 36.6157 218.944 37.0917 219.252C37.5677 219.56 37.9363 219.994 38.1977 220.554C38.459 221.105 38.5897 221.744 38.5897 222.472C38.5897 223.2 38.459 223.839 38.1977 224.39C37.9363 224.931 37.5677 225.351 37.0917 225.65C36.625 225.949 36.079 226.098 35.4537 226.098C34.903 226.098 34.4223 225.977 34.0117 225.734C33.601 225.491 33.2883 225.146 33.0737 224.698V229.024H31.9397V220.932C31.9397 220.204 31.9023 219.546 31.8277 218.958H32.9057L33.0177 220.316C33.2137 219.831 33.5217 219.457 33.9417 219.196C34.371 218.925 34.875 218.79 35.4537 218.79ZM35.2437 225.16C35.9343 225.16 36.4663 224.927 36.8397 224.46C37.2223 223.993 37.4137 223.331 37.4137 222.472C37.4137 221.613 37.2223 220.946 36.8397 220.47C36.457 219.985 35.925 219.742 35.2437 219.742C34.5437 219.742 34.007 219.975 33.6337 220.442C33.2603 220.909 33.0737 221.576 33.0737 222.444C33.0737 223.312 33.2603 223.984 33.6337 224.46C34.007 224.927 34.5437 225.16 35.2437 225.16ZM40.3342 218.958H41.4682V226H40.3342V218.958ZM41.6082 215.976V217.264H40.2222V215.976H41.6082ZM47.1841 218.79C48.8735 218.79 49.7181 219.719 49.7181 221.576V226H48.5841V221.632C48.5841 220.979 48.4535 220.503 48.1921 220.204C47.9308 219.896 47.5201 219.742 46.9601 219.742C46.3068 219.742 45.7841 219.943 45.3921 220.344C45.0001 220.745 44.8041 221.287 44.8041 221.968V226H43.6701V220.932C43.6701 220.204 43.6328 219.546 43.5581 218.958H44.6361L44.7481 220.218C44.9628 219.761 45.2848 219.411 45.7141 219.168C46.1435 218.916 46.6335 218.79 47.1841 218.79ZM58.1316 218.958V225.944C58.1316 226.989 57.8609 227.778 57.3196 228.31C56.7876 228.851 55.9989 229.122 54.9536 229.122C53.8802 229.122 52.9562 228.879 52.1816 228.394L52.3776 227.47C52.8256 227.722 53.2456 227.904 53.6376 228.016C54.0389 228.128 54.4776 228.184 54.9536 228.184C55.6349 228.184 56.1482 228.002 56.4936 227.638C56.8389 227.283 57.0116 226.751 57.0116 226.042V224.376C56.7969 224.824 56.4796 225.174 56.0596 225.426C55.6489 225.669 55.1589 225.79 54.5896 225.79C53.9736 225.79 53.4229 225.645 52.9376 225.356C52.4616 225.067 52.0929 224.656 51.8316 224.124C51.5702 223.592 51.4396 222.981 51.4396 222.29C51.4396 221.599 51.5702 220.988 51.8316 220.456C52.0929 219.924 52.4616 219.513 52.9376 219.224C53.4229 218.935 53.9736 218.79 54.5896 218.79C55.1496 218.79 55.6349 218.911 56.0456 219.154C56.4656 219.397 56.7829 219.737 56.9976 220.176V218.958H58.1316ZM54.8136 224.838C55.4949 224.838 56.0269 224.614 56.4096 224.166C56.8016 223.709 56.9976 223.083 56.9976 222.29C56.9976 221.497 56.8016 220.876 56.4096 220.428C56.0269 219.971 55.4949 219.742 54.8136 219.742C54.1229 219.742 53.5769 219.971 53.1756 220.428C52.7836 220.876 52.5876 221.497 52.5876 222.29C52.5876 223.083 52.7836 223.709 53.1756 224.166C53.5769 224.614 54.1229 224.838 54.8136 224.838ZM61.5548 224.558V226H60.1128V224.558H61.5548ZM64.795 224.558V226H63.353V224.558H64.795ZM68.0353 224.558V226H66.5933V224.558H68.0353Z" fill="#5B5151"/>
</svg>
