<svg width="359" height="180" viewBox="0 0 359 180" fill="none" xmlns="http://www.w3.org/2000/svg">
<rect width="359" height="180" rx="12" fill="white"/>
<rect x="0.5" y="0.5" width="358" height="179" rx="11.5" stroke="#5B5151" stroke-opacity="0.1"/>
<path d="M16 36C16 24.9543 24.9543 16 36 16H283C294.046 16 303 24.9543 303 36V50C303 61.0457 294.046 70 283 70H16V36Z" fill="#FEFFCB"/>
<path d="M68.8824 38.032H70.0304V48H68.8824V38.032ZM79.5162 40.79C81.2055 40.79 82.0502 41.7187 82.0502 43.576V48H80.9162V43.632C80.9162 42.9787 80.7855 42.5027 80.5242 42.204C80.2628 41.896 79.8522 41.742 79.2922 41.742C78.6388 41.742 78.1162 41.9427 77.7242 42.344C77.3322 42.7453 77.1362 43.2867 77.1362 43.968V48H76.0022V42.932C76.0022 42.204 75.9648 41.546 75.8902 40.958H76.9682L77.0802 42.218C77.2948 41.7607 77.6168 41.4107 78.0462 41.168C78.4755 40.916 78.9655 40.79 79.5162 40.79ZM90.0856 44.444H84.9196C84.9289 45.34 85.1343 46.0167 85.5356 46.474C85.9463 46.9313 86.5389 47.16 87.3136 47.16C88.1349 47.16 88.8909 46.8847 89.5816 46.334L89.9596 47.16C89.6516 47.4493 89.2549 47.678 88.7696 47.846C88.2936 48.014 87.8036 48.098 87.2996 48.098C86.1983 48.098 85.3349 47.776 84.7096 47.132C84.0843 46.4787 83.7716 45.5873 83.7716 44.458C83.7716 43.7393 83.9116 43.1047 84.1916 42.554C84.4716 41.994 84.8636 41.56 85.3676 41.252C85.8716 40.944 86.4456 40.79 87.0896 40.79C88.0229 40.79 88.7556 41.098 89.2876 41.714C89.8196 42.3207 90.0856 43.1607 90.0856 44.234V44.444ZM87.1036 41.672C86.5156 41.672 86.0349 41.8493 85.6616 42.204C85.2976 42.5587 85.0643 43.058 84.9616 43.702H89.0636C89.0076 43.0393 88.8116 42.5353 88.4756 42.19C88.1489 41.8447 87.6916 41.672 87.1036 41.672ZM97.7008 44.444H92.5348C92.5442 45.34 92.7495 46.0167 93.1508 46.474C93.5615 46.9313 94.1542 47.16 94.9288 47.16C95.7502 47.16 96.5062 46.8847 97.1968 46.334L97.5748 47.16C97.2668 47.4493 96.8702 47.678 96.3848 47.846C95.9088 48.014 95.4188 48.098 94.9148 48.098C93.8135 48.098 92.9502 47.776 92.3248 47.132C91.6995 46.4787 91.3868 45.5873 91.3868 44.458C91.3868 43.7393 91.5268 43.1047 91.8068 42.554C92.0868 41.994 92.4788 41.56 92.9828 41.252C93.4868 40.944 94.0608 40.79 94.7048 40.79C95.6382 40.79 96.3708 41.098 96.9028 41.714C97.4348 42.3207 97.7008 43.1607 97.7008 44.234V44.444ZM94.7188 41.672C94.1308 41.672 93.6502 41.8493 93.2768 42.204C92.9128 42.5587 92.6795 43.058 92.5768 43.702H96.6788C96.6228 43.0393 96.4268 42.5353 96.0908 42.19C95.7642 41.8447 95.3068 41.672 94.7188 41.672ZM105.624 37.696V48H104.504V46.726C104.299 47.1647 103.986 47.5053 103.566 47.748C103.155 47.9813 102.675 48.098 102.124 48.098C101.508 48.098 100.962 47.944 100.486 47.636C100.019 47.328 99.6554 46.8987 99.3941 46.348C99.1327 45.788 99.0021 45.144 99.0021 44.416C99.0021 43.688 99.1281 43.0533 99.3801 42.512C99.6414 41.9613 100.01 41.5367 100.486 41.238C100.962 40.9393 101.508 40.79 102.124 40.79C102.675 40.79 103.155 40.9113 103.566 41.154C103.977 41.3873 104.285 41.7187 104.49 42.148V37.696H105.624ZM102.348 47.16C103.039 47.16 103.571 46.9267 103.944 46.46C104.317 45.984 104.504 45.312 104.504 44.444C104.504 43.5853 104.317 42.9227 103.944 42.456C103.571 41.98 103.039 41.742 102.348 41.742C101.657 41.742 101.116 41.9753 100.724 42.442C100.341 42.9087 100.15 43.5667 100.15 44.416C100.15 45.284 100.341 45.9607 100.724 46.446C101.116 46.922 101.657 47.16 102.348 47.16ZM112.979 41.854V45.704C112.979 46.2267 113.086 46.5953 113.301 46.81C113.516 47.0153 113.819 47.118 114.211 47.118C114.472 47.118 114.724 47.076 114.967 46.992V47.958C114.678 48.0513 114.351 48.098 113.987 48.098C113.315 48.098 112.788 47.9113 112.405 47.538C112.032 47.1553 111.845 46.5953 111.845 45.858V41.854H110.473V40.958H111.845V39.152L112.979 38.746V40.958H114.995V41.854H112.979ZM119.274 48.098C118.611 48.098 118.028 47.9487 117.524 47.65C117.02 47.3513 116.628 46.9267 116.348 46.376C116.077 45.8253 115.942 45.1813 115.942 44.444C115.942 43.7067 116.077 43.0627 116.348 42.512C116.628 41.9613 117.02 41.5367 117.524 41.238C118.028 40.9393 118.611 40.79 119.274 40.79C119.936 40.79 120.52 40.9393 121.024 41.238C121.528 41.5367 121.915 41.9613 122.186 42.512C122.466 43.0627 122.606 43.7067 122.606 44.444C122.606 45.1813 122.466 45.8253 122.186 46.376C121.915 46.9267 121.528 47.3513 121.024 47.65C120.52 47.9487 119.936 48.098 119.274 48.098ZM119.274 47.16C119.974 47.16 120.51 46.9313 120.884 46.474C121.257 46.0073 121.444 45.3307 121.444 44.444C121.444 43.5853 121.252 42.9227 120.87 42.456C120.487 41.98 119.955 41.742 119.274 41.742C118.583 41.742 118.046 41.98 117.664 42.456C117.281 42.9227 117.09 43.5853 117.09 44.444C117.09 45.3307 117.276 46.0073 117.65 46.474C118.032 46.9313 118.574 47.16 119.274 47.16ZM128.024 40.958H129.158V48H128.024V40.958ZM129.298 37.976V39.264H127.912V37.976H129.298ZM134.874 40.79C136.563 40.79 137.408 41.7187 137.408 43.576V48H136.274V43.632C136.274 42.9787 136.143 42.5027 135.882 42.204C135.62 41.896 135.21 41.742 134.65 41.742C133.996 41.742 133.474 41.9427 133.082 42.344C132.69 42.7453 132.494 43.2867 132.494 43.968V48H131.36V42.932C131.36 42.204 131.322 41.546 131.248 40.958H132.326L132.438 42.218C132.652 41.7607 132.974 41.4107 133.404 41.168C133.833 40.916 134.323 40.79 134.874 40.79ZM142.503 48.098C141.822 48.098 141.224 47.9487 140.711 47.65C140.207 47.3513 139.815 46.9313 139.535 46.39C139.264 45.8393 139.129 45.2 139.129 44.472C139.129 43.744 139.269 43.1047 139.549 42.554C139.829 41.994 140.226 41.56 140.739 41.252C141.262 40.944 141.868 40.79 142.559 40.79C143.035 40.79 143.492 40.874 143.931 41.042C144.379 41.2007 144.748 41.4247 145.037 41.714L144.659 42.554C144.304 42.274 143.959 42.0687 143.623 41.938C143.296 41.8073 142.96 41.742 142.615 41.742C141.896 41.742 141.332 41.9847 140.921 42.47C140.51 42.946 140.305 43.6133 140.305 44.472C140.305 45.3213 140.506 45.984 140.907 46.46C141.318 46.9267 141.887 47.16 142.615 47.16C142.96 47.16 143.296 47.0947 143.623 46.964C143.959 46.8333 144.304 46.628 144.659 46.348L145.037 47.188C144.738 47.468 144.36 47.692 143.903 47.86C143.455 48.0187 142.988 48.098 142.503 48.098ZM149.757 40.79C149.99 40.79 150.205 40.818 150.401 40.874L150.373 41.91C150.158 41.8353 149.911 41.798 149.631 41.798C148.949 41.798 148.441 42.0127 148.105 42.442C147.778 42.862 147.615 43.3753 147.615 43.982V48H146.481V42.932C146.481 42.204 146.443 41.546 146.369 40.958H147.447L147.559 42.26C147.736 41.784 148.021 41.42 148.413 41.168C148.805 40.916 149.253 40.79 149.757 40.79ZM157.31 44.444H152.144C152.154 45.34 152.359 46.0167 152.76 46.474C153.171 46.9313 153.764 47.16 154.538 47.16C155.36 47.16 156.116 46.8847 156.806 46.334L157.184 47.16C156.876 47.4493 156.48 47.678 155.994 47.846C155.518 48.014 155.028 48.098 154.524 48.098C153.423 48.098 152.56 47.776 151.934 47.132C151.309 46.4787 150.996 45.5873 150.996 44.458C150.996 43.7393 151.136 43.1047 151.416 42.554C151.696 41.994 152.088 41.56 152.592 41.252C153.096 40.944 153.67 40.79 154.314 40.79C155.248 40.79 155.98 41.098 156.512 41.714C157.044 42.3207 157.31 43.1607 157.31 44.234V44.444ZM154.328 41.672C153.74 41.672 153.26 41.8493 152.886 42.204C152.522 42.5587 152.289 43.058 152.186 43.702H156.288C156.232 43.0393 156.036 42.5353 155.7 42.19C155.374 41.8447 154.916 41.672 154.328 41.672ZM165.233 40.958V48H164.113V46.726C163.908 47.1647 163.595 47.5053 163.175 47.748C162.765 47.9813 162.284 48.098 161.733 48.098C161.108 48.098 160.557 47.9487 160.081 47.65C159.615 47.3513 159.251 46.9313 158.989 46.39C158.737 45.8393 158.611 45.2 158.611 44.472C158.611 43.744 158.742 43.1047 159.003 42.554C159.265 41.994 159.629 41.56 160.095 41.252C160.571 40.944 161.117 40.79 161.733 40.79C162.284 40.79 162.765 40.9113 163.175 41.154C163.586 41.3967 163.899 41.7373 164.113 42.176V40.958H165.233ZM161.957 47.16C162.648 47.16 163.18 46.9267 163.553 46.46C163.927 45.984 164.113 45.312 164.113 44.444C164.113 43.576 163.927 42.9087 163.553 42.442C163.18 41.9753 162.648 41.742 161.957 41.742C161.267 41.742 160.725 41.9847 160.333 42.47C159.951 42.946 159.759 43.6133 159.759 44.472C159.759 45.3307 159.951 45.9933 160.333 46.46C160.716 46.9267 161.257 47.16 161.957 47.16ZM169.806 48.098C168.621 48.098 167.683 47.7947 166.992 47.188L167.37 46.348C167.753 46.6467 168.14 46.8613 168.532 46.992C168.924 47.1227 169.363 47.188 169.848 47.188C170.38 47.188 170.781 47.0993 171.052 46.922C171.332 46.7353 171.472 46.4693 171.472 46.124C171.472 45.844 171.379 45.62 171.192 45.452C171.005 45.284 170.697 45.1533 170.268 45.06L169.078 44.78C168.49 44.6493 168.033 44.416 167.706 44.08C167.389 43.744 167.23 43.3427 167.23 42.876C167.23 42.26 167.477 41.7607 167.972 41.378C168.467 40.986 169.12 40.79 169.932 40.79C170.427 40.79 170.893 40.8693 171.332 41.028C171.771 41.1867 172.139 41.4153 172.438 41.714L172.06 42.54C171.397 41.9893 170.688 41.714 169.932 41.714C169.428 41.714 169.036 41.812 168.756 42.008C168.485 42.1947 168.35 42.4607 168.35 42.806C168.35 43.0953 168.434 43.324 168.602 43.492C168.779 43.66 169.059 43.7907 169.442 43.884L170.632 44.178C171.285 44.3273 171.771 44.5607 172.088 44.878C172.405 45.186 172.564 45.592 172.564 46.096C172.564 46.7027 172.317 47.188 171.822 47.552C171.327 47.916 170.655 48.098 169.806 48.098ZM180.265 44.444H175.099C175.109 45.34 175.314 46.0167 175.715 46.474C176.126 46.9313 176.719 47.16 177.493 47.16C178.315 47.16 179.071 46.8847 179.761 46.334L180.139 47.16C179.831 47.4493 179.435 47.678 178.949 47.846C178.473 48.014 177.983 48.098 177.479 48.098C176.378 48.098 175.515 47.776 174.889 47.132C174.264 46.4787 173.951 45.5873 173.951 44.458C173.951 43.7393 174.091 43.1047 174.371 42.554C174.651 41.994 175.043 41.56 175.547 41.252C176.051 40.944 176.625 40.79 177.269 40.79C178.203 40.79 178.935 41.098 179.467 41.714C179.999 42.3207 180.265 43.1607 180.265 44.234V44.444ZM177.283 41.672C176.695 41.672 176.215 41.8493 175.841 42.204C175.477 42.5587 175.244 43.058 175.141 43.702H179.243C179.187 43.0393 178.991 42.5353 178.655 42.19C178.329 41.8447 177.871 41.672 177.283 41.672ZM193.449 40.79C195.008 40.79 195.787 41.7187 195.787 43.576V48H194.653V43.632C194.653 42.9693 194.536 42.4887 194.303 42.19C194.079 41.8913 193.71 41.742 193.197 41.742C192.6 41.742 192.133 41.9427 191.797 42.344C191.461 42.7453 191.293 43.2913 191.293 43.982V48H190.159V43.632C190.159 42.9787 190.042 42.5027 189.809 42.204C189.576 41.896 189.202 41.742 188.689 41.742C188.092 41.742 187.62 41.9427 187.275 42.344C186.939 42.7453 186.771 43.2913 186.771 43.982V48H185.637V42.932C185.637 42.204 185.6 41.546 185.525 40.958H186.603L186.715 42.19C186.911 41.742 187.2 41.3967 187.583 41.154C187.975 40.9113 188.428 40.79 188.941 40.79C189.501 40.79 189.958 40.902 190.313 41.126C190.668 41.35 190.929 41.6953 191.097 42.162C191.312 41.742 191.624 41.4107 192.035 41.168C192.455 40.916 192.926 40.79 193.449 40.79ZM204.13 40.958L200.84 48.644C200.494 49.4467 200.06 50.0347 199.538 50.408C199.015 50.7813 198.371 51.038 197.606 51.178L197.368 50.296C198.03 50.1467 198.53 49.946 198.866 49.694C199.211 49.4513 199.496 49.0733 199.72 48.56L200 47.93L197.018 40.958H198.208L200.588 46.768L202.996 40.958H204.13ZM216.996 48H215.778L214.546 44.682C214.396 44.2713 214.186 43.996 213.916 43.856C213.654 43.716 213.281 43.646 212.796 43.646H210.304V48H209.17V38.032H213.132C214.205 38.032 215.026 38.27 215.596 38.746C216.174 39.222 216.464 39.908 216.464 40.804C216.464 41.4573 216.291 42.008 215.946 42.456C215.61 42.8947 215.12 43.2073 214.476 43.394C214.765 43.4407 215.012 43.5667 215.218 43.772C215.423 43.968 215.596 44.2527 215.736 44.626L216.996 48ZM213.034 42.694C214.564 42.694 215.329 42.0687 215.329 40.818C215.329 40.202 215.143 39.7447 214.77 39.446C214.396 39.138 213.818 38.984 213.034 38.984H210.304V42.694H213.034ZM222.98 48.112C222.056 48.112 221.254 47.9067 220.572 47.496C219.891 47.0853 219.364 46.4973 218.99 45.732C218.626 44.9573 218.444 44.052 218.444 43.016C218.444 41.9707 218.626 41.0653 218.99 40.3C219.354 39.5347 219.877 38.9467 220.558 38.536C221.24 38.1253 222.047 37.92 222.98 37.92C223.914 37.92 224.721 38.1253 225.402 38.536C226.084 38.9467 226.606 39.5347 226.97 40.3C227.334 41.0653 227.516 41.966 227.516 43.002C227.516 44.0473 227.33 44.9527 226.956 45.718C226.592 46.4833 226.07 47.076 225.388 47.496C224.707 47.9067 223.904 48.112 222.98 48.112ZM222.98 47.132C224.035 47.132 224.856 46.7727 225.444 46.054C226.032 45.3353 226.326 44.318 226.326 43.002C226.326 41.686 226.032 40.6733 225.444 39.964C224.866 39.2547 224.044 38.9 222.98 38.9C221.916 38.9 221.09 39.2593 220.502 39.978C219.914 40.6873 219.62 41.6953 219.62 43.002C219.62 44.318 219.914 45.3353 220.502 46.054C221.09 46.7727 221.916 47.132 222.98 47.132ZM235.928 45.438H230.72L229.614 48H228.424L232.806 38.032H233.814L238.196 48H237.02L235.928 45.438ZM235.522 44.486L233.324 39.362L231.126 44.486H235.522ZM242.767 48.112C241.208 48.112 239.967 47.692 239.043 46.852L239.477 45.97C239.972 46.39 240.476 46.6887 240.989 46.866C241.502 47.0433 242.1 47.132 242.781 47.132C243.584 47.132 244.2 46.978 244.629 46.67C245.068 46.3527 245.287 45.9093 245.287 45.34C245.287 45.004 245.18 44.7333 244.965 44.528C244.76 44.3133 244.484 44.1453 244.139 44.024C243.803 43.9027 243.35 43.7767 242.781 43.646C242.016 43.478 241.386 43.296 240.891 43.1C240.396 42.904 239.995 42.624 239.687 42.26C239.379 41.8867 239.225 41.4013 239.225 40.804C239.225 40.2347 239.374 39.7353 239.673 39.306C239.972 38.8673 240.392 38.5267 240.933 38.284C241.484 38.0413 242.123 37.92 242.851 37.92C243.542 37.92 244.186 38.0273 244.783 38.242C245.38 38.4567 245.884 38.7693 246.295 39.18L245.847 40.062C245.38 39.6607 244.904 39.3667 244.419 39.18C243.943 38.9933 243.42 38.9 242.851 38.9C242.076 38.9 241.47 39.068 241.031 39.404C240.592 39.7307 240.373 40.1833 240.373 40.762C240.373 41.266 240.564 41.644 240.947 41.896C241.33 42.148 241.918 42.3673 242.711 42.554C243.57 42.7593 244.242 42.9507 244.727 43.128C245.222 43.296 245.632 43.5573 245.959 43.912C246.286 44.2573 246.449 44.7193 246.449 45.298C246.449 45.858 246.3 46.3527 246.001 46.782C245.702 47.202 245.273 47.5287 244.713 47.762C244.162 47.9953 243.514 48.112 242.767 48.112Z" fill="#5B5151"/>
<circle cx="41" cy="43" r="15" fill="white"/>
<mask id="mask0" mask-type="alpha" maskUnits="userSpaceOnUse" x="26" y="28" width="30" height="30">
<circle cx="41" cy="43" r="15" fill="white"/>
</mask>
<g mask="url(#mask0)">
<path d="M46.3763 40.5393C46.3763 42.0615 45.8304 43.3792 44.7535 44.4562C43.6766 45.5331 42.3587 46.079 40.8365 46.079H40.8338C39.3135 46.0785 37.9966 45.5326 36.9197 44.4562C35.8426 43.3792 35.2969 42.0615 35.2969 40.5393C35.2969 39.0175 35.8426 37.6997 36.9197 36.6228C37.996 35.5463 39.313 35.0005 40.8338 35H40.8365C42.3582 35 43.676 35.5459 44.7535 36.6228C45.8304 37.6997 46.3763 39.0175 46.3763 40.5393Z" fill="#FFD589"/>
<path d="M50.5759 54.0444C50.5759 55.2454 50.1939 56.2177 49.4415 56.9338C48.6978 57.6415 47.7142 58 46.5184 58H35.4437C34.2479 58 33.2643 57.6415 32.5212 56.9338C31.7682 56.2172 31.3867 55.245 31.3867 54.0444C31.3867 53.5826 31.402 53.1256 31.4325 52.6862C31.4636 52.237 31.5264 51.7482 31.619 51.2324C31.7124 50.7125 31.8324 50.221 31.9761 49.7718C32.1253 49.3068 32.3271 48.8481 32.5768 48.4087C32.8362 47.9526 33.1408 47.5553 33.4823 47.2282C33.8402 46.8859 34.2779 46.6109 34.7838 46.4105C35.2879 46.2112 35.8468 46.1101 36.4448 46.1101C36.6794 46.1101 36.9067 46.2061 37.3447 46.4914C37.6188 46.6702 37.9346 46.8738 38.2833 47.0966C38.5844 47.2886 38.9922 47.4686 39.4963 47.6313C39.9394 47.7747 40.3892 47.8547 40.8335 47.8686C40.8824 47.8703 40.9314 47.8712 40.9803 47.8712C41.4738 47.8712 41.9728 47.7903 42.4649 47.6313C42.969 47.4686 43.3774 47.2886 43.6783 47.0966C44.0306 46.8715 44.3465 46.6681 44.6166 46.4919C45.0549 46.2061 45.2818 46.1101 45.5169 46.1101C46.1144 46.1101 46.6733 46.2112 47.1778 46.4105C47.6837 46.6109 48.1213 46.8864 48.479 47.2282C48.821 47.5553 49.1256 47.9526 49.3848 48.4087C49.6347 48.8484 49.8368 49.3068 49.9854 49.7712C50.1293 50.221 50.2497 50.7125 50.3431 51.2328C50.4352 51.749 50.4982 52.2379 50.5291 52.6859C50.5601 53.1239 50.5754 53.5808 50.5759 54.0444Z" fill="#D55A5F"/>
</g>
<path d="M49 106C49 94.9543 57.9543 86 69 86H322C333.046 86 342 94.9543 342 106V164H69C57.9543 164 49 155.046 49 144V106Z" fill="#FCFCFC"/>
<path d="M112.114 106.806V111.426C111.722 111.631 111.209 111.799 110.574 111.93C109.939 112.051 109.295 112.112 108.642 112.112C107.653 112.112 106.799 111.911 106.08 111.51C105.361 111.099 104.811 110.511 104.428 109.746C104.055 108.981 103.868 108.066 103.868 107.002C103.868 105.947 104.055 105.042 104.428 104.286C104.811 103.521 105.352 102.937 106.052 102.536C106.761 102.125 107.597 101.92 108.558 101.92C109.258 101.92 109.897 102.027 110.476 102.242C111.064 102.447 111.568 102.76 111.988 103.18L111.54 104.062C111.055 103.651 110.579 103.357 110.112 103.18C109.655 102.993 109.137 102.9 108.558 102.9C107.429 102.9 106.561 103.255 105.954 103.964C105.357 104.664 105.058 105.677 105.058 107.002C105.058 108.355 105.366 109.387 105.982 110.096C106.598 110.796 107.494 111.146 108.67 111.146C109.501 111.146 110.299 111.015 111.064 110.754V107.716H108.586V106.806H112.114ZM120.226 108.444H115.06C115.07 109.34 115.275 110.017 115.676 110.474C116.087 110.931 116.68 111.16 117.454 111.16C118.276 111.16 119.032 110.885 119.722 110.334L120.1 111.16C119.792 111.449 119.396 111.678 118.91 111.846C118.434 112.014 117.944 112.098 117.44 112.098C116.339 112.098 115.476 111.776 114.85 111.132C114.225 110.479 113.912 109.587 113.912 108.458C113.912 107.739 114.052 107.105 114.332 106.554C114.612 105.994 115.004 105.56 115.508 105.252C116.012 104.944 116.586 104.79 117.23 104.79C118.164 104.79 118.896 105.098 119.428 105.714C119.96 106.321 120.226 107.161 120.226 108.234V108.444ZM117.244 105.672C116.656 105.672 116.176 105.849 115.802 106.204C115.438 106.559 115.205 107.058 115.102 107.702H119.204C119.148 107.039 118.952 106.535 118.616 106.19C118.29 105.845 117.832 105.672 117.244 105.672ZM123.418 105.854V109.704C123.418 110.227 123.526 110.595 123.74 110.81C123.955 111.015 124.258 111.118 124.65 111.118C124.912 111.118 125.164 111.076 125.406 110.992V111.958C125.117 112.051 124.79 112.098 124.426 112.098C123.754 112.098 123.227 111.911 122.844 111.538C122.471 111.155 122.284 110.595 122.284 109.858V105.854H120.912V104.958H122.284V103.152L123.418 102.746V104.958H125.434V105.854H123.418ZM133.965 104.79C134.581 104.79 135.127 104.939 135.603 105.238C136.079 105.537 136.448 105.961 136.709 106.512C136.971 107.053 137.101 107.688 137.101 108.416C137.101 109.144 136.971 109.788 136.709 110.348C136.448 110.899 136.079 111.328 135.603 111.636C135.127 111.944 134.581 112.098 133.965 112.098C133.415 112.098 132.934 111.977 132.523 111.734C132.113 111.491 131.8 111.146 131.585 110.698V112H130.451V101.696H131.585V106.204C131.791 105.747 132.099 105.397 132.509 105.154C132.929 104.911 133.415 104.79 133.965 104.79ZM133.755 111.16C134.437 111.16 134.969 110.922 135.351 110.446C135.734 109.961 135.925 109.284 135.925 108.416C135.925 107.567 135.734 106.909 135.351 106.442C134.978 105.975 134.446 105.742 133.755 105.742C133.055 105.742 132.519 105.975 132.145 106.442C131.772 106.909 131.585 107.576 131.585 108.444C131.585 109.312 131.772 109.984 132.145 110.46C132.519 110.927 133.055 111.16 133.755 111.16ZM144.74 108.444H139.574C139.583 109.34 139.789 110.017 140.19 110.474C140.601 110.931 141.193 111.16 141.968 111.16C142.789 111.16 143.545 110.885 144.236 110.334L144.614 111.16C144.306 111.449 143.909 111.678 143.424 111.846C142.948 112.014 142.458 112.098 141.954 112.098C140.853 112.098 139.989 111.776 139.364 111.132C138.739 110.479 138.426 109.587 138.426 108.458C138.426 107.739 138.566 107.105 138.846 106.554C139.126 105.994 139.518 105.56 140.022 105.252C140.526 104.944 141.1 104.79 141.744 104.79C142.677 104.79 143.41 105.098 143.942 105.714C144.474 106.321 144.74 107.161 144.74 108.234V108.444ZM141.758 105.672C141.17 105.672 140.689 105.849 140.316 106.204C139.952 106.559 139.719 107.058 139.616 107.702H143.718C143.662 107.039 143.466 106.535 143.13 106.19C142.803 105.845 142.346 105.672 141.758 105.672ZM147.932 105.854V109.704C147.932 110.227 148.039 110.595 148.254 110.81C148.469 111.015 148.772 111.118 149.164 111.118C149.425 111.118 149.677 111.076 149.92 110.992V111.958C149.631 112.051 149.304 112.098 148.94 112.098C148.268 112.098 147.741 111.911 147.358 111.538C146.985 111.155 146.798 110.595 146.798 109.858V105.854H145.426V104.958H146.798V103.152L147.932 102.746V104.958H149.948V105.854H147.932ZM152.868 105.854V109.704C152.868 110.227 152.975 110.595 153.19 110.81C153.404 111.015 153.708 111.118 154.1 111.118C154.361 111.118 154.613 111.076 154.856 110.992V111.958C154.566 112.051 154.24 112.098 153.876 112.098C153.204 112.098 152.676 111.911 152.294 111.538C151.92 111.155 151.734 110.595 151.734 109.858V105.854H150.362V104.958H151.734V103.152L152.868 102.746V104.958H154.884V105.854H152.868ZM162.144 108.444H156.978C156.988 109.34 157.193 110.017 157.594 110.474C158.005 110.931 158.598 111.16 159.372 111.16C160.194 111.16 160.95 110.885 161.64 110.334L162.018 111.16C161.71 111.449 161.314 111.678 160.828 111.846C160.352 112.014 159.862 112.098 159.358 112.098C158.257 112.098 157.394 111.776 156.768 111.132C156.143 110.479 155.83 109.587 155.83 108.458C155.83 107.739 155.97 107.105 156.25 106.554C156.53 105.994 156.922 105.56 157.426 105.252C157.93 104.944 158.504 104.79 159.148 104.79C160.082 104.79 160.814 105.098 161.346 105.714C161.878 106.321 162.144 107.161 162.144 108.234V108.444ZM159.162 105.672C158.574 105.672 158.094 105.849 157.72 106.204C157.356 106.559 157.123 107.058 157.02 107.702H161.122C161.066 107.039 160.87 106.535 160.534 106.19C160.208 105.845 159.75 105.672 159.162 105.672ZM167.141 104.79C167.375 104.79 167.589 104.818 167.785 104.874L167.757 105.91C167.543 105.835 167.295 105.798 167.015 105.798C166.334 105.798 165.825 106.013 165.489 106.442C165.163 106.862 164.999 107.375 164.999 107.982V112H163.865V106.932C163.865 106.204 163.828 105.546 163.753 104.958H164.831L164.943 106.26C165.121 105.784 165.405 105.42 165.797 105.168C166.189 104.916 166.637 104.79 167.141 104.79ZM175.542 112.098C174.861 112.098 174.263 111.949 173.75 111.65C173.246 111.351 172.854 110.931 172.574 110.39C172.303 109.839 172.168 109.2 172.168 108.472C172.168 107.744 172.308 107.105 172.588 106.554C172.868 105.994 173.265 105.56 173.778 105.252C174.301 104.944 174.907 104.79 175.598 104.79C176.074 104.79 176.531 104.874 176.97 105.042C177.418 105.201 177.787 105.425 178.076 105.714L177.698 106.554C177.343 106.274 176.998 106.069 176.662 105.938C176.335 105.807 175.999 105.742 175.654 105.742C174.935 105.742 174.371 105.985 173.96 106.47C173.549 106.946 173.344 107.613 173.344 108.472C173.344 109.321 173.545 109.984 173.946 110.46C174.357 110.927 174.926 111.16 175.654 111.16C175.999 111.16 176.335 111.095 176.662 110.964C176.998 110.833 177.343 110.628 177.698 110.348L178.076 111.188C177.777 111.468 177.399 111.692 176.942 111.86C176.494 112.019 176.027 112.098 175.542 112.098ZM182.432 112.098C181.769 112.098 181.186 111.949 180.682 111.65C180.178 111.351 179.786 110.927 179.506 110.376C179.235 109.825 179.1 109.181 179.1 108.444C179.1 107.707 179.235 107.063 179.506 106.512C179.786 105.961 180.178 105.537 180.682 105.238C181.186 104.939 181.769 104.79 182.432 104.79C183.094 104.79 183.678 104.939 184.182 105.238C184.686 105.537 185.073 105.961 185.344 106.512C185.624 107.063 185.764 107.707 185.764 108.444C185.764 109.181 185.624 109.825 185.344 110.376C185.073 110.927 184.686 111.351 184.182 111.65C183.678 111.949 183.094 112.098 182.432 112.098ZM182.432 111.16C183.132 111.16 183.668 110.931 184.042 110.474C184.415 110.007 184.602 109.331 184.602 108.444C184.602 107.585 184.41 106.923 184.028 106.456C183.645 105.98 183.113 105.742 182.432 105.742C181.741 105.742 181.204 105.98 180.822 106.456C180.439 106.923 180.248 107.585 180.248 108.444C180.248 109.331 180.434 110.007 180.808 110.474C181.19 110.931 181.732 111.16 182.432 111.16ZM191.045 104.79C192.735 104.79 193.579 105.719 193.579 107.576V112H192.445V107.632C192.445 106.979 192.315 106.503 192.053 106.204C191.792 105.896 191.381 105.742 190.821 105.742C190.168 105.742 189.645 105.943 189.253 106.344C188.861 106.745 188.665 107.287 188.665 107.968V112H187.531V106.932C187.531 106.204 187.494 105.546 187.419 104.958H188.497L188.609 106.218C188.824 105.761 189.146 105.411 189.575 105.168C190.005 104.916 190.495 104.79 191.045 104.79ZM201.909 104.972L198.871 112H197.793L194.797 104.972H195.987L198.367 110.768L200.775 104.972H201.909ZM208.97 108.444H203.804C203.814 109.34 204.019 110.017 204.42 110.474C204.831 110.931 205.424 111.16 206.198 111.16C207.02 111.16 207.776 110.885 208.466 110.334L208.844 111.16C208.536 111.449 208.14 111.678 207.654 111.846C207.178 112.014 206.688 112.098 206.184 112.098C205.083 112.098 204.22 111.776 203.594 111.132C202.969 110.479 202.656 109.587 202.656 108.458C202.656 107.739 202.796 107.105 203.076 106.554C203.356 105.994 203.748 105.56 204.252 105.252C204.756 104.944 205.33 104.79 205.974 104.79C206.908 104.79 207.64 105.098 208.172 105.714C208.704 106.321 208.97 107.161 208.97 108.234V108.444ZM205.988 105.672C205.4 105.672 204.92 105.849 204.546 106.204C204.182 106.559 203.949 107.058 203.846 107.702H207.948C207.892 107.039 207.696 106.535 207.36 106.19C207.034 105.845 206.576 105.672 205.988 105.672ZM213.968 104.79C214.201 104.79 214.416 104.818 214.612 104.874L214.584 105.91C214.369 105.835 214.122 105.798 213.842 105.798C213.16 105.798 212.652 106.013 212.316 106.442C211.989 106.862 211.826 107.375 211.826 107.982V112H210.692V106.932C210.692 106.204 210.654 105.546 210.58 104.958H211.658L211.77 106.26C211.947 105.784 212.232 105.42 212.624 105.168C213.016 104.916 213.464 104.79 213.968 104.79ZM218.076 112.098C216.89 112.098 215.952 111.795 215.262 111.188L215.64 110.348C216.022 110.647 216.41 110.861 216.802 110.992C217.194 111.123 217.632 111.188 218.118 111.188C218.65 111.188 219.051 111.099 219.322 110.922C219.602 110.735 219.742 110.469 219.742 110.124C219.742 109.844 219.648 109.62 219.462 109.452C219.275 109.284 218.967 109.153 218.538 109.06L217.348 108.78C216.76 108.649 216.302 108.416 215.976 108.08C215.658 107.744 215.5 107.343 215.5 106.876C215.5 106.26 215.747 105.761 216.242 105.378C216.736 104.986 217.39 104.79 218.202 104.79C218.696 104.79 219.163 104.869 219.602 105.028C220.04 105.187 220.409 105.415 220.708 105.714L220.33 106.54C219.667 105.989 218.958 105.714 218.202 105.714C217.698 105.714 217.306 105.812 217.026 106.008C216.755 106.195 216.62 106.461 216.62 106.806C216.62 107.095 216.704 107.324 216.872 107.492C217.049 107.66 217.329 107.791 217.712 107.884L218.902 108.178C219.555 108.327 220.04 108.561 220.358 108.878C220.675 109.186 220.834 109.592 220.834 110.096C220.834 110.703 220.586 111.188 220.092 111.552C219.597 111.916 218.925 112.098 218.076 112.098ZM222.641 104.958H223.775V112H222.641V104.958ZM223.915 101.976V103.264H222.529V101.976H223.915ZM228.889 112.098C228.226 112.098 227.643 111.949 227.139 111.65C226.635 111.351 226.243 110.927 225.963 110.376C225.692 109.825 225.557 109.181 225.557 108.444C225.557 107.707 225.692 107.063 225.963 106.512C226.243 105.961 226.635 105.537 227.139 105.238C227.643 104.939 228.226 104.79 228.889 104.79C229.551 104.79 230.135 104.939 230.639 105.238C231.143 105.537 231.53 105.961 231.801 106.512C232.081 107.063 232.221 107.707 232.221 108.444C232.221 109.181 232.081 109.825 231.801 110.376C231.53 110.927 231.143 111.351 230.639 111.65C230.135 111.949 229.551 112.098 228.889 112.098ZM228.889 111.16C229.589 111.16 230.125 110.931 230.499 110.474C230.872 110.007 231.059 109.331 231.059 108.444C231.059 107.585 230.867 106.923 230.485 106.456C230.102 105.98 229.57 105.742 228.889 105.742C228.198 105.742 227.661 105.98 227.279 106.456C226.896 106.923 226.705 107.585 226.705 108.444C226.705 109.331 226.891 110.007 227.265 110.474C227.647 110.931 228.189 111.16 228.889 111.16ZM237.502 104.79C239.192 104.79 240.036 105.719 240.036 107.576V112H238.902V107.632C238.902 106.979 238.772 106.503 238.51 106.204C238.249 105.896 237.838 105.742 237.278 105.742C236.625 105.742 236.102 105.943 235.71 106.344C235.318 106.745 235.122 107.287 235.122 107.968V112H233.988V106.932C233.988 106.204 233.951 105.546 233.876 104.958H234.954L235.066 106.218C235.281 105.761 235.603 105.411 236.032 105.168C236.462 104.916 236.952 104.79 237.502 104.79ZM249.104 104.79C249.338 104.79 249.552 104.818 249.748 104.874L249.72 105.91C249.506 105.835 249.258 105.798 248.978 105.798C248.297 105.798 247.788 106.013 247.452 106.442C247.126 106.862 246.962 107.375 246.962 107.982V112H245.828V106.932C245.828 106.204 245.791 105.546 245.716 104.958H246.794L246.906 106.26C247.084 105.784 247.368 105.42 247.76 105.168C248.152 104.916 248.6 104.79 249.104 104.79ZM256.966 104.958V112H255.846V110.726C255.641 111.165 255.328 111.505 254.908 111.748C254.497 111.981 254.017 112.098 253.466 112.098C252.841 112.098 252.29 111.949 251.814 111.65C251.347 111.351 250.983 110.931 250.722 110.39C250.47 109.839 250.344 109.2 250.344 108.472C250.344 107.744 250.475 107.105 250.736 106.554C250.997 105.994 251.361 105.56 251.828 105.252C252.304 104.944 252.85 104.79 253.466 104.79C254.017 104.79 254.497 104.911 254.908 105.154C255.319 105.397 255.631 105.737 255.846 106.176V104.958H256.966ZM253.69 111.16C254.381 111.16 254.913 110.927 255.286 110.46C255.659 109.984 255.846 109.312 255.846 108.444C255.846 107.576 255.659 106.909 255.286 106.442C254.913 105.975 254.381 105.742 253.69 105.742C252.999 105.742 252.458 105.985 252.066 106.47C251.683 106.946 251.492 107.613 251.492 108.472C251.492 109.331 251.683 109.993 252.066 110.46C252.449 110.927 252.99 111.16 253.69 111.16ZM260.67 105.854V109.704C260.67 110.227 260.778 110.595 260.992 110.81C261.207 111.015 261.51 111.118 261.902 111.118C262.164 111.118 262.416 111.076 262.658 110.992V111.958C262.369 112.051 262.042 112.098 261.678 112.098C261.006 112.098 260.479 111.911 260.096 111.538C259.723 111.155 259.536 110.595 259.536 109.858V105.854H258.164V104.958H259.536V103.152L260.67 102.746V104.958H262.686V105.854H260.67ZM269.947 108.444H264.781C264.79 109.34 264.996 110.017 265.397 110.474C265.808 110.931 266.4 111.16 267.175 111.16C267.996 111.16 268.752 110.885 269.443 110.334L269.821 111.16C269.513 111.449 269.116 111.678 268.631 111.846C268.155 112.014 267.665 112.098 267.161 112.098C266.06 112.098 265.196 111.776 264.571 111.132C263.946 110.479 263.633 109.587 263.633 108.458C263.633 107.739 263.773 107.105 264.053 106.554C264.333 105.994 264.725 105.56 265.229 105.252C265.733 104.944 266.307 104.79 266.951 104.79C267.884 104.79 268.617 105.098 269.149 105.714C269.681 106.321 269.947 107.161 269.947 108.234V108.444ZM266.965 105.672C266.377 105.672 265.896 105.849 265.523 106.204C265.159 106.559 264.926 107.058 264.823 107.702H268.925C268.869 107.039 268.673 106.535 268.337 106.19C268.01 105.845 267.553 105.672 266.965 105.672ZM274.048 112.098C272.863 112.098 271.925 111.795 271.234 111.188L271.612 110.348C271.995 110.647 272.382 110.861 272.774 110.992C273.166 111.123 273.605 111.188 274.09 111.188C274.622 111.188 275.024 111.099 275.294 110.922C275.574 110.735 275.714 110.469 275.714 110.124C275.714 109.844 275.621 109.62 275.434 109.452C275.248 109.284 274.94 109.153 274.51 109.06L273.32 108.78C272.732 108.649 272.275 108.416 271.948 108.08C271.631 107.744 271.472 107.343 271.472 106.876C271.472 106.26 271.72 105.761 272.214 105.378C272.709 104.986 273.362 104.79 274.174 104.79C274.669 104.79 275.136 104.869 275.574 105.028C276.013 105.187 276.382 105.415 276.68 105.714L276.302 106.54C275.64 105.989 274.93 105.714 274.174 105.714C273.67 105.714 273.278 105.812 272.998 106.008C272.728 106.195 272.592 106.461 272.592 106.806C272.592 107.095 272.676 107.324 272.844 107.492C273.022 107.66 273.302 107.791 273.684 107.884L274.874 108.178C275.528 108.327 276.013 108.561 276.33 108.878C276.648 109.186 276.806 109.592 276.806 110.096C276.806 110.703 276.559 111.188 276.064 111.552C275.57 111.916 274.898 112.098 274.048 112.098ZM292.96 104.958L290.356 112H289.264L287.248 106.498L285.246 112H284.154L281.55 104.958H282.74L284.728 110.642L286.786 104.958H287.78L289.81 110.656L291.84 104.958H292.96ZM294.432 104.958H295.566V112H294.432V104.958ZM295.706 101.976V103.264H294.32V101.976H295.706ZM299.28 105.854V109.704C299.28 110.227 299.387 110.595 299.602 110.81C299.816 111.015 300.12 111.118 300.512 111.118C300.773 111.118 301.025 111.076 301.268 110.992V111.958C300.978 112.051 300.652 112.098 300.288 112.098C299.616 112.098 299.088 111.911 298.706 111.538C298.332 111.155 298.146 110.595 298.146 109.858V105.854H296.774V104.958H298.146V103.152L299.28 102.746V104.958H301.296V105.854H299.28ZM306.176 104.79C307.866 104.79 308.71 105.719 308.71 107.576V112H307.576V107.632C307.576 106.979 307.446 106.503 307.184 106.204C306.923 105.896 306.512 105.742 305.952 105.742C305.299 105.742 304.776 105.943 304.384 106.344C303.992 106.745 303.796 107.287 303.796 107.968V112H302.662V101.696H303.796V106.106C304.02 105.677 304.338 105.35 304.748 105.126C305.168 104.902 305.644 104.79 306.176 104.79ZM107.046 130.098C106.365 130.098 105.767 129.949 105.254 129.65C104.75 129.351 104.358 128.931 104.078 128.39C103.807 127.839 103.672 127.2 103.672 126.472C103.672 125.744 103.812 125.105 104.092 124.554C104.372 123.994 104.769 123.56 105.282 123.252C105.805 122.944 106.411 122.79 107.102 122.79C107.578 122.79 108.035 122.874 108.474 123.042C108.922 123.201 109.291 123.425 109.58 123.714L109.202 124.554C108.847 124.274 108.502 124.069 108.166 123.938C107.839 123.807 107.503 123.742 107.158 123.742C106.439 123.742 105.875 123.985 105.464 124.47C105.053 124.946 104.848 125.613 104.848 126.472C104.848 127.321 105.049 127.984 105.45 128.46C105.861 128.927 106.43 129.16 107.158 129.16C107.503 129.16 107.839 129.095 108.166 128.964C108.502 128.833 108.847 128.628 109.202 128.348L109.58 129.188C109.281 129.468 108.903 129.692 108.446 129.86C107.998 130.019 107.531 130.098 107.046 130.098ZM116.918 122.958V130H115.812V128.782C115.588 129.211 115.275 129.538 114.874 129.762C114.472 129.986 114.02 130.098 113.516 130.098C112.685 130.098 112.055 129.865 111.626 129.398C111.196 128.931 110.982 128.241 110.982 127.326V122.958H112.116V127.298C112.116 127.933 112.246 128.399 112.508 128.698C112.769 128.997 113.166 129.146 113.698 129.146C114.323 129.146 114.827 128.945 115.21 128.544C115.592 128.133 115.784 127.597 115.784 126.934V122.958H116.918ZM121.484 130.098C120.298 130.098 119.36 129.795 118.67 129.188L119.048 128.348C119.43 128.647 119.818 128.861 120.21 128.992C120.602 129.123 121.04 129.188 121.526 129.188C122.058 129.188 122.459 129.099 122.73 128.922C123.01 128.735 123.15 128.469 123.15 128.124C123.15 127.844 123.056 127.62 122.87 127.452C122.683 127.284 122.375 127.153 121.946 127.06L120.756 126.78C120.168 126.649 119.71 126.416 119.384 126.08C119.066 125.744 118.908 125.343 118.908 124.876C118.908 124.26 119.155 123.761 119.65 123.378C120.144 122.986 120.798 122.79 121.61 122.79C122.104 122.79 122.571 122.869 123.01 123.028C123.448 123.187 123.817 123.415 124.116 123.714L123.738 124.54C123.075 123.989 122.366 123.714 121.61 123.714C121.106 123.714 120.714 123.812 120.434 124.008C120.163 124.195 120.028 124.461 120.028 124.806C120.028 125.095 120.112 125.324 120.28 125.492C120.457 125.66 120.737 125.791 121.12 125.884L122.31 126.178C122.963 126.327 123.448 126.561 123.766 126.878C124.083 127.186 124.242 127.592 124.242 128.096C124.242 128.703 123.994 129.188 123.5 129.552C123.005 129.916 122.333 130.098 121.484 130.098ZM127.493 123.854V127.704C127.493 128.227 127.6 128.595 127.815 128.81C128.029 129.015 128.333 129.118 128.725 129.118C128.986 129.118 129.238 129.076 129.481 128.992V129.958C129.191 130.051 128.865 130.098 128.501 130.098C127.829 130.098 127.301 129.911 126.919 129.538C126.545 129.155 126.359 128.595 126.359 127.858V123.854H124.987V122.958H126.359V121.152L127.493 120.746V122.958H129.509V123.854H127.493ZM133.787 130.098C133.125 130.098 132.541 129.949 132.037 129.65C131.533 129.351 131.141 128.927 130.861 128.376C130.591 127.825 130.455 127.181 130.455 126.444C130.455 125.707 130.591 125.063 130.861 124.512C131.141 123.961 131.533 123.537 132.037 123.238C132.541 122.939 133.125 122.79 133.787 122.79C134.45 122.79 135.033 122.939 135.537 123.238C136.041 123.537 136.429 123.961 136.699 124.512C136.979 125.063 137.119 125.707 137.119 126.444C137.119 127.181 136.979 127.825 136.699 128.376C136.429 128.927 136.041 129.351 135.537 129.65C135.033 129.949 134.45 130.098 133.787 130.098ZM133.787 129.16C134.487 129.16 135.024 128.931 135.397 128.474C135.771 128.007 135.957 127.331 135.957 126.444C135.957 125.585 135.766 124.923 135.383 124.456C135.001 123.98 134.469 123.742 133.787 123.742C133.097 123.742 132.56 123.98 132.177 124.456C131.795 124.923 131.603 125.585 131.603 126.444C131.603 127.331 131.79 128.007 132.163 128.474C132.546 128.931 133.087 129.16 133.787 129.16ZM146.699 122.79C148.258 122.79 149.037 123.719 149.037 125.576V130H147.903V125.632C147.903 124.969 147.786 124.489 147.553 124.19C147.329 123.891 146.96 123.742 146.447 123.742C145.85 123.742 145.383 123.943 145.047 124.344C144.711 124.745 144.543 125.291 144.543 125.982V130H143.409V125.632C143.409 124.979 143.292 124.503 143.059 124.204C142.826 123.896 142.452 123.742 141.939 123.742C141.342 123.742 140.87 123.943 140.525 124.344C140.189 124.745 140.021 125.291 140.021 125.982V130H138.887V124.932C138.887 124.204 138.85 123.546 138.775 122.958H139.853L139.965 124.19C140.161 123.742 140.45 123.397 140.833 123.154C141.225 122.911 141.678 122.79 142.191 122.79C142.751 122.79 143.208 122.902 143.563 123.126C143.918 123.35 144.179 123.695 144.347 124.162C144.562 123.742 144.874 123.411 145.285 123.168C145.705 122.916 146.176 122.79 146.699 122.79ZM157.086 126.444H151.92C151.929 127.34 152.134 128.017 152.536 128.474C152.946 128.931 153.539 129.16 154.314 129.16C155.135 129.16 155.891 128.885 156.582 128.334L156.96 129.16C156.652 129.449 156.255 129.678 155.77 129.846C155.294 130.014 154.804 130.098 154.3 130.098C153.198 130.098 152.335 129.776 151.71 129.132C151.084 128.479 150.772 127.587 150.772 126.458C150.772 125.739 150.912 125.105 151.192 124.554C151.472 123.994 151.864 123.56 152.368 123.252C152.872 122.944 153.446 122.79 154.09 122.79C155.023 122.79 155.756 123.098 156.288 123.714C156.82 124.321 157.086 125.161 157.086 126.234V126.444ZM154.104 123.672C153.516 123.672 153.035 123.849 152.662 124.204C152.298 124.559 152.064 125.058 151.962 125.702H156.064C156.008 125.039 155.812 124.535 155.476 124.19C155.149 123.845 154.692 123.672 154.104 123.672ZM162.083 122.79C162.316 122.79 162.531 122.818 162.727 122.874L162.699 123.91C162.484 123.835 162.237 123.798 161.957 123.798C161.276 123.798 160.767 124.013 160.431 124.442C160.104 124.862 159.941 125.375 159.941 125.982V130H158.807V124.932C158.807 124.204 158.77 123.546 158.695 122.958H159.773L159.885 124.26C160.062 123.784 160.347 123.42 160.739 123.168C161.131 122.916 161.579 122.79 162.083 122.79ZM166.191 130.098C165.005 130.098 164.067 129.795 163.377 129.188L163.755 128.348C164.137 128.647 164.525 128.861 164.917 128.992C165.309 129.123 165.747 129.188 166.233 129.188C166.765 129.188 167.166 129.099 167.437 128.922C167.717 128.735 167.857 128.469 167.857 128.124C167.857 127.844 167.763 127.62 167.577 127.452C167.39 127.284 167.082 127.153 166.653 127.06L165.463 126.78C164.875 126.649 164.417 126.416 164.091 126.08C163.773 125.744 163.615 125.343 163.615 124.876C163.615 124.26 163.862 123.761 164.357 123.378C164.851 122.986 165.505 122.79 166.317 122.79C166.811 122.79 167.278 122.869 167.717 123.028C168.155 123.187 168.524 123.415 168.823 123.714L168.445 124.54C167.782 123.989 167.073 123.714 166.317 123.714C165.813 123.714 165.421 123.812 165.141 124.008C164.87 124.195 164.735 124.461 164.735 124.806C164.735 125.095 164.819 125.324 164.987 125.492C165.164 125.66 165.444 125.791 165.827 125.884L167.017 126.178C167.67 126.327 168.155 126.561 168.473 126.878C168.79 127.186 168.949 127.592 168.949 128.096C168.949 128.703 168.701 129.188 168.207 129.552C167.712 129.916 167.04 130.098 166.191 130.098ZM185.102 122.958L182.498 130H181.406L179.39 124.498L177.388 130H176.296L173.692 122.958H174.882L176.87 128.642L178.928 122.958H179.922L181.952 128.656L183.982 122.958H185.102ZM186.574 122.958H187.708V130H186.574V122.958ZM187.848 119.976V121.264H186.462V119.976H187.848ZM191.422 123.854V127.704C191.422 128.227 191.53 128.595 191.744 128.81C191.959 129.015 192.262 129.118 192.654 129.118C192.916 129.118 193.168 129.076 193.41 128.992V129.958C193.121 130.051 192.794 130.098 192.43 130.098C191.758 130.098 191.231 129.911 190.848 129.538C190.475 129.155 190.288 128.595 190.288 127.858V123.854H188.916V122.958H190.288V121.152L191.422 120.746V122.958H193.438V123.854H191.422ZM198.319 122.79C200.008 122.79 200.853 123.719 200.853 125.576V130H199.719V125.632C199.719 124.979 199.588 124.503 199.327 124.204C199.066 123.896 198.655 123.742 198.095 123.742C197.442 123.742 196.919 123.943 196.527 124.344C196.135 124.745 195.939 125.287 195.939 125.968V130H194.805V119.696H195.939V124.106C196.163 123.677 196.48 123.35 196.891 123.126C197.311 122.902 197.787 122.79 198.319 122.79ZM208.157 123.854V127.704C208.157 128.227 208.264 128.595 208.479 128.81C208.693 129.015 208.997 129.118 209.389 129.118C209.65 129.118 209.902 129.076 210.145 128.992V129.958C209.855 130.051 209.529 130.098 209.165 130.098C208.493 130.098 207.965 129.911 207.583 129.538C207.209 129.155 207.023 128.595 207.023 127.858V123.854H205.651V122.958H207.023V121.152L208.157 120.746V122.958H210.173V123.854H208.157ZM215.053 122.79C216.743 122.79 217.587 123.719 217.587 125.576V130H216.453V125.632C216.453 124.979 216.323 124.503 216.061 124.204C215.8 123.896 215.389 123.742 214.829 123.742C214.176 123.742 213.653 123.943 213.261 124.344C212.869 124.745 212.673 125.287 212.673 125.968V130H211.539V119.696H212.673V124.106C212.897 123.677 213.215 123.35 213.625 123.126C214.045 122.902 214.521 122.79 215.053 122.79ZM225.623 126.444H220.457C220.466 127.34 220.671 128.017 221.073 128.474C221.483 128.931 222.076 129.16 222.851 129.16C223.672 129.16 224.428 128.885 225.119 128.334L225.497 129.16C225.189 129.449 224.792 129.678 224.307 129.846C223.831 130.014 223.341 130.098 222.837 130.098C221.735 130.098 220.872 129.776 220.247 129.132C219.621 128.479 219.309 127.587 219.309 126.458C219.309 125.739 219.449 125.105 219.729 124.554C220.009 123.994 220.401 123.56 220.905 123.252C221.409 122.944 221.983 122.79 222.627 122.79C223.56 122.79 224.293 123.098 224.825 123.714C225.357 124.321 225.623 125.161 225.623 126.234V126.444ZM222.641 123.672C222.053 123.672 221.572 123.849 221.199 124.204C220.835 124.559 220.601 125.058 220.499 125.702H224.601C224.545 125.039 224.349 124.535 224.013 124.19C223.686 123.845 223.229 123.672 222.641 123.672ZM227.344 122.958H228.478V130H227.344V122.958ZM228.618 119.976V121.264H227.232V119.976H228.618ZM233.956 122.79C234.189 122.79 234.404 122.818 234.6 122.874L234.572 123.91C234.357 123.835 234.11 123.798 233.83 123.798C233.149 123.798 232.64 124.013 232.304 124.442C231.977 124.862 231.814 125.375 231.814 125.982V130H230.68V124.932C230.68 124.204 230.643 123.546 230.568 122.958H231.646L231.758 124.26C231.935 123.784 232.22 123.42 232.612 123.168C233.004 122.916 233.452 122.79 233.956 122.79ZM242.917 122.79C243.533 122.79 244.079 122.944 244.555 123.252C245.031 123.56 245.399 123.994 245.661 124.554C245.922 125.105 246.053 125.744 246.053 126.472C246.053 127.2 245.922 127.839 245.661 128.39C245.399 128.931 245.031 129.351 244.555 129.65C244.088 129.949 243.542 130.098 242.917 130.098C242.366 130.098 241.885 129.977 241.475 129.734C241.064 129.491 240.751 129.146 240.537 128.698V133.024H239.403V124.932C239.403 124.204 239.365 123.546 239.291 122.958H240.369L240.481 124.316C240.677 123.831 240.985 123.457 241.405 123.196C241.834 122.925 242.338 122.79 242.917 122.79ZM242.707 129.16C243.397 129.16 243.929 128.927 244.303 128.46C244.685 127.993 244.877 127.331 244.877 126.472C244.877 125.613 244.685 124.946 244.303 124.47C243.92 123.985 243.388 123.742 242.707 123.742C242.007 123.742 241.47 123.975 241.097 124.442C240.723 124.909 240.537 125.576 240.537 126.444C240.537 127.312 240.723 127.984 241.097 128.46C241.47 128.927 242.007 129.16 242.707 129.16ZM253.999 122.958V130H252.879V128.726C252.674 129.165 252.361 129.505 251.941 129.748C251.53 129.981 251.05 130.098 250.499 130.098C249.874 130.098 249.323 129.949 248.847 129.65C248.38 129.351 248.016 128.931 247.755 128.39C247.503 127.839 247.377 127.2 247.377 126.472C247.377 125.744 247.508 125.105 247.769 124.554C248.03 123.994 248.394 123.56 248.861 123.252C249.337 122.944 249.883 122.79 250.499 122.79C251.05 122.79 251.53 122.911 251.941 123.154C252.352 123.397 252.664 123.737 252.879 124.176V122.958H253.999ZM250.723 129.16C251.414 129.16 251.946 128.927 252.319 128.46C252.692 127.984 252.879 127.312 252.879 126.444C252.879 125.576 252.692 124.909 252.319 124.442C251.946 123.975 251.414 123.742 250.723 123.742C250.032 123.742 249.491 123.985 249.099 124.47C248.716 124.946 248.525 125.613 248.525 126.472C248.525 127.331 248.716 127.993 249.099 128.46C249.482 128.927 250.023 129.16 250.723 129.16ZM262.464 122.958V129.944C262.464 130.989 262.193 131.778 261.652 132.31C261.12 132.851 260.331 133.122 259.286 133.122C258.212 133.122 257.288 132.879 256.514 132.394L256.71 131.47C257.158 131.722 257.578 131.904 257.97 132.016C258.371 132.128 258.81 132.184 259.286 132.184C259.967 132.184 260.48 132.002 260.826 131.638C261.171 131.283 261.344 130.751 261.344 130.042V128.376C261.129 128.824 260.812 129.174 260.392 129.426C259.981 129.669 259.491 129.79 258.922 129.79C258.306 129.79 257.755 129.645 257.27 129.356C256.794 129.067 256.425 128.656 256.164 128.124C255.902 127.592 255.772 126.981 255.772 126.29C255.772 125.599 255.902 124.988 256.164 124.456C256.425 123.924 256.794 123.513 257.27 123.224C257.755 122.935 258.306 122.79 258.922 122.79C259.482 122.79 259.967 122.911 260.378 123.154C260.798 123.397 261.115 123.737 261.33 124.176V122.958H262.464ZM259.146 128.838C259.827 128.838 260.359 128.614 260.742 128.166C261.134 127.709 261.33 127.083 261.33 126.29C261.33 125.497 261.134 124.876 260.742 124.428C260.359 123.971 259.827 123.742 259.146 123.742C258.455 123.742 257.909 123.971 257.508 124.428C257.116 124.876 256.92 125.497 256.92 126.29C256.92 127.083 257.116 127.709 257.508 128.166C257.909 128.614 258.455 128.838 259.146 128.838ZM270.535 126.444H265.369C265.378 127.34 265.583 128.017 265.985 128.474C266.395 128.931 266.988 129.16 267.763 129.16C268.584 129.16 269.34 128.885 270.031 128.334L270.409 129.16C270.101 129.449 269.704 129.678 269.219 129.846C268.743 130.014 268.253 130.098 267.749 130.098C266.647 130.098 265.784 129.776 265.159 129.132C264.533 128.479 264.221 127.587 264.221 126.458C264.221 125.739 264.361 125.105 264.641 124.554C264.921 123.994 265.313 123.56 265.817 123.252C266.321 122.944 266.895 122.79 267.539 122.79C268.472 122.79 269.205 123.098 269.737 123.714C270.269 124.321 270.535 125.161 270.535 126.234V126.444ZM267.553 123.672C266.965 123.672 266.484 123.849 266.111 124.204C265.747 124.559 265.513 125.058 265.411 125.702H269.513C269.457 125.039 269.261 124.535 268.925 124.19C268.598 123.845 268.141 123.672 267.553 123.672ZM105.604 141.854V145.704C105.604 146.227 105.711 146.595 105.926 146.81C106.141 147.015 106.444 147.118 106.836 147.118C107.097 147.118 107.349 147.076 107.592 146.992V147.958C107.303 148.051 106.976 148.098 106.612 148.098C105.94 148.098 105.413 147.911 105.03 147.538C104.657 147.155 104.47 146.595 104.47 145.858V141.854H103.098V140.958H104.47V139.152L105.604 138.746V140.958H107.62V141.854H105.604ZM114.881 144.444H109.715C109.724 145.34 109.929 146.017 110.331 146.474C110.741 146.931 111.334 147.16 112.109 147.16C112.93 147.16 113.686 146.885 114.377 146.334L114.755 147.16C114.447 147.449 114.05 147.678 113.565 147.846C113.089 148.014 112.599 148.098 112.095 148.098C110.993 148.098 110.13 147.776 109.505 147.132C108.879 146.479 108.567 145.587 108.567 144.458C108.567 143.739 108.707 143.105 108.987 142.554C109.267 141.994 109.659 141.56 110.163 141.252C110.667 140.944 111.241 140.79 111.885 140.79C112.818 140.79 113.551 141.098 114.083 141.714C114.615 142.321 114.881 143.161 114.881 144.234V144.444ZM111.899 141.672C111.311 141.672 110.83 141.849 110.457 142.204C110.093 142.559 109.859 143.058 109.757 143.702H113.859C113.803 143.039 113.607 142.535 113.271 142.19C112.944 141.845 112.487 141.672 111.899 141.672ZM124.414 140.79C125.972 140.79 126.752 141.719 126.752 143.576V148H125.618V143.632C125.618 142.969 125.501 142.489 125.268 142.19C125.044 141.891 124.675 141.742 124.162 141.742C123.564 141.742 123.098 141.943 122.762 142.344C122.426 142.745 122.258 143.291 122.258 143.982V148H121.124V143.632C121.124 142.979 121.007 142.503 120.774 142.204C120.54 141.896 120.167 141.742 119.654 141.742C119.056 141.742 118.585 141.943 118.24 142.344C117.904 142.745 117.736 143.291 117.736 143.982V148H116.602V142.932C116.602 142.204 116.564 141.546 116.49 140.958H117.568L117.68 142.19C117.876 141.742 118.165 141.397 118.548 141.154C118.94 140.911 119.392 140.79 119.906 140.79C120.466 140.79 120.923 140.902 121.278 141.126C121.632 141.35 121.894 141.695 122.062 142.162C122.276 141.742 122.589 141.411 123 141.168C123.42 140.916 123.891 140.79 124.414 140.79ZM132.42 140.79C133.036 140.79 133.582 140.944 134.058 141.252C134.534 141.56 134.903 141.994 135.164 142.554C135.426 143.105 135.556 143.744 135.556 144.472C135.556 145.2 135.426 145.839 135.164 146.39C134.903 146.931 134.534 147.351 134.058 147.65C133.592 147.949 133.046 148.098 132.42 148.098C131.87 148.098 131.389 147.977 130.978 147.734C130.568 147.491 130.255 147.146 130.04 146.698V151.024H128.906V142.932C128.906 142.204 128.869 141.546 128.794 140.958H129.872L129.984 142.316C130.18 141.831 130.488 141.457 130.908 141.196C131.338 140.925 131.842 140.79 132.42 140.79ZM132.21 147.16C132.901 147.16 133.433 146.927 133.806 146.46C134.189 145.993 134.38 145.331 134.38 144.472C134.38 143.613 134.189 142.946 133.806 142.47C133.424 141.985 132.892 141.742 132.21 141.742C131.51 141.742 130.974 141.975 130.6 142.442C130.227 142.909 130.04 143.576 130.04 144.444C130.04 145.312 130.227 145.984 130.6 146.46C130.974 146.927 131.51 147.16 132.21 147.16ZM137.301 137.696H138.435V148H137.301V137.696ZM146.839 140.958V148H145.719V146.726C145.514 147.165 145.201 147.505 144.781 147.748C144.37 147.981 143.89 148.098 143.339 148.098C142.714 148.098 142.163 147.949 141.687 147.65C141.22 147.351 140.856 146.931 140.595 146.39C140.343 145.839 140.217 145.2 140.217 144.472C140.217 143.744 140.348 143.105 140.609 142.554C140.87 141.994 141.234 141.56 141.701 141.252C142.177 140.944 142.723 140.79 143.339 140.79C143.89 140.79 144.37 140.911 144.781 141.154C145.192 141.397 145.504 141.737 145.719 142.176V140.958H146.839ZM143.563 147.16C144.254 147.16 144.786 146.927 145.159 146.46C145.532 145.984 145.719 145.312 145.719 144.444C145.719 143.576 145.532 142.909 145.159 142.442C144.786 141.975 144.254 141.742 143.563 141.742C142.872 141.742 142.331 141.985 141.939 142.47C141.556 142.946 141.365 143.613 141.365 144.472C141.365 145.331 141.556 145.993 141.939 146.46C142.322 146.927 142.863 147.16 143.563 147.16ZM150.543 141.854V145.704C150.543 146.227 150.651 146.595 150.865 146.81C151.08 147.015 151.383 147.118 151.775 147.118C152.037 147.118 152.289 147.076 152.531 146.992V147.958C152.242 148.051 151.915 148.098 151.551 148.098C150.879 148.098 150.352 147.911 149.969 147.538C149.596 147.155 149.409 146.595 149.409 145.858V141.854H148.037V140.958H149.409V139.152L150.543 138.746V140.958H152.559V141.854H150.543ZM159.82 144.444H154.654C154.663 145.34 154.869 146.017 155.27 146.474C155.681 146.931 156.273 147.16 157.048 147.16C157.869 147.16 158.625 146.885 159.316 146.334L159.694 147.16C159.386 147.449 158.989 147.678 158.504 147.846C158.028 148.014 157.538 148.098 157.034 148.098C155.933 148.098 155.069 147.776 154.444 147.132C153.819 146.479 153.506 145.587 153.506 144.458C153.506 143.739 153.646 143.105 153.926 142.554C154.206 141.994 154.598 141.56 155.102 141.252C155.606 140.944 156.18 140.79 156.824 140.79C157.757 140.79 158.49 141.098 159.022 141.714C159.554 142.321 159.82 143.161 159.82 144.234V144.444ZM156.838 141.672C156.25 141.672 155.769 141.849 155.396 142.204C155.032 142.559 154.799 143.058 154.696 143.702H158.798C158.742 143.039 158.546 142.535 158.21 142.19C157.883 141.845 157.426 141.672 156.838 141.672ZM163.921 148.098C162.736 148.098 161.798 147.795 161.107 147.188L161.485 146.348C161.868 146.647 162.255 146.861 162.647 146.992C163.039 147.123 163.478 147.188 163.963 147.188C164.495 147.188 164.897 147.099 165.167 146.922C165.447 146.735 165.587 146.469 165.587 146.124C165.587 145.844 165.494 145.62 165.307 145.452C165.121 145.284 164.813 145.153 164.383 145.06L163.193 144.78C162.605 144.649 162.148 144.416 161.821 144.08C161.504 143.744 161.345 143.343 161.345 142.876C161.345 142.26 161.593 141.761 162.087 141.378C162.582 140.986 163.235 140.79 164.047 140.79C164.542 140.79 165.009 140.869 165.447 141.028C165.886 141.187 166.255 141.415 166.553 141.714L166.175 142.54C165.513 141.989 164.803 141.714 164.047 141.714C163.543 141.714 163.151 141.812 162.871 142.008C162.601 142.195 162.465 142.461 162.465 142.806C162.465 143.095 162.549 143.324 162.717 143.492C162.895 143.66 163.175 143.791 163.557 143.884L164.747 144.178C165.401 144.327 165.886 144.561 166.203 144.878C166.521 145.186 166.679 145.592 166.679 146.096C166.679 146.703 166.432 147.188 165.937 147.552C165.443 147.916 164.771 148.098 163.921 148.098ZM180.789 138.032L176.435 148H175.427L171.073 138.032H172.291L175.945 146.544L179.599 138.032H180.789ZM187 144.444H181.834C181.843 145.34 182.048 146.017 182.45 146.474C182.86 146.931 183.453 147.16 184.228 147.16C185.049 147.16 185.805 146.885 186.496 146.334L186.874 147.16C186.566 147.449 186.169 147.678 185.684 147.846C185.208 148.014 184.718 148.098 184.214 148.098C183.112 148.098 182.249 147.776 181.624 147.132C180.998 146.479 180.686 145.587 180.686 144.458C180.686 143.739 180.826 143.105 181.106 142.554C181.386 141.994 181.778 141.56 182.282 141.252C182.786 140.944 183.36 140.79 184.004 140.79C184.937 140.79 185.67 141.098 186.202 141.714C186.734 142.321 187 143.161 187 144.234V144.444ZM184.018 141.672C183.43 141.672 182.949 141.849 182.576 142.204C182.212 142.559 181.978 143.058 181.876 143.702H185.978C185.922 143.039 185.726 142.535 185.39 142.19C185.063 141.845 184.606 141.672 184.018 141.672ZM191.997 140.79C192.23 140.79 192.445 140.818 192.641 140.874L192.613 141.91C192.398 141.835 192.151 141.798 191.871 141.798C191.19 141.798 190.681 142.013 190.345 142.442C190.018 142.862 189.855 143.375 189.855 143.982V148H188.721V142.932C188.721 142.204 188.684 141.546 188.609 140.958H189.687L189.799 142.26C189.976 141.784 190.261 141.42 190.653 141.168C191.045 140.916 191.493 140.79 191.997 140.79ZM197.307 140.79C197.923 140.79 198.469 140.939 198.945 141.238C199.421 141.537 199.79 141.961 200.051 142.512C200.313 143.053 200.443 143.688 200.443 144.416C200.443 145.144 200.313 145.788 200.051 146.348C199.79 146.899 199.421 147.328 198.945 147.636C198.469 147.944 197.923 148.098 197.307 148.098C196.757 148.098 196.276 147.977 195.865 147.734C195.455 147.491 195.142 147.146 194.927 146.698V148H193.793V137.696H194.927V142.204C195.133 141.747 195.441 141.397 195.851 141.154C196.271 140.911 196.757 140.79 197.307 140.79ZM197.097 147.16C197.779 147.16 198.311 146.922 198.693 146.446C199.076 145.961 199.267 145.284 199.267 144.416C199.267 143.567 199.076 142.909 198.693 142.442C198.32 141.975 197.788 141.742 197.097 141.742C196.397 141.742 195.861 141.975 195.487 142.442C195.114 142.909 194.927 143.576 194.927 144.444C194.927 145.312 195.114 145.984 195.487 146.46C195.861 146.927 196.397 147.16 197.097 147.16ZM205.1 148.098C204.437 148.098 203.854 147.949 203.35 147.65C202.846 147.351 202.454 146.927 202.174 146.376C201.903 145.825 201.768 145.181 201.768 144.444C201.768 143.707 201.903 143.063 202.174 142.512C202.454 141.961 202.846 141.537 203.35 141.238C203.854 140.939 204.437 140.79 205.1 140.79C205.762 140.79 206.346 140.939 206.85 141.238C207.354 141.537 207.741 141.961 208.012 142.512C208.292 143.063 208.432 143.707 208.432 144.444C208.432 145.181 208.292 145.825 208.012 146.376C207.741 146.927 207.354 147.351 206.85 147.65C206.346 147.949 205.762 148.098 205.1 148.098ZM205.1 147.16C205.8 147.16 206.336 146.931 206.71 146.474C207.083 146.007 207.27 145.331 207.27 144.444C207.27 143.585 207.078 142.923 206.696 142.456C206.313 141.98 205.781 141.742 205.1 141.742C204.409 141.742 203.872 141.98 203.49 142.456C203.107 142.923 202.916 143.585 202.916 144.444C202.916 145.331 203.102 146.007 203.476 146.474C203.858 146.931 204.4 147.16 205.1 147.16ZM210.199 137.696H211.333V148H210.199V137.696ZM213.535 140.958H214.669V148H213.535V140.958ZM214.809 137.976V139.264H213.423V137.976H214.809ZM223.073 140.958V148H221.953V146.726C221.748 147.165 221.435 147.505 221.015 147.748C220.605 147.981 220.124 148.098 219.573 148.098C218.948 148.098 218.397 147.949 217.921 147.65C217.455 147.351 217.091 146.931 216.829 146.39C216.577 145.839 216.451 145.2 216.451 144.472C216.451 143.744 216.582 143.105 216.843 142.554C217.105 141.994 217.469 141.56 217.935 141.252C218.411 140.944 218.957 140.79 219.573 140.79C220.124 140.79 220.605 140.911 221.015 141.154C221.426 141.397 221.739 141.737 221.953 142.176V140.958H223.073ZM219.797 147.16C220.488 147.16 221.02 146.927 221.393 146.46C221.767 145.984 221.953 145.312 221.953 144.444C221.953 143.576 221.767 142.909 221.393 142.442C221.02 141.975 220.488 141.742 219.797 141.742C219.107 141.742 218.565 141.985 218.173 142.47C217.791 142.946 217.599 143.613 217.599 144.472C217.599 145.331 217.791 145.993 218.173 146.46C218.556 146.927 219.097 147.16 219.797 147.16Z" fill="#5B5151"/>
<circle cx="80" cy="113" r="15" fill="white"/>
<mask id="mask1" mask-type="alpha" maskUnits="userSpaceOnUse" x="65" y="98" width="30" height="30">
<circle cx="80" cy="113" r="15" fill="#F4F4EA"/>
</mask>
<g mask="url(#mask1)">
<path fill-rule="evenodd" clip-rule="evenodd" d="M85.9322 105.298C84.524 109.565 83.165 113.437 81.785 117.704C81.7024 118.067 81.5194 118.399 81.2569 118.662C80.8951 118.926 80.4494 119.048 80.0035 119.007H78.3418L79.2853 121.274H81.8976C82.252 121.296 82.6053 121.216 82.9158 121.044C83.2264 120.872 83.4814 120.614 83.6509 120.302C83.7643 120.09 83.8609 119.868 83.9396 119.641L88.798 105.298H85.9322Z" fill="#635452"/>
<path fill-rule="evenodd" clip-rule="evenodd" d="M76.376 113.043H78.087C78.2676 113.052 78.4378 113.13 78.5623 113.261C78.6868 113.392 78.7562 113.566 78.7559 113.747V113.902C78.7562 114.083 78.6868 114.257 78.5623 114.388C78.4378 114.519 78.2676 114.597 78.087 114.606H76.376C76.1893 114.606 76.0102 114.532 75.8781 114.4C75.7461 114.268 75.6719 114.089 75.6719 113.902V113.747C75.6719 113.56 75.7461 113.381 75.8781 113.249C76.0102 113.117 76.1893 113.043 76.376 113.043Z" fill="#F0AD00"/>
<path fill-rule="evenodd" clip-rule="evenodd" d="M79.8545 113.043H81.643C81.8297 113.043 82.0088 113.117 82.1409 113.249C82.2729 113.381 82.3471 113.56 82.3471 113.747V113.902C82.3471 114.089 82.2729 114.268 82.1409 114.4C82.0088 114.532 81.8297 114.606 81.643 114.606H79.8545C79.6678 114.606 79.4887 114.532 79.3566 114.4C79.2246 114.268 79.1504 114.089 79.1504 113.902V113.747C79.1504 113.56 79.2246 113.381 79.3566 113.249C79.4887 113.117 79.6678 113.043 79.8545 113.043Z" fill="#E1760C"/>
<path fill-rule="evenodd" clip-rule="evenodd" d="M75.7354 111.114H77.5872C77.768 111.113 77.942 111.183 78.0731 111.307C78.2041 111.432 78.2823 111.602 78.2913 111.782V111.944C78.2913 112.131 78.2172 112.31 78.0851 112.442C77.9531 112.574 77.774 112.649 77.5872 112.649H75.7354C75.5486 112.649 75.3695 112.574 75.2375 112.442C75.1054 112.31 75.0312 112.131 75.0312 111.944V111.782C75.0403 111.602 75.1184 111.432 75.2495 111.307C75.3806 111.183 75.5546 111.113 75.7354 111.114Z" fill="#E1760C"/>
<path fill-rule="evenodd" clip-rule="evenodd" d="M79.3682 111.114H82.3114C82.4861 111.122 82.6513 111.195 82.7749 111.319C82.8986 111.443 82.9718 111.608 82.9803 111.782V111.944C82.9806 112.125 82.9112 112.299 82.7867 112.43C82.6622 112.561 82.492 112.639 82.3114 112.649H79.3682C79.1814 112.649 79.0023 112.574 78.8703 112.442C78.7382 112.31 78.6641 112.131 78.6641 111.944V111.782C78.6731 111.602 78.7513 111.432 78.8823 111.307C79.0134 111.183 79.1874 111.113 79.3682 111.114Z" fill="#F0AD00"/>
<path fill-rule="evenodd" clip-rule="evenodd" d="M79.1026 114.986H81.0107C81.1913 114.995 81.3615 115.074 81.486 115.205C81.6105 115.336 81.6799 115.51 81.6797 115.69V115.859C81.6799 116.04 81.6105 116.214 81.486 116.345C81.3615 116.476 81.1913 116.555 81.0107 116.564H79.1026C78.9158 116.564 78.7367 116.489 78.6047 116.357C78.4726 116.225 78.3984 116.046 78.3984 115.859V115.697C78.3984 115.511 78.4726 115.332 78.6047 115.2C78.7367 115.068 78.9158 114.993 79.1026 114.993V114.986Z" fill="#D65359"/>
<path fill-rule="evenodd" clip-rule="evenodd" d="M78.0166 116.923H80.3684C80.5551 116.923 80.7342 116.997 80.8663 117.129C80.9983 117.261 81.0725 117.44 81.0725 117.627V117.789C81.0725 117.976 80.9983 118.155 80.8663 118.287C80.7342 118.419 80.5551 118.493 80.3684 118.493H78.0166C77.8299 118.493 77.6508 118.419 77.5187 118.287C77.3867 118.155 77.3125 117.976 77.3125 117.789V117.627C77.3125 117.44 77.3867 117.261 77.5187 117.129C77.6508 116.997 77.8299 116.923 78.0166 116.923Z" fill="#F0AD00"/>
<path fill-rule="evenodd" clip-rule="evenodd" d="M77.0811 109.17H79.3836C79.5703 109.17 79.7494 109.244 79.8814 109.376C80.0135 109.508 80.0877 109.688 80.0877 109.874V110.036C80.0877 110.223 80.0135 110.402 79.8814 110.534C79.7494 110.666 79.5703 110.74 79.3836 110.74H77.0811C76.8943 110.74 76.7152 110.666 76.5832 110.534C76.4511 110.402 76.377 110.223 76.377 110.036V109.874C76.377 109.688 76.4511 109.508 76.5832 109.376C76.7152 109.244 76.8943 109.17 77.0811 109.17Z" fill="#F0AD00"/>
<path fill-rule="evenodd" clip-rule="evenodd" d="M81.1358 109.17H82.9665C83.1532 109.17 83.3323 109.244 83.4644 109.376C83.5964 109.508 83.6706 109.688 83.6706 109.874V110.036C83.6706 110.223 83.5964 110.402 83.4644 110.534C83.3323 110.666 83.1532 110.74 82.9665 110.74H81.1358C80.949 110.74 80.7699 110.666 80.6379 110.534C80.5058 110.402 80.4316 110.223 80.4316 110.036V109.874C80.4316 109.688 80.5058 109.508 80.6379 109.376C80.7699 109.244 80.949 109.17 81.1358 109.17Z" fill="#E1760C"/>
<path fill-rule="evenodd" clip-rule="evenodd" d="M75.2429 109.17C75.3933 109.17 75.5403 109.215 75.6654 109.298C75.7904 109.382 75.8879 109.501 75.9455 109.64C76.003 109.779 76.0181 109.931 75.9888 110.079C75.9594 110.227 75.887 110.362 75.7806 110.468C75.6743 110.575 75.5388 110.647 75.3913 110.676C75.2437 110.706 75.0909 110.691 74.9519 110.633C74.8129 110.576 74.6942 110.478 74.6106 110.353C74.5271 110.228 74.4825 110.081 74.4825 109.931C74.4815 109.831 74.5005 109.731 74.5384 109.639C74.5763 109.546 74.6323 109.462 74.7031 109.391C74.7739 109.32 74.8581 109.264 74.9508 109.226C75.0435 109.188 75.1428 109.169 75.2429 109.17Z" fill="#D65359"/>
<path fill-rule="evenodd" clip-rule="evenodd" d="M73.8975 107.234H78.4884C78.6751 107.234 78.8542 107.308 78.9863 107.44C79.1183 107.572 79.1925 107.751 79.1925 107.938V108.1C79.1925 108.287 79.1183 108.466 78.9863 108.598C78.8542 108.73 78.6751 108.804 78.4884 108.804H73.8975C73.7107 108.804 73.5316 108.73 73.3996 108.598C73.2675 108.466 73.1934 108.287 73.1934 108.1V107.938C73.1934 107.751 73.2675 107.572 73.3996 107.44C73.5316 107.308 73.7107 107.234 73.8975 107.234Z" fill="#D65359"/>
<path fill-rule="evenodd" clip-rule="evenodd" d="M80.2139 107.234H83.6218C83.8086 107.234 83.9877 107.308 84.1197 107.44C84.2518 107.572 84.326 107.751 84.326 107.938V108.1C84.326 108.287 84.2518 108.466 84.1197 108.598C83.9877 108.73 83.8086 108.804 83.6218 108.804H80.2139C80.0271 108.804 79.848 108.73 79.716 108.598C79.5839 108.466 79.5098 108.287 79.5098 108.1V107.938C79.5098 107.751 79.5839 107.572 79.716 107.44C79.848 107.308 80.0271 107.234 80.2139 107.234Z" fill="#F0AD00"/>
<path fill-rule="evenodd" clip-rule="evenodd" d="M72.6162 105.297H76.1791C76.3658 105.297 76.5449 105.372 76.677 105.504C76.809 105.636 76.8832 105.815 76.8832 106.001V106.156C76.8832 106.343 76.809 106.522 76.677 106.654C76.5449 106.786 76.3658 106.861 76.1791 106.861H72.6162C72.4295 106.861 72.2504 106.786 72.1183 106.654C71.9863 106.522 71.9121 106.343 71.9121 106.156V106.001C71.9121 105.815 71.9863 105.636 72.1183 105.504C72.2504 105.372 72.4295 105.297 72.6162 105.297Z" fill="#E1760C"/>
<path fill-rule="evenodd" clip-rule="evenodd" d="M79.8975 105.297H84.256C84.4428 105.297 84.6218 105.372 84.7539 105.504C84.8859 105.636 84.9601 105.815 84.9601 106.001V106.156C84.9601 106.343 84.8859 106.522 84.7539 106.654C84.6218 106.786 84.4428 106.861 84.256 106.861H79.8975C79.7107 106.861 79.5316 106.786 79.3996 106.654C79.2675 106.522 79.1934 106.343 79.1934 106.156V106.001C79.1934 105.815 79.2675 105.636 79.3996 105.504C79.5316 105.372 79.7107 105.297 79.8975 105.297Z" fill="#D65359"/>
<path fill-rule="evenodd" clip-rule="evenodd" d="M78.0386 105.297C78.1876 105.297 78.3332 105.342 78.4571 105.424C78.581 105.507 78.6776 105.625 78.7346 105.762C78.7917 105.9 78.8066 106.052 78.7775 106.198C78.7484 106.344 78.6767 106.478 78.5713 106.584C78.466 106.689 78.3317 106.761 78.1856 106.79C78.0394 106.819 77.8879 106.804 77.7503 106.747C77.6126 106.69 77.4949 106.593 77.4121 106.469C77.3293 106.345 77.2852 106.2 77.2852 106.051C77.2852 105.851 77.3645 105.659 77.5058 105.518C77.6471 105.377 77.8388 105.297 78.0386 105.297Z" fill="#F0AD00"/>
<path fill-rule="evenodd" clip-rule="evenodd" d="M77.2437 114.986C77.3947 114.985 77.5427 115.028 77.6688 115.111C77.7949 115.194 77.8935 115.313 77.9519 115.452C78.0103 115.592 78.026 115.745 77.9969 115.893C77.9677 116.041 77.8952 116.177 77.7884 116.284C77.6816 116.391 77.5455 116.464 77.3973 116.493C77.2492 116.522 77.0957 116.506 76.9564 116.448C76.8172 116.389 76.6985 116.291 76.6155 116.165C76.5325 116.039 76.4889 115.891 76.4903 115.74C76.4903 115.54 76.5696 115.348 76.7109 115.207C76.8522 115.065 77.0439 114.986 77.2437 114.986Z" fill="#E1760C"/>
</g>
</svg>
