<svg width="359" height="259" viewBox="0 0 359 259" fill="none" xmlns="http://www.w3.org/2000/svg">
<rect width="359" height="259" rx="12" fill="white"/>
<rect x="0.5" y="0.5" width="358" height="258" rx="11.5" stroke="#5B5151" stroke-opacity="0.1"/>
<path d="M16 57C16 45.9543 24.9543 37 36 37H242C253.046 37 262 45.9543 262 57V77C262 88.0457 253.046 97 242 97H16V57Z" fill="#FEF3F4"/>
<path d="M74.654 53.032V63H73.59V55.594L70.356 63H69.544L66.282 55.65L66.296 63H65.232V53.032H66.184L69.964 61.628L73.702 53.032H74.654ZM83.1609 55.958L79.8709 63.644C79.5255 64.4467 79.0915 65.0347 78.5689 65.408C78.0462 65.7813 77.4022 66.038 76.6369 66.178L76.3989 65.296C77.0615 65.1467 77.5609 64.946 77.8969 64.694C78.2422 64.4513 78.5269 64.0733 78.7509 63.56L79.0309 62.93L76.0489 55.958H77.2389L79.6189 61.768L82.0269 55.958H83.1609ZM91.5748 55.79C92.1908 55.79 92.7368 55.944 93.2128 56.252C93.6888 56.56 94.0574 56.994 94.3188 57.554C94.5801 58.1047 94.7108 58.744 94.7108 59.472C94.7108 60.2 94.5801 60.8393 94.3188 61.39C94.0574 61.9313 93.6888 62.3513 93.2128 62.65C92.7461 62.9487 92.2001 63.098 91.5748 63.098C91.0241 63.098 90.5434 62.9767 90.1328 62.734C89.7221 62.4913 89.4094 62.146 89.1948 61.698V66.024H88.0608V57.932C88.0608 57.204 88.0234 56.546 87.9488 55.958H89.0267L89.1388 57.316C89.3348 56.8307 89.6428 56.4573 90.0628 56.196C90.4921 55.9253 90.9961 55.79 91.5748 55.79ZM91.3648 62.16C92.0554 62.16 92.5874 61.9267 92.9608 61.46C93.3434 60.9933 93.5348 60.3307 93.5348 59.472C93.5348 58.6133 93.3434 57.946 92.9608 57.47C92.5781 56.9847 92.0461 56.742 91.3648 56.742C90.6648 56.742 90.1281 56.9753 89.7548 57.442C89.3814 57.9087 89.1948 58.576 89.1948 59.444C89.1948 60.312 89.3814 60.984 89.7548 61.46C90.1281 61.9267 90.6648 62.16 91.3648 62.16ZM102.657 55.958V63H101.537V61.726C101.332 62.1647 101.019 62.5053 100.599 62.748C100.189 62.9813 99.7079 63.098 99.1573 63.098C98.5319 63.098 97.9813 62.9487 97.5053 62.65C97.0386 62.3513 96.6746 61.9313 96.4133 61.39C96.1613 60.8393 96.0353 60.2 96.0353 59.472C96.0353 58.744 96.1659 58.1047 96.4273 57.554C96.6886 56.994 97.0526 56.56 97.5193 56.252C97.9953 55.944 98.5413 55.79 99.1573 55.79C99.7079 55.79 100.189 55.9113 100.599 56.154C101.01 56.3967 101.323 56.7373 101.537 57.176V55.958H102.657ZM99.3813 62.16C100.072 62.16 100.604 61.9267 100.977 61.46C101.351 60.984 101.537 60.312 101.537 59.444C101.537 58.576 101.351 57.9087 100.977 57.442C100.604 56.9753 100.072 56.742 99.3813 56.742C98.6906 56.742 98.1493 56.9847 97.7573 57.47C97.3746 57.946 97.1833 58.6133 97.1833 59.472C97.1833 60.3307 97.3746 60.9933 97.7573 61.46C98.1399 61.9267 98.6813 62.16 99.3813 62.16ZM111.122 55.958V62.944C111.122 63.9893 110.851 64.778 110.31 65.31C109.778 65.8513 108.989 66.122 107.944 66.122C106.87 66.122 105.946 65.8793 105.172 65.394L105.368 64.47C105.816 64.722 106.236 64.904 106.628 65.016C107.029 65.128 107.468 65.184 107.944 65.184C108.625 65.184 109.138 65.002 109.484 64.638C109.829 64.2833 110.002 63.7513 110.002 63.042V61.376C109.787 61.824 109.47 62.174 109.05 62.426C108.639 62.6687 108.149 62.79 107.58 62.79C106.964 62.79 106.413 62.6453 105.928 62.356C105.452 62.0667 105.083 61.656 104.822 61.124C104.56 60.592 104.43 59.9807 104.43 59.29C104.43 58.5993 104.56 57.988 104.822 57.456C105.083 56.924 105.452 56.5133 105.928 56.224C106.413 55.9347 106.964 55.79 107.58 55.79C108.14 55.79 108.625 55.9113 109.036 56.154C109.456 56.3967 109.773 56.7373 109.988 57.176V55.958H111.122ZM107.804 61.838C108.485 61.838 109.017 61.614 109.4 61.166C109.792 60.7087 109.988 60.0833 109.988 59.29C109.988 58.4967 109.792 57.876 109.4 57.428C109.017 56.9707 108.485 56.742 107.804 56.742C107.113 56.742 106.567 56.9707 106.166 57.428C105.774 57.876 105.578 58.4967 105.578 59.29C105.578 60.0833 105.774 60.7087 106.166 61.166C106.567 61.614 107.113 61.838 107.804 61.838ZM119.193 59.444H114.027C114.036 60.34 114.242 61.0167 114.643 61.474C115.054 61.9313 115.646 62.16 116.421 62.16C117.242 62.16 117.998 61.8847 118.689 61.334L119.067 62.16C118.759 62.4493 118.362 62.678 117.877 62.846C117.401 63.014 116.911 63.098 116.407 63.098C115.306 63.098 114.442 62.776 113.817 62.132C113.192 61.4787 112.879 60.5873 112.879 59.458C112.879 58.7393 113.019 58.1047 113.299 57.554C113.579 56.994 113.971 56.56 114.475 56.252C114.979 55.944 115.553 55.79 116.197 55.79C117.13 55.79 117.863 56.098 118.395 56.714C118.927 57.3207 119.193 58.1607 119.193 59.234V59.444ZM116.211 56.672C115.623 56.672 115.142 56.8493 114.769 57.204C114.405 57.5587 114.172 58.058 114.069 58.702H118.171C118.115 58.0393 117.919 57.5353 117.583 57.19C117.256 56.8447 116.799 56.672 116.211 56.672ZM123.294 63.098C122.109 63.098 121.171 62.7947 120.48 62.188L120.858 61.348C121.241 61.6467 121.628 61.8613 122.02 61.992C122.412 62.1227 122.851 62.188 123.336 62.188C123.868 62.188 124.27 62.0993 124.54 61.922C124.82 61.7353 124.96 61.4693 124.96 61.124C124.96 60.844 124.867 60.62 124.68 60.452C124.494 60.284 124.186 60.1533 123.756 60.06L122.566 59.78C121.978 59.6493 121.521 59.416 121.194 59.08C120.877 58.744 120.718 58.3427 120.718 57.876C120.718 57.26 120.966 56.7607 121.46 56.378C121.955 55.986 122.608 55.79 123.42 55.79C123.915 55.79 124.382 55.8693 124.82 56.028C125.259 56.1867 125.628 56.4153 125.926 56.714L125.548 57.54C124.886 56.9893 124.176 56.714 123.42 56.714C122.916 56.714 122.524 56.812 122.244 57.008C121.974 57.1947 121.838 57.4607 121.838 57.806C121.838 58.0953 121.922 58.324 122.09 58.492C122.268 58.66 122.548 58.7907 122.93 58.884L124.12 59.178C124.774 59.3273 125.259 59.5607 125.576 59.878C125.894 60.186 126.052 60.592 126.052 61.096C126.052 61.7027 125.805 62.188 125.31 62.552C124.816 62.916 124.144 63.098 123.294 63.098ZM135.024 55.79C136.713 55.79 137.558 56.7187 137.558 58.576V63H136.424V58.632C136.424 57.9787 136.293 57.5027 136.032 57.204C135.771 56.896 135.36 56.742 134.8 56.742C134.147 56.742 133.624 56.9427 133.232 57.344C132.84 57.7453 132.644 58.2867 132.644 58.968V63H131.51V52.696H132.644V57.106C132.868 56.6767 133.185 56.35 133.596 56.126C134.016 55.902 134.492 55.79 135.024 55.79ZM145.901 55.958V63H144.781V61.726C144.576 62.1647 144.263 62.5053 143.843 62.748C143.433 62.9813 142.952 63.098 142.401 63.098C141.776 63.098 141.225 62.9487 140.749 62.65C140.283 62.3513 139.919 61.9313 139.657 61.39C139.405 60.8393 139.279 60.2 139.279 59.472C139.279 58.744 139.41 58.1047 139.671 57.554C139.933 56.994 140.297 56.56 140.763 56.252C141.239 55.944 141.785 55.79 142.401 55.79C142.952 55.79 143.433 55.9113 143.843 56.154C144.254 56.3967 144.567 56.7373 144.781 57.176V55.958H145.901ZM142.625 62.16C143.316 62.16 143.848 61.9267 144.221 61.46C144.595 60.984 144.781 60.312 144.781 59.444C144.781 58.576 144.595 57.9087 144.221 57.442C143.848 56.9753 143.316 56.742 142.625 56.742C141.935 56.742 141.393 56.9847 141.001 57.47C140.619 57.946 140.427 58.6133 140.427 59.472C140.427 60.3307 140.619 60.9933 141.001 61.46C141.384 61.9267 141.925 62.16 142.625 62.16ZM154.282 55.972L151.244 63H150.166L147.17 55.972H148.36L150.74 61.768L153.148 55.972H154.282ZM161.343 59.444H156.177C156.187 60.34 156.392 61.0167 156.793 61.474C157.204 61.9313 157.797 62.16 158.571 62.16C159.393 62.16 160.149 61.8847 160.839 61.334L161.217 62.16C160.909 62.4493 160.513 62.678 160.027 62.846C159.551 63.014 159.061 63.098 158.557 63.098C157.456 63.098 156.593 62.776 155.967 62.132C155.342 61.4787 155.029 60.5873 155.029 59.458C155.029 58.7393 155.169 58.1047 155.449 57.554C155.729 56.994 156.121 56.56 156.625 56.252C157.129 55.944 157.703 55.79 158.347 55.79C159.281 55.79 160.013 56.098 160.545 56.714C161.077 57.3207 161.343 58.1607 161.343 59.234V59.444ZM158.361 56.672C157.773 56.672 157.293 56.8493 156.919 57.204C156.555 57.5587 156.322 58.058 156.219 58.702H160.321C160.265 58.0393 160.069 57.5353 159.733 57.19C159.407 56.8447 158.949 56.672 158.361 56.672ZM172.917 55.958V63H171.797V61.726C171.592 62.1647 171.279 62.5053 170.859 62.748C170.448 62.9813 169.968 63.098 169.417 63.098C168.792 63.098 168.241 62.9487 167.765 62.65C167.298 62.3513 166.934 61.9313 166.673 61.39C166.421 60.8393 166.295 60.2 166.295 59.472C166.295 58.744 166.426 58.1047 166.687 57.554C166.948 56.994 167.312 56.56 167.779 56.252C168.255 55.944 168.801 55.79 169.417 55.79C169.968 55.79 170.448 55.9113 170.859 56.154C171.27 56.3967 171.582 56.7373 171.797 57.176V55.958H172.917ZM169.641 62.16C170.332 62.16 170.864 61.9267 171.237 61.46C171.61 60.984 171.797 60.312 171.797 59.444C171.797 58.576 171.61 57.9087 171.237 57.442C170.864 56.9753 170.332 56.742 169.641 56.742C168.95 56.742 168.409 56.9847 168.017 57.47C167.634 57.946 167.443 58.6133 167.443 59.472C167.443 60.3307 167.634 60.9933 168.017 61.46C168.4 61.9267 168.941 62.16 169.641 62.16ZM178.76 52.696H179.894V63H178.76V52.696ZM185.008 63.098C184.345 63.098 183.762 62.9487 183.258 62.65C182.754 62.3513 182.362 61.9267 182.082 61.376C181.811 60.8253 181.676 60.1813 181.676 59.444C181.676 58.7067 181.811 58.0627 182.082 57.512C182.362 56.9613 182.754 56.5367 183.258 56.238C183.762 55.9393 184.345 55.79 185.008 55.79C185.671 55.79 186.254 55.9393 186.758 56.238C187.262 56.5367 187.649 56.9613 187.92 57.512C188.2 58.0627 188.34 58.7067 188.34 59.444C188.34 60.1813 188.2 60.8253 187.92 61.376C187.649 61.9267 187.262 62.3513 186.758 62.65C186.254 62.9487 185.671 63.098 185.008 63.098ZM185.008 62.16C185.708 62.16 186.245 61.9313 186.618 61.474C186.991 61.0073 187.178 60.3307 187.178 59.444C187.178 58.5853 186.987 57.9227 186.604 57.456C186.221 56.98 185.689 56.742 185.008 56.742C184.317 56.742 183.781 56.98 183.398 57.456C183.015 57.9227 182.824 58.5853 182.824 59.444C182.824 60.3307 183.011 61.0073 183.384 61.474C183.767 61.9313 184.308 62.16 185.008 62.16ZM200.722 55.958L198.118 63H197.026L195.01 57.498L193.008 63H191.916L189.312 55.958H190.502L192.49 61.642L194.548 55.958H195.542L197.572 61.656L199.602 55.958H200.722ZM71.084 80.832C71.4947 81.5693 72.0967 82.274 72.89 82.946L72.092 83.674C71.7 83.3753 71.308 82.9927 70.916 82.526C70.524 82.0687 70.1833 81.588 69.894 81.084C69.6887 81.1027 69.5253 81.112 69.404 81.112C68.48 81.112 67.6773 80.9067 66.996 80.496C66.3147 80.0853 65.7873 79.4973 65.414 78.732C65.05 77.9573 64.868 77.052 64.868 76.016C64.868 74.9707 65.05 74.0653 65.414 73.3C65.778 72.5347 66.3007 71.9467 66.982 71.536C67.6633 71.1253 68.4707 70.92 69.404 70.92C70.3373 70.92 71.1447 71.1253 71.826 71.536C72.5073 71.9467 73.03 72.5347 73.394 73.3C73.758 74.0653 73.94 74.966 73.94 76.002C73.94 77.2247 73.688 78.256 73.184 79.096C72.6893 79.9267 71.9893 80.5053 71.084 80.832ZM66.044 76.002C66.044 77.318 66.338 78.3353 66.926 79.054C67.514 79.7727 68.34 80.132 69.404 80.132C70.4587 80.132 71.28 79.7727 71.868 79.054C72.456 78.3353 72.75 77.318 72.75 76.002C72.75 74.686 72.456 73.6733 71.868 72.964C71.2893 72.2547 70.468 71.9 69.404 71.9C68.34 71.9 67.514 72.2593 66.926 72.978C66.338 73.6873 66.044 74.6953 66.044 76.002ZM81.8005 73.958V81H80.6945V79.782C80.4705 80.2113 80.1578 80.538 79.7565 80.762C79.3551 80.986 78.9025 81.098 78.3985 81.098C77.5678 81.098 76.9378 80.8647 76.5085 80.398C76.0791 79.9313 75.8645 79.2407 75.8645 78.326V73.958H76.9985V78.298C76.9985 78.9327 77.1291 79.3993 77.3905 79.698C77.6518 79.9967 78.0485 80.146 78.5805 80.146C79.2058 80.146 79.7098 79.9453 80.0925 79.544C80.4751 79.1333 80.6665 78.5967 80.6665 77.934V73.958H81.8005ZM90.1885 73.958V81H89.0685V79.726C88.8632 80.1647 88.5505 80.5053 88.1305 80.748C87.7199 80.9813 87.2392 81.098 86.6885 81.098C86.0632 81.098 85.5125 80.9487 85.0365 80.65C84.5699 80.3513 84.2059 79.9313 83.9445 79.39C83.6925 78.8393 83.5665 78.2 83.5665 77.472C83.5665 76.744 83.6972 76.1047 83.9585 75.554C84.2199 74.994 84.5839 74.56 85.0505 74.252C85.5265 73.944 86.0725 73.79 86.6885 73.79C87.2392 73.79 87.7199 73.9113 88.1305 74.154C88.5412 74.3967 88.8539 74.7373 89.0685 75.176V73.958H90.1885ZM86.9125 80.16C87.6032 80.16 88.1352 79.9267 88.5085 79.46C88.8819 78.984 89.0685 78.312 89.0685 77.444C89.0685 76.576 88.8819 75.9087 88.5085 75.442C88.1352 74.9753 87.6032 74.742 86.9125 74.742C86.2219 74.742 85.6805 74.9847 85.2885 75.47C84.9059 75.946 84.7145 76.6133 84.7145 77.472C84.7145 78.3307 84.9059 78.9933 85.2885 79.46C85.6712 79.9267 86.2125 80.16 86.9125 80.16ZM92.3811 70.696H93.5151V81H92.3811V70.696ZM95.717 73.958H96.851V81H95.717V73.958ZM96.991 70.976V72.264H95.605V70.976H96.991ZM100.565 74.854V78.704C100.565 79.2267 100.672 79.5953 100.887 79.81C101.102 80.0153 101.405 80.118 101.797 80.118C102.058 80.118 102.31 80.076 102.553 79.992V80.958C102.264 81.0513 101.937 81.098 101.573 81.098C100.901 81.098 100.374 80.9113 99.9909 80.538C99.6176 80.1553 99.4309 79.5953 99.4309 78.858V74.854H98.0589V73.958H99.4309V72.152L100.565 71.746V73.958H102.581V74.854H100.565ZM110.218 73.958L106.928 81.644C106.582 82.4467 106.148 83.0347 105.626 83.408C105.103 83.7813 104.459 84.038 103.694 84.178L103.456 83.296C104.118 83.1467 104.618 82.946 104.954 82.694C105.299 82.4513 105.584 82.0733 105.808 81.56L106.088 80.93L103.106 73.958H104.296L106.676 79.768L109.084 73.958H110.218ZM118.421 81.112C116.863 81.112 115.621 80.692 114.697 79.852L115.131 78.97C115.626 79.39 116.13 79.6887 116.643 79.866C117.157 80.0433 117.754 80.132 118.435 80.132C119.238 80.132 119.854 79.978 120.283 79.67C120.722 79.3527 120.941 78.9093 120.941 78.34C120.941 78.004 120.834 77.7333 120.619 77.528C120.414 77.3133 120.139 77.1453 119.793 77.024C119.457 76.9027 119.005 76.7767 118.435 76.646C117.67 76.478 117.04 76.296 116.545 76.1C116.051 75.904 115.649 75.624 115.341 75.26C115.033 74.8867 114.879 74.4013 114.879 73.804C114.879 73.2347 115.029 72.7353 115.327 72.306C115.626 71.8673 116.046 71.5267 116.587 71.284C117.138 71.0413 117.777 70.92 118.505 70.92C119.196 70.92 119.84 71.0273 120.437 71.242C121.035 71.4567 121.539 71.7693 121.949 72.18L121.501 73.062C121.035 72.6607 120.559 72.3667 120.073 72.18C119.597 71.9933 119.075 71.9 118.505 71.9C117.731 71.9 117.124 72.068 116.685 72.404C116.247 72.7307 116.027 73.1833 116.027 73.762C116.027 74.266 116.219 74.644 116.601 74.896C116.984 75.148 117.572 75.3673 118.365 75.554C119.224 75.7593 119.896 75.9507 120.381 76.128C120.876 76.296 121.287 76.5573 121.613 76.912C121.94 77.2573 122.103 77.7193 122.103 78.298C122.103 78.858 121.954 79.3527 121.655 79.782C121.357 80.202 120.927 80.5287 120.367 80.762C119.817 80.9953 119.168 81.112 118.421 81.112ZM126.794 81.098C126.113 81.098 125.515 80.9487 125.002 80.65C124.498 80.3513 124.106 79.9313 123.826 79.39C123.555 78.8393 123.42 78.2 123.42 77.472C123.42 76.744 123.56 76.1047 123.84 75.554C124.12 74.994 124.517 74.56 125.03 74.252C125.553 73.944 126.159 73.79 126.85 73.79C127.326 73.79 127.783 73.874 128.222 74.042C128.67 74.2007 129.039 74.4247 129.328 74.714L128.95 75.554C128.595 75.274 128.25 75.0687 127.914 74.938C127.587 74.8073 127.251 74.742 126.906 74.742C126.187 74.742 125.623 74.9847 125.212 75.47C124.801 75.946 124.596 76.6133 124.596 77.472C124.596 78.3213 124.797 78.984 125.198 79.46C125.609 79.9267 126.178 80.16 126.906 80.16C127.251 80.16 127.587 80.0947 127.914 79.964C128.25 79.8333 128.595 79.628 128.95 79.348L129.328 80.188C129.029 80.468 128.651 80.692 128.194 80.86C127.746 81.0187 127.279 81.098 126.794 81.098ZM133.684 81.098C133.021 81.098 132.438 80.9487 131.934 80.65C131.43 80.3513 131.038 79.9267 130.758 79.376C130.487 78.8253 130.352 78.1813 130.352 77.444C130.352 76.7067 130.487 76.0627 130.758 75.512C131.038 74.9613 131.43 74.5367 131.934 74.238C132.438 73.9393 133.021 73.79 133.684 73.79C134.346 73.79 134.93 73.9393 135.434 74.238C135.938 74.5367 136.325 74.9613 136.596 75.512C136.876 76.0627 137.016 76.7067 137.016 77.444C137.016 78.1813 136.876 78.8253 136.596 79.376C136.325 79.9267 135.938 80.3513 135.434 80.65C134.93 80.9487 134.346 81.098 133.684 81.098ZM133.684 80.16C134.384 80.16 134.92 79.9313 135.294 79.474C135.667 79.0073 135.854 78.3307 135.854 77.444C135.854 76.5853 135.662 75.9227 135.28 75.456C134.897 74.98 134.365 74.742 133.684 74.742C132.993 74.742 132.456 74.98 132.074 75.456C131.691 75.9227 131.5 76.5853 131.5 77.444C131.5 78.3307 131.686 79.0073 132.06 79.474C132.442 79.9313 132.984 80.16 133.684 80.16ZM142.059 73.79C142.293 73.79 142.507 73.818 142.703 73.874L142.675 74.91C142.461 74.8353 142.213 74.798 141.933 74.798C141.252 74.798 140.743 75.0127 140.407 75.442C140.081 75.862 139.917 76.3753 139.917 76.982V81H138.783V75.932C138.783 75.204 138.746 74.546 138.671 73.958H139.749L139.861 75.26C140.039 74.784 140.323 74.42 140.715 74.168C141.107 73.916 141.555 73.79 142.059 73.79ZM149.613 77.444H144.447C144.456 78.34 144.662 79.0167 145.063 79.474C145.474 79.9313 146.066 80.16 146.841 80.16C147.662 80.16 148.418 79.8847 149.109 79.334L149.487 80.16C149.179 80.4493 148.782 80.678 148.297 80.846C147.821 81.014 147.331 81.098 146.827 81.098C145.726 81.098 144.862 80.776 144.237 80.132C143.612 79.4787 143.299 78.5873 143.299 77.458C143.299 76.7393 143.439 76.1047 143.719 75.554C143.999 74.994 144.391 74.56 144.895 74.252C145.399 73.944 145.973 73.79 146.617 73.79C147.55 73.79 148.283 74.098 148.815 74.714C149.347 75.3207 149.613 76.1607 149.613 77.234V77.444ZM146.631 74.672C146.043 74.672 145.562 74.8493 145.189 75.204C144.825 75.5587 144.592 76.058 144.489 76.702H148.591C148.535 76.0393 148.339 75.5353 148.003 75.19C147.676 74.8447 147.219 74.672 146.631 74.672Z" fill="#5B5151"/>
<circle cx="41" cy="64" r="15" fill="white"/>
<mask id="mask0" mask-type="alpha" maskUnits="userSpaceOnUse" x="26" y="49" width="30" height="30">
<circle cx="41" cy="64" r="15" fill="white"/>
</mask>
<g mask="url(#mask0)">
<path d="M46.3763 61.5393C46.3763 63.0615 45.8304 64.3792 44.7535 65.4562C43.6766 66.5331 42.3587 67.079 40.8365 67.079H40.8338C39.3135 67.0785 37.9966 66.5326 36.9197 65.4562C35.8426 64.3792 35.2969 63.0615 35.2969 61.5393C35.2969 60.0175 35.8426 58.6997 36.9197 57.6228C37.996 56.5463 39.313 56.0005 40.8338 56H40.8365C42.3582 56 43.676 56.5459 44.7535 57.6228C45.8304 58.6997 46.3763 60.0175 46.3763 61.5393Z" fill="#FFD589"/>
<path d="M50.5759 75.0444C50.5759 76.2454 50.1939 77.2177 49.4415 77.9338C48.6978 78.6415 47.7142 79 46.5184 79H35.4437C34.2479 79 33.2643 78.6415 32.5212 77.9338C31.7682 77.2172 31.3867 76.245 31.3867 75.0444C31.3867 74.5826 31.402 74.1256 31.4325 73.6862C31.4636 73.237 31.5264 72.7482 31.619 72.2324C31.7124 71.7125 31.8324 71.221 31.9761 70.7718C32.1253 70.3068 32.3271 69.8481 32.5768 69.4087C32.8362 68.9526 33.1408 68.5553 33.4823 68.2282C33.8402 67.8859 34.2779 67.6109 34.7838 67.4105C35.2879 67.2112 35.8468 67.1101 36.4448 67.1101C36.6794 67.1101 36.9067 67.2061 37.3447 67.4914C37.6188 67.6702 37.9346 67.8738 38.2833 68.0966C38.5844 68.2886 38.9922 68.4686 39.4963 68.6313C39.9394 68.7747 40.3892 68.8547 40.8335 68.8686C40.8824 68.8703 40.9314 68.8712 40.9803 68.8712C41.4738 68.8712 41.9728 68.7903 42.4649 68.6313C42.969 68.4686 43.3774 68.2886 43.6783 68.0966C44.0306 67.8715 44.3465 67.6681 44.6166 67.4919C45.0549 67.2061 45.2818 67.1101 45.5169 67.1101C46.1144 67.1101 46.6733 67.2112 47.1778 67.4105C47.6837 67.6109 48.1213 67.8864 48.479 68.2282C48.821 68.5553 49.1256 68.9526 49.3848 69.4087C49.6347 69.8484 49.8368 70.3068 49.9854 70.7712C50.1293 71.221 50.2497 71.7125 50.3431 72.2328C50.4352 72.749 50.4982 73.2379 50.5291 73.6859C50.5601 74.1239 50.5754 74.5808 50.5759 75.0444Z" fill="#D55A5F"/>
</g>
<path d="M50 133C50 121.954 58.9543 113 70 113H323C334.046 113 343 121.954 343 133V191H70C58.9543 191 50 182.046 50 171V133Z" fill="#FCFCFC"/>
<path d="M108.816 134.968V139H107.668V134.954L103.748 129.032H105.092L108.256 133.932L111.42 129.032H112.736L108.816 134.968ZM115.428 139.098C114.765 139.098 114.182 138.949 113.678 138.65C113.174 138.351 112.782 137.927 112.502 137.376C112.231 136.825 112.096 136.181 112.096 135.444C112.096 134.707 112.231 134.063 112.502 133.512C112.782 132.961 113.174 132.537 113.678 132.238C114.182 131.939 114.765 131.79 115.428 131.79C116.09 131.79 116.674 131.939 117.178 132.238C117.682 132.537 118.069 132.961 118.34 133.512C118.62 134.063 118.76 134.707 118.76 135.444C118.76 136.181 118.62 136.825 118.34 137.376C118.069 137.927 117.682 138.351 117.178 138.65C116.674 138.949 116.09 139.098 115.428 139.098ZM115.428 138.16C116.128 138.16 116.664 137.931 117.038 137.474C117.411 137.007 117.598 136.331 117.598 135.444C117.598 134.585 117.406 133.923 117.024 133.456C116.641 132.98 116.109 132.742 115.428 132.742C114.737 132.742 114.2 132.98 113.818 133.456C113.435 133.923 113.244 134.585 113.244 135.444C113.244 136.331 113.43 137.007 113.804 137.474C114.186 137.931 114.728 138.16 115.428 138.16ZM126.422 131.958V139H125.316V137.782C125.092 138.211 124.779 138.538 124.378 138.762C123.976 138.986 123.524 139.098 123.02 139.098C122.189 139.098 121.559 138.865 121.13 138.398C120.7 137.931 120.486 137.241 120.486 136.326V131.958H121.62V136.298C121.62 136.933 121.75 137.399 122.012 137.698C122.273 137.997 122.67 138.146 123.202 138.146C123.827 138.146 124.331 137.945 124.714 137.544C125.096 137.133 125.288 136.597 125.288 135.934V131.958H126.422ZM135.772 131.79C137.461 131.79 138.306 132.719 138.306 134.576V139H137.172V134.632C137.172 133.979 137.041 133.503 136.78 133.204C136.519 132.896 136.108 132.742 135.548 132.742C134.895 132.742 134.372 132.943 133.98 133.344C133.588 133.745 133.392 134.287 133.392 134.968V139H132.258V128.696H133.392V133.106C133.616 132.677 133.933 132.35 134.344 132.126C134.764 131.902 135.24 131.79 135.772 131.79ZM146.649 131.958V139H145.529V137.726C145.324 138.165 145.011 138.505 144.591 138.748C144.181 138.981 143.7 139.098 143.149 139.098C142.524 139.098 141.973 138.949 141.497 138.65C141.031 138.351 140.667 137.931 140.405 137.39C140.153 136.839 140.027 136.2 140.027 135.472C140.027 134.744 140.158 134.105 140.419 133.554C140.681 132.994 141.045 132.56 141.511 132.252C141.987 131.944 142.533 131.79 143.149 131.79C143.7 131.79 144.181 131.911 144.591 132.154C145.002 132.397 145.315 132.737 145.529 133.176V131.958H146.649ZM143.373 138.16C144.064 138.16 144.596 137.927 144.969 137.46C145.343 136.984 145.529 136.312 145.529 135.444C145.529 134.576 145.343 133.909 144.969 133.442C144.596 132.975 144.064 132.742 143.373 132.742C142.683 132.742 142.141 132.985 141.749 133.47C141.367 133.946 141.175 134.613 141.175 135.472C141.175 136.331 141.367 136.993 141.749 137.46C142.132 137.927 142.673 138.16 143.373 138.16ZM155.03 131.972L151.992 139H150.914L147.918 131.972H149.108L151.488 137.768L153.896 131.972H155.03ZM162.091 135.444H156.925C156.935 136.34 157.14 137.017 157.541 137.474C157.952 137.931 158.545 138.16 159.319 138.16C160.141 138.16 160.897 137.885 161.587 137.334L161.965 138.16C161.657 138.449 161.261 138.678 160.775 138.846C160.299 139.014 159.809 139.098 159.305 139.098C158.204 139.098 157.341 138.776 156.715 138.132C156.09 137.479 155.777 136.587 155.777 135.458C155.777 134.739 155.917 134.105 156.197 133.554C156.477 132.994 156.869 132.56 157.373 132.252C157.877 131.944 158.451 131.79 159.095 131.79C160.029 131.79 160.761 132.098 161.293 132.714C161.825 133.321 162.091 134.161 162.091 135.234V135.444ZM159.109 132.672C158.521 132.672 158.041 132.849 157.667 133.204C157.303 133.559 157.07 134.058 156.967 134.702H161.069C161.013 134.039 160.817 133.535 160.481 133.19C160.155 132.845 159.697 132.672 159.109 132.672ZM170.977 131.79C172.666 131.79 173.511 132.719 173.511 134.576V139H172.377V134.632C172.377 133.979 172.246 133.503 171.985 133.204C171.724 132.896 171.313 132.742 170.753 132.742C170.1 132.742 169.577 132.943 169.185 133.344C168.793 133.745 168.597 134.287 168.597 134.968V139H167.463V128.696H168.597V133.106C168.821 132.677 169.138 132.35 169.549 132.126C169.969 131.902 170.445 131.79 170.977 131.79ZM175.653 131.958H176.787V139H175.653V131.958ZM176.927 128.976V130.264H175.541V128.976H176.927ZM185.26 131.958V138.944C185.26 139.989 184.99 140.778 184.448 141.31C183.916 141.851 183.128 142.122 182.082 142.122C181.009 142.122 180.085 141.879 179.31 141.394L179.506 140.47C179.954 140.722 180.374 140.904 180.766 141.016C181.168 141.128 181.606 141.184 182.082 141.184C182.764 141.184 183.277 141.002 183.622 140.638C183.968 140.283 184.14 139.751 184.14 139.042V137.376C183.926 137.824 183.608 138.174 183.188 138.426C182.778 138.669 182.288 138.79 181.718 138.79C181.102 138.79 180.552 138.645 180.066 138.356C179.59 138.067 179.222 137.656 178.96 137.124C178.699 136.592 178.568 135.981 178.568 135.29C178.568 134.599 178.699 133.988 178.96 133.456C179.222 132.924 179.59 132.513 180.066 132.224C180.552 131.935 181.102 131.79 181.718 131.79C182.278 131.79 182.764 131.911 183.174 132.154C183.594 132.397 183.912 132.737 184.126 133.176V131.958H185.26ZM181.942 137.838C182.624 137.838 183.156 137.614 183.538 137.166C183.93 136.709 184.126 136.083 184.126 135.29C184.126 134.497 183.93 133.876 183.538 133.428C183.156 132.971 182.624 132.742 181.942 132.742C181.252 132.742 180.706 132.971 180.304 133.428C179.912 133.876 179.716 134.497 179.716 135.29C179.716 136.083 179.912 136.709 180.304 137.166C180.706 137.614 181.252 137.838 181.942 137.838ZM190.952 131.79C192.641 131.79 193.486 132.719 193.486 134.576V139H192.352V134.632C192.352 133.979 192.221 133.503 191.96 133.204C191.698 132.896 191.288 132.742 190.728 132.742C190.074 132.742 189.552 132.943 189.16 133.344C188.768 133.745 188.572 134.287 188.572 134.968V139H187.438V128.696H188.572V133.106C188.796 132.677 189.113 132.35 189.524 132.126C189.944 131.902 190.42 131.79 190.952 131.79ZM202.792 131.79C203.408 131.79 203.954 131.944 204.43 132.252C204.906 132.56 205.274 132.994 205.536 133.554C205.797 134.105 205.928 134.744 205.928 135.472C205.928 136.2 205.797 136.839 205.536 137.39C205.274 137.931 204.906 138.351 204.43 138.65C203.963 138.949 203.417 139.098 202.792 139.098C202.241 139.098 201.76 138.977 201.35 138.734C200.939 138.491 200.626 138.146 200.412 137.698V142.024H199.278V133.932C199.278 133.204 199.24 132.546 199.166 131.958H200.244L200.356 133.316C200.552 132.831 200.86 132.457 201.28 132.196C201.709 131.925 202.213 131.79 202.792 131.79ZM202.582 138.16C203.272 138.16 203.804 137.927 204.178 137.46C204.56 136.993 204.752 136.331 204.752 135.472C204.752 134.613 204.56 133.946 204.178 133.47C203.795 132.985 203.263 132.742 202.582 132.742C201.882 132.742 201.345 132.975 200.972 133.442C200.598 133.909 200.412 134.576 200.412 135.444C200.412 136.312 200.598 136.984 200.972 137.46C201.345 137.927 201.882 138.16 202.582 138.16ZM213.874 131.958V139H212.754V137.726C212.549 138.165 212.236 138.505 211.816 138.748C211.405 138.981 210.925 139.098 210.374 139.098C209.749 139.098 209.198 138.949 208.722 138.65C208.255 138.351 207.891 137.931 207.63 137.39C207.378 136.839 207.252 136.2 207.252 135.472C207.252 134.744 207.383 134.105 207.644 133.554C207.905 132.994 208.269 132.56 208.736 132.252C209.212 131.944 209.758 131.79 210.374 131.79C210.925 131.79 211.405 131.911 211.816 132.154C212.227 132.397 212.539 132.737 212.754 133.176V131.958H213.874ZM210.598 138.16C211.289 138.16 211.821 137.927 212.194 137.46C212.567 136.984 212.754 136.312 212.754 135.444C212.754 134.576 212.567 133.909 212.194 133.442C211.821 132.975 211.289 132.742 210.598 132.742C209.907 132.742 209.366 132.985 208.974 133.47C208.591 133.946 208.4 134.613 208.4 135.472C208.4 136.331 208.591 136.993 208.974 137.46C209.357 137.927 209.898 138.16 210.598 138.16ZM222.339 131.958V138.944C222.339 139.989 222.068 140.778 221.527 141.31C220.995 141.851 220.206 142.122 219.161 142.122C218.087 142.122 217.163 141.879 216.389 141.394L216.585 140.47C217.033 140.722 217.453 140.904 217.845 141.016C218.246 141.128 218.685 141.184 219.161 141.184C219.842 141.184 220.355 141.002 220.701 140.638C221.046 140.283 221.219 139.751 221.219 139.042V137.376C221.004 137.824 220.687 138.174 220.267 138.426C219.856 138.669 219.366 138.79 218.797 138.79C218.181 138.79 217.63 138.645 217.145 138.356C216.669 138.067 216.3 137.656 216.039 137.124C215.777 136.592 215.647 135.981 215.647 135.29C215.647 134.599 215.777 133.988 216.039 133.456C216.3 132.924 216.669 132.513 217.145 132.224C217.63 131.935 218.181 131.79 218.797 131.79C219.357 131.79 219.842 131.911 220.253 132.154C220.673 132.397 220.99 132.737 221.205 133.176V131.958H222.339ZM219.021 137.838C219.702 137.838 220.234 137.614 220.617 137.166C221.009 136.709 221.205 136.083 221.205 135.29C221.205 134.497 221.009 133.876 220.617 133.428C220.234 132.971 219.702 132.742 219.021 132.742C218.33 132.742 217.784 132.971 217.383 133.428C216.991 133.876 216.795 134.497 216.795 135.29C216.795 136.083 216.991 136.709 217.383 137.166C217.784 137.614 218.33 137.838 219.021 137.838ZM230.41 135.444H225.244C225.253 136.34 225.458 137.017 225.86 137.474C226.27 137.931 226.863 138.16 227.638 138.16C228.459 138.16 229.215 137.885 229.906 137.334L230.284 138.16C229.976 138.449 229.579 138.678 229.094 138.846C228.618 139.014 228.128 139.098 227.624 139.098C226.522 139.098 225.659 138.776 225.034 138.132C224.408 137.479 224.096 136.587 224.096 135.458C224.096 134.739 224.236 134.105 224.516 133.554C224.796 132.994 225.188 132.56 225.692 132.252C226.196 131.944 226.77 131.79 227.414 131.79C228.347 131.79 229.08 132.098 229.612 132.714C230.144 133.321 230.41 134.161 230.41 135.234V135.444ZM227.428 132.672C226.84 132.672 226.359 132.849 225.986 133.204C225.622 133.559 225.388 134.058 225.286 134.702H229.388C229.332 134.039 229.136 133.535 228.8 133.19C228.473 132.845 228.016 132.672 227.428 132.672ZM239.295 131.79C239.911 131.79 240.457 131.944 240.933 132.252C241.409 132.56 241.778 132.994 242.039 133.554C242.301 134.105 242.431 134.744 242.431 135.472C242.431 136.2 242.301 136.839 242.039 137.39C241.778 137.931 241.409 138.351 240.933 138.65C240.467 138.949 239.921 139.098 239.295 139.098C238.745 139.098 238.264 138.977 237.853 138.734C237.443 138.491 237.13 138.146 236.915 137.698V142.024H235.781V133.932C235.781 133.204 235.744 132.546 235.669 131.958H236.747L236.859 133.316C237.055 132.831 237.363 132.457 237.783 132.196C238.213 131.925 238.717 131.79 239.295 131.79ZM239.085 138.16C239.776 138.16 240.308 137.927 240.681 137.46C241.064 136.993 241.255 136.331 241.255 135.472C241.255 134.613 241.064 133.946 240.681 133.47C240.299 132.985 239.767 132.742 239.085 132.742C238.385 132.742 237.849 132.975 237.475 133.442C237.102 133.909 236.915 134.576 236.915 135.444C236.915 136.312 237.102 136.984 237.475 137.46C237.849 137.927 238.385 138.16 239.085 138.16ZM250.07 135.444H244.904C244.913 136.34 245.119 137.017 245.52 137.474C245.931 137.931 246.523 138.16 247.298 138.16C248.119 138.16 248.875 137.885 249.566 137.334L249.944 138.16C249.636 138.449 249.239 138.678 248.754 138.846C248.278 139.014 247.788 139.098 247.284 139.098C246.183 139.098 245.319 138.776 244.694 138.132C244.069 137.479 243.756 136.587 243.756 135.458C243.756 134.739 243.896 134.105 244.176 133.554C244.456 132.994 244.848 132.56 245.352 132.252C245.856 131.944 246.43 131.79 247.074 131.79C248.007 131.79 248.74 132.098 249.272 132.714C249.804 133.321 250.07 134.161 250.07 135.234V135.444ZM247.088 132.672C246.5 132.672 246.019 132.849 245.646 133.204C245.282 133.559 245.049 134.058 244.946 134.702H249.048C248.992 134.039 248.796 133.535 248.46 133.19C248.133 132.845 247.676 132.672 247.088 132.672ZM255.067 131.79C255.301 131.79 255.515 131.818 255.711 131.874L255.683 132.91C255.469 132.835 255.221 132.798 254.941 132.798C254.26 132.798 253.751 133.013 253.415 133.442C253.089 133.862 252.925 134.375 252.925 134.982V139H251.791V133.932C251.791 133.204 251.754 132.546 251.679 131.958H252.757L252.869 133.26C253.047 132.784 253.331 132.42 253.723 132.168C254.115 131.916 254.563 131.79 255.067 131.79ZM260.112 129.62C259.739 129.62 259.445 129.727 259.23 129.942C259.025 130.147 258.922 130.507 258.922 131.02V131.958H260.644V132.854H258.922V139H257.788V132.854H256.416V131.958H257.788V130.88C257.788 130.143 257.97 129.587 258.334 129.214C258.708 128.831 259.226 128.64 259.888 128.64C260.215 128.64 260.532 128.682 260.84 128.766V129.732C260.579 129.657 260.336 129.62 260.112 129.62ZM264.971 139.098C264.308 139.098 263.725 138.949 263.221 138.65C262.717 138.351 262.325 137.927 262.045 137.376C261.774 136.825 261.639 136.181 261.639 135.444C261.639 134.707 261.774 134.063 262.045 133.512C262.325 132.961 262.717 132.537 263.221 132.238C263.725 131.939 264.308 131.79 264.971 131.79C265.633 131.79 266.217 131.939 266.721 132.238C267.225 132.537 267.612 132.961 267.883 133.512C268.163 134.063 268.303 134.707 268.303 135.444C268.303 136.181 268.163 136.825 267.883 137.376C267.612 137.927 267.225 138.351 266.721 138.65C266.217 138.949 265.633 139.098 264.971 139.098ZM264.971 138.16C265.671 138.16 266.207 137.931 266.581 137.474C266.954 137.007 267.141 136.331 267.141 135.444C267.141 134.585 266.949 133.923 266.567 133.456C266.184 132.98 265.652 132.742 264.971 132.742C264.28 132.742 263.743 132.98 263.361 133.456C262.978 133.923 262.787 134.585 262.787 135.444C262.787 136.331 262.973 137.007 263.347 137.474C263.729 137.931 264.271 138.16 264.971 138.16ZM273.347 131.79C273.58 131.79 273.795 131.818 273.991 131.874L273.963 132.91C273.748 132.835 273.501 132.798 273.221 132.798C272.539 132.798 272.031 133.013 271.695 133.442C271.368 133.862 271.205 134.375 271.205 134.982V139H270.071V133.932C270.071 133.204 270.033 132.546 269.959 131.958H271.037L271.149 133.26C271.326 132.784 271.611 132.42 272.003 132.168C272.395 131.916 272.843 131.79 273.347 131.79ZM282.955 131.79C284.513 131.79 285.293 132.719 285.293 134.576V139H284.159V134.632C284.159 133.969 284.042 133.489 283.809 133.19C283.585 132.891 283.216 132.742 282.703 132.742C282.105 132.742 281.639 132.943 281.303 133.344C280.967 133.745 280.799 134.291 280.799 134.982V139H279.665V134.632C279.665 133.979 279.548 133.503 279.315 133.204C279.081 132.896 278.708 132.742 278.195 132.742C277.597 132.742 277.126 132.943 276.781 133.344C276.445 133.745 276.277 134.291 276.277 134.982V139H275.143V133.932C275.143 133.204 275.105 132.546 275.031 131.958H276.109L276.221 133.19C276.417 132.742 276.706 132.397 277.089 132.154C277.481 131.911 277.933 131.79 278.447 131.79C279.007 131.79 279.464 131.902 279.819 132.126C280.173 132.35 280.435 132.695 280.603 133.162C280.817 132.742 281.13 132.411 281.541 132.168C281.961 131.916 282.432 131.79 282.955 131.79ZM293.649 131.958V139H292.529V137.726C292.324 138.165 292.011 138.505 291.591 138.748C291.181 138.981 290.7 139.098 290.149 139.098C289.524 139.098 288.973 138.949 288.497 138.65C288.031 138.351 287.667 137.931 287.405 137.39C287.153 136.839 287.027 136.2 287.027 135.472C287.027 134.744 287.158 134.105 287.419 133.554C287.681 132.994 288.045 132.56 288.511 132.252C288.987 131.944 289.533 131.79 290.149 131.79C290.7 131.79 291.181 131.911 291.591 132.154C292.002 132.397 292.315 132.737 292.529 133.176V131.958H293.649ZM290.373 138.16C291.064 138.16 291.596 137.927 291.969 137.46C292.343 136.984 292.529 136.312 292.529 135.444C292.529 134.576 292.343 133.909 291.969 133.442C291.596 132.975 291.064 132.742 290.373 132.742C289.683 132.742 289.141 132.985 288.749 133.47C288.367 133.946 288.175 134.613 288.175 135.472C288.175 136.331 288.367 136.993 288.749 137.46C289.132 137.927 289.673 138.16 290.373 138.16ZM299.356 131.79C301.045 131.79 301.89 132.719 301.89 134.576V139H300.756V134.632C300.756 133.979 300.625 133.503 300.364 133.204C300.103 132.896 299.692 132.742 299.132 132.742C298.479 132.742 297.956 132.943 297.564 133.344C297.172 133.745 296.976 134.287 296.976 134.968V139H295.842V133.932C295.842 133.204 295.805 132.546 295.73 131.958H296.808L296.92 133.218C297.135 132.761 297.457 132.411 297.886 132.168C298.315 131.916 298.805 131.79 299.356 131.79ZM306.985 139.098C306.304 139.098 305.707 138.949 305.193 138.65C304.689 138.351 304.297 137.931 304.017 137.39C303.747 136.839 303.611 136.2 303.611 135.472C303.611 134.744 303.751 134.105 304.031 133.554C304.311 132.994 304.708 132.56 305.221 132.252C305.744 131.944 306.351 131.79 307.041 131.79C307.517 131.79 307.975 131.874 308.413 132.042C308.861 132.201 309.23 132.425 309.519 132.714L309.141 133.554C308.787 133.274 308.441 133.069 308.105 132.938C307.779 132.807 307.443 132.742 307.097 132.742C306.379 132.742 305.814 132.985 305.403 133.47C304.993 133.946 304.787 134.613 304.787 135.472C304.787 136.321 304.988 136.984 305.389 137.46C305.8 137.927 306.369 138.16 307.097 138.16C307.443 138.16 307.779 138.095 308.105 137.964C308.441 137.833 308.787 137.628 309.141 137.348L309.519 138.188C309.221 138.468 308.843 138.692 308.385 138.86C307.937 139.019 307.471 139.098 306.985 139.098ZM316.857 135.444H311.691C311.7 136.34 311.906 137.017 312.307 137.474C312.718 137.931 313.31 138.16 314.085 138.16C314.906 138.16 315.662 137.885 316.353 137.334L316.731 138.16C316.423 138.449 316.026 138.678 315.541 138.846C315.065 139.014 314.575 139.098 314.071 139.098C312.97 139.098 312.106 138.776 311.481 138.132C310.856 137.479 310.543 136.587 310.543 135.458C310.543 134.739 310.683 134.105 310.963 133.554C311.243 132.994 311.635 132.56 312.139 132.252C312.643 131.944 313.217 131.79 313.861 131.79C314.794 131.79 315.527 132.098 316.059 132.714C316.591 133.321 316.857 134.161 316.857 135.234V135.444ZM313.875 132.672C313.287 132.672 312.806 132.849 312.433 133.204C312.069 133.559 311.836 134.058 311.733 134.702H315.835C315.779 134.039 315.583 133.535 315.247 133.19C314.92 132.845 314.463 132.672 313.875 132.672ZM108.046 157.098C107.365 157.098 106.767 156.949 106.254 156.65C105.75 156.351 105.358 155.931 105.078 155.39C104.807 154.839 104.672 154.2 104.672 153.472C104.672 152.744 104.812 152.105 105.092 151.554C105.372 150.994 105.769 150.56 106.282 150.252C106.805 149.944 107.411 149.79 108.102 149.79C108.578 149.79 109.035 149.874 109.474 150.042C109.922 150.201 110.291 150.425 110.58 150.714L110.202 151.554C109.847 151.274 109.502 151.069 109.166 150.938C108.839 150.807 108.503 150.742 108.158 150.742C107.439 150.742 106.875 150.985 106.464 151.47C106.053 151.946 105.848 152.613 105.848 153.472C105.848 154.321 106.049 154.984 106.45 155.46C106.861 155.927 107.43 156.16 108.158 156.16C108.503 156.16 108.839 156.095 109.166 155.964C109.502 155.833 109.847 155.628 110.202 155.348L110.58 156.188C110.281 156.468 109.903 156.692 109.446 156.86C108.998 157.019 108.531 157.098 108.046 157.098ZM117.918 149.958V157H116.812V155.782C116.588 156.211 116.275 156.538 115.874 156.762C115.472 156.986 115.02 157.098 114.516 157.098C113.685 157.098 113.055 156.865 112.626 156.398C112.196 155.931 111.982 155.241 111.982 154.326V149.958H113.116V154.298C113.116 154.933 113.246 155.399 113.508 155.698C113.769 155.997 114.166 156.146 114.698 156.146C115.323 156.146 115.827 155.945 116.21 155.544C116.592 155.133 116.784 154.597 116.784 153.934V149.958H117.918ZM122.484 157.098C121.298 157.098 120.36 156.795 119.67 156.188L120.048 155.348C120.43 155.647 120.818 155.861 121.21 155.992C121.602 156.123 122.04 156.188 122.526 156.188C123.058 156.188 123.459 156.099 123.73 155.922C124.01 155.735 124.15 155.469 124.15 155.124C124.15 154.844 124.056 154.62 123.87 154.452C123.683 154.284 123.375 154.153 122.946 154.06L121.756 153.78C121.168 153.649 120.71 153.416 120.384 153.08C120.066 152.744 119.908 152.343 119.908 151.876C119.908 151.26 120.155 150.761 120.65 150.378C121.144 149.986 121.798 149.79 122.61 149.79C123.104 149.79 123.571 149.869 124.01 150.028C124.448 150.187 124.817 150.415 125.116 150.714L124.738 151.54C124.075 150.989 123.366 150.714 122.61 150.714C122.106 150.714 121.714 150.812 121.434 151.008C121.163 151.195 121.028 151.461 121.028 151.806C121.028 152.095 121.112 152.324 121.28 152.492C121.457 152.66 121.737 152.791 122.12 152.884L123.31 153.178C123.963 153.327 124.448 153.561 124.766 153.878C125.083 154.186 125.242 154.592 125.242 155.096C125.242 155.703 124.994 156.188 124.5 156.552C124.005 156.916 123.333 157.098 122.484 157.098ZM128.493 150.854V154.704C128.493 155.227 128.6 155.595 128.815 155.81C129.029 156.015 129.333 156.118 129.725 156.118C129.986 156.118 130.238 156.076 130.481 155.992V156.958C130.191 157.051 129.865 157.098 129.501 157.098C128.829 157.098 128.301 156.911 127.919 156.538C127.545 156.155 127.359 155.595 127.359 154.858V150.854H125.987V149.958H127.359V148.152L128.493 147.746V149.958H130.509V150.854H128.493ZM134.787 157.098C134.125 157.098 133.541 156.949 133.037 156.65C132.533 156.351 132.141 155.927 131.861 155.376C131.591 154.825 131.455 154.181 131.455 153.444C131.455 152.707 131.591 152.063 131.861 151.512C132.141 150.961 132.533 150.537 133.037 150.238C133.541 149.939 134.125 149.79 134.787 149.79C135.45 149.79 136.033 149.939 136.537 150.238C137.041 150.537 137.429 150.961 137.699 151.512C137.979 152.063 138.119 152.707 138.119 153.444C138.119 154.181 137.979 154.825 137.699 155.376C137.429 155.927 137.041 156.351 136.537 156.65C136.033 156.949 135.45 157.098 134.787 157.098ZM134.787 156.16C135.487 156.16 136.024 155.931 136.397 155.474C136.771 155.007 136.957 154.331 136.957 153.444C136.957 152.585 136.766 151.923 136.383 151.456C136.001 150.98 135.469 150.742 134.787 150.742C134.097 150.742 133.56 150.98 133.177 151.456C132.795 151.923 132.603 152.585 132.603 153.444C132.603 154.331 132.79 155.007 133.163 155.474C133.546 155.931 134.087 156.16 134.787 156.16ZM147.699 149.79C149.258 149.79 150.037 150.719 150.037 152.576V157H148.903V152.632C148.903 151.969 148.786 151.489 148.553 151.19C148.329 150.891 147.96 150.742 147.447 150.742C146.85 150.742 146.383 150.943 146.047 151.344C145.711 151.745 145.543 152.291 145.543 152.982V157H144.409V152.632C144.409 151.979 144.292 151.503 144.059 151.204C143.826 150.896 143.452 150.742 142.939 150.742C142.342 150.742 141.87 150.943 141.525 151.344C141.189 151.745 141.021 152.291 141.021 152.982V157H139.887V151.932C139.887 151.204 139.85 150.546 139.775 149.958H140.853L140.965 151.19C141.161 150.742 141.45 150.397 141.833 150.154C142.225 149.911 142.678 149.79 143.191 149.79C143.751 149.79 144.208 149.902 144.563 150.126C144.918 150.35 145.179 150.695 145.347 151.162C145.562 150.742 145.874 150.411 146.285 150.168C146.705 149.916 147.176 149.79 147.699 149.79ZM158.086 153.444H152.92C152.929 154.34 153.134 155.017 153.536 155.474C153.946 155.931 154.539 156.16 155.314 156.16C156.135 156.16 156.891 155.885 157.582 155.334L157.96 156.16C157.652 156.449 157.255 156.678 156.77 156.846C156.294 157.014 155.804 157.098 155.3 157.098C154.198 157.098 153.335 156.776 152.71 156.132C152.084 155.479 151.772 154.587 151.772 153.458C151.772 152.739 151.912 152.105 152.192 151.554C152.472 150.994 152.864 150.56 153.368 150.252C153.872 149.944 154.446 149.79 155.09 149.79C156.023 149.79 156.756 150.098 157.288 150.714C157.82 151.321 158.086 152.161 158.086 153.234V153.444ZM155.104 150.672C154.516 150.672 154.035 150.849 153.662 151.204C153.298 151.559 153.064 152.058 152.962 152.702H157.064C157.008 152.039 156.812 151.535 156.476 151.19C156.149 150.845 155.692 150.672 155.104 150.672ZM163.083 149.79C163.316 149.79 163.531 149.818 163.727 149.874L163.699 150.91C163.484 150.835 163.237 150.798 162.957 150.798C162.276 150.798 161.767 151.013 161.431 151.442C161.104 151.862 160.941 152.375 160.941 152.982V157H159.807V151.932C159.807 151.204 159.77 150.546 159.695 149.958H160.773L160.885 151.26C161.062 150.784 161.347 150.42 161.739 150.168C162.131 149.916 162.579 149.79 163.083 149.79ZM167.191 157.098C166.005 157.098 165.067 156.795 164.377 156.188L164.755 155.348C165.137 155.647 165.525 155.861 165.917 155.992C166.309 156.123 166.747 156.188 167.233 156.188C167.765 156.188 168.166 156.099 168.437 155.922C168.717 155.735 168.857 155.469 168.857 155.124C168.857 154.844 168.763 154.62 168.577 154.452C168.39 154.284 168.082 154.153 167.653 154.06L166.463 153.78C165.875 153.649 165.417 153.416 165.091 153.08C164.773 152.744 164.615 152.343 164.615 151.876C164.615 151.26 164.862 150.761 165.357 150.378C165.851 149.986 166.505 149.79 167.317 149.79C167.811 149.79 168.278 149.869 168.717 150.028C169.155 150.187 169.524 150.415 169.823 150.714L169.445 151.54C168.782 150.989 168.073 150.714 167.317 150.714C166.813 150.714 166.421 150.812 166.141 151.008C165.87 151.195 165.735 151.461 165.735 151.806C165.735 152.095 165.819 152.324 165.987 152.492C166.164 152.66 166.444 152.791 166.827 152.884L168.017 153.178C168.67 153.327 169.155 153.561 169.473 153.878C169.79 154.186 169.949 154.592 169.949 155.096C169.949 155.703 169.701 156.188 169.207 156.552C168.712 156.916 168.04 157.098 167.191 157.098ZM186.102 149.958L183.498 157H182.406L180.39 151.498L178.388 157H177.296L174.692 149.958H175.882L177.87 155.642L179.928 149.958H180.922L182.952 155.656L184.982 149.958H186.102ZM187.574 149.958H188.708V157H187.574V149.958ZM188.848 146.976V148.264H187.462V146.976H188.848ZM192.422 150.854V154.704C192.422 155.227 192.53 155.595 192.744 155.81C192.959 156.015 193.262 156.118 193.654 156.118C193.916 156.118 194.168 156.076 194.41 155.992V156.958C194.121 157.051 193.794 157.098 193.43 157.098C192.758 157.098 192.231 156.911 191.848 156.538C191.475 156.155 191.288 155.595 191.288 154.858V150.854H189.916V149.958H191.288V148.152L192.422 147.746V149.958H194.438V150.854H192.422ZM199.319 149.79C201.008 149.79 201.853 150.719 201.853 152.576V157H200.719V152.632C200.719 151.979 200.588 151.503 200.327 151.204C200.066 150.896 199.655 150.742 199.095 150.742C198.442 150.742 197.919 150.943 197.527 151.344C197.135 151.745 196.939 152.287 196.939 152.968V157H195.805V146.696H196.939V151.106C197.163 150.677 197.48 150.35 197.891 150.126C198.311 149.902 198.787 149.79 199.319 149.79ZM209.157 150.854V154.704C209.157 155.227 209.264 155.595 209.479 155.81C209.693 156.015 209.997 156.118 210.389 156.118C210.65 156.118 210.902 156.076 211.145 155.992V156.958C210.855 157.051 210.529 157.098 210.165 157.098C209.493 157.098 208.965 156.911 208.583 156.538C208.209 156.155 208.023 155.595 208.023 154.858V150.854H206.651V149.958H208.023V148.152L209.157 147.746V149.958H211.173V150.854H209.157ZM216.053 149.79C217.743 149.79 218.587 150.719 218.587 152.576V157H217.453V152.632C217.453 151.979 217.323 151.503 217.061 151.204C216.8 150.896 216.389 150.742 215.829 150.742C215.176 150.742 214.653 150.943 214.261 151.344C213.869 151.745 213.673 152.287 213.673 152.968V157H212.539V146.696H213.673V151.106C213.897 150.677 214.215 150.35 214.625 150.126C215.045 149.902 215.521 149.79 216.053 149.79ZM226.623 153.444H221.457C221.466 154.34 221.671 155.017 222.073 155.474C222.483 155.931 223.076 156.16 223.851 156.16C224.672 156.16 225.428 155.885 226.119 155.334L226.497 156.16C226.189 156.449 225.792 156.678 225.307 156.846C224.831 157.014 224.341 157.098 223.837 157.098C222.735 157.098 221.872 156.776 221.247 156.132C220.621 155.479 220.309 154.587 220.309 153.458C220.309 152.739 220.449 152.105 220.729 151.554C221.009 150.994 221.401 150.56 221.905 150.252C222.409 149.944 222.983 149.79 223.627 149.79C224.56 149.79 225.293 150.098 225.825 150.714C226.357 151.321 226.623 152.161 226.623 153.234V153.444ZM223.641 150.672C223.053 150.672 222.572 150.849 222.199 151.204C221.835 151.559 221.601 152.058 221.499 152.702H225.601C225.545 152.039 225.349 151.535 225.013 151.19C224.686 150.845 224.229 150.672 223.641 150.672ZM228.344 149.958H229.478V157H228.344V149.958ZM229.618 146.976V148.264H228.232V146.976H229.618ZM234.956 149.79C235.189 149.79 235.404 149.818 235.6 149.874L235.572 150.91C235.357 150.835 235.11 150.798 234.83 150.798C234.149 150.798 233.64 151.013 233.304 151.442C232.977 151.862 232.814 152.375 232.814 152.982V157H231.68V151.932C231.68 151.204 231.643 150.546 231.568 149.958H232.646L232.758 151.26C232.935 150.784 233.22 150.42 233.612 150.168C234.004 149.916 234.452 149.79 234.956 149.79ZM243.917 149.79C244.533 149.79 245.079 149.944 245.555 150.252C246.031 150.56 246.399 150.994 246.661 151.554C246.922 152.105 247.053 152.744 247.053 153.472C247.053 154.2 246.922 154.839 246.661 155.39C246.399 155.931 246.031 156.351 245.555 156.65C245.088 156.949 244.542 157.098 243.917 157.098C243.366 157.098 242.885 156.977 242.475 156.734C242.064 156.491 241.751 156.146 241.537 155.698V160.024H240.403V151.932C240.403 151.204 240.365 150.546 240.291 149.958H241.369L241.481 151.316C241.677 150.831 241.985 150.457 242.405 150.196C242.834 149.925 243.338 149.79 243.917 149.79ZM243.707 156.16C244.397 156.16 244.929 155.927 245.303 155.46C245.685 154.993 245.877 154.331 245.877 153.472C245.877 152.613 245.685 151.946 245.303 151.47C244.92 150.985 244.388 150.742 243.707 150.742C243.007 150.742 242.47 150.975 242.097 151.442C241.723 151.909 241.537 152.576 241.537 153.444C241.537 154.312 241.723 154.984 242.097 155.46C242.47 155.927 243.007 156.16 243.707 156.16ZM254.999 149.958V157H253.879V155.726C253.674 156.165 253.361 156.505 252.941 156.748C252.53 156.981 252.05 157.098 251.499 157.098C250.874 157.098 250.323 156.949 249.847 156.65C249.38 156.351 249.016 155.931 248.755 155.39C248.503 154.839 248.377 154.2 248.377 153.472C248.377 152.744 248.508 152.105 248.769 151.554C249.03 150.994 249.394 150.56 249.861 150.252C250.337 149.944 250.883 149.79 251.499 149.79C252.05 149.79 252.53 149.911 252.941 150.154C253.352 150.397 253.664 150.737 253.879 151.176V149.958H254.999ZM251.723 156.16C252.414 156.16 252.946 155.927 253.319 155.46C253.692 154.984 253.879 154.312 253.879 153.444C253.879 152.576 253.692 151.909 253.319 151.442C252.946 150.975 252.414 150.742 251.723 150.742C251.032 150.742 250.491 150.985 250.099 151.47C249.716 151.946 249.525 152.613 249.525 153.472C249.525 154.331 249.716 154.993 250.099 155.46C250.482 155.927 251.023 156.16 251.723 156.16ZM263.464 149.958V156.944C263.464 157.989 263.193 158.778 262.652 159.31C262.12 159.851 261.331 160.122 260.286 160.122C259.212 160.122 258.288 159.879 257.514 159.394L257.71 158.47C258.158 158.722 258.578 158.904 258.97 159.016C259.371 159.128 259.81 159.184 260.286 159.184C260.967 159.184 261.48 159.002 261.826 158.638C262.171 158.283 262.344 157.751 262.344 157.042V155.376C262.129 155.824 261.812 156.174 261.392 156.426C260.981 156.669 260.491 156.79 259.922 156.79C259.306 156.79 258.755 156.645 258.27 156.356C257.794 156.067 257.425 155.656 257.164 155.124C256.902 154.592 256.772 153.981 256.772 153.29C256.772 152.599 256.902 151.988 257.164 151.456C257.425 150.924 257.794 150.513 258.27 150.224C258.755 149.935 259.306 149.79 259.922 149.79C260.482 149.79 260.967 149.911 261.378 150.154C261.798 150.397 262.115 150.737 262.33 151.176V149.958H263.464ZM260.146 155.838C260.827 155.838 261.359 155.614 261.742 155.166C262.134 154.709 262.33 154.083 262.33 153.29C262.33 152.497 262.134 151.876 261.742 151.428C261.359 150.971 260.827 150.742 260.146 150.742C259.455 150.742 258.909 150.971 258.508 151.428C258.116 151.876 257.92 152.497 257.92 153.29C257.92 154.083 258.116 154.709 258.508 155.166C258.909 155.614 259.455 155.838 260.146 155.838ZM271.535 153.444H266.369C266.378 154.34 266.583 155.017 266.985 155.474C267.395 155.931 267.988 156.16 268.763 156.16C269.584 156.16 270.34 155.885 271.031 155.334L271.409 156.16C271.101 156.449 270.704 156.678 270.219 156.846C269.743 157.014 269.253 157.098 268.749 157.098C267.647 157.098 266.784 156.776 266.159 156.132C265.533 155.479 265.221 154.587 265.221 153.458C265.221 152.739 265.361 152.105 265.641 151.554C265.921 150.994 266.313 150.56 266.817 150.252C267.321 149.944 267.895 149.79 268.539 149.79C269.472 149.79 270.205 150.098 270.737 150.714C271.269 151.321 271.535 152.161 271.535 153.234V153.444ZM268.553 150.672C267.965 150.672 267.484 150.849 267.111 151.204C266.747 151.559 266.513 152.058 266.411 152.702H270.513C270.457 152.039 270.261 151.535 269.925 151.19C269.598 150.845 269.141 150.672 268.553 150.672ZM106.604 168.854V172.704C106.604 173.227 106.711 173.595 106.926 173.81C107.141 174.015 107.444 174.118 107.836 174.118C108.097 174.118 108.349 174.076 108.592 173.992V174.958C108.303 175.051 107.976 175.098 107.612 175.098C106.94 175.098 106.413 174.911 106.03 174.538C105.657 174.155 105.47 173.595 105.47 172.858V168.854H104.098V167.958H105.47V166.152L106.604 165.746V167.958H108.62V168.854H106.604ZM115.881 171.444H110.715C110.724 172.34 110.929 173.017 111.331 173.474C111.741 173.931 112.334 174.16 113.109 174.16C113.93 174.16 114.686 173.885 115.377 173.334L115.755 174.16C115.447 174.449 115.05 174.678 114.565 174.846C114.089 175.014 113.599 175.098 113.095 175.098C111.993 175.098 111.13 174.776 110.505 174.132C109.879 173.479 109.567 172.587 109.567 171.458C109.567 170.739 109.707 170.105 109.987 169.554C110.267 168.994 110.659 168.56 111.163 168.252C111.667 167.944 112.241 167.79 112.885 167.79C113.818 167.79 114.551 168.098 115.083 168.714C115.615 169.321 115.881 170.161 115.881 171.234V171.444ZM112.899 168.672C112.311 168.672 111.83 168.849 111.457 169.204C111.093 169.559 110.859 170.058 110.757 170.702H114.859C114.803 170.039 114.607 169.535 114.271 169.19C113.944 168.845 113.487 168.672 112.899 168.672ZM125.414 167.79C126.972 167.79 127.752 168.719 127.752 170.576V175H126.618V170.632C126.618 169.969 126.501 169.489 126.268 169.19C126.044 168.891 125.675 168.742 125.162 168.742C124.564 168.742 124.098 168.943 123.762 169.344C123.426 169.745 123.258 170.291 123.258 170.982V175H122.124V170.632C122.124 169.979 122.007 169.503 121.774 169.204C121.54 168.896 121.167 168.742 120.654 168.742C120.056 168.742 119.585 168.943 119.24 169.344C118.904 169.745 118.736 170.291 118.736 170.982V175H117.602V169.932C117.602 169.204 117.564 168.546 117.49 167.958H118.568L118.68 169.19C118.876 168.742 119.165 168.397 119.548 168.154C119.94 167.911 120.392 167.79 120.906 167.79C121.466 167.79 121.923 167.902 122.278 168.126C122.632 168.35 122.894 168.695 123.062 169.162C123.276 168.742 123.589 168.411 124 168.168C124.42 167.916 124.891 167.79 125.414 167.79ZM133.42 167.79C134.036 167.79 134.582 167.944 135.058 168.252C135.534 168.56 135.903 168.994 136.164 169.554C136.426 170.105 136.556 170.744 136.556 171.472C136.556 172.2 136.426 172.839 136.164 173.39C135.903 173.931 135.534 174.351 135.058 174.65C134.592 174.949 134.046 175.098 133.42 175.098C132.87 175.098 132.389 174.977 131.978 174.734C131.568 174.491 131.255 174.146 131.04 173.698V178.024H129.906V169.932C129.906 169.204 129.869 168.546 129.794 167.958H130.872L130.984 169.316C131.18 168.831 131.488 168.457 131.908 168.196C132.338 167.925 132.842 167.79 133.42 167.79ZM133.21 174.16C133.901 174.16 134.433 173.927 134.806 173.46C135.189 172.993 135.38 172.331 135.38 171.472C135.38 170.613 135.189 169.946 134.806 169.47C134.424 168.985 133.892 168.742 133.21 168.742C132.51 168.742 131.974 168.975 131.6 169.442C131.227 169.909 131.04 170.576 131.04 171.444C131.04 172.312 131.227 172.984 131.6 173.46C131.974 173.927 132.51 174.16 133.21 174.16ZM138.301 164.696H139.435V175H138.301V164.696ZM147.839 167.958V175H146.719V173.726C146.514 174.165 146.201 174.505 145.781 174.748C145.37 174.981 144.89 175.098 144.339 175.098C143.714 175.098 143.163 174.949 142.687 174.65C142.22 174.351 141.856 173.931 141.595 173.39C141.343 172.839 141.217 172.2 141.217 171.472C141.217 170.744 141.348 170.105 141.609 169.554C141.87 168.994 142.234 168.56 142.701 168.252C143.177 167.944 143.723 167.79 144.339 167.79C144.89 167.79 145.37 167.911 145.781 168.154C146.192 168.397 146.504 168.737 146.719 169.176V167.958H147.839ZM144.563 174.16C145.254 174.16 145.786 173.927 146.159 173.46C146.532 172.984 146.719 172.312 146.719 171.444C146.719 170.576 146.532 169.909 146.159 169.442C145.786 168.975 145.254 168.742 144.563 168.742C143.872 168.742 143.331 168.985 142.939 169.47C142.556 169.946 142.365 170.613 142.365 171.472C142.365 172.331 142.556 172.993 142.939 173.46C143.322 173.927 143.863 174.16 144.563 174.16ZM151.543 168.854V172.704C151.543 173.227 151.651 173.595 151.865 173.81C152.08 174.015 152.383 174.118 152.775 174.118C153.037 174.118 153.289 174.076 153.531 173.992V174.958C153.242 175.051 152.915 175.098 152.551 175.098C151.879 175.098 151.352 174.911 150.969 174.538C150.596 174.155 150.409 173.595 150.409 172.858V168.854H149.037V167.958H150.409V166.152L151.543 165.746V167.958H153.559V168.854H151.543ZM160.82 171.444H155.654C155.663 172.34 155.869 173.017 156.27 173.474C156.681 173.931 157.273 174.16 158.048 174.16C158.869 174.16 159.625 173.885 160.316 173.334L160.694 174.16C160.386 174.449 159.989 174.678 159.504 174.846C159.028 175.014 158.538 175.098 158.034 175.098C156.933 175.098 156.069 174.776 155.444 174.132C154.819 173.479 154.506 172.587 154.506 171.458C154.506 170.739 154.646 170.105 154.926 169.554C155.206 168.994 155.598 168.56 156.102 168.252C156.606 167.944 157.18 167.79 157.824 167.79C158.757 167.79 159.49 168.098 160.022 168.714C160.554 169.321 160.82 170.161 160.82 171.234V171.444ZM157.838 168.672C157.25 168.672 156.769 168.849 156.396 169.204C156.032 169.559 155.799 170.058 155.696 170.702H159.798C159.742 170.039 159.546 169.535 159.21 169.19C158.883 168.845 158.426 168.672 157.838 168.672ZM164.921 175.098C163.736 175.098 162.798 174.795 162.107 174.188L162.485 173.348C162.868 173.647 163.255 173.861 163.647 173.992C164.039 174.123 164.478 174.188 164.963 174.188C165.495 174.188 165.897 174.099 166.167 173.922C166.447 173.735 166.587 173.469 166.587 173.124C166.587 172.844 166.494 172.62 166.307 172.452C166.121 172.284 165.813 172.153 165.383 172.06L164.193 171.78C163.605 171.649 163.148 171.416 162.821 171.08C162.504 170.744 162.345 170.343 162.345 169.876C162.345 169.26 162.593 168.761 163.087 168.378C163.582 167.986 164.235 167.79 165.047 167.79C165.542 167.79 166.009 167.869 166.447 168.028C166.886 168.187 167.255 168.415 167.553 168.714L167.175 169.54C166.513 168.989 165.803 168.714 165.047 168.714C164.543 168.714 164.151 168.812 163.871 169.008C163.601 169.195 163.465 169.461 163.465 169.806C163.465 170.095 163.549 170.324 163.717 170.492C163.895 170.66 164.175 170.791 164.557 170.884L165.747 171.178C166.401 171.327 166.886 171.561 167.203 171.878C167.521 172.186 167.679 172.592 167.679 173.096C167.679 173.703 167.432 174.188 166.937 174.552C166.443 174.916 165.771 175.098 164.921 175.098ZM179.339 167.958V175H178.219V173.726C178.014 174.165 177.701 174.505 177.281 174.748C176.87 174.981 176.39 175.098 175.839 175.098C175.214 175.098 174.663 174.949 174.187 174.65C173.72 174.351 173.356 173.931 173.095 173.39C172.843 172.839 172.717 172.2 172.717 171.472C172.717 170.744 172.848 170.105 173.109 169.554C173.37 168.994 173.734 168.56 174.201 168.252C174.677 167.944 175.223 167.79 175.839 167.79C176.39 167.79 176.87 167.911 177.281 168.154C177.692 168.397 178.004 168.737 178.219 169.176V167.958H179.339ZM176.063 174.16C176.754 174.16 177.286 173.927 177.659 173.46C178.032 172.984 178.219 172.312 178.219 171.444C178.219 170.576 178.032 169.909 177.659 169.442C177.286 168.975 176.754 168.742 176.063 168.742C175.372 168.742 174.831 168.985 174.439 169.47C174.056 169.946 173.865 170.613 173.865 171.472C173.865 172.331 174.056 172.993 174.439 173.46C174.822 173.927 175.363 174.16 176.063 174.16ZM185.045 167.79C186.735 167.79 187.579 168.719 187.579 170.576V175H186.445V170.632C186.445 169.979 186.315 169.503 186.053 169.204C185.792 168.896 185.381 168.742 184.821 168.742C184.168 168.742 183.645 168.943 183.253 169.344C182.861 169.745 182.665 170.287 182.665 170.968V175H181.531V169.932C181.531 169.204 181.494 168.546 181.419 167.958H182.497L182.609 169.218C182.824 168.761 183.146 168.411 183.575 168.168C184.005 167.916 184.495 167.79 185.045 167.79ZM195.923 164.696V175H194.803V173.726C194.598 174.165 194.285 174.505 193.865 174.748C193.454 174.981 192.974 175.098 192.423 175.098C191.807 175.098 191.261 174.944 190.785 174.636C190.318 174.328 189.954 173.899 189.693 173.348C189.432 172.788 189.301 172.144 189.301 171.416C189.301 170.688 189.427 170.053 189.679 169.512C189.94 168.961 190.309 168.537 190.785 168.238C191.261 167.939 191.807 167.79 192.423 167.79C192.974 167.79 193.454 167.911 193.865 168.154C194.276 168.387 194.584 168.719 194.789 169.148V164.696H195.923ZM192.647 174.16C193.338 174.16 193.87 173.927 194.243 173.46C194.616 172.984 194.803 172.312 194.803 171.444C194.803 170.585 194.616 169.923 194.243 169.456C193.87 168.98 193.338 168.742 192.647 168.742C191.956 168.742 191.415 168.975 191.023 169.442C190.64 169.909 190.449 170.567 190.449 171.416C190.449 172.284 190.64 172.961 191.023 173.446C191.415 173.922 191.956 174.16 192.647 174.16ZM207.758 174.832C208.168 175.569 208.77 176.274 209.564 176.946L208.766 177.674C208.374 177.375 207.982 176.993 207.59 176.526C207.198 176.069 206.857 175.588 206.568 175.084C206.362 175.103 206.199 175.112 206.078 175.112C205.154 175.112 204.351 174.907 203.67 174.496C202.988 174.085 202.461 173.497 202.088 172.732C201.724 171.957 201.542 171.052 201.542 170.016C201.542 168.971 201.724 168.065 202.088 167.3C202.452 166.535 202.974 165.947 203.656 165.536C204.337 165.125 205.144 164.92 206.078 164.92C207.011 164.92 207.818 165.125 208.5 165.536C209.181 165.947 209.704 166.535 210.068 167.3C210.432 168.065 210.614 168.966 210.614 170.002C210.614 171.225 210.362 172.256 209.858 173.096C209.363 173.927 208.663 174.505 207.758 174.832ZM202.718 170.002C202.718 171.318 203.012 172.335 203.6 173.054C204.188 173.773 205.014 174.132 206.078 174.132C207.132 174.132 207.954 173.773 208.542 173.054C209.13 172.335 209.424 171.318 209.424 170.002C209.424 168.686 209.13 167.673 208.542 166.964C207.963 166.255 207.142 165.9 206.078 165.9C205.014 165.9 204.188 166.259 203.6 166.978C203.012 167.687 202.718 168.695 202.718 170.002ZM218.474 167.958V175H217.368V173.782C217.144 174.211 216.832 174.538 216.43 174.762C216.029 174.986 215.576 175.098 215.072 175.098C214.242 175.098 213.612 174.865 213.182 174.398C212.753 173.931 212.538 173.241 212.538 172.326V167.958H213.672V172.298C213.672 172.933 213.803 173.399 214.064 173.698C214.326 173.997 214.722 174.146 215.254 174.146C215.88 174.146 216.384 173.945 216.766 173.544C217.149 173.133 217.34 172.597 217.34 171.934V167.958H218.474ZM226.862 167.958V175H225.742V173.726C225.537 174.165 225.224 174.505 224.804 174.748C224.394 174.981 223.913 175.098 223.362 175.098C222.737 175.098 222.186 174.949 221.71 174.65C221.244 174.351 220.88 173.931 220.618 173.39C220.366 172.839 220.24 172.2 220.24 171.472C220.24 170.744 220.371 170.105 220.632 169.554C220.894 168.994 221.258 168.56 221.724 168.252C222.2 167.944 222.746 167.79 223.362 167.79C223.913 167.79 224.394 167.911 224.804 168.154C225.215 168.397 225.528 168.737 225.742 169.176V167.958H226.862ZM223.586 174.16C224.277 174.16 224.809 173.927 225.182 173.46C225.556 172.984 225.742 172.312 225.742 171.444C225.742 170.576 225.556 169.909 225.182 169.442C224.809 168.975 224.277 168.742 223.586 168.742C222.896 168.742 222.354 168.985 221.962 169.47C221.58 169.946 221.388 170.613 221.388 171.472C221.388 172.331 221.58 172.993 221.962 173.46C222.345 173.927 222.886 174.16 223.586 174.16ZM229.055 164.696H230.189V175H229.055V164.696ZM232.391 167.958H233.525V175H232.391V167.958ZM233.665 164.976V166.264H232.279V164.976H233.665ZM237.239 168.854V172.704C237.239 173.227 237.346 173.595 237.561 173.81C237.775 174.015 238.079 174.118 238.471 174.118C238.732 174.118 238.984 174.076 239.227 173.992V174.958C238.937 175.051 238.611 175.098 238.247 175.098C237.575 175.098 237.047 174.911 236.665 174.538C236.291 174.155 236.105 173.595 236.105 172.858V168.854H234.733V167.958H236.105V166.152L237.239 165.746V167.958H239.255V168.854H237.239ZM246.891 167.958L243.601 175.644C243.256 176.447 242.822 177.035 242.299 177.408C241.777 177.781 241.133 178.038 240.367 178.178L240.129 177.296C240.792 177.147 241.291 176.946 241.627 176.694C241.973 176.451 242.257 176.073 242.481 175.56L242.761 174.93L239.779 167.958H240.969L243.349 173.768L245.757 167.958H246.891ZM255.095 175.112C253.537 175.112 252.295 174.692 251.371 173.852L251.805 172.97C252.3 173.39 252.804 173.689 253.317 173.866C253.831 174.043 254.428 174.132 255.109 174.132C255.912 174.132 256.528 173.978 256.957 173.67C257.396 173.353 257.615 172.909 257.615 172.34C257.615 172.004 257.508 171.733 257.293 171.528C257.088 171.313 256.813 171.145 256.467 171.024C256.131 170.903 255.679 170.777 255.109 170.646C254.344 170.478 253.714 170.296 253.219 170.1C252.725 169.904 252.323 169.624 252.015 169.26C251.707 168.887 251.553 168.401 251.553 167.804C251.553 167.235 251.703 166.735 252.001 166.306C252.3 165.867 252.72 165.527 253.261 165.284C253.812 165.041 254.451 164.92 255.179 164.92C255.87 164.92 256.514 165.027 257.111 165.242C257.709 165.457 258.213 165.769 258.623 166.18L258.175 167.062C257.709 166.661 257.233 166.367 256.747 166.18C256.271 165.993 255.749 165.9 255.179 165.9C254.405 165.9 253.798 166.068 253.359 166.404C252.921 166.731 252.701 167.183 252.701 167.762C252.701 168.266 252.893 168.644 253.275 168.896C253.658 169.148 254.246 169.367 255.039 169.554C255.898 169.759 256.57 169.951 257.055 170.128C257.55 170.296 257.961 170.557 258.287 170.912C258.614 171.257 258.777 171.719 258.777 172.298C258.777 172.858 258.628 173.353 258.329 173.782C258.031 174.202 257.601 174.529 257.041 174.762C256.491 174.995 255.842 175.112 255.095 175.112ZM263.468 175.098C262.787 175.098 262.189 174.949 261.676 174.65C261.172 174.351 260.78 173.931 260.5 173.39C260.229 172.839 260.094 172.2 260.094 171.472C260.094 170.744 260.234 170.105 260.514 169.554C260.794 168.994 261.191 168.56 261.704 168.252C262.227 167.944 262.833 167.79 263.524 167.79C264 167.79 264.457 167.874 264.896 168.042C265.344 168.201 265.713 168.425 266.002 168.714L265.624 169.554C265.269 169.274 264.924 169.069 264.588 168.938C264.261 168.807 263.925 168.742 263.58 168.742C262.861 168.742 262.297 168.985 261.886 169.47C261.475 169.946 261.27 170.613 261.27 171.472C261.27 172.321 261.471 172.984 261.872 173.46C262.283 173.927 262.852 174.16 263.58 174.16C263.925 174.16 264.261 174.095 264.588 173.964C264.924 173.833 265.269 173.628 265.624 173.348L266.002 174.188C265.703 174.468 265.325 174.692 264.868 174.86C264.42 175.019 263.953 175.098 263.468 175.098ZM270.358 175.098C269.695 175.098 269.112 174.949 268.608 174.65C268.104 174.351 267.712 173.927 267.432 173.376C267.161 172.825 267.026 172.181 267.026 171.444C267.026 170.707 267.161 170.063 267.432 169.512C267.712 168.961 268.104 168.537 268.608 168.238C269.112 167.939 269.695 167.79 270.358 167.79C271.02 167.79 271.604 167.939 272.108 168.238C272.612 168.537 272.999 168.961 273.27 169.512C273.55 170.063 273.69 170.707 273.69 171.444C273.69 172.181 273.55 172.825 273.27 173.376C272.999 173.927 272.612 174.351 272.108 174.65C271.604 174.949 271.02 175.098 270.358 175.098ZM270.358 174.16C271.058 174.16 271.594 173.931 271.968 173.474C272.341 173.007 272.528 172.331 272.528 171.444C272.528 170.585 272.336 169.923 271.954 169.456C271.571 168.98 271.039 168.742 270.358 168.742C269.667 168.742 269.13 168.98 268.748 169.456C268.365 169.923 268.174 170.585 268.174 171.444C268.174 172.331 268.36 173.007 268.734 173.474C269.116 173.931 269.658 174.16 270.358 174.16ZM278.733 167.79C278.967 167.79 279.181 167.818 279.377 167.874L279.349 168.91C279.135 168.835 278.887 168.798 278.607 168.798C277.926 168.798 277.417 169.013 277.081 169.442C276.755 169.862 276.591 170.375 276.591 170.982V175H275.457V169.932C275.457 169.204 275.42 168.546 275.345 167.958H276.423L276.535 169.26C276.713 168.784 276.997 168.42 277.389 168.168C277.781 167.916 278.229 167.79 278.733 167.79ZM286.287 171.444H281.121C281.13 172.34 281.335 173.017 281.737 173.474C282.147 173.931 282.74 174.16 283.515 174.16C284.336 174.16 285.092 173.885 285.783 173.334L286.161 174.16C285.853 174.449 285.456 174.678 284.971 174.846C284.495 175.014 284.005 175.098 283.501 175.098C282.399 175.098 281.536 174.776 280.911 174.132C280.285 173.479 279.973 172.587 279.973 171.458C279.973 170.739 280.113 170.105 280.393 169.554C280.673 168.994 281.065 168.56 281.569 168.252C282.073 167.944 282.647 167.79 283.291 167.79C284.224 167.79 284.957 168.098 285.489 168.714C286.021 169.321 286.287 170.161 286.287 171.234V171.444ZM283.305 168.672C282.717 168.672 282.236 168.849 281.863 169.204C281.499 169.559 281.265 170.058 281.163 170.702H285.265C285.209 170.039 285.013 169.535 284.677 169.19C284.35 168.845 283.893 168.672 283.305 168.672Z" fill="#5B5151"/>
<circle cx="81" cy="140" r="15" fill="white"/>
<mask id="mask1" mask-type="alpha" maskUnits="userSpaceOnUse" x="66" y="125" width="30" height="30">
<circle cx="81" cy="140" r="15" fill="#F4F4EA"/>
</mask>
<g mask="url(#mask1)">
<path fill-rule="evenodd" clip-rule="evenodd" d="M86.9322 132.298C85.524 136.565 84.165 140.437 82.785 144.704C82.7024 145.067 82.5194 145.399 82.2569 145.662C81.8951 145.926 81.4494 146.048 81.0035 146.007H79.3418L80.2853 148.274H82.8976C83.252 148.296 83.6053 148.216 83.9158 148.044C84.2264 147.872 84.4814 147.614 84.6509 147.302C84.7643 147.09 84.8609 146.868 84.9396 146.641L89.798 132.298H86.9322Z" fill="#635452"/>
<path fill-rule="evenodd" clip-rule="evenodd" d="M77.376 140.043H79.087C79.2676 140.052 79.4378 140.13 79.5623 140.261C79.6868 140.392 79.7562 140.566 79.7559 140.747V140.902C79.7562 141.083 79.6868 141.257 79.5623 141.388C79.4378 141.519 79.2676 141.597 79.087 141.606H77.376C77.1893 141.606 77.0102 141.532 76.8781 141.4C76.7461 141.268 76.6719 141.089 76.6719 140.902V140.747C76.6719 140.56 76.7461 140.381 76.8781 140.249C77.0102 140.117 77.1893 140.043 77.376 140.043Z" fill="#F0AD00"/>
<path fill-rule="evenodd" clip-rule="evenodd" d="M80.8545 140.043H82.643C82.8297 140.043 83.0088 140.117 83.1409 140.249C83.2729 140.381 83.3471 140.56 83.3471 140.747V140.902C83.3471 141.089 83.2729 141.268 83.1409 141.4C83.0088 141.532 82.8297 141.606 82.643 141.606H80.8545C80.6678 141.606 80.4887 141.532 80.3566 141.4C80.2246 141.268 80.1504 141.089 80.1504 140.902V140.747C80.1504 140.56 80.2246 140.381 80.3566 140.249C80.4887 140.117 80.6678 140.043 80.8545 140.043Z" fill="#E1760C"/>
<path fill-rule="evenodd" clip-rule="evenodd" d="M76.7354 138.114H78.5872C78.768 138.113 78.942 138.183 79.0731 138.307C79.2041 138.432 79.2823 138.602 79.2913 138.782V138.944C79.2913 139.131 79.2172 139.31 79.0851 139.442C78.9531 139.574 78.774 139.649 78.5872 139.649H76.7354C76.5486 139.649 76.3695 139.574 76.2375 139.442C76.1054 139.31 76.0312 139.131 76.0312 138.944V138.782C76.0403 138.602 76.1184 138.432 76.2495 138.307C76.3806 138.183 76.5546 138.113 76.7354 138.114Z" fill="#E1760C"/>
<path fill-rule="evenodd" clip-rule="evenodd" d="M80.3682 138.114H83.3114C83.4861 138.122 83.6513 138.195 83.7749 138.319C83.8986 138.443 83.9718 138.608 83.9803 138.782V138.944C83.9806 139.125 83.9112 139.299 83.7867 139.43C83.6622 139.561 83.492 139.639 83.3114 139.649H80.3682C80.1814 139.649 80.0023 139.574 79.8703 139.442C79.7382 139.31 79.6641 139.131 79.6641 138.944V138.782C79.6731 138.602 79.7513 138.432 79.8823 138.307C80.0134 138.183 80.1874 138.113 80.3682 138.114Z" fill="#F0AD00"/>
<path fill-rule="evenodd" clip-rule="evenodd" d="M80.1026 141.986H82.0107C82.1913 141.995 82.3615 142.074 82.486 142.205C82.6105 142.336 82.6799 142.51 82.6797 142.69V142.859C82.6799 143.04 82.6105 143.214 82.486 143.345C82.3615 143.476 82.1913 143.555 82.0107 143.564H80.1026C79.9158 143.564 79.7367 143.489 79.6047 143.357C79.4726 143.225 79.3984 143.046 79.3984 142.859V142.697C79.3984 142.511 79.4726 142.332 79.6047 142.2C79.7367 142.068 79.9158 141.993 80.1026 141.993V141.986Z" fill="#D65359"/>
<path fill-rule="evenodd" clip-rule="evenodd" d="M79.0166 143.923H81.3684C81.5551 143.923 81.7342 143.997 81.8663 144.129C81.9983 144.261 82.0725 144.44 82.0725 144.627V144.789C82.0725 144.976 81.9983 145.155 81.8663 145.287C81.7342 145.419 81.5551 145.493 81.3684 145.493H79.0166C78.8299 145.493 78.6508 145.419 78.5187 145.287C78.3867 145.155 78.3125 144.976 78.3125 144.789V144.627C78.3125 144.44 78.3867 144.261 78.5187 144.129C78.6508 143.997 78.8299 143.923 79.0166 143.923Z" fill="#F0AD00"/>
<path fill-rule="evenodd" clip-rule="evenodd" d="M78.0811 136.17H80.3836C80.5703 136.17 80.7494 136.244 80.8814 136.376C81.0135 136.508 81.0877 136.688 81.0877 136.874V137.036C81.0877 137.223 81.0135 137.402 80.8814 137.534C80.7494 137.666 80.5703 137.74 80.3836 137.74H78.0811C77.8943 137.74 77.7152 137.666 77.5832 137.534C77.4511 137.402 77.377 137.223 77.377 137.036V136.874C77.377 136.688 77.4511 136.508 77.5832 136.376C77.7152 136.244 77.8943 136.17 78.0811 136.17Z" fill="#F0AD00"/>
<path fill-rule="evenodd" clip-rule="evenodd" d="M82.1358 136.17H83.9665C84.1532 136.17 84.3323 136.244 84.4644 136.376C84.5964 136.508 84.6706 136.688 84.6706 136.874V137.036C84.6706 137.223 84.5964 137.402 84.4644 137.534C84.3323 137.666 84.1532 137.74 83.9665 137.74H82.1358C81.949 137.74 81.7699 137.666 81.6379 137.534C81.5058 137.402 81.4316 137.223 81.4316 137.036V136.874C81.4316 136.688 81.5058 136.508 81.6379 136.376C81.7699 136.244 81.949 136.17 82.1358 136.17Z" fill="#E1760C"/>
<path fill-rule="evenodd" clip-rule="evenodd" d="M76.2429 136.17C76.3933 136.17 76.5403 136.215 76.6654 136.298C76.7904 136.382 76.8879 136.501 76.9455 136.64C77.003 136.779 77.0181 136.931 76.9888 137.079C76.9594 137.227 76.887 137.362 76.7806 137.468C76.6743 137.575 76.5388 137.647 76.3913 137.676C76.2437 137.706 76.0909 137.691 75.9519 137.633C75.8129 137.576 75.6942 137.478 75.6106 137.353C75.5271 137.228 75.4825 137.081 75.4825 136.931C75.4815 136.831 75.5005 136.731 75.5384 136.639C75.5763 136.546 75.6323 136.462 75.7031 136.391C75.7739 136.32 75.8581 136.264 75.9508 136.226C76.0435 136.188 76.1428 136.169 76.2429 136.17Z" fill="#D65359"/>
<path fill-rule="evenodd" clip-rule="evenodd" d="M74.8975 134.234H79.4884C79.6751 134.234 79.8542 134.308 79.9863 134.44C80.1183 134.572 80.1925 134.751 80.1925 134.938V135.1C80.1925 135.287 80.1183 135.466 79.9863 135.598C79.8542 135.73 79.6751 135.804 79.4884 135.804H74.8975C74.7107 135.804 74.5316 135.73 74.3996 135.598C74.2675 135.466 74.1934 135.287 74.1934 135.1V134.938C74.1934 134.751 74.2675 134.572 74.3996 134.44C74.5316 134.308 74.7107 134.234 74.8975 134.234Z" fill="#D65359"/>
<path fill-rule="evenodd" clip-rule="evenodd" d="M81.2139 134.234H84.6218C84.8086 134.234 84.9877 134.308 85.1197 134.44C85.2518 134.572 85.326 134.751 85.326 134.938V135.1C85.326 135.287 85.2518 135.466 85.1197 135.598C84.9877 135.73 84.8086 135.804 84.6218 135.804H81.2139C81.0271 135.804 80.848 135.73 80.716 135.598C80.5839 135.466 80.5098 135.287 80.5098 135.1V134.938C80.5098 134.751 80.5839 134.572 80.716 134.44C80.848 134.308 81.0271 134.234 81.2139 134.234Z" fill="#F0AD00"/>
<path fill-rule="evenodd" clip-rule="evenodd" d="M73.6162 132.297H77.1791C77.3658 132.297 77.5449 132.372 77.677 132.504C77.809 132.636 77.8832 132.815 77.8832 133.001V133.156C77.8832 133.343 77.809 133.522 77.677 133.654C77.5449 133.786 77.3658 133.861 77.1791 133.861H73.6162C73.4295 133.861 73.2504 133.786 73.1183 133.654C72.9863 133.522 72.9121 133.343 72.9121 133.156V133.001C72.9121 132.815 72.9863 132.636 73.1183 132.504C73.2504 132.372 73.4295 132.297 73.6162 132.297Z" fill="#E1760C"/>
<path fill-rule="evenodd" clip-rule="evenodd" d="M80.8975 132.297H85.256C85.4428 132.297 85.6218 132.372 85.7539 132.504C85.8859 132.636 85.9601 132.815 85.9601 133.001V133.156C85.9601 133.343 85.8859 133.522 85.7539 133.654C85.6218 133.786 85.4428 133.861 85.256 133.861H80.8975C80.7107 133.861 80.5316 133.786 80.3996 133.654C80.2675 133.522 80.1934 133.343 80.1934 133.156V133.001C80.1934 132.815 80.2675 132.636 80.3996 132.504C80.5316 132.372 80.7107 132.297 80.8975 132.297Z" fill="#D65359"/>
<path fill-rule="evenodd" clip-rule="evenodd" d="M79.0386 132.297C79.1876 132.297 79.3332 132.342 79.4571 132.424C79.581 132.507 79.6776 132.625 79.7346 132.762C79.7917 132.9 79.8066 133.052 79.7775 133.198C79.7484 133.344 79.6767 133.478 79.5713 133.584C79.466 133.689 79.3317 133.761 79.1856 133.79C79.0394 133.819 78.8879 133.804 78.7503 133.747C78.6126 133.69 78.4949 133.593 78.4121 133.469C78.3293 133.345 78.2852 133.2 78.2852 133.051C78.2852 132.851 78.3645 132.659 78.5058 132.518C78.6471 132.377 78.8388 132.297 79.0386 132.297Z" fill="#F0AD00"/>
<path fill-rule="evenodd" clip-rule="evenodd" d="M78.2437 141.986C78.3947 141.985 78.5427 142.028 78.6688 142.111C78.7949 142.194 78.8935 142.313 78.9519 142.452C79.0103 142.592 79.026 142.745 78.9969 142.893C78.9677 143.041 78.8952 143.177 78.7884 143.284C78.6816 143.391 78.5455 143.464 78.3973 143.493C78.2492 143.522 78.0957 143.506 77.9564 143.448C77.8172 143.389 77.6985 143.291 77.6155 143.165C77.5325 143.039 77.4889 142.891 77.4903 142.74C77.4903 142.54 77.5696 142.348 77.7109 142.207C77.8522 142.065 78.0439 141.986 78.2437 141.986Z" fill="#E1760C"/>
</g>
<path d="M169 20.08C168.2 20.08 167.59 19.7733 167.17 19.16C166.757 18.54 166.55 17.6333 166.55 16.44C166.55 15.2467 166.757 14.3433 167.17 13.73C167.583 13.11 168.193 12.8 169 12.8C169.807 12.8 170.417 13.1067 170.83 13.72C171.243 14.3333 171.45 15.2367 171.45 16.43C171.45 17.6233 171.24 18.53 170.82 19.15C170.407 19.77 169.8 20.08 169 20.08ZM169 19.53C169.613 19.53 170.067 19.28 170.36 18.78C170.66 18.2733 170.81 17.49 170.81 16.43C170.81 15.37 170.663 14.5933 170.37 14.1C170.077 13.6 169.62 13.35 169 13.35C168.387 13.35 167.93 13.6 167.63 14.1C167.337 14.6 167.19 15.3767 167.19 16.43C167.19 17.4833 167.337 18.2633 167.63 18.77C167.93 19.2767 168.387 19.53 169 19.53ZM176.006 16.35C176.479 16.47 176.846 16.6867 177.106 17C177.366 17.3133 177.496 17.69 177.496 18.13C177.496 18.73 177.273 19.2033 176.826 19.55C176.379 19.8967 175.769 20.07 174.996 20.07C174.223 20.07 173.613 19.8967 173.166 19.55C172.719 19.2033 172.496 18.73 172.496 18.13C172.496 17.6967 172.629 17.3233 172.896 17.01C173.163 16.69 173.526 16.47 173.986 16.35C173.559 16.2233 173.229 16.0133 172.996 15.72C172.769 15.4267 172.656 15.08 172.656 14.68C172.656 14.3067 172.753 13.9767 172.946 13.69C173.139 13.4033 173.413 13.1833 173.766 13.03C174.126 12.8767 174.536 12.8 174.996 12.8C175.456 12.8 175.863 12.8767 176.216 13.03C176.576 13.1833 176.853 13.4033 177.046 13.69C177.239 13.9767 177.336 14.3067 177.336 14.68C177.336 15.08 177.219 15.4267 176.986 15.72C176.759 16.0133 176.433 16.2233 176.006 16.35ZM173.286 14.71C173.286 15.1167 173.439 15.4467 173.746 15.7C174.053 15.9533 174.469 16.1067 174.996 16.16C175.523 16.1067 175.939 15.9533 176.246 15.7C176.553 15.4467 176.706 15.1167 176.706 14.71C176.706 14.2833 176.556 13.95 176.256 13.71C175.956 13.4633 175.536 13.34 174.996 13.34C174.456 13.34 174.036 13.4633 173.736 13.71C173.436 13.95 173.286 14.2833 173.286 14.71ZM174.996 19.53C175.603 19.53 176.066 19.41 176.386 19.17C176.706 18.9233 176.866 18.5667 176.866 18.1C176.866 17.6733 176.693 17.3333 176.346 17.08C176.006 16.8267 175.556 16.6733 174.996 16.62C174.436 16.6733 173.983 16.8267 173.636 17.08C173.296 17.3333 173.126 17.6733 173.126 18.1C173.126 18.5667 173.286 18.9233 173.606 19.17C173.926 19.41 174.389 19.53 174.996 19.53ZM179.532 15.1V15.96L178.682 15.96V15.1L179.532 15.1ZM179.532 19.13V20H178.682V19.13H179.532ZM185.329 19.46V20L181.559 20V19.46H183.139L183.139 13.7L181.669 14.65V14.02L183.409 12.88L183.759 12.88L183.759 19.46L185.329 19.46ZM191.575 19.46V20L187.085 20V19.54L189.615 16.71C189.975 16.2967 190.235 15.9333 190.395 15.62C190.555 15.3 190.635 14.9833 190.635 14.67C190.635 14.2433 190.512 13.9167 190.265 13.69C190.025 13.4567 189.678 13.34 189.225 13.34C188.525 13.34 187.842 13.6267 187.175 14.2L186.915 13.71C187.195 13.4367 187.545 13.2167 187.965 13.05C188.385 12.8833 188.805 12.8 189.225 12.8C189.858 12.8 190.355 12.9667 190.715 13.3C191.082 13.6267 191.265 14.0733 191.265 14.64C191.265 15.0467 191.168 15.4433 190.975 15.83C190.788 16.2167 190.482 16.6467 190.055 17.12L187.915 19.46L191.575 19.46Z" fill="#5B5151"/>
<rect y="219" width="359" height="40" rx="10" fill="white"/>
<rect x="0.5" y="219.5" width="358" height="39" rx="9.5" stroke="#5B5151" stroke-opacity="0.1"/>
<rect x="319" y="219" width="40" height="40" rx="10" fill="#E37D38"/>
<path fill-rule="evenodd" clip-rule="evenodd" d="M345.003 247.657C343.225 246.774 344.092 244.48 345.313 242.914C346.37 241.558 347 239.853 347 238C347 233.582 343.418 230 339 230C334.582 230 331 233.582 331 238C331 242.418 334.582 246 339 246C339.185 246 339.359 246.084 339.478 246.226C340.79 247.78 342.979 248.433 345.001 247.698C345.02 247.691 345.021 247.666 345.003 247.657Z" fill="white" fill-opacity="0.55"/>
<path d="M19.64 235.012H16.168V234.032H24.274V235.012H20.802V244H19.64V235.012ZM30.6902 236.958L27.4002 244.644C27.0548 245.447 26.6208 246.035 26.0982 246.408C25.5755 246.781 24.9315 247.038 24.1662 247.178L23.9282 246.296C24.5908 246.147 25.0902 245.946 25.4262 245.694C25.7715 245.451 26.0562 245.073 26.2802 244.56L26.5602 243.93L23.5782 236.958H24.7682L27.1482 242.768L29.5562 236.958H30.6902ZM35.4537 236.79C36.0697 236.79 36.6157 236.944 37.0917 237.252C37.5677 237.56 37.9363 237.994 38.1977 238.554C38.459 239.105 38.5897 239.744 38.5897 240.472C38.5897 241.2 38.459 241.839 38.1977 242.39C37.9363 242.931 37.5677 243.351 37.0917 243.65C36.625 243.949 36.079 244.098 35.4537 244.098C34.903 244.098 34.4223 243.977 34.0117 243.734C33.601 243.491 33.2883 243.146 33.0737 242.698V247.024H31.9397V238.932C31.9397 238.204 31.9023 237.546 31.8277 236.958H32.9057L33.0177 238.316C33.2137 237.831 33.5217 237.457 33.9417 237.196C34.371 236.925 34.875 236.79 35.4537 236.79ZM35.2437 243.16C35.9343 243.16 36.4663 242.927 36.8397 242.46C37.2223 241.993 37.4137 241.331 37.4137 240.472C37.4137 239.613 37.2223 238.946 36.8397 238.47C36.457 237.985 35.925 237.742 35.2437 237.742C34.5437 237.742 34.007 237.975 33.6337 238.442C33.2603 238.909 33.0737 239.576 33.0737 240.444C33.0737 241.312 33.2603 241.984 33.6337 242.46C34.007 242.927 34.5437 243.16 35.2437 243.16ZM40.3342 236.958H41.4682V244H40.3342V236.958ZM41.6082 233.976V235.264H40.2222V233.976H41.6082ZM47.1841 236.79C48.8735 236.79 49.7181 237.719 49.7181 239.576V244H48.5841V239.632C48.5841 238.979 48.4535 238.503 48.1921 238.204C47.9308 237.896 47.5201 237.742 46.9601 237.742C46.3068 237.742 45.7841 237.943 45.3921 238.344C45.0001 238.745 44.8041 239.287 44.8041 239.968V244H43.6701V238.932C43.6701 238.204 43.6328 237.546 43.5581 236.958H44.6361L44.7481 238.218C44.9628 237.761 45.2848 237.411 45.7141 237.168C46.1435 236.916 46.6335 236.79 47.1841 236.79ZM58.1316 236.958V243.944C58.1316 244.989 57.8609 245.778 57.3196 246.31C56.7876 246.851 55.9989 247.122 54.9536 247.122C53.8802 247.122 52.9562 246.879 52.1816 246.394L52.3776 245.47C52.8256 245.722 53.2456 245.904 53.6376 246.016C54.0389 246.128 54.4776 246.184 54.9536 246.184C55.6349 246.184 56.1482 246.002 56.4936 245.638C56.8389 245.283 57.0116 244.751 57.0116 244.042V242.376C56.7969 242.824 56.4796 243.174 56.0596 243.426C55.6489 243.669 55.1589 243.79 54.5896 243.79C53.9736 243.79 53.4229 243.645 52.9376 243.356C52.4616 243.067 52.0929 242.656 51.8316 242.124C51.5702 241.592 51.4396 240.981 51.4396 240.29C51.4396 239.599 51.5702 238.988 51.8316 238.456C52.0929 237.924 52.4616 237.513 52.9376 237.224C53.4229 236.935 53.9736 236.79 54.5896 236.79C55.1496 236.79 55.6349 236.911 56.0456 237.154C56.4656 237.397 56.7829 237.737 56.9976 238.176V236.958H58.1316ZM54.8136 242.838C55.4949 242.838 56.0269 242.614 56.4096 242.166C56.8016 241.709 56.9976 241.083 56.9976 240.29C56.9976 239.497 56.8016 238.876 56.4096 238.428C56.0269 237.971 55.4949 237.742 54.8136 237.742C54.1229 237.742 53.5769 237.971 53.1756 238.428C52.7836 238.876 52.5876 239.497 52.5876 240.29C52.5876 241.083 52.7836 241.709 53.1756 242.166C53.5769 242.614 54.1229 242.838 54.8136 242.838ZM61.5548 242.558V244H60.1128V242.558H61.5548ZM64.795 242.558V244H63.353V242.558H64.795ZM68.0353 242.558V244H66.5933V242.558H68.0353Z" fill="#5B5151"/>
</svg>
