<svg width="359" height="204" viewBox="0 0 359 204" fill="none" xmlns="http://www.w3.org/2000/svg">
<rect width="359" height="204" rx="12" fill="white"/>
<rect x="0.5" y="0.5" width="358" height="203" rx="11.5" stroke="#5B5151" stroke-opacity="0.1"/>
<path d="M16 36C16 24.9543 24.9543 16 36 16H283C294.046 16 303 24.9543 303 36V56C303 67.0457 294.046 76 283 76H16V36Z" fill="#F5FFF6"/>
<path d="M65.232 32.032H66.38V42H65.232V32.032ZM83.0478 34.958L80.4438 42H79.3518L77.3358 36.498L75.3338 42H74.2418L71.6378 34.958H72.8278L74.8158 40.642L76.8738 34.958H77.8678L79.8978 40.656L81.9278 34.958H83.0478ZM87.3497 42.098C86.687 42.098 86.1037 41.9487 85.5997 41.65C85.0957 41.3513 84.7037 40.9267 84.4237 40.376C84.153 39.8253 84.0177 39.1813 84.0177 38.444C84.0177 37.7067 84.153 37.0627 84.4237 36.512C84.7037 35.9613 85.0957 35.5367 85.5997 35.238C86.1037 34.9393 86.687 34.79 87.3497 34.79C88.0124 34.79 88.5957 34.9393 89.0997 35.238C89.6037 35.5367 89.991 35.9613 90.2617 36.512C90.5417 37.0627 90.6817 37.7067 90.6817 38.444C90.6817 39.1813 90.5417 39.8253 90.2617 40.376C89.991 40.9267 89.6037 41.3513 89.0997 41.65C88.5957 41.9487 88.0124 42.098 87.3497 42.098ZM87.3497 41.16C88.0497 41.16 88.5864 40.9313 88.9597 40.474C89.333 40.0073 89.5197 39.3307 89.5197 38.444C89.5197 37.5853 89.3284 36.9227 88.9457 36.456C88.563 35.98 88.031 35.742 87.3497 35.742C86.659 35.742 86.1224 35.98 85.7397 36.456C85.357 36.9227 85.1657 37.5853 85.1657 38.444C85.1657 39.3307 85.3524 40.0073 85.7257 40.474C86.1084 40.9313 86.6497 41.16 87.3497 41.16ZM98.3434 34.958V42H97.2374V40.782C97.0134 41.2113 96.7008 41.538 96.2994 41.762C95.8981 41.986 95.4454 42.098 94.9414 42.098C94.1108 42.098 93.4808 41.8647 93.0514 41.398C92.6221 40.9313 92.4074 40.2407 92.4074 39.326V34.958H93.5414V39.298C93.5414 39.9327 93.6721 40.3993 93.9334 40.698C94.1948 40.9967 94.5914 41.146 95.1234 41.146C95.7488 41.146 96.2528 40.9453 96.6354 40.544C97.0181 40.1333 97.2094 39.5967 97.2094 38.934V34.958H98.3434ZM100.53 31.696H101.664V42H100.53V31.696ZM110.067 31.696V42H108.947V40.726C108.742 41.1647 108.429 41.5053 108.009 41.748C107.599 41.9813 107.118 42.098 106.567 42.098C105.951 42.098 105.405 41.944 104.929 41.636C104.463 41.328 104.099 40.8987 103.837 40.348C103.576 39.788 103.445 39.144 103.445 38.416C103.445 37.688 103.571 37.0533 103.823 36.512C104.085 35.9613 104.453 35.5367 104.929 35.238C105.405 34.9393 105.951 34.79 106.567 34.79C107.118 34.79 107.599 34.9113 108.009 35.154C108.42 35.3873 108.728 35.7187 108.933 36.148V31.696H110.067ZM106.791 41.16C107.482 41.16 108.014 40.9267 108.387 40.46C108.761 39.984 108.947 39.312 108.947 38.444C108.947 37.5853 108.761 36.9227 108.387 36.456C108.014 35.98 107.482 35.742 106.791 35.742C106.101 35.742 105.559 35.9753 105.167 36.442C104.785 36.9087 104.593 37.5667 104.593 38.416C104.593 39.284 104.785 39.9607 105.167 40.446C105.559 40.922 106.101 41.16 106.791 41.16ZM115.91 31.696H117.044V42H115.91V31.696ZM119.246 34.958H120.38V42H119.246V34.958ZM120.52 31.976V33.264H119.134V31.976H120.52ZM127.328 42L123.716 38.612V42H122.582V31.696H123.716V38.192L127.034 34.972H128.476L124.948 38.346L128.812 42H127.328ZM135.558 38.444H130.392C130.402 39.34 130.607 40.0167 131.008 40.474C131.419 40.9313 132.012 41.16 132.786 41.16C133.608 41.16 134.364 40.8847 135.054 40.334L135.432 41.16C135.124 41.4493 134.728 41.678 134.242 41.846C133.766 42.014 133.276 42.098 132.772 42.098C131.671 42.098 130.808 41.776 130.182 41.132C129.557 40.4787 129.244 39.5873 129.244 38.458C129.244 37.7393 129.384 37.1047 129.664 36.554C129.944 35.994 130.336 35.56 130.84 35.252C131.344 34.944 131.918 34.79 132.562 34.79C133.496 34.79 134.228 35.098 134.76 35.714C135.292 36.3207 135.558 37.1607 135.558 38.234V38.444ZM132.576 35.672C131.988 35.672 131.508 35.8493 131.134 36.204C130.77 36.5587 130.537 37.058 130.434 37.702H134.536C134.48 37.0393 134.284 36.5353 133.948 36.19C133.622 35.8447 133.164 35.672 132.576 35.672ZM142.442 35.854V39.704C142.442 40.2267 142.549 40.5953 142.764 40.81C142.979 41.0153 143.282 41.118 143.674 41.118C143.935 41.118 144.187 41.076 144.43 40.992V41.958C144.141 42.0513 143.814 42.098 143.45 42.098C142.778 42.098 142.251 41.9113 141.868 41.538C141.495 41.1553 141.308 40.5953 141.308 39.858V35.854H139.936V34.958H141.308V33.152L142.442 32.746V34.958H144.458V35.854H142.442ZM148.736 42.098C148.074 42.098 147.49 41.9487 146.986 41.65C146.482 41.3513 146.09 40.9267 145.81 40.376C145.54 39.8253 145.404 39.1813 145.404 38.444C145.404 37.7067 145.54 37.0627 145.81 36.512C146.09 35.9613 146.482 35.5367 146.986 35.238C147.49 34.9393 148.074 34.79 148.736 34.79C149.399 34.79 149.982 34.9393 150.486 35.238C150.99 35.5367 151.378 35.9613 151.648 36.512C151.928 37.0627 152.068 37.7067 152.068 38.444C152.068 39.1813 151.928 39.8253 151.648 40.376C151.378 40.9267 150.99 41.3513 150.486 41.65C149.982 41.9487 149.399 42.098 148.736 42.098ZM148.736 41.16C149.436 41.16 149.973 40.9313 150.346 40.474C150.72 40.0073 150.906 39.3307 150.906 38.444C150.906 37.5853 150.715 36.9227 150.332 36.456C149.95 35.98 149.418 35.742 148.736 35.742C148.046 35.742 147.509 35.98 147.126 36.456C146.744 36.9227 146.552 37.5853 146.552 38.444C146.552 39.3307 146.739 40.0073 147.112 40.474C147.495 40.9313 148.036 41.16 148.736 41.16ZM161.001 34.79C161.617 34.79 162.163 34.9393 162.639 35.238C163.115 35.5367 163.483 35.9613 163.745 36.512C164.006 37.0533 164.137 37.688 164.137 38.416C164.137 39.144 164.006 39.788 163.745 40.348C163.483 40.8987 163.115 41.328 162.639 41.636C162.163 41.944 161.617 42.098 161.001 42.098C160.45 42.098 159.969 41.9767 159.559 41.734C159.148 41.4913 158.835 41.146 158.621 40.698V42H157.487V31.696H158.621V36.204C158.826 35.7467 159.134 35.3967 159.545 35.154C159.965 34.9113 160.45 34.79 161.001 34.79ZM160.791 41.16C161.472 41.16 162.004 40.922 162.387 40.446C162.769 39.9607 162.961 39.284 162.961 38.416C162.961 37.5667 162.769 36.9087 162.387 36.442C162.013 35.9753 161.481 35.742 160.791 35.742C160.091 35.742 159.554 35.9753 159.181 36.442C158.807 36.9087 158.621 37.576 158.621 38.444C158.621 39.312 158.807 39.984 159.181 40.46C159.554 40.9267 160.091 41.16 160.791 41.16ZM165.881 34.958H167.015V42H165.881V34.958ZM167.155 31.976V33.264H165.769V31.976H167.155ZM175.419 31.696V42H174.299V40.726C174.094 41.1647 173.781 41.5053 173.361 41.748C172.95 41.9813 172.47 42.098 171.919 42.098C171.303 42.098 170.757 41.944 170.281 41.636C169.814 41.328 169.45 40.8987 169.189 40.348C168.928 39.788 168.797 39.144 168.797 38.416C168.797 37.688 168.923 37.0533 169.175 36.512C169.436 35.9613 169.805 35.5367 170.281 35.238C170.757 34.9393 171.303 34.79 171.919 34.79C172.47 34.79 172.95 34.9113 173.361 35.154C173.772 35.3873 174.08 35.7187 174.285 36.148V31.696H175.419ZM172.143 41.16C172.834 41.16 173.366 40.9267 173.739 40.46C174.112 39.984 174.299 39.312 174.299 38.444C174.299 37.5853 174.112 36.9227 173.739 36.456C173.366 35.98 172.834 35.742 172.143 35.742C171.452 35.742 170.911 35.9753 170.519 36.442C170.136 36.9087 169.945 37.5667 169.945 38.416C169.945 39.284 170.136 39.9607 170.519 40.446C170.911 40.922 171.452 41.16 172.143 41.16ZM184.174 42.098C183.511 42.098 182.928 41.9487 182.424 41.65C181.92 41.3513 181.528 40.9267 181.248 40.376C180.977 39.8253 180.842 39.1813 180.842 38.444C180.842 37.7067 180.977 37.0627 181.248 36.512C181.528 35.9613 181.92 35.5367 182.424 35.238C182.928 34.9393 183.511 34.79 184.174 34.79C184.837 34.79 185.42 34.9393 185.924 35.238C186.428 35.5367 186.815 35.9613 187.086 36.512C187.366 37.0627 187.506 37.7067 187.506 38.444C187.506 39.1813 187.366 39.8253 187.086 40.376C186.815 40.9267 186.428 41.3513 185.924 41.65C185.42 41.9487 184.837 42.098 184.174 42.098ZM184.174 41.16C184.874 41.16 185.411 40.9313 185.784 40.474C186.157 40.0073 186.344 39.3307 186.344 38.444C186.344 37.5853 186.153 36.9227 185.77 36.456C185.387 35.98 184.855 35.742 184.174 35.742C183.483 35.742 182.947 35.98 182.564 36.456C182.181 36.9227 181.99 37.5853 181.99 38.444C181.99 39.3307 182.177 40.0073 182.55 40.474C182.933 40.9313 183.474 41.16 184.174 41.16ZM192.788 34.79C194.477 34.79 195.322 35.7187 195.322 37.576V42H194.188V37.632C194.188 36.9787 194.057 36.5027 193.796 36.204C193.534 35.896 193.124 35.742 192.564 35.742C191.91 35.742 191.388 35.9427 190.996 36.344C190.604 36.7453 190.408 37.2867 190.408 37.968V42H189.274V36.932C189.274 36.204 189.236 35.546 189.162 34.958H190.24L190.352 36.218C190.566 35.7607 190.888 35.4107 191.318 35.168C191.747 34.916 192.237 34.79 192.788 34.79ZM207.315 34.958V42H206.195V40.726C205.99 41.1647 205.677 41.5053 205.257 41.748C204.847 41.9813 204.366 42.098 203.815 42.098C203.19 42.098 202.639 41.9487 202.163 41.65C201.697 41.3513 201.333 40.9313 201.071 40.39C200.819 39.8393 200.693 39.2 200.693 38.472C200.693 37.744 200.824 37.1047 201.085 36.554C201.347 35.994 201.711 35.56 202.177 35.252C202.653 34.944 203.199 34.79 203.815 34.79C204.366 34.79 204.847 34.9113 205.257 35.154C205.668 35.3967 205.981 35.7373 206.195 36.176V34.958H207.315ZM204.039 41.16C204.73 41.16 205.262 40.9267 205.635 40.46C206.009 39.984 206.195 39.312 206.195 38.444C206.195 37.576 206.009 36.9087 205.635 36.442C205.262 35.9753 204.73 35.742 204.039 35.742C203.349 35.742 202.807 35.9847 202.415 36.47C202.033 36.946 201.841 37.6133 201.841 38.472C201.841 39.3307 202.033 39.9933 202.415 40.46C202.798 40.9267 203.339 41.16 204.039 41.16ZM216.672 34.79C217.288 34.79 217.834 34.9393 218.31 35.238C218.786 35.5367 219.155 35.9613 219.416 36.512C219.678 37.0533 219.808 37.688 219.808 38.416C219.808 39.144 219.678 39.788 219.416 40.348C219.155 40.8987 218.786 41.328 218.31 41.636C217.834 41.944 217.288 42.098 216.672 42.098C216.122 42.098 215.641 41.9767 215.23 41.734C214.82 41.4913 214.507 41.146 214.292 40.698V42H213.158V31.696H214.292V36.204C214.498 35.7467 214.806 35.3967 215.216 35.154C215.636 34.9113 216.122 34.79 216.672 34.79ZM216.462 41.16C217.144 41.16 217.676 40.922 218.058 40.446C218.441 39.9607 218.632 39.284 218.632 38.416C218.632 37.5667 218.441 36.9087 218.058 36.442C217.685 35.9753 217.153 35.742 216.462 35.742C215.762 35.742 215.226 35.9753 214.852 36.442C214.479 36.9087 214.292 37.576 214.292 38.444C214.292 39.312 214.479 39.984 214.852 40.46C215.226 40.9267 215.762 41.16 216.462 41.16ZM221.553 34.958H222.687V42H221.553V34.958ZM222.827 31.976V33.264H221.441V31.976H222.827ZM231.161 34.958V41.944C231.161 42.9893 230.89 43.778 230.349 44.31C229.817 44.8513 229.028 45.122 227.983 45.122C226.91 45.122 225.986 44.8793 225.211 44.394L225.407 43.47C225.855 43.722 226.275 43.904 226.667 44.016C227.068 44.128 227.507 44.184 227.983 44.184C228.664 44.184 229.178 44.002 229.523 43.638C229.868 43.2833 230.041 42.7513 230.041 42.042V40.376C229.826 40.824 229.509 41.174 229.089 41.426C228.678 41.6687 228.188 41.79 227.619 41.79C227.003 41.79 226.452 41.6453 225.967 41.356C225.491 41.0667 225.122 40.656 224.861 40.124C224.6 39.592 224.469 38.9807 224.469 38.29C224.469 37.5993 224.6 36.988 224.861 36.456C225.122 35.924 225.491 35.5133 225.967 35.224C226.452 34.9347 227.003 34.79 227.619 34.79C228.179 34.79 228.664 34.9113 229.075 35.154C229.495 35.3967 229.812 35.7373 230.027 36.176V34.958H231.161ZM227.843 40.838C228.524 40.838 229.056 40.614 229.439 40.166C229.831 39.7087 230.027 39.0833 230.027 38.29C230.027 37.4967 229.831 36.876 229.439 36.428C229.056 35.9707 228.524 35.742 227.843 35.742C227.152 35.742 226.606 35.9707 226.205 36.428C225.813 36.876 225.617 37.4967 225.617 38.29C225.617 39.0833 225.813 39.7087 226.205 40.166C226.606 40.614 227.152 40.838 227.843 40.838ZM239.61 34.958V41.944C239.61 42.9893 239.339 43.778 238.798 44.31C238.266 44.8513 237.477 45.122 236.432 45.122C235.359 45.122 234.435 44.8793 233.66 44.394L233.856 43.47C234.304 43.722 234.724 43.904 235.116 44.016C235.517 44.128 235.956 44.184 236.432 44.184C237.113 44.184 237.627 44.002 237.972 43.638C238.317 43.2833 238.49 42.7513 238.49 42.042V40.376C238.275 40.824 237.958 41.174 237.538 41.426C237.127 41.6687 236.637 41.79 236.068 41.79C235.452 41.79 234.901 41.6453 234.416 41.356C233.94 41.0667 233.571 40.656 233.31 40.124C233.049 39.592 232.918 38.9807 232.918 38.29C232.918 37.5993 233.049 36.988 233.31 36.456C233.571 35.924 233.94 35.5133 234.416 35.224C234.901 34.9347 235.452 34.79 236.068 34.79C236.628 34.79 237.113 34.9113 237.524 35.154C237.944 35.3967 238.261 35.7373 238.476 36.176V34.958H239.61ZM236.292 40.838C236.973 40.838 237.505 40.614 237.888 40.166C238.28 39.7087 238.476 39.0833 238.476 38.29C238.476 37.4967 238.28 36.876 237.888 36.428C237.505 35.9707 236.973 35.742 236.292 35.742C235.601 35.742 235.055 35.9707 234.654 36.428C234.262 36.876 234.066 37.4967 234.066 38.29C234.066 39.0833 234.262 39.7087 234.654 40.166C235.055 40.614 235.601 40.838 236.292 40.838ZM247.681 38.444H242.515C242.525 39.34 242.73 40.0167 243.131 40.474C243.542 40.9313 244.135 41.16 244.909 41.16C245.731 41.16 246.487 40.8847 247.177 40.334L247.555 41.16C247.247 41.4493 246.851 41.678 246.365 41.846C245.889 42.014 245.399 42.098 244.895 42.098C243.794 42.098 242.931 41.776 242.305 41.132C241.68 40.4787 241.367 39.5873 241.367 38.458C241.367 37.7393 241.507 37.1047 241.787 36.554C242.067 35.994 242.459 35.56 242.963 35.252C243.467 34.944 244.041 34.79 244.685 34.79C245.619 34.79 246.351 35.098 246.883 35.714C247.415 36.3207 247.681 37.1607 247.681 38.234V38.444ZM244.699 35.672C244.111 35.672 243.631 35.8493 243.257 36.204C242.893 36.5587 242.66 37.058 242.557 37.702H246.659C246.603 37.0393 246.407 36.5353 246.071 36.19C245.745 35.8447 245.287 35.672 244.699 35.672ZM252.679 34.79C252.912 34.79 253.127 34.818 253.323 34.874L253.295 35.91C253.08 35.8353 252.833 35.798 252.553 35.798C251.871 35.798 251.363 36.0127 251.027 36.442C250.7 36.862 250.537 37.3753 250.537 37.982V42H249.403V36.932C249.403 36.204 249.365 35.546 249.291 34.958H250.369L250.481 36.26C250.658 35.784 250.943 35.42 251.335 35.168C251.727 34.916 252.175 34.79 252.679 34.79ZM71.28 52.972L68.242 60H67.164L64.168 52.972H65.358L67.738 58.768L70.146 52.972H71.28ZM75.3595 60.098C74.6968 60.098 74.1135 59.9487 73.6095 59.65C73.1055 59.3513 72.7135 58.9267 72.4335 58.376C72.1628 57.8253 72.0275 57.1813 72.0275 56.444C72.0275 55.7067 72.1628 55.0627 72.4335 54.512C72.7135 53.9613 73.1055 53.5367 73.6095 53.238C74.1135 52.9393 74.6968 52.79 75.3595 52.79C76.0221 52.79 76.6055 52.9393 77.1095 53.238C77.6135 53.5367 78.0008 53.9613 78.2715 54.512C78.5515 55.0627 78.6915 55.7067 78.6915 56.444C78.6915 57.1813 78.5515 57.8253 78.2715 58.376C78.0008 58.9267 77.6135 59.3513 77.1095 59.65C76.6055 59.9487 76.0221 60.098 75.3595 60.098ZM75.3595 59.16C76.0595 59.16 76.5961 58.9313 76.9695 58.474C77.3428 58.0073 77.5295 57.3307 77.5295 56.444C77.5295 55.5853 77.3381 54.9227 76.9555 54.456C76.5728 53.98 76.0408 53.742 75.3595 53.742C74.6688 53.742 74.1321 53.98 73.7495 54.456C73.3668 54.9227 73.1755 55.5853 73.1755 56.444C73.1755 57.3307 73.3621 58.0073 73.7355 58.474C74.1181 58.9313 74.6595 59.16 75.3595 59.16ZM80.4592 49.696H81.5932V60H80.4592V49.696ZM89.6891 52.958V60H88.5831V58.782C88.3591 59.2113 88.0465 59.538 87.6451 59.762C87.2438 59.986 86.7911 60.098 86.2871 60.098C85.4565 60.098 84.8265 59.8647 84.3971 59.398C83.9678 58.9313 83.7531 58.2407 83.7531 57.326V52.958H84.8871V57.298C84.8871 57.9327 85.0178 58.3993 85.2791 58.698C85.5405 58.9967 85.9371 59.146 86.4691 59.146C87.0945 59.146 87.5985 58.9453 87.9811 58.544C88.3638 58.1333 88.5551 57.5967 88.5551 56.934V52.958H89.6891ZM99.6872 52.79C101.246 52.79 102.025 53.7187 102.025 55.576V60H100.891V55.632C100.891 54.9693 100.775 54.4887 100.541 54.19C100.317 53.8913 99.9485 53.742 99.4352 53.742C98.8379 53.742 98.3712 53.9427 98.0352 54.344C97.6992 54.7453 97.5312 55.2913 97.5312 55.982V60H96.3972V55.632C96.3972 54.9787 96.2805 54.5027 96.0472 54.204C95.8139 53.896 95.4405 53.742 94.9272 53.742C94.3299 53.742 93.8585 53.9427 93.5132 54.344C93.1772 54.7453 93.0092 55.2913 93.0092 55.982V60H91.8752V54.932C91.8752 54.204 91.8379 53.546 91.7632 52.958H92.8412L92.9532 54.19C93.1492 53.742 93.4385 53.3967 93.8212 53.154C94.2132 52.9113 94.6659 52.79 95.1792 52.79C95.7392 52.79 96.1965 52.902 96.5512 53.126C96.9059 53.35 97.1672 53.6953 97.3352 54.162C97.5499 53.742 97.8625 53.4107 98.2732 53.168C98.6932 52.916 99.1645 52.79 99.6872 52.79ZM110.074 56.444H104.908C104.917 57.34 105.123 58.0167 105.524 58.474C105.935 58.9313 106.527 59.16 107.302 59.16C108.123 59.16 108.879 58.8847 109.57 58.334L109.948 59.16C109.64 59.4493 109.243 59.678 108.758 59.846C108.282 60.014 107.792 60.098 107.288 60.098C106.187 60.098 105.323 59.776 104.698 59.132C104.073 58.4787 103.76 57.5873 103.76 56.458C103.76 55.7393 103.9 55.1047 104.18 54.554C104.46 53.994 104.852 53.56 105.356 53.252C105.86 52.944 106.434 52.79 107.078 52.79C108.011 52.79 108.744 53.098 109.276 53.714C109.808 54.3207 110.074 55.1607 110.074 56.234V56.444ZM107.092 53.672C106.504 53.672 106.023 53.8493 105.65 54.204C105.286 54.5587 105.053 55.058 104.95 55.702H109.052C108.996 55.0393 108.8 54.5353 108.464 54.19C108.137 53.8447 107.68 53.672 107.092 53.672ZM118.358 60.098C117.695 60.098 117.112 59.9487 116.608 59.65C116.104 59.3513 115.712 58.9267 115.432 58.376C115.161 57.8253 115.026 57.1813 115.026 56.444C115.026 55.7067 115.161 55.0627 115.432 54.512C115.712 53.9613 116.104 53.5367 116.608 53.238C117.112 52.9393 117.695 52.79 118.358 52.79C119.02 52.79 119.604 52.9393 120.108 53.238C120.612 53.5367 120.999 53.9613 121.27 54.512C121.55 55.0627 121.69 55.7067 121.69 56.444C121.69 57.1813 121.55 57.8253 121.27 58.376C120.999 58.9267 120.612 59.3513 120.108 59.65C119.604 59.9487 119.02 60.098 118.358 60.098ZM118.358 59.16C119.058 59.16 119.594 58.9313 119.968 58.474C120.341 58.0073 120.528 57.3307 120.528 56.444C120.528 55.5853 120.336 54.9227 119.954 54.456C119.571 53.98 119.039 53.742 118.358 53.742C117.667 53.742 117.13 53.98 116.748 54.456C116.365 54.9227 116.174 55.5853 116.174 56.444C116.174 57.3307 116.36 58.0073 116.734 58.474C117.116 58.9313 117.658 59.16 118.358 59.16ZM126.146 50.62C125.772 50.62 125.478 50.7273 125.264 50.942C125.058 51.1473 124.956 51.5067 124.956 52.02V52.958H126.678V53.854H124.956V60H123.822V53.854H122.45V52.958H123.822V51.88C123.822 51.1427 124.004 50.5873 124.368 50.214C124.741 49.8313 125.259 49.64 125.922 49.64C126.248 49.64 126.566 49.682 126.874 49.766V50.732C126.612 50.6573 126.37 50.62 126.146 50.62ZM131.811 49.696H132.945V60H131.811V49.696ZM138.059 60.098C137.396 60.098 136.813 59.9487 136.309 59.65C135.805 59.3513 135.413 58.9267 135.133 58.376C134.862 57.8253 134.727 57.1813 134.727 56.444C134.727 55.7067 134.862 55.0627 135.133 54.512C135.413 53.9613 135.805 53.5367 136.309 53.238C136.813 52.9393 137.396 52.79 138.059 52.79C138.721 52.79 139.305 52.9393 139.809 53.238C140.313 53.5367 140.7 53.9613 140.971 54.512C141.251 55.0627 141.391 55.7067 141.391 56.444C141.391 57.1813 141.251 57.8253 140.971 58.376C140.7 58.9267 140.313 59.3513 139.809 59.65C139.305 59.9487 138.721 60.098 138.059 60.098ZM138.059 59.16C138.759 59.16 139.295 58.9313 139.669 58.474C140.042 58.0073 140.229 57.3307 140.229 56.444C140.229 55.5853 140.037 54.9227 139.655 54.456C139.272 53.98 138.74 53.742 138.059 53.742C137.368 53.742 136.831 53.98 136.449 54.456C136.066 54.9227 135.875 55.5853 135.875 56.444C135.875 57.3307 136.061 58.0073 136.435 58.474C136.817 58.9313 137.359 59.16 138.059 59.16ZM146.672 52.79C148.362 52.79 149.206 53.7187 149.206 55.576V60H148.072V55.632C148.072 54.9787 147.942 54.5027 147.68 54.204C147.419 53.896 147.008 53.742 146.448 53.742C145.795 53.742 145.272 53.9427 144.88 54.344C144.488 54.7453 144.292 55.2867 144.292 55.968V60H143.158V54.932C143.158 54.204 143.121 53.546 143.046 52.958H144.124L144.236 54.218C144.451 53.7607 144.773 53.4107 145.202 53.168C145.632 52.916 146.122 52.79 146.672 52.79ZM157.62 52.958V59.944C157.62 60.9893 157.349 61.778 156.808 62.31C156.276 62.8513 155.487 63.122 154.442 63.122C153.369 63.122 152.445 62.8793 151.67 62.394L151.866 61.47C152.314 61.722 152.734 61.904 153.126 62.016C153.527 62.128 153.966 62.184 154.442 62.184C155.123 62.184 155.637 62.002 155.982 61.638C156.327 61.2833 156.5 60.7513 156.5 60.042V58.376C156.285 58.824 155.968 59.174 155.548 59.426C155.137 59.6687 154.647 59.79 154.078 59.79C153.462 59.79 152.911 59.6453 152.426 59.356C151.95 59.0667 151.581 58.656 151.32 58.124C151.059 57.592 150.928 56.9807 150.928 56.29C150.928 55.5993 151.059 54.988 151.32 54.456C151.581 53.924 151.95 53.5133 152.426 53.224C152.911 52.9347 153.462 52.79 154.078 52.79C154.638 52.79 155.123 52.9113 155.534 53.154C155.954 53.3967 156.271 53.7373 156.486 54.176V52.958H157.62ZM154.302 58.838C154.983 58.838 155.515 58.614 155.898 58.166C156.29 57.7087 156.486 57.0833 156.486 56.29C156.486 55.4967 156.29 54.876 155.898 54.428C155.515 53.9707 154.983 53.742 154.302 53.742C153.611 53.742 153.065 53.9707 152.664 54.428C152.272 54.876 152.076 55.4967 152.076 56.29C152.076 57.0833 152.272 57.7087 152.664 58.166C153.065 58.614 153.611 58.838 154.302 58.838ZM159.727 55.772H163.689V56.71H159.727V55.772ZM167.311 53.854V57.704C167.311 58.2267 167.418 58.5953 167.633 58.81C167.848 59.0153 168.151 59.118 168.543 59.118C168.804 59.118 169.056 59.076 169.299 58.992V59.958C169.01 60.0513 168.683 60.098 168.319 60.098C167.647 60.098 167.12 59.9113 166.737 59.538C166.364 59.1553 166.177 58.5953 166.177 57.858V53.854H164.805V52.958H166.177V51.152L167.311 50.746V52.958H169.327V53.854H167.311ZM176.896 52.958V60H175.776V58.726C175.57 59.1647 175.258 59.5053 174.838 59.748C174.427 59.9813 173.946 60.098 173.396 60.098C172.77 60.098 172.22 59.9487 171.744 59.65C171.277 59.3513 170.913 58.9313 170.652 58.39C170.4 57.8393 170.274 57.2 170.274 56.472C170.274 55.744 170.404 55.1047 170.666 54.554C170.927 53.994 171.291 53.56 171.758 53.252C172.234 52.944 172.78 52.79 173.396 52.79C173.946 52.79 174.427 52.9113 174.838 53.154C175.248 53.3967 175.561 53.7373 175.776 54.176V52.958H176.896ZM173.62 59.16C174.31 59.16 174.842 58.9267 175.216 58.46C175.589 57.984 175.776 57.312 175.776 56.444C175.776 55.576 175.589 54.9087 175.216 54.442C174.842 53.9753 174.31 53.742 173.62 53.742C172.929 53.742 172.388 53.9847 171.996 54.47C171.613 54.946 171.422 55.6133 171.422 56.472C171.422 57.3307 171.613 57.9933 171.996 58.46C172.378 58.9267 172.92 59.16 173.62 59.16ZM179.088 52.958H180.222V60H179.088V52.958ZM180.362 49.976V51.264H178.976V49.976H180.362ZM182.424 49.696H183.558V60H182.424V49.696ZM194.156 60L190.544 56.612V60H189.41V49.696H190.544V56.192L193.862 52.972H195.304L191.776 56.346L195.64 60H194.156ZM202.386 56.444H197.22C197.23 57.34 197.435 58.0167 197.836 58.474C198.247 58.9313 198.84 59.16 199.614 59.16C200.436 59.16 201.192 58.8847 201.882 58.334L202.26 59.16C201.952 59.4493 201.556 59.678 201.07 59.846C200.594 60.014 200.104 60.098 199.6 60.098C198.499 60.098 197.636 59.776 197.01 59.132C196.385 58.4787 196.072 57.5873 196.072 56.458C196.072 55.7393 196.212 55.1047 196.492 54.554C196.772 53.994 197.164 53.56 197.668 53.252C198.172 52.944 198.746 52.79 199.39 52.79C200.324 52.79 201.056 53.098 201.588 53.714C202.12 54.3207 202.386 55.1607 202.386 56.234V56.444ZM199.404 53.672C198.816 53.672 198.336 53.8493 197.962 54.204C197.598 54.5587 197.365 55.058 197.262 55.702H201.364C201.308 55.0393 201.112 54.5353 200.776 54.19C200.45 53.8447 199.992 53.672 199.404 53.672ZM210.214 52.958L206.924 60.644C206.578 61.4467 206.144 62.0347 205.622 62.408C205.099 62.7813 204.455 63.038 203.69 63.178L203.452 62.296C204.114 62.1467 204.614 61.946 204.95 61.694C205.295 61.4513 205.58 61.0733 205.804 60.56L206.084 59.93L203.102 52.958H204.292L206.672 58.768L209.08 52.958H210.214ZM222.159 52.958L219.555 60H218.463L216.447 54.498L214.445 60H213.353L210.749 52.958H211.939L213.927 58.642L215.985 52.958H216.979L219.009 58.656L221.039 52.958H222.159ZM226.461 60.098C225.798 60.098 225.215 59.9487 224.711 59.65C224.207 59.3513 223.815 58.9267 223.535 58.376C223.264 57.8253 223.129 57.1813 223.129 56.444C223.129 55.7067 223.264 55.0627 223.535 54.512C223.815 53.9613 224.207 53.5367 224.711 53.238C225.215 52.9393 225.798 52.79 226.461 52.79C227.124 52.79 227.707 52.9393 228.211 53.238C228.715 53.5367 229.102 53.9613 229.373 54.512C229.653 55.0627 229.793 55.7067 229.793 56.444C229.793 57.1813 229.653 57.8253 229.373 58.376C229.102 58.9267 228.715 59.3513 228.211 59.65C227.707 59.9487 227.124 60.098 226.461 60.098ZM226.461 59.16C227.161 59.16 227.698 58.9313 228.071 58.474C228.444 58.0073 228.631 57.3307 228.631 56.444C228.631 55.5853 228.44 54.9227 228.057 54.456C227.674 53.98 227.142 53.742 226.461 53.742C225.77 53.742 225.234 53.98 224.851 54.456C224.468 54.9227 224.277 55.5853 224.277 56.444C224.277 57.3307 224.464 58.0073 224.837 58.474C225.22 58.9313 225.761 59.16 226.461 59.16ZM234.837 52.79C235.07 52.79 235.285 52.818 235.481 52.874L235.453 53.91C235.238 53.8353 234.991 53.798 234.711 53.798C234.029 53.798 233.521 54.0127 233.185 54.442C232.858 54.862 232.695 55.3753 232.695 55.982V60H231.561V54.932C231.561 54.204 231.523 53.546 231.449 52.958H232.527L232.639 54.26C232.816 53.784 233.101 53.42 233.493 53.168C233.885 52.916 234.333 52.79 234.837 52.79ZM242.698 49.696V60H241.578V58.726C241.373 59.1647 241.06 59.5053 240.64 59.748C240.23 59.9813 239.749 60.098 239.198 60.098C238.582 60.098 238.036 59.944 237.56 59.636C237.094 59.328 236.73 58.8987 236.468 58.348C236.207 57.788 236.076 57.144 236.076 56.416C236.076 55.688 236.202 55.0533 236.454 54.512C236.716 53.9613 237.084 53.5367 237.56 53.238C238.036 52.9393 238.582 52.79 239.198 52.79C239.749 52.79 240.23 52.9113 240.64 53.154C241.051 53.3873 241.359 53.7187 241.564 54.148V49.696H242.698ZM239.422 59.16C240.113 59.16 240.645 58.9267 241.018 58.46C241.392 57.984 241.578 57.312 241.578 56.444C241.578 55.5853 241.392 54.9227 241.018 54.456C240.645 53.98 240.113 53.742 239.422 53.742C238.732 53.742 238.19 53.9753 237.798 54.442C237.416 54.9087 237.224 55.5667 237.224 56.416C237.224 57.284 237.416 57.9607 237.798 58.446C238.19 58.922 238.732 59.16 239.422 59.16ZM247.271 60.098C246.085 60.098 245.147 59.7947 244.457 59.188L244.835 58.348C245.217 58.6467 245.605 58.8613 245.997 58.992C246.389 59.1227 246.827 59.188 247.313 59.188C247.845 59.188 248.246 59.0993 248.517 58.922C248.797 58.7353 248.937 58.4693 248.937 58.124C248.937 57.844 248.843 57.62 248.657 57.452C248.47 57.284 248.162 57.1533 247.733 57.06L246.543 56.78C245.955 56.6493 245.497 56.416 245.171 56.08C244.853 55.744 244.695 55.3427 244.695 54.876C244.695 54.26 244.942 53.7607 245.437 53.378C245.931 52.986 246.585 52.79 247.397 52.79C247.891 52.79 248.358 52.8693 248.797 53.028C249.235 53.1867 249.604 53.4153 249.903 53.714L249.525 54.54C248.862 53.9893 248.153 53.714 247.397 53.714C246.893 53.714 246.501 53.812 246.221 54.008C245.95 54.1947 245.815 54.4607 245.815 54.806C245.815 55.0953 245.899 55.324 246.067 55.492C246.244 55.66 246.524 55.7907 246.907 55.884L248.097 56.178C248.75 56.3273 249.235 56.5607 249.553 56.878C249.87 57.186 250.029 57.592 250.029 58.096C250.029 58.7027 249.781 59.188 249.287 59.552C248.792 59.916 248.12 60.098 247.271 60.098Z" fill="#5B5151"/>
<circle cx="41" cy="43" r="15" fill="white"/>
<mask id="mask0" mask-type="alpha" maskUnits="userSpaceOnUse" x="26" y="28" width="30" height="30">
<circle cx="41" cy="43" r="15" fill="white"/>
</mask>
<g mask="url(#mask0)">
<path d="M46.3763 40.5393C46.3763 42.0615 45.8304 43.3792 44.7535 44.4562C43.6766 45.5331 42.3587 46.079 40.8365 46.079H40.8338C39.3135 46.0785 37.9966 45.5326 36.9197 44.4562C35.8426 43.3792 35.2969 42.0615 35.2969 40.5393C35.2969 39.0175 35.8426 37.6997 36.9197 36.6228C37.996 35.5463 39.313 35.0005 40.8338 35H40.8365C42.3582 35 43.676 35.5459 44.7535 36.6228C45.8304 37.6997 46.3763 39.0175 46.3763 40.5393Z" fill="#FFD589"/>
<path d="M50.5759 54.0444C50.5759 55.2454 50.1939 56.2177 49.4415 56.9338C48.6978 57.6415 47.7142 58 46.5184 58H35.4437C34.2479 58 33.2643 57.6415 32.5212 56.9338C31.7682 56.2172 31.3867 55.245 31.3867 54.0444C31.3867 53.5826 31.402 53.1256 31.4325 52.6862C31.4636 52.237 31.5264 51.7482 31.619 51.2324C31.7124 50.7125 31.8324 50.221 31.9761 49.7718C32.1253 49.3068 32.3271 48.8481 32.5768 48.4087C32.8362 47.9526 33.1408 47.5553 33.4823 47.2282C33.8402 46.8859 34.2779 46.6109 34.7838 46.4105C35.2879 46.2112 35.8468 46.1101 36.4448 46.1101C36.6794 46.1101 36.9067 46.2061 37.3447 46.4914C37.6188 46.6702 37.9346 46.8738 38.2833 47.0966C38.5844 47.2886 38.9922 47.4686 39.4963 47.6313C39.9394 47.7747 40.3892 47.8547 40.8335 47.8686C40.8824 47.8703 40.9314 47.8712 40.9803 47.8712C41.4738 47.8712 41.9728 47.7903 42.4649 47.6313C42.969 47.4686 43.3774 47.2886 43.6783 47.0966C44.0306 46.8715 44.3465 46.6681 44.6166 46.4919C45.0549 46.2061 45.2818 46.1101 45.5169 46.1101C46.1144 46.1101 46.6733 46.2112 47.1778 46.4105C47.6837 46.6109 48.1213 46.8864 48.479 47.2282C48.821 47.5553 49.1256 47.9526 49.3848 48.4087C49.6347 48.8484 49.8368 49.3068 49.9854 49.7712C50.1293 50.221 50.2497 50.7125 50.3431 51.2328C50.4352 51.749 50.4982 52.2379 50.5291 52.6859C50.5601 53.1239 50.5754 53.5808 50.5759 54.0444Z" fill="#D55A5F"/>
</g>
<path d="M50 112C50 100.954 58.9543 92 70 92H323C334.046 92 343 100.954 343 112V188H70C58.9543 188 50 179.046 50 168V112Z" fill="#FCFCFC"/>
<path d="M109.488 118.112C108.545 118.112 107.724 117.907 107.024 117.496C106.333 117.085 105.801 116.497 105.428 115.732C105.055 114.957 104.868 114.047 104.868 113.002C104.868 111.957 105.055 111.056 105.428 110.3C105.801 109.535 106.333 108.947 107.024 108.536C107.724 108.125 108.545 107.92 109.488 107.92C110.179 107.92 110.809 108.027 111.378 108.242C111.957 108.447 112.456 108.76 112.876 109.18L112.442 110.062C111.966 109.651 111.495 109.357 111.028 109.18C110.571 109.003 110.062 108.914 109.502 108.914C108.41 108.914 107.561 109.269 106.954 109.978C106.357 110.687 106.058 111.695 106.058 113.002C106.058 114.318 106.357 115.335 106.954 116.054C107.551 116.763 108.401 117.118 109.502 117.118C110.062 117.118 110.571 117.029 111.028 116.852C111.495 116.675 111.966 116.381 112.442 115.97L112.876 116.852C112.456 117.272 111.957 117.589 111.378 117.804C110.809 118.009 110.179 118.112 109.488 118.112ZM117.938 110.79C118.172 110.79 118.386 110.818 118.582 110.874L118.554 111.91C118.34 111.835 118.092 111.798 117.812 111.798C117.131 111.798 116.622 112.013 116.286 112.442C115.96 112.862 115.796 113.375 115.796 113.982V118H114.662V112.932C114.662 112.204 114.625 111.546 114.55 110.958H115.628L115.74 112.26C115.918 111.784 116.202 111.42 116.594 111.168C116.986 110.916 117.434 110.79 117.938 110.79ZM125.492 114.444H120.326C120.335 115.34 120.541 116.017 120.942 116.474C121.353 116.931 121.945 117.16 122.72 117.16C123.541 117.16 124.297 116.885 124.988 116.334L125.366 117.16C125.058 117.449 124.661 117.678 124.176 117.846C123.7 118.014 123.21 118.098 122.706 118.098C121.605 118.098 120.741 117.776 120.116 117.132C119.491 116.479 119.178 115.587 119.178 114.458C119.178 113.739 119.318 113.105 119.598 112.554C119.878 111.994 120.27 111.56 120.774 111.252C121.278 110.944 121.852 110.79 122.496 110.79C123.429 110.79 124.162 111.098 124.694 111.714C125.226 112.321 125.492 113.161 125.492 114.234V114.444ZM122.51 111.672C121.922 111.672 121.441 111.849 121.068 112.204C120.704 112.559 120.471 113.058 120.368 113.702H124.47C124.414 113.039 124.218 112.535 123.882 112.19C123.555 111.845 123.098 111.672 122.51 111.672ZM133.415 110.958V118H132.295V116.726C132.09 117.165 131.777 117.505 131.357 117.748C130.946 117.981 130.466 118.098 129.915 118.098C129.29 118.098 128.739 117.949 128.263 117.65C127.796 117.351 127.432 116.931 127.171 116.39C126.919 115.839 126.793 115.2 126.793 114.472C126.793 113.744 126.924 113.105 127.185 112.554C127.446 111.994 127.81 111.56 128.277 111.252C128.753 110.944 129.299 110.79 129.915 110.79C130.466 110.79 130.946 110.911 131.357 111.154C131.768 111.397 132.08 111.737 132.295 112.176V110.958H133.415ZM130.139 117.16C130.83 117.16 131.362 116.927 131.735 116.46C132.108 115.984 132.295 115.312 132.295 114.444C132.295 113.576 132.108 112.909 131.735 112.442C131.362 111.975 130.83 111.742 130.139 111.742C129.448 111.742 128.907 111.985 128.515 112.47C128.132 112.946 127.941 113.613 127.941 114.472C127.941 115.331 128.132 115.993 128.515 116.46C128.898 116.927 129.439 117.16 130.139 117.16ZM137.12 111.854V115.704C137.12 116.227 137.227 116.595 137.442 116.81C137.656 117.015 137.96 117.118 138.352 117.118C138.613 117.118 138.865 117.076 139.108 116.992V117.958C138.818 118.051 138.492 118.098 138.128 118.098C137.456 118.098 136.928 117.911 136.546 117.538C136.172 117.155 135.986 116.595 135.986 115.858V111.854H134.614V110.958H135.986V109.152L137.12 108.746V110.958H139.136V111.854H137.12ZM146.396 114.444H141.23C141.239 115.34 141.445 116.017 141.846 116.474C142.257 116.931 142.849 117.16 143.624 117.16C144.445 117.16 145.201 116.885 145.892 116.334L146.27 117.16C145.962 117.449 145.565 117.678 145.08 117.846C144.604 118.014 144.114 118.098 143.61 118.098C142.509 118.098 141.645 117.776 141.02 117.132C140.395 116.479 140.082 115.587 140.082 114.458C140.082 113.739 140.222 113.105 140.502 112.554C140.782 111.994 141.174 111.56 141.678 111.252C142.182 110.944 142.756 110.79 143.4 110.79C144.333 110.79 145.066 111.098 145.598 111.714C146.13 112.321 146.396 113.161 146.396 114.234V114.444ZM143.414 111.672C142.826 111.672 142.345 111.849 141.972 112.204C141.608 112.559 141.375 113.058 141.272 113.702H145.374C145.318 113.039 145.122 112.535 144.786 112.19C144.459 111.845 144.002 111.672 143.414 111.672ZM157.97 110.958V118H156.85V116.726C156.644 117.165 156.332 117.505 155.912 117.748C155.501 117.981 155.02 118.098 154.47 118.098C153.844 118.098 153.294 117.949 152.818 117.65C152.351 117.351 151.987 116.931 151.726 116.39C151.474 115.839 151.348 115.2 151.348 114.472C151.348 113.744 151.478 113.105 151.74 112.554C152.001 111.994 152.365 111.56 152.832 111.252C153.308 110.944 153.854 110.79 154.47 110.79C155.02 110.79 155.501 110.911 155.912 111.154C156.322 111.397 156.635 111.737 156.85 112.176V110.958H157.97ZM154.694 117.16C155.384 117.16 155.916 116.927 156.29 116.46C156.663 115.984 156.85 115.312 156.85 114.444C156.85 113.576 156.663 112.909 156.29 112.442C155.916 111.975 155.384 111.742 154.694 111.742C154.003 111.742 153.462 111.985 153.07 112.47C152.687 112.946 152.496 113.613 152.496 114.472C152.496 115.331 152.687 115.993 153.07 116.46C153.452 116.927 153.994 117.16 154.694 117.16ZM162.542 118.098C161.357 118.098 160.419 117.795 159.728 117.188L160.106 116.348C160.489 116.647 160.876 116.861 161.268 116.992C161.66 117.123 162.099 117.188 162.584 117.188C163.116 117.188 163.518 117.099 163.788 116.922C164.068 116.735 164.208 116.469 164.208 116.124C164.208 115.844 164.115 115.62 163.928 115.452C163.742 115.284 163.434 115.153 163.004 115.06L161.814 114.78C161.226 114.649 160.769 114.416 160.442 114.08C160.125 113.744 159.966 113.343 159.966 112.876C159.966 112.26 160.214 111.761 160.708 111.378C161.203 110.986 161.856 110.79 162.668 110.79C163.163 110.79 163.63 110.869 164.068 111.028C164.507 111.187 164.876 111.415 165.174 111.714L164.796 112.54C164.134 111.989 163.424 111.714 162.668 111.714C162.164 111.714 161.772 111.812 161.492 112.008C161.222 112.195 161.086 112.461 161.086 112.806C161.086 113.095 161.17 113.324 161.338 113.492C161.516 113.66 161.796 113.791 162.178 113.884L163.368 114.178C164.022 114.327 164.507 114.561 164.824 114.878C165.142 115.186 165.3 115.592 165.3 116.096C165.3 116.703 165.053 117.188 164.558 117.552C164.064 117.916 163.392 118.098 162.542 118.098ZM178.57 110.79C180.129 110.79 180.908 111.719 180.908 113.576V118H179.774V113.632C179.774 112.969 179.657 112.489 179.424 112.19C179.2 111.891 178.831 111.742 178.318 111.742C177.721 111.742 177.254 111.943 176.918 112.344C176.582 112.745 176.414 113.291 176.414 113.982V118H175.28V113.632C175.28 112.979 175.163 112.503 174.93 112.204C174.697 111.896 174.323 111.742 173.81 111.742C173.213 111.742 172.741 111.943 172.396 112.344C172.06 112.745 171.892 113.291 171.892 113.982V118H170.758V112.932C170.758 112.204 170.721 111.546 170.646 110.958H171.724L171.836 112.19C172.032 111.742 172.321 111.397 172.704 111.154C173.096 110.911 173.549 110.79 174.062 110.79C174.622 110.79 175.079 110.902 175.434 111.126C175.789 111.35 176.05 111.695 176.218 112.162C176.433 111.742 176.745 111.411 177.156 111.168C177.576 110.916 178.047 110.79 178.57 110.79ZM188.957 110.958V118H187.851V116.782C187.627 117.211 187.314 117.538 186.913 117.762C186.511 117.986 186.059 118.098 185.555 118.098C184.724 118.098 184.094 117.865 183.665 117.398C183.235 116.931 183.021 116.241 183.021 115.326V110.958H184.155V115.298C184.155 115.933 184.285 116.399 184.547 116.698C184.808 116.997 185.205 117.146 185.737 117.146C186.362 117.146 186.866 116.945 187.249 116.544C187.631 116.133 187.823 115.597 187.823 114.934V110.958H188.957ZM194.097 118.098C193.415 118.098 192.818 117.949 192.305 117.65C191.801 117.351 191.409 116.931 191.129 116.39C190.858 115.839 190.723 115.2 190.723 114.472C190.723 113.744 190.863 113.105 191.143 112.554C191.423 111.994 191.819 111.56 192.333 111.252C192.855 110.944 193.462 110.79 194.153 110.79C194.629 110.79 195.086 110.874 195.525 111.042C195.973 111.201 196.341 111.425 196.631 111.714L196.253 112.554C195.898 112.274 195.553 112.069 195.217 111.938C194.89 111.807 194.554 111.742 194.209 111.742C193.49 111.742 192.925 111.985 192.515 112.47C192.104 112.946 191.899 113.613 191.899 114.472C191.899 115.321 192.099 115.984 192.501 116.46C192.911 116.927 193.481 117.16 194.209 117.16C194.554 117.16 194.89 117.095 195.217 116.964C195.553 116.833 195.898 116.628 196.253 116.348L196.631 117.188C196.332 117.468 195.954 117.692 195.497 117.86C195.049 118.019 194.582 118.098 194.097 118.098ZM201.588 110.79C203.278 110.79 204.122 111.719 204.122 113.576V118H202.988V113.632C202.988 112.979 202.858 112.503 202.596 112.204C202.335 111.896 201.924 111.742 201.364 111.742C200.711 111.742 200.188 111.943 199.796 112.344C199.404 112.745 199.208 113.287 199.208 113.968V118H198.074V107.696H199.208V112.106C199.432 111.677 199.75 111.35 200.16 111.126C200.58 110.902 201.056 110.79 201.588 110.79ZM213.428 110.79C214.044 110.79 214.59 110.944 215.066 111.252C215.542 111.56 215.911 111.994 216.172 112.554C216.434 113.105 216.564 113.744 216.564 114.472C216.564 115.2 216.434 115.839 216.172 116.39C215.911 116.931 215.542 117.351 215.066 117.65C214.6 117.949 214.054 118.098 213.428 118.098C212.878 118.098 212.397 117.977 211.986 117.734C211.576 117.491 211.263 117.146 211.048 116.698V121.024H209.914V112.932C209.914 112.204 209.877 111.546 209.802 110.958H210.88L210.992 112.316C211.188 111.831 211.496 111.457 211.916 111.196C212.346 110.925 212.85 110.79 213.428 110.79ZM213.218 117.16C213.909 117.16 214.441 116.927 214.814 116.46C215.197 115.993 215.388 115.331 215.388 114.472C215.388 113.613 215.197 112.946 214.814 112.47C214.432 111.985 213.9 111.742 213.218 111.742C212.518 111.742 211.982 111.975 211.608 112.442C211.235 112.909 211.048 113.576 211.048 114.444C211.048 115.312 211.235 115.984 211.608 116.46C211.982 116.927 212.518 117.16 213.218 117.16ZM224.511 110.958V118H223.391V116.726C223.185 117.165 222.873 117.505 222.453 117.748C222.042 117.981 221.561 118.098 221.011 118.098C220.385 118.098 219.835 117.949 219.359 117.65C218.892 117.351 218.528 116.931 218.267 116.39C218.015 115.839 217.889 115.2 217.889 114.472C217.889 113.744 218.019 113.105 218.281 112.554C218.542 111.994 218.906 111.56 219.373 111.252C219.849 110.944 220.395 110.79 221.011 110.79C221.561 110.79 222.042 110.911 222.453 111.154C222.863 111.397 223.176 111.737 223.391 112.176V110.958H224.511ZM221.235 117.16C221.925 117.16 222.457 116.927 222.831 116.46C223.204 115.984 223.391 115.312 223.391 114.444C223.391 113.576 223.204 112.909 222.831 112.442C222.457 111.975 221.925 111.742 221.235 111.742C220.544 111.742 220.003 111.985 219.611 112.47C219.228 112.946 219.037 113.613 219.037 114.472C219.037 115.331 219.228 115.993 219.611 116.46C219.993 116.927 220.535 117.16 221.235 117.16ZM232.975 110.958V117.944C232.975 118.989 232.705 119.778 232.163 120.31C231.631 120.851 230.843 121.122 229.797 121.122C228.724 121.122 227.8 120.879 227.025 120.394L227.221 119.47C227.669 119.722 228.089 119.904 228.481 120.016C228.883 120.128 229.321 120.184 229.797 120.184C230.479 120.184 230.992 120.002 231.337 119.638C231.683 119.283 231.855 118.751 231.855 118.042V116.376C231.641 116.824 231.323 117.174 230.903 117.426C230.493 117.669 230.003 117.79 229.433 117.79C228.817 117.79 228.267 117.645 227.781 117.356C227.305 117.067 226.937 116.656 226.675 116.124C226.414 115.592 226.283 114.981 226.283 114.29C226.283 113.599 226.414 112.988 226.675 112.456C226.937 111.924 227.305 111.513 227.781 111.224C228.267 110.935 228.817 110.79 229.433 110.79C229.993 110.79 230.479 110.911 230.889 111.154C231.309 111.397 231.627 111.737 231.841 112.176V110.958H232.975ZM229.657 116.838C230.339 116.838 230.871 116.614 231.253 116.166C231.645 115.709 231.841 115.083 231.841 114.29C231.841 113.497 231.645 112.876 231.253 112.428C230.871 111.971 230.339 111.742 229.657 111.742C228.967 111.742 228.421 111.971 228.019 112.428C227.627 112.876 227.431 113.497 227.431 114.29C227.431 115.083 227.627 115.709 228.019 116.166C228.421 116.614 228.967 116.838 229.657 116.838ZM241.047 114.444H235.881C235.89 115.34 236.095 116.017 236.497 116.474C236.907 116.931 237.5 117.16 238.275 117.16C239.096 117.16 239.852 116.885 240.543 116.334L240.921 117.16C240.613 117.449 240.216 117.678 239.731 117.846C239.255 118.014 238.765 118.098 238.261 118.098C237.159 118.098 236.296 117.776 235.671 117.132C235.045 116.479 234.733 115.587 234.733 114.458C234.733 113.739 234.873 113.105 235.153 112.554C235.433 111.994 235.825 111.56 236.329 111.252C236.833 110.944 237.407 110.79 238.051 110.79C238.984 110.79 239.717 111.098 240.249 111.714C240.781 112.321 241.047 113.161 241.047 114.234V114.444ZM238.065 111.672C237.477 111.672 236.996 111.849 236.623 112.204C236.259 112.559 236.025 113.058 235.923 113.702H240.025C239.969 113.039 239.773 112.535 239.437 112.19C239.11 111.845 238.653 111.672 238.065 111.672ZM245.148 118.098C243.962 118.098 243.024 117.795 242.334 117.188L242.712 116.348C243.094 116.647 243.482 116.861 243.874 116.992C244.266 117.123 244.704 117.188 245.19 117.188C245.722 117.188 246.123 117.099 246.394 116.922C246.674 116.735 246.814 116.469 246.814 116.124C246.814 115.844 246.72 115.62 246.534 115.452C246.347 115.284 246.039 115.153 245.61 115.06L244.42 114.78C243.832 114.649 243.374 114.416 243.048 114.08C242.73 113.744 242.572 113.343 242.572 112.876C242.572 112.26 242.819 111.761 243.314 111.378C243.808 110.986 244.462 110.79 245.274 110.79C245.768 110.79 246.235 110.869 246.674 111.028C247.112 111.187 247.481 111.415 247.78 111.714L247.402 112.54C246.739 111.989 246.03 111.714 245.274 111.714C244.77 111.714 244.378 111.812 244.098 112.008C243.827 112.195 243.692 112.461 243.692 112.806C243.692 113.095 243.776 113.324 243.944 113.492C244.121 113.66 244.401 113.791 244.784 113.884L245.974 114.178C246.627 114.327 247.112 114.561 247.43 114.878C247.747 115.186 247.906 115.592 247.906 116.096C247.906 116.703 247.658 117.188 247.164 117.552C246.669 117.916 245.997 118.098 245.148 118.098ZM259.565 110.958V118H258.445V116.726C258.24 117.165 257.927 117.505 257.507 117.748C257.097 117.981 256.616 118.098 256.065 118.098C255.44 118.098 254.889 117.949 254.413 117.65C253.947 117.351 253.583 116.931 253.321 116.39C253.069 115.839 252.943 115.2 252.943 114.472C252.943 113.744 253.074 113.105 253.335 112.554C253.597 111.994 253.961 111.56 254.427 111.252C254.903 110.944 255.449 110.79 256.065 110.79C256.616 110.79 257.097 110.911 257.507 111.154C257.918 111.397 258.231 111.737 258.445 112.176V110.958H259.565ZM256.289 117.16C256.98 117.16 257.512 116.927 257.885 116.46C258.259 115.984 258.445 115.312 258.445 114.444C258.445 113.576 258.259 112.909 257.885 112.442C257.512 111.975 256.98 111.742 256.289 111.742C255.599 111.742 255.057 111.985 254.665 112.47C254.283 112.946 254.091 113.613 254.091 114.472C254.091 115.331 254.283 115.993 254.665 116.46C255.048 116.927 255.589 117.16 256.289 117.16ZM264.138 118.098C262.953 118.098 262.015 117.795 261.324 117.188L261.702 116.348C262.085 116.647 262.472 116.861 262.864 116.992C263.256 117.123 263.695 117.188 264.18 117.188C264.712 117.188 265.113 117.099 265.384 116.922C265.664 116.735 265.804 116.469 265.804 116.124C265.804 115.844 265.711 115.62 265.524 115.452C265.337 115.284 265.029 115.153 264.6 115.06L263.41 114.78C262.822 114.649 262.365 114.416 262.038 114.08C261.721 113.744 261.562 113.343 261.562 112.876C261.562 112.26 261.809 111.761 262.304 111.378C262.799 110.986 263.452 110.79 264.264 110.79C264.759 110.79 265.225 110.869 265.664 111.028C266.103 111.187 266.471 111.415 266.77 111.714L266.392 112.54C265.729 111.989 265.02 111.714 264.264 111.714C263.76 111.714 263.368 111.812 263.088 112.008C262.817 112.195 262.682 112.461 262.682 112.806C262.682 113.095 262.766 113.324 262.934 113.492C263.111 113.66 263.391 113.791 263.774 113.884L264.964 114.178C265.617 114.327 266.103 114.561 266.42 114.878C266.737 115.186 266.896 115.592 266.896 116.096C266.896 116.703 266.649 117.188 266.154 117.552C265.659 117.916 264.987 118.098 264.138 118.098ZM278.542 110.958L275.252 118.644C274.906 119.447 274.472 120.035 273.95 120.408C273.427 120.781 272.783 121.038 272.018 121.178L271.78 120.296C272.442 120.147 272.942 119.946 273.278 119.694C273.623 119.451 273.908 119.073 274.132 118.56L274.412 117.93L271.43 110.958H272.62L275 116.768L277.408 110.958H278.542ZM282.621 118.098C281.959 118.098 281.375 117.949 280.871 117.65C280.367 117.351 279.975 116.927 279.695 116.376C279.425 115.825 279.289 115.181 279.289 114.444C279.289 113.707 279.425 113.063 279.695 112.512C279.975 111.961 280.367 111.537 280.871 111.238C281.375 110.939 281.959 110.79 282.621 110.79C283.284 110.79 283.867 110.939 284.371 111.238C284.875 111.537 285.263 111.961 285.533 112.512C285.813 113.063 285.953 113.707 285.953 114.444C285.953 115.181 285.813 115.825 285.533 116.376C285.263 116.927 284.875 117.351 284.371 117.65C283.867 117.949 283.284 118.098 282.621 118.098ZM282.621 117.16C283.321 117.16 283.858 116.931 284.231 116.474C284.605 116.007 284.791 115.331 284.791 114.444C284.791 113.585 284.6 112.923 284.217 112.456C283.835 111.98 283.303 111.742 282.621 111.742C281.931 111.742 281.394 111.98 281.011 112.456C280.629 112.923 280.437 113.585 280.437 114.444C280.437 115.331 280.624 116.007 280.997 116.474C281.38 116.931 281.921 117.16 282.621 117.16ZM293.615 110.958V118H292.509V116.782C292.285 117.211 291.972 117.538 291.571 117.762C291.17 117.986 290.717 118.098 290.213 118.098C289.382 118.098 288.752 117.865 288.323 117.398C287.894 116.931 287.679 116.241 287.679 115.326V110.958H288.813V115.298C288.813 115.933 288.944 116.399 289.205 116.698C289.466 116.997 289.863 117.146 290.395 117.146C291.02 117.146 291.524 116.945 291.907 116.544C292.29 116.133 292.481 115.597 292.481 114.934V110.958H293.615ZM115.788 128.958L113.184 136H112.092L110.076 130.498L108.074 136H106.982L104.378 128.958H105.568L107.556 134.642L109.614 128.958H110.608L112.638 134.656L114.668 128.958H115.788ZM123.38 128.958V136H122.26V134.726C122.055 135.165 121.742 135.505 121.322 135.748C120.911 135.981 120.431 136.098 119.88 136.098C119.255 136.098 118.704 135.949 118.228 135.65C117.761 135.351 117.397 134.931 117.136 134.39C116.884 133.839 116.758 133.2 116.758 132.472C116.758 131.744 116.889 131.105 117.15 130.554C117.411 129.994 117.775 129.56 118.242 129.252C118.718 128.944 119.264 128.79 119.88 128.79C120.431 128.79 120.911 128.911 121.322 129.154C121.733 129.397 122.045 129.737 122.26 130.176V128.958H123.38ZM120.104 135.16C120.795 135.16 121.327 134.927 121.7 134.46C122.073 133.984 122.26 133.312 122.26 132.444C122.26 131.576 122.073 130.909 121.7 130.442C121.327 129.975 120.795 129.742 120.104 129.742C119.413 129.742 118.872 129.985 118.48 130.47C118.097 130.946 117.906 131.613 117.906 132.472C117.906 133.331 118.097 133.993 118.48 134.46C118.863 134.927 119.404 135.16 120.104 135.16ZM129.086 128.79C130.776 128.79 131.62 129.719 131.62 131.576V136H130.486V131.632C130.486 130.979 130.356 130.503 130.094 130.204C129.833 129.896 129.422 129.742 128.862 129.742C128.209 129.742 127.686 129.943 127.294 130.344C126.902 130.745 126.706 131.287 126.706 131.968V136H125.572V130.932C125.572 130.204 125.535 129.546 125.46 128.958H126.538L126.65 130.218C126.865 129.761 127.187 129.411 127.616 129.168C128.046 128.916 128.536 128.79 129.086 128.79ZM135.274 129.854V133.704C135.274 134.227 135.381 134.595 135.596 134.81C135.811 135.015 136.114 135.118 136.506 135.118C136.767 135.118 137.019 135.076 137.262 134.992V135.958C136.973 136.051 136.646 136.098 136.282 136.098C135.61 136.098 135.083 135.911 134.7 135.538C134.327 135.155 134.14 134.595 134.14 133.858V129.854H132.768V128.958H134.14V127.152L135.274 126.746V128.958H137.29V129.854H135.274ZM145.009 126.62C144.636 126.62 144.342 126.727 144.127 126.942C143.922 127.147 143.819 127.507 143.819 128.02V128.958H145.541V129.854H143.819V136H142.685V129.854H141.313V128.958H142.685V127.88C142.685 127.143 142.867 126.587 143.231 126.214C143.604 125.831 144.122 125.64 144.785 125.64C145.112 125.64 145.429 125.682 145.737 125.766V126.732C145.476 126.657 145.233 126.62 145.009 126.62ZM149.867 136.098C149.205 136.098 148.621 135.949 148.117 135.65C147.613 135.351 147.221 134.927 146.941 134.376C146.671 133.825 146.535 133.181 146.535 132.444C146.535 131.707 146.671 131.063 146.941 130.512C147.221 129.961 147.613 129.537 148.117 129.238C148.621 128.939 149.205 128.79 149.867 128.79C150.53 128.79 151.113 128.939 151.617 129.238C152.121 129.537 152.509 129.961 152.779 130.512C153.059 131.063 153.199 131.707 153.199 132.444C153.199 133.181 153.059 133.825 152.779 134.376C152.509 134.927 152.121 135.351 151.617 135.65C151.113 135.949 150.53 136.098 149.867 136.098ZM149.867 135.16C150.567 135.16 151.104 134.931 151.477 134.474C151.851 134.007 152.037 133.331 152.037 132.444C152.037 131.585 151.846 130.923 151.463 130.456C151.081 129.98 150.549 129.742 149.867 129.742C149.177 129.742 148.64 129.98 148.257 130.456C147.875 130.923 147.683 131.585 147.683 132.444C147.683 133.331 147.87 134.007 148.243 134.474C148.626 134.931 149.167 135.16 149.867 135.16ZM158.243 128.79C158.476 128.79 158.691 128.818 158.887 128.874L158.859 129.91C158.644 129.835 158.397 129.798 158.117 129.798C157.436 129.798 156.927 130.013 156.591 130.442C156.264 130.862 156.101 131.375 156.101 131.982V136H154.967V130.932C154.967 130.204 154.93 129.546 154.855 128.958H155.933L156.045 130.26C156.222 129.784 156.507 129.42 156.899 129.168C157.291 128.916 157.739 128.79 158.243 128.79ZM166.644 136.098C165.962 136.098 165.365 135.949 164.852 135.65C164.348 135.351 163.956 134.931 163.676 134.39C163.405 133.839 163.27 133.2 163.27 132.472C163.27 131.744 163.41 131.105 163.69 130.554C163.97 129.994 164.366 129.56 164.88 129.252C165.402 128.944 166.009 128.79 166.7 128.79C167.176 128.79 167.633 128.874 168.072 129.042C168.52 129.201 168.888 129.425 169.178 129.714L168.8 130.554C168.445 130.274 168.1 130.069 167.764 129.938C167.437 129.807 167.101 129.742 166.756 129.742C166.037 129.742 165.472 129.985 165.062 130.47C164.651 130.946 164.446 131.613 164.446 132.472C164.446 133.321 164.646 133.984 165.048 134.46C165.458 134.927 166.028 135.16 166.756 135.16C167.101 135.16 167.437 135.095 167.764 134.964C168.1 134.833 168.445 134.628 168.8 134.348L169.178 135.188C168.879 135.468 168.501 135.692 168.044 135.86C167.596 136.019 167.129 136.098 166.644 136.098ZM176.515 128.958V136H175.409V134.782C175.185 135.211 174.873 135.538 174.471 135.762C174.07 135.986 173.617 136.098 173.113 136.098C172.283 136.098 171.653 135.865 171.223 135.398C170.794 134.931 170.579 134.241 170.579 133.326V128.958H171.713V133.298C171.713 133.933 171.844 134.399 172.105 134.698C172.367 134.997 172.763 135.146 173.295 135.146C173.921 135.146 174.425 134.945 174.807 134.544C175.19 134.133 175.381 133.597 175.381 132.934V128.958H176.515ZM181.081 136.098C179.896 136.098 178.958 135.795 178.267 135.188L178.645 134.348C179.028 134.647 179.415 134.861 179.807 134.992C180.199 135.123 180.638 135.188 181.123 135.188C181.655 135.188 182.057 135.099 182.327 134.922C182.607 134.735 182.747 134.469 182.747 134.124C182.747 133.844 182.654 133.62 182.467 133.452C182.281 133.284 181.973 133.153 181.543 133.06L180.353 132.78C179.765 132.649 179.308 132.416 178.981 132.08C178.664 131.744 178.505 131.343 178.505 130.876C178.505 130.26 178.753 129.761 179.247 129.378C179.742 128.986 180.395 128.79 181.207 128.79C181.702 128.79 182.169 128.869 182.607 129.028C183.046 129.187 183.415 129.415 183.713 129.714L183.335 130.54C182.673 129.989 181.963 129.714 181.207 129.714C180.703 129.714 180.311 129.812 180.031 130.008C179.761 130.195 179.625 130.461 179.625 130.806C179.625 131.095 179.709 131.324 179.877 131.492C180.055 131.66 180.335 131.791 180.717 131.884L181.907 132.178C182.561 132.327 183.046 132.561 183.363 132.878C183.681 133.186 183.839 133.592 183.839 134.096C183.839 134.703 183.592 135.188 183.097 135.552C182.603 135.916 181.931 136.098 181.081 136.098ZM187.09 129.854V133.704C187.09 134.227 187.198 134.595 187.412 134.81C187.627 135.015 187.93 135.118 188.322 135.118C188.584 135.118 188.836 135.076 189.078 134.992V135.958C188.789 136.051 188.462 136.098 188.098 136.098C187.426 136.098 186.899 135.911 186.516 135.538C186.143 135.155 185.956 134.595 185.956 133.858V129.854H184.584V128.958H185.956V127.152L187.09 126.746V128.958H189.106V129.854H187.09ZM193.385 136.098C192.722 136.098 192.139 135.949 191.635 135.65C191.131 135.351 190.739 134.927 190.459 134.376C190.188 133.825 190.053 133.181 190.053 132.444C190.053 131.707 190.188 131.063 190.459 130.512C190.739 129.961 191.131 129.537 191.635 129.238C192.139 128.939 192.722 128.79 193.385 128.79C194.048 128.79 194.631 128.939 195.135 129.238C195.639 129.537 196.026 129.961 196.297 130.512C196.577 131.063 196.717 131.707 196.717 132.444C196.717 133.181 196.577 133.825 196.297 134.376C196.026 134.927 195.639 135.351 195.135 135.65C194.631 135.949 194.048 136.098 193.385 136.098ZM193.385 135.16C194.085 135.16 194.622 134.931 194.995 134.474C195.368 134.007 195.555 133.331 195.555 132.444C195.555 131.585 195.364 130.923 194.981 130.456C194.598 129.98 194.066 129.742 193.385 129.742C192.694 129.742 192.158 129.98 191.775 130.456C191.392 130.923 191.201 131.585 191.201 132.444C191.201 133.331 191.388 134.007 191.761 134.474C192.144 134.931 192.685 135.16 193.385 135.16ZM206.297 128.79C207.855 128.79 208.635 129.719 208.635 131.576V136H207.501V131.632C207.501 130.969 207.384 130.489 207.151 130.19C206.927 129.891 206.558 129.742 206.045 129.742C205.447 129.742 204.981 129.943 204.645 130.344C204.309 130.745 204.141 131.291 204.141 131.982V136H203.007V131.632C203.007 130.979 202.89 130.503 202.657 130.204C202.423 129.896 202.05 129.742 201.537 129.742C200.939 129.742 200.468 129.943 200.123 130.344C199.787 130.745 199.619 131.291 199.619 131.982V136H198.485V130.932C198.485 130.204 198.447 129.546 198.373 128.958H199.451L199.563 130.19C199.759 129.742 200.048 129.397 200.431 129.154C200.823 128.911 201.275 128.79 201.789 128.79C202.349 128.79 202.806 128.902 203.161 129.126C203.515 129.35 203.777 129.695 203.945 130.162C204.159 129.742 204.472 129.411 204.883 129.168C205.303 128.916 205.774 128.79 206.297 128.79ZM216.683 132.444H211.517C211.527 133.34 211.732 134.017 212.133 134.474C212.544 134.931 213.137 135.16 213.911 135.16C214.733 135.16 215.489 134.885 216.179 134.334L216.557 135.16C216.249 135.449 215.853 135.678 215.367 135.846C214.891 136.014 214.401 136.098 213.897 136.098C212.796 136.098 211.933 135.776 211.307 135.132C210.682 134.479 210.369 133.587 210.369 132.458C210.369 131.739 210.509 131.105 210.789 130.554C211.069 129.994 211.461 129.56 211.965 129.252C212.469 128.944 213.043 128.79 213.687 128.79C214.621 128.79 215.353 129.098 215.885 129.714C216.417 130.321 216.683 131.161 216.683 132.234V132.444ZM213.701 129.672C213.113 129.672 212.633 129.849 212.259 130.204C211.895 130.559 211.662 131.058 211.559 131.702H215.661C215.605 131.039 215.409 130.535 215.073 130.19C214.747 129.845 214.289 129.672 213.701 129.672ZM221.681 128.79C221.914 128.79 222.129 128.818 222.325 128.874L222.297 129.91C222.082 129.835 221.835 129.798 221.555 129.798C220.873 129.798 220.365 130.013 220.029 130.442C219.702 130.862 219.539 131.375 219.539 131.982V136H218.405V130.932C218.405 130.204 218.367 129.546 218.293 128.958H219.37L219.483 130.26C219.66 129.784 219.945 129.42 220.337 129.168C220.729 128.916 221.177 128.79 221.681 128.79ZM225.788 136.098C224.603 136.098 223.665 135.795 222.974 135.188L223.352 134.348C223.735 134.647 224.122 134.861 224.514 134.992C224.906 135.123 225.345 135.188 225.83 135.188C226.362 135.188 226.764 135.099 227.034 134.922C227.314 134.735 227.454 134.469 227.454 134.124C227.454 133.844 227.361 133.62 227.174 133.452C226.988 133.284 226.68 133.153 226.25 133.06L225.06 132.78C224.472 132.649 224.015 132.416 223.688 132.08C223.371 131.744 223.212 131.343 223.212 130.876C223.212 130.26 223.46 129.761 223.954 129.378C224.449 128.986 225.102 128.79 225.914 128.79C226.409 128.79 226.876 128.869 227.314 129.028C227.753 129.187 228.122 129.415 228.42 129.714L228.042 130.54C227.38 129.989 226.67 129.714 225.914 129.714C225.41 129.714 225.018 129.812 224.738 130.008C224.468 130.195 224.332 130.461 224.332 130.806C224.332 131.095 224.416 131.324 224.584 131.492C224.762 131.66 225.042 131.791 225.424 131.884L226.614 132.178C227.268 132.327 227.753 132.561 228.07 132.878C228.388 133.186 228.546 133.592 228.546 134.096C228.546 134.703 228.299 135.188 227.804 135.552C227.31 135.916 226.638 136.098 225.788 136.098ZM244.7 128.958L242.096 136H241.004L238.988 130.498L236.986 136H235.894L233.29 128.958H234.48L236.468 134.642L238.526 128.958H239.52L241.55 134.656L243.58 128.958H244.7ZM246.172 128.958H247.306V136H246.172V128.958ZM247.446 125.976V127.264H246.06V125.976H247.446ZM251.02 129.854V133.704C251.02 134.227 251.127 134.595 251.342 134.81C251.557 135.015 251.86 135.118 252.252 135.118C252.513 135.118 252.765 135.076 253.008 134.992V135.958C252.719 136.051 252.392 136.098 252.028 136.098C251.356 136.098 250.829 135.911 250.446 135.538C250.073 135.155 249.886 134.595 249.886 133.858V129.854H248.514V128.958H249.886V127.152L251.02 126.746V128.958H253.036V129.854H251.02ZM257.917 128.79C259.606 128.79 260.451 129.719 260.451 131.576V136H259.317V131.632C259.317 130.979 259.186 130.503 258.925 130.204C258.663 129.896 258.253 129.742 257.693 129.742C257.039 129.742 256.517 129.943 256.125 130.344C255.733 130.745 255.537 131.287 255.537 131.968V136H254.403V125.696H255.537V130.106C255.761 129.677 256.078 129.35 256.489 129.126C256.909 128.902 257.385 128.79 257.917 128.79ZM267.754 129.854V133.704C267.754 134.227 267.862 134.595 268.076 134.81C268.291 135.015 268.594 135.118 268.986 135.118C269.248 135.118 269.5 135.076 269.742 134.992V135.958C269.453 136.051 269.126 136.098 268.762 136.098C268.09 136.098 267.563 135.911 267.18 135.538C266.807 135.155 266.62 134.595 266.62 133.858V129.854H265.248V128.958H266.62V127.152L267.754 126.746V128.958H269.77V129.854H267.754ZM274.651 128.79C276.34 128.79 277.185 129.719 277.185 131.576V136H276.051V131.632C276.051 130.979 275.92 130.503 275.659 130.204C275.398 129.896 274.987 129.742 274.427 129.742C273.774 129.742 273.251 129.943 272.859 130.344C272.467 130.745 272.271 131.287 272.271 131.968V136H271.137V125.696H272.271V130.106C272.495 129.677 272.812 129.35 273.223 129.126C273.643 128.902 274.119 128.79 274.651 128.79ZM285.22 132.444H280.054C280.064 133.34 280.269 134.017 280.67 134.474C281.081 134.931 281.674 135.16 282.448 135.16C283.27 135.16 284.026 134.885 284.716 134.334L285.094 135.16C284.786 135.449 284.39 135.678 283.904 135.846C283.428 136.014 282.938 136.098 282.434 136.098C281.333 136.098 280.47 135.776 279.844 135.132C279.219 134.479 278.906 133.587 278.906 132.458C278.906 131.739 279.046 131.105 279.326 130.554C279.606 129.994 279.998 129.56 280.502 129.252C281.006 128.944 281.58 128.79 282.224 128.79C283.158 128.79 283.89 129.098 284.422 129.714C284.954 130.321 285.22 131.161 285.22 132.234V132.444ZM282.238 129.672C281.65 129.672 281.17 129.849 280.796 130.204C280.432 130.559 280.199 131.058 280.096 131.702H284.198C284.142 131.039 283.946 130.535 283.61 130.19C283.284 129.845 282.826 129.672 282.238 129.672ZM286.942 128.958H288.076V136H286.942V128.958ZM288.216 125.976V127.264H286.83V125.976H288.216ZM293.554 128.79C293.787 128.79 294.002 128.818 294.198 128.874L294.17 129.91C293.955 129.835 293.708 129.798 293.428 129.798C292.746 129.798 292.238 130.013 291.902 130.442C291.575 130.862 291.412 131.375 291.412 131.982V136H290.278V130.932C290.278 130.204 290.24 129.546 290.166 128.958H291.244L291.356 130.26C291.533 129.784 291.818 129.42 292.21 129.168C292.602 128.916 293.05 128.79 293.554 128.79ZM108.606 146.79C109.222 146.79 109.768 146.944 110.244 147.252C110.72 147.56 111.089 147.994 111.35 148.554C111.611 149.105 111.742 149.744 111.742 150.472C111.742 151.2 111.611 151.839 111.35 152.39C111.089 152.931 110.72 153.351 110.244 153.65C109.777 153.949 109.231 154.098 108.606 154.098C108.055 154.098 107.575 153.977 107.164 153.734C106.753 153.491 106.441 153.146 106.226 152.698V157.024H105.092V148.932C105.092 148.204 105.055 147.546 104.98 146.958H106.058L106.17 148.316C106.366 147.831 106.674 147.457 107.094 147.196C107.523 146.925 108.027 146.79 108.606 146.79ZM108.396 153.16C109.087 153.16 109.619 152.927 109.992 152.46C110.375 151.993 110.566 151.331 110.566 150.472C110.566 149.613 110.375 148.946 109.992 148.47C109.609 147.985 109.077 147.742 108.396 147.742C107.696 147.742 107.159 147.975 106.786 148.442C106.413 148.909 106.226 149.576 106.226 150.444C106.226 151.312 106.413 151.984 106.786 152.46C107.159 152.927 107.696 153.16 108.396 153.16ZM119.689 146.958V154H118.569V152.726C118.363 153.165 118.051 153.505 117.631 153.748C117.22 153.981 116.739 154.098 116.189 154.098C115.563 154.098 115.013 153.949 114.537 153.65C114.07 153.351 113.706 152.931 113.445 152.39C113.193 151.839 113.067 151.2 113.067 150.472C113.067 149.744 113.197 149.105 113.459 148.554C113.72 147.994 114.084 147.56 114.551 147.252C115.027 146.944 115.573 146.79 116.189 146.79C116.739 146.79 117.22 146.911 117.631 147.154C118.041 147.397 118.354 147.737 118.569 148.176V146.958H119.689ZM116.413 153.16C117.103 153.16 117.635 152.927 118.009 152.46C118.382 151.984 118.569 151.312 118.569 150.444C118.569 149.576 118.382 148.909 118.009 148.442C117.635 147.975 117.103 147.742 116.413 147.742C115.722 147.742 115.181 147.985 114.789 148.47C114.406 148.946 114.215 149.613 114.215 150.472C114.215 151.331 114.406 151.993 114.789 152.46C115.171 152.927 115.713 153.16 116.413 153.16ZM128.153 146.958V153.944C128.153 154.989 127.882 155.778 127.341 156.31C126.809 156.851 126.02 157.122 124.975 157.122C123.902 157.122 122.978 156.879 122.203 156.394L122.399 155.47C122.847 155.722 123.267 155.904 123.659 156.016C124.06 156.128 124.499 156.184 124.975 156.184C125.656 156.184 126.17 156.002 126.515 155.638C126.86 155.283 127.033 154.751 127.033 154.042V152.376C126.818 152.824 126.501 153.174 126.081 153.426C125.67 153.669 125.18 153.79 124.611 153.79C123.995 153.79 123.444 153.645 122.959 153.356C122.483 153.067 122.114 152.656 121.853 152.124C121.592 151.592 121.461 150.981 121.461 150.29C121.461 149.599 121.592 148.988 121.853 148.456C122.114 147.924 122.483 147.513 122.959 147.224C123.444 146.935 123.995 146.79 124.611 146.79C125.171 146.79 125.656 146.911 126.067 147.154C126.487 147.397 126.804 147.737 127.019 148.176V146.958H128.153ZM124.835 152.838C125.516 152.838 126.048 152.614 126.431 152.166C126.823 151.709 127.019 151.083 127.019 150.29C127.019 149.497 126.823 148.876 126.431 148.428C126.048 147.971 125.516 147.742 124.835 147.742C124.144 147.742 123.598 147.971 123.197 148.428C122.805 148.876 122.609 149.497 122.609 150.29C122.609 151.083 122.805 151.709 123.197 152.166C123.598 152.614 124.144 152.838 124.835 152.838ZM136.224 150.444H131.058C131.068 151.34 131.273 152.017 131.674 152.474C132.085 152.931 132.678 153.16 133.452 153.16C134.274 153.16 135.03 152.885 135.72 152.334L136.098 153.16C135.79 153.449 135.394 153.678 134.908 153.846C134.432 154.014 133.942 154.098 133.438 154.098C132.337 154.098 131.474 153.776 130.848 153.132C130.223 152.479 129.91 151.587 129.91 150.458C129.91 149.739 130.05 149.105 130.33 148.554C130.61 147.994 131.002 147.56 131.506 147.252C132.01 146.944 132.584 146.79 133.228 146.79C134.162 146.79 134.894 147.098 135.426 147.714C135.958 148.321 136.224 149.161 136.224 150.234V150.444ZM133.242 147.672C132.654 147.672 132.174 147.849 131.8 148.204C131.436 148.559 131.203 149.058 131.1 149.702H135.202C135.146 149.039 134.95 148.535 134.614 148.19C134.288 147.845 133.83 147.672 133.242 147.672ZM143.108 147.854V151.704C143.108 152.227 143.215 152.595 143.43 152.81C143.645 153.015 143.948 153.118 144.34 153.118C144.601 153.118 144.853 153.076 145.096 152.992V153.958C144.807 154.051 144.48 154.098 144.116 154.098C143.444 154.098 142.917 153.911 142.534 153.538C142.161 153.155 141.974 152.595 141.974 151.858V147.854H140.602V146.958H141.974V145.152L143.108 144.746V146.958H145.124V147.854H143.108ZM152.384 150.444H147.218C147.228 151.34 147.433 152.017 147.834 152.474C148.245 152.931 148.838 153.16 149.612 153.16C150.434 153.16 151.19 152.885 151.88 152.334L152.258 153.16C151.95 153.449 151.554 153.678 151.068 153.846C150.592 154.014 150.102 154.098 149.598 154.098C148.497 154.098 147.634 153.776 147.008 153.132C146.383 152.479 146.07 151.587 146.07 150.458C146.07 149.739 146.21 149.105 146.49 148.554C146.77 147.994 147.162 147.56 147.666 147.252C148.17 146.944 148.744 146.79 149.388 146.79C150.322 146.79 151.054 147.098 151.586 147.714C152.118 148.321 152.384 149.161 152.384 150.234V150.444ZM149.402 147.672C148.814 147.672 148.334 147.849 147.96 148.204C147.596 148.559 147.363 149.058 147.26 149.702H151.362C151.306 149.039 151.11 148.535 150.774 148.19C150.448 147.845 149.99 147.672 149.402 147.672ZM161.918 146.79C163.476 146.79 164.256 147.719 164.256 149.576V154H163.122V149.632C163.122 148.969 163.005 148.489 162.772 148.19C162.548 147.891 162.179 147.742 161.666 147.742C161.068 147.742 160.602 147.943 160.266 148.344C159.93 148.745 159.762 149.291 159.762 149.982V154H158.628V149.632C158.628 148.979 158.511 148.503 158.278 148.204C158.044 147.896 157.671 147.742 157.158 147.742C156.56 147.742 156.089 147.943 155.744 148.344C155.408 148.745 155.24 149.291 155.24 149.982V154H154.106V148.932C154.106 148.204 154.068 147.546 153.994 146.958H155.072L155.184 148.19C155.38 147.742 155.669 147.397 156.052 147.154C156.444 146.911 156.896 146.79 157.41 146.79C157.97 146.79 158.427 146.902 158.782 147.126C159.136 147.35 159.398 147.695 159.566 148.162C159.78 147.742 160.093 147.411 160.504 147.168C160.924 146.916 161.395 146.79 161.918 146.79ZM169.924 146.79C170.54 146.79 171.086 146.944 171.562 147.252C172.038 147.56 172.407 147.994 172.668 148.554C172.93 149.105 173.06 149.744 173.06 150.472C173.06 151.2 172.93 151.839 172.668 152.39C172.407 152.931 172.038 153.351 171.562 153.65C171.096 153.949 170.55 154.098 169.924 154.098C169.374 154.098 168.893 153.977 168.482 153.734C168.072 153.491 167.759 153.146 167.544 152.698V157.024H166.41V148.932C166.41 148.204 166.373 147.546 166.298 146.958H167.376L167.488 148.316C167.684 147.831 167.992 147.457 168.412 147.196C168.842 146.925 169.346 146.79 169.924 146.79ZM169.714 153.16C170.405 153.16 170.937 152.927 171.31 152.46C171.693 151.993 171.884 151.331 171.884 150.472C171.884 149.613 171.693 148.946 171.31 148.47C170.928 147.985 170.396 147.742 169.714 147.742C169.014 147.742 168.478 147.975 168.104 148.442C167.731 148.909 167.544 149.576 167.544 150.444C167.544 151.312 167.731 151.984 168.104 152.46C168.478 152.927 169.014 153.16 169.714 153.16ZM174.805 143.696H175.939V154H174.805V143.696ZM184.343 146.958V154H183.223V152.726C183.017 153.165 182.705 153.505 182.285 153.748C181.874 153.981 181.393 154.098 180.843 154.098C180.217 154.098 179.667 153.949 179.191 153.65C178.724 153.351 178.36 152.931 178.099 152.39C177.847 151.839 177.721 151.2 177.721 150.472C177.721 149.744 177.851 149.105 178.113 148.554C178.374 147.994 178.738 147.56 179.205 147.252C179.681 146.944 180.227 146.79 180.843 146.79C181.393 146.79 181.874 146.911 182.285 147.154C182.695 147.397 183.008 147.737 183.223 148.176V146.958H184.343ZM181.067 153.16C181.757 153.16 182.289 152.927 182.663 152.46C183.036 151.984 183.223 151.312 183.223 150.444C183.223 149.576 183.036 148.909 182.663 148.442C182.289 147.975 181.757 147.742 181.067 147.742C180.376 147.742 179.835 147.985 179.443 148.47C179.06 148.946 178.869 149.613 178.869 150.472C178.869 151.331 179.06 151.993 179.443 152.46C179.825 152.927 180.367 153.16 181.067 153.16ZM188.047 147.854V151.704C188.047 152.227 188.155 152.595 188.369 152.81C188.584 153.015 188.887 153.118 189.279 153.118C189.541 153.118 189.793 153.076 190.035 152.992V153.958C189.746 154.051 189.419 154.098 189.055 154.098C188.383 154.098 187.856 153.911 187.473 153.538C187.1 153.155 186.913 152.595 186.913 151.858V147.854H185.541V146.958H186.913V145.152L188.047 144.746V146.958H190.063V147.854H188.047ZM197.324 150.444H192.158C192.167 151.34 192.373 152.017 192.774 152.474C193.185 152.931 193.777 153.16 194.552 153.16C195.373 153.16 196.129 152.885 196.82 152.334L197.198 153.16C196.89 153.449 196.493 153.678 196.008 153.846C195.532 154.014 195.042 154.098 194.538 154.098C193.437 154.098 192.573 153.776 191.948 153.132C191.323 152.479 191.01 151.587 191.01 150.458C191.01 149.739 191.15 149.105 191.43 148.554C191.71 147.994 192.102 147.56 192.606 147.252C193.11 146.944 193.684 146.79 194.328 146.79C195.261 146.79 195.994 147.098 196.526 147.714C197.058 148.321 197.324 149.161 197.324 150.234V150.444ZM194.342 147.672C193.754 147.672 193.273 147.849 192.9 148.204C192.536 148.559 192.303 149.058 192.2 149.702H196.302C196.246 149.039 196.05 148.535 195.714 148.19C195.387 147.845 194.93 147.672 194.342 147.672ZM201.425 154.098C200.24 154.098 199.302 153.795 198.611 153.188L198.989 152.348C199.372 152.647 199.759 152.861 200.151 152.992C200.543 153.123 200.982 153.188 201.467 153.188C201.999 153.188 202.4 153.099 202.671 152.922C202.951 152.735 203.091 152.469 203.091 152.124C203.091 151.844 202.998 151.62 202.811 151.452C202.624 151.284 202.316 151.153 201.887 151.06L200.697 150.78C200.109 150.649 199.652 150.416 199.325 150.08C199.008 149.744 198.849 149.343 198.849 148.876C198.849 148.26 199.096 147.761 199.591 147.378C200.086 146.986 200.739 146.79 201.551 146.79C202.046 146.79 202.512 146.869 202.951 147.028C203.39 147.187 203.758 147.415 204.057 147.714L203.679 148.54C203.016 147.989 202.307 147.714 201.551 147.714C201.047 147.714 200.655 147.812 200.375 148.008C200.104 148.195 199.969 148.461 199.969 148.806C199.969 149.095 200.053 149.324 200.221 149.492C200.398 149.66 200.678 149.791 201.061 149.884L202.251 150.178C202.904 150.327 203.39 150.561 203.707 150.878C204.024 151.186 204.183 151.592 204.183 152.096C204.183 152.703 203.936 153.188 203.441 153.552C202.946 153.916 202.274 154.098 201.425 154.098ZM215.843 146.958V154H214.723V152.726C214.517 153.165 214.205 153.505 213.785 153.748C213.374 153.981 212.893 154.098 212.343 154.098C211.717 154.098 211.167 153.949 210.691 153.65C210.224 153.351 209.86 152.931 209.599 152.39C209.347 151.839 209.221 151.2 209.221 150.472C209.221 149.744 209.351 149.105 209.613 148.554C209.874 147.994 210.238 147.56 210.705 147.252C211.181 146.944 211.727 146.79 212.343 146.79C212.893 146.79 213.374 146.911 213.785 147.154C214.195 147.397 214.508 147.737 214.723 148.176V146.958H215.843ZM212.567 153.16C213.257 153.16 213.789 152.927 214.163 152.46C214.536 151.984 214.723 151.312 214.723 150.444C214.723 149.576 214.536 148.909 214.163 148.442C213.789 147.975 213.257 147.742 212.567 147.742C211.876 147.742 211.335 147.985 210.943 148.47C210.56 148.946 210.369 149.613 210.369 150.472C210.369 151.331 210.56 151.993 210.943 152.46C211.325 152.927 211.867 153.16 212.567 153.16ZM218.035 143.696H219.169V154H218.035V143.696ZM221.371 143.696H222.505V154H221.371V143.696ZM234.546 146.958L231.256 154.644C230.91 155.447 230.476 156.035 229.954 156.408C229.431 156.781 228.787 157.038 228.022 157.178L227.784 156.296C228.446 156.147 228.946 155.946 229.282 155.694C229.627 155.451 229.912 155.073 230.136 154.56L230.416 153.93L227.434 146.958H228.624L231.004 152.768L233.412 146.958H234.546ZM238.625 154.098C237.962 154.098 237.379 153.949 236.875 153.65C236.371 153.351 235.979 152.927 235.699 152.376C235.428 151.825 235.293 151.181 235.293 150.444C235.293 149.707 235.428 149.063 235.699 148.512C235.979 147.961 236.371 147.537 236.875 147.238C237.379 146.939 237.962 146.79 238.625 146.79C239.288 146.79 239.871 146.939 240.375 147.238C240.879 147.537 241.266 147.961 241.537 148.512C241.817 149.063 241.957 149.707 241.957 150.444C241.957 151.181 241.817 151.825 241.537 152.376C241.266 152.927 240.879 153.351 240.375 153.65C239.871 153.949 239.288 154.098 238.625 154.098ZM238.625 153.16C239.325 153.16 239.862 152.931 240.235 152.474C240.608 152.007 240.795 151.331 240.795 150.444C240.795 149.585 240.604 148.923 240.221 148.456C239.838 147.98 239.306 147.742 238.625 147.742C237.934 147.742 237.398 147.98 237.015 148.456C236.632 148.923 236.441 149.585 236.441 150.444C236.441 151.331 236.628 152.007 237.001 152.474C237.384 152.931 237.925 153.16 238.625 153.16ZM249.619 146.958V154H248.513V152.782C248.289 153.211 247.976 153.538 247.575 153.762C247.173 153.986 246.721 154.098 246.217 154.098C245.386 154.098 244.756 153.865 244.327 153.398C243.897 152.931 243.683 152.241 243.683 151.326V146.958H244.817V151.298C244.817 151.933 244.947 152.399 245.209 152.698C245.47 152.997 245.867 153.146 246.399 153.146C247.024 153.146 247.528 152.945 247.911 152.544C248.293 152.133 248.485 151.597 248.485 150.934V146.958H249.619ZM255.081 146.79C255.314 146.79 255.529 146.818 255.725 146.874L255.697 147.91C255.482 147.835 255.235 147.798 254.955 147.798C254.274 147.798 253.765 148.013 253.429 148.442C253.102 148.862 252.939 149.375 252.939 149.982V154H251.805V148.932C251.805 148.204 251.768 147.546 251.693 146.958H252.771L252.883 148.26C253.06 147.784 253.345 147.42 253.737 147.168C254.129 146.916 254.577 146.79 255.081 146.79ZM260.528 143.696H261.662V154H260.528V143.696ZM266.775 154.098C266.113 154.098 265.529 153.949 265.025 153.65C264.521 153.351 264.129 152.927 263.849 152.376C263.579 151.825 263.443 151.181 263.443 150.444C263.443 149.707 263.579 149.063 263.849 148.512C264.129 147.961 264.521 147.537 265.025 147.238C265.529 146.939 266.113 146.79 266.775 146.79C267.438 146.79 268.021 146.939 268.525 147.238C269.029 147.537 269.417 147.961 269.687 148.512C269.967 149.063 270.107 149.707 270.107 150.444C270.107 151.181 269.967 151.825 269.687 152.376C269.417 152.927 269.029 153.351 268.525 153.65C268.021 153.949 267.438 154.098 266.775 154.098ZM266.775 153.16C267.475 153.16 268.012 152.931 268.385 152.474C268.759 152.007 268.945 151.331 268.945 150.444C268.945 149.585 268.754 148.923 268.371 148.456C267.989 147.98 267.457 147.742 266.775 147.742C266.085 147.742 265.548 147.98 265.165 148.456C264.783 148.923 264.591 149.585 264.591 150.444C264.591 151.331 264.778 152.007 265.151 152.474C265.534 152.931 266.075 153.16 266.775 153.16ZM275.389 146.79C277.079 146.79 277.923 147.719 277.923 149.576V154H276.789V149.632C276.789 148.979 276.659 148.503 276.397 148.204C276.136 147.896 275.725 147.742 275.165 147.742C274.512 147.742 273.989 147.943 273.597 148.344C273.205 148.745 273.009 149.287 273.009 149.968V154H271.875V148.932C271.875 148.204 271.838 147.546 271.763 146.958H272.841L272.953 148.218C273.168 147.761 273.49 147.411 273.919 147.168C274.349 146.916 274.839 146.79 275.389 146.79ZM286.337 146.958V153.944C286.337 154.989 286.066 155.778 285.525 156.31C284.993 156.851 284.204 157.122 283.159 157.122C282.085 157.122 281.161 156.879 280.387 156.394L280.583 155.47C281.031 155.722 281.451 155.904 281.843 156.016C282.244 156.128 282.683 156.184 283.159 156.184C283.84 156.184 284.353 156.002 284.699 155.638C285.044 155.283 285.217 154.751 285.217 154.042V152.376C285.002 152.824 284.685 153.174 284.265 153.426C283.854 153.669 283.364 153.79 282.795 153.79C282.179 153.79 281.628 153.645 281.143 153.356C280.667 153.067 280.298 152.656 280.037 152.124C279.775 151.592 279.645 150.981 279.645 150.29C279.645 149.599 279.775 148.988 280.037 148.456C280.298 147.924 280.667 147.513 281.143 147.224C281.628 146.935 282.179 146.79 282.795 146.79C283.355 146.79 283.84 146.911 284.251 147.154C284.671 147.397 284.988 147.737 285.203 148.176V146.958H286.337ZM283.019 152.838C283.7 152.838 284.232 152.614 284.615 152.166C285.007 151.709 285.203 151.083 285.203 150.29C285.203 149.497 285.007 148.876 284.615 148.428C284.232 147.971 283.7 147.742 283.019 147.742C282.328 147.742 281.782 147.971 281.381 148.428C280.989 148.876 280.793 149.497 280.793 150.29C280.793 151.083 280.989 151.709 281.381 152.166C281.782 152.614 282.328 152.838 283.019 152.838ZM288.444 149.772H292.406V150.71H288.444V149.772ZM296.028 147.854V151.704C296.028 152.227 296.135 152.595 296.35 152.81C296.564 153.015 296.868 153.118 297.26 153.118C297.521 153.118 297.773 153.076 298.016 152.992V153.958C297.726 154.051 297.4 154.098 297.036 154.098C296.364 154.098 295.836 153.911 295.454 153.538C295.08 153.155 294.894 152.595 294.894 151.858V147.854H293.522V146.958H294.894V145.152L296.028 144.746V146.958H298.044V147.854H296.028ZM305.612 146.958V154H304.492V152.726C304.287 153.165 303.974 153.505 303.554 153.748C303.144 153.981 302.663 154.098 302.112 154.098C301.487 154.098 300.936 153.949 300.46 153.65C299.994 153.351 299.63 152.931 299.368 152.39C299.116 151.839 298.99 151.2 298.99 150.472C298.99 149.744 299.121 149.105 299.382 148.554C299.644 147.994 300.008 147.56 300.474 147.252C300.95 146.944 301.496 146.79 302.112 146.79C302.663 146.79 303.144 146.911 303.554 147.154C303.965 147.397 304.278 147.737 304.492 148.176V146.958H305.612ZM302.336 153.16C303.027 153.16 303.559 152.927 303.932 152.46C304.306 151.984 304.492 151.312 304.492 150.444C304.492 149.576 304.306 148.909 303.932 148.442C303.559 147.975 303.027 147.742 302.336 147.742C301.646 147.742 301.104 147.985 300.712 148.47C300.33 148.946 300.138 149.613 300.138 150.472C300.138 151.331 300.33 151.993 300.712 152.46C301.095 152.927 301.636 153.16 302.336 153.16ZM307.805 146.958H308.939V154H307.805V146.958ZM309.079 143.976V145.264H307.693V143.976H309.079ZM311.141 143.696H312.275V154H311.141V143.696ZM109.838 172L106.226 168.612V172H105.092V161.696H106.226V168.192L109.544 164.972H110.986L107.458 168.346L111.322 172H109.838ZM118.068 168.444H112.902C112.911 169.34 113.117 170.017 113.518 170.474C113.929 170.931 114.521 171.16 115.296 171.16C116.117 171.16 116.873 170.885 117.564 170.334L117.942 171.16C117.634 171.449 117.237 171.678 116.752 171.846C116.276 172.014 115.786 172.098 115.282 172.098C114.181 172.098 113.317 171.776 112.692 171.132C112.067 170.479 111.754 169.587 111.754 168.458C111.754 167.739 111.894 167.105 112.174 166.554C112.454 165.994 112.846 165.56 113.35 165.252C113.854 164.944 114.428 164.79 115.072 164.79C116.005 164.79 116.738 165.098 117.27 165.714C117.802 166.321 118.068 167.161 118.068 168.234V168.444ZM115.086 165.672C114.498 165.672 114.017 165.849 113.644 166.204C113.28 166.559 113.047 167.058 112.944 167.702H117.046C116.99 167.039 116.794 166.535 116.458 166.19C116.131 165.845 115.674 165.672 115.086 165.672ZM125.895 164.958L122.605 172.644C122.26 173.447 121.826 174.035 121.303 174.408C120.781 174.781 120.137 175.038 119.371 175.178L119.133 174.296C119.796 174.147 120.295 173.946 120.631 173.694C120.977 173.451 121.261 173.073 121.485 172.56L121.765 171.93L118.783 164.958H119.973L122.353 170.768L124.761 164.958H125.895ZM137.841 164.958L135.237 172H134.145L132.129 166.498L130.127 172H129.035L126.431 164.958H127.621L129.609 170.642L131.667 164.958H132.661L134.691 170.656L136.721 164.958H137.841ZM142.143 172.098C141.48 172.098 140.897 171.949 140.393 171.65C139.889 171.351 139.497 170.927 139.217 170.376C138.946 169.825 138.811 169.181 138.811 168.444C138.811 167.707 138.946 167.063 139.217 166.512C139.497 165.961 139.889 165.537 140.393 165.238C140.897 164.939 141.48 164.79 142.143 164.79C142.805 164.79 143.389 164.939 143.893 165.238C144.397 165.537 144.784 165.961 145.055 166.512C145.335 167.063 145.475 167.707 145.475 168.444C145.475 169.181 145.335 169.825 145.055 170.376C144.784 170.927 144.397 171.351 143.893 171.65C143.389 171.949 142.805 172.098 142.143 172.098ZM142.143 171.16C142.843 171.16 143.379 170.931 143.753 170.474C144.126 170.007 144.313 169.331 144.313 168.444C144.313 167.585 144.121 166.923 143.739 166.456C143.356 165.98 142.824 165.742 142.143 165.742C141.452 165.742 140.915 165.98 140.533 166.456C140.15 166.923 139.959 167.585 139.959 168.444C139.959 169.331 140.145 170.007 140.519 170.474C140.901 170.931 141.443 171.16 142.143 171.16ZM150.518 164.79C150.752 164.79 150.966 164.818 151.162 164.874L151.134 165.91C150.92 165.835 150.672 165.798 150.392 165.798C149.711 165.798 149.202 166.013 148.866 166.442C148.54 166.862 148.376 167.375 148.376 167.982V172H147.242V166.932C147.242 166.204 147.205 165.546 147.13 164.958H148.208L148.32 166.26C148.498 165.784 148.782 165.42 149.174 165.168C149.566 164.916 150.014 164.79 150.518 164.79ZM158.38 161.696V172H157.26V170.726C157.055 171.165 156.742 171.505 156.322 171.748C155.911 171.981 155.431 172.098 154.88 172.098C154.264 172.098 153.718 171.944 153.242 171.636C152.775 171.328 152.411 170.899 152.15 170.348C151.889 169.788 151.758 169.144 151.758 168.416C151.758 167.688 151.884 167.053 152.136 166.512C152.397 165.961 152.766 165.537 153.242 165.238C153.718 164.939 154.264 164.79 154.88 164.79C155.431 164.79 155.911 164.911 156.322 165.154C156.733 165.387 157.041 165.719 157.246 166.148V161.696H158.38ZM155.104 171.16C155.795 171.16 156.327 170.927 156.7 170.46C157.073 169.984 157.26 169.312 157.26 168.444C157.26 167.585 157.073 166.923 156.7 166.456C156.327 165.98 155.795 165.742 155.104 165.742C154.413 165.742 153.872 165.975 153.48 166.442C153.097 166.909 152.906 167.567 152.906 168.416C152.906 169.284 153.097 169.961 153.48 170.446C153.872 170.922 154.413 171.16 155.104 171.16ZM162.952 172.098C161.767 172.098 160.829 171.795 160.138 171.188L160.516 170.348C160.899 170.647 161.286 170.861 161.678 170.992C162.07 171.123 162.509 171.188 162.994 171.188C163.526 171.188 163.928 171.099 164.198 170.922C164.478 170.735 164.618 170.469 164.618 170.124C164.618 169.844 164.525 169.62 164.338 169.452C164.152 169.284 163.844 169.153 163.414 169.06L162.224 168.78C161.636 168.649 161.179 168.416 160.852 168.08C160.535 167.744 160.376 167.343 160.376 166.876C160.376 166.26 160.624 165.761 161.118 165.378C161.613 164.986 162.266 164.79 163.078 164.79C163.573 164.79 164.04 164.869 164.478 165.028C164.917 165.187 165.286 165.415 165.584 165.714L165.206 166.54C164.544 165.989 163.834 165.714 163.078 165.714C162.574 165.714 162.182 165.812 161.902 166.008C161.632 166.195 161.496 166.461 161.496 166.806C161.496 167.095 161.58 167.324 161.748 167.492C161.926 167.66 162.206 167.791 162.588 167.884L163.778 168.178C164.432 168.327 164.917 168.561 165.234 168.878C165.552 169.186 165.71 169.592 165.71 170.096C165.71 170.703 165.463 171.188 164.968 171.552C164.474 171.916 163.802 172.098 162.952 172.098Z" fill="#5B5151"/>
<circle cx="81" cy="119" r="15" fill="white"/>
<mask id="mask1" mask-type="alpha" maskUnits="userSpaceOnUse" x="66" y="104" width="30" height="30">
<circle cx="81" cy="119" r="15" fill="#F4F4EA"/>
</mask>
<g mask="url(#mask1)">
<path fill-rule="evenodd" clip-rule="evenodd" d="M86.9322 111.298C85.524 115.565 84.165 119.437 82.785 123.704C82.7024 124.067 82.5194 124.399 82.2569 124.662C81.8951 124.926 81.4494 125.048 81.0035 125.007H79.3418L80.2853 127.274H82.8976C83.252 127.296 83.6053 127.216 83.9158 127.044C84.2264 126.872 84.4814 126.614 84.6509 126.302C84.7643 126.09 84.8609 125.868 84.9396 125.641L89.798 111.298H86.9322Z" fill="#635452"/>
<path fill-rule="evenodd" clip-rule="evenodd" d="M77.376 119.043H79.087C79.2676 119.052 79.4378 119.13 79.5623 119.261C79.6868 119.392 79.7562 119.566 79.7559 119.747V119.902C79.7562 120.083 79.6868 120.257 79.5623 120.388C79.4378 120.519 79.2676 120.597 79.087 120.606H77.376C77.1893 120.606 77.0102 120.532 76.8781 120.4C76.7461 120.268 76.6719 120.089 76.6719 119.902V119.747C76.6719 119.56 76.7461 119.381 76.8781 119.249C77.0102 119.117 77.1893 119.043 77.376 119.043Z" fill="#F0AD00"/>
<path fill-rule="evenodd" clip-rule="evenodd" d="M80.8545 119.043H82.643C82.8297 119.043 83.0088 119.117 83.1409 119.249C83.2729 119.381 83.3471 119.56 83.3471 119.747V119.902C83.3471 120.089 83.2729 120.268 83.1409 120.4C83.0088 120.532 82.8297 120.606 82.643 120.606H80.8545C80.6678 120.606 80.4887 120.532 80.3566 120.4C80.2246 120.268 80.1504 120.089 80.1504 119.902V119.747C80.1504 119.56 80.2246 119.381 80.3566 119.249C80.4887 119.117 80.6678 119.043 80.8545 119.043Z" fill="#E1760C"/>
<path fill-rule="evenodd" clip-rule="evenodd" d="M76.7354 117.114H78.5872C78.768 117.113 78.942 117.183 79.0731 117.307C79.2041 117.432 79.2823 117.602 79.2913 117.782V117.944C79.2913 118.131 79.2172 118.31 79.0851 118.442C78.9531 118.574 78.774 118.649 78.5872 118.649H76.7354C76.5486 118.649 76.3695 118.574 76.2375 118.442C76.1054 118.31 76.0312 118.131 76.0312 117.944V117.782C76.0403 117.602 76.1184 117.432 76.2495 117.307C76.3806 117.183 76.5546 117.113 76.7354 117.114Z" fill="#E1760C"/>
<path fill-rule="evenodd" clip-rule="evenodd" d="M80.3682 117.114H83.3114C83.4861 117.122 83.6513 117.195 83.7749 117.319C83.8986 117.443 83.9718 117.608 83.9803 117.782V117.944C83.9806 118.125 83.9112 118.299 83.7867 118.43C83.6622 118.561 83.492 118.639 83.3114 118.649H80.3682C80.1814 118.649 80.0023 118.574 79.8703 118.442C79.7382 118.31 79.6641 118.131 79.6641 117.944V117.782C79.6731 117.602 79.7513 117.432 79.8823 117.307C80.0134 117.183 80.1874 117.113 80.3682 117.114Z" fill="#F0AD00"/>
<path fill-rule="evenodd" clip-rule="evenodd" d="M80.1026 120.986H82.0107C82.1913 120.995 82.3615 121.074 82.486 121.205C82.6105 121.336 82.6799 121.51 82.6797 121.69V121.859C82.6799 122.04 82.6105 122.214 82.486 122.345C82.3615 122.476 82.1913 122.555 82.0107 122.564H80.1026C79.9158 122.564 79.7367 122.489 79.6047 122.357C79.4726 122.225 79.3984 122.046 79.3984 121.859V121.697C79.3984 121.511 79.4726 121.332 79.6047 121.2C79.7367 121.068 79.9158 120.993 80.1026 120.993V120.986Z" fill="#D65359"/>
<path fill-rule="evenodd" clip-rule="evenodd" d="M79.0166 122.923H81.3684C81.5551 122.923 81.7342 122.997 81.8663 123.129C81.9983 123.261 82.0725 123.44 82.0725 123.627V123.789C82.0725 123.976 81.9983 124.155 81.8663 124.287C81.7342 124.419 81.5551 124.493 81.3684 124.493H79.0166C78.8299 124.493 78.6508 124.419 78.5187 124.287C78.3867 124.155 78.3125 123.976 78.3125 123.789V123.627C78.3125 123.44 78.3867 123.261 78.5187 123.129C78.6508 122.997 78.8299 122.923 79.0166 122.923Z" fill="#F0AD00"/>
<path fill-rule="evenodd" clip-rule="evenodd" d="M78.0811 115.17H80.3836C80.5703 115.17 80.7494 115.244 80.8814 115.376C81.0135 115.508 81.0877 115.688 81.0877 115.874V116.036C81.0877 116.223 81.0135 116.402 80.8814 116.534C80.7494 116.666 80.5703 116.74 80.3836 116.74H78.0811C77.8943 116.74 77.7152 116.666 77.5832 116.534C77.4511 116.402 77.377 116.223 77.377 116.036V115.874C77.377 115.688 77.4511 115.508 77.5832 115.376C77.7152 115.244 77.8943 115.17 78.0811 115.17Z" fill="#F0AD00"/>
<path fill-rule="evenodd" clip-rule="evenodd" d="M82.1358 115.17H83.9665C84.1532 115.17 84.3323 115.244 84.4644 115.376C84.5964 115.508 84.6706 115.688 84.6706 115.874V116.036C84.6706 116.223 84.5964 116.402 84.4644 116.534C84.3323 116.666 84.1532 116.74 83.9665 116.74H82.1358C81.949 116.74 81.7699 116.666 81.6379 116.534C81.5058 116.402 81.4316 116.223 81.4316 116.036V115.874C81.4316 115.688 81.5058 115.508 81.6379 115.376C81.7699 115.244 81.949 115.17 82.1358 115.17Z" fill="#E1760C"/>
<path fill-rule="evenodd" clip-rule="evenodd" d="M76.2429 115.17C76.3933 115.17 76.5403 115.215 76.6654 115.298C76.7904 115.382 76.8879 115.501 76.9455 115.64C77.003 115.779 77.0181 115.931 76.9888 116.079C76.9594 116.227 76.887 116.362 76.7806 116.468C76.6743 116.575 76.5388 116.647 76.3913 116.676C76.2437 116.706 76.0909 116.691 75.9519 116.633C75.8129 116.576 75.6942 116.478 75.6106 116.353C75.5271 116.228 75.4825 116.081 75.4825 115.931C75.4815 115.831 75.5005 115.731 75.5384 115.639C75.5763 115.546 75.6323 115.462 75.7031 115.391C75.7739 115.32 75.8581 115.264 75.9508 115.226C76.0435 115.188 76.1428 115.169 76.2429 115.17Z" fill="#D65359"/>
<path fill-rule="evenodd" clip-rule="evenodd" d="M74.8975 113.234H79.4884C79.6751 113.234 79.8542 113.308 79.9863 113.44C80.1183 113.572 80.1925 113.751 80.1925 113.938V114.1C80.1925 114.287 80.1183 114.466 79.9863 114.598C79.8542 114.73 79.6751 114.804 79.4884 114.804H74.8975C74.7107 114.804 74.5316 114.73 74.3996 114.598C74.2675 114.466 74.1934 114.287 74.1934 114.1V113.938C74.1934 113.751 74.2675 113.572 74.3996 113.44C74.5316 113.308 74.7107 113.234 74.8975 113.234Z" fill="#D65359"/>
<path fill-rule="evenodd" clip-rule="evenodd" d="M81.2139 113.234H84.6218C84.8086 113.234 84.9877 113.308 85.1197 113.44C85.2518 113.572 85.326 113.751 85.326 113.938V114.1C85.326 114.287 85.2518 114.466 85.1197 114.598C84.9877 114.73 84.8086 114.804 84.6218 114.804H81.2139C81.0271 114.804 80.848 114.73 80.716 114.598C80.5839 114.466 80.5098 114.287 80.5098 114.1V113.938C80.5098 113.751 80.5839 113.572 80.716 113.44C80.848 113.308 81.0271 113.234 81.2139 113.234Z" fill="#F0AD00"/>
<path fill-rule="evenodd" clip-rule="evenodd" d="M73.6162 111.297H77.1791C77.3658 111.297 77.5449 111.372 77.677 111.504C77.809 111.636 77.8832 111.815 77.8832 112.001V112.156C77.8832 112.343 77.809 112.522 77.677 112.654C77.5449 112.786 77.3658 112.861 77.1791 112.861H73.6162C73.4295 112.861 73.2504 112.786 73.1183 112.654C72.9863 112.522 72.9121 112.343 72.9121 112.156V112.001C72.9121 111.815 72.9863 111.636 73.1183 111.504C73.2504 111.372 73.4295 111.297 73.6162 111.297Z" fill="#E1760C"/>
<path fill-rule="evenodd" clip-rule="evenodd" d="M80.8975 111.297H85.256C85.4428 111.297 85.6218 111.372 85.7539 111.504C85.8859 111.636 85.9601 111.815 85.9601 112.001V112.156C85.9601 112.343 85.8859 112.522 85.7539 112.654C85.6218 112.786 85.4428 112.861 85.256 112.861H80.8975C80.7107 112.861 80.5316 112.786 80.3996 112.654C80.2675 112.522 80.1934 112.343 80.1934 112.156V112.001C80.1934 111.815 80.2675 111.636 80.3996 111.504C80.5316 111.372 80.7107 111.297 80.8975 111.297Z" fill="#D65359"/>
<path fill-rule="evenodd" clip-rule="evenodd" d="M79.0386 111.297C79.1876 111.297 79.3332 111.342 79.4571 111.424C79.581 111.507 79.6776 111.625 79.7346 111.762C79.7917 111.9 79.8066 112.052 79.7775 112.198C79.7484 112.344 79.6767 112.478 79.5713 112.584C79.466 112.689 79.3317 112.761 79.1856 112.79C79.0394 112.819 78.8879 112.804 78.7503 112.747C78.6126 112.69 78.4949 112.593 78.4121 112.469C78.3293 112.345 78.2852 112.2 78.2852 112.051C78.2852 111.851 78.3645 111.659 78.5058 111.518C78.6471 111.377 78.8388 111.297 79.0386 111.297Z" fill="#F0AD00"/>
<path fill-rule="evenodd" clip-rule="evenodd" d="M78.2437 120.986C78.3947 120.985 78.5427 121.028 78.6688 121.111C78.7949 121.194 78.8935 121.313 78.9519 121.452C79.0103 121.592 79.026 121.745 78.9969 121.893C78.9677 122.041 78.8952 122.177 78.7884 122.284C78.6816 122.391 78.5455 122.464 78.3973 122.493C78.2492 122.522 78.0957 122.506 77.9564 122.448C77.8172 122.389 77.6985 122.291 77.6155 122.165C77.5325 122.039 77.4889 121.891 77.4903 121.74C77.4903 121.54 77.5696 121.348 77.7109 121.207C77.8522 121.065 78.0439 120.986 78.2437 120.986Z" fill="#E1760C"/>
</g>
</svg>
