<svg width="847" height="559" viewBox="0 0 847 559" fill="none" xmlns="http://www.w3.org/2000/svg">
<g opacity="0.6">
<path d="M684.172 135.341H172.98C152.811 135.341 136.461 150.061 136.461 168.218V503.891C136.461 522.048 152.811 536.768 172.98 536.768H684.172C704.341 536.768 720.691 522.048 720.691 503.891V168.218C720.691 150.061 704.341 135.341 684.172 135.341Z" fill="#F4F4EA"/>
<path d="M169.251 146.773H691.605C702.073 146.773 710.494 154.308 710.494 163.527V503.641C710.494 512.86 702.073 520.396 691.605 520.396H169.251C158.783 520.396 150.362 512.86 150.362 503.641V163.527C150.362 154.308 158.783 146.773 169.251 146.773Z" fill="white" stroke="#5B5151" stroke-width="0.630031"/>
<g opacity="0.7" clip-path="url(#clip0)">
<rect x="332.852" y="413.252" width="111.164" height="149.454" fill="white" stroke="#5B5151" stroke-opacity="0.1" stroke-width="0.630031" stroke-miterlimit="10"/>
<path d="M413.286 428.073H364.812C362.85 428.073 361.26 429.661 361.26 431.619V480C361.26 481.959 362.85 483.546 364.812 483.546H413.286C415.247 483.546 416.838 481.959 416.838 480V431.619C416.838 429.661 415.247 428.073 413.286 428.073Z" fill="#FEF3F4"/>
<path d="M368.361 471.942L379.16 452.508C379.449 451.988 379.865 451.549 380.369 451.232C380.872 450.914 381.448 450.728 382.043 450.691C382.637 450.654 383.232 450.766 383.772 451.019C384.311 451.271 384.779 451.654 385.131 452.134L391.36 460.615C391.669 461.039 392.069 461.389 392.531 461.64C392.993 461.89 393.505 462.036 394.029 462.065C394.554 462.094 395.079 462.007 395.566 461.809C396.053 461.611 396.49 461.308 396.845 460.921C397.212 460.522 397.665 460.211 398.171 460.014C398.677 459.816 399.221 459.737 399.762 459.782C400.303 459.827 400.827 459.995 401.293 460.273C401.759 460.552 402.155 460.933 402.45 461.388L409.171 471.748C409.518 472.284 409.714 472.902 409.738 473.539C409.762 474.176 409.614 474.808 409.309 475.368C409.004 475.928 408.553 476.396 408.004 476.722C407.455 477.048 406.829 477.22 406.19 477.22H371.465C370.845 477.221 370.236 477.06 369.697 476.753C369.159 476.445 368.711 476.003 368.397 475.469C368.083 474.935 367.915 474.329 367.908 473.71C367.902 473.091 368.058 472.482 368.361 471.942Z" fill="#D55A5F"/>
<path d="M389.674 443.427C389.674 442.588 389.923 441.768 390.39 441.071C390.857 440.373 391.521 439.829 392.297 439.508C393.074 439.187 393.929 439.103 394.753 439.267C395.577 439.43 396.335 439.834 396.929 440.428C397.523 441.021 397.928 441.777 398.092 442.6C398.256 443.422 398.172 444.275 397.85 445.051C397.529 445.826 396.984 446.488 396.285 446.954C395.586 447.42 394.764 447.669 393.924 447.669C392.797 447.669 391.716 447.222 390.919 446.427C390.122 445.631 389.674 444.552 389.674 443.427Z" fill="#D55A5F"/>
<rect opacity="0.3" x="418.076" y="500.947" width="17.2922" height="6.17579" rx="2.47032" fill="#5B5151"/>
<rect opacity="0.5" x="337.791" y="500.948" width="58.0524" height="6.17579" rx="2.47032" fill="#F4F4EA"/>
<rect opacity="0.5" x="337.791" y="513.299" width="101.283" height="6.17579" rx="2.47032" fill="#F4F4EA"/>
</g>
<g opacity="0.7" clip-path="url(#clip1)">
<rect x="458.838" y="413.251" width="111.164" height="149.454" fill="white" stroke="#5B5151" stroke-opacity="0.1" stroke-width="0.630031" stroke-miterlimit="10"/>
<path d="M539.27 428.073H490.797C488.835 428.073 487.244 429.66 487.244 431.619V480C487.244 481.958 488.835 483.545 490.797 483.545H539.27C541.232 483.545 542.822 481.958 542.822 480V431.619C542.822 429.66 541.232 428.073 539.27 428.073Z" fill="#FEF3F4"/>
<path d="M494.348 471.941L505.146 452.508C505.436 451.988 505.851 451.549 506.355 451.232C506.859 450.914 507.434 450.728 508.029 450.691C508.624 450.654 509.218 450.766 509.758 451.018C510.297 451.27 510.765 451.654 511.117 452.134L517.346 460.614C517.656 461.038 518.056 461.388 518.517 461.639C518.979 461.89 519.491 462.036 520.016 462.065C520.541 462.094 521.066 462.007 521.552 461.809C522.039 461.611 522.476 461.308 522.831 460.921C523.198 460.521 523.652 460.211 524.157 460.013C524.663 459.816 525.207 459.736 525.748 459.781C526.29 459.827 526.813 459.995 527.279 460.273C527.745 460.551 528.141 460.932 528.436 461.387L535.157 471.748C535.504 472.283 535.7 472.902 535.724 473.539C535.749 474.176 535.601 474.808 535.295 475.368C534.99 475.928 534.54 476.396 533.991 476.722C533.442 477.047 532.815 477.22 532.176 477.22H497.451C496.831 477.221 496.222 477.06 495.684 476.752C495.145 476.445 494.697 476.003 494.383 475.469C494.069 474.935 493.901 474.329 493.895 473.71C493.888 473.091 494.045 472.481 494.348 471.941Z" fill="#D55A5F"/>
<path d="M515.66 443.427C515.66 442.588 515.909 441.768 516.376 441.07C516.843 440.373 517.507 439.829 518.284 439.508C519.06 439.187 519.915 439.103 520.739 439.267C521.564 439.43 522.321 439.834 522.915 440.427C523.51 441.021 523.915 441.777 524.079 442.599C524.242 443.422 524.158 444.275 523.837 445.05C523.515 445.825 522.97 446.488 522.271 446.954C521.572 447.42 520.751 447.669 519.91 447.669C518.783 447.669 517.702 447.222 516.905 446.426C516.108 445.631 515.66 444.552 515.66 443.427Z" fill="#D55A5F"/>
<rect opacity="0.3" x="544.064" y="500.947" width="17.2922" height="6.17579" rx="2.47032" fill="#5B5151"/>
<rect opacity="0.5" x="463.777" y="500.947" width="58.0524" height="6.17579" rx="2.47032" fill="#F4F4EA"/>
<rect opacity="0.5" x="463.777" y="513.299" width="101.283" height="6.17579" rx="2.47032" fill="#F4F4EA"/>
</g>
<path d="M695.488 172.058H165.057V201.699H695.488V172.058Z" fill="white" stroke="#5B5151" stroke-opacity="0.1" stroke-width="0.630031" stroke-miterlimit="10"/>
<path d="M570.282 179.763H211.852V193.994H570.282V179.763Z" fill="#FEF3F4"/>
<path d="M202.037 179.763H186.822V193.994H202.037V179.763Z" fill="#FEF3F4"/>
<path d="M628.078 192.925V192.081C628.078 190.754 627.551 189.48 626.612 188.541C625.673 187.603 624.4 187.075 623.072 187.075H618.066C616.739 187.075 615.465 187.603 614.527 188.541C613.588 189.48 613.061 190.754 613.061 192.081V192.925H628.078Z" fill="#FEF3F4"/>
<path d="M623.914 181.226C623.92 181.889 623.728 182.539 623.364 183.093C622.999 183.647 622.479 184.08 621.868 184.338C621.257 184.595 620.583 184.666 619.932 184.54C619.281 184.414 618.682 184.097 618.211 183.63C617.74 183.163 617.419 182.567 617.287 181.917C617.156 181.267 617.22 180.593 617.473 179.98C617.725 179.367 618.154 178.842 618.705 178.473C619.256 178.104 619.904 177.907 620.567 177.907C621.45 177.907 622.297 178.256 622.924 178.877C623.551 179.499 623.907 180.343 623.914 181.226Z" fill="#FEF3F4"/>
<path d="M631.957 192.559C631.957 193.445 631.694 194.311 631.201 195.047C630.709 195.782 630.009 196.356 629.19 196.693C628.371 197.031 627.471 197.118 626.603 196.943C625.734 196.768 624.938 196.339 624.313 195.711C623.689 195.083 623.266 194.284 623.096 193.414C622.927 192.545 623.019 191.645 623.362 190.829C623.705 190.012 624.282 189.316 625.021 188.828C625.76 188.34 626.628 188.082 627.513 188.088C628.099 188.088 628.679 188.204 629.22 188.429C629.761 188.654 630.252 188.984 630.665 189.399C631.078 189.815 631.405 190.308 631.627 190.85C631.848 191.393 631.961 191.973 631.957 192.559Z" fill="#D55A5F"/>
<path d="M657.294 178.779H643.711C643.375 178.779 643.053 178.912 642.816 179.149C642.579 179.387 642.445 179.708 642.445 180.044V190.675C642.445 191.01 642.579 191.332 642.816 191.57C643.053 191.807 643.375 191.94 643.711 191.94H644.555V194.921L647.536 191.94H657.294C657.633 191.94 657.958 191.808 658.199 191.571C658.441 191.335 658.581 191.013 658.588 190.675V180.044C658.581 179.706 658.441 179.384 658.199 179.147C657.958 178.911 657.633 178.778 657.294 178.779Z" fill="#FEF3F4"/>
<path d="M662.779 192.559C662.779 193.445 662.516 194.311 662.024 195.047C661.531 195.782 660.831 196.356 660.012 196.693C659.193 197.031 658.293 197.118 657.425 196.943C656.557 196.768 655.76 196.339 655.136 195.711C654.512 195.083 654.088 194.284 653.918 193.414C653.749 192.545 653.842 191.645 654.184 190.829C654.527 190.012 655.105 189.316 655.844 188.828C656.583 188.34 657.45 188.082 658.336 188.088C658.922 188.088 659.502 188.204 660.043 188.429C660.584 188.654 661.075 188.984 661.488 189.399C661.901 189.815 662.227 190.308 662.449 190.85C662.671 191.393 662.783 191.973 662.779 192.559Z" fill="#D55A5F"/>
<path d="M63.901 547.143V532.142H794.485V547.143C794.485 548.646 793.599 550.125 791.891 551.513C790.185 552.9 787.698 554.163 784.596 555.229C778.397 557.361 769.812 558.685 760.314 558.685H98.0713C88.5741 558.685 79.989 557.361 73.7892 555.229C70.6878 554.163 68.2005 552.9 66.4948 551.513C64.7866 550.125 63.901 548.646 63.901 547.143Z" fill="#F4F4EA" stroke="#5B5151" stroke-width="0.630031"/>
<path d="M28.3766 172.737L19.2538 172L18.0063 180.442L8.97795 180.115L6.79176 188.041L0 188.897L0.434762 192.337L9.51984 191.191L11.5926 183.681L20.9801 184.021L22.2086 175.717L30.4809 176.385L28.3766 172.737Z" fill="#EEAB34"/>
<path d="M801.65 276.782L808.901 278.187L813.324 272.094L821.338 274.249L824.047 266.304L833.221 268.339L836.616 261.327L845.765 261.844L845.569 265.309L838.727 264.918L835.142 272.315L826.328 270.355L823.575 278.439L814.729 276.057L810.413 282.011L803.691 280.707L801.669 285.212L798.506 283.794L801.65 276.782Z" fill="#D55A5F"/>
<path d="M95.6563 155.768C92.796 156.461 90.4522 154.357 89.7529 151.446C88.4424 146.034 93.615 143.502 96.8029 145.776C100.237 148.258 100.142 154.685 95.6563 155.768ZM93.1362 137.371C93.2748 138.375 92.7644 139.018 91.6052 139.299C90.3451 139.608 89.7151 139.696 89.1606 138.531C85.8845 131.336 83.9944 126.692 83.4904 124.601C78.8029 104.648 77.8957 102.871 78.6392 102.688C79.7543 102.417 81.531 102.392 82.684 102.109C83.8369 101.825 85.4687 101.038 86.5775 100.767C87.2076 100.622 87.3525 102.027 88.4236 106.216C92.3361 121.438 92.3675 129.345 93.1299 137.371H93.1362Z" fill="#E37D38"/>
<path d="M261.666 46.049C259.776 43.0248 258.743 38.287 259.959 34.2863C261.994 27.5387 269.409 23.9853 267.979 16.7903C267.837 15.9759 267.526 15.2003 267.066 14.5135C266.606 13.8266 266.007 13.2437 265.308 12.8022C261.849 10.6979 256.935 12.6321 253.52 14.8057C251.253 16.2825 249.265 18.1489 247.648 20.3185L245.084 7.61706C249.124 4.06958 254.044 1.67562 259.329 0.686715C269.989 -1.46169 278.791 1.56246 280.945 12.2289C282.905 21.9566 276.8 27.1102 272.944 32.56C270.802 35.5841 270.499 37.7514 270.985 40.1581C271.248 41.507 271.866 42.7616 272.774 43.7934L261.666 46.049ZM271.526 62.6503C261.162 64.742 258.245 50.8309 268.716 48.7203C279.024 46.6412 281.846 60.5712 271.526 62.6503Z" fill="#D55A5F"/>
<path d="M68.4614 321.892C68.4614 324.225 66.7688 325.631 63.9816 325.631H61.038V329.085H59.8789V318.144H63.9816C66.7688 318.144 68.4614 319.549 68.4614 321.892ZM67.3023 321.892C67.3023 320.146 66.1432 319.136 63.9539 319.136H61.038V324.602H63.9539C66.1432 324.611 67.3023 323.61 67.3023 321.892Z" fill="#5B5151"/>
<path d="M80.1167 318.144V329.085H78.9761V324.032H72.1139V329.085H70.9824V318.144H72.1415V323.022H79.0037V318.144H80.1167Z" fill="#5B5151"/>
<path d="M92.249 321.892C92.249 324.225 90.5657 325.631 87.7784 325.631H84.8348V329.085H83.6758V318.144H87.7784C90.5657 318.144 92.249 319.549 92.249 321.892ZM91.0992 321.892C91.0992 320.146 89.9401 319.136 87.7508 319.136H84.8348V324.602H87.7508C89.9401 324.611 91.0992 323.61 91.0992 321.892Z" fill="#5B5151"/>
<path d="M469.641 72.6088C469.442 72.6553 469.261 72.7566 469.117 72.9012C468.973 73.0458 468.873 73.2278 468.828 73.4266C468.383 75.4086 465.983 78.1684 464.61 79.4306L455.34 76.6308C454.895 74.8176 454.451 71.2001 455.153 69.2936C455.225 69.103 455.241 68.8963 455.201 68.6967C455.161 68.4972 455.066 68.3129 454.926 68.1647L449.718 62.614C449.578 62.4657 449.4 62.3593 449.202 62.3067C449.005 62.2541 448.798 62.2574 448.602 62.3163C446.656 62.9118 443.074 62.2274 441.296 61.6674L439.074 52.2415C440.407 50.9483 443.323 48.7484 445.332 48.4107C445.536 48.3811 445.729 48.294 445.886 48.1595C446.043 48.025 446.159 47.8485 446.22 47.6507L448.442 40.3668C448.501 40.1716 448.505 39.9638 448.452 39.7668C448.399 39.5697 448.293 39.3912 448.145 39.2513C446.656 37.8603 445.478 34.4161 445.034 32.5852L452.091 25.959C453.869 26.4745 457.246 27.8922 458.539 29.4654C458.669 29.6223 458.841 29.7399 459.034 29.8051C459.227 29.8702 459.434 29.8803 459.633 29.8342L467.041 28.0966C467.24 28.0501 467.421 27.9488 467.565 27.8043C467.709 27.6597 467.809 27.4777 467.854 27.2789C468.299 25.2968 470.699 22.537 472.072 21.2749L481.342 24.0747C481.787 25.8879 482.231 29.5054 481.529 31.4119C481.457 31.6025 481.441 31.8092 481.481 32.0087C481.521 32.2082 481.616 32.3925 481.756 32.5407L486.964 38.0914C487.103 38.2399 487.281 38.3462 487.477 38.3981C487.674 38.45 487.881 38.4454 488.075 38.3847C490.026 37.7937 493.608 38.4781 495.386 39.038L497.608 48.464C496.274 49.7572 493.359 51.9571 491.35 52.2948C491.145 52.3243 490.953 52.4114 490.796 52.546C490.638 52.6805 490.523 52.8569 490.462 53.0547L488.239 60.3387C488.181 60.5339 488.177 60.7417 488.23 60.9387C488.282 61.1357 488.389 61.3142 488.537 61.4541C490.026 62.8451 491.204 66.2893 491.648 68.1203L484.591 74.7465C482.813 74.2309 479.44 72.8133 478.147 71.2401C478.017 71.0836 477.845 70.9663 477.652 70.9012C477.459 70.836 477.252 70.8257 477.054 70.8712L469.641 72.6088ZM477.462 53.117C478.009 51.3114 478.007 49.3845 477.458 47.5799C476.909 45.7752 475.837 44.174 474.377 42.9786C472.918 41.7832 471.137 41.0474 469.26 40.8642C467.383 40.681 465.493 41.0587 463.83 41.9494C462.167 42.8402 460.806 44.204 459.919 45.8684C459.031 47.5328 458.657 49.4231 458.844 51.3002C459.03 53.1772 459.769 54.9568 460.967 56.4137C462.166 57.8707 463.769 58.9396 465.574 59.4854C467.993 60.2145 470.602 59.9537 472.829 58.7605C475.055 57.5672 476.717 55.5391 477.449 53.1214L477.462 53.117ZM483.315 54.8946C484.211 51.9313 484.209 48.7688 483.307 45.8071C482.406 42.8453 480.647 40.2174 478.252 38.2557C475.857 36.2939 472.934 35.0864 469.853 34.7859C466.771 34.4853 463.67 35.1053 460.941 36.5673C458.213 38.0293 455.979 40.2678 454.522 42.9995C453.065 45.7313 452.451 48.8336 452.758 51.9142C453.065 54.9949 454.278 57.9154 456.244 60.3064C458.211 62.6975 460.842 64.4517 463.806 65.3472C467.777 66.5451 472.061 66.1175 475.716 64.1584C479.372 62.1993 482.101 58.8689 483.302 54.8991L483.315 54.8946Z" fill="#E37D38"/>
<path d="M528.711 34.3715C528.594 34.2593 528.51 34.1172 528.467 33.9606C528.425 33.8039 528.426 33.6386 528.471 33.4826L530.218 27.7053C530.264 27.5506 530.353 27.4119 530.474 27.3051C530.595 27.1982 530.743 27.1275 530.902 27.1009C532.493 26.8387 534.795 25.0922 535.858 24.07L534.107 16.6039C532.702 16.1595 529.862 15.6217 528.329 16.0884C528.174 16.1375 528.009 16.1419 527.851 16.101C527.694 16.0602 527.552 15.9757 527.44 15.8573L523.316 11.4621C523.209 11.3439 523.135 11.1991 523.103 11.0427C523.071 10.8863 523.082 10.7241 523.134 10.5732C523.703 9.06224 523.343 6.19579 522.987 4.76478L515.65 2.54272C514.561 3.53821 512.673 5.72472 512.308 7.29793C512.269 7.4535 512.188 7.59555 512.075 7.70901C511.961 7.82246 511.819 7.90309 511.664 7.94233L505.798 9.31555C505.64 9.35033 505.477 9.34185 505.324 9.29098C505.172 9.2401 505.036 9.14877 504.931 9.0267C503.909 7.78235 501.247 6.65799 499.829 6.24913L494.238 11.4976C494.558 12.9375 495.509 15.6662 496.687 16.7639C496.804 16.8765 496.887 17.0188 496.929 17.1755C496.97 17.3321 496.968 17.4972 496.923 17.6527L495.181 23.4301C495.134 23.5839 495.045 23.7217 494.924 23.8277C494.803 23.9337 494.655 24.0038 494.496 24.03C492.905 24.2967 490.603 26.0388 489.541 27.0653L491.288 34.527C492.696 34.9714 495.536 35.5136 497.065 35.0425C497.22 34.997 497.385 34.9949 497.542 35.0364C497.699 35.0779 497.841 35.1615 497.954 35.2781L502.078 39.6733C502.188 39.7901 502.262 39.9352 502.294 40.0923C502.325 40.2494 502.312 40.4121 502.256 40.5621C501.691 42.0731 502.051 44.9351 502.407 46.3706L509.744 48.5926C510.833 47.5927 512.717 45.4062 513.086 43.8374C513.121 43.6801 513.201 43.5361 513.315 43.422C513.429 43.308 513.573 43.2285 513.73 43.193L519.597 41.8154C519.753 41.7789 519.917 41.7871 520.07 41.8389C520.222 41.8907 520.357 41.9842 520.459 42.1087C521.485 43.353 524.147 44.4729 525.565 44.8818L531.156 39.6377C530.84 38.2023 529.889 35.4736 528.711 34.3715ZM521.69 28.2919C521.153 30.0697 520.1 31.6482 518.666 32.828C517.232 34.0078 515.48 34.7358 513.632 34.9199C511.784 35.1041 509.923 34.7362 508.284 33.8626C506.645 32.9891 505.302 31.6492 504.424 30.0124C503.547 28.3756 503.175 26.5154 503.354 24.667C503.534 22.8185 504.258 21.0649 505.434 19.6278C506.611 18.1907 508.187 17.1347 509.963 16.5933C511.74 16.0519 513.637 16.0494 515.415 16.5861C516.595 16.9426 517.694 17.5282 518.649 18.3094C519.603 19.0906 520.394 20.0522 520.977 21.1392C521.56 22.2262 521.923 23.4174 522.045 24.6447C522.167 25.8719 522.046 27.1113 521.69 28.2919Z" fill="#E37D38"/>
<rect x="662" y="457.35" width="83.2883" height="67.6202" fill="#EEAB34"/>
<path d="M716.369 503.468C716.611 503.107 716.898 502.779 717.224 502.492C717.902 501.826 718.735 500.983 719.712 500.007C721.834 497.921 724.799 495.071 728.087 491.943L728.165 491.876V492.298C724.833 489.225 721.867 486.43 719.735 484.389L717.235 481.948C716.906 481.67 716.614 481.349 716.369 480.994C716.733 481.221 717.071 481.485 717.38 481.782L720.012 484.089C722.234 486.053 725.244 488.803 728.565 491.854L728.787 492.065L728.565 492.275L728.487 492.353C725.155 495.47 722.189 498.276 720.001 500.284L717.38 502.647C717.075 502.958 716.736 503.233 716.369 503.468Z" fill="white" stroke="white" stroke-width="0.617579"/>
<path d="M690.757 480.994C690.516 481.355 690.228 481.683 689.902 481.971L687.403 484.455C685.282 486.541 682.327 489.391 679.04 492.519L678.962 492.586V492.164C682.294 495.237 685.248 498.032 687.392 500.073L689.891 502.514C690.221 502.792 690.512 503.113 690.757 503.468C690.391 503.246 690.051 502.981 689.747 502.68C689.025 502.059 688.147 501.282 687.114 500.373C684.893 498.41 681.883 495.659 678.562 492.608L678.34 492.397L678.562 492.187L678.64 492.109C681.972 488.992 684.937 486.186 687.125 484.178L689.747 481.815C690.055 481.509 690.394 481.234 690.757 480.994Z" fill="white" stroke="white" stroke-width="0.617579"/>
<path d="M697.336 508.759C697.191 508.759 699.879 501.183 703.333 491.976C706.788 482.769 709.731 475.337 709.887 475.393C710.042 475.448 707.343 482.969 703.878 492.176C700.412 501.383 697.48 508.814 697.336 508.759Z" fill="white" stroke="white" stroke-width="0.617579"/>
<path d="M746.113 467.35C746.113 467.505 727.308 467.639 704.128 467.639C680.948 467.639 662.133 467.505 662.133 467.35C662.133 467.195 680.926 467.062 704.128 467.062C727.331 467.062 746.113 467.184 746.113 467.35Z" fill="white"/>
<path d="M668.964 462.411C668.964 462.63 668.898 462.845 668.776 463.027C668.654 463.21 668.481 463.352 668.278 463.436C668.075 463.52 667.852 463.542 667.636 463.499C667.421 463.456 667.223 463.35 667.068 463.195C666.912 463.04 666.806 462.843 666.764 462.627C666.721 462.412 666.743 462.189 666.827 461.987C666.911 461.784 667.053 461.611 667.236 461.489C667.418 461.367 667.633 461.302 667.853 461.302C668.147 461.302 668.43 461.419 668.638 461.627C668.847 461.835 668.964 462.117 668.964 462.411Z" fill="white"/>
<path d="M673.051 462.411C673.051 462.63 672.986 462.845 672.864 463.027C672.742 463.21 672.569 463.352 672.366 463.436C672.163 463.52 671.94 463.542 671.724 463.499C671.509 463.456 671.311 463.35 671.155 463.195C671 463.04 670.894 462.843 670.851 462.627C670.809 462.412 670.831 462.189 670.915 461.987C670.999 461.784 671.141 461.611 671.324 461.489C671.506 461.367 671.721 461.302 671.941 461.302C672.235 461.302 672.518 461.419 672.726 461.627C672.934 461.835 673.051 462.117 673.051 462.411Z" fill="white"/>
<path d="M677.141 462.411C677.141 462.63 677.076 462.845 676.954 463.027C676.832 463.21 676.659 463.352 676.456 463.436C676.253 463.52 676.029 463.542 675.814 463.499C675.598 463.456 675.401 463.35 675.245 463.195C675.09 463.04 674.984 462.843 674.941 462.627C674.898 462.412 674.92 462.189 675.004 461.987C675.089 461.784 675.231 461.611 675.414 461.489C675.596 461.367 675.811 461.302 676.031 461.302C676.325 461.302 676.608 461.419 676.816 461.627C677.024 461.835 677.141 462.117 677.141 462.411Z" fill="white"/>
<g opacity="0.7">
<rect x="332.852" y="236.623" width="111.164" height="149.454" fill="white" stroke="#5B5151" stroke-opacity="0.1" stroke-width="0.630031" stroke-miterlimit="10"/>
<path d="M413.286 251.445H364.812C362.85 251.445 361.26 253.032 361.26 254.99V303.372C361.26 305.33 362.85 306.917 364.812 306.917H413.286C415.247 306.917 416.838 305.33 416.838 303.372V254.99C416.838 253.032 415.247 251.445 413.286 251.445Z" fill="#FEF3F4"/>
<path d="M368.361 295.313L379.16 275.879C379.449 275.36 379.865 274.921 380.369 274.603C380.872 274.286 381.448 274.1 382.043 274.062C382.637 274.025 383.232 274.138 383.772 274.39C384.311 274.642 384.779 275.026 385.131 275.505L391.36 283.986C391.669 284.41 392.069 284.76 392.531 285.011C392.993 285.262 393.505 285.407 394.029 285.436C394.554 285.466 395.079 285.378 395.566 285.181C396.053 284.983 396.49 284.679 396.845 284.293C397.212 283.893 397.665 283.582 398.171 283.385C398.677 283.187 399.221 283.108 399.762 283.153C400.303 283.198 400.827 283.366 401.293 283.645C401.759 283.923 402.155 284.304 402.45 284.759L409.171 295.12C409.518 295.655 409.714 296.274 409.738 296.911C409.762 297.548 409.614 298.18 409.309 298.74C409.004 299.3 408.553 299.767 408.004 300.093C407.455 300.419 406.829 300.591 406.19 300.592H371.465C370.845 300.592 370.236 300.431 369.697 300.124C369.159 299.817 368.711 299.374 368.397 298.84C368.083 298.307 367.915 297.7 367.908 297.081C367.902 296.463 368.058 295.853 368.361 295.313Z" fill="#D55A5F"/>
<path d="M389.674 266.799C389.674 265.96 389.923 265.139 390.39 264.442C390.857 263.744 391.521 263.201 392.297 262.88C393.074 262.558 393.929 262.474 394.753 262.638C395.577 262.802 396.335 263.206 396.929 263.799C397.523 264.392 397.928 265.148 398.092 265.971C398.256 266.794 398.172 267.647 397.85 268.422C397.529 269.197 396.984 269.859 396.285 270.326C395.586 270.792 394.764 271.04 393.924 271.04C392.797 271.04 391.716 270.594 390.919 269.798C390.122 269.003 389.674 267.924 389.674 266.799Z" fill="#D55A5F"/>
<rect opacity="0.3" x="418.076" y="324.319" width="17.2922" height="6.17579" rx="2.47032" fill="#5B5151"/>
<rect opacity="0.5" x="337.791" y="324.319" width="58.0524" height="6.17579" rx="2.47032" fill="#F4F4EA"/>
<rect opacity="0.5" x="337.791" y="336.671" width="101.283" height="6.17579" rx="2.47032" fill="#F4F4EA"/>
<rect opacity="0.9" x="337.791" y="352.728" width="98.8127" height="16.0571" rx="8.02853" fill="#E37D38"/>
</g>
<g opacity="0.7">
<rect x="458.838" y="235.388" width="111.164" height="149.454" fill="white" stroke="#5B5151" stroke-opacity="0.1" stroke-width="0.630031" stroke-miterlimit="10"/>
<path d="M539.27 250.21H490.797C488.835 250.21 487.244 251.797 487.244 253.756V302.137C487.244 304.095 488.835 305.682 490.797 305.682H539.27C541.232 305.682 542.822 304.095 542.822 302.137V253.756C542.822 251.797 541.232 250.21 539.27 250.21Z" fill="#FEF3F4"/>
<path d="M494.348 294.078L505.146 274.645C505.436 274.125 505.851 273.686 506.355 273.368C506.859 273.051 507.434 272.865 508.029 272.828C508.624 272.79 509.218 272.903 509.758 273.155C510.297 273.407 510.765 273.791 511.117 274.27L517.346 282.751C517.656 283.175 518.056 283.525 518.517 283.776C518.979 284.027 519.491 284.172 520.016 284.202C520.541 284.231 521.066 284.144 521.552 283.946C522.039 283.748 522.476 283.445 522.831 283.058C523.198 282.658 523.652 282.348 524.157 282.15C524.663 281.953 525.207 281.873 525.748 281.918C526.29 281.963 526.813 282.131 527.279 282.41C527.745 282.688 528.141 283.069 528.436 283.524L535.157 293.885C535.504 294.42 535.7 295.039 535.724 295.676C535.749 296.313 535.601 296.945 535.295 297.505C534.99 298.065 534.54 298.532 533.991 298.858C533.442 299.184 532.815 299.356 532.176 299.357H497.451C496.831 299.357 496.222 299.196 495.684 298.889C495.145 298.582 494.697 298.139 494.383 297.606C494.069 297.072 493.901 296.465 493.895 295.847C493.888 295.228 494.045 294.618 494.348 294.078Z" fill="#D55A5F"/>
<path d="M515.66 265.564C515.66 264.725 515.909 263.905 516.376 263.207C516.843 262.509 517.507 261.966 518.284 261.645C519.06 261.324 519.915 261.24 520.739 261.403C521.564 261.567 522.321 261.971 522.915 262.564C523.51 263.157 523.915 263.913 524.079 264.736C524.242 265.559 524.158 266.412 523.837 267.187C523.515 267.962 522.97 268.625 522.271 269.091C521.572 269.557 520.751 269.806 519.91 269.806C518.783 269.806 517.702 269.359 516.905 268.563C516.108 267.768 515.66 266.689 515.66 265.564Z" fill="#D55A5F"/>
<rect opacity="0.3" x="544.064" y="323.084" width="17.2922" height="6.17579" rx="2.47032" fill="#5B5151"/>
<rect opacity="0.5" x="463.777" y="323.084" width="58.0524" height="6.17579" rx="2.47032" fill="#F4F4EA"/>
<rect opacity="0.5" x="463.777" y="335.436" width="101.283" height="6.17579" rx="2.47032" fill="#F4F4EA"/>
<rect opacity="0.9" x="463.777" y="351.493" width="98.8127" height="16.0571" rx="8.02853" fill="#E37D38"/>
</g>
<g opacity="0.3">
<rect x="584.824" y="236.623" width="111.164" height="149.454" fill="white" stroke="#5B5151" stroke-opacity="0.1" stroke-width="0.630031" stroke-miterlimit="10"/>
<path d="M665.256 251.445H616.783C614.821 251.445 613.23 253.032 613.23 254.99V303.372C613.23 305.33 614.821 306.917 616.783 306.917H665.256C667.218 306.917 668.809 305.33 668.809 303.372V254.99C668.809 253.032 667.218 251.445 665.256 251.445Z" fill="#FEF3F4"/>
<path d="M620.334 295.313L631.133 275.879C631.422 275.36 631.838 274.921 632.341 274.603C632.845 274.286 633.421 274.1 634.015 274.062C634.61 274.025 635.205 274.138 635.744 274.39C636.284 274.642 636.751 275.026 637.103 275.505L643.332 283.986C643.642 284.41 644.042 284.76 644.504 285.011C644.966 285.262 645.477 285.407 646.002 285.436C646.527 285.466 647.052 285.378 647.539 285.181C648.026 284.983 648.462 284.679 648.818 284.293C649.184 283.893 649.638 283.582 650.144 283.385C650.649 283.187 651.194 283.108 651.735 283.153C652.276 283.198 652.8 283.366 653.266 283.645C653.731 283.923 654.127 284.304 654.423 284.759L661.143 295.12C661.49 295.655 661.686 296.274 661.711 296.911C661.735 297.548 661.587 298.18 661.282 298.74C660.977 299.3 660.526 299.767 659.977 300.093C659.428 300.419 658.801 300.591 658.163 300.592H623.438C622.818 300.592 622.208 300.431 621.67 300.124C621.132 299.817 620.683 299.374 620.369 298.84C620.056 298.307 619.887 297.7 619.881 297.081C619.875 296.463 620.031 295.853 620.334 295.313Z" fill="#D55A5F"/>
<path d="M641.646 266.799C641.646 265.96 641.896 265.139 642.363 264.442C642.83 263.744 643.493 263.201 644.27 262.88C645.047 262.558 645.901 262.474 646.726 262.638C647.55 262.802 648.307 263.206 648.902 263.799C649.496 264.392 649.901 265.148 650.065 265.971C650.229 266.794 650.145 267.647 649.823 268.422C649.501 269.197 648.957 269.859 648.258 270.326C647.559 270.792 646.737 271.04 645.896 271.04C644.769 271.04 643.688 270.594 642.891 269.798C642.094 269.003 641.646 267.924 641.646 266.799Z" fill="#D55A5F"/>
<rect opacity="0.3" x="670.049" y="324.319" width="17.2922" height="6.17579" rx="2.47032" fill="#5B5151"/>
<rect opacity="0.5" x="589.764" y="324.319" width="58.0524" height="6.17579" rx="2.47032" fill="#F4F4EA"/>
<rect opacity="0.5" x="589.764" y="336.671" width="101.283" height="6.17579" rx="2.47032" fill="#F4F4EA"/>
<rect opacity="0.9" x="589.764" y="352.728" width="98.8127" height="16.0571" rx="8.02853" fill="#E37D38"/>
</g>
<g clip-path="url(#clip2)">
<rect x="164.869" y="235.388" width="142.043" height="289.027" fill="white" stroke="#5B5151" stroke-opacity="0.1" stroke-width="0.630031" stroke-miterlimit="10"/>
</g>
<rect x="178.455" y="261.327" width="104.988" height="6.17579" rx="2.47032" fill="#FEF3F4"/>
<rect x="178.455" y="272.443" width="104.988" height="6.17579" rx="2.47032" fill="#FEF3F4"/>
<rect x="178.455" y="250.21" width="24.7032" height="6.17579" rx="2.47032" fill="#FEF3F4"/>
<rect x="614" y="101" width="154.395" height="129.692" rx="12.3516" fill="#FEF3F4"/>
<path d="M739.887 179.686L742.681 179.51C742.681 179.51 746.412 181.926 746.595 182.874C746.778 183.821 746.365 185.89 746.93 186.1C747.494 186.31 748.667 186.415 749.295 185.089C749.752 184.134 749.042 180.811 749.354 180.559C749.543 180.402 751.149 180.255 752.322 180.165C752.703 180.136 753.067 180 753.376 179.774C753.685 179.547 753.926 179.239 754.072 178.882C754.174 178.642 754.193 178.375 754.124 178.123C754.055 177.872 753.904 177.652 753.695 177.499L753.03 177.014L753.466 176.304C753.624 176.049 753.677 175.743 753.614 175.45C753.551 175.156 753.376 174.9 753.128 174.735L752.911 173.971C753.005 173.843 753.071 173.696 753.105 173.54C753.139 173.384 753.141 173.222 753.11 173.066C753.079 172.909 753.016 172.761 752.925 172.63C752.833 172.5 752.716 172.39 752.581 172.308L752.112 172.021L752.169 171.891C752.282 171.631 752.296 171.338 752.207 171.068C752.119 170.799 751.934 170.572 751.69 170.432L751.227 170.169L743.786 170.64C743.088 170.685 742.406 170.875 741.784 171.2L739.196 171.811C739.06 171.845 738.941 171.926 738.86 172.041C738.779 172.155 738.74 172.295 738.752 172.436L739.273 179.138C739.283 179.293 739.354 179.437 739.468 179.54C739.583 179.642 739.734 179.695 739.887 179.686Z" fill="#F9C9B6"/>
<path d="M634.182 123.739H638.761C639.898 123.739 640.782 124.016 641.415 124.569C642.047 125.113 642.363 125.859 642.363 126.807C642.363 127.756 642.042 128.507 641.4 129.06C640.767 129.614 639.888 129.89 638.761 129.89H636.094V134.292H634.182V123.739ZM638.539 128.408C639.201 128.408 639.7 128.275 640.036 128.008C640.382 127.731 640.555 127.336 640.555 126.822C640.555 126.299 640.387 125.903 640.051 125.636C639.715 125.36 639.211 125.221 638.539 125.221H636.094V128.408H638.539ZM644.35 123.739H651.405V125.251H646.217V128.171H651.094V129.683H646.217V132.781H651.405V134.292H644.35V123.739ZM662.147 134.292H660.131L658.782 130.78C658.663 130.454 658.481 130.226 658.234 130.098C657.987 129.969 657.665 129.905 657.27 129.905H655.358V134.292H653.461V123.739H657.982C659.177 123.739 660.086 124.001 660.709 124.525C661.331 125.049 661.643 125.8 661.643 126.778C661.643 127.479 661.455 128.077 661.079 128.571C660.714 129.055 660.19 129.401 659.508 129.609C660.131 129.737 660.58 130.172 660.857 130.913L662.147 134.292ZM657.715 128.423C658.436 128.423 658.97 128.29 659.316 128.023C659.661 127.756 659.834 127.351 659.834 126.807C659.834 126.274 659.661 125.879 659.316 125.622C658.98 125.355 658.446 125.221 657.715 125.221H655.329V128.423H657.715ZM664.165 123.739H671.057V125.266H666.062V128.156H670.76V129.698H666.062V134.292H664.165V123.739ZM677.482 134.426C676.464 134.426 675.575 134.208 674.814 133.774C674.063 133.329 673.48 132.702 673.065 131.891C672.66 131.071 672.457 130.108 672.457 129.001C672.457 127.904 672.66 126.951 673.065 126.14C673.47 125.32 674.048 124.693 674.799 124.258C675.56 123.823 676.454 123.606 677.482 123.606C678.51 123.606 679.399 123.823 680.15 124.258C680.911 124.693 681.489 125.32 681.884 126.14C682.289 126.951 682.492 127.904 682.492 129.001C682.492 130.108 682.289 131.071 681.884 131.891C681.479 132.702 680.901 133.329 680.15 133.774C679.399 134.208 678.51 134.426 677.482 134.426ZM677.482 132.899C678.46 132.899 679.221 132.563 679.765 131.891C680.308 131.219 680.58 130.256 680.58 129.001C680.58 127.756 680.308 126.802 679.765 126.14C679.221 125.469 678.46 125.133 677.482 125.133C676.504 125.133 675.743 125.464 675.2 126.126C674.656 126.788 674.384 127.746 674.384 129.001C674.384 130.256 674.656 131.219 675.2 131.891C675.743 132.563 676.504 132.899 677.482 132.899ZM693.432 134.292H691.417L690.068 130.78C689.949 130.454 689.766 130.226 689.519 130.098C689.272 129.969 688.951 129.905 688.556 129.905H686.644V134.292H684.747V123.739H689.267C690.463 123.739 691.372 124.001 691.995 124.525C692.617 125.049 692.928 125.8 692.928 126.778C692.928 127.479 692.741 128.077 692.365 128.571C692 129.055 691.476 129.401 690.794 129.609C691.417 129.737 691.866 130.172 692.143 130.913L693.432 134.292ZM689.001 128.423C689.722 128.423 690.256 128.29 690.601 128.023C690.947 127.756 691.12 127.351 691.12 126.807C691.12 126.274 690.947 125.879 690.601 125.622C690.265 125.355 689.732 125.221 689.001 125.221H686.614V128.423H689.001ZM705.737 123.739V134.292H704.047V127.741L701.246 134.292H699.986L697.17 127.815V134.292H695.48V123.739H696.992L700.623 131.995L704.225 123.739H705.737ZM715.35 131.817H710.192L709.125 134.292H707.198L711.971 123.739H713.527L718.315 134.292H716.403L715.35 131.817ZM714.713 130.335L712.771 125.814L710.83 130.335H714.713ZM728.646 123.739V134.292H727.223L721.531 126.896V134.292H719.753V123.739H721.175L726.852 131.121V123.739H728.646ZM736.025 134.426C734.988 134.426 734.079 134.204 733.298 133.759C732.527 133.314 731.934 132.687 731.519 131.877C731.104 131.056 730.897 130.098 730.897 129.001C730.897 127.914 731.104 126.966 731.519 126.155C731.934 125.335 732.527 124.708 733.298 124.273C734.079 123.828 734.988 123.606 736.025 123.606C736.737 123.606 737.404 123.72 738.026 123.947C738.659 124.164 739.182 124.47 739.597 124.866L738.975 126.259C738.5 125.874 738.026 125.597 737.552 125.429C737.087 125.251 736.588 125.162 736.055 125.162C735.037 125.162 734.247 125.493 733.683 126.155C733.13 126.817 732.853 127.766 732.853 129.001C732.853 130.246 733.13 131.205 733.683 131.877C734.237 132.539 735.027 132.87 736.055 132.87C736.588 132.87 737.087 132.786 737.552 132.618C738.026 132.44 738.5 132.158 738.975 131.773L739.597 133.166C739.182 133.561 738.659 133.873 738.026 134.1C737.404 134.317 736.737 134.426 736.025 134.426ZM741.681 123.739H748.736V125.251H743.548V128.171H748.425V129.683H743.548V132.781H748.736V134.292H741.681V123.739Z" fill="#E37D38"/>
<circle cx="690.579" cy="180.05" r="32.1141" fill="white"/>
<path d="M690.811 147.937C696.163 147.976 701.42 149.352 706.105 151.939C710.79 154.527 714.754 158.244 717.637 162.754L714.72 164.618C712.148 160.594 708.612 157.278 704.432 154.969C700.252 152.66 695.561 151.433 690.786 151.398L690.811 147.937Z" fill="#E37D38"/>
<path d="M690.327 183.378V184.934H683.82V183.378H686.132V176.574L683.983 177.864V176.159L686.918 174.381H688.029V183.378H690.327ZM699.466 174.381V175.804L694.678 184.934H692.633L697.406 175.937H692.114V174.381H699.466Z" fill="#E37D38"/>
<rect x="178.455" y="310.733" width="104.988" height="6.17579" rx="2.47032" fill="#FEF3F4"/>
<rect x="178.455" y="321.849" width="104.988" height="6.17579" rx="2.47032" fill="#FEF3F4"/>
<rect x="178.455" y="299.616" width="24.7032" height="6.17579" rx="2.47032" fill="#FEF3F4"/>
<rect x="178.455" y="367.55" width="104.988" height="6.17579" rx="2.47032" fill="#FEF3F4"/>
<rect x="178.455" y="378.667" width="104.988" height="6.17579" rx="2.47032" fill="#FEF3F4"/>
<rect x="178.455" y="389.783" width="104.988" height="6.17579" rx="2.47032" fill="#FEF3F4"/>
<rect x="178.455" y="400.899" width="104.988" height="6.17579" rx="2.47032" fill="#FEF3F4"/>
<rect x="178.455" y="356.434" width="24.7032" height="6.17579" rx="2.47032" fill="#FEF3F4"/>
<rect x="178.455" y="430.543" width="24.7032" height="6.17579" rx="2.47032" fill="#FEF3F4"/>
<circle cx="183.396" cy="451.541" r="4.94063" fill="#EEAB34"/>
<circle cx="198.218" cy="451.541" r="4.94063" fill="#EEAB34"/>
<circle cx="213.04" cy="451.541" r="4.94063" fill="#EEAB34"/>
<circle cx="227.861" cy="451.541" r="4.94063" fill="#EEAB34"/>
<circle cx="242.683" cy="451.541" r="4.94063" fill="#EEAB34"/>
<path d="M205.148 36H129.037V90.1833H205.148V36Z" fill="#EEAB34"/>
<path d="M154.7 61.1541V71.9576H152.207V67.548H147.313V71.9576H144.82V61.1541H147.313V65.3983H152.207V61.1541H154.7Z" fill="white"/>
<path d="M159.475 63.1843H156.025V61.1541H165.417V63.1843H161.968V71.9576H159.475V63.1843Z" fill="white"/>
<path d="M166.764 61.1541H169.257V69.8814H174.656V71.9576H166.764V61.1541Z" fill="white"/>
<path d="M185.857 71.9576V65.5269L182.684 70.8369H181.552L178.397 65.6647V71.9576H176.033V61.1541H178.094L182.132 67.842L186.097 61.1541H188.139V71.9117L185.857 71.9576Z" fill="white"/>
<path d="M205.745 44.0379C205.745 44.1665 188.562 44.2768 167.368 44.2768C146.174 44.2768 129 44.1665 129 44.0379C129 43.9093 146.174 43.7991 167.368 43.7991C188.562 43.7991 205.745 43.9001 205.745 44.0379Z" fill="white"/>
<path d="M135.244 40.0805C135.266 40.2872 135.225 40.4959 135.127 40.6789C135.028 40.862 134.876 41.0108 134.691 41.1059C134.505 41.2009 134.296 41.2377 134.089 41.2113C133.883 41.185 133.689 41.0967 133.534 40.9582C133.378 40.8197 133.269 40.6375 133.219 40.4355C133.169 40.2335 133.182 40.0213 133.256 39.8267C133.33 39.6322 133.461 39.4646 133.632 39.3459C133.803 39.2272 134.006 39.163 134.214 39.1618C134.342 39.1544 134.47 39.1722 134.591 39.2144C134.713 39.2566 134.824 39.3222 134.92 39.4076C135.016 39.4929 135.093 39.5963 135.149 39.7118C135.205 39.8272 135.237 39.9525 135.244 40.0805Z" fill="white"/>
<path d="M138.98 40.0805C139.003 40.2872 138.962 40.4959 138.863 40.6789C138.764 40.862 138.612 41.0108 138.427 41.1059C138.242 41.2009 138.032 41.2377 137.825 41.2113C137.619 41.185 137.425 41.0967 137.27 40.9582C137.115 40.8197 137.005 40.6375 136.955 40.4355C136.906 40.2335 136.919 40.0213 136.992 39.8267C137.066 39.6322 137.197 39.4646 137.368 39.3459C137.539 39.2272 137.742 39.163 137.95 39.1618C138.078 39.1544 138.207 39.1722 138.328 39.2144C138.449 39.2566 138.56 39.3222 138.656 39.4076C138.752 39.4929 138.83 39.5963 138.885 39.7118C138.941 39.8272 138.973 39.9525 138.98 40.0805Z" fill="white"/>
<path d="M142.715 40.0805C142.737 40.2872 142.696 40.4959 142.597 40.6789C142.498 40.862 142.346 41.0108 142.161 41.1059C141.976 41.2009 141.766 41.2377 141.56 41.2113C141.353 41.185 141.16 41.0967 141.004 40.9582C140.849 40.8197 140.739 40.6375 140.69 40.4355C140.64 40.2335 140.653 40.0213 140.727 39.8267C140.8 39.6322 140.931 39.4646 141.102 39.3459C141.273 39.2272 141.476 39.163 141.684 39.1618C141.813 39.1544 141.941 39.1722 142.062 39.2144C142.183 39.2566 142.295 39.3222 142.391 39.4076C142.486 39.4929 142.564 39.5963 142.62 39.7118C142.675 39.8272 142.708 39.9525 142.715 40.0805Z" fill="white"/>
<path d="M210.078 503.417H78.5085C75.9349 503.417 73.4541 502.458 71.5507 500.728C69.6473 498.998 68.4581 496.621 68.2155 494.063L59.9246 406.211C59.791 404.796 59.9513 403.369 60.3954 402.019C60.8396 400.669 61.558 399.425 62.5058 398.366C63.4535 397.306 64.6102 396.453 65.9033 395.86C67.1964 395.267 68.5981 394.948 70.0207 394.921L209.875 392.255C211.249 392.229 212.614 392.477 213.891 392.984C215.168 393.491 216.331 394.247 217.312 395.208C218.292 396.169 219.071 397.316 219.603 398.581C220.135 399.847 220.409 401.205 220.408 402.577V493.092C220.408 495.829 219.32 498.454 217.383 500.39C215.446 502.326 212.819 503.415 210.078 503.417Z" fill="url(#paint0_linear)"/>
<path d="M68.3335 414.039L74.2165 490.009C74.341 491.6 75.0576 493.086 76.2251 494.175C77.3926 495.264 78.9263 495.877 80.5239 495.893L206.801 497.214C207.646 497.222 208.484 497.063 209.267 496.746C210.05 496.428 210.763 495.959 211.363 495.366C211.964 494.772 212.44 494.065 212.766 493.287C213.091 492.508 213.259 491.673 213.259 490.829V409.049C213.26 408.192 213.087 407.344 212.752 406.555C212.417 405.766 211.926 405.053 211.309 404.457C210.692 403.861 209.962 403.396 209.161 403.089C208.36 402.781 207.505 402.638 206.648 402.667L74.4933 407.166C73.6307 407.195 72.783 407.398 72.0011 407.763C71.2192 408.128 70.5194 408.647 69.9439 409.289C69.3683 409.932 68.9289 410.684 68.6521 411.5C68.3754 412.316 68.267 413.18 68.3335 414.039Z" fill="white"/>
<path d="M135.763 413.341L206.971 411.213C207.144 411.207 207.317 411.237 207.479 411.299C207.64 411.362 207.788 411.456 207.912 411.577C208.037 411.697 208.136 411.842 208.203 412.001C208.271 412.161 208.306 412.332 208.306 412.506V413.651C208.305 413.991 208.171 414.316 207.932 414.558C207.693 414.8 207.369 414.938 207.029 414.944L135.818 415.924C135.646 415.926 135.476 415.895 135.317 415.831C135.158 415.767 135.013 415.672 134.892 415.552C134.77 415.431 134.673 415.288 134.607 415.13C134.541 414.972 134.507 414.802 134.508 414.631C134.507 414.295 134.638 413.972 134.872 413.731C135.107 413.49 135.426 413.35 135.763 413.341Z" fill="#F4F4EA"/>
<path d="M206.999 419.303H135.791C135.076 419.303 134.496 419.882 134.496 420.596V421.085C134.496 421.799 135.076 422.378 135.791 422.378H206.999C207.714 422.378 208.294 421.799 208.294 421.085V420.596C208.294 419.882 207.714 419.303 206.999 419.303Z" fill="url(#paint1_linear)"/>
<path d="M169.395 485.601C169.549 485.601 169.696 485.56 169.805 485.488C169.914 485.417 169.976 485.319 169.977 485.218V484.063C169.977 483.961 169.916 483.863 169.807 483.791C169.699 483.719 169.552 483.678 169.398 483.678C169.245 483.678 169.097 483.718 168.988 483.79C168.879 483.862 168.818 483.959 168.817 484.061V485.216C168.817 485.317 168.878 485.415 168.986 485.487C169.095 485.559 169.242 485.6 169.395 485.601ZM169.395 481.753C169.549 481.753 169.696 481.713 169.804 481.641C169.913 481.569 169.973 481.472 169.973 481.37V480.215C169.973 480.113 169.912 480.015 169.803 479.942C169.694 479.87 169.547 479.829 169.392 479.828C169.238 479.828 169.09 479.869 168.981 479.941C168.872 480.013 168.811 480.111 168.811 480.213V481.368C168.811 481.419 168.825 481.469 168.854 481.515C168.883 481.562 168.925 481.604 168.979 481.64C169.033 481.676 169.097 481.704 169.167 481.724C169.237 481.743 169.313 481.753 169.389 481.753H169.395ZM169.395 477.906C169.549 477.906 169.696 477.865 169.805 477.794C169.914 477.722 169.976 477.625 169.977 477.523V476.368C169.977 476.317 169.962 476.267 169.933 476.22C169.904 476.173 169.861 476.13 169.807 476.094C169.753 476.058 169.689 476.03 169.618 476.01C169.548 475.991 169.472 475.981 169.395 475.981C169.319 475.981 169.243 475.991 169.173 476.01C169.102 476.03 169.038 476.058 168.984 476.094C168.93 476.129 168.887 476.172 168.858 476.219C168.829 476.265 168.814 476.315 168.814 476.366V477.519C168.814 477.621 168.875 477.719 168.984 477.792C169.093 477.864 169.241 477.905 169.395 477.906ZM169.395 474.058C169.549 474.058 169.697 474.018 169.806 473.946C169.915 473.873 169.977 473.775 169.977 473.673V472.521C169.977 472.47 169.963 472.42 169.934 472.373C169.906 472.326 169.863 472.283 169.809 472.247C169.756 472.211 169.692 472.183 169.621 472.163C169.55 472.144 169.475 472.134 169.398 472.134C169.322 472.133 169.247 472.143 169.176 472.162C169.106 472.181 169.042 472.209 168.987 472.245C168.933 472.281 168.891 472.323 168.861 472.369C168.832 472.416 168.817 472.466 168.817 472.516V473.671C168.817 473.722 168.831 473.772 168.86 473.819C168.889 473.866 168.932 473.909 168.986 473.945C169.04 473.981 169.104 474.009 169.175 474.029C169.246 474.048 169.322 474.058 169.398 474.058H169.395Z" fill="url(#paint2_linear)"/>
<path d="M140.214 484.507C140.368 484.507 140.516 484.467 140.625 484.395C140.734 484.322 140.795 484.224 140.795 484.122V482.968C140.795 482.865 140.734 482.768 140.625 482.695C140.516 482.623 140.368 482.583 140.214 482.583C140.06 482.583 139.912 482.623 139.803 482.695C139.694 482.768 139.633 482.865 139.633 482.968V484.122C139.633 484.224 139.694 484.322 139.803 484.395C139.912 484.467 140.06 484.507 140.214 484.507ZM140.214 480.66C140.368 480.66 140.516 480.619 140.625 480.547C140.734 480.475 140.795 480.377 140.795 480.275V479.12C140.795 479.018 140.734 478.92 140.625 478.848C140.516 478.776 140.368 478.735 140.214 478.735C140.06 478.735 139.912 478.776 139.803 478.848C139.694 478.92 139.633 479.018 139.633 479.12V480.275C139.633 480.377 139.694 480.475 139.803 480.547C139.912 480.619 140.06 480.66 140.214 480.66ZM140.214 476.812C140.368 476.812 140.516 476.772 140.625 476.7C140.734 476.628 140.795 476.53 140.795 476.428V475.273C140.795 475.171 140.734 475.073 140.625 475C140.516 474.928 140.368 474.888 140.214 474.888C140.06 474.888 139.912 474.928 139.803 475C139.694 475.073 139.633 475.171 139.633 475.273V476.425C139.632 476.476 139.647 476.526 139.676 476.573C139.705 476.62 139.748 476.663 139.802 476.699C139.856 476.735 139.92 476.763 139.991 476.783C140.061 476.802 140.137 476.812 140.214 476.812ZM140.214 472.963C140.29 472.963 140.366 472.953 140.437 472.934C140.507 472.915 140.572 472.887 140.626 472.851C140.68 472.815 140.722 472.773 140.751 472.726C140.781 472.679 140.795 472.629 140.795 472.578V471.425C140.795 471.323 140.734 471.225 140.625 471.153C140.516 471.081 140.368 471.04 140.214 471.04C140.06 471.04 139.912 471.081 139.803 471.153C139.694 471.225 139.633 471.323 139.633 471.425V472.578C139.633 472.68 139.694 472.778 139.803 472.85C139.912 472.922 140.06 472.963 140.214 472.963ZM140.214 469.116C140.29 469.116 140.366 469.106 140.437 469.087C140.507 469.068 140.572 469.039 140.626 469.003C140.68 468.968 140.722 468.925 140.751 468.878C140.781 468.831 140.795 468.781 140.795 468.731V467.578C140.795 467.476 140.734 467.378 140.625 467.306C140.516 467.233 140.368 467.193 140.214 467.193C140.06 467.193 139.912 467.233 139.803 467.306C139.694 467.378 139.633 467.476 139.633 467.578V468.731C139.633 468.833 139.694 468.931 139.803 469.003C139.912 469.075 140.06 469.116 140.214 469.116Z" fill="url(#paint3_linear)"/>
<path d="M117.959 487.686C118.11 487.686 118.256 487.648 118.364 487.578C118.473 487.508 118.536 487.414 118.541 487.314L118.575 486.625C118.579 486.574 118.568 486.522 118.542 486.474C118.516 486.425 118.476 486.381 118.423 486.343C118.371 486.305 118.307 486.274 118.236 486.253C118.166 486.231 118.089 486.219 118.012 486.218C117.935 486.215 117.858 486.223 117.786 486.24C117.714 486.258 117.648 486.285 117.591 486.319C117.535 486.354 117.491 486.396 117.46 486.443C117.429 486.489 117.413 486.54 117.412 486.591L117.378 487.279C117.374 487.381 117.431 487.48 117.536 487.554C117.641 487.629 117.787 487.672 117.941 487.676L117.959 487.686ZM118.119 484.305C118.27 484.305 118.415 484.266 118.523 484.196C118.631 484.127 118.695 484.032 118.701 483.933L118.753 482.778C118.76 482.725 118.752 482.672 118.727 482.622C118.703 482.572 118.663 482.526 118.61 482.486C118.558 482.447 118.493 482.415 118.421 482.392C118.349 482.37 118.271 482.358 118.191 482.356C118.112 482.355 118.032 482.364 117.958 482.383C117.885 482.403 117.818 482.432 117.761 482.47C117.705 482.507 117.662 482.552 117.633 482.601C117.604 482.65 117.59 482.703 117.593 482.755L117.538 483.908C117.534 483.959 117.545 484.011 117.571 484.059C117.598 484.108 117.638 484.152 117.69 484.19C117.743 484.228 117.806 484.259 117.877 484.28C117.947 484.302 118.023 484.314 118.101 484.316L118.119 484.305ZM118.301 480.46C118.451 480.459 118.596 480.42 118.703 480.351C118.811 480.281 118.874 480.187 118.879 480.087L118.934 478.932C118.938 478.83 118.882 478.731 118.776 478.657C118.671 478.583 118.525 478.539 118.371 478.535C118.216 478.532 118.064 478.569 117.949 478.639C117.834 478.708 117.765 478.805 117.756 478.908L117.704 480.063C117.702 480.113 117.714 480.164 117.741 480.211C117.768 480.258 117.809 480.302 117.861 480.339C117.913 480.375 117.976 480.405 118.046 480.426C118.115 480.447 118.191 480.458 118.267 480.46H118.301ZM118.479 476.612C118.63 476.613 118.776 476.574 118.885 476.505C118.993 476.435 119.056 476.34 119.06 476.24L119.113 475.087C119.116 475.036 119.103 474.986 119.076 474.938C119.05 474.891 119.009 474.847 118.957 474.811C118.904 474.774 118.841 474.744 118.772 474.723C118.702 474.702 118.626 474.691 118.55 474.69C118.396 474.688 118.248 474.725 118.136 474.795C118.025 474.865 117.959 474.961 117.953 475.063L117.898 476.217C117.894 476.319 117.951 476.418 118.056 476.492C118.162 476.566 118.307 476.609 118.461 476.612H118.479ZM118.661 472.759C118.811 472.758 118.955 472.719 119.063 472.65C119.171 472.58 119.234 472.486 119.239 472.386L119.294 471.233C119.297 471.183 119.284 471.132 119.257 471.085C119.23 471.038 119.189 470.994 119.137 470.958C119.085 470.921 119.022 470.891 118.952 470.87C118.883 470.849 118.808 470.838 118.731 470.836C118.654 470.834 118.577 470.841 118.504 470.859C118.431 470.876 118.364 470.903 118.307 470.938C118.249 470.972 118.203 471.014 118.17 471.061C118.138 471.107 118.119 471.158 118.116 471.209L118.064 472.362C118.061 472.412 118.073 472.463 118.1 472.51C118.127 472.558 118.168 472.601 118.22 472.638C118.272 472.675 118.335 472.705 118.405 472.726C118.475 472.746 118.55 472.758 118.627 472.759H118.661ZM118.839 468.914C118.99 468.914 119.135 468.875 119.244 468.805C119.352 468.736 119.416 468.641 119.42 468.541L119.476 467.386C119.48 467.284 119.423 467.186 119.317 467.111C119.212 467.037 119.066 466.994 118.913 466.991C118.835 466.987 118.757 466.994 118.683 467.011C118.609 467.027 118.541 467.054 118.484 467.089C118.426 467.124 118.38 467.166 118.348 467.214C118.316 467.261 118.299 467.312 118.298 467.364L118.242 468.516C118.238 468.618 118.295 468.717 118.4 468.792C118.506 468.866 118.651 468.91 118.805 468.914H118.839ZM119.02 465.068C119.171 465.068 119.316 465.029 119.424 464.959C119.533 464.89 119.596 464.795 119.602 464.695L119.654 463.541C119.658 463.439 119.601 463.34 119.496 463.265C119.391 463.191 119.245 463.147 119.091 463.143C119.015 463.141 118.939 463.149 118.867 463.167C118.795 463.185 118.73 463.212 118.674 463.246C118.618 463.281 118.574 463.323 118.543 463.369C118.512 463.416 118.496 463.466 118.495 463.516L118.439 464.671C118.435 464.773 118.492 464.872 118.597 464.946C118.703 465.021 118.848 465.064 119.002 465.068H119.02Z" fill="url(#paint4_linear)"/>
<path d="M96.8037 485.532C96.9578 485.532 97.1056 485.492 97.2146 485.419C97.3235 485.347 97.3848 485.249 97.3848 485.147V483.992C97.3848 483.89 97.3235 483.792 97.2146 483.72C97.1056 483.648 96.9578 483.607 96.8037 483.607C96.6496 483.607 96.5018 483.648 96.3928 483.72C96.2839 483.792 96.2226 483.89 96.2226 483.992V485.147C96.2226 485.249 96.2839 485.347 96.3928 485.419C96.5018 485.492 96.6496 485.532 96.8037 485.532ZM96.8037 481.683C96.8801 481.683 96.9559 481.673 97.0265 481.654C97.0972 481.635 97.1614 481.606 97.2155 481.571C97.2695 481.535 97.3123 481.492 97.3413 481.445C97.3704 481.399 97.3852 481.348 97.3848 481.298V480.145C97.3848 480.043 97.3235 479.945 97.2146 479.873C97.1056 479.801 96.9578 479.76 96.8037 479.76C96.6496 479.76 96.5018 479.801 96.3928 479.873C96.2839 479.945 96.2226 480.043 96.2226 480.145V481.298C96.2226 481.4 96.2839 481.498 96.3928 481.57C96.5018 481.642 96.6496 481.683 96.8037 481.683ZM96.8037 477.835C96.8801 477.836 96.9559 477.826 97.0265 477.806C97.0972 477.787 97.1614 477.759 97.2155 477.723C97.2695 477.687 97.3123 477.645 97.3413 477.598C97.3704 477.551 97.3852 477.501 97.3848 477.45V476.298C97.3848 476.195 97.3235 476.097 97.2146 476.025C97.1056 475.953 96.9578 475.913 96.8037 475.913C96.6496 475.913 96.5018 475.953 96.3928 476.025C96.2839 476.097 96.2226 476.195 96.2226 476.298V477.442C96.221 477.493 96.2348 477.544 96.2633 477.592C96.2917 477.64 96.3343 477.683 96.3884 477.72C96.4425 477.756 96.5071 477.785 96.5784 477.805C96.6498 477.825 96.7263 477.835 96.8037 477.835ZM96.8037 473.988C96.8801 473.988 96.9559 473.978 97.0265 473.959C97.0972 473.94 97.1614 473.911 97.2155 473.876C97.2695 473.84 97.3123 473.797 97.3413 473.751C97.3704 473.704 97.3852 473.654 97.3848 473.603V472.448C97.3848 472.346 97.3235 472.248 97.2146 472.176C97.1056 472.104 96.9578 472.063 96.8037 472.063C96.6496 472.063 96.5018 472.104 96.3928 472.176C96.2839 472.248 96.2226 472.346 96.2226 472.448V473.603C96.2259 473.704 96.2885 473.799 96.3971 473.87C96.5057 473.94 96.6517 473.98 96.8037 473.98V473.988ZM96.8037 470.14C96.9578 470.14 97.1056 470.1 97.2146 470.028C97.3235 469.955 97.3848 469.858 97.3848 469.755V468.601C97.3848 468.499 97.3235 468.401 97.2146 468.328C97.1056 468.256 96.9578 468.216 96.8037 468.216C96.6496 468.216 96.5018 468.256 96.3928 468.328C96.2839 468.401 96.2226 468.499 96.2226 468.601V469.755C96.2226 469.858 96.2839 469.955 96.3928 470.028C96.5018 470.1 96.6496 470.14 96.8037 470.14ZM96.8037 466.293C96.9578 466.293 97.1056 466.252 97.2146 466.18C97.3235 466.108 97.3848 466.01 97.3848 465.908V464.753C97.3848 464.651 97.3235 464.553 97.2146 464.481C97.1056 464.409 96.9578 464.368 96.8037 464.368C96.6496 464.368 96.5018 464.409 96.3928 464.481C96.2839 464.553 96.2226 464.651 96.2226 464.753V465.908C96.2226 466.01 96.2839 466.108 96.3928 466.18C96.5018 466.252 96.6496 466.293 96.8037 466.293ZM96.8037 462.443C96.8799 462.444 96.9554 462.434 97.0258 462.415C97.0963 462.396 97.1604 462.368 97.2144 462.332C97.2684 462.296 97.3112 462.254 97.3405 462.208C97.3697 462.161 97.3848 462.111 97.3848 462.061V460.906C97.3848 460.804 97.3235 460.706 97.2146 460.634C97.1056 460.561 96.9578 460.521 96.8037 460.521C96.6496 460.521 96.5018 460.561 96.3928 460.634C96.2839 460.706 96.2226 460.804 96.2226 460.906V462.061C96.2234 462.162 96.285 462.26 96.3939 462.331C96.5028 462.403 96.6501 462.443 96.8037 462.443ZM96.8037 458.596C96.8801 458.596 96.9559 458.587 97.0265 458.567C97.0972 458.548 97.1614 458.52 97.2155 458.484C97.2695 458.448 97.3123 458.406 97.3413 458.359C97.3704 458.312 97.3852 458.262 97.3848 458.211V457.058C97.3848 456.956 97.3235 456.858 97.2146 456.786C97.1056 456.714 96.9578 456.673 96.8037 456.673C96.6496 456.673 96.5018 456.714 96.3928 456.786C96.2839 456.858 96.2226 456.956 96.2226 457.058V458.211C96.2226 458.313 96.2839 458.411 96.3928 458.483C96.5018 458.556 96.6496 458.596 96.8037 458.596ZM96.8037 454.749C96.8801 454.749 96.9559 454.739 97.0265 454.72C97.0972 454.701 97.1614 454.672 97.2155 454.636C97.2695 454.601 97.3123 454.558 97.3413 454.511C97.3704 454.464 97.3852 454.414 97.3848 454.364V453.205C97.3848 453.103 97.3235 453.005 97.2146 452.933C97.1056 452.86 96.9578 452.82 96.8037 452.82C96.6496 452.82 96.5018 452.86 96.3928 452.933C96.2839 453.005 96.2226 453.103 96.2226 453.205V454.36C96.2218 454.411 96.2362 454.461 96.2651 454.508C96.2939 454.555 96.3366 454.598 96.3907 454.634C96.4447 454.671 96.509 454.699 96.5799 454.719C96.6508 454.739 96.7269 454.749 96.8037 454.749Z" fill="url(#paint5_linear)"/>
<path d="M85.8671 491.285C85.6488 491.284 85.4386 491.202 85.2781 491.054C85.1176 490.906 85.0183 490.704 84.9999 490.486L79.0461 420.245C79.0265 420.015 79.099 419.786 79.2477 419.609C79.3965 419.433 79.6093 419.322 79.8396 419.302C80.0697 419.285 80.2971 419.359 80.4734 419.508C80.6497 419.657 80.761 419.868 80.7837 420.097L86.7374 490.339C86.7475 490.453 86.7351 490.568 86.7007 490.677C86.6663 490.787 86.6107 490.888 86.537 490.976C86.4633 491.064 86.373 491.136 86.2712 491.189C86.1695 491.242 86.0583 491.275 85.944 491.285H85.8671Z" fill="#5B5151"/>
<path d="M77.263 423.879L79.957 420.688L83.1522 423.382L82.94 420.885L79.7447 418.191L77.0508 421.382L77.263 423.879Z" fill="#5B5151"/>
<path d="M203.9 487.981H81.347C81.1247 487.968 80.9159 487.87 80.7632 487.708C80.6105 487.547 80.5254 487.333 80.5254 487.11C80.5254 486.888 80.6105 486.674 80.7632 486.512C80.9159 486.35 81.1247 486.253 81.347 486.24H203.9C204.123 486.253 204.331 486.35 204.484 486.512C204.637 486.674 204.722 486.888 204.722 487.11C204.722 487.333 204.637 487.547 204.484 487.708C204.331 487.87 204.123 487.968 203.9 487.981Z" fill="#5B5151"/>
<path d="M200.432 490.056L203.387 487.105L200.432 484.154H202.941L205.896 487.105L202.941 490.056H200.432Z" fill="#5B5151"/>
<path d="M193.401 475.32C193.62 475.317 193.831 475.232 193.99 475.081C194.149 474.93 194.245 474.724 194.26 474.505C194.274 474.286 194.205 474.07 194.067 473.9C193.929 473.729 193.732 473.617 193.514 473.585C192.869 473.502 128.703 464.725 93.5676 438.859C93.3816 438.722 93.1488 438.665 92.9204 438.699C92.6921 438.734 92.4867 438.858 92.3497 439.043C92.2127 439.229 92.1552 439.461 92.1898 439.69C92.2244 439.918 92.3483 440.123 92.5343 440.259C128.023 466.396 192.626 475.225 193.274 475.311C193.316 475.318 193.358 475.321 193.401 475.32Z" fill="url(#paint6_linear)"/>
<path d="M190.896 470.991L190.848 471.039C190.699 471.213 190.624 471.437 190.639 471.665C190.654 471.893 190.758 472.106 190.928 472.258L193.529 474.493L190.307 476.077C190.153 476.249 190.073 476.476 190.085 476.706C190.098 476.937 190.202 477.153 190.374 477.307C190.546 477.461 190.772 477.541 191.003 477.528C191.233 477.515 191.45 477.411 191.604 477.239L195.42 474.991C195.498 474.903 195.558 474.8 195.596 474.688C195.634 474.576 195.648 474.458 195.64 474.34C195.633 474.225 195.602 474.112 195.551 474.008C195.499 473.905 195.428 473.813 195.34 473.737L192.07 470.925C191.901 470.788 191.688 470.719 191.471 470.731C191.253 470.743 191.049 470.836 190.896 470.991Z" fill="url(#paint7_linear)"/>
</g>
<defs>
<linearGradient id="paint0_linear" x1="59.8784" y1="447.835" x2="220.414" y2="447.835" gradientUnits="userSpaceOnUse">
<stop stop-color="#D55A5F"/>
<stop offset="1" stop-color="#D55A5F" stop-opacity="0.8"/>
</linearGradient>
<linearGradient id="paint1_linear" x1="133404" y1="1921.51" x2="151113" y2="1921.51" gradientUnits="userSpaceOnUse">
<stop stop-color="#FEF3F4"/>
<stop offset="1" stop-color="#4F52FF"/>
</linearGradient>
<linearGradient id="paint2_linear" x1="-1872.24" y1="-12353.9" x2="-1876.64" y2="-12353.9" gradientUnits="userSpaceOnUse">
<stop stop-color="#EEAB34"/>
<stop offset="1" stop-color="#4F52FF"/>
</linearGradient>
<linearGradient id="paint3_linear" x1="-2000.57" y1="11689.9" x2="-2004.97" y2="11689.9" gradientUnits="userSpaceOnUse">
<stop stop-color="#EEAB34"/>
<stop offset="1" stop-color="#4F52FF"/>
</linearGradient>
<linearGradient id="paint4_linear" x1="-4230.83" y1="16319.6" x2="-4247.67" y2="16319.6" gradientUnits="userSpaceOnUse">
<stop stop-color="#EEAB34"/>
<stop offset="1" stop-color="#4F52FF"/>
</linearGradient>
<linearGradient id="paint5_linear" x1="-2207.94" y1="20585" x2="-2212.33" y2="20585" gradientUnits="userSpaceOnUse">
<stop stop-color="#EEAB34"/>
<stop offset="1" stop-color="#4F52FF"/>
</linearGradient>
<linearGradient id="paint6_linear" x1="-169616" y1="25751.1" x2="-180084" y2="6380.19" gradientUnits="userSpaceOnUse">
<stop stop-color="#EEAB34"/>
<stop offset="1" stop-color="#4F52FF"/>
</linearGradient>
<linearGradient id="paint7_linear" x1="5869.14" y1="-11675.4" x2="8522.27" y2="-11996.1" gradientUnits="userSpaceOnUse">
<stop stop-color="#EEAB34"/>
<stop offset="1" stop-color="#4F52FF"/>
</linearGradient>
<clipPath id="clip0">
<rect width="111.164" height="106.224" fill="white" transform="translate(332.852 413.252)"/>
</clipPath>
<clipPath id="clip1">
<rect width="111.164" height="106.224" fill="white" transform="translate(458.838 413.251)"/>
</clipPath>
<clipPath id="clip2">
<rect width="142.043" height="284.086" fill="white" transform="translate(164.869 235.388)"/>
</clipPath>
</defs>
</svg>
