<svg width="1440" height="827" viewBox="0 0 1440 827" fill="none" xmlns="http://www.w3.org/2000/svg">
<path d="M1211.5 59.0005C1567.5 -177 1622.5 382.5 1807 265.5C1834.17 514.5 1740.7 459.701 1751.5 614.501C1765 808.001 1553.5 884.501 1495 780.001C1404.62 618.547 962.501 869.501 735.001 749.001C328.195 533.527 203.001 741.501 90.501 687.501C-21.999 633.501 36.001 554.501 -179.999 581.501C-395.999 608.501 -272.5 511.001 -286 353.501C-299.5 196.001 -266.999 332.001 -230.999 305.001C-194.999 278.001 -369.499 218.001 -26.9991 146.001C315.501 74.0009 457.501 278.001 723.001 332.001C988.501 386.001 912.926 256.933 1211.5 59.0005Z" fill="#F4F4EA"/>
</svg>
