<svg width="359" height="259" viewBox="0 0 359 259" fill="none" xmlns="http://www.w3.org/2000/svg">
<rect width="359" height="259" rx="12" fill="white"/>
<rect x="0.5" y="0.5" width="358" height="258" rx="11.5" stroke="#5B5151" stroke-opacity="0.1"/>
<path d="M16 57C16 45.9543 24.9543 37 36 37H242C253.046 37 262 45.9543 262 57V77C262 88.0457 253.046 97 242 97H16V57Z" fill="#FEF3F4"/>
<path d="M67.64 54.012H64.168V53.032H72.274V54.012H68.802V63H67.64V54.012ZM77.0415 55.79C78.7309 55.79 79.5755 56.7187 79.5755 58.576V63H78.4415V58.632C78.4415 57.9787 78.3109 57.5027 78.0495 57.204C77.7882 56.896 77.3775 56.742 76.8175 56.742C76.1642 56.742 75.6415 56.9427 75.2495 57.344C74.8575 57.7453 74.6615 58.2867 74.6615 58.968V63H73.5275V52.696H74.6615V57.106C74.8855 56.6767 75.2029 56.35 75.6135 56.126C76.0335 55.902 76.5095 55.79 77.0415 55.79ZM87.611 59.444H82.445C82.4543 60.34 82.6597 61.0167 83.061 61.474C83.4717 61.9313 84.0643 62.16 84.839 62.16C85.6603 62.16 86.4163 61.8847 87.107 61.334L87.485 62.16C87.177 62.4493 86.7803 62.678 86.295 62.846C85.819 63.014 85.329 63.098 84.825 63.098C83.7237 63.098 82.8603 62.776 82.235 62.132C81.6097 61.4787 81.297 60.5873 81.297 59.458C81.297 58.7393 81.437 58.1047 81.717 57.554C81.997 56.994 82.389 56.56 82.893 56.252C83.397 55.944 83.971 55.79 84.615 55.79C85.5483 55.79 86.281 56.098 86.813 56.714C87.345 57.3207 87.611 58.1607 87.611 59.234V59.444ZM84.629 56.672C84.041 56.672 83.5603 56.8493 83.187 57.204C82.823 57.5587 82.5897 58.058 82.487 58.702H86.589C86.533 58.0393 86.337 57.5353 86.001 57.19C85.6743 56.8447 85.217 56.672 84.629 56.672ZM94.4946 56.854V60.704C94.4946 61.2267 94.602 61.5953 94.8166 61.81C95.0313 62.0153 95.3346 62.118 95.7266 62.118C95.988 62.118 96.24 62.076 96.4826 61.992V62.958C96.1933 63.0513 95.8666 63.098 95.5026 63.098C94.8306 63.098 94.3033 62.9113 93.9206 62.538C93.5473 62.1553 93.3606 61.5953 93.3606 60.858V56.854H91.9886V55.958H93.3606V54.152L94.4946 53.746V55.958H96.5106V56.854H94.4946ZM103.771 59.444H98.6052C98.6145 60.34 98.8198 61.0167 99.2212 61.474C99.6318 61.9313 100.224 62.16 100.999 62.16C101.82 62.16 102.576 61.8847 103.267 61.334L103.645 62.16C103.337 62.4493 102.94 62.678 102.455 62.846C101.979 63.014 101.489 63.098 100.985 63.098C99.8838 63.098 99.0205 62.776 98.3952 62.132C97.7698 61.4787 97.4572 60.5873 97.4572 59.458C97.4572 58.7393 97.5972 58.1047 97.8772 57.554C98.1572 56.994 98.5492 56.56 99.0532 56.252C99.5572 55.944 100.131 55.79 100.775 55.79C101.708 55.79 102.441 56.098 102.973 56.714C103.505 57.3207 103.771 58.1607 103.771 59.234V59.444ZM100.789 56.672C100.201 56.672 99.7205 56.8493 99.3472 57.204C98.9832 57.5587 98.7498 58.058 98.6472 58.702H102.749C102.693 58.0393 102.497 57.5353 102.161 57.19C101.834 56.8447 101.377 56.672 100.789 56.672ZM108.446 63.098C107.765 63.098 107.168 62.9487 106.654 62.65C106.15 62.3513 105.758 61.9313 105.478 61.39C105.208 60.8393 105.072 60.2 105.072 59.472C105.072 58.744 105.212 58.1047 105.492 57.554C105.772 56.994 106.169 56.56 106.682 56.252C107.205 55.944 107.812 55.79 108.502 55.79C108.978 55.79 109.436 55.874 109.874 56.042C110.322 56.2007 110.691 56.4247 110.98 56.714L110.602 57.554C110.248 57.274 109.902 57.0687 109.566 56.938C109.24 56.8073 108.904 56.742 108.558 56.742C107.84 56.742 107.275 56.9847 106.864 57.47C106.454 57.946 106.248 58.6133 106.248 59.472C106.248 60.3213 106.449 60.984 106.85 61.46C107.261 61.9267 107.83 62.16 108.558 62.16C108.904 62.16 109.24 62.0947 109.566 61.964C109.902 61.8333 110.248 61.628 110.602 61.348L110.98 62.188C110.682 62.468 110.304 62.692 109.846 62.86C109.398 63.0187 108.932 63.098 108.446 63.098ZM115.938 55.79C117.627 55.79 118.472 56.7187 118.472 58.576V63H117.338V58.632C117.338 57.9787 117.207 57.5027 116.946 57.204C116.685 56.896 116.274 56.742 115.714 56.742C115.061 56.742 114.538 56.9427 114.146 57.344C113.754 57.7453 113.558 58.2867 113.558 58.968V63H112.424V52.696H113.558V57.106C113.782 56.6767 114.099 56.35 114.51 56.126C114.93 55.902 115.406 55.79 115.938 55.79ZM124.127 55.79C125.817 55.79 126.661 56.7187 126.661 58.576V63H125.527V58.632C125.527 57.9787 125.397 57.5027 125.135 57.204C124.874 56.896 124.463 56.742 123.903 56.742C123.25 56.742 122.727 56.9427 122.335 57.344C121.943 57.7453 121.747 58.2867 121.747 58.968V63H120.613V57.932C120.613 57.204 120.576 56.546 120.501 55.958H121.579L121.691 57.218C121.906 56.7607 122.228 56.4107 122.657 56.168C123.087 55.916 123.577 55.79 124.127 55.79ZM128.803 55.958H129.937V63H128.803V55.958ZM130.077 52.976V54.264H128.691V52.976H130.077ZM135.093 63.098C134.412 63.098 133.814 62.9487 133.301 62.65C132.797 62.3513 132.405 61.9313 132.125 61.39C131.854 60.8393 131.719 60.2 131.719 59.472C131.719 58.744 131.859 58.1047 132.139 57.554C132.419 56.994 132.816 56.56 133.329 56.252C133.852 55.944 134.458 55.79 135.149 55.79C135.625 55.79 136.082 55.874 136.521 56.042C136.969 56.2007 137.338 56.4247 137.627 56.714L137.249 57.554C136.894 57.274 136.549 57.0687 136.213 56.938C135.886 56.8073 135.55 56.742 135.205 56.742C134.486 56.742 133.922 56.9847 133.511 57.47C133.1 57.946 132.895 58.6133 132.895 59.472C132.895 60.3213 133.096 60.984 133.497 61.46C133.908 61.9267 134.477 62.16 135.205 62.16C135.55 62.16 135.886 62.0947 136.213 61.964C136.549 61.8333 136.894 61.628 137.249 61.348L137.627 62.188C137.328 62.468 136.95 62.692 136.493 62.86C136.045 63.0187 135.578 63.098 135.093 63.098ZM145.273 55.958V63H144.153V61.726C143.947 62.1647 143.635 62.5053 143.215 62.748C142.804 62.9813 142.323 63.098 141.773 63.098C141.147 63.098 140.597 62.9487 140.121 62.65C139.654 62.3513 139.29 61.9313 139.029 61.39C138.777 60.8393 138.651 60.2 138.651 59.472C138.651 58.744 138.781 58.1047 139.043 57.554C139.304 56.994 139.668 56.56 140.135 56.252C140.611 55.944 141.157 55.79 141.773 55.79C142.323 55.79 142.804 55.9113 143.215 56.154C143.625 56.3967 143.938 56.7373 144.153 57.176V55.958H145.273ZM141.997 62.16C142.687 62.16 143.219 61.9267 143.593 61.46C143.966 60.984 144.153 60.312 144.153 59.444C144.153 58.576 143.966 57.9087 143.593 57.442C143.219 56.9753 142.687 56.742 141.997 56.742C141.306 56.742 140.765 56.9847 140.373 57.47C139.99 57.946 139.799 58.6133 139.799 59.472C139.799 60.3307 139.99 60.9933 140.373 61.46C140.755 61.9267 141.297 62.16 141.997 62.16ZM147.465 52.696H148.599V63H147.465V52.696ZM157.965 55.79C158.581 55.79 159.127 55.944 159.603 56.252C160.079 56.56 160.448 56.994 160.709 57.554C160.971 58.1047 161.101 58.744 161.101 59.472C161.101 60.2 160.971 60.8393 160.709 61.39C160.448 61.9313 160.079 62.3513 159.603 62.65C159.137 62.9487 158.591 63.098 157.965 63.098C157.415 63.098 156.934 62.9767 156.523 62.734C156.113 62.4913 155.8 62.146 155.585 61.698V66.024H154.451V57.932C154.451 57.204 154.414 56.546 154.339 55.958H155.417L155.529 57.316C155.725 56.8307 156.033 56.4573 156.453 56.196C156.883 55.9253 157.387 55.79 157.965 55.79ZM157.755 62.16C158.446 62.16 158.978 61.9267 159.351 61.46C159.734 60.9933 159.925 60.3307 159.925 59.472C159.925 58.6133 159.734 57.946 159.351 57.47C158.969 56.9847 158.437 56.742 157.755 56.742C157.055 56.742 156.519 56.9753 156.145 57.442C155.772 57.9087 155.585 58.576 155.585 59.444C155.585 60.312 155.772 60.984 156.145 61.46C156.519 61.9267 157.055 62.16 157.755 62.16ZM168.74 59.444H163.574C163.583 60.34 163.789 61.0167 164.19 61.474C164.601 61.9313 165.193 62.16 165.968 62.16C166.789 62.16 167.545 61.8847 168.236 61.334L168.614 62.16C168.306 62.4493 167.909 62.678 167.424 62.846C166.948 63.014 166.458 63.098 165.954 63.098C164.853 63.098 163.989 62.776 163.364 62.132C162.739 61.4787 162.426 60.5873 162.426 59.458C162.426 58.7393 162.566 58.1047 162.846 57.554C163.126 56.994 163.518 56.56 164.022 56.252C164.526 55.944 165.1 55.79 165.744 55.79C166.677 55.79 167.41 56.098 167.942 56.714C168.474 57.3207 168.74 58.1607 168.74 59.234V59.444ZM165.758 56.672C165.17 56.672 164.689 56.8493 164.316 57.204C163.952 57.5587 163.719 58.058 163.616 58.702H167.718C167.662 58.0393 167.466 57.5353 167.13 57.19C166.803 56.8447 166.346 56.672 165.758 56.672ZM173.737 55.79C173.97 55.79 174.185 55.818 174.381 55.874L174.353 56.91C174.138 56.8353 173.891 56.798 173.611 56.798C172.93 56.798 172.421 57.0127 172.085 57.442C171.758 57.862 171.595 58.3753 171.595 58.982V63H170.461V57.932C170.461 57.204 170.424 56.546 170.349 55.958H171.427L171.539 57.26C171.716 56.784 172.001 56.42 172.393 56.168C172.785 55.916 173.233 55.79 173.737 55.79ZM178.782 53.62C178.409 53.62 178.115 53.7273 177.9 53.942C177.695 54.1473 177.592 54.5067 177.592 55.02V55.958H179.314V56.854H177.592V63H176.458V56.854H175.086V55.958H176.458V54.88C176.458 54.1427 176.64 53.5873 177.004 53.214C177.378 52.8313 177.896 52.64 178.558 52.64C178.885 52.64 179.202 52.682 179.51 52.766V53.732C179.249 53.6573 179.006 53.62 178.782 53.62ZM183.641 63.098C182.978 63.098 182.395 62.9487 181.891 62.65C181.387 62.3513 180.995 61.9267 180.715 61.376C180.444 60.8253 180.309 60.1813 180.309 59.444C180.309 58.7067 180.444 58.0627 180.715 57.512C180.995 56.9613 181.387 56.5367 181.891 56.238C182.395 55.9393 182.978 55.79 183.641 55.79C184.303 55.79 184.887 55.9393 185.391 56.238C185.895 56.5367 186.282 56.9613 186.553 57.512C186.833 58.0627 186.973 58.7067 186.973 59.444C186.973 60.1813 186.833 60.8253 186.553 61.376C186.282 61.9267 185.895 62.3513 185.391 62.65C184.887 62.9487 184.303 63.098 183.641 63.098ZM183.641 62.16C184.341 62.16 184.877 61.9313 185.251 61.474C185.624 61.0073 185.811 60.3307 185.811 59.444C185.811 58.5853 185.619 57.9227 185.237 57.456C184.854 56.98 184.322 56.742 183.641 56.742C182.95 56.742 182.413 56.98 182.031 57.456C181.648 57.9227 181.457 58.5853 181.457 59.444C181.457 60.3307 181.643 61.0073 182.017 61.474C182.399 61.9313 182.941 62.16 183.641 62.16ZM192.016 55.79C192.25 55.79 192.464 55.818 192.66 55.874L192.632 56.91C192.418 56.8353 192.17 56.798 191.89 56.798C191.209 56.798 190.7 57.0127 190.364 57.442C190.038 57.862 189.874 58.3753 189.874 58.982V63H188.74V57.932C188.74 57.204 188.703 56.546 188.628 55.958H189.706L189.818 57.26C189.996 56.784 190.28 56.42 190.672 56.168C191.064 55.916 191.512 55.79 192.016 55.79ZM201.625 55.79C203.183 55.79 203.963 56.7187 203.963 58.576V63H202.829V58.632C202.829 57.9693 202.712 57.4887 202.479 57.19C202.255 56.8913 201.886 56.742 201.373 56.742C200.775 56.742 200.309 56.9427 199.973 57.344C199.637 57.7453 199.469 58.2913 199.469 58.982V63H198.335V58.632C198.335 57.9787 198.218 57.5027 197.985 57.204C197.751 56.896 197.378 56.742 196.865 56.742C196.267 56.742 195.796 56.9427 195.451 57.344C195.115 57.7453 194.947 58.2913 194.947 58.982V63H193.813V57.932C193.813 57.204 193.775 56.546 193.701 55.958H194.779L194.891 57.19C195.087 56.742 195.376 56.3967 195.759 56.154C196.151 55.9113 196.603 55.79 197.117 55.79C197.677 55.79 198.134 55.902 198.489 56.126C198.843 56.35 199.105 56.6953 199.273 57.162C199.487 56.742 199.8 56.4107 200.211 56.168C200.631 55.916 201.102 55.79 201.625 55.79ZM212.319 55.958V63H211.199V61.726C210.994 62.1647 210.681 62.5053 210.261 62.748C209.851 62.9813 209.37 63.098 208.819 63.098C208.194 63.098 207.643 62.9487 207.167 62.65C206.701 62.3513 206.337 61.9313 206.075 61.39C205.823 60.8393 205.697 60.2 205.697 59.472C205.697 58.744 205.828 58.1047 206.089 57.554C206.351 56.994 206.715 56.56 207.181 56.252C207.657 55.944 208.203 55.79 208.819 55.79C209.37 55.79 209.851 55.9113 210.261 56.154C210.672 56.3967 210.985 56.7373 211.199 57.176V55.958H212.319ZM209.043 62.16C209.734 62.16 210.266 61.9267 210.639 61.46C211.013 60.984 211.199 60.312 211.199 59.444C211.199 58.576 211.013 57.9087 210.639 57.442C210.266 56.9753 209.734 56.742 209.043 56.742C208.353 56.742 207.811 56.9847 207.419 57.47C207.037 57.946 206.845 58.6133 206.845 59.472C206.845 60.3307 207.037 60.9933 207.419 61.46C207.802 61.9267 208.343 62.16 209.043 62.16ZM218.026 55.79C219.715 55.79 220.56 56.7187 220.56 58.576V63H219.426V58.632C219.426 57.9787 219.295 57.5027 219.034 57.204C218.773 56.896 218.362 56.742 217.802 56.742C217.149 56.742 216.626 56.9427 216.234 57.344C215.842 57.7453 215.646 58.2867 215.646 58.968V63H214.512V57.932C214.512 57.204 214.475 56.546 214.4 55.958H215.478L215.59 57.218C215.805 56.7607 216.127 56.4107 216.556 56.168C216.985 55.916 217.475 55.79 218.026 55.79ZM225.655 63.098C224.974 63.098 224.377 62.9487 223.863 62.65C223.359 62.3513 222.967 61.9313 222.687 61.39C222.417 60.8393 222.281 60.2 222.281 59.472C222.281 58.744 222.421 58.1047 222.701 57.554C222.981 56.994 223.378 56.56 223.891 56.252C224.414 55.944 225.021 55.79 225.711 55.79C226.187 55.79 226.645 55.874 227.083 56.042C227.531 56.2007 227.9 56.4247 228.189 56.714L227.811 57.554C227.457 57.274 227.111 57.0687 226.775 56.938C226.449 56.8073 226.113 56.742 225.767 56.742C225.049 56.742 224.484 56.9847 224.073 57.47C223.663 57.946 223.457 58.6133 223.457 59.472C223.457 60.3213 223.658 60.984 224.059 61.46C224.47 61.9267 225.039 62.16 225.767 62.16C226.113 62.16 226.449 62.0947 226.775 61.964C227.111 61.8333 227.457 61.628 227.811 61.348L228.189 62.188C227.891 62.468 227.513 62.692 227.055 62.86C226.607 63.0187 226.141 63.098 225.655 63.098ZM235.527 59.444H230.361C230.37 60.34 230.576 61.0167 230.977 61.474C231.388 61.9313 231.98 62.16 232.755 62.16C233.576 62.16 234.332 61.8847 235.023 61.334L235.401 62.16C235.093 62.4493 234.696 62.678 234.211 62.846C233.735 63.014 233.245 63.098 232.741 63.098C231.64 63.098 230.776 62.776 230.151 62.132C229.526 61.4787 229.213 60.5873 229.213 59.458C229.213 58.7393 229.353 58.1047 229.633 57.554C229.913 56.994 230.305 56.56 230.809 56.252C231.313 55.944 231.887 55.79 232.531 55.79C233.464 55.79 234.197 56.098 234.729 56.714C235.261 57.3207 235.527 58.1607 235.527 59.234V59.444ZM232.545 56.672C231.957 56.672 231.476 56.8493 231.103 57.204C230.739 57.5587 230.506 58.058 230.403 58.702H234.505C234.449 58.0393 234.253 57.5353 233.917 57.19C233.59 56.8447 233.133 56.672 232.545 56.672ZM239.628 63.098C238.443 63.098 237.505 62.7947 236.814 62.188L237.192 61.348C237.575 61.6467 237.962 61.8613 238.354 61.992C238.746 62.1227 239.185 62.188 239.67 62.188C240.202 62.188 240.604 62.0993 240.874 61.922C241.154 61.7353 241.294 61.4693 241.294 61.124C241.294 60.844 241.201 60.62 241.014 60.452C240.828 60.284 240.52 60.1533 240.09 60.06L238.9 59.78C238.312 59.6493 237.855 59.416 237.528 59.08C237.211 58.744 237.052 58.3427 237.052 57.876C237.052 57.26 237.3 56.7607 237.794 56.378C238.289 55.986 238.942 55.79 239.754 55.79C240.249 55.79 240.716 55.8693 241.154 56.028C241.593 56.1867 241.962 56.4153 242.26 56.714L241.882 57.54C241.22 56.9893 240.51 56.714 239.754 56.714C239.25 56.714 238.858 56.812 238.578 57.008C238.308 57.1947 238.172 57.4607 238.172 57.806C238.172 58.0953 238.256 58.324 238.424 58.492C238.602 58.66 238.882 58.7907 239.264 58.884L240.454 59.178C241.108 59.3273 241.593 59.5607 241.91 59.878C242.228 60.186 242.386 60.592 242.386 61.096C242.386 61.7027 242.139 62.188 241.644 62.552C241.15 62.916 240.478 63.098 239.628 63.098ZM68.004 81.098C67.3413 81.098 66.758 80.9487 66.254 80.65C65.75 80.3513 65.358 79.9267 65.078 79.376C64.8073 78.8253 64.672 78.1813 64.672 77.444C64.672 76.7067 64.8073 76.0627 65.078 75.512C65.358 74.9613 65.75 74.5367 66.254 74.238C66.758 73.9393 67.3413 73.79 68.004 73.79C68.6667 73.79 69.25 73.9393 69.754 74.238C70.258 74.5367 70.6453 74.9613 70.916 75.512C71.196 76.0627 71.336 76.7067 71.336 77.444C71.336 78.1813 71.196 78.8253 70.916 79.376C70.6453 79.9267 70.258 80.3513 69.754 80.65C69.25 80.9487 68.6667 81.098 68.004 81.098ZM68.004 80.16C68.704 80.16 69.2407 79.9313 69.614 79.474C69.9873 79.0073 70.174 78.3307 70.174 77.444C70.174 76.5853 69.9827 75.9227 69.6 75.456C69.2173 74.98 68.6853 74.742 68.004 74.742C67.3133 74.742 66.7767 74.98 66.394 75.456C66.0113 75.9227 65.82 76.5853 65.82 77.444C65.82 78.3307 66.0067 79.0073 66.38 79.474C66.7627 79.9313 67.304 80.16 68.004 80.16ZM75.792 71.62C75.4187 71.62 75.1247 71.7273 74.91 71.942C74.7047 72.1473 74.602 72.5067 74.602 73.02V73.958H76.324V74.854H74.602V81H73.468V74.854H72.096V73.958H73.468V72.88C73.468 72.1427 73.65 71.5873 74.014 71.214C74.3874 70.8313 74.9054 70.64 75.568 70.64C75.8947 70.64 76.212 70.682 76.52 70.766V71.732C76.2587 71.6573 76.016 71.62 75.792 71.62ZM89.2692 73.79C90.8279 73.79 91.6072 74.7187 91.6072 76.576V81H90.4732V76.632C90.4732 75.9693 90.3566 75.4887 90.1232 75.19C89.8992 74.8913 89.5306 74.742 89.0172 74.742C88.4199 74.742 87.9532 74.9427 87.6172 75.344C87.2812 75.7453 87.1132 76.2913 87.1132 76.982V81H85.9792V76.632C85.9792 75.9787 85.8626 75.5027 85.6292 75.204C85.3959 74.896 85.0226 74.742 84.5092 74.742C83.9119 74.742 83.4406 74.9427 83.0952 75.344C82.7592 75.7453 82.5912 76.2913 82.5912 76.982V81H81.4572V75.932C81.4572 75.204 81.4199 74.546 81.3452 73.958H82.4232L82.5352 75.19C82.7312 74.742 83.0206 74.3967 83.4032 74.154C83.7952 73.9113 84.2479 73.79 84.7612 73.79C85.3212 73.79 85.7786 73.902 86.1332 74.126C86.4879 74.35 86.7492 74.6953 86.9172 75.162C87.1319 74.742 87.4446 74.4107 87.8552 74.168C88.2752 73.916 88.7466 73.79 89.2692 73.79ZM99.9499 73.958L96.6599 81.644C96.3146 82.4467 95.8806 83.0347 95.3579 83.408C94.8353 83.7813 94.1913 84.038 93.4259 84.178L93.1879 83.296C93.8506 83.1467 94.3499 82.946 94.6859 82.694C95.0313 82.4513 95.3159 82.0733 95.5399 81.56L95.8199 80.93L92.8379 73.958H94.0279L96.4079 79.768L98.8159 73.958H99.9499ZM109.246 81.112C108.303 81.112 107.482 80.9067 106.782 80.496C106.091 80.0853 105.559 79.4973 105.186 78.732C104.812 77.9573 104.626 77.0473 104.626 76.002C104.626 74.9567 104.812 74.056 105.186 73.3C105.559 72.5347 106.091 71.9467 106.782 71.536C107.482 71.1253 108.303 70.92 109.246 70.92C109.936 70.92 110.566 71.0273 111.136 71.242C111.714 71.4473 112.214 71.76 112.634 72.18L112.2 73.062C111.724 72.6513 111.252 72.3573 110.786 72.18C110.328 72.0027 109.82 71.914 109.26 71.914C108.168 71.914 107.318 72.2687 106.712 72.978C106.114 73.6873 105.816 74.6953 105.816 76.002C105.816 77.318 106.114 78.3353 106.712 79.054C107.309 79.7633 108.158 80.118 109.26 80.118C109.82 80.118 110.328 80.0293 110.786 79.852C111.252 79.6747 111.724 79.3807 112.2 78.97L112.634 79.852C112.214 80.272 111.714 80.5893 111.136 80.804C110.566 81.0093 109.936 81.112 109.246 81.112ZM123.982 71.032V81H122.918V73.594L119.684 81H118.872L115.61 73.65L115.624 81H114.56V71.032H115.512L119.292 79.628L123.03 71.032H123.982ZM129.605 81.112C128.046 81.112 126.805 80.692 125.881 79.852L126.315 78.97C126.81 79.39 127.314 79.6887 127.827 79.866C128.34 80.0433 128.938 80.132 129.619 80.132C130.422 80.132 131.038 79.978 131.467 79.67C131.906 79.3527 132.125 78.9093 132.125 78.34C132.125 78.004 132.018 77.7333 131.803 77.528C131.598 77.3133 131.322 77.1453 130.977 77.024C130.641 76.9027 130.188 76.7767 129.619 76.646C128.854 76.478 128.224 76.296 127.729 76.1C127.234 75.904 126.833 75.624 126.525 75.26C126.217 74.8867 126.063 74.4013 126.063 73.804C126.063 73.2347 126.212 72.7353 126.511 72.306C126.81 71.8673 127.23 71.5267 127.771 71.284C128.322 71.0413 128.961 70.92 129.689 70.92C130.38 70.92 131.024 71.0273 131.621 71.242C132.218 71.4567 132.722 71.7693 133.133 72.18L132.685 73.062C132.218 72.6607 131.742 72.3667 131.257 72.18C130.781 71.9933 130.258 71.9 129.689 71.9C128.914 71.9 128.308 72.068 127.869 72.404C127.43 72.7307 127.211 73.1833 127.211 73.762C127.211 74.266 127.402 74.644 127.785 74.896C128.168 75.148 128.756 75.3673 129.549 75.554C130.408 75.7593 131.08 75.9507 131.565 76.128C132.06 76.296 132.47 76.5573 132.797 76.912C133.124 77.2573 133.287 77.7193 133.287 78.298C133.287 78.858 133.138 79.3527 132.839 79.782C132.54 80.202 132.111 80.5287 131.551 80.762C131 80.9953 130.352 81.112 129.605 81.112ZM144.876 73.958V81H143.756V79.726C143.551 80.1647 143.238 80.5053 142.818 80.748C142.407 80.9813 141.927 81.098 141.376 81.098C140.751 81.098 140.2 80.9487 139.724 80.65C139.257 80.3513 138.893 79.9313 138.632 79.39C138.38 78.8393 138.254 78.2 138.254 77.472C138.254 76.744 138.385 76.1047 138.646 75.554C138.907 74.994 139.271 74.56 139.738 74.252C140.214 73.944 140.76 73.79 141.376 73.79C141.927 73.79 142.407 73.9113 142.818 74.154C143.229 74.3967 143.541 74.7373 143.756 75.176V73.958H144.876ZM141.6 80.16C142.291 80.16 142.823 79.9267 143.196 79.46C143.569 78.984 143.756 78.312 143.756 77.444C143.756 76.576 143.569 75.9087 143.196 75.442C142.823 74.9753 142.291 74.742 141.6 74.742C140.909 74.742 140.368 74.9847 139.976 75.47C139.593 75.946 139.402 76.6133 139.402 77.472C139.402 78.3307 139.593 78.9933 139.976 79.46C140.359 79.9267 140.9 80.16 141.6 80.16ZM150.345 73.79C150.578 73.79 150.793 73.818 150.989 73.874L150.961 74.91C150.746 74.8353 150.499 74.798 150.219 74.798C149.537 74.798 149.029 75.0127 148.693 75.442C148.366 75.862 148.203 76.3753 148.203 76.982V81H147.069V75.932C147.069 75.204 147.031 74.546 146.957 73.958H148.035L148.147 75.26C148.324 74.784 148.609 74.42 149.001 74.168C149.393 73.916 149.841 73.79 150.345 73.79ZM157.898 77.444H152.732C152.741 78.34 152.947 79.0167 153.348 79.474C153.759 79.9313 154.351 80.16 155.126 80.16C155.947 80.16 156.703 79.8847 157.394 79.334L157.772 80.16C157.464 80.4493 157.067 80.678 156.582 80.846C156.106 81.014 155.616 81.098 155.112 81.098C154.011 81.098 153.147 80.776 152.522 80.132C151.897 79.4787 151.584 78.5873 151.584 77.458C151.584 76.7393 151.724 76.1047 152.004 75.554C152.284 74.994 152.676 74.56 153.18 74.252C153.684 73.944 154.258 73.79 154.902 73.79C155.835 73.79 156.568 74.098 157.1 74.714C157.632 75.3207 157.898 76.1607 157.898 77.234V77.444ZM154.916 74.672C154.328 74.672 153.847 74.8493 153.474 75.204C153.11 75.5587 152.877 76.058 152.774 76.702H156.876C156.82 76.0393 156.624 75.5353 156.288 75.19C155.961 74.8447 155.504 74.672 154.916 74.672ZM163.27 70.696H164.404V81H163.27V70.696ZM169.518 81.098C168.855 81.098 168.272 80.9487 167.768 80.65C167.264 80.3513 166.872 79.9267 166.592 79.376C166.321 78.8253 166.186 78.1813 166.186 77.444C166.186 76.7067 166.321 76.0627 166.592 75.512C166.872 74.9613 167.264 74.5367 167.768 74.238C168.272 73.9393 168.855 73.79 169.518 73.79C170.18 73.79 170.764 73.9393 171.268 74.238C171.772 74.5367 172.159 74.9613 172.43 75.512C172.71 76.0627 172.85 76.7067 172.85 77.444C172.85 78.1813 172.71 78.8253 172.43 79.376C172.159 79.9267 171.772 80.3513 171.268 80.65C170.764 80.9487 170.18 81.098 169.518 81.098ZM169.518 80.16C170.218 80.16 170.754 79.9313 171.128 79.474C171.501 79.0073 171.688 78.3307 171.688 77.444C171.688 76.5853 171.496 75.9227 171.114 75.456C170.731 74.98 170.199 74.742 169.518 74.742C168.827 74.742 168.29 74.98 167.908 75.456C167.525 75.9227 167.334 76.5853 167.334 77.444C167.334 78.3307 167.52 79.0073 167.894 79.474C168.276 79.9313 168.818 80.16 169.518 80.16ZM185.231 73.958L182.627 81H181.535L179.519 75.498L177.517 81H176.425L173.821 73.958H175.011L176.999 79.642L179.057 73.958H180.051L182.081 79.656L184.111 73.958H185.231Z" fill="#5B5151"/>
<circle cx="41" cy="64" r="15" fill="white"/>
<mask id="mask0" mask-type="alpha" maskUnits="userSpaceOnUse" x="26" y="49" width="30" height="30">
<circle cx="41" cy="64" r="15" fill="white"/>
</mask>
<g mask="url(#mask0)">
<path d="M46.3763 61.5393C46.3763 63.0615 45.8304 64.3792 44.7535 65.4562C43.6766 66.5331 42.3587 67.079 40.8365 67.079H40.8338C39.3135 67.0785 37.9966 66.5326 36.9197 65.4562C35.8426 64.3792 35.2969 63.0615 35.2969 61.5393C35.2969 60.0175 35.8426 58.6997 36.9197 57.6228C37.996 56.5463 39.313 56.0005 40.8338 56H40.8365C42.3582 56 43.676 56.5459 44.7535 57.6228C45.8304 58.6997 46.3763 60.0175 46.3763 61.5393Z" fill="#FFD589"/>
<path d="M50.5759 75.0444C50.5759 76.2454 50.1939 77.2177 49.4415 77.9338C48.6978 78.6415 47.7142 79 46.5184 79H35.4437C34.2479 79 33.2643 78.6415 32.5212 77.9338C31.7682 77.2172 31.3867 76.245 31.3867 75.0444C31.3867 74.5826 31.402 74.1256 31.4325 73.6862C31.4636 73.237 31.5264 72.7482 31.619 72.2324C31.7124 71.7125 31.8324 71.221 31.9761 70.7718C32.1253 70.3068 32.3271 69.8481 32.5768 69.4087C32.8362 68.9526 33.1408 68.5553 33.4823 68.2282C33.8402 67.8859 34.2779 67.6109 34.7838 67.4105C35.2879 67.2112 35.8468 67.1101 36.4448 67.1101C36.6794 67.1101 36.9067 67.2061 37.3447 67.4914C37.6188 67.6702 37.9346 67.8738 38.2833 68.0966C38.5844 68.2886 38.9922 68.4686 39.4963 68.6313C39.9394 68.7747 40.3892 68.8547 40.8335 68.8686C40.8824 68.8703 40.9314 68.8712 40.9803 68.8712C41.4738 68.8712 41.9728 68.7903 42.4649 68.6313C42.969 68.4686 43.3774 68.2886 43.6783 68.0966C44.0306 67.8715 44.3465 67.6681 44.6166 67.4919C45.0549 67.2061 45.2818 67.1101 45.5169 67.1101C46.1144 67.1101 46.6733 67.2112 47.1778 67.4105C47.6837 67.6109 48.1213 67.8864 48.479 68.2282C48.821 68.5553 49.1256 68.9526 49.3848 69.4087C49.6347 69.8484 49.8368 70.3068 49.9854 70.7712C50.1293 71.221 50.2497 71.7125 50.3431 72.2328C50.4352 72.749 50.4982 73.2379 50.5291 73.6859C50.5601 74.1239 50.5754 74.5808 50.5759 75.0444Z" fill="#D55A5F"/>
</g>
<path d="M50 133C50 121.954 58.9543 113 70 113H323C334.046 113 343 121.954 343 133V191H70C58.9543 191 50 182.046 50 171V133Z" fill="#FCFCFC"/>
<path d="M113.744 129.032L109.39 139H108.382L104.028 129.032H105.246L108.9 137.544L112.554 129.032H113.744ZM119.955 135.444H114.789C114.798 136.34 115.003 137.017 115.405 137.474C115.815 137.931 116.408 138.16 117.183 138.16C118.004 138.16 118.76 137.885 119.451 137.334L119.829 138.16C119.521 138.449 119.124 138.678 118.639 138.846C118.163 139.014 117.673 139.098 117.169 139.098C116.067 139.098 115.204 138.776 114.579 138.132C113.953 137.479 113.641 136.587 113.641 135.458C113.641 134.739 113.781 134.105 114.061 133.554C114.341 132.994 114.733 132.56 115.237 132.252C115.741 131.944 116.315 131.79 116.959 131.79C117.892 131.79 118.625 132.098 119.157 132.714C119.689 133.321 119.955 134.161 119.955 135.234V135.444ZM116.973 132.672C116.385 132.672 115.904 132.849 115.531 133.204C115.167 133.559 114.933 134.058 114.831 134.702H118.933C118.877 134.039 118.681 133.535 118.345 133.19C118.018 132.845 117.561 132.672 116.973 132.672ZM124.952 131.79C125.185 131.79 125.4 131.818 125.596 131.874L125.568 132.91C125.353 132.835 125.106 132.798 124.826 132.798C124.145 132.798 123.636 133.013 123.3 133.442C122.973 133.862 122.81 134.375 122.81 134.982V139H121.676V133.932C121.676 133.204 121.639 132.546 121.564 131.958H122.642L122.754 133.26C122.931 132.784 123.216 132.42 123.608 132.168C124 131.916 124.448 131.79 124.952 131.79ZM130.262 131.79C130.878 131.79 131.424 131.939 131.9 132.238C132.376 132.537 132.745 132.961 133.006 133.512C133.268 134.053 133.398 134.688 133.398 135.416C133.398 136.144 133.268 136.788 133.006 137.348C132.745 137.899 132.376 138.328 131.9 138.636C131.424 138.944 130.878 139.098 130.262 139.098C129.712 139.098 129.231 138.977 128.82 138.734C128.41 138.491 128.097 138.146 127.882 137.698V139H126.748V128.696H127.882V133.204C128.088 132.747 128.396 132.397 128.806 132.154C129.226 131.911 129.712 131.79 130.262 131.79ZM130.052 138.16C130.734 138.16 131.266 137.922 131.648 137.446C132.031 136.961 132.222 136.284 132.222 135.416C132.222 134.567 132.031 133.909 131.648 133.442C131.275 132.975 130.743 132.742 130.052 132.742C129.352 132.742 128.816 132.975 128.442 133.442C128.069 133.909 127.882 134.576 127.882 135.444C127.882 136.312 128.069 136.984 128.442 137.46C128.816 137.927 129.352 138.16 130.052 138.16ZM138.055 139.098C137.392 139.098 136.809 138.949 136.305 138.65C135.801 138.351 135.409 137.927 135.129 137.376C134.858 136.825 134.723 136.181 134.723 135.444C134.723 134.707 134.858 134.063 135.129 133.512C135.409 132.961 135.801 132.537 136.305 132.238C136.809 131.939 137.392 131.79 138.055 131.79C138.717 131.79 139.301 131.939 139.805 132.238C140.309 132.537 140.696 132.961 140.967 133.512C141.247 134.063 141.387 134.707 141.387 135.444C141.387 136.181 141.247 136.825 140.967 137.376C140.696 137.927 140.309 138.351 139.805 138.65C139.301 138.949 138.717 139.098 138.055 139.098ZM138.055 138.16C138.755 138.16 139.291 137.931 139.665 137.474C140.038 137.007 140.225 136.331 140.225 135.444C140.225 134.585 140.033 133.923 139.651 133.456C139.268 132.98 138.736 132.742 138.055 132.742C137.364 132.742 136.827 132.98 136.445 133.456C136.062 133.923 135.871 134.585 135.871 135.444C135.871 136.331 136.057 137.007 136.431 137.474C136.813 137.931 137.355 138.16 138.055 138.16ZM143.155 128.696H144.289V139H143.155V128.696ZM146.49 131.958H147.624V139H146.49V131.958ZM147.764 128.976V130.264H146.378V128.976H147.764ZM156.028 131.958V139H154.908V137.726C154.703 138.165 154.39 138.505 153.97 138.748C153.56 138.981 153.079 139.098 152.528 139.098C151.903 139.098 151.352 138.949 150.876 138.65C150.41 138.351 150.046 137.931 149.784 137.39C149.532 136.839 149.406 136.2 149.406 135.472C149.406 134.744 149.537 134.105 149.798 133.554C150.06 132.994 150.424 132.56 150.89 132.252C151.366 131.944 151.912 131.79 152.528 131.79C153.079 131.79 153.56 131.911 153.97 132.154C154.381 132.397 154.694 132.737 154.908 133.176V131.958H156.028ZM152.752 138.16C153.443 138.16 153.975 137.927 154.348 137.46C154.722 136.984 154.908 136.312 154.908 135.444C154.908 134.576 154.722 133.909 154.348 133.442C153.975 132.975 153.443 132.742 152.752 132.742C152.062 132.742 151.52 132.985 151.128 133.47C150.746 133.946 150.554 134.613 150.554 135.472C150.554 136.331 150.746 136.993 151.128 137.46C151.511 137.927 152.052 138.16 152.752 138.16ZM161.871 131.958H163.005V139H161.871V131.958ZM163.145 128.976V130.264H161.759V128.976H163.145ZM167.587 139.098C166.402 139.098 165.464 138.795 164.773 138.188L165.151 137.348C165.534 137.647 165.921 137.861 166.313 137.992C166.705 138.123 167.144 138.188 167.629 138.188C168.161 138.188 168.563 138.099 168.833 137.922C169.113 137.735 169.253 137.469 169.253 137.124C169.253 136.844 169.16 136.62 168.973 136.452C168.787 136.284 168.479 136.153 168.049 136.06L166.859 135.78C166.271 135.649 165.814 135.416 165.487 135.08C165.17 134.744 165.011 134.343 165.011 133.876C165.011 133.26 165.259 132.761 165.753 132.378C166.248 131.986 166.901 131.79 167.713 131.79C168.208 131.79 168.675 131.869 169.113 132.028C169.552 132.187 169.921 132.415 170.219 132.714L169.841 133.54C169.179 132.989 168.469 132.714 167.713 132.714C167.209 132.714 166.817 132.812 166.537 133.008C166.267 133.195 166.131 133.461 166.131 133.806C166.131 134.095 166.215 134.324 166.383 134.492C166.561 134.66 166.841 134.791 167.223 134.884L168.413 135.178C169.067 135.327 169.552 135.561 169.869 135.878C170.187 136.186 170.345 136.592 170.345 137.096C170.345 137.703 170.098 138.188 169.603 138.552C169.109 138.916 168.437 139.098 167.587 139.098ZM178.183 139.098C176.998 139.098 176.06 138.795 175.369 138.188L175.747 137.348C176.13 137.647 176.517 137.861 176.909 137.992C177.301 138.123 177.74 138.188 178.225 138.188C178.757 138.188 179.158 138.099 179.429 137.922C179.709 137.735 179.849 137.469 179.849 137.124C179.849 136.844 179.756 136.62 179.569 136.452C179.382 136.284 179.074 136.153 178.645 136.06L177.455 135.78C176.867 135.649 176.41 135.416 176.083 135.08C175.766 134.744 175.607 134.343 175.607 133.876C175.607 133.26 175.854 132.761 176.349 132.378C176.844 131.986 177.497 131.79 178.309 131.79C178.804 131.79 179.27 131.869 179.709 132.028C180.148 132.187 180.516 132.415 180.815 132.714L180.437 133.54C179.774 132.989 179.065 132.714 178.309 132.714C177.805 132.714 177.413 132.812 177.133 133.008C176.862 133.195 176.727 133.461 176.727 133.806C176.727 134.095 176.811 134.324 176.979 134.492C177.156 134.66 177.436 134.791 177.819 134.884L179.009 135.178C179.662 135.327 180.148 135.561 180.465 135.878C180.782 136.186 180.941 136.592 180.941 137.096C180.941 137.703 180.694 138.188 180.199 138.552C179.704 138.916 179.032 139.098 178.183 139.098ZM188.642 131.958V139H187.536V137.782C187.312 138.211 187 138.538 186.598 138.762C186.197 138.986 185.744 139.098 185.24 139.098C184.41 139.098 183.78 138.865 183.35 138.398C182.921 137.931 182.706 137.241 182.706 136.326V131.958H183.84V136.298C183.84 136.933 183.971 137.399 184.232 137.698C184.494 137.997 184.89 138.146 185.422 138.146C186.048 138.146 186.552 137.945 186.934 137.544C187.317 137.133 187.508 136.597 187.508 135.934V131.958H188.642ZM194.342 131.79C194.958 131.79 195.504 131.944 195.98 132.252C196.456 132.56 196.825 132.994 197.086 133.554C197.348 134.105 197.478 134.744 197.478 135.472C197.478 136.2 197.348 136.839 197.086 137.39C196.825 137.931 196.456 138.351 195.98 138.65C195.514 138.949 194.968 139.098 194.342 139.098C193.792 139.098 193.311 138.977 192.9 138.734C192.49 138.491 192.177 138.146 191.962 137.698V142.024H190.828V133.932C190.828 133.204 190.791 132.546 190.716 131.958H191.794L191.906 133.316C192.102 132.831 192.41 132.457 192.83 132.196C193.26 131.925 193.764 131.79 194.342 131.79ZM194.132 138.16C194.823 138.16 195.355 137.927 195.728 137.46C196.111 136.993 196.302 136.331 196.302 135.472C196.302 134.613 196.111 133.946 195.728 133.47C195.346 132.985 194.814 132.742 194.132 132.742C193.432 132.742 192.896 132.975 192.522 133.442C192.149 133.909 191.962 134.576 191.962 135.444C191.962 136.312 192.149 136.984 192.522 137.46C192.896 137.927 193.432 138.16 194.132 138.16ZM205.117 135.444H199.951C199.96 136.34 200.166 137.017 200.567 137.474C200.978 137.931 201.57 138.16 202.345 138.16C203.166 138.16 203.922 137.885 204.613 137.334L204.991 138.16C204.683 138.449 204.286 138.678 203.801 138.846C203.325 139.014 202.835 139.098 202.331 139.098C201.23 139.098 200.366 138.776 199.741 138.132C199.116 137.479 198.803 136.587 198.803 135.458C198.803 134.739 198.943 134.105 199.223 133.554C199.503 132.994 199.895 132.56 200.399 132.252C200.903 131.944 201.477 131.79 202.121 131.79C203.054 131.79 203.787 132.098 204.319 132.714C204.851 133.321 205.117 134.161 205.117 135.234V135.444ZM202.135 132.672C201.547 132.672 201.066 132.849 200.693 133.204C200.329 133.559 200.096 134.058 199.993 134.702H204.095C204.039 134.039 203.843 133.535 203.507 133.19C203.18 132.845 202.723 132.672 202.135 132.672ZM210.114 131.79C210.347 131.79 210.562 131.818 210.758 131.874L210.73 132.91C210.515 132.835 210.268 132.798 209.988 132.798C209.307 132.798 208.798 133.013 208.462 133.442C208.135 133.862 207.972 134.375 207.972 134.982V139H206.838V133.932C206.838 133.204 206.801 132.546 206.726 131.958H207.804L207.916 133.26C208.093 132.784 208.378 132.42 208.77 132.168C209.162 131.916 209.61 131.79 210.114 131.79ZM217.941 139.098C216.755 139.098 215.817 138.795 215.127 138.188L215.505 137.348C215.887 137.647 216.275 137.861 216.667 137.992C217.059 138.123 217.497 138.188 217.983 138.188C218.515 138.188 218.916 138.099 219.187 137.922C219.467 137.735 219.607 137.469 219.607 137.124C219.607 136.844 219.513 136.62 219.327 136.452C219.14 136.284 218.832 136.153 218.403 136.06L217.213 135.78C216.625 135.649 216.167 135.416 215.841 135.08C215.523 134.744 215.365 134.343 215.365 133.876C215.365 133.26 215.612 132.761 216.107 132.378C216.601 131.986 217.255 131.79 218.067 131.79C218.561 131.79 219.028 131.869 219.467 132.028C219.905 132.187 220.274 132.415 220.573 132.714L220.195 133.54C219.532 132.989 218.823 132.714 218.067 132.714C217.563 132.714 217.171 132.812 216.891 133.008C216.62 133.195 216.485 133.461 216.485 133.806C216.485 134.095 216.569 134.324 216.737 134.492C216.914 134.66 217.194 134.791 217.577 134.884L218.767 135.178C219.42 135.327 219.905 135.561 220.223 135.878C220.54 136.186 220.699 136.592 220.699 137.096C220.699 137.703 220.451 138.188 219.957 138.552C219.462 138.916 218.79 139.098 217.941 139.098ZM222.506 131.958H223.64V139H222.506V131.958ZM223.78 128.976V130.264H222.394V128.976H223.78ZM233.654 131.79C235.213 131.79 235.992 132.719 235.992 134.576V139H234.858V134.632C234.858 133.969 234.741 133.489 234.508 133.19C234.284 132.891 233.915 132.742 233.402 132.742C232.805 132.742 232.338 132.943 232.002 133.344C231.666 133.745 231.498 134.291 231.498 134.982V139H230.364V134.632C230.364 133.979 230.247 133.503 230.014 133.204C229.781 132.896 229.407 132.742 228.894 132.742C228.297 132.742 227.825 132.943 227.48 133.344C227.144 133.745 226.976 134.291 226.976 134.982V139H225.842V133.932C225.842 133.204 225.805 132.546 225.73 131.958H226.808L226.92 133.19C227.116 132.742 227.405 132.397 227.788 132.154C228.18 131.911 228.633 131.79 229.146 131.79C229.706 131.79 230.163 131.902 230.518 132.126C230.873 132.35 231.134 132.695 231.302 133.162C231.517 132.742 231.829 132.411 232.24 132.168C232.66 131.916 233.131 131.79 233.654 131.79ZM241.661 131.79C242.277 131.79 242.823 131.944 243.299 132.252C243.775 132.56 244.143 132.994 244.405 133.554C244.666 134.105 244.797 134.744 244.797 135.472C244.797 136.2 244.666 136.839 244.405 137.39C244.143 137.931 243.775 138.351 243.299 138.65C242.832 138.949 242.286 139.098 241.661 139.098C241.11 139.098 240.629 138.977 240.219 138.734C239.808 138.491 239.495 138.146 239.281 137.698V142.024H238.147V133.932C238.147 133.204 238.109 132.546 238.035 131.958H239.113L239.225 133.316C239.421 132.831 239.729 132.457 240.149 132.196C240.578 131.925 241.082 131.79 241.661 131.79ZM241.451 138.16C242.141 138.16 242.673 137.927 243.047 137.46C243.429 136.993 243.621 136.331 243.621 135.472C243.621 134.613 243.429 133.946 243.047 133.47C242.664 132.985 242.132 132.742 241.451 132.742C240.751 132.742 240.214 132.975 239.841 133.442C239.467 133.909 239.281 134.576 239.281 135.444C239.281 136.312 239.467 136.984 239.841 137.46C240.214 137.927 240.751 138.16 241.451 138.16ZM246.541 128.696H247.675V139H246.541V128.696ZM255.771 135.444H250.605C250.614 136.34 250.82 137.017 251.221 137.474C251.632 137.931 252.224 138.16 252.999 138.16C253.82 138.16 254.576 137.885 255.267 137.334L255.645 138.16C255.337 138.449 254.94 138.678 254.455 138.846C253.979 139.014 253.489 139.098 252.985 139.098C251.884 139.098 251.02 138.776 250.395 138.132C249.77 137.479 249.457 136.587 249.457 135.458C249.457 134.739 249.597 134.105 249.877 133.554C250.157 132.994 250.549 132.56 251.053 132.252C251.557 131.944 252.131 131.79 252.775 131.79C253.708 131.79 254.441 132.098 254.973 132.714C255.505 133.321 255.771 134.161 255.771 135.234V135.444ZM252.789 132.672C252.201 132.672 251.72 132.849 251.347 133.204C250.983 133.559 250.75 134.058 250.647 134.702H254.749C254.693 134.039 254.497 133.535 254.161 133.19C253.834 132.845 253.377 132.672 252.789 132.672ZM262.655 132.854V136.704C262.655 137.227 262.762 137.595 262.977 137.81C263.191 138.015 263.495 138.118 263.887 138.118C264.148 138.118 264.4 138.076 264.643 137.992V138.958C264.353 139.051 264.027 139.098 263.663 139.098C262.991 139.098 262.463 138.911 262.081 138.538C261.707 138.155 261.521 137.595 261.521 136.858V132.854H260.149V131.958H261.521V130.152L262.655 129.746V131.958H264.671V132.854H262.655ZM268.949 139.098C268.287 139.098 267.703 138.949 267.199 138.65C266.695 138.351 266.303 137.927 266.023 137.376C265.753 136.825 265.617 136.181 265.617 135.444C265.617 134.707 265.753 134.063 266.023 133.512C266.303 132.961 266.695 132.537 267.199 132.238C267.703 131.939 268.287 131.79 268.949 131.79C269.612 131.79 270.195 131.939 270.699 132.238C271.203 132.537 271.591 132.961 271.861 133.512C272.141 134.063 272.281 134.707 272.281 135.444C272.281 136.181 272.141 136.825 271.861 137.376C271.591 137.927 271.203 138.351 270.699 138.65C270.195 138.949 269.612 139.098 268.949 139.098ZM268.949 138.16C269.649 138.16 270.186 137.931 270.559 137.474C270.933 137.007 271.119 136.331 271.119 135.444C271.119 134.585 270.928 133.923 270.545 133.456C270.163 132.98 269.631 132.742 268.949 132.742C268.259 132.742 267.722 132.98 267.339 133.456C266.957 133.923 266.765 134.585 266.765 135.444C266.765 136.331 266.952 137.007 267.325 137.474C267.708 137.931 268.249 138.16 268.949 138.16ZM280.079 139.098C278.894 139.098 277.956 138.795 277.265 138.188L277.643 137.348C278.026 137.647 278.413 137.861 278.805 137.992C279.197 138.123 279.636 138.188 280.121 138.188C280.653 138.188 281.055 138.099 281.325 137.922C281.605 137.735 281.745 137.469 281.745 137.124C281.745 136.844 281.652 136.62 281.465 136.452C281.279 136.284 280.971 136.153 280.541 136.06L279.351 135.78C278.763 135.649 278.306 135.416 277.979 135.08C277.662 134.744 277.503 134.343 277.503 133.876C277.503 133.26 277.751 132.761 278.245 132.378C278.74 131.986 279.393 131.79 280.205 131.79C280.7 131.79 281.167 131.869 281.605 132.028C282.044 132.187 282.413 132.415 282.711 132.714L282.333 133.54C281.671 132.989 280.961 132.714 280.205 132.714C279.701 132.714 279.309 132.812 279.029 133.008C278.759 133.195 278.623 133.461 278.623 133.806C278.623 134.095 278.707 134.324 278.875 134.492C279.053 134.66 279.333 134.791 279.715 134.884L280.905 135.178C281.559 135.327 282.044 135.561 282.361 135.878C282.679 136.186 282.837 136.592 282.837 137.096C282.837 137.703 282.59 138.188 282.095 138.552C281.601 138.916 280.929 139.098 280.079 139.098ZM290.539 135.444H285.373C285.382 136.34 285.587 137.017 285.989 137.474C286.399 137.931 286.992 138.16 287.767 138.16C288.588 138.16 289.344 137.885 290.035 137.334L290.413 138.16C290.105 138.449 289.708 138.678 289.223 138.846C288.747 139.014 288.257 139.098 287.753 139.098C286.651 139.098 285.788 138.776 285.163 138.132C284.537 137.479 284.225 136.587 284.225 135.458C284.225 134.739 284.365 134.105 284.645 133.554C284.925 132.994 285.317 132.56 285.821 132.252C286.325 131.944 286.899 131.79 287.543 131.79C288.476 131.79 289.209 132.098 289.741 132.714C290.273 133.321 290.539 134.161 290.539 135.234V135.444ZM287.557 132.672C286.969 132.672 286.488 132.849 286.115 133.204C285.751 133.559 285.517 134.058 285.415 134.702H289.517C289.461 134.039 289.265 133.535 288.929 133.19C288.602 132.845 288.145 132.672 287.557 132.672ZM293.731 132.854V136.704C293.731 137.227 293.838 137.595 294.053 137.81C294.268 138.015 294.571 138.118 294.963 138.118C295.224 138.118 295.476 138.076 295.719 137.992V138.958C295.43 139.051 295.103 139.098 294.739 139.098C294.067 139.098 293.54 138.911 293.157 138.538C292.784 138.155 292.597 137.595 292.597 136.858V132.854H291.225V131.958H292.597V130.152L293.731 129.746V131.958H295.747V132.854H293.731ZM303.007 131.958V139H301.901V137.782C301.677 138.211 301.365 138.538 300.963 138.762C300.562 138.986 300.109 139.098 299.605 139.098C298.775 139.098 298.145 138.865 297.715 138.398C297.286 137.931 297.071 137.241 297.071 136.326V131.958H298.205V136.298C298.205 136.933 298.336 137.399 298.597 137.698C298.859 137.997 299.255 138.146 299.787 138.146C300.413 138.146 300.917 137.945 301.299 137.544C301.682 137.133 301.873 136.597 301.873 135.934V131.958H303.007ZM308.708 131.79C309.324 131.79 309.87 131.944 310.346 132.252C310.822 132.56 311.19 132.994 311.452 133.554C311.713 134.105 311.844 134.744 311.844 135.472C311.844 136.2 311.713 136.839 311.452 137.39C311.19 137.931 310.822 138.351 310.346 138.65C309.879 138.949 309.333 139.098 308.708 139.098C308.157 139.098 307.676 138.977 307.266 138.734C306.855 138.491 306.542 138.146 306.328 137.698V142.024H305.194V133.932C305.194 133.204 305.156 132.546 305.082 131.958H306.16L306.272 133.316C306.468 132.831 306.776 132.457 307.196 132.196C307.625 131.925 308.129 131.79 308.708 131.79ZM308.498 138.16C309.188 138.16 309.72 137.927 310.094 137.46C310.476 136.993 310.668 136.331 310.668 135.472C310.668 134.613 310.476 133.946 310.094 133.47C309.711 132.985 309.179 132.742 308.498 132.742C307.798 132.742 307.261 132.975 306.888 133.442C306.514 133.909 306.328 134.576 306.328 135.444C306.328 136.312 306.514 136.984 306.888 137.46C307.261 137.927 307.798 138.16 308.498 138.16ZM108.004 157.098C107.341 157.098 106.758 156.949 106.254 156.65C105.75 156.351 105.358 155.927 105.078 155.376C104.807 154.825 104.672 154.181 104.672 153.444C104.672 152.707 104.807 152.063 105.078 151.512C105.358 150.961 105.75 150.537 106.254 150.238C106.758 149.939 107.341 149.79 108.004 149.79C108.667 149.79 109.25 149.939 109.754 150.238C110.258 150.537 110.645 150.961 110.916 151.512C111.196 152.063 111.336 152.707 111.336 153.444C111.336 154.181 111.196 154.825 110.916 155.376C110.645 155.927 110.258 156.351 109.754 156.65C109.25 156.949 108.667 157.098 108.004 157.098ZM108.004 156.16C108.704 156.16 109.241 155.931 109.614 155.474C109.987 155.007 110.174 154.331 110.174 153.444C110.174 152.585 109.983 151.923 109.6 151.456C109.217 150.98 108.685 150.742 108.004 150.742C107.313 150.742 106.777 150.98 106.394 151.456C106.011 151.923 105.82 152.585 105.82 153.444C105.82 154.331 106.007 155.007 106.38 155.474C106.763 155.931 107.304 156.16 108.004 156.16ZM116.618 149.79C118.307 149.79 119.152 150.719 119.152 152.576V157H118.018V152.632C118.018 151.979 117.887 151.503 117.626 151.204C117.364 150.896 116.954 150.742 116.394 150.742C115.74 150.742 115.218 150.943 114.826 151.344C114.434 151.745 114.238 152.287 114.238 152.968V157H113.104V151.932C113.104 151.204 113.066 150.546 112.992 149.958H114.07L114.182 151.218C114.396 150.761 114.718 150.411 115.148 150.168C115.577 149.916 116.067 149.79 116.618 149.79ZM131.132 149.958L127.842 157.644C127.496 158.447 127.062 159.035 126.54 159.408C126.017 159.781 125.373 160.038 124.608 160.178L124.37 159.296C125.032 159.147 125.532 158.946 125.868 158.694C126.213 158.451 126.498 158.073 126.722 157.56L127.002 156.93L124.02 149.958H125.21L127.59 155.768L129.998 149.958H131.132ZM135.211 157.098C134.548 157.098 133.965 156.949 133.461 156.65C132.957 156.351 132.565 155.927 132.285 155.376C132.014 154.825 131.879 154.181 131.879 153.444C131.879 152.707 132.014 152.063 132.285 151.512C132.565 150.961 132.957 150.537 133.461 150.238C133.965 149.939 134.548 149.79 135.211 149.79C135.874 149.79 136.457 149.939 136.961 150.238C137.465 150.537 137.852 150.961 138.123 151.512C138.403 152.063 138.543 152.707 138.543 153.444C138.543 154.181 138.403 154.825 138.123 155.376C137.852 155.927 137.465 156.351 136.961 156.65C136.457 156.949 135.874 157.098 135.211 157.098ZM135.211 156.16C135.911 156.16 136.448 155.931 136.821 155.474C137.194 155.007 137.381 154.331 137.381 153.444C137.381 152.585 137.19 151.923 136.807 151.456C136.424 150.98 135.892 150.742 135.211 150.742C134.52 150.742 133.984 150.98 133.601 151.456C133.218 151.923 133.027 152.585 133.027 153.444C133.027 154.331 133.214 155.007 133.587 155.474C133.97 155.931 134.511 156.16 135.211 156.16ZM146.205 149.958V157H145.099V155.782C144.875 156.211 144.562 156.538 144.161 156.762C143.759 156.986 143.307 157.098 142.803 157.098C141.972 157.098 141.342 156.865 140.913 156.398C140.483 155.931 140.269 155.241 140.269 154.326V149.958H141.403V154.298C141.403 154.933 141.533 155.399 141.795 155.698C142.056 155.997 142.453 156.146 142.985 156.146C143.61 156.146 144.114 155.945 144.497 155.544C144.879 155.133 145.071 154.597 145.071 153.934V149.958H146.205ZM151.667 149.79C151.9 149.79 152.115 149.818 152.311 149.874L152.283 150.91C152.068 150.835 151.821 150.798 151.541 150.798C150.859 150.798 150.351 151.013 150.015 151.442C149.688 151.862 149.525 152.375 149.525 152.982V157H148.391V151.932C148.391 151.204 148.353 150.546 148.279 149.958H149.357L149.469 151.26C149.646 150.784 149.931 150.42 150.323 150.168C150.715 149.916 151.163 149.79 151.667 149.79ZM163.007 153.444H157.841C157.851 154.34 158.056 155.017 158.457 155.474C158.868 155.931 159.461 156.16 160.235 156.16C161.057 156.16 161.813 155.885 162.503 155.334L162.881 156.16C162.573 156.449 162.177 156.678 161.691 156.846C161.215 157.014 160.725 157.098 160.221 157.098C159.12 157.098 158.257 156.776 157.631 156.132C157.006 155.479 156.693 154.587 156.693 153.458C156.693 152.739 156.833 152.105 157.113 151.554C157.393 150.994 157.785 150.56 158.289 150.252C158.793 149.944 159.367 149.79 160.011 149.79C160.945 149.79 161.677 150.098 162.209 150.714C162.741 151.321 163.007 152.161 163.007 153.234V153.444ZM160.025 150.672C159.437 150.672 158.957 150.849 158.583 151.204C158.219 151.559 157.986 152.058 157.883 152.702H161.985C161.929 152.039 161.733 151.535 161.397 151.19C161.071 150.845 160.613 150.672 160.025 150.672ZM167.683 157.098C167.001 157.098 166.404 156.949 165.891 156.65C165.387 156.351 164.995 155.931 164.715 155.39C164.444 154.839 164.309 154.2 164.309 153.472C164.309 152.744 164.449 152.105 164.729 151.554C165.009 150.994 165.405 150.56 165.919 150.252C166.441 149.944 167.048 149.79 167.739 149.79C168.215 149.79 168.672 149.874 169.111 150.042C169.559 150.201 169.927 150.425 170.217 150.714L169.839 151.554C169.484 151.274 169.139 151.069 168.803 150.938C168.476 150.807 168.14 150.742 167.795 150.742C167.076 150.742 166.511 150.985 166.101 151.47C165.69 151.946 165.485 152.613 165.485 153.472C165.485 154.321 165.685 154.984 166.087 155.46C166.497 155.927 167.067 156.16 167.795 156.16C168.14 156.16 168.476 156.095 168.803 155.964C169.139 155.833 169.484 155.628 169.839 155.348L170.217 156.188C169.918 156.468 169.54 156.692 169.083 156.86C168.635 157.019 168.168 157.098 167.683 157.098ZM174.572 157.098C173.91 157.098 173.326 156.949 172.822 156.65C172.318 156.351 171.926 155.927 171.646 155.376C171.376 154.825 171.24 154.181 171.24 153.444C171.24 152.707 171.376 152.063 171.646 151.512C171.926 150.961 172.318 150.537 172.822 150.238C173.326 149.939 173.91 149.79 174.572 149.79C175.235 149.79 175.818 149.939 176.322 150.238C176.826 150.537 177.214 150.961 177.484 151.512C177.764 152.063 177.904 152.707 177.904 153.444C177.904 154.181 177.764 154.825 177.484 155.376C177.214 155.927 176.826 156.351 176.322 156.65C175.818 156.949 175.235 157.098 174.572 157.098ZM174.572 156.16C175.272 156.16 175.809 155.931 176.182 155.474C176.556 155.007 176.742 154.331 176.742 153.444C176.742 152.585 176.551 151.923 176.168 151.456C175.786 150.98 175.254 150.742 174.572 150.742C173.882 150.742 173.345 150.98 172.962 151.456C172.58 151.923 172.388 152.585 172.388 153.444C172.388 154.331 172.575 155.007 172.948 155.474C173.331 155.931 173.872 156.16 174.572 156.16ZM187.484 149.79C189.043 149.79 189.822 150.719 189.822 152.576V157H188.688V152.632C188.688 151.969 188.571 151.489 188.338 151.19C188.114 150.891 187.745 150.742 187.232 150.742C186.635 150.742 186.168 150.943 185.832 151.344C185.496 151.745 185.328 152.291 185.328 152.982V157H184.194V152.632C184.194 151.979 184.077 151.503 183.844 151.204C183.611 150.896 183.237 150.742 182.724 150.742C182.127 150.742 181.655 150.943 181.31 151.344C180.974 151.745 180.806 152.291 180.806 152.982V157H179.672V151.932C179.672 151.204 179.635 150.546 179.56 149.958H180.638L180.75 151.19C180.946 150.742 181.235 150.397 181.618 150.154C182.01 149.911 182.463 149.79 182.976 149.79C183.536 149.79 183.993 149.902 184.348 150.126C184.703 150.35 184.964 150.695 185.132 151.162C185.347 150.742 185.659 150.411 186.07 150.168C186.49 149.916 186.961 149.79 187.484 149.79ZM199.789 149.79C201.347 149.79 202.127 150.719 202.127 152.576V157H200.993V152.632C200.993 151.969 200.876 151.489 200.643 151.19C200.419 150.891 200.05 150.742 199.537 150.742C198.939 150.742 198.473 150.943 198.137 151.344C197.801 151.745 197.633 152.291 197.633 152.982V157H196.499V152.632C196.499 151.979 196.382 151.503 196.149 151.204C195.915 150.896 195.542 150.742 195.029 150.742C194.431 150.742 193.96 150.943 193.615 151.344C193.279 151.745 193.111 152.291 193.111 152.982V157H191.977V151.932C191.977 151.204 191.939 150.546 191.865 149.958H192.943L193.055 151.19C193.251 150.742 193.54 150.397 193.923 150.154C194.315 149.911 194.767 149.79 195.281 149.79C195.841 149.79 196.298 149.902 196.653 150.126C197.007 150.35 197.269 150.695 197.437 151.162C197.651 150.742 197.964 150.411 198.375 150.168C198.795 149.916 199.266 149.79 199.789 149.79ZM210.175 153.444H205.009C205.019 154.34 205.224 155.017 205.625 155.474C206.036 155.931 206.629 156.16 207.403 156.16C208.225 156.16 208.981 155.885 209.671 155.334L210.049 156.16C209.741 156.449 209.345 156.678 208.859 156.846C208.383 157.014 207.893 157.098 207.389 157.098C206.288 157.098 205.425 156.776 204.799 156.132C204.174 155.479 203.861 154.587 203.861 153.458C203.861 152.739 204.001 152.105 204.281 151.554C204.561 150.994 204.953 150.56 205.457 150.252C205.961 149.944 206.535 149.79 207.179 149.79C208.113 149.79 208.845 150.098 209.377 150.714C209.909 151.321 210.175 152.161 210.175 153.234V153.444ZM207.193 150.672C206.605 150.672 206.125 150.849 205.751 151.204C205.387 151.559 205.154 152.058 205.051 152.702H209.153C209.097 152.039 208.901 151.535 208.565 151.19C208.239 150.845 207.781 150.672 207.193 150.672ZM215.173 149.79C215.406 149.79 215.621 149.818 215.817 149.874L215.789 150.91C215.574 150.835 215.327 150.798 215.047 150.798C214.365 150.798 213.857 151.013 213.521 151.442C213.194 151.862 213.031 152.375 213.031 152.982V157H211.897V151.932C211.897 151.204 211.859 150.546 211.785 149.958H212.863L212.975 151.26C213.152 150.784 213.437 150.42 213.829 150.168C214.221 149.916 214.669 149.79 215.173 149.79ZM219.786 157.098C219.105 157.098 218.508 156.949 217.994 156.65C217.49 156.351 217.098 155.931 216.818 155.39C216.548 154.839 216.412 154.2 216.412 153.472C216.412 152.744 216.552 152.105 216.832 151.554C217.112 150.994 217.509 150.56 218.022 150.252C218.545 149.944 219.152 149.79 219.842 149.79C220.318 149.79 220.776 149.874 221.214 150.042C221.662 150.201 222.031 150.425 222.32 150.714L221.942 151.554C221.588 151.274 221.242 151.069 220.906 150.938C220.58 150.807 220.244 150.742 219.898 150.742C219.18 150.742 218.615 150.985 218.204 151.47C217.794 151.946 217.588 152.613 217.588 153.472C217.588 154.321 217.789 154.984 218.19 155.46C218.601 155.927 219.17 156.16 219.898 156.16C220.244 156.16 220.58 156.095 220.906 155.964C221.242 155.833 221.588 155.628 221.942 155.348L222.32 156.188C222.022 156.468 221.644 156.692 221.186 156.86C220.738 157.019 220.272 157.098 219.786 157.098ZM229.658 153.444H224.492C224.501 154.34 224.707 155.017 225.108 155.474C225.519 155.931 226.111 156.16 226.886 156.16C227.707 156.16 228.463 155.885 229.154 155.334L229.532 156.16C229.224 156.449 228.827 156.678 228.342 156.846C227.866 157.014 227.376 157.098 226.872 157.098C225.771 157.098 224.907 156.776 224.282 156.132C223.657 155.479 223.344 154.587 223.344 153.458C223.344 152.739 223.484 152.105 223.764 151.554C224.044 150.994 224.436 150.56 224.94 150.252C225.444 149.944 226.018 149.79 226.662 149.79C227.595 149.79 228.328 150.098 228.86 150.714C229.392 151.321 229.658 152.161 229.658 153.234V153.444ZM226.676 150.672C226.088 150.672 225.607 150.849 225.234 151.204C224.87 151.559 224.637 152.058 224.534 152.702H228.636C228.58 152.039 228.384 151.535 228.048 151.19C227.721 150.845 227.264 150.672 226.676 150.672ZM238.544 149.79C239.16 149.79 239.706 149.944 240.182 150.252C240.658 150.56 241.026 150.994 241.288 151.554C241.549 152.105 241.68 152.744 241.68 153.472C241.68 154.2 241.549 154.839 241.288 155.39C241.026 155.931 240.658 156.351 240.182 156.65C239.715 156.949 239.169 157.098 238.544 157.098C237.993 157.098 237.512 156.977 237.102 156.734C236.691 156.491 236.378 156.146 236.164 155.698V160.024H235.03V151.932C235.03 151.204 234.992 150.546 234.918 149.958H235.995L236.108 151.316C236.304 150.831 236.612 150.457 237.032 150.196C237.461 149.925 237.965 149.79 238.544 149.79ZM238.334 156.16C239.024 156.16 239.556 155.927 239.93 155.46C240.312 154.993 240.504 154.331 240.504 153.472C240.504 152.613 240.312 151.946 239.93 151.47C239.547 150.985 239.015 150.742 238.334 150.742C237.634 150.742 237.097 150.975 236.724 151.442C236.35 151.909 236.164 152.576 236.164 153.444C236.164 154.312 236.35 154.984 236.724 155.46C237.097 155.927 237.634 156.16 238.334 156.16ZM243.424 146.696H244.558V157H243.424V146.696ZM252.962 149.958V157H251.842V155.726C251.637 156.165 251.324 156.505 250.904 156.748C250.493 156.981 250.013 157.098 249.462 157.098C248.837 157.098 248.286 156.949 247.81 156.65C247.343 156.351 246.979 155.931 246.718 155.39C246.466 154.839 246.34 154.2 246.34 153.472C246.34 152.744 246.471 152.105 246.732 151.554C246.993 150.994 247.357 150.56 247.824 150.252C248.3 149.944 248.846 149.79 249.462 149.79C250.013 149.79 250.493 149.911 250.904 150.154C251.315 150.397 251.627 150.737 251.842 151.176V149.958H252.962ZM249.686 156.16C250.377 156.16 250.909 155.927 251.282 155.46C251.655 154.984 251.842 154.312 251.842 153.444C251.842 152.576 251.655 151.909 251.282 151.442C250.909 150.975 250.377 150.742 249.686 150.742C248.995 150.742 248.454 150.985 248.062 151.47C247.679 151.946 247.488 152.613 247.488 153.472C247.488 154.331 247.679 154.993 248.062 155.46C248.445 155.927 248.986 156.16 249.686 156.16ZM256.667 150.854V154.704C256.667 155.227 256.774 155.595 256.989 155.81C257.203 156.015 257.507 156.118 257.899 156.118C258.16 156.118 258.412 156.076 258.655 155.992V156.958C258.365 157.051 258.039 157.098 257.675 157.098C257.003 157.098 256.475 156.911 256.093 156.538C255.719 156.155 255.533 155.595 255.533 154.858V150.854H254.161V149.958H255.533V148.152L256.667 147.746V149.958H258.683V150.854H256.667ZM262.901 147.62C262.528 147.62 262.234 147.727 262.019 147.942C261.814 148.147 261.711 148.507 261.711 149.02V149.958H263.433V150.854H261.711V157H260.577V150.854H259.205V149.958H260.577V148.88C260.577 148.143 260.759 147.587 261.123 147.214C261.497 146.831 262.015 146.64 262.677 146.64C263.004 146.64 263.321 146.682 263.629 146.766V147.732C263.368 147.657 263.125 147.62 262.901 147.62ZM267.76 157.098C267.097 157.098 266.514 156.949 266.01 156.65C265.506 156.351 265.114 155.927 264.834 155.376C264.563 154.825 264.428 154.181 264.428 153.444C264.428 152.707 264.563 152.063 264.834 151.512C265.114 150.961 265.506 150.537 266.01 150.238C266.514 149.939 267.097 149.79 267.76 149.79C268.423 149.79 269.006 149.939 269.51 150.238C270.014 150.537 270.401 150.961 270.672 151.512C270.952 152.063 271.092 152.707 271.092 153.444C271.092 154.181 270.952 154.825 270.672 155.376C270.401 155.927 270.014 156.351 269.51 156.65C269.006 156.949 268.423 157.098 267.76 157.098ZM267.76 156.16C268.46 156.16 268.997 155.931 269.37 155.474C269.743 155.007 269.93 154.331 269.93 153.444C269.93 152.585 269.739 151.923 269.356 151.456C268.973 150.98 268.441 150.742 267.76 150.742C267.069 150.742 266.533 150.98 266.15 151.456C265.767 151.923 265.576 152.585 265.576 153.444C265.576 154.331 265.763 155.007 266.136 155.474C266.519 155.931 267.06 156.16 267.76 156.16ZM276.136 149.79C276.369 149.79 276.584 149.818 276.78 149.874L276.752 150.91C276.537 150.835 276.29 150.798 276.01 150.798C275.328 150.798 274.82 151.013 274.484 151.442C274.157 151.862 273.994 152.375 273.994 152.982V157H272.86V151.932C272.86 151.204 272.822 150.546 272.748 149.958H273.826L273.938 151.26C274.115 150.784 274.4 150.42 274.792 150.168C275.184 149.916 275.632 149.79 276.136 149.79ZM285.744 149.79C287.303 149.79 288.082 150.719 288.082 152.576V157H286.948V152.632C286.948 151.969 286.831 151.489 286.598 151.19C286.374 150.891 286.005 150.742 285.492 150.742C284.895 150.742 284.428 150.943 284.092 151.344C283.756 151.745 283.588 152.291 283.588 152.982V157H282.454V152.632C282.454 151.979 282.337 151.503 282.104 151.204C281.871 150.896 281.497 150.742 280.984 150.742C280.387 150.742 279.915 150.943 279.57 151.344C279.234 151.745 279.066 152.291 279.066 152.982V157H277.932V151.932C277.932 151.204 277.895 150.546 277.82 149.958H278.898L279.01 151.19C279.206 150.742 279.495 150.397 279.878 150.154C280.27 149.911 280.723 149.79 281.236 149.79C281.796 149.79 282.253 149.902 282.608 150.126C282.963 150.35 283.224 150.695 283.392 151.162C283.607 150.742 283.919 150.411 284.33 150.168C284.75 149.916 285.221 149.79 285.744 149.79ZM291.483 155.558V156.58C291.483 156.972 291.417 157.331 291.287 157.658C291.156 157.985 290.937 158.302 290.629 158.61L290.097 158.204C290.461 157.784 290.666 157.383 290.713 157H290.041V155.558H291.483ZM307.823 149.958L305.219 157H304.127L302.111 151.498L300.109 157H299.017L296.413 149.958H297.603L299.591 155.642L301.649 149.958H302.643L304.673 155.656L306.703 149.958H307.823ZM309.295 149.958H310.429V157H309.295V149.958ZM310.569 146.976V148.264H309.183V146.976H310.569ZM314.143 150.854V154.704C314.143 155.227 314.25 155.595 314.465 155.81C314.68 156.015 314.983 156.118 315.375 156.118C315.636 156.118 315.888 156.076 316.131 155.992V156.958C315.842 157.051 315.515 157.098 315.151 157.098C314.479 157.098 313.952 156.911 313.569 156.538C313.196 156.155 313.009 155.595 313.009 154.858V150.854H311.637V149.958H313.009V148.152L314.143 147.746V149.958H316.159V150.854H314.143ZM321.04 149.79C322.729 149.79 323.574 150.719 323.574 152.576V157H322.44V152.632C322.44 151.979 322.309 151.503 322.048 151.204C321.786 150.896 321.376 150.742 320.816 150.742C320.162 150.742 319.64 150.943 319.248 151.344C318.856 151.745 318.66 152.287 318.66 152.968V157H317.526V146.696H318.66V151.106C318.884 150.677 319.201 150.35 319.612 150.126C320.032 149.902 320.508 149.79 321.04 149.79ZM111.28 167.958L107.99 175.644C107.645 176.447 107.211 177.035 106.688 177.408C106.165 177.781 105.521 178.038 104.756 178.178L104.518 177.296C105.181 177.147 105.68 176.946 106.016 176.694C106.361 176.451 106.646 176.073 106.87 175.56L107.15 174.93L104.168 167.958H105.358L107.738 173.768L110.146 167.958H111.28ZM115.359 175.098C114.697 175.098 114.113 174.949 113.609 174.65C113.105 174.351 112.713 173.927 112.433 173.376C112.163 172.825 112.027 172.181 112.027 171.444C112.027 170.707 112.163 170.063 112.433 169.512C112.713 168.961 113.105 168.537 113.609 168.238C114.113 167.939 114.697 167.79 115.359 167.79C116.022 167.79 116.605 167.939 117.109 168.238C117.613 168.537 118.001 168.961 118.271 169.512C118.551 170.063 118.691 170.707 118.691 171.444C118.691 172.181 118.551 172.825 118.271 173.376C118.001 173.927 117.613 174.351 117.109 174.65C116.605 174.949 116.022 175.098 115.359 175.098ZM115.359 174.16C116.059 174.16 116.596 173.931 116.969 173.474C117.343 173.007 117.529 172.331 117.529 171.444C117.529 170.585 117.338 169.923 116.955 169.456C116.573 168.98 116.041 168.742 115.359 168.742C114.669 168.742 114.132 168.98 113.749 169.456C113.367 169.923 113.175 170.585 113.175 171.444C113.175 172.331 113.362 173.007 113.735 173.474C114.118 173.931 114.659 174.16 115.359 174.16ZM126.353 167.958V175H125.247V173.782C125.023 174.211 124.711 174.538 124.309 174.762C123.908 174.986 123.455 175.098 122.951 175.098C122.121 175.098 121.491 174.865 121.061 174.398C120.632 173.931 120.417 173.241 120.417 172.326V167.958H121.551V172.298C121.551 172.933 121.682 173.399 121.943 173.698C122.205 173.997 122.601 174.146 123.133 174.146C123.759 174.146 124.263 173.945 124.645 173.544C125.028 173.133 125.219 172.597 125.219 171.934V167.958H126.353ZM131.815 167.79C132.049 167.79 132.263 167.818 132.459 167.874L132.431 168.91C132.217 168.835 131.969 168.798 131.689 168.798C131.008 168.798 130.499 169.013 130.163 169.442C129.837 169.862 129.673 170.375 129.673 170.982V175H128.539V169.932C128.539 169.204 128.502 168.546 128.427 167.958H129.505L129.617 169.26C129.795 168.784 130.079 168.42 130.471 168.168C130.863 167.916 131.311 167.79 131.815 167.79ZM140.776 167.79C141.392 167.79 141.938 167.944 142.414 168.252C142.89 168.56 143.259 168.994 143.52 169.554C143.781 170.105 143.912 170.744 143.912 171.472C143.912 172.2 143.781 172.839 143.52 173.39C143.259 173.931 142.89 174.351 142.414 174.65C141.947 174.949 141.401 175.098 140.776 175.098C140.225 175.098 139.745 174.977 139.334 174.734C138.923 174.491 138.611 174.146 138.396 173.698V178.024H137.262V169.932C137.262 169.204 137.225 168.546 137.15 167.958H138.228L138.34 169.316C138.536 168.831 138.844 168.457 139.264 168.196C139.693 167.925 140.197 167.79 140.776 167.79ZM140.566 174.16C141.257 174.16 141.789 173.927 142.162 173.46C142.545 172.993 142.736 172.331 142.736 171.472C142.736 170.613 142.545 169.946 142.162 169.47C141.779 168.985 141.247 168.742 140.566 168.742C139.866 168.742 139.329 168.975 138.956 169.442C138.583 169.909 138.396 170.576 138.396 171.444C138.396 172.312 138.583 172.984 138.956 173.46C139.329 173.927 139.866 174.16 140.566 174.16ZM151.858 167.958V175H150.738V173.726C150.533 174.165 150.22 174.505 149.8 174.748C149.39 174.981 148.909 175.098 148.358 175.098C147.733 175.098 147.182 174.949 146.706 174.65C146.24 174.351 145.876 173.931 145.614 173.39C145.362 172.839 145.236 172.2 145.236 171.472C145.236 170.744 145.367 170.105 145.628 169.554C145.89 168.994 146.254 168.56 146.72 168.252C147.196 167.944 147.742 167.79 148.358 167.79C148.909 167.79 149.39 167.911 149.8 168.154C150.211 168.397 150.524 168.737 150.738 169.176V167.958H151.858ZM148.582 174.16C149.273 174.16 149.805 173.927 150.178 173.46C150.552 172.984 150.738 172.312 150.738 171.444C150.738 170.576 150.552 169.909 150.178 169.442C149.805 168.975 149.273 168.742 148.582 168.742C147.892 168.742 147.35 168.985 146.958 169.47C146.576 169.946 146.384 170.613 146.384 171.472C146.384 172.331 146.576 172.993 146.958 173.46C147.341 173.927 147.882 174.16 148.582 174.16ZM160.323 167.958V174.944C160.323 175.989 160.052 176.778 159.511 177.31C158.979 177.851 158.19 178.122 157.145 178.122C156.072 178.122 155.148 177.879 154.373 177.394L154.569 176.47C155.017 176.722 155.437 176.904 155.829 177.016C156.23 177.128 156.669 177.184 157.145 177.184C157.826 177.184 158.34 177.002 158.685 176.638C159.03 176.283 159.203 175.751 159.203 175.042V173.376C158.988 173.824 158.671 174.174 158.251 174.426C157.84 174.669 157.35 174.79 156.781 174.79C156.165 174.79 155.614 174.645 155.129 174.356C154.653 174.067 154.284 173.656 154.023 173.124C153.762 172.592 153.631 171.981 153.631 171.29C153.631 170.599 153.762 169.988 154.023 169.456C154.284 168.924 154.653 168.513 155.129 168.224C155.614 167.935 156.165 167.79 156.781 167.79C157.341 167.79 157.826 167.911 158.237 168.154C158.657 168.397 158.974 168.737 159.189 169.176V167.958H160.323ZM157.005 173.838C157.686 173.838 158.218 173.614 158.601 173.166C158.993 172.709 159.189 172.083 159.189 171.29C159.189 170.497 158.993 169.876 158.601 169.428C158.218 168.971 157.686 168.742 157.005 168.742C156.314 168.742 155.768 168.971 155.367 169.428C154.975 169.876 154.779 170.497 154.779 171.29C154.779 172.083 154.975 172.709 155.367 173.166C155.768 173.614 156.314 173.838 157.005 173.838ZM168.394 171.444H163.228C163.238 172.34 163.443 173.017 163.844 173.474C164.255 173.931 164.848 174.16 165.622 174.16C166.444 174.16 167.2 173.885 167.89 173.334L168.268 174.16C167.96 174.449 167.564 174.678 167.078 174.846C166.602 175.014 166.112 175.098 165.608 175.098C164.507 175.098 163.644 174.776 163.018 174.132C162.393 173.479 162.08 172.587 162.08 171.458C162.08 170.739 162.22 170.105 162.5 169.554C162.78 168.994 163.172 168.56 163.676 168.252C164.18 167.944 164.754 167.79 165.398 167.79C166.332 167.79 167.064 168.098 167.596 168.714C168.128 169.321 168.394 170.161 168.394 171.234V171.444ZM165.412 168.672C164.824 168.672 164.344 168.849 163.97 169.204C163.606 169.559 163.373 170.058 163.27 170.702H167.372C167.316 170.039 167.12 169.535 166.784 169.19C166.458 168.845 166 168.672 165.412 168.672ZM175.278 168.854V172.704C175.278 173.227 175.385 173.595 175.6 173.81C175.814 174.015 176.118 174.118 176.51 174.118C176.771 174.118 177.023 174.076 177.266 173.992V174.958C176.976 175.051 176.65 175.098 176.286 175.098C175.614 175.098 175.086 174.911 174.704 174.538C174.33 174.155 174.144 173.595 174.144 172.858V168.854H172.772V167.958H174.144V166.152L175.278 165.746V167.958H177.294V168.854H175.278ZM184.554 171.444H179.388C179.398 172.34 179.603 173.017 180.004 173.474C180.415 173.931 181.008 174.16 181.782 174.16C182.604 174.16 183.36 173.885 184.05 173.334L184.428 174.16C184.12 174.449 183.724 174.678 183.238 174.846C182.762 175.014 182.272 175.098 181.768 175.098C180.667 175.098 179.804 174.776 179.178 174.132C178.553 173.479 178.24 172.587 178.24 171.458C178.24 170.739 178.38 170.105 178.66 169.554C178.94 168.994 179.332 168.56 179.836 168.252C180.34 167.944 180.914 167.79 181.558 167.79C182.492 167.79 183.224 168.098 183.756 168.714C184.288 169.321 184.554 170.161 184.554 171.234V171.444ZM181.572 168.672C180.984 168.672 180.504 168.849 180.13 169.204C179.766 169.559 179.533 170.058 179.43 170.702H183.532C183.476 170.039 183.28 169.535 182.944 169.19C182.618 168.845 182.16 168.672 181.572 168.672ZM194.088 167.79C195.646 167.79 196.426 168.719 196.426 170.576V175H195.292V170.632C195.292 169.969 195.175 169.489 194.942 169.19C194.718 168.891 194.349 168.742 193.836 168.742C193.238 168.742 192.772 168.943 192.436 169.344C192.1 169.745 191.932 170.291 191.932 170.982V175H190.798V170.632C190.798 169.979 190.681 169.503 190.448 169.204C190.214 168.896 189.841 168.742 189.328 168.742C188.73 168.742 188.259 168.943 187.914 169.344C187.578 169.745 187.41 170.291 187.41 170.982V175H186.276V169.932C186.276 169.204 186.238 168.546 186.164 167.958H187.242L187.354 169.19C187.55 168.742 187.839 168.397 188.222 168.154C188.614 167.911 189.066 167.79 189.58 167.79C190.14 167.79 190.597 167.902 190.952 168.126C191.306 168.35 191.568 168.695 191.736 169.162C191.95 168.742 192.263 168.411 192.674 168.168C193.094 167.916 193.565 167.79 194.088 167.79ZM202.094 167.79C202.71 167.79 203.256 167.944 203.732 168.252C204.208 168.56 204.577 168.994 204.838 169.554C205.1 170.105 205.23 170.744 205.23 171.472C205.23 172.2 205.1 172.839 204.838 173.39C204.577 173.931 204.208 174.351 203.732 174.65C203.266 174.949 202.72 175.098 202.094 175.098C201.544 175.098 201.063 174.977 200.652 174.734C200.242 174.491 199.929 174.146 199.714 173.698V178.024H198.58V169.932C198.58 169.204 198.543 168.546 198.468 167.958H199.546L199.658 169.316C199.854 168.831 200.162 168.457 200.582 168.196C201.012 167.925 201.516 167.79 202.094 167.79ZM201.884 174.16C202.575 174.16 203.107 173.927 203.48 173.46C203.863 172.993 204.054 172.331 204.054 171.472C204.054 170.613 203.863 169.946 203.48 169.47C203.098 168.985 202.566 168.742 201.884 168.742C201.184 168.742 200.648 168.975 200.274 169.442C199.901 169.909 199.714 170.576 199.714 171.444C199.714 172.312 199.901 172.984 200.274 173.46C200.648 173.927 201.184 174.16 201.884 174.16ZM206.975 164.696H208.109V175H206.975V164.696ZM216.513 167.958V175H215.393V173.726C215.187 174.165 214.875 174.505 214.455 174.748C214.044 174.981 213.563 175.098 213.013 175.098C212.387 175.098 211.837 174.949 211.361 174.65C210.894 174.351 210.53 173.931 210.269 173.39C210.017 172.839 209.891 172.2 209.891 171.472C209.891 170.744 210.021 170.105 210.283 169.554C210.544 168.994 210.908 168.56 211.375 168.252C211.851 167.944 212.397 167.79 213.013 167.79C213.563 167.79 214.044 167.911 214.455 168.154C214.865 168.397 215.178 168.737 215.393 169.176V167.958H216.513ZM213.237 174.16C213.927 174.16 214.459 173.927 214.833 173.46C215.206 172.984 215.393 172.312 215.393 171.444C215.393 170.576 215.206 169.909 214.833 169.442C214.459 168.975 213.927 168.742 213.237 168.742C212.546 168.742 212.005 168.985 211.613 169.47C211.23 169.946 211.039 170.613 211.039 171.472C211.039 172.331 211.23 172.993 211.613 173.46C211.995 173.927 212.537 174.16 213.237 174.16ZM220.217 168.854V172.704C220.217 173.227 220.325 173.595 220.539 173.81C220.754 174.015 221.057 174.118 221.449 174.118C221.711 174.118 221.963 174.076 222.205 173.992V174.958C221.916 175.051 221.589 175.098 221.225 175.098C220.553 175.098 220.026 174.911 219.643 174.538C219.27 174.155 219.083 173.595 219.083 172.858V168.854H217.711V167.958H219.083V166.152L220.217 165.746V167.958H222.233V168.854H220.217ZM229.494 171.444H224.328C224.337 172.34 224.542 173.017 224.944 173.474C225.354 173.931 225.947 174.16 226.722 174.16C227.543 174.16 228.299 173.885 228.99 173.334L229.368 174.16C229.06 174.449 228.663 174.678 228.178 174.846C227.702 175.014 227.212 175.098 226.708 175.098C225.606 175.098 224.743 174.776 224.118 174.132C223.492 173.479 223.18 172.587 223.18 171.458C223.18 170.739 223.32 170.105 223.6 169.554C223.88 168.994 224.272 168.56 224.776 168.252C225.28 167.944 225.854 167.79 226.498 167.79C227.431 167.79 228.164 168.098 228.696 168.714C229.228 169.321 229.494 170.161 229.494 171.234V171.444ZM226.512 168.672C225.924 168.672 225.443 168.849 225.07 169.204C224.706 169.559 224.472 170.058 224.37 170.702H228.472C228.416 170.039 228.22 169.535 227.884 169.19C227.557 168.845 227.1 168.672 226.512 168.672Z" fill="#5B5151"/>
<circle cx="81" cy="140" r="15" fill="white"/>
<mask id="mask1" mask-type="alpha" maskUnits="userSpaceOnUse" x="66" y="125" width="30" height="30">
<circle cx="81" cy="140" r="15" fill="#F4F4EA"/>
</mask>
<g mask="url(#mask1)">
<path fill-rule="evenodd" clip-rule="evenodd" d="M86.9322 132.298C85.524 136.565 84.165 140.437 82.785 144.704C82.7024 145.067 82.5194 145.399 82.2569 145.662C81.8951 145.926 81.4494 146.048 81.0035 146.007H79.3418L80.2853 148.274H82.8976C83.252 148.296 83.6053 148.216 83.9158 148.044C84.2264 147.872 84.4814 147.614 84.6509 147.302C84.7643 147.09 84.8609 146.868 84.9396 146.641L89.798 132.298H86.9322Z" fill="#635452"/>
<path fill-rule="evenodd" clip-rule="evenodd" d="M77.376 140.043H79.087C79.2676 140.052 79.4378 140.13 79.5623 140.261C79.6868 140.392 79.7562 140.566 79.7559 140.747V140.902C79.7562 141.083 79.6868 141.257 79.5623 141.388C79.4378 141.519 79.2676 141.597 79.087 141.606H77.376C77.1893 141.606 77.0102 141.532 76.8781 141.4C76.7461 141.268 76.6719 141.089 76.6719 140.902V140.747C76.6719 140.56 76.7461 140.381 76.8781 140.249C77.0102 140.117 77.1893 140.043 77.376 140.043Z" fill="#F0AD00"/>
<path fill-rule="evenodd" clip-rule="evenodd" d="M80.8545 140.043H82.643C82.8297 140.043 83.0088 140.117 83.1409 140.249C83.2729 140.381 83.3471 140.56 83.3471 140.747V140.902C83.3471 141.089 83.2729 141.268 83.1409 141.4C83.0088 141.532 82.8297 141.606 82.643 141.606H80.8545C80.6678 141.606 80.4887 141.532 80.3566 141.4C80.2246 141.268 80.1504 141.089 80.1504 140.902V140.747C80.1504 140.56 80.2246 140.381 80.3566 140.249C80.4887 140.117 80.6678 140.043 80.8545 140.043Z" fill="#E1760C"/>
<path fill-rule="evenodd" clip-rule="evenodd" d="M76.7354 138.114H78.5872C78.768 138.113 78.942 138.183 79.0731 138.307C79.2041 138.432 79.2823 138.602 79.2913 138.782V138.944C79.2913 139.131 79.2172 139.31 79.0851 139.442C78.9531 139.574 78.774 139.649 78.5872 139.649H76.7354C76.5486 139.649 76.3695 139.574 76.2375 139.442C76.1054 139.31 76.0312 139.131 76.0312 138.944V138.782C76.0403 138.602 76.1184 138.432 76.2495 138.307C76.3806 138.183 76.5546 138.113 76.7354 138.114Z" fill="#E1760C"/>
<path fill-rule="evenodd" clip-rule="evenodd" d="M80.3682 138.114H83.3114C83.4861 138.122 83.6513 138.195 83.7749 138.319C83.8986 138.443 83.9718 138.608 83.9803 138.782V138.944C83.9806 139.125 83.9112 139.299 83.7867 139.43C83.6622 139.561 83.492 139.639 83.3114 139.649H80.3682C80.1814 139.649 80.0023 139.574 79.8703 139.442C79.7382 139.31 79.6641 139.131 79.6641 138.944V138.782C79.6731 138.602 79.7513 138.432 79.8823 138.307C80.0134 138.183 80.1874 138.113 80.3682 138.114Z" fill="#F0AD00"/>
<path fill-rule="evenodd" clip-rule="evenodd" d="M80.1026 141.986H82.0107C82.1913 141.995 82.3615 142.074 82.486 142.205C82.6105 142.336 82.6799 142.51 82.6797 142.69V142.859C82.6799 143.04 82.6105 143.214 82.486 143.345C82.3615 143.476 82.1913 143.555 82.0107 143.564H80.1026C79.9158 143.564 79.7367 143.489 79.6047 143.357C79.4726 143.225 79.3984 143.046 79.3984 142.859V142.697C79.3984 142.511 79.4726 142.332 79.6047 142.2C79.7367 142.068 79.9158 141.993 80.1026 141.993V141.986Z" fill="#D65359"/>
<path fill-rule="evenodd" clip-rule="evenodd" d="M79.0166 143.923H81.3684C81.5551 143.923 81.7342 143.997 81.8663 144.129C81.9983 144.261 82.0725 144.44 82.0725 144.627V144.789C82.0725 144.976 81.9983 145.155 81.8663 145.287C81.7342 145.419 81.5551 145.493 81.3684 145.493H79.0166C78.8299 145.493 78.6508 145.419 78.5187 145.287C78.3867 145.155 78.3125 144.976 78.3125 144.789V144.627C78.3125 144.44 78.3867 144.261 78.5187 144.129C78.6508 143.997 78.8299 143.923 79.0166 143.923Z" fill="#F0AD00"/>
<path fill-rule="evenodd" clip-rule="evenodd" d="M78.0811 136.17H80.3836C80.5703 136.17 80.7494 136.244 80.8814 136.376C81.0135 136.508 81.0877 136.688 81.0877 136.874V137.036C81.0877 137.223 81.0135 137.402 80.8814 137.534C80.7494 137.666 80.5703 137.74 80.3836 137.74H78.0811C77.8943 137.74 77.7152 137.666 77.5832 137.534C77.4511 137.402 77.377 137.223 77.377 137.036V136.874C77.377 136.688 77.4511 136.508 77.5832 136.376C77.7152 136.244 77.8943 136.17 78.0811 136.17Z" fill="#F0AD00"/>
<path fill-rule="evenodd" clip-rule="evenodd" d="M82.1358 136.17H83.9665C84.1532 136.17 84.3323 136.244 84.4644 136.376C84.5964 136.508 84.6706 136.688 84.6706 136.874V137.036C84.6706 137.223 84.5964 137.402 84.4644 137.534C84.3323 137.666 84.1532 137.74 83.9665 137.74H82.1358C81.949 137.74 81.7699 137.666 81.6379 137.534C81.5058 137.402 81.4316 137.223 81.4316 137.036V136.874C81.4316 136.688 81.5058 136.508 81.6379 136.376C81.7699 136.244 81.949 136.17 82.1358 136.17Z" fill="#E1760C"/>
<path fill-rule="evenodd" clip-rule="evenodd" d="M76.2429 136.17C76.3933 136.17 76.5403 136.215 76.6654 136.298C76.7904 136.382 76.8879 136.501 76.9455 136.64C77.003 136.779 77.0181 136.931 76.9888 137.079C76.9594 137.227 76.887 137.362 76.7806 137.468C76.6743 137.575 76.5388 137.647 76.3913 137.676C76.2437 137.706 76.0909 137.691 75.9519 137.633C75.8129 137.576 75.6942 137.478 75.6106 137.353C75.5271 137.228 75.4825 137.081 75.4825 136.931C75.4815 136.831 75.5005 136.731 75.5384 136.639C75.5763 136.546 75.6323 136.462 75.7031 136.391C75.7739 136.32 75.8581 136.264 75.9508 136.226C76.0435 136.188 76.1428 136.169 76.2429 136.17Z" fill="#D65359"/>
<path fill-rule="evenodd" clip-rule="evenodd" d="M74.8975 134.234H79.4884C79.6751 134.234 79.8542 134.308 79.9863 134.44C80.1183 134.572 80.1925 134.751 80.1925 134.938V135.1C80.1925 135.287 80.1183 135.466 79.9863 135.598C79.8542 135.73 79.6751 135.804 79.4884 135.804H74.8975C74.7107 135.804 74.5316 135.73 74.3996 135.598C74.2675 135.466 74.1934 135.287 74.1934 135.1V134.938C74.1934 134.751 74.2675 134.572 74.3996 134.44C74.5316 134.308 74.7107 134.234 74.8975 134.234Z" fill="#D65359"/>
<path fill-rule="evenodd" clip-rule="evenodd" d="M81.2139 134.234H84.6218C84.8086 134.234 84.9877 134.308 85.1197 134.44C85.2518 134.572 85.326 134.751 85.326 134.938V135.1C85.326 135.287 85.2518 135.466 85.1197 135.598C84.9877 135.73 84.8086 135.804 84.6218 135.804H81.2139C81.0271 135.804 80.848 135.73 80.716 135.598C80.5839 135.466 80.5098 135.287 80.5098 135.1V134.938C80.5098 134.751 80.5839 134.572 80.716 134.44C80.848 134.308 81.0271 134.234 81.2139 134.234Z" fill="#F0AD00"/>
<path fill-rule="evenodd" clip-rule="evenodd" d="M73.6162 132.297H77.1791C77.3658 132.297 77.5449 132.372 77.677 132.504C77.809 132.636 77.8832 132.815 77.8832 133.001V133.156C77.8832 133.343 77.809 133.522 77.677 133.654C77.5449 133.786 77.3658 133.861 77.1791 133.861H73.6162C73.4295 133.861 73.2504 133.786 73.1183 133.654C72.9863 133.522 72.9121 133.343 72.9121 133.156V133.001C72.9121 132.815 72.9863 132.636 73.1183 132.504C73.2504 132.372 73.4295 132.297 73.6162 132.297Z" fill="#E1760C"/>
<path fill-rule="evenodd" clip-rule="evenodd" d="M80.8975 132.297H85.256C85.4428 132.297 85.6218 132.372 85.7539 132.504C85.8859 132.636 85.9601 132.815 85.9601 133.001V133.156C85.9601 133.343 85.8859 133.522 85.7539 133.654C85.6218 133.786 85.4428 133.861 85.256 133.861H80.8975C80.7107 133.861 80.5316 133.786 80.3996 133.654C80.2675 133.522 80.1934 133.343 80.1934 133.156V133.001C80.1934 132.815 80.2675 132.636 80.3996 132.504C80.5316 132.372 80.7107 132.297 80.8975 132.297Z" fill="#D65359"/>
<path fill-rule="evenodd" clip-rule="evenodd" d="M79.0386 132.297C79.1876 132.297 79.3332 132.342 79.4571 132.424C79.581 132.507 79.6776 132.625 79.7346 132.762C79.7917 132.9 79.8066 133.052 79.7775 133.198C79.7484 133.344 79.6767 133.478 79.5713 133.584C79.466 133.689 79.3317 133.761 79.1856 133.79C79.0394 133.819 78.8879 133.804 78.7503 133.747C78.6126 133.69 78.4949 133.593 78.4121 133.469C78.3293 133.345 78.2852 133.2 78.2852 133.051C78.2852 132.851 78.3645 132.659 78.5058 132.518C78.6471 132.377 78.8388 132.297 79.0386 132.297Z" fill="#F0AD00"/>
<path fill-rule="evenodd" clip-rule="evenodd" d="M78.2437 141.986C78.3947 141.985 78.5427 142.028 78.6688 142.111C78.7949 142.194 78.8935 142.313 78.9519 142.452C79.0103 142.592 79.026 142.745 78.9969 142.893C78.9677 143.041 78.8952 143.177 78.7884 143.284C78.6816 143.391 78.5455 143.464 78.3973 143.493C78.2492 143.522 78.0957 143.506 77.9564 143.448C77.8172 143.389 77.6985 143.291 77.6155 143.165C77.5325 143.039 77.4889 142.891 77.4903 142.74C77.4903 142.54 77.5696 142.348 77.7109 142.207C77.8522 142.065 78.0439 141.986 78.2437 141.986Z" fill="#E1760C"/>
</g>
<path d="M169 20.08C168.2 20.08 167.59 19.7733 167.17 19.16C166.757 18.54 166.55 17.6333 166.55 16.44C166.55 15.2467 166.757 14.3433 167.17 13.73C167.583 13.11 168.193 12.8 169 12.8C169.807 12.8 170.417 13.1067 170.83 13.72C171.243 14.3333 171.45 15.2367 171.45 16.43C171.45 17.6233 171.24 18.53 170.82 19.15C170.407 19.77 169.8 20.08 169 20.08ZM169 19.53C169.613 19.53 170.067 19.28 170.36 18.78C170.66 18.2733 170.81 17.49 170.81 16.43C170.81 15.37 170.663 14.5933 170.37 14.1C170.077 13.6 169.62 13.35 169 13.35C168.387 13.35 167.93 13.6 167.63 14.1C167.337 14.6 167.19 15.3767 167.19 16.43C167.19 17.4833 167.337 18.2633 167.63 18.77C167.93 19.2767 168.387 19.53 169 19.53ZM176.006 16.35C176.479 16.47 176.846 16.6867 177.106 17C177.366 17.3133 177.496 17.69 177.496 18.13C177.496 18.73 177.273 19.2033 176.826 19.55C176.379 19.8967 175.769 20.07 174.996 20.07C174.223 20.07 173.613 19.8967 173.166 19.55C172.719 19.2033 172.496 18.73 172.496 18.13C172.496 17.6967 172.629 17.3233 172.896 17.01C173.163 16.69 173.526 16.47 173.986 16.35C173.559 16.2233 173.229 16.0133 172.996 15.72C172.769 15.4267 172.656 15.08 172.656 14.68C172.656 14.3067 172.753 13.9767 172.946 13.69C173.139 13.4033 173.413 13.1833 173.766 13.03C174.126 12.8767 174.536 12.8 174.996 12.8C175.456 12.8 175.863 12.8767 176.216 13.03C176.576 13.1833 176.853 13.4033 177.046 13.69C177.239 13.9767 177.336 14.3067 177.336 14.68C177.336 15.08 177.219 15.4267 176.986 15.72C176.759 16.0133 176.433 16.2233 176.006 16.35ZM173.286 14.71C173.286 15.1167 173.439 15.4467 173.746 15.7C174.053 15.9533 174.469 16.1067 174.996 16.16C175.523 16.1067 175.939 15.9533 176.246 15.7C176.553 15.4467 176.706 15.1167 176.706 14.71C176.706 14.2833 176.556 13.95 176.256 13.71C175.956 13.4633 175.536 13.34 174.996 13.34C174.456 13.34 174.036 13.4633 173.736 13.71C173.436 13.95 173.286 14.2833 173.286 14.71ZM174.996 19.53C175.603 19.53 176.066 19.41 176.386 19.17C176.706 18.9233 176.866 18.5667 176.866 18.1C176.866 17.6733 176.693 17.3333 176.346 17.08C176.006 16.8267 175.556 16.6733 174.996 16.62C174.436 16.6733 173.983 16.8267 173.636 17.08C173.296 17.3333 173.126 17.6733 173.126 18.1C173.126 18.5667 173.286 18.9233 173.606 19.17C173.926 19.41 174.389 19.53 174.996 19.53ZM179.532 15.1V15.96L178.682 15.96V15.1L179.532 15.1ZM179.532 19.13V20H178.682V19.13H179.532ZM185.329 19.46V20L181.559 20V19.46H183.139L183.139 13.7L181.669 14.65V14.02L183.409 12.88L183.759 12.88L183.759 19.46L185.329 19.46ZM191.575 19.46V20L187.085 20V19.54L189.615 16.71C189.975 16.2967 190.235 15.9333 190.395 15.62C190.555 15.3 190.635 14.9833 190.635 14.67C190.635 14.2433 190.512 13.9167 190.265 13.69C190.025 13.4567 189.678 13.34 189.225 13.34C188.525 13.34 187.842 13.6267 187.175 14.2L186.915 13.71C187.195 13.4367 187.545 13.2167 187.965 13.05C188.385 12.8833 188.805 12.8 189.225 12.8C189.858 12.8 190.355 12.9667 190.715 13.3C191.082 13.6267 191.265 14.0733 191.265 14.64C191.265 15.0467 191.168 15.4433 190.975 15.83C190.788 16.2167 190.482 16.6467 190.055 17.12L187.915 19.46L191.575 19.46Z" fill="#5B5151"/>
<rect y="219" width="359" height="40" rx="10" fill="white"/>
<rect x="0.5" y="219.5" width="358" height="39" rx="9.5" stroke="#5B5151" stroke-opacity="0.1"/>
<rect x="319" y="219" width="40" height="40" rx="10" fill="#E37D38"/>
<path fill-rule="evenodd" clip-rule="evenodd" d="M345.003 247.657C343.225 246.774 344.092 244.48 345.313 242.914C346.37 241.558 347 239.853 347 238C347 233.582 343.418 230 339 230C334.582 230 331 233.582 331 238C331 242.418 334.582 246 339 246C339.185 246 339.359 246.084 339.478 246.226C340.79 247.78 342.979 248.433 345.001 247.698C345.02 247.691 345.021 247.666 345.003 247.657Z" fill="white" fill-opacity="0.55"/>
<path d="M19.64 235.012H16.168V234.032H24.274V235.012H20.802V244H19.64V235.012ZM30.6902 236.958L27.4002 244.644C27.0548 245.447 26.6208 246.035 26.0982 246.408C25.5755 246.781 24.9315 247.038 24.1662 247.178L23.9282 246.296C24.5908 246.147 25.0902 245.946 25.4262 245.694C25.7715 245.451 26.0562 245.073 26.2802 244.56L26.5602 243.93L23.5782 236.958H24.7682L27.1482 242.768L29.5562 236.958H30.6902ZM35.4537 236.79C36.0697 236.79 36.6157 236.944 37.0917 237.252C37.5677 237.56 37.9363 237.994 38.1977 238.554C38.459 239.105 38.5897 239.744 38.5897 240.472C38.5897 241.2 38.459 241.839 38.1977 242.39C37.9363 242.931 37.5677 243.351 37.0917 243.65C36.625 243.949 36.079 244.098 35.4537 244.098C34.903 244.098 34.4223 243.977 34.0117 243.734C33.601 243.491 33.2883 243.146 33.0737 242.698V247.024H31.9397V238.932C31.9397 238.204 31.9023 237.546 31.8277 236.958H32.9057L33.0177 238.316C33.2137 237.831 33.5217 237.457 33.9417 237.196C34.371 236.925 34.875 236.79 35.4537 236.79ZM35.2437 243.16C35.9343 243.16 36.4663 242.927 36.8397 242.46C37.2223 241.993 37.4137 241.331 37.4137 240.472C37.4137 239.613 37.2223 238.946 36.8397 238.47C36.457 237.985 35.925 237.742 35.2437 237.742C34.5437 237.742 34.007 237.975 33.6337 238.442C33.2603 238.909 33.0737 239.576 33.0737 240.444C33.0737 241.312 33.2603 241.984 33.6337 242.46C34.007 242.927 34.5437 243.16 35.2437 243.16ZM40.3342 236.958H41.4682V244H40.3342V236.958ZM41.6082 233.976V235.264H40.2222V233.976H41.6082ZM47.1841 236.79C48.8735 236.79 49.7181 237.719 49.7181 239.576V244H48.5841V239.632C48.5841 238.979 48.4535 238.503 48.1921 238.204C47.9308 237.896 47.5201 237.742 46.9601 237.742C46.3068 237.742 45.7841 237.943 45.3921 238.344C45.0001 238.745 44.8041 239.287 44.8041 239.968V244H43.6701V238.932C43.6701 238.204 43.6328 237.546 43.5581 236.958H44.6361L44.7481 238.218C44.9628 237.761 45.2848 237.411 45.7141 237.168C46.1435 236.916 46.6335 236.79 47.1841 236.79ZM58.1316 236.958V243.944C58.1316 244.989 57.8609 245.778 57.3196 246.31C56.7876 246.851 55.9989 247.122 54.9536 247.122C53.8802 247.122 52.9562 246.879 52.1816 246.394L52.3776 245.47C52.8256 245.722 53.2456 245.904 53.6376 246.016C54.0389 246.128 54.4776 246.184 54.9536 246.184C55.6349 246.184 56.1482 246.002 56.4936 245.638C56.8389 245.283 57.0116 244.751 57.0116 244.042V242.376C56.7969 242.824 56.4796 243.174 56.0596 243.426C55.6489 243.669 55.1589 243.79 54.5896 243.79C53.9736 243.79 53.4229 243.645 52.9376 243.356C52.4616 243.067 52.0929 242.656 51.8316 242.124C51.5702 241.592 51.4396 240.981 51.4396 240.29C51.4396 239.599 51.5702 238.988 51.8316 238.456C52.0929 237.924 52.4616 237.513 52.9376 237.224C53.4229 236.935 53.9736 236.79 54.5896 236.79C55.1496 236.79 55.6349 236.911 56.0456 237.154C56.4656 237.397 56.7829 237.737 56.9976 238.176V236.958H58.1316ZM54.8136 242.838C55.4949 242.838 56.0269 242.614 56.4096 242.166C56.8016 241.709 56.9976 241.083 56.9976 240.29C56.9976 239.497 56.8016 238.876 56.4096 238.428C56.0269 237.971 55.4949 237.742 54.8136 237.742C54.1229 237.742 53.5769 237.971 53.1756 238.428C52.7836 238.876 52.5876 239.497 52.5876 240.29C52.5876 241.083 52.7836 241.709 53.1756 242.166C53.5769 242.614 54.1229 242.838 54.8136 242.838ZM61.5548 242.558V244H60.1128V242.558H61.5548ZM64.795 242.558V244H63.353V242.558H64.795ZM68.0353 242.558V244H66.5933V242.558H68.0353Z" fill="#5B5151"/>
</svg>
