<svg width="359" height="168" viewBox="0 0 359 168" fill="none" xmlns="http://www.w3.org/2000/svg">
<rect width="359" height="168" rx="12" fill="white"/>
<rect x="0.5" y="0.5" width="358" height="167" rx="11.5" stroke="#5B5151" stroke-opacity="0.1"/>
<path d="M16 36C16 24.9543 24.9543 16 36 16H283C294.046 16 303 24.9543 303 36V48C303 59.0457 294.046 68 283 68H16V36Z" fill="#F5FFF6"/>
<path d="M74.654 37.032V47H73.59V39.594L70.356 47H69.544L66.282 39.65L66.296 47H65.232V37.032H66.184L69.964 45.628L73.702 37.032H74.654ZM83.1609 39.958L79.8709 47.644C79.5255 48.4467 79.0915 49.0347 78.5689 49.408C78.0462 49.7813 77.4022 50.038 76.6369 50.178L76.3989 49.296C77.0615 49.1467 77.5609 48.946 77.8969 48.694C78.2422 48.4513 78.5269 48.0733 78.7509 47.56L79.0309 46.93L76.0489 39.958H77.2389L79.6189 45.768L82.0269 39.958H83.1609ZM91.5748 39.79C92.1908 39.79 92.7368 39.944 93.2128 40.252C93.6888 40.56 94.0574 40.994 94.3188 41.554C94.5801 42.1047 94.7108 42.744 94.7108 43.472C94.7108 44.2 94.5801 44.8393 94.3188 45.39C94.0574 45.9313 93.6888 46.3513 93.2128 46.65C92.7461 46.9487 92.2001 47.098 91.5748 47.098C91.0241 47.098 90.5434 46.9767 90.1328 46.734C89.7221 46.4913 89.4094 46.146 89.1948 45.698V50.024H88.0608V41.932C88.0608 41.204 88.0234 40.546 87.9488 39.958H89.0267L89.1388 41.316C89.3348 40.8307 89.6428 40.4573 90.0628 40.196C90.4921 39.9253 90.9961 39.79 91.5748 39.79ZM91.3648 46.16C92.0554 46.16 92.5874 45.9267 92.9608 45.46C93.3434 44.9933 93.5348 44.3307 93.5348 43.472C93.5348 42.6133 93.3434 41.946 92.9608 41.47C92.5781 40.9847 92.0461 40.742 91.3648 40.742C90.6648 40.742 90.1281 40.9753 89.7548 41.442C89.3814 41.9087 89.1948 42.576 89.1948 43.444C89.1948 44.312 89.3814 44.984 89.7548 45.46C90.1281 45.9267 90.6648 46.16 91.3648 46.16ZM102.657 39.958V47H101.537V45.726C101.332 46.1647 101.019 46.5053 100.599 46.748C100.189 46.9813 99.7079 47.098 99.1573 47.098C98.5319 47.098 97.9813 46.9487 97.5053 46.65C97.0386 46.3513 96.6746 45.9313 96.4133 45.39C96.1613 44.8393 96.0353 44.2 96.0353 43.472C96.0353 42.744 96.1659 42.1047 96.4273 41.554C96.6886 40.994 97.0526 40.56 97.5193 40.252C97.9953 39.944 98.5413 39.79 99.1573 39.79C99.7079 39.79 100.189 39.9113 100.599 40.154C101.01 40.3967 101.323 40.7373 101.537 41.176V39.958H102.657ZM99.3813 46.16C100.072 46.16 100.604 45.9267 100.977 45.46C101.351 44.984 101.537 44.312 101.537 43.444C101.537 42.576 101.351 41.9087 100.977 41.442C100.604 40.9753 100.072 40.742 99.3813 40.742C98.6906 40.742 98.1493 40.9847 97.7573 41.47C97.3746 41.946 97.1833 42.6133 97.1833 43.472C97.1833 44.3307 97.3746 44.9933 97.7573 45.46C98.1399 45.9267 98.6813 46.16 99.3813 46.16ZM111.122 39.958V46.944C111.122 47.9893 110.851 48.778 110.31 49.31C109.778 49.8513 108.989 50.122 107.944 50.122C106.87 50.122 105.946 49.8793 105.172 49.394L105.368 48.47C105.816 48.722 106.236 48.904 106.628 49.016C107.029 49.128 107.468 49.184 107.944 49.184C108.625 49.184 109.138 49.002 109.484 48.638C109.829 48.2833 110.002 47.7513 110.002 47.042V45.376C109.787 45.824 109.47 46.174 109.05 46.426C108.639 46.6687 108.149 46.79 107.58 46.79C106.964 46.79 106.413 46.6453 105.928 46.356C105.452 46.0667 105.083 45.656 104.822 45.124C104.56 44.592 104.43 43.9807 104.43 43.29C104.43 42.5993 104.56 41.988 104.822 41.456C105.083 40.924 105.452 40.5133 105.928 40.224C106.413 39.9347 106.964 39.79 107.58 39.79C108.14 39.79 108.625 39.9113 109.036 40.154C109.456 40.3967 109.773 40.7373 109.988 41.176V39.958H111.122ZM107.804 45.838C108.485 45.838 109.017 45.614 109.4 45.166C109.792 44.7087 109.988 44.0833 109.988 43.29C109.988 42.4967 109.792 41.876 109.4 41.428C109.017 40.9707 108.485 40.742 107.804 40.742C107.113 40.742 106.567 40.9707 106.166 41.428C105.774 41.876 105.578 42.4967 105.578 43.29C105.578 44.0833 105.774 44.7087 106.166 45.166C106.567 45.614 107.113 45.838 107.804 45.838ZM119.193 43.444H114.027C114.036 44.34 114.242 45.0167 114.643 45.474C115.054 45.9313 115.646 46.16 116.421 46.16C117.242 46.16 117.998 45.8847 118.689 45.334L119.067 46.16C118.759 46.4493 118.362 46.678 117.877 46.846C117.401 47.014 116.911 47.098 116.407 47.098C115.306 47.098 114.442 46.776 113.817 46.132C113.192 45.4787 112.879 44.5873 112.879 43.458C112.879 42.7393 113.019 42.1047 113.299 41.554C113.579 40.994 113.971 40.56 114.475 40.252C114.979 39.944 115.553 39.79 116.197 39.79C117.13 39.79 117.863 40.098 118.395 40.714C118.927 41.3207 119.193 42.1607 119.193 43.234V43.444ZM116.211 40.672C115.623 40.672 115.142 40.8493 114.769 41.204C114.405 41.5587 114.172 42.058 114.069 42.702H118.171C118.115 42.0393 117.919 41.5353 117.583 41.19C117.256 40.8447 116.799 40.672 116.211 40.672ZM123.294 47.098C122.109 47.098 121.171 46.7947 120.48 46.188L120.858 45.348C121.241 45.6467 121.628 45.8613 122.02 45.992C122.412 46.1227 122.851 46.188 123.336 46.188C123.868 46.188 124.27 46.0993 124.54 45.922C124.82 45.7353 124.96 45.4693 124.96 45.124C124.96 44.844 124.867 44.62 124.68 44.452C124.494 44.284 124.186 44.1533 123.756 44.06L122.566 43.78C121.978 43.6493 121.521 43.416 121.194 43.08C120.877 42.744 120.718 42.3427 120.718 41.876C120.718 41.26 120.966 40.7607 121.46 40.378C121.955 39.986 122.608 39.79 123.42 39.79C123.915 39.79 124.382 39.8693 124.82 40.028C125.259 40.1867 125.628 40.4153 125.926 40.714L125.548 41.54C124.886 40.9893 124.176 40.714 123.42 40.714C122.916 40.714 122.524 40.812 122.244 41.008C121.974 41.1947 121.838 41.4607 121.838 41.806C121.838 42.0953 121.922 42.324 122.09 42.492C122.268 42.66 122.548 42.7907 122.93 42.884L124.12 43.178C124.774 43.3273 125.259 43.5607 125.576 43.878C125.894 44.186 126.052 44.592 126.052 45.096C126.052 45.7027 125.805 46.188 125.31 46.552C124.816 46.916 124.144 47.098 123.294 47.098ZM131.374 39.79C131.99 39.79 132.536 39.944 133.012 40.252C133.488 40.56 133.856 40.994 134.118 41.554C134.379 42.1047 134.51 42.744 134.51 43.472C134.51 44.2 134.379 44.8393 134.118 45.39C133.856 45.9313 133.488 46.3513 133.012 46.65C132.545 46.9487 131.999 47.098 131.374 47.098C130.823 47.098 130.342 46.9767 129.932 46.734C129.521 46.4913 129.208 46.146 128.994 45.698V50.024H127.86V41.932C127.86 41.204 127.822 40.546 127.748 39.958H128.826L128.938 41.316C129.134 40.8307 129.442 40.4573 129.862 40.196C130.291 39.9253 130.795 39.79 131.374 39.79ZM131.164 46.16C131.854 46.16 132.386 45.9267 132.76 45.46C133.142 44.9933 133.334 44.3307 133.334 43.472C133.334 42.6133 133.142 41.946 132.76 41.47C132.377 40.9847 131.845 40.742 131.164 40.742C130.464 40.742 129.927 40.9753 129.554 41.442C129.18 41.9087 128.994 42.576 128.994 43.444C128.994 44.312 129.18 44.984 129.554 45.46C129.927 45.9267 130.464 46.16 131.164 46.16ZM142.148 43.444H136.982C136.991 44.34 137.197 45.0167 137.598 45.474C138.009 45.9313 138.601 46.16 139.376 46.16C140.197 46.16 140.953 45.8847 141.644 45.334L142.022 46.16C141.714 46.4493 141.317 46.678 140.832 46.846C140.356 47.014 139.866 47.098 139.362 47.098C138.261 47.098 137.397 46.776 136.772 46.132C136.147 45.4787 135.834 44.5873 135.834 43.458C135.834 42.7393 135.974 42.1047 136.254 41.554C136.534 40.994 136.926 40.56 137.43 40.252C137.934 39.944 138.508 39.79 139.152 39.79C140.085 39.79 140.818 40.098 141.35 40.714C141.882 41.3207 142.148 42.1607 142.148 43.234V43.444ZM139.166 40.672C138.578 40.672 138.097 40.8493 137.724 41.204C137.36 41.5587 137.127 42.058 137.024 42.702H141.126C141.07 42.0393 140.874 41.5353 140.538 41.19C140.211 40.8447 139.754 40.672 139.166 40.672ZM149.763 43.444H144.597C144.607 44.34 144.812 45.0167 145.213 45.474C145.624 45.9313 146.217 46.16 146.991 46.16C147.813 46.16 148.569 45.8847 149.259 45.334L149.637 46.16C149.329 46.4493 148.933 46.678 148.447 46.846C147.971 47.014 147.481 47.098 146.977 47.098C145.876 47.098 145.013 46.776 144.387 46.132C143.762 45.4787 143.449 44.5873 143.449 43.458C143.449 42.7393 143.589 42.1047 143.869 41.554C144.149 40.994 144.541 40.56 145.045 40.252C145.549 39.944 146.123 39.79 146.767 39.79C147.701 39.79 148.433 40.098 148.965 40.714C149.497 41.3207 149.763 42.1607 149.763 43.234V43.444ZM146.781 40.672C146.193 40.672 145.713 40.8493 145.339 41.204C144.975 41.5587 144.742 42.058 144.639 42.702H148.741C148.685 42.0393 148.489 41.5353 148.153 41.19C147.827 40.8447 147.369 40.672 146.781 40.672ZM157.687 36.696V47H156.567V45.726C156.361 46.1647 156.049 46.5053 155.629 46.748C155.218 46.9813 154.737 47.098 154.187 47.098C153.571 47.098 153.025 46.944 152.549 46.636C152.082 46.328 151.718 45.8987 151.457 45.348C151.195 44.788 151.065 44.144 151.065 43.416C151.065 42.688 151.191 42.0533 151.443 41.512C151.704 40.9613 152.073 40.5367 152.549 40.238C153.025 39.9393 153.571 39.79 154.187 39.79C154.737 39.79 155.218 39.9113 155.629 40.154C156.039 40.3873 156.347 40.7187 156.553 41.148V36.696H157.687ZM154.411 46.16C155.101 46.16 155.633 45.9267 156.007 45.46C156.38 44.984 156.567 44.312 156.567 43.444C156.567 42.5853 156.38 41.9227 156.007 41.456C155.633 40.98 155.101 40.742 154.411 40.742C153.72 40.742 153.179 40.9753 152.787 41.442C152.404 41.9087 152.213 42.5667 152.213 43.416C152.213 44.284 152.404 44.9607 152.787 45.446C153.179 45.922 153.72 46.16 154.411 46.16ZM163.53 39.958H164.664V47H163.53V39.958ZM164.804 36.976V38.264H163.418V36.976H164.804ZM169.245 47.098C168.06 47.098 167.122 46.7947 166.431 46.188L166.809 45.348C167.192 45.6467 167.579 45.8613 167.971 45.992C168.363 46.1227 168.802 46.188 169.287 46.188C169.819 46.188 170.221 46.0993 170.491 45.922C170.771 45.7353 170.911 45.4693 170.911 45.124C170.911 44.844 170.818 44.62 170.631 44.452C170.445 44.284 170.137 44.1533 169.707 44.06L168.517 43.78C167.929 43.6493 167.472 43.416 167.145 43.08C166.828 42.744 166.669 42.3427 166.669 41.876C166.669 41.26 166.917 40.7607 167.411 40.378C167.906 39.986 168.559 39.79 169.371 39.79C169.866 39.79 170.333 39.8693 170.771 40.028C171.21 40.1867 171.579 40.4153 171.877 40.714L171.499 41.54C170.837 40.9893 170.127 40.714 169.371 40.714C168.867 40.714 168.475 40.812 168.195 41.008C167.925 41.1947 167.789 41.4607 167.789 41.806C167.789 42.0953 167.873 42.324 168.041 42.492C168.219 42.66 168.499 42.7907 168.881 42.884L170.071 43.178C170.725 43.3273 171.21 43.5607 171.527 43.878C171.845 44.186 172.003 44.592 172.003 45.096C172.003 45.7027 171.756 46.188 171.261 46.552C170.767 46.916 170.095 47.098 169.245 47.098ZM179.841 47.098C178.656 47.098 177.718 46.7947 177.027 46.188L177.405 45.348C177.788 45.6467 178.175 45.8613 178.567 45.992C178.959 46.1227 179.398 46.188 179.883 46.188C180.415 46.188 180.816 46.0993 181.087 45.922C181.367 45.7353 181.507 45.4693 181.507 45.124C181.507 44.844 181.414 44.62 181.227 44.452C181.04 44.284 180.732 44.1533 180.303 44.06L179.113 43.78C178.525 43.6493 178.068 43.416 177.741 43.08C177.424 42.744 177.265 42.3427 177.265 41.876C177.265 41.26 177.512 40.7607 178.007 40.378C178.502 39.986 179.155 39.79 179.967 39.79C180.462 39.79 180.928 39.8693 181.367 40.028C181.806 40.1867 182.174 40.4153 182.473 40.714L182.095 41.54C181.432 40.9893 180.723 40.714 179.967 40.714C179.463 40.714 179.071 40.812 178.791 41.008C178.52 41.1947 178.385 41.4607 178.385 41.806C178.385 42.0953 178.469 42.324 178.637 42.492C178.814 42.66 179.094 42.7907 179.477 42.884L180.667 43.178C181.32 43.3273 181.806 43.5607 182.123 43.878C182.44 44.186 182.599 44.592 182.599 45.096C182.599 45.7027 182.352 46.188 181.857 46.552C181.362 46.916 180.69 47.098 179.841 47.098ZM184.406 36.696H185.54V47H184.406V36.696ZM190.654 47.098C189.992 47.098 189.408 46.9487 188.904 46.65C188.4 46.3513 188.008 45.9267 187.728 45.376C187.458 44.8253 187.322 44.1813 187.322 43.444C187.322 42.7067 187.458 42.0627 187.728 41.512C188.008 40.9613 188.4 40.5367 188.904 40.238C189.408 39.9393 189.992 39.79 190.654 39.79C191.317 39.79 191.9 39.9393 192.404 40.238C192.908 40.5367 193.296 40.9613 193.566 41.512C193.846 42.0627 193.986 42.7067 193.986 43.444C193.986 44.1813 193.846 44.8253 193.566 45.376C193.296 45.9267 192.908 46.3513 192.404 46.65C191.9 46.9487 191.317 47.098 190.654 47.098ZM190.654 46.16C191.354 46.16 191.891 45.9313 192.264 45.474C192.638 45.0073 192.824 44.3307 192.824 43.444C192.824 42.5853 192.633 41.9227 192.25 41.456C191.868 40.98 191.336 40.742 190.654 40.742C189.964 40.742 189.427 40.98 189.044 41.456C188.662 41.9227 188.47 42.5853 188.47 43.444C188.47 44.3307 188.657 45.0073 189.03 45.474C189.413 45.9313 189.954 46.16 190.654 46.16ZM206.368 39.958L203.764 47H202.672L200.656 41.498L198.654 47H197.562L194.958 39.958H196.148L198.136 45.642L200.194 39.958H201.188L203.218 45.656L205.248 39.958H206.368Z" fill="#5B5151"/>
<circle cx="41" cy="43" r="15" fill="white"/>
<mask id="mask0" mask-type="alpha" maskUnits="userSpaceOnUse" x="26" y="28" width="30" height="30">
<circle cx="41" cy="43" r="15" fill="white"/>
</mask>
<g mask="url(#mask0)">
<path d="M46.3763 40.5393C46.3763 42.0615 45.8304 43.3792 44.7535 44.4562C43.6766 45.5331 42.3587 46.079 40.8365 46.079H40.8338C39.3135 46.0785 37.9966 45.5326 36.9197 44.4562C35.8426 43.3792 35.2969 42.0615 35.2969 40.5393C35.2969 39.0175 35.8426 37.6997 36.9197 36.6228C37.996 35.5463 39.313 35.0005 40.8338 35H40.8365C42.3582 35 43.676 35.5459 44.7535 36.6228C45.8304 37.6997 46.3763 39.0175 46.3763 40.5393Z" fill="#FFD589"/>
<path d="M50.5759 54.0444C50.5759 55.2454 50.1939 56.2177 49.4415 56.9338C48.6978 57.6415 47.7142 58 46.5184 58H35.4437C34.2479 58 33.2643 57.6415 32.5212 56.9338C31.7682 56.2172 31.3867 55.245 31.3867 54.0444C31.3867 53.5826 31.402 53.1256 31.4325 52.6862C31.4636 52.237 31.5264 51.7482 31.619 51.2324C31.7124 50.7125 31.8324 50.221 31.9761 49.7718C32.1253 49.3068 32.3271 48.8481 32.5768 48.4087C32.8362 47.9526 33.1408 47.5553 33.4823 47.2282C33.8402 46.8859 34.2779 46.6109 34.7838 46.4105C35.2879 46.2112 35.8468 46.1101 36.4448 46.1101C36.6794 46.1101 36.9067 46.2061 37.3447 46.4914C37.6188 46.6702 37.9346 46.8738 38.2833 47.0966C38.5844 47.2886 38.9922 47.4686 39.4963 47.6313C39.9394 47.7747 40.3892 47.8547 40.8335 47.8686C40.8824 47.8703 40.9314 47.8712 40.9803 47.8712C41.4738 47.8712 41.9728 47.7903 42.4649 47.6313C42.969 47.4686 43.3774 47.2886 43.6783 47.0966C44.0306 46.8715 44.3465 46.6681 44.6166 46.4919C45.0549 46.2061 45.2818 46.1101 45.5169 46.1101C46.1144 46.1101 46.6733 46.2112 47.1778 46.4105C47.6837 46.6109 48.1213 46.8864 48.479 47.2282C48.821 47.5553 49.1256 47.9526 49.3848 48.4087C49.6347 48.8484 49.8368 49.3068 49.9854 49.7712C50.1293 50.221 50.2497 50.7125 50.3431 51.2328C50.4352 51.749 50.4982 52.2379 50.5291 52.6859C50.5601 53.1239 50.5754 53.5808 50.5759 54.0444Z" fill="#D55A5F"/>
</g>
<path d="M50 112C50 100.954 58.9543 92 70 92H323C334.046 92 343 100.954 343 112V152H70C58.9543 152 50 143.046 50 132V112Z" fill="#FCFCFC"/>
<path d="M108.816 113.968V118H107.668V113.954L103.748 108.032H105.092L108.256 112.932L111.42 108.032H112.736L108.816 113.968ZM115.428 118.098C114.765 118.098 114.182 117.949 113.678 117.65C113.174 117.351 112.782 116.927 112.502 116.376C112.231 115.825 112.096 115.181 112.096 114.444C112.096 113.707 112.231 113.063 112.502 112.512C112.782 111.961 113.174 111.537 113.678 111.238C114.182 110.939 114.765 110.79 115.428 110.79C116.09 110.79 116.674 110.939 117.178 111.238C117.682 111.537 118.069 111.961 118.34 112.512C118.62 113.063 118.76 113.707 118.76 114.444C118.76 115.181 118.62 115.825 118.34 116.376C118.069 116.927 117.682 117.351 117.178 117.65C116.674 117.949 116.09 118.098 115.428 118.098ZM115.428 117.16C116.128 117.16 116.664 116.931 117.038 116.474C117.411 116.007 117.598 115.331 117.598 114.444C117.598 113.585 117.406 112.923 117.024 112.456C116.641 111.98 116.109 111.742 115.428 111.742C114.737 111.742 114.2 111.98 113.818 112.456C113.435 112.923 113.244 113.585 113.244 114.444C113.244 115.331 113.43 116.007 113.804 116.474C114.186 116.931 114.728 117.16 115.428 117.16ZM126.422 110.958V118H125.316V116.782C125.092 117.211 124.779 117.538 124.378 117.762C123.976 117.986 123.524 118.098 123.02 118.098C122.189 118.098 121.559 117.865 121.13 117.398C120.7 116.931 120.486 116.241 120.486 115.326V110.958H121.62V115.298C121.62 115.933 121.75 116.399 122.012 116.698C122.273 116.997 122.67 117.146 123.202 117.146C123.827 117.146 124.331 116.945 124.714 116.544C125.096 116.133 125.288 115.597 125.288 114.934V110.958H126.422ZM135.772 110.79C137.461 110.79 138.306 111.719 138.306 113.576V118H137.172V113.632C137.172 112.979 137.041 112.503 136.78 112.204C136.519 111.896 136.108 111.742 135.548 111.742C134.895 111.742 134.372 111.943 133.98 112.344C133.588 112.745 133.392 113.287 133.392 113.968V118H132.258V107.696H133.392V112.106C133.616 111.677 133.933 111.35 134.344 111.126C134.764 110.902 135.24 110.79 135.772 110.79ZM146.649 110.958V118H145.529V116.726C145.324 117.165 145.011 117.505 144.591 117.748C144.181 117.981 143.7 118.098 143.149 118.098C142.524 118.098 141.973 117.949 141.497 117.65C141.031 117.351 140.667 116.931 140.405 116.39C140.153 115.839 140.027 115.2 140.027 114.472C140.027 113.744 140.158 113.105 140.419 112.554C140.681 111.994 141.045 111.56 141.511 111.252C141.987 110.944 142.533 110.79 143.149 110.79C143.7 110.79 144.181 110.911 144.591 111.154C145.002 111.397 145.315 111.737 145.529 112.176V110.958H146.649ZM143.373 117.16C144.064 117.16 144.596 116.927 144.969 116.46C145.343 115.984 145.529 115.312 145.529 114.444C145.529 113.576 145.343 112.909 144.969 112.442C144.596 111.975 144.064 111.742 143.373 111.742C142.683 111.742 142.141 111.985 141.749 112.47C141.367 112.946 141.175 113.613 141.175 114.472C141.175 115.331 141.367 115.993 141.749 116.46C142.132 116.927 142.673 117.16 143.373 117.16ZM155.03 110.972L151.992 118H150.914L147.918 110.972H149.108L151.488 116.768L153.896 110.972H155.03ZM162.091 114.444H156.925C156.935 115.34 157.14 116.017 157.541 116.474C157.952 116.931 158.545 117.16 159.319 117.16C160.141 117.16 160.897 116.885 161.587 116.334L161.965 117.16C161.657 117.449 161.261 117.678 160.775 117.846C160.299 118.014 159.809 118.098 159.305 118.098C158.204 118.098 157.341 117.776 156.715 117.132C156.09 116.479 155.777 115.587 155.777 114.458C155.777 113.739 155.917 113.105 156.197 112.554C156.477 111.994 156.869 111.56 157.373 111.252C157.877 110.944 158.451 110.79 159.095 110.79C160.029 110.79 160.761 111.098 161.293 111.714C161.825 112.321 162.091 113.161 162.091 114.234V114.444ZM159.109 111.672C158.521 111.672 158.041 111.849 157.667 112.204C157.303 112.559 157.07 113.058 156.967 113.702H161.069C161.013 113.039 160.817 112.535 160.481 112.19C160.155 111.845 159.697 111.672 159.109 111.672ZM169.843 118.098C168.658 118.098 167.72 117.795 167.029 117.188L167.407 116.348C167.79 116.647 168.177 116.861 168.569 116.992C168.961 117.123 169.4 117.188 169.885 117.188C170.417 117.188 170.818 117.099 171.089 116.922C171.369 116.735 171.509 116.469 171.509 116.124C171.509 115.844 171.416 115.62 171.229 115.452C171.042 115.284 170.734 115.153 170.305 115.06L169.115 114.78C168.527 114.649 168.07 114.416 167.743 114.08C167.426 113.744 167.267 113.343 167.267 112.876C167.267 112.26 167.514 111.761 168.009 111.378C168.504 110.986 169.157 110.79 169.969 110.79C170.464 110.79 170.93 110.869 171.369 111.028C171.808 111.187 172.176 111.415 172.475 111.714L172.097 112.54C171.434 111.989 170.725 111.714 169.969 111.714C169.465 111.714 169.073 111.812 168.793 112.008C168.522 112.195 168.387 112.461 168.387 112.806C168.387 113.095 168.471 113.324 168.639 113.492C168.816 113.66 169.096 113.791 169.479 113.884L170.669 114.178C171.322 114.327 171.808 114.561 172.125 114.878C172.442 115.186 172.601 115.592 172.601 116.096C172.601 116.703 172.354 117.188 171.859 117.552C171.364 117.916 170.692 118.098 169.843 118.098ZM180.302 110.958V118H179.196V116.782C178.972 117.211 178.66 117.538 178.258 117.762C177.857 117.986 177.404 118.098 176.9 118.098C176.07 118.098 175.44 117.865 175.01 117.398C174.581 116.931 174.366 116.241 174.366 115.326V110.958H175.5V115.298C175.5 115.933 175.631 116.399 175.892 116.698C176.154 116.997 176.55 117.146 177.082 117.146C177.708 117.146 178.212 116.945 178.594 116.544C178.977 116.133 179.168 115.597 179.168 114.934V110.958H180.302ZM186.002 110.79C186.618 110.79 187.164 110.944 187.64 111.252C188.116 111.56 188.485 111.994 188.746 112.554C189.008 113.105 189.138 113.744 189.138 114.472C189.138 115.2 189.008 115.839 188.746 116.39C188.485 116.931 188.116 117.351 187.64 117.65C187.174 117.949 186.628 118.098 186.002 118.098C185.452 118.098 184.971 117.977 184.56 117.734C184.15 117.491 183.837 117.146 183.622 116.698V121.024H182.488V112.932C182.488 112.204 182.451 111.546 182.376 110.958H183.454L183.566 112.316C183.762 111.831 184.07 111.457 184.49 111.196C184.92 110.925 185.424 110.79 186.002 110.79ZM185.792 117.16C186.483 117.16 187.015 116.927 187.388 116.46C187.771 115.993 187.962 115.331 187.962 114.472C187.962 113.613 187.771 112.946 187.388 112.47C187.006 111.985 186.474 111.742 185.792 111.742C185.092 111.742 184.556 111.975 184.182 112.442C183.809 112.909 183.622 113.576 183.622 114.444C183.622 115.312 183.809 115.984 184.182 116.46C184.556 116.927 185.092 117.16 185.792 117.16ZM196.777 114.444H191.611C191.62 115.34 191.826 116.017 192.227 116.474C192.638 116.931 193.23 117.16 194.005 117.16C194.826 117.16 195.582 116.885 196.273 116.334L196.651 117.16C196.343 117.449 195.946 117.678 195.461 117.846C194.985 118.014 194.495 118.098 193.991 118.098C192.89 118.098 192.026 117.776 191.401 117.132C190.776 116.479 190.463 115.587 190.463 114.458C190.463 113.739 190.603 113.105 190.883 112.554C191.163 111.994 191.555 111.56 192.059 111.252C192.563 110.944 193.137 110.79 193.781 110.79C194.714 110.79 195.447 111.098 195.979 111.714C196.511 112.321 196.777 113.161 196.777 114.234V114.444ZM193.795 111.672C193.207 111.672 192.726 111.849 192.353 112.204C191.989 112.559 191.756 113.058 191.653 113.702H195.755C195.699 113.039 195.503 112.535 195.167 112.19C194.84 111.845 194.383 111.672 193.795 111.672ZM201.774 110.79C202.008 110.79 202.222 110.818 202.418 110.874L202.39 111.91C202.176 111.835 201.928 111.798 201.648 111.798C200.967 111.798 200.458 112.013 200.122 112.442C199.796 112.862 199.632 113.375 199.632 113.982V118H198.498V112.932C198.498 112.204 198.461 111.546 198.386 110.958H199.464L199.576 112.26C199.754 111.784 200.038 111.42 200.43 111.168C200.822 110.916 201.27 110.79 201.774 110.79ZM210.735 110.79C212.424 110.79 213.269 111.719 213.269 113.576V118H212.135V113.632C212.135 112.979 212.004 112.503 211.743 112.204C211.482 111.896 211.071 111.742 210.511 111.742C209.858 111.742 209.335 111.943 208.943 112.344C208.551 112.745 208.355 113.287 208.355 113.968V118H207.221V107.696H208.355V112.106C208.579 111.677 208.896 111.35 209.307 111.126C209.727 110.902 210.203 110.79 210.735 110.79ZM215.41 110.958H216.544V118H215.41V110.958ZM216.684 107.976V109.264H215.298V107.976H216.684ZM225.018 110.958V117.944C225.018 118.989 224.748 119.778 224.206 120.31C223.674 120.851 222.886 121.122 221.84 121.122C220.767 121.122 219.843 120.879 219.068 120.394L219.264 119.47C219.712 119.722 220.132 119.904 220.524 120.016C220.926 120.128 221.364 120.184 221.84 120.184C222.522 120.184 223.035 120.002 223.38 119.638C223.726 119.283 223.898 118.751 223.898 118.042V116.376C223.684 116.824 223.366 117.174 222.946 117.426C222.536 117.669 222.046 117.79 221.476 117.79C220.86 117.79 220.31 117.645 219.824 117.356C219.348 117.067 218.98 116.656 218.718 116.124C218.457 115.592 218.326 114.981 218.326 114.29C218.326 113.599 218.457 112.988 218.718 112.456C218.98 111.924 219.348 111.513 219.824 111.224C220.31 110.935 220.86 110.79 221.476 110.79C222.036 110.79 222.522 110.911 222.932 111.154C223.352 111.397 223.67 111.737 223.884 112.176V110.958H225.018ZM221.7 116.838C222.382 116.838 222.914 116.614 223.296 116.166C223.688 115.709 223.884 115.083 223.884 114.29C223.884 113.497 223.688 112.876 223.296 112.428C222.914 111.971 222.382 111.742 221.7 111.742C221.01 111.742 220.464 111.971 220.062 112.428C219.67 112.876 219.474 113.497 219.474 114.29C219.474 115.083 219.67 115.709 220.062 116.166C220.464 116.614 221.01 116.838 221.7 116.838ZM230.71 110.79C232.399 110.79 233.244 111.719 233.244 113.576V118H232.11V113.632C232.11 112.979 231.979 112.503 231.718 112.204C231.456 111.896 231.046 111.742 230.486 111.742C229.832 111.742 229.31 111.943 228.918 112.344C228.526 112.745 228.33 113.287 228.33 113.968V118H227.196V107.696H228.33V112.106C228.554 111.677 228.871 111.35 229.282 111.126C229.702 110.902 230.178 110.79 230.71 110.79ZM242.549 110.79C243.165 110.79 243.711 110.944 244.187 111.252C244.663 111.56 245.032 111.994 245.293 112.554C245.555 113.105 245.685 113.744 245.685 114.472C245.685 115.2 245.555 115.839 245.293 116.39C245.032 116.931 244.663 117.351 244.187 117.65C243.721 117.949 243.175 118.098 242.549 118.098C241.999 118.098 241.518 117.977 241.107 117.734C240.697 117.491 240.384 117.146 240.169 116.698V121.024H239.035V112.932C239.035 112.204 238.998 111.546 238.923 110.958H240.001L240.113 112.316C240.309 111.831 240.617 111.457 241.037 111.196C241.467 110.925 241.971 110.79 242.549 110.79ZM242.339 117.16C243.03 117.16 243.562 116.927 243.935 116.46C244.318 115.993 244.509 115.331 244.509 114.472C244.509 113.613 244.318 112.946 243.935 112.47C243.553 111.985 243.021 111.742 242.339 111.742C241.639 111.742 241.103 111.975 240.729 112.442C240.356 112.909 240.169 113.576 240.169 114.444C240.169 115.312 240.356 115.984 240.729 116.46C241.103 116.927 241.639 117.16 242.339 117.16ZM253.632 110.958V118H252.512V116.726C252.307 117.165 251.994 117.505 251.574 117.748C251.163 117.981 250.683 118.098 250.132 118.098C249.507 118.098 248.956 117.949 248.48 117.65C248.013 117.351 247.649 116.931 247.388 116.39C247.136 115.839 247.01 115.2 247.01 114.472C247.01 113.744 247.141 113.105 247.402 112.554C247.663 111.994 248.027 111.56 248.494 111.252C248.97 110.944 249.516 110.79 250.132 110.79C250.683 110.79 251.163 110.911 251.574 111.154C251.985 111.397 252.297 111.737 252.512 112.176V110.958H253.632ZM250.356 117.16C251.047 117.16 251.579 116.927 251.952 116.46C252.325 115.984 252.512 115.312 252.512 114.444C252.512 113.576 252.325 112.909 251.952 112.442C251.579 111.975 251.047 111.742 250.356 111.742C249.665 111.742 249.124 111.985 248.732 112.47C248.349 112.946 248.158 113.613 248.158 114.472C248.158 115.331 248.349 115.993 248.732 116.46C249.115 116.927 249.656 117.16 250.356 117.16ZM262.096 110.958V117.944C262.096 118.989 261.826 119.778 261.284 120.31C260.752 120.851 259.964 121.122 258.918 121.122C257.845 121.122 256.921 120.879 256.146 120.394L256.342 119.47C256.79 119.722 257.21 119.904 257.602 120.016C258.004 120.128 258.442 120.184 258.918 120.184C259.6 120.184 260.113 120.002 260.458 119.638C260.804 119.283 260.976 118.751 260.976 118.042V116.376C260.762 116.824 260.444 117.174 260.024 117.426C259.614 117.669 259.124 117.79 258.554 117.79C257.938 117.79 257.388 117.645 256.902 117.356C256.426 117.067 256.058 116.656 255.796 116.124C255.535 115.592 255.404 114.981 255.404 114.29C255.404 113.599 255.535 112.988 255.796 112.456C256.058 111.924 256.426 111.513 256.902 111.224C257.388 110.935 257.938 110.79 258.554 110.79C259.114 110.79 259.6 110.911 260.01 111.154C260.43 111.397 260.748 111.737 260.962 112.176V110.958H262.096ZM258.778 116.838C259.46 116.838 259.992 116.614 260.374 116.166C260.766 115.709 260.962 115.083 260.962 114.29C260.962 113.497 260.766 112.876 260.374 112.428C259.992 111.971 259.46 111.742 258.778 111.742C258.088 111.742 257.542 111.971 257.14 112.428C256.748 112.876 256.552 113.497 256.552 114.29C256.552 115.083 256.748 115.709 257.14 116.166C257.542 116.614 258.088 116.838 258.778 116.838ZM270.168 114.444H265.002C265.011 115.34 265.216 116.017 265.618 116.474C266.028 116.931 266.621 117.16 267.396 117.16C268.217 117.16 268.973 116.885 269.664 116.334L270.042 117.16C269.734 117.449 269.337 117.678 268.852 117.846C268.376 118.014 267.886 118.098 267.382 118.098C266.28 118.098 265.417 117.776 264.792 117.132C264.166 116.479 263.854 115.587 263.854 114.458C263.854 113.739 263.994 113.105 264.274 112.554C264.554 111.994 264.946 111.56 265.45 111.252C265.954 110.944 266.528 110.79 267.172 110.79C268.105 110.79 268.838 111.098 269.37 111.714C269.902 112.321 270.168 113.161 270.168 114.234V114.444ZM267.186 111.672C266.598 111.672 266.117 111.849 265.744 112.204C265.38 112.559 265.146 113.058 265.044 113.702H269.146C269.09 113.039 268.894 112.535 268.558 112.19C268.231 111.845 267.774 111.672 267.186 111.672ZM274.269 118.098C273.084 118.098 272.146 117.795 271.455 117.188L271.833 116.348C272.216 116.647 272.603 116.861 272.995 116.992C273.387 117.123 273.826 117.188 274.311 117.188C274.843 117.188 275.244 117.099 275.515 116.922C275.795 116.735 275.935 116.469 275.935 116.124C275.935 115.844 275.842 115.62 275.655 115.452C275.468 115.284 275.16 115.153 274.731 115.06L273.541 114.78C272.953 114.649 272.496 114.416 272.169 114.08C271.852 113.744 271.693 113.343 271.693 112.876C271.693 112.26 271.94 111.761 272.435 111.378C272.93 110.986 273.583 110.79 274.395 110.79C274.89 110.79 275.356 110.869 275.795 111.028C276.234 111.187 276.602 111.415 276.901 111.714L276.523 112.54C275.86 111.989 275.151 111.714 274.395 111.714C273.891 111.714 273.499 111.812 273.219 112.008C272.948 112.195 272.813 112.461 272.813 112.806C272.813 113.095 272.897 113.324 273.065 113.492C273.242 113.66 273.522 113.791 273.905 113.884L275.095 114.178C275.748 114.327 276.234 114.561 276.551 114.878C276.868 115.186 277.027 115.592 277.027 116.096C277.027 116.703 276.78 117.188 276.285 117.552C275.79 117.916 275.118 118.098 274.269 118.098ZM282.348 110.79C282.964 110.79 283.51 110.944 283.986 111.252C284.462 111.56 284.831 111.994 285.092 112.554C285.354 113.105 285.484 113.744 285.484 114.472C285.484 115.2 285.354 115.839 285.092 116.39C284.831 116.931 284.462 117.351 283.986 117.65C283.52 117.949 282.974 118.098 282.348 118.098C281.798 118.098 281.317 117.977 280.906 117.734C280.496 117.491 280.183 117.146 279.968 116.698V121.024H278.834V112.932C278.834 112.204 278.797 111.546 278.722 110.958H279.8L279.912 112.316C280.108 111.831 280.416 111.457 280.836 111.196C281.266 110.925 281.77 110.79 282.348 110.79ZM282.138 117.16C282.829 117.16 283.361 116.927 283.734 116.46C284.117 115.993 284.308 115.331 284.308 114.472C284.308 113.613 284.117 112.946 283.734 112.47C283.352 111.985 282.82 111.742 282.138 111.742C281.438 111.742 280.902 111.975 280.528 112.442C280.155 112.909 279.968 113.576 279.968 114.444C279.968 115.312 280.155 115.984 280.528 116.46C280.902 116.927 281.438 117.16 282.138 117.16ZM293.123 114.444H287.957C287.966 115.34 288.171 116.017 288.573 116.474C288.983 116.931 289.576 117.16 290.351 117.16C291.172 117.16 291.928 116.885 292.619 116.334L292.997 117.16C292.689 117.449 292.292 117.678 291.807 117.846C291.331 118.014 290.841 118.098 290.337 118.098C289.235 118.098 288.372 117.776 287.747 117.132C287.121 116.479 286.809 115.587 286.809 114.458C286.809 113.739 286.949 113.105 287.229 112.554C287.509 111.994 287.901 111.56 288.405 111.252C288.909 110.944 289.483 110.79 290.127 110.79C291.06 110.79 291.793 111.098 292.325 111.714C292.857 112.321 293.123 113.161 293.123 114.234V114.444ZM290.141 111.672C289.553 111.672 289.072 111.849 288.699 112.204C288.335 112.559 288.101 113.058 287.999 113.702H292.101C292.045 113.039 291.849 112.535 291.513 112.19C291.186 111.845 290.729 111.672 290.141 111.672ZM300.738 114.444H295.572C295.581 115.34 295.787 116.017 296.188 116.474C296.599 116.931 297.191 117.16 297.966 117.16C298.787 117.16 299.543 116.885 300.234 116.334L300.612 117.16C300.304 117.449 299.907 117.678 299.422 117.846C298.946 118.014 298.456 118.098 297.952 118.098C296.851 118.098 295.987 117.776 295.362 117.132C294.737 116.479 294.424 115.587 294.424 114.458C294.424 113.739 294.564 113.105 294.844 112.554C295.124 111.994 295.516 111.56 296.02 111.252C296.524 110.944 297.098 110.79 297.742 110.79C298.675 110.79 299.408 111.098 299.94 111.714C300.472 112.321 300.738 113.161 300.738 114.234V114.444ZM297.756 111.672C297.168 111.672 296.687 111.849 296.314 112.204C295.95 112.559 295.717 113.058 295.614 113.702H299.716C299.66 113.039 299.464 112.535 299.128 112.19C298.801 111.845 298.344 111.672 297.756 111.672ZM308.661 107.696V118H307.541V116.726C307.336 117.165 307.023 117.505 306.603 117.748C306.193 117.981 305.712 118.098 305.161 118.098C304.545 118.098 303.999 117.944 303.523 117.636C303.057 117.328 302.693 116.899 302.431 116.348C302.17 115.788 302.039 115.144 302.039 114.416C302.039 113.688 302.165 113.053 302.417 112.512C302.679 111.961 303.047 111.537 303.523 111.238C303.999 110.939 304.545 110.79 305.161 110.79C305.712 110.79 306.193 110.911 306.603 111.154C307.014 111.387 307.322 111.719 307.527 112.148V107.696H308.661ZM305.385 117.16C306.076 117.16 306.608 116.927 306.981 116.46C307.355 115.984 307.541 115.312 307.541 114.444C307.541 113.585 307.355 112.923 306.981 112.456C306.608 111.98 306.076 111.742 305.385 111.742C304.695 111.742 304.153 111.975 303.761 112.442C303.379 112.909 303.187 113.567 303.187 114.416C303.187 115.284 303.379 115.961 303.761 116.446C304.153 116.922 304.695 117.16 305.385 117.16ZM112.256 128.79C112.872 128.79 113.418 128.944 113.894 129.252C114.37 129.56 114.739 129.994 115 130.554C115.262 131.105 115.392 131.744 115.392 132.472C115.392 133.2 115.262 133.839 115 134.39C114.739 134.931 114.37 135.351 113.894 135.65C113.428 135.949 112.882 136.098 112.256 136.098C111.706 136.098 111.225 135.977 110.814 135.734C110.404 135.491 110.091 135.146 109.876 134.698V139.024H108.742V130.932C108.742 130.204 108.705 129.546 108.63 128.958H109.708L109.82 130.316C110.016 129.831 110.324 129.457 110.744 129.196C111.174 128.925 111.678 128.79 112.256 128.79ZM112.046 135.16C112.737 135.16 113.269 134.927 113.642 134.46C114.025 133.993 114.216 133.331 114.216 132.472C114.216 131.613 114.025 130.946 113.642 130.47C113.26 129.985 112.728 129.742 112.046 129.742C111.346 129.742 110.81 129.975 110.436 130.442C110.063 130.909 109.876 131.576 109.876 132.444C109.876 133.312 110.063 133.984 110.436 134.46C110.81 134.927 111.346 135.16 112.046 135.16ZM123.339 128.958V136H122.219V134.726C122.014 135.165 121.701 135.505 121.281 135.748C120.87 135.981 120.39 136.098 119.839 136.098C119.214 136.098 118.663 135.949 118.187 135.65C117.72 135.351 117.356 134.931 117.095 134.39C116.843 133.839 116.717 133.2 116.717 132.472C116.717 131.744 116.848 131.105 117.109 130.554C117.37 129.994 117.734 129.56 118.201 129.252C118.677 128.944 119.223 128.79 119.839 128.79C120.39 128.79 120.87 128.911 121.281 129.154C121.692 129.397 122.004 129.737 122.219 130.176V128.958H123.339ZM120.063 135.16C120.754 135.16 121.286 134.927 121.659 134.46C122.032 133.984 122.219 133.312 122.219 132.444C122.219 131.576 122.032 130.909 121.659 130.442C121.286 129.975 120.754 129.742 120.063 129.742C119.372 129.742 118.831 129.985 118.439 130.47C118.056 130.946 117.865 131.613 117.865 132.472C117.865 133.331 118.056 133.993 118.439 134.46C118.822 134.927 119.363 135.16 120.063 135.16ZM131.803 128.958V135.944C131.803 136.989 131.533 137.778 130.991 138.31C130.459 138.851 129.671 139.122 128.625 139.122C127.552 139.122 126.628 138.879 125.853 138.394L126.049 137.47C126.497 137.722 126.917 137.904 127.309 138.016C127.711 138.128 128.149 138.184 128.625 138.184C129.307 138.184 129.82 138.002 130.165 137.638C130.511 137.283 130.683 136.751 130.683 136.042V134.376C130.469 134.824 130.151 135.174 129.731 135.426C129.321 135.669 128.831 135.79 128.261 135.79C127.645 135.79 127.095 135.645 126.609 135.356C126.133 135.067 125.765 134.656 125.503 134.124C125.242 133.592 125.111 132.981 125.111 132.29C125.111 131.599 125.242 130.988 125.503 130.456C125.765 129.924 126.133 129.513 126.609 129.224C127.095 128.935 127.645 128.79 128.261 128.79C128.821 128.79 129.307 128.911 129.717 129.154C130.137 129.397 130.455 129.737 130.669 130.176V128.958H131.803ZM128.485 134.838C129.167 134.838 129.699 134.614 130.081 134.166C130.473 133.709 130.669 133.083 130.669 132.29C130.669 131.497 130.473 130.876 130.081 130.428C129.699 129.971 129.167 129.742 128.485 129.742C127.795 129.742 127.249 129.971 126.847 130.428C126.455 130.876 126.259 131.497 126.259 132.29C126.259 133.083 126.455 133.709 126.847 134.166C127.249 134.614 127.795 134.838 128.485 134.838ZM139.875 132.444H134.709C134.718 133.34 134.923 134.017 135.325 134.474C135.735 134.931 136.328 135.16 137.103 135.16C137.924 135.16 138.68 134.885 139.371 134.334L139.749 135.16C139.441 135.449 139.044 135.678 138.559 135.846C138.083 136.014 137.593 136.098 137.089 136.098C135.987 136.098 135.124 135.776 134.499 135.132C133.873 134.479 133.561 133.587 133.561 132.458C133.561 131.739 133.701 131.105 133.981 130.554C134.261 129.994 134.653 129.56 135.157 129.252C135.661 128.944 136.235 128.79 136.879 128.79C137.812 128.79 138.545 129.098 139.077 129.714C139.609 130.321 139.875 131.161 139.875 132.234V132.444ZM136.893 129.672C136.305 129.672 135.824 129.849 135.451 130.204C135.087 130.559 134.853 131.058 134.751 131.702H138.853C138.797 131.039 138.601 130.535 138.265 130.19C137.938 129.845 137.481 129.672 136.893 129.672ZM143.976 136.098C142.791 136.098 141.853 135.795 141.162 135.188L141.54 134.348C141.923 134.647 142.31 134.861 142.702 134.992C143.094 135.123 143.533 135.188 144.018 135.188C144.55 135.188 144.951 135.099 145.222 134.922C145.502 134.735 145.642 134.469 145.642 134.124C145.642 133.844 145.549 133.62 145.362 133.452C145.175 133.284 144.867 133.153 144.438 133.06L143.248 132.78C142.66 132.649 142.203 132.416 141.876 132.08C141.559 131.744 141.4 131.343 141.4 130.876C141.4 130.26 141.647 129.761 142.142 129.378C142.637 128.986 143.29 128.79 144.102 128.79C144.597 128.79 145.063 128.869 145.502 129.028C145.941 129.187 146.309 129.415 146.608 129.714L146.23 130.54C145.567 129.989 144.858 129.714 144.102 129.714C143.598 129.714 143.206 129.812 142.926 130.008C142.655 130.195 142.52 130.461 142.52 130.806C142.52 131.095 142.604 131.324 142.772 131.492C142.949 131.66 143.229 131.791 143.612 131.884L144.802 132.178C145.455 132.327 145.941 132.561 146.258 132.878C146.575 133.186 146.734 133.592 146.734 134.096C146.734 134.703 146.487 135.188 145.992 135.552C145.497 135.916 144.825 136.098 143.976 136.098Z" fill="#5B5151"/>
<circle cx="81" cy="119" r="15" fill="white"/>
<mask id="mask1" mask-type="alpha" maskUnits="userSpaceOnUse" x="66" y="104" width="30" height="30">
<circle cx="81" cy="119" r="15" fill="#F4F4EA"/>
</mask>
<g mask="url(#mask1)">
<path fill-rule="evenodd" clip-rule="evenodd" d="M86.9322 111.298C85.524 115.565 84.165 119.437 82.785 123.704C82.7024 124.067 82.5194 124.399 82.2569 124.662C81.8951 124.926 81.4494 125.048 81.0035 125.007H79.3418L80.2853 127.274H82.8976C83.252 127.296 83.6053 127.216 83.9158 127.044C84.2264 126.872 84.4814 126.614 84.6509 126.302C84.7643 126.09 84.8609 125.868 84.9396 125.641L89.798 111.298H86.9322Z" fill="#635452"/>
<path fill-rule="evenodd" clip-rule="evenodd" d="M77.376 119.043H79.087C79.2676 119.052 79.4378 119.13 79.5623 119.261C79.6868 119.392 79.7562 119.566 79.7559 119.747V119.902C79.7562 120.083 79.6868 120.257 79.5623 120.388C79.4378 120.519 79.2676 120.597 79.087 120.606H77.376C77.1893 120.606 77.0102 120.532 76.8781 120.4C76.7461 120.268 76.6719 120.089 76.6719 119.902V119.747C76.6719 119.56 76.7461 119.381 76.8781 119.249C77.0102 119.117 77.1893 119.043 77.376 119.043Z" fill="#F0AD00"/>
<path fill-rule="evenodd" clip-rule="evenodd" d="M80.8545 119.043H82.643C82.8297 119.043 83.0088 119.117 83.1409 119.249C83.2729 119.381 83.3471 119.56 83.3471 119.747V119.902C83.3471 120.089 83.2729 120.268 83.1409 120.4C83.0088 120.532 82.8297 120.606 82.643 120.606H80.8545C80.6678 120.606 80.4887 120.532 80.3566 120.4C80.2246 120.268 80.1504 120.089 80.1504 119.902V119.747C80.1504 119.56 80.2246 119.381 80.3566 119.249C80.4887 119.117 80.6678 119.043 80.8545 119.043Z" fill="#E1760C"/>
<path fill-rule="evenodd" clip-rule="evenodd" d="M76.7354 117.114H78.5872C78.768 117.113 78.942 117.183 79.0731 117.307C79.2041 117.432 79.2823 117.602 79.2913 117.782V117.944C79.2913 118.131 79.2172 118.31 79.0851 118.442C78.9531 118.574 78.774 118.649 78.5872 118.649H76.7354C76.5486 118.649 76.3695 118.574 76.2375 118.442C76.1054 118.31 76.0312 118.131 76.0312 117.944V117.782C76.0403 117.602 76.1184 117.432 76.2495 117.307C76.3806 117.183 76.5546 117.113 76.7354 117.114Z" fill="#E1760C"/>
<path fill-rule="evenodd" clip-rule="evenodd" d="M80.3682 117.114H83.3114C83.4861 117.122 83.6513 117.195 83.7749 117.319C83.8986 117.443 83.9718 117.608 83.9803 117.782V117.944C83.9806 118.125 83.9112 118.299 83.7867 118.43C83.6622 118.561 83.492 118.639 83.3114 118.649H80.3682C80.1814 118.649 80.0023 118.574 79.8703 118.442C79.7382 118.31 79.6641 118.131 79.6641 117.944V117.782C79.6731 117.602 79.7513 117.432 79.8823 117.307C80.0134 117.183 80.1874 117.113 80.3682 117.114Z" fill="#F0AD00"/>
<path fill-rule="evenodd" clip-rule="evenodd" d="M80.1026 120.986H82.0107C82.1913 120.995 82.3615 121.074 82.486 121.205C82.6105 121.336 82.6799 121.51 82.6797 121.69V121.859C82.6799 122.04 82.6105 122.214 82.486 122.345C82.3615 122.476 82.1913 122.555 82.0107 122.564H80.1026C79.9158 122.564 79.7367 122.489 79.6047 122.357C79.4726 122.225 79.3984 122.046 79.3984 121.859V121.697C79.3984 121.511 79.4726 121.332 79.6047 121.2C79.7367 121.068 79.9158 120.993 80.1026 120.993V120.986Z" fill="#D65359"/>
<path fill-rule="evenodd" clip-rule="evenodd" d="M79.0166 122.923H81.3684C81.5551 122.923 81.7342 122.997 81.8663 123.129C81.9983 123.261 82.0725 123.44 82.0725 123.627V123.789C82.0725 123.976 81.9983 124.155 81.8663 124.287C81.7342 124.419 81.5551 124.493 81.3684 124.493H79.0166C78.8299 124.493 78.6508 124.419 78.5187 124.287C78.3867 124.155 78.3125 123.976 78.3125 123.789V123.627C78.3125 123.44 78.3867 123.261 78.5187 123.129C78.6508 122.997 78.8299 122.923 79.0166 122.923Z" fill="#F0AD00"/>
<path fill-rule="evenodd" clip-rule="evenodd" d="M78.0811 115.17H80.3836C80.5703 115.17 80.7494 115.244 80.8814 115.376C81.0135 115.508 81.0877 115.688 81.0877 115.874V116.036C81.0877 116.223 81.0135 116.402 80.8814 116.534C80.7494 116.666 80.5703 116.74 80.3836 116.74H78.0811C77.8943 116.74 77.7152 116.666 77.5832 116.534C77.4511 116.402 77.377 116.223 77.377 116.036V115.874C77.377 115.688 77.4511 115.508 77.5832 115.376C77.7152 115.244 77.8943 115.17 78.0811 115.17Z" fill="#F0AD00"/>
<path fill-rule="evenodd" clip-rule="evenodd" d="M82.1358 115.17H83.9665C84.1532 115.17 84.3323 115.244 84.4644 115.376C84.5964 115.508 84.6706 115.688 84.6706 115.874V116.036C84.6706 116.223 84.5964 116.402 84.4644 116.534C84.3323 116.666 84.1532 116.74 83.9665 116.74H82.1358C81.949 116.74 81.7699 116.666 81.6379 116.534C81.5058 116.402 81.4316 116.223 81.4316 116.036V115.874C81.4316 115.688 81.5058 115.508 81.6379 115.376C81.7699 115.244 81.949 115.17 82.1358 115.17Z" fill="#E1760C"/>
<path fill-rule="evenodd" clip-rule="evenodd" d="M76.2429 115.17C76.3933 115.17 76.5403 115.215 76.6654 115.298C76.7904 115.382 76.8879 115.501 76.9455 115.64C77.003 115.779 77.0181 115.931 76.9888 116.079C76.9594 116.227 76.887 116.362 76.7806 116.468C76.6743 116.575 76.5388 116.647 76.3913 116.676C76.2437 116.706 76.0909 116.691 75.9519 116.633C75.8129 116.576 75.6942 116.478 75.6106 116.353C75.5271 116.228 75.4825 116.081 75.4825 115.931C75.4815 115.831 75.5005 115.731 75.5384 115.639C75.5763 115.546 75.6323 115.462 75.7031 115.391C75.7739 115.32 75.8581 115.264 75.9508 115.226C76.0435 115.188 76.1428 115.169 76.2429 115.17Z" fill="#D65359"/>
<path fill-rule="evenodd" clip-rule="evenodd" d="M74.8975 113.234H79.4884C79.6751 113.234 79.8542 113.308 79.9863 113.44C80.1183 113.572 80.1925 113.751 80.1925 113.938V114.1C80.1925 114.287 80.1183 114.466 79.9863 114.598C79.8542 114.73 79.6751 114.804 79.4884 114.804H74.8975C74.7107 114.804 74.5316 114.73 74.3996 114.598C74.2675 114.466 74.1934 114.287 74.1934 114.1V113.938C74.1934 113.751 74.2675 113.572 74.3996 113.44C74.5316 113.308 74.7107 113.234 74.8975 113.234Z" fill="#D65359"/>
<path fill-rule="evenodd" clip-rule="evenodd" d="M81.2139 113.234H84.6218C84.8086 113.234 84.9877 113.308 85.1197 113.44C85.2518 113.572 85.326 113.751 85.326 113.938V114.1C85.326 114.287 85.2518 114.466 85.1197 114.598C84.9877 114.73 84.8086 114.804 84.6218 114.804H81.2139C81.0271 114.804 80.848 114.73 80.716 114.598C80.5839 114.466 80.5098 114.287 80.5098 114.1V113.938C80.5098 113.751 80.5839 113.572 80.716 113.44C80.848 113.308 81.0271 113.234 81.2139 113.234Z" fill="#F0AD00"/>
<path fill-rule="evenodd" clip-rule="evenodd" d="M73.6162 111.297H77.1791C77.3658 111.297 77.5449 111.372 77.677 111.504C77.809 111.636 77.8832 111.815 77.8832 112.001V112.156C77.8832 112.343 77.809 112.522 77.677 112.654C77.5449 112.786 77.3658 112.861 77.1791 112.861H73.6162C73.4295 112.861 73.2504 112.786 73.1183 112.654C72.9863 112.522 72.9121 112.343 72.9121 112.156V112.001C72.9121 111.815 72.9863 111.636 73.1183 111.504C73.2504 111.372 73.4295 111.297 73.6162 111.297Z" fill="#E1760C"/>
<path fill-rule="evenodd" clip-rule="evenodd" d="M80.8975 111.297H85.256C85.4428 111.297 85.6218 111.372 85.7539 111.504C85.8859 111.636 85.9601 111.815 85.9601 112.001V112.156C85.9601 112.343 85.8859 112.522 85.7539 112.654C85.6218 112.786 85.4428 112.861 85.256 112.861H80.8975C80.7107 112.861 80.5316 112.786 80.3996 112.654C80.2675 112.522 80.1934 112.343 80.1934 112.156V112.001C80.1934 111.815 80.2675 111.636 80.3996 111.504C80.5316 111.372 80.7107 111.297 80.8975 111.297Z" fill="#D65359"/>
<path fill-rule="evenodd" clip-rule="evenodd" d="M79.0386 111.297C79.1876 111.297 79.3332 111.342 79.4571 111.424C79.581 111.507 79.6776 111.625 79.7346 111.762C79.7917 111.9 79.8066 112.052 79.7775 112.198C79.7484 112.344 79.6767 112.478 79.5713 112.584C79.466 112.689 79.3317 112.761 79.1856 112.79C79.0394 112.819 78.8879 112.804 78.7503 112.747C78.6126 112.69 78.4949 112.593 78.4121 112.469C78.3293 112.345 78.2852 112.2 78.2852 112.051C78.2852 111.851 78.3645 111.659 78.5058 111.518C78.6471 111.377 78.8388 111.297 79.0386 111.297Z" fill="#F0AD00"/>
<path fill-rule="evenodd" clip-rule="evenodd" d="M78.2437 120.986C78.3947 120.985 78.5427 121.028 78.6688 121.111C78.7949 121.194 78.8935 121.313 78.9519 121.452C79.0103 121.592 79.026 121.745 78.9969 121.893C78.9677 122.041 78.8952 122.177 78.7884 122.284C78.6816 122.391 78.5455 122.464 78.3973 122.493C78.2492 122.522 78.0957 122.506 77.9564 122.448C77.8172 122.389 77.6985 122.291 77.6155 122.165C77.5325 122.039 77.4889 121.891 77.4903 121.74C77.4903 121.54 77.5696 121.348 77.7109 121.207C77.8522 121.065 78.0439 120.986 78.2437 120.986Z" fill="#E1760C"/>
</g>
</svg>
