<svg width="359" height="181" viewBox="0 0 359 181" fill="none" xmlns="http://www.w3.org/2000/svg">
<rect width="359" height="181" rx="12" fill="white"/>
<rect x="0.5" y="0.5" width="358" height="180" rx="11.5" stroke="#5B5151" stroke-opacity="0.1"/>
<path d="M16 36C16 24.9543 24.9543 16 36 16H283C294.046 16 303 24.9543 303 36V61C303 72.0457 294.046 81 283 81H16V36Z" fill="#CED0FF"/>
<path d="M65.232 37.032H66.38V47H65.232V37.032ZM75.3058 47.098C74.6244 47.098 74.0271 46.9487 73.5138 46.65C73.0098 46.3513 72.6178 45.9313 72.3378 45.39C72.0671 44.8393 71.9318 44.2 71.9318 43.472C71.9318 42.744 72.0718 42.1047 72.3518 41.554C72.6318 40.994 73.0284 40.56 73.5418 40.252C74.0644 39.944 74.6711 39.79 75.3618 39.79C75.8378 39.79 76.2951 39.874 76.7338 40.042C77.1818 40.2007 77.5504 40.4247 77.8398 40.714L77.4618 41.554C77.1071 41.274 76.7618 41.0687 76.4258 40.938C76.0991 40.8073 75.7631 40.742 75.4178 40.742C74.6991 40.742 74.1344 40.9847 73.7238 41.47C73.3131 41.946 73.1078 42.6133 73.1078 43.472C73.1078 44.3213 73.3084 44.984 73.7098 45.46C74.1204 45.9267 74.6898 46.16 75.4178 46.16C75.7631 46.16 76.0991 46.0947 76.4258 45.964C76.7618 45.8333 77.1071 45.628 77.4618 45.348L77.8398 46.188C77.5411 46.468 77.1631 46.692 76.7058 46.86C76.2578 47.0187 75.7911 47.098 75.3058 47.098ZM85.4854 39.958V47H84.3654V45.726C84.1601 46.1647 83.8474 46.5053 83.4274 46.748C83.0167 46.9813 82.5361 47.098 81.9854 47.098C81.3601 47.098 80.8094 46.9487 80.3334 46.65C79.8667 46.3513 79.5027 45.9313 79.2414 45.39C78.9894 44.8393 78.8634 44.2 78.8634 43.472C78.8634 42.744 78.9941 42.1047 79.2554 41.554C79.5167 40.994 79.8807 40.56 80.3474 40.252C80.8234 39.944 81.3694 39.79 81.9854 39.79C82.5361 39.79 83.0167 39.9113 83.4274 40.154C83.8381 40.3967 84.1507 40.7373 84.3654 41.176V39.958H85.4854ZM82.2094 46.16C82.9001 46.16 83.4321 45.9267 83.8054 45.46C84.1787 44.984 84.3654 44.312 84.3654 43.444C84.3654 42.576 84.1787 41.9087 83.8054 41.442C83.4321 40.9753 82.9001 40.742 82.2094 40.742C81.5187 40.742 80.9774 40.9847 80.5854 41.47C80.2027 41.946 80.0114 42.6133 80.0114 43.472C80.0114 44.3307 80.2027 44.9933 80.5854 45.46C80.9681 45.9267 81.5094 46.16 82.2094 46.16ZM91.1919 39.79C92.8813 39.79 93.7259 40.7187 93.7259 42.576V47H92.5919V42.632C92.5919 41.9787 92.4613 41.5027 92.1999 41.204C91.9386 40.896 91.5279 40.742 90.9679 40.742C90.3146 40.742 89.7919 40.9427 89.3999 41.344C89.0079 41.7453 88.8119 42.2867 88.8119 42.968V47H87.6779V41.932C87.6779 41.204 87.6406 40.546 87.5659 39.958H88.6439L88.7559 41.218C88.9706 40.7607 89.2926 40.4107 89.7219 40.168C90.1513 39.916 90.6413 39.79 91.1919 39.79ZM96.8536 37.032V38.054C96.8536 38.446 96.7883 38.8053 96.6576 39.132C96.527 39.4587 96.3076 39.7807 95.9996 40.098L95.4676 39.678C95.8316 39.258 96.037 38.8567 96.0836 38.474H95.4116V37.032H96.8536ZM100.401 40.854V44.704C100.401 45.2267 100.508 45.5953 100.723 45.81C100.938 46.0153 101.241 46.118 101.633 46.118C101.894 46.118 102.146 46.076 102.389 45.992V46.958C102.1 47.0513 101.773 47.098 101.409 47.098C100.737 47.098 100.21 46.9113 99.8269 46.538C99.4535 46.1553 99.2669 45.5953 99.2669 44.858V40.854H97.8949V39.958H99.2669V38.152L100.401 37.746V39.958H102.417V40.854H100.401ZM113.328 43.444H108.162C108.171 44.34 108.376 45.0167 108.778 45.474C109.188 45.9313 109.781 46.16 110.556 46.16C111.377 46.16 112.133 45.8847 112.824 45.334L113.202 46.16C112.894 46.4493 112.497 46.678 112.012 46.846C111.536 47.014 111.046 47.098 110.542 47.098C109.44 47.098 108.577 46.776 107.952 46.132C107.326 45.4787 107.014 44.5873 107.014 43.458C107.014 42.7393 107.154 42.1047 107.434 41.554C107.714 40.994 108.106 40.56 108.61 40.252C109.114 39.944 109.688 39.79 110.332 39.79C111.265 39.79 111.998 40.098 112.53 40.714C113.062 41.3207 113.328 42.1607 113.328 43.234V43.444ZM110.346 40.672C109.758 40.672 109.277 40.8493 108.904 41.204C108.54 41.5587 108.306 42.058 108.204 42.702H112.306C112.25 42.0393 112.054 41.5353 111.718 41.19C111.391 40.8447 110.934 40.672 110.346 40.672ZM121.251 39.958V47H120.131V45.726C119.926 46.1647 119.613 46.5053 119.193 46.748C118.782 46.9813 118.302 47.098 117.751 47.098C117.126 47.098 116.575 46.9487 116.099 46.65C115.632 46.3513 115.268 45.9313 115.007 45.39C114.755 44.8393 114.629 44.2 114.629 43.472C114.629 42.744 114.76 42.1047 115.021 41.554C115.282 40.994 115.646 40.56 116.113 40.252C116.589 39.944 117.135 39.79 117.751 39.79C118.302 39.79 118.782 39.9113 119.193 40.154C119.604 40.3967 119.916 40.7373 120.131 41.176V39.958H121.251ZM117.975 46.16C118.666 46.16 119.198 45.9267 119.571 45.46C119.944 44.984 120.131 44.312 120.131 43.444C120.131 42.576 119.944 41.9087 119.571 41.442C119.198 40.9753 118.666 40.742 117.975 40.742C117.284 40.742 116.743 40.9847 116.351 41.47C115.968 41.946 115.777 42.6133 115.777 43.472C115.777 44.3307 115.968 44.9933 116.351 45.46C116.734 45.9267 117.275 46.16 117.975 46.16ZM125.824 47.098C124.638 47.098 123.7 46.7947 123.01 46.188L123.388 45.348C123.77 45.6467 124.158 45.8613 124.55 45.992C124.942 46.1227 125.38 46.188 125.866 46.188C126.398 46.188 126.799 46.0993 127.07 45.922C127.35 45.7353 127.49 45.4693 127.49 45.124C127.49 44.844 127.396 44.62 127.21 44.452C127.023 44.284 126.715 44.1533 126.286 44.06L125.096 43.78C124.508 43.6493 124.05 43.416 123.724 43.08C123.406 42.744 123.248 42.3427 123.248 41.876C123.248 41.26 123.495 40.7607 123.99 40.378C124.484 39.986 125.138 39.79 125.95 39.79C126.444 39.79 126.911 39.8693 127.35 40.028C127.788 40.1867 128.157 40.4153 128.456 40.714L128.078 41.54C127.415 40.9893 126.706 40.714 125.95 40.714C125.446 40.714 125.054 40.812 124.774 41.008C124.503 41.1947 124.368 41.4607 124.368 41.806C124.368 42.0953 124.452 42.324 124.62 42.492C124.797 42.66 125.077 42.7907 125.46 42.884L126.65 43.178C127.303 43.3273 127.788 43.5607 128.106 43.878C128.423 44.186 128.582 44.592 128.582 45.096C128.582 45.7027 128.334 46.188 127.84 46.552C127.345 46.916 126.673 47.098 125.824 47.098ZM130.389 39.958H131.523V47H130.389V39.958ZM131.663 36.976V38.264H130.277V36.976H131.663ZM133.725 36.696H134.859V47H133.725V36.696ZM143.249 39.958L139.959 47.644C139.613 48.4467 139.179 49.0347 138.657 49.408C138.134 49.7813 137.49 50.038 136.725 50.178L136.487 49.296C137.149 49.1467 137.649 48.946 137.985 48.694C138.33 48.4513 138.615 48.0733 138.839 47.56L139.119 46.93L136.137 39.958H137.327L139.707 45.768L142.115 39.958H143.249ZM148.149 39.958H149.283V47H148.149V39.958ZM149.423 36.976V38.264H148.037V36.976H149.423ZM159.297 39.79C160.855 39.79 161.635 40.7187 161.635 42.576V47H160.501V42.632C160.501 41.9693 160.384 41.4887 160.151 41.19C159.927 40.8913 159.558 40.742 159.045 40.742C158.447 40.742 157.981 40.9427 157.645 41.344C157.309 41.7453 157.141 42.2913 157.141 42.982V47H156.007V42.632C156.007 41.9787 155.89 41.5027 155.657 41.204C155.423 40.896 155.05 40.742 154.537 40.742C153.939 40.742 153.468 40.9427 153.123 41.344C152.787 41.7453 152.619 42.2913 152.619 42.982V47H151.485V41.932C151.485 41.204 151.447 40.546 151.373 39.958H152.451L152.563 41.19C152.759 40.742 153.048 40.3967 153.431 40.154C153.823 39.9113 154.275 39.79 154.789 39.79C155.349 39.79 155.806 39.902 156.161 40.126C156.515 40.35 156.777 40.6953 156.945 41.162C157.159 40.742 157.472 40.4107 157.883 40.168C158.303 39.916 158.774 39.79 159.297 39.79ZM167.303 39.79C167.919 39.79 168.465 39.944 168.941 40.252C169.417 40.56 169.786 40.994 170.047 41.554C170.309 42.1047 170.439 42.744 170.439 43.472C170.439 44.2 170.309 44.8393 170.047 45.39C169.786 45.9313 169.417 46.3513 168.941 46.65C168.475 46.9487 167.929 47.098 167.303 47.098C166.753 47.098 166.272 46.9767 165.861 46.734C165.451 46.4913 165.138 46.146 164.923 45.698V50.024H163.789V41.932C163.789 41.204 163.752 40.546 163.677 39.958H164.755L164.867 41.316C165.063 40.8307 165.371 40.4573 165.791 40.196C166.221 39.9253 166.725 39.79 167.303 39.79ZM167.093 46.16C167.784 46.16 168.316 45.9267 168.689 45.46C169.072 44.9933 169.263 44.3307 169.263 43.472C169.263 42.6133 169.072 41.946 168.689 41.47C168.307 40.9847 167.775 40.742 167.093 40.742C166.393 40.742 165.857 40.9753 165.483 41.442C165.11 41.9087 164.923 42.576 164.923 43.444C164.923 44.312 165.11 44.984 165.483 45.46C165.857 45.9267 166.393 46.16 167.093 46.16ZM175.46 39.79C175.693 39.79 175.908 39.818 176.104 39.874L176.076 40.91C175.861 40.8353 175.614 40.798 175.334 40.798C174.652 40.798 174.144 41.0127 173.808 41.442C173.481 41.862 173.318 42.3753 173.318 42.982V47H172.184V41.932C172.184 41.204 172.146 40.546 172.072 39.958H173.15L173.262 41.26C173.439 40.784 173.724 40.42 174.116 40.168C174.508 39.916 174.956 39.79 175.46 39.79ZM180.031 47.098C179.369 47.098 178.785 46.9487 178.281 46.65C177.777 46.3513 177.385 45.9267 177.105 45.376C176.835 44.8253 176.699 44.1813 176.699 43.444C176.699 42.7067 176.835 42.0627 177.105 41.512C177.385 40.9613 177.777 40.5367 178.281 40.238C178.785 39.9393 179.369 39.79 180.031 39.79C180.694 39.79 181.277 39.9393 181.781 40.238C182.285 40.5367 182.673 40.9613 182.943 41.512C183.223 42.0627 183.363 42.7067 183.363 43.444C183.363 44.1813 183.223 44.8253 182.943 45.376C182.673 45.9267 182.285 46.3513 181.781 46.65C181.277 46.9487 180.694 47.098 180.031 47.098ZM180.031 46.16C180.731 46.16 181.268 45.9313 181.641 45.474C182.015 45.0073 182.201 44.3307 182.201 43.444C182.201 42.5853 182.01 41.9227 181.627 41.456C181.245 40.98 180.713 40.742 180.031 40.742C179.341 40.742 178.804 40.98 178.421 41.456C178.039 41.9227 177.847 42.5853 177.847 43.444C177.847 44.3307 178.034 45.0073 178.407 45.474C178.79 45.9313 179.331 46.16 180.031 46.16ZM191.237 39.972L188.199 47H187.121L184.125 39.972H185.315L187.695 45.768L190.103 39.972H191.237ZM198.299 43.444H193.133C193.142 44.34 193.347 45.0167 193.749 45.474C194.159 45.9313 194.752 46.16 195.527 46.16C196.348 46.16 197.104 45.8847 197.795 45.334L198.173 46.16C197.865 46.4493 197.468 46.678 196.983 46.846C196.507 47.014 196.017 47.098 195.513 47.098C194.411 47.098 193.548 46.776 192.923 46.132C192.297 45.4787 191.985 44.5873 191.985 43.458C191.985 42.7393 192.125 42.1047 192.405 41.554C192.685 40.994 193.077 40.56 193.581 40.252C194.085 39.944 194.659 39.79 195.303 39.79C196.236 39.79 196.969 40.098 197.501 40.714C198.033 41.3207 198.299 42.1607 198.299 43.234V43.444ZM195.317 40.672C194.729 40.672 194.248 40.8493 193.875 41.204C193.511 41.5587 193.277 42.058 193.175 42.702H197.277C197.221 42.0393 197.025 41.5353 196.689 41.19C196.362 40.8447 195.905 40.672 195.317 40.672ZM203.67 39.958H204.804V47H203.67V39.958ZM204.944 36.976V38.264H203.558V36.976H204.944ZM210.52 39.79C212.209 39.79 213.054 40.7187 213.054 42.576V47H211.92V42.632C211.92 41.9787 211.789 41.5027 211.528 41.204C211.267 40.896 210.856 40.742 210.296 40.742C209.643 40.742 209.12 40.9427 208.728 41.344C208.336 41.7453 208.14 42.2867 208.14 42.968V47H207.006V41.932C207.006 41.204 206.969 40.546 206.894 39.958H207.972L208.084 41.218C208.299 40.7607 208.621 40.4107 209.05 40.168C209.479 39.916 209.969 39.79 210.52 39.79ZM216.708 40.854V44.704C216.708 45.2267 216.815 45.5953 217.03 45.81C217.244 46.0153 217.548 46.118 217.94 46.118C218.201 46.118 218.453 46.076 218.696 45.992V46.958C218.406 47.0513 218.08 47.098 217.716 47.098C217.044 47.098 216.516 46.9113 216.134 46.538C215.76 46.1553 215.574 45.5953 215.574 44.858V40.854H214.202V39.958H215.574V38.152L216.708 37.746V39.958H218.724V40.854H216.708ZM225.984 43.444H220.818C220.827 44.34 221.033 45.0167 221.434 45.474C221.845 45.9313 222.437 46.16 223.212 46.16C224.033 46.16 224.789 45.8847 225.48 45.334L225.858 46.16C225.55 46.4493 225.153 46.678 224.668 46.846C224.192 47.014 223.702 47.098 223.198 47.098C222.097 47.098 221.233 46.776 220.608 46.132C219.983 45.4787 219.67 44.5873 219.67 43.458C219.67 42.7393 219.81 42.1047 220.09 41.554C220.37 40.994 220.762 40.56 221.266 40.252C221.77 39.944 222.344 39.79 222.988 39.79C223.921 39.79 224.654 40.098 225.186 40.714C225.718 41.3207 225.984 42.1607 225.984 43.234V43.444ZM223.002 40.672C222.414 40.672 221.933 40.8493 221.56 41.204C221.196 41.5587 220.963 42.058 220.86 42.702H224.962C224.906 42.0393 224.71 41.5353 224.374 41.19C224.047 40.8447 223.59 40.672 223.002 40.672ZM230.981 39.79C231.215 39.79 231.429 39.818 231.625 39.874L231.597 40.91C231.383 40.8353 231.135 40.798 230.855 40.798C230.174 40.798 229.665 41.0127 229.329 41.442C229.003 41.862 228.839 42.3753 228.839 42.982V47H227.705V41.932C227.705 41.204 227.668 40.546 227.593 39.958H228.671L228.783 41.26C228.961 40.784 229.245 40.42 229.637 40.168C230.029 39.916 230.477 39.79 230.981 39.79ZM236.292 39.79C237.981 39.79 238.826 40.7187 238.826 42.576V47H237.692V42.632C237.692 41.9787 237.561 41.5027 237.3 41.204C237.038 40.896 236.628 40.742 236.068 40.742C235.414 40.742 234.892 40.9427 234.5 41.344C234.108 41.7453 233.912 42.2867 233.912 42.968V47H232.778V41.932C232.778 41.204 232.74 40.546 232.666 39.958H233.744L233.856 41.218C234.07 40.7607 234.392 40.4107 234.822 40.168C235.251 39.916 235.741 39.79 236.292 39.79ZM247.169 39.958V47H246.049V45.726C245.844 46.1647 245.531 46.5053 245.111 46.748C244.7 46.9813 244.22 47.098 243.669 47.098C243.044 47.098 242.493 46.9487 242.017 46.65C241.55 46.3513 241.186 45.9313 240.925 45.39C240.673 44.8393 240.547 44.2 240.547 43.472C240.547 42.744 240.678 42.1047 240.939 41.554C241.2 40.994 241.564 40.56 242.031 40.252C242.507 39.944 243.053 39.79 243.669 39.79C244.22 39.79 244.7 39.9113 245.111 40.154C245.522 40.3967 245.834 40.7373 246.049 41.176V39.958H247.169ZM243.893 46.16C244.584 46.16 245.116 45.9267 245.489 45.46C245.862 44.984 246.049 44.312 246.049 43.444C246.049 42.576 245.862 41.9087 245.489 41.442C245.116 40.9753 244.584 40.742 243.893 40.742C243.202 40.742 242.661 40.9847 242.269 41.47C241.886 41.946 241.695 42.6133 241.695 43.472C241.695 44.3307 241.886 44.9933 242.269 45.46C242.652 45.9267 243.193 46.16 243.893 46.16ZM249.362 36.696H250.496V47H249.362V36.696ZM65.092 54.696H66.226V65H65.092V54.696ZM68.4279 57.958H69.5619V65H68.4279V57.958ZM69.7019 54.976V56.264H68.3159V54.976H69.7019ZM75.2779 57.79C76.9672 57.79 77.8119 58.7187 77.8119 60.576V65H76.6779V60.632C76.6779 59.9787 76.5472 59.5027 76.2859 59.204C76.0245 58.896 75.6139 58.742 75.0539 58.742C74.4005 58.742 73.8779 58.9427 73.4859 59.344C73.0939 59.7453 72.8979 60.2867 72.8979 60.968V65H71.7639V59.932C71.7639 59.204 71.7265 58.546 71.6519 57.958H72.7299L72.8419 59.218C73.0565 58.7607 73.3785 58.4107 73.8079 58.168C74.2372 57.916 74.7272 57.79 75.2779 57.79ZM84.6993 65L81.0873 61.612V65H79.9533V54.696H81.0873V61.192L84.4053 57.972H85.8473L82.3193 61.346L86.1833 65H84.6993ZM87.1584 57.958H88.2924V65H87.1584V57.958ZM88.4324 54.976V56.264H87.0464V54.976H88.4324ZM94.0083 57.79C95.6977 57.79 96.5423 58.7187 96.5423 60.576V65H95.4083V60.632C95.4083 59.9787 95.2777 59.5027 95.0163 59.204C94.755 58.896 94.3443 58.742 93.7843 58.742C93.131 58.742 92.6083 58.9427 92.2163 59.344C91.8243 59.7453 91.6283 60.2867 91.6283 60.968V65H90.4943V59.932C90.4943 59.204 90.457 58.546 90.3823 57.958H91.4603L91.5723 59.218C91.787 58.7607 92.109 58.4107 92.5383 58.168C92.9677 57.916 93.4577 57.79 94.0083 57.79ZM104.956 57.958V64.944C104.956 65.9893 104.685 66.778 104.144 67.31C103.612 67.8513 102.823 68.122 101.778 68.122C100.704 68.122 99.7805 67.8793 99.0058 67.394L99.2018 66.47C99.6498 66.722 100.07 66.904 100.462 67.016C100.863 67.128 101.302 67.184 101.778 67.184C102.459 67.184 102.972 67.002 103.318 66.638C103.663 66.2833 103.836 65.7513 103.836 65.042V63.376C103.621 63.824 103.304 64.174 102.884 64.426C102.473 64.6687 101.983 64.79 101.414 64.79C100.798 64.79 100.247 64.6453 99.7618 64.356C99.2858 64.0667 98.9171 63.656 98.6558 63.124C98.3945 62.592 98.2638 61.9807 98.2638 61.29C98.2638 60.5993 98.3945 59.988 98.6558 59.456C98.9171 58.924 99.2858 58.5133 99.7618 58.224C100.247 57.9347 100.798 57.79 101.414 57.79C101.974 57.79 102.459 57.9113 102.87 58.154C103.29 58.3967 103.607 58.7373 103.822 59.176V57.958H104.956ZM101.638 63.838C102.319 63.838 102.851 63.614 103.234 63.166C103.626 62.7087 103.822 62.0833 103.822 61.29C103.822 60.4967 103.626 59.876 103.234 59.428C102.851 58.9707 102.319 58.742 101.638 58.742C100.947 58.742 100.401 58.9707 99.9998 59.428C99.6078 59.876 99.4118 60.4967 99.4118 61.29C99.4118 62.0833 99.6078 62.7087 99.9998 63.166C100.401 63.614 100.947 63.838 101.638 63.838Z" fill="#5B5151"/>
<circle cx="41" cy="43" r="15" fill="white"/>
<mask id="mask0" mask-type="alpha" maskUnits="userSpaceOnUse" x="26" y="28" width="30" height="30">
<circle cx="41" cy="43" r="15" fill="white"/>
</mask>
<g mask="url(#mask0)">
<path d="M46.3763 40.5393C46.3763 42.0615 45.8304 43.3792 44.7535 44.4562C43.6766 45.5331 42.3587 46.079 40.8365 46.079H40.8338C39.3135 46.0785 37.9966 45.5326 36.9197 44.4562C35.8426 43.3792 35.2969 42.0615 35.2969 40.5393C35.2969 39.0175 35.8426 37.6997 36.9197 36.6228C37.996 35.5463 39.313 35.0005 40.8338 35H40.8365C42.3582 35 43.676 35.5459 44.7535 36.6228C45.8304 37.6997 46.3763 39.0175 46.3763 40.5393Z" fill="#FFD589"/>
<path d="M50.5759 54.0444C50.5759 55.2454 50.1939 56.2177 49.4415 56.9338C48.6978 57.6415 47.7142 58 46.5184 58H35.4437C34.2479 58 33.2643 57.6415 32.5212 56.9338C31.7682 56.2172 31.3867 55.245 31.3867 54.0444C31.3867 53.5826 31.402 53.1256 31.4325 52.6862C31.4636 52.237 31.5264 51.7482 31.619 51.2324C31.7124 50.7125 31.8324 50.221 31.9761 49.7718C32.1253 49.3068 32.3271 48.8481 32.5768 48.4087C32.8362 47.9526 33.1408 47.5553 33.4823 47.2282C33.8402 46.8859 34.2779 46.6109 34.7838 46.4105C35.2879 46.2112 35.8468 46.1101 36.4448 46.1101C36.6794 46.1101 36.9067 46.2061 37.3447 46.4914C37.6188 46.6702 37.9346 46.8738 38.2833 47.0966C38.5844 47.2886 38.9922 47.4686 39.4963 47.6313C39.9394 47.7747 40.3892 47.8547 40.8335 47.8686C40.8824 47.8703 40.9314 47.8712 40.9803 47.8712C41.4738 47.8712 41.9728 47.7903 42.4649 47.6313C42.969 47.4686 43.3774 47.2886 43.6783 47.0966C44.0306 46.8715 44.3465 46.6681 44.6166 46.4919C45.0549 46.2061 45.2818 46.1101 45.5169 46.1101C46.1144 46.1101 46.6733 46.2112 47.1778 46.4105C47.6837 46.6109 48.1213 46.8864 48.479 47.2282C48.821 47.5553 49.1256 47.9526 49.3848 48.4087C49.6347 48.8484 49.8368 49.3068 49.9854 49.7712C50.1293 50.221 50.2497 50.7125 50.3431 51.2328C50.4352 51.749 50.4982 52.2379 50.5291 52.6859C50.5601 53.1239 50.5754 53.5808 50.5759 54.0444Z" fill="#D55A5F"/>
</g>
<path d="M50 125C50 113.954 58.9543 105 70 105H323C334.046 105 343 113.954 343 125V165H70C58.9543 165 50 156.046 50 145V125Z" fill="#FCFCFC"/>
<path d="M105.232 121.032H108.578C110.174 121.032 111.406 121.466 112.274 122.334C113.151 123.193 113.59 124.415 113.59 126.002C113.59 127.598 113.151 128.83 112.274 129.698C111.406 130.566 110.174 131 108.578 131H105.232V121.032ZM108.508 130.02C109.796 130.02 110.762 129.684 111.406 129.012C112.059 128.34 112.386 127.337 112.386 126.002C112.386 123.342 111.093 122.012 108.508 122.012H106.38V130.02H108.508ZM121.725 123.958L118.435 131.644C118.09 132.447 117.656 133.035 117.133 133.408C116.611 133.781 115.967 134.038 115.201 134.178L114.963 133.296C115.626 133.147 116.125 132.946 116.461 132.694C116.807 132.451 117.091 132.073 117.315 131.56L117.595 130.93L114.613 123.958H115.803L118.183 129.768L120.591 123.958H121.725ZM126.489 123.79C128.178 123.79 129.023 124.719 129.023 126.576V131H127.889V126.632C127.889 125.979 127.758 125.503 127.497 125.204C127.235 124.896 126.825 124.742 126.265 124.742C125.611 124.742 125.089 124.943 124.697 125.344C124.305 125.745 124.109 126.287 124.109 126.968V131H122.975V125.932C122.975 125.204 122.937 124.546 122.863 123.958H123.941L124.053 125.218C124.267 124.761 124.589 124.411 125.019 124.168C125.448 123.916 125.938 123.79 126.489 123.79ZM137.366 123.958V131H136.246V129.726C136.041 130.165 135.728 130.505 135.308 130.748C134.898 130.981 134.417 131.098 133.866 131.098C133.241 131.098 132.69 130.949 132.214 130.65C131.748 130.351 131.384 129.931 131.122 129.39C130.87 128.839 130.744 128.2 130.744 127.472C130.744 126.744 130.875 126.105 131.136 125.554C131.398 124.994 131.762 124.56 132.228 124.252C132.704 123.944 133.25 123.79 133.866 123.79C134.417 123.79 134.898 123.911 135.308 124.154C135.719 124.397 136.032 124.737 136.246 125.176V123.958H137.366ZM134.09 130.16C134.781 130.16 135.313 129.927 135.686 129.46C136.06 128.984 136.246 128.312 136.246 127.444C136.246 126.576 136.06 125.909 135.686 125.442C135.313 124.975 134.781 124.742 134.09 124.742C133.4 124.742 132.858 124.985 132.466 125.47C132.084 125.946 131.892 126.613 131.892 127.472C131.892 128.331 132.084 128.993 132.466 129.46C132.849 129.927 133.39 130.16 134.09 130.16ZM147.371 123.79C148.929 123.79 149.709 124.719 149.709 126.576V131H148.575V126.632C148.575 125.969 148.458 125.489 148.225 125.19C148.001 124.891 147.632 124.742 147.119 124.742C146.521 124.742 146.055 124.943 145.719 125.344C145.383 125.745 145.215 126.291 145.215 126.982V131H144.081V126.632C144.081 125.979 143.964 125.503 143.731 125.204C143.497 124.896 143.124 124.742 142.611 124.742C142.013 124.742 141.542 124.943 141.197 125.344C140.861 125.745 140.693 126.291 140.693 126.982V131H139.559V125.932C139.559 125.204 139.521 124.546 139.447 123.958H140.525L140.637 125.19C140.833 124.742 141.122 124.397 141.505 124.154C141.897 123.911 142.349 123.79 142.863 123.79C143.423 123.79 143.88 123.902 144.235 124.126C144.589 124.35 144.851 124.695 145.019 125.162C145.233 124.742 145.546 124.411 145.957 124.168C146.377 123.916 146.848 123.79 147.371 123.79ZM151.863 123.958H152.997V131H151.863V123.958ZM153.137 120.976V122.264H151.751V120.976H153.137ZM158.153 131.098C157.472 131.098 156.875 130.949 156.361 130.65C155.857 130.351 155.465 129.931 155.185 129.39C154.915 128.839 154.779 128.2 154.779 127.472C154.779 126.744 154.919 126.105 155.199 125.554C155.479 124.994 155.876 124.56 156.389 124.252C156.912 123.944 157.519 123.79 158.209 123.79C158.685 123.79 159.143 123.874 159.581 124.042C160.029 124.201 160.398 124.425 160.687 124.714L160.309 125.554C159.955 125.274 159.609 125.069 159.273 124.938C158.947 124.807 158.611 124.742 158.265 124.742C157.547 124.742 156.982 124.985 156.571 125.47C156.161 125.946 155.955 126.613 155.955 127.472C155.955 128.321 156.156 128.984 156.557 129.46C156.968 129.927 157.537 130.16 158.265 130.16C158.611 130.16 158.947 130.095 159.273 129.964C159.609 129.833 159.955 129.628 160.309 129.348L160.687 130.188C160.389 130.468 160.011 130.692 159.553 130.86C159.105 131.019 158.639 131.098 158.153 131.098ZM165.781 120.696H166.915V131H165.781V120.696ZM169.117 123.958H170.251V131H169.117V123.958ZM170.391 120.976V122.264H169.005V120.976H170.391ZM175.967 123.79C177.657 123.79 178.501 124.719 178.501 126.576V131H177.367V126.632C177.367 125.979 177.237 125.503 176.975 125.204C176.714 124.896 176.303 124.742 175.743 124.742C175.09 124.742 174.567 124.943 174.175 125.344C173.783 125.745 173.587 126.287 173.587 126.968V131H172.453V125.932C172.453 125.204 172.416 124.546 172.341 123.958H173.419L173.531 125.218C173.746 124.761 174.068 124.411 174.497 124.168C174.927 123.916 175.417 123.79 175.967 123.79ZM185.389 131L181.777 127.612V131H180.643V120.696H181.777V127.192L185.095 123.972H186.537L183.009 127.346L186.873 131H185.389ZM187.848 123.958H188.982V131H187.848V123.958ZM189.122 120.976V122.264H187.736V120.976H189.122ZM194.698 123.79C196.387 123.79 197.232 124.719 197.232 126.576V131H196.098V126.632C196.098 125.979 195.967 125.503 195.706 125.204C195.444 124.896 195.034 124.742 194.474 124.742C193.82 124.742 193.298 124.943 192.906 125.344C192.514 125.745 192.318 126.287 192.318 126.968V131H191.184V125.932C191.184 125.204 191.146 124.546 191.072 123.958H192.15L192.262 125.218C192.476 124.761 192.798 124.411 193.228 124.168C193.657 123.916 194.147 123.79 194.698 123.79ZM205.645 123.958V130.944C205.645 131.989 205.375 132.778 204.833 133.31C204.301 133.851 203.513 134.122 202.467 134.122C201.394 134.122 200.47 133.879 199.695 133.394L199.891 132.47C200.339 132.722 200.759 132.904 201.151 133.016C201.553 133.128 201.991 133.184 202.467 133.184C203.149 133.184 203.662 133.002 204.007 132.638C204.353 132.283 204.525 131.751 204.525 131.042V129.376C204.311 129.824 203.993 130.174 203.573 130.426C203.163 130.669 202.673 130.79 202.103 130.79C201.487 130.79 200.937 130.645 200.451 130.356C199.975 130.067 199.607 129.656 199.345 129.124C199.084 128.592 198.953 127.981 198.953 127.29C198.953 126.599 199.084 125.988 199.345 125.456C199.607 124.924 199.975 124.513 200.451 124.224C200.937 123.935 201.487 123.79 202.103 123.79C202.663 123.79 203.149 123.911 203.559 124.154C203.979 124.397 204.297 124.737 204.511 125.176V123.958H205.645ZM202.327 129.838C203.009 129.838 203.541 129.614 203.923 129.166C204.315 128.709 204.511 128.083 204.511 127.29C204.511 126.497 204.315 125.876 203.923 125.428C203.541 124.971 203.009 124.742 202.327 124.742C201.637 124.742 201.091 124.971 200.689 125.428C200.297 125.876 200.101 126.497 200.101 127.29C200.101 128.083 200.297 128.709 200.689 129.166C201.091 129.614 201.637 129.838 202.327 129.838ZM214.987 123.79C215.603 123.79 216.149 123.939 216.625 124.238C217.101 124.537 217.47 124.961 217.731 125.512C217.992 126.053 218.123 126.688 218.123 127.416C218.123 128.144 217.992 128.788 217.731 129.348C217.47 129.899 217.101 130.328 216.625 130.636C216.149 130.944 215.603 131.098 214.987 131.098C214.436 131.098 213.956 130.977 213.545 130.734C213.134 130.491 212.822 130.146 212.607 129.698V131H211.473V120.696H212.607V125.204C212.812 124.747 213.12 124.397 213.531 124.154C213.951 123.911 214.436 123.79 214.987 123.79ZM214.777 130.16C215.458 130.16 215.99 129.922 216.373 129.446C216.756 128.961 216.947 128.284 216.947 127.416C216.947 126.567 216.756 125.909 216.373 125.442C216 124.975 215.468 124.742 214.777 124.742C214.077 124.742 213.54 124.975 213.167 125.442C212.794 125.909 212.607 126.576 212.607 127.444C212.607 128.312 212.794 128.984 213.167 129.46C213.54 129.927 214.077 130.16 214.777 130.16ZM226.069 123.958V131H224.949V129.726C224.744 130.165 224.431 130.505 224.011 130.748C223.601 130.981 223.12 131.098 222.569 131.098C221.944 131.098 221.393 130.949 220.917 130.65C220.451 130.351 220.087 129.931 219.825 129.39C219.573 128.839 219.447 128.2 219.447 127.472C219.447 126.744 219.578 126.105 219.839 125.554C220.101 124.994 220.465 124.56 220.931 124.252C221.407 123.944 221.953 123.79 222.569 123.79C223.12 123.79 223.601 123.911 224.011 124.154C224.422 124.397 224.735 124.737 224.949 125.176V123.958H226.069ZM222.793 130.16C223.484 130.16 224.016 129.927 224.389 129.46C224.763 128.984 224.949 128.312 224.949 127.444C224.949 126.576 224.763 125.909 224.389 125.442C224.016 124.975 223.484 124.742 222.793 124.742C222.103 124.742 221.561 124.985 221.169 125.47C220.787 125.946 220.595 126.613 220.595 127.472C220.595 128.331 220.787 128.993 221.169 129.46C221.552 129.927 222.093 130.16 222.793 130.16ZM230.642 131.098C229.457 131.098 228.519 130.795 227.828 130.188L228.206 129.348C228.589 129.647 228.976 129.861 229.368 129.992C229.76 130.123 230.199 130.188 230.684 130.188C231.216 130.188 231.617 130.099 231.888 129.922C232.168 129.735 232.308 129.469 232.308 129.124C232.308 128.844 232.215 128.62 232.028 128.452C231.841 128.284 231.533 128.153 231.104 128.06L229.914 127.78C229.326 127.649 228.869 127.416 228.542 127.08C228.225 126.744 228.066 126.343 228.066 125.876C228.066 125.26 228.313 124.761 228.808 124.378C229.303 123.986 229.956 123.79 230.768 123.79C231.263 123.79 231.729 123.869 232.168 124.028C232.607 124.187 232.975 124.415 233.274 124.714L232.896 125.54C232.233 124.989 231.524 124.714 230.768 124.714C230.264 124.714 229.872 124.812 229.592 125.008C229.321 125.195 229.186 125.461 229.186 125.806C229.186 126.095 229.27 126.324 229.438 126.492C229.615 126.66 229.895 126.791 230.278 126.884L231.468 127.178C232.121 127.327 232.607 127.561 232.924 127.878C233.241 128.186 233.4 128.592 233.4 129.096C233.4 129.703 233.153 130.188 232.658 130.552C232.163 130.916 231.491 131.098 230.642 131.098ZM241.101 127.444H235.935C235.945 128.34 236.15 129.017 236.551 129.474C236.962 129.931 237.555 130.16 238.329 130.16C239.151 130.16 239.907 129.885 240.597 129.334L240.975 130.16C240.667 130.449 240.271 130.678 239.785 130.846C239.309 131.014 238.819 131.098 238.315 131.098C237.214 131.098 236.351 130.776 235.725 130.132C235.1 129.479 234.787 128.587 234.787 127.458C234.787 126.739 234.927 126.105 235.207 125.554C235.487 124.994 235.879 124.56 236.383 124.252C236.887 123.944 237.461 123.79 238.105 123.79C239.039 123.79 239.771 124.098 240.303 124.714C240.835 125.321 241.101 126.161 241.101 127.234V127.444ZM238.119 124.672C237.531 124.672 237.051 124.849 236.677 125.204C236.313 125.559 236.08 126.058 235.977 126.702H240.079C240.023 126.039 239.827 125.535 239.491 125.19C239.165 124.845 238.707 124.672 238.119 124.672ZM249.024 120.696V131H247.904V129.726C247.699 130.165 247.386 130.505 246.966 130.748C246.556 130.981 246.075 131.098 245.524 131.098C244.908 131.098 244.362 130.944 243.886 130.636C243.42 130.328 243.056 129.899 242.794 129.348C242.533 128.788 242.402 128.144 242.402 127.416C242.402 126.688 242.528 126.053 242.78 125.512C243.042 124.961 243.41 124.537 243.886 124.238C244.362 123.939 244.908 123.79 245.524 123.79C246.075 123.79 246.556 123.911 246.966 124.154C247.377 124.387 247.685 124.719 247.89 125.148V120.696H249.024ZM245.748 130.16C246.439 130.16 246.971 129.927 247.344 129.46C247.718 128.984 247.904 128.312 247.904 127.444C247.904 126.585 247.718 125.923 247.344 125.456C246.971 124.98 246.439 124.742 245.748 124.742C245.058 124.742 244.516 124.975 244.124 125.442C243.742 125.909 243.55 126.567 243.55 127.416C243.55 128.284 243.742 128.961 244.124 129.446C244.516 129.922 245.058 130.16 245.748 130.16ZM257.779 131.098C257.117 131.098 256.533 130.949 256.029 130.65C255.525 130.351 255.133 129.927 254.853 129.376C254.583 128.825 254.447 128.181 254.447 127.444C254.447 126.707 254.583 126.063 254.853 125.512C255.133 124.961 255.525 124.537 256.029 124.238C256.533 123.939 257.117 123.79 257.779 123.79C258.442 123.79 259.025 123.939 259.529 124.238C260.033 124.537 260.421 124.961 260.691 125.512C260.971 126.063 261.111 126.707 261.111 127.444C261.111 128.181 260.971 128.825 260.691 129.376C260.421 129.927 260.033 130.351 259.529 130.65C259.025 130.949 258.442 131.098 257.779 131.098ZM257.779 130.16C258.479 130.16 259.016 129.931 259.389 129.474C259.763 129.007 259.949 128.331 259.949 127.444C259.949 126.585 259.758 125.923 259.375 125.456C258.993 124.98 258.461 124.742 257.779 124.742C257.089 124.742 256.552 124.98 256.169 125.456C255.787 125.923 255.595 126.585 255.595 127.444C255.595 128.331 255.782 129.007 256.155 129.474C256.538 129.931 257.079 130.16 257.779 130.16ZM266.393 123.79C268.082 123.79 268.927 124.719 268.927 126.576V131H267.793V126.632C267.793 125.979 267.662 125.503 267.401 125.204C267.14 124.896 266.729 124.742 266.169 124.742C265.516 124.742 264.993 124.943 264.601 125.344C264.209 125.745 264.013 126.287 264.013 126.968V131H262.879V125.932C262.879 125.204 262.842 124.546 262.767 123.958H263.845L263.957 125.218C264.172 124.761 264.494 124.411 264.923 124.168C265.352 123.916 265.842 123.79 266.393 123.79ZM108.368 141.79C108.601 141.79 108.816 141.818 109.012 141.874L108.984 142.91C108.769 142.835 108.522 142.798 108.242 142.798C107.561 142.798 107.052 143.013 106.716 143.442C106.389 143.862 106.226 144.375 106.226 144.982V149H105.092V143.932C105.092 143.204 105.055 142.546 104.98 141.958H106.058L106.17 143.26C106.347 142.784 106.632 142.42 107.024 142.168C107.416 141.916 107.864 141.79 108.368 141.79ZM115.922 145.444H110.756C110.765 146.34 110.97 147.017 111.372 147.474C111.782 147.931 112.375 148.16 113.15 148.16C113.971 148.16 114.727 147.885 115.418 147.334L115.796 148.16C115.488 148.449 115.091 148.678 114.606 148.846C114.13 149.014 113.64 149.098 113.136 149.098C112.034 149.098 111.171 148.776 110.546 148.132C109.92 147.479 109.608 146.587 109.608 145.458C109.608 144.739 109.748 144.105 110.028 143.554C110.308 142.994 110.7 142.56 111.204 142.252C111.708 141.944 112.282 141.79 112.926 141.79C113.859 141.79 114.592 142.098 115.124 142.714C115.656 143.321 115.922 144.161 115.922 145.234V145.444ZM112.94 142.672C112.352 142.672 111.871 142.849 111.498 143.204C111.134 143.559 110.9 144.058 110.798 144.702H114.9C114.844 144.039 114.648 143.535 114.312 143.19C113.985 142.845 113.528 142.672 112.94 142.672ZM123.845 141.958V149H122.725V147.726C122.519 148.165 122.207 148.505 121.787 148.748C121.376 148.981 120.895 149.098 120.345 149.098C119.719 149.098 119.169 148.949 118.693 148.65C118.226 148.351 117.862 147.931 117.601 147.39C117.349 146.839 117.223 146.2 117.223 145.472C117.223 144.744 117.353 144.105 117.615 143.554C117.876 142.994 118.24 142.56 118.707 142.252C119.183 141.944 119.729 141.79 120.345 141.79C120.895 141.79 121.376 141.911 121.787 142.154C122.197 142.397 122.51 142.737 122.725 143.176V141.958H123.845ZM120.569 148.16C121.259 148.16 121.791 147.927 122.165 147.46C122.538 146.984 122.725 146.312 122.725 145.444C122.725 144.576 122.538 143.909 122.165 143.442C121.791 142.975 121.259 142.742 120.569 142.742C119.878 142.742 119.337 142.985 118.945 143.47C118.562 143.946 118.371 144.613 118.371 145.472C118.371 146.331 118.562 146.993 118.945 147.46C119.327 147.927 119.869 148.16 120.569 148.16ZM126.037 138.696H127.171V149H126.037V138.696ZM129.303 144.772H133.265V145.71H129.303V144.772ZM136.887 142.854V146.704C136.887 147.227 136.995 147.595 137.209 147.81C137.424 148.015 137.727 148.118 138.119 148.118C138.381 148.118 138.633 148.076 138.875 147.992V148.958C138.586 149.051 138.259 149.098 137.895 149.098C137.223 149.098 136.696 148.911 136.313 148.538C135.94 148.155 135.753 147.595 135.753 146.858V142.854H134.381V141.958H135.753V140.152L136.887 139.746V141.958H138.903V142.854H136.887ZM140.27 141.958H141.404V149H140.27V141.958ZM141.544 138.976V140.264H140.158V138.976H141.544ZM151.418 141.79C152.976 141.79 153.756 142.719 153.756 144.576V149H152.622V144.632C152.622 143.969 152.505 143.489 152.272 143.19C152.048 142.891 151.679 142.742 151.166 142.742C150.568 142.742 150.102 142.943 149.766 143.344C149.43 143.745 149.262 144.291 149.262 144.982V149H148.128V144.632C148.128 143.979 148.011 143.503 147.778 143.204C147.544 142.896 147.171 142.742 146.658 142.742C146.06 142.742 145.589 142.943 145.244 143.344C144.908 143.745 144.74 144.291 144.74 144.982V149H143.606V143.932C143.606 143.204 143.568 142.546 143.494 141.958H144.572L144.684 143.19C144.88 142.742 145.169 142.397 145.552 142.154C145.944 141.911 146.396 141.79 146.91 141.79C147.47 141.79 147.927 141.902 148.282 142.126C148.636 142.35 148.898 142.695 149.066 143.162C149.28 142.742 149.593 142.411 150.004 142.168C150.424 141.916 150.895 141.79 151.418 141.79ZM161.804 145.444H156.638C156.648 146.34 156.853 147.017 157.254 147.474C157.665 147.931 158.258 148.16 159.032 148.16C159.854 148.16 160.61 147.885 161.3 147.334L161.678 148.16C161.37 148.449 160.974 148.678 160.488 148.846C160.012 149.014 159.522 149.098 159.018 149.098C157.917 149.098 157.054 148.776 156.428 148.132C155.803 147.479 155.49 146.587 155.49 145.458C155.49 144.739 155.63 144.105 155.91 143.554C156.19 142.994 156.582 142.56 157.086 142.252C157.59 141.944 158.164 141.79 158.808 141.79C159.742 141.79 160.474 142.098 161.006 142.714C161.538 143.321 161.804 144.161 161.804 145.234V145.444ZM158.822 142.672C158.234 142.672 157.754 142.849 157.38 143.204C157.016 143.559 156.783 144.058 156.68 144.702H160.782C160.726 144.039 160.53 143.535 160.194 143.19C159.868 142.845 159.41 142.672 158.822 142.672ZM167.176 138.696H168.31V149H167.176V138.696ZM173.424 149.098C172.761 149.098 172.178 148.949 171.674 148.65C171.17 148.351 170.778 147.927 170.498 147.376C170.227 146.825 170.092 146.181 170.092 145.444C170.092 144.707 170.227 144.063 170.498 143.512C170.778 142.961 171.17 142.537 171.674 142.238C172.178 141.939 172.761 141.79 173.424 141.79C174.087 141.79 174.67 141.939 175.174 142.238C175.678 142.537 176.065 142.961 176.336 143.512C176.616 144.063 176.756 144.707 176.756 145.444C176.756 146.181 176.616 146.825 176.336 147.376C176.065 147.927 175.678 148.351 175.174 148.65C174.67 148.949 174.087 149.098 173.424 149.098ZM173.424 148.16C174.124 148.16 174.661 147.931 175.034 147.474C175.407 147.007 175.594 146.331 175.594 145.444C175.594 144.585 175.403 143.923 175.02 143.456C174.637 142.98 174.105 142.742 173.424 142.742C172.733 142.742 172.197 142.98 171.814 143.456C171.431 143.923 171.24 144.585 171.24 145.444C171.24 146.331 171.427 147.007 171.8 147.474C172.183 147.931 172.724 148.16 173.424 148.16ZM184.796 141.958V148.944C184.796 149.989 184.525 150.778 183.984 151.31C183.452 151.851 182.663 152.122 181.618 152.122C180.544 152.122 179.62 151.879 178.846 151.394L179.042 150.47C179.49 150.722 179.91 150.904 180.302 151.016C180.703 151.128 181.142 151.184 181.618 151.184C182.299 151.184 182.812 151.002 183.158 150.638C183.503 150.283 183.676 149.751 183.676 149.042V147.376C183.461 147.824 183.144 148.174 182.724 148.426C182.313 148.669 181.823 148.79 181.254 148.79C180.638 148.79 180.087 148.645 179.602 148.356C179.126 148.067 178.757 147.656 178.496 147.124C178.234 146.592 178.104 145.981 178.104 145.29C178.104 144.599 178.234 143.988 178.496 143.456C178.757 142.924 179.126 142.513 179.602 142.224C180.087 141.935 180.638 141.79 181.254 141.79C181.814 141.79 182.299 141.911 182.71 142.154C183.13 142.397 183.447 142.737 183.662 143.176V141.958H184.796ZM181.478 147.838C182.159 147.838 182.691 147.614 183.074 147.166C183.466 146.709 183.662 146.083 183.662 145.29C183.662 144.497 183.466 143.876 183.074 143.428C182.691 142.971 182.159 142.742 181.478 142.742C180.787 142.742 180.241 142.971 179.84 143.428C179.448 143.876 179.252 144.497 179.252 145.29C179.252 146.083 179.448 146.709 179.84 147.166C180.241 147.614 180.787 147.838 181.478 147.838ZM196.825 141.958V149H195.705V147.726C195.5 148.165 195.187 148.505 194.767 148.748C194.357 148.981 193.876 149.098 193.325 149.098C192.7 149.098 192.149 148.949 191.673 148.65C191.207 148.351 190.843 147.931 190.581 147.39C190.329 146.839 190.203 146.2 190.203 145.472C190.203 144.744 190.334 144.105 190.595 143.554C190.857 142.994 191.221 142.56 191.687 142.252C192.163 141.944 192.709 141.79 193.325 141.79C193.876 141.79 194.357 141.911 194.767 142.154C195.178 142.397 195.491 142.737 195.705 143.176V141.958H196.825ZM193.549 148.16C194.24 148.16 194.772 147.927 195.145 147.46C195.519 146.984 195.705 146.312 195.705 145.444C195.705 144.576 195.519 143.909 195.145 143.442C194.772 142.975 194.24 142.742 193.549 142.742C192.859 142.742 192.317 142.985 191.925 143.47C191.543 143.946 191.351 144.613 191.351 145.472C191.351 146.331 191.543 146.993 191.925 147.46C192.308 147.927 192.849 148.16 193.549 148.16ZM202.532 141.79C204.221 141.79 205.066 142.719 205.066 144.576V149H203.932V144.632C203.932 143.979 203.801 143.503 203.54 143.204C203.278 142.896 202.868 142.742 202.308 142.742C201.654 142.742 201.132 142.943 200.74 143.344C200.348 143.745 200.152 144.287 200.152 144.968V149H199.018V143.932C199.018 143.204 198.98 142.546 198.906 141.958H199.984L200.096 143.218C200.31 142.761 200.632 142.411 201.062 142.168C201.491 141.916 201.981 141.79 202.532 141.79ZM213.409 141.958V149H212.289V147.726C212.084 148.165 211.771 148.505 211.351 148.748C210.941 148.981 210.46 149.098 209.909 149.098C209.284 149.098 208.733 148.949 208.257 148.65C207.791 148.351 207.427 147.931 207.165 147.39C206.913 146.839 206.787 146.2 206.787 145.472C206.787 144.744 206.918 144.105 207.179 143.554C207.441 142.994 207.805 142.56 208.271 142.252C208.747 141.944 209.293 141.79 209.909 141.79C210.46 141.79 210.941 141.911 211.351 142.154C211.762 142.397 212.075 142.737 212.289 143.176V141.958H213.409ZM210.133 148.16C210.824 148.16 211.356 147.927 211.729 147.46C212.103 146.984 212.289 146.312 212.289 145.444C212.289 144.576 212.103 143.909 211.729 143.442C211.356 142.975 210.824 142.742 210.133 142.742C209.443 142.742 208.901 142.985 208.509 143.47C208.127 143.946 207.935 144.613 207.935 145.472C207.935 146.331 208.127 146.993 208.509 147.46C208.892 147.927 209.433 148.16 210.133 148.16ZM215.602 138.696H216.736V149H215.602V138.696ZM225.126 141.958L221.836 149.644C221.49 150.447 221.056 151.035 220.534 151.408C220.011 151.781 219.367 152.038 218.602 152.178L218.364 151.296C219.026 151.147 219.526 150.946 219.862 150.694C220.207 150.451 220.492 150.073 220.716 149.56L220.996 148.93L218.014 141.958H219.204L221.584 147.768L223.992 141.958H225.126ZM228.632 149.098C227.447 149.098 226.509 148.795 225.818 148.188L226.196 147.348C226.579 147.647 226.966 147.861 227.358 147.992C227.75 148.123 228.189 148.188 228.674 148.188C229.206 148.188 229.607 148.099 229.878 147.922C230.158 147.735 230.298 147.469 230.298 147.124C230.298 146.844 230.205 146.62 230.018 146.452C229.831 146.284 229.523 146.153 229.094 146.06L227.904 145.78C227.316 145.649 226.859 145.416 226.532 145.08C226.215 144.744 226.056 144.343 226.056 143.876C226.056 143.26 226.303 142.761 226.798 142.378C227.293 141.986 227.946 141.79 228.758 141.79C229.253 141.79 229.719 141.869 230.158 142.028C230.597 142.187 230.965 142.415 231.264 142.714L230.886 143.54C230.223 142.989 229.514 142.714 228.758 142.714C228.254 142.714 227.862 142.812 227.582 143.008C227.311 143.195 227.176 143.461 227.176 143.806C227.176 144.095 227.26 144.324 227.428 144.492C227.605 144.66 227.885 144.791 228.268 144.884L229.458 145.178C230.111 145.327 230.597 145.561 230.914 145.878C231.231 146.186 231.39 146.592 231.39 147.096C231.39 147.703 231.143 148.188 230.648 148.552C230.153 148.916 229.481 149.098 228.632 149.098ZM233.197 141.958H234.331V149H233.197V141.958ZM234.471 138.976V140.264H233.085V138.976H234.471ZM238.913 149.098C237.728 149.098 236.79 148.795 236.099 148.188L236.477 147.348C236.86 147.647 237.247 147.861 237.639 147.992C238.031 148.123 238.47 148.188 238.955 148.188C239.487 148.188 239.889 148.099 240.159 147.922C240.439 147.735 240.579 147.469 240.579 147.124C240.579 146.844 240.486 146.62 240.299 146.452C240.113 146.284 239.805 146.153 239.375 146.06L238.185 145.78C237.597 145.649 237.14 145.416 236.813 145.08C236.496 144.744 236.337 144.343 236.337 143.876C236.337 143.26 236.585 142.761 237.079 142.378C237.574 141.986 238.227 141.79 239.039 141.79C239.534 141.79 240.001 141.869 240.439 142.028C240.878 142.187 241.247 142.415 241.545 142.714L241.167 143.54C240.505 142.989 239.795 142.714 239.039 142.714C238.535 142.714 238.143 142.812 237.863 143.008C237.593 143.195 237.457 143.461 237.457 143.806C237.457 144.095 237.541 144.324 237.709 144.492C237.887 144.66 238.167 144.791 238.549 144.884L239.739 145.178C240.393 145.327 240.878 145.561 241.195 145.878C241.513 146.186 241.671 146.592 241.671 147.096C241.671 147.703 241.424 148.188 240.929 148.552C240.435 148.916 239.763 149.098 238.913 149.098Z" fill="#5B5151"/>
<circle cx="81" cy="132" r="15" fill="white"/>
<mask id="mask1" mask-type="alpha" maskUnits="userSpaceOnUse" x="66" y="117" width="30" height="30">
<circle cx="81" cy="132" r="15" fill="#F4F4EA"/>
</mask>
<g mask="url(#mask1)">
<path fill-rule="evenodd" clip-rule="evenodd" d="M86.9322 124.298C85.524 128.565 84.165 132.437 82.785 136.704C82.7024 137.067 82.5194 137.399 82.2569 137.662C81.8951 137.926 81.4494 138.048 81.0035 138.007H79.3418L80.2853 140.274H82.8976C83.252 140.296 83.6053 140.216 83.9158 140.044C84.2264 139.872 84.4814 139.614 84.6509 139.302C84.7643 139.09 84.8609 138.868 84.9396 138.641L89.798 124.298H86.9322Z" fill="#635452"/>
<path fill-rule="evenodd" clip-rule="evenodd" d="M77.376 132.043H79.087C79.2676 132.052 79.4378 132.13 79.5623 132.261C79.6868 132.392 79.7562 132.566 79.7559 132.747V132.902C79.7562 133.083 79.6868 133.257 79.5623 133.388C79.4378 133.519 79.2676 133.597 79.087 133.606H77.376C77.1893 133.606 77.0102 133.532 76.8781 133.4C76.7461 133.268 76.6719 133.089 76.6719 132.902V132.747C76.6719 132.56 76.7461 132.381 76.8781 132.249C77.0102 132.117 77.1893 132.043 77.376 132.043Z" fill="#F0AD00"/>
<path fill-rule="evenodd" clip-rule="evenodd" d="M80.8545 132.043H82.643C82.8297 132.043 83.0088 132.117 83.1409 132.249C83.2729 132.381 83.3471 132.56 83.3471 132.747V132.902C83.3471 133.089 83.2729 133.268 83.1409 133.4C83.0088 133.532 82.8297 133.606 82.643 133.606H80.8545C80.6678 133.606 80.4887 133.532 80.3566 133.4C80.2246 133.268 80.1504 133.089 80.1504 132.902V132.747C80.1504 132.56 80.2246 132.381 80.3566 132.249C80.4887 132.117 80.6678 132.043 80.8545 132.043Z" fill="#E1760C"/>
<path fill-rule="evenodd" clip-rule="evenodd" d="M76.7354 130.114H78.5872C78.768 130.113 78.942 130.183 79.0731 130.307C79.2041 130.432 79.2823 130.602 79.2913 130.782V130.944C79.2913 131.131 79.2172 131.31 79.0851 131.442C78.9531 131.574 78.774 131.649 78.5872 131.649H76.7354C76.5486 131.649 76.3695 131.574 76.2375 131.442C76.1054 131.31 76.0312 131.131 76.0312 130.944V130.782C76.0403 130.602 76.1184 130.432 76.2495 130.307C76.3806 130.183 76.5546 130.113 76.7354 130.114Z" fill="#E1760C"/>
<path fill-rule="evenodd" clip-rule="evenodd" d="M80.3682 130.114H83.3114C83.4861 130.122 83.6513 130.195 83.7749 130.319C83.8986 130.443 83.9718 130.608 83.9803 130.782V130.944C83.9806 131.125 83.9112 131.299 83.7867 131.43C83.6622 131.561 83.492 131.639 83.3114 131.649H80.3682C80.1814 131.649 80.0023 131.574 79.8703 131.442C79.7382 131.31 79.6641 131.131 79.6641 130.944V130.782C79.6731 130.602 79.7513 130.432 79.8823 130.307C80.0134 130.183 80.1874 130.113 80.3682 130.114Z" fill="#F0AD00"/>
<path fill-rule="evenodd" clip-rule="evenodd" d="M80.1026 133.986H82.0107C82.1913 133.995 82.3615 134.074 82.486 134.205C82.6105 134.336 82.6799 134.51 82.6797 134.69V134.859C82.6799 135.04 82.6105 135.214 82.486 135.345C82.3615 135.476 82.1913 135.555 82.0107 135.564H80.1026C79.9158 135.564 79.7367 135.489 79.6047 135.357C79.4726 135.225 79.3984 135.046 79.3984 134.859V134.697C79.3984 134.511 79.4726 134.332 79.6047 134.2C79.7367 134.068 79.9158 133.993 80.1026 133.993V133.986Z" fill="#D65359"/>
<path fill-rule="evenodd" clip-rule="evenodd" d="M79.0166 135.923H81.3684C81.5551 135.923 81.7342 135.997 81.8663 136.129C81.9983 136.261 82.0725 136.44 82.0725 136.627V136.789C82.0725 136.976 81.9983 137.155 81.8663 137.287C81.7342 137.419 81.5551 137.493 81.3684 137.493H79.0166C78.8299 137.493 78.6508 137.419 78.5187 137.287C78.3867 137.155 78.3125 136.976 78.3125 136.789V136.627C78.3125 136.44 78.3867 136.261 78.5187 136.129C78.6508 135.997 78.8299 135.923 79.0166 135.923Z" fill="#F0AD00"/>
<path fill-rule="evenodd" clip-rule="evenodd" d="M78.0811 128.17H80.3836C80.5703 128.17 80.7494 128.244 80.8814 128.376C81.0135 128.508 81.0877 128.688 81.0877 128.874V129.036C81.0877 129.223 81.0135 129.402 80.8814 129.534C80.7494 129.666 80.5703 129.74 80.3836 129.74H78.0811C77.8943 129.74 77.7152 129.666 77.5832 129.534C77.4511 129.402 77.377 129.223 77.377 129.036V128.874C77.377 128.688 77.4511 128.508 77.5832 128.376C77.7152 128.244 77.8943 128.17 78.0811 128.17Z" fill="#F0AD00"/>
<path fill-rule="evenodd" clip-rule="evenodd" d="M82.1358 128.17H83.9665C84.1532 128.17 84.3323 128.244 84.4644 128.376C84.5964 128.508 84.6706 128.688 84.6706 128.874V129.036C84.6706 129.223 84.5964 129.402 84.4644 129.534C84.3323 129.666 84.1532 129.74 83.9665 129.74H82.1358C81.949 129.74 81.7699 129.666 81.6379 129.534C81.5058 129.402 81.4316 129.223 81.4316 129.036V128.874C81.4316 128.688 81.5058 128.508 81.6379 128.376C81.7699 128.244 81.949 128.17 82.1358 128.17Z" fill="#E1760C"/>
<path fill-rule="evenodd" clip-rule="evenodd" d="M76.2429 128.17C76.3933 128.17 76.5403 128.215 76.6654 128.298C76.7904 128.382 76.8879 128.501 76.9455 128.64C77.003 128.779 77.0181 128.931 76.9888 129.079C76.9594 129.227 76.887 129.362 76.7806 129.468C76.6743 129.575 76.5388 129.647 76.3913 129.676C76.2437 129.706 76.0909 129.691 75.9519 129.633C75.8129 129.576 75.6942 129.478 75.6106 129.353C75.5271 129.228 75.4825 129.081 75.4825 128.931C75.4815 128.831 75.5005 128.731 75.5384 128.639C75.5763 128.546 75.6323 128.462 75.7031 128.391C75.7739 128.32 75.8581 128.264 75.9508 128.226C76.0435 128.188 76.1428 128.169 76.2429 128.17Z" fill="#D65359"/>
<path fill-rule="evenodd" clip-rule="evenodd" d="M74.8975 126.234H79.4884C79.6751 126.234 79.8542 126.308 79.9863 126.44C80.1183 126.572 80.1925 126.751 80.1925 126.938V127.1C80.1925 127.287 80.1183 127.466 79.9863 127.598C79.8542 127.73 79.6751 127.804 79.4884 127.804H74.8975C74.7107 127.804 74.5316 127.73 74.3996 127.598C74.2675 127.466 74.1934 127.287 74.1934 127.1V126.938C74.1934 126.751 74.2675 126.572 74.3996 126.44C74.5316 126.308 74.7107 126.234 74.8975 126.234Z" fill="#D65359"/>
<path fill-rule="evenodd" clip-rule="evenodd" d="M81.2139 126.234H84.6218C84.8086 126.234 84.9877 126.308 85.1197 126.44C85.2518 126.572 85.326 126.751 85.326 126.938V127.1C85.326 127.287 85.2518 127.466 85.1197 127.598C84.9877 127.73 84.8086 127.804 84.6218 127.804H81.2139C81.0271 127.804 80.848 127.73 80.716 127.598C80.5839 127.466 80.5098 127.287 80.5098 127.1V126.938C80.5098 126.751 80.5839 126.572 80.716 126.44C80.848 126.308 81.0271 126.234 81.2139 126.234Z" fill="#F0AD00"/>
<path fill-rule="evenodd" clip-rule="evenodd" d="M73.6162 124.297H77.1791C77.3658 124.297 77.5449 124.372 77.677 124.504C77.809 124.636 77.8832 124.815 77.8832 125.001V125.156C77.8832 125.343 77.809 125.522 77.677 125.654C77.5449 125.786 77.3658 125.861 77.1791 125.861H73.6162C73.4295 125.861 73.2504 125.786 73.1183 125.654C72.9863 125.522 72.9121 125.343 72.9121 125.156V125.001C72.9121 124.815 72.9863 124.636 73.1183 124.504C73.2504 124.372 73.4295 124.297 73.6162 124.297Z" fill="#E1760C"/>
<path fill-rule="evenodd" clip-rule="evenodd" d="M80.8975 124.297H85.256C85.4428 124.297 85.6218 124.372 85.7539 124.504C85.8859 124.636 85.9601 124.815 85.9601 125.001V125.156C85.9601 125.343 85.8859 125.522 85.7539 125.654C85.6218 125.786 85.4428 125.861 85.256 125.861H80.8975C80.7107 125.861 80.5316 125.786 80.3996 125.654C80.2675 125.522 80.1934 125.343 80.1934 125.156V125.001C80.1934 124.815 80.2675 124.636 80.3996 124.504C80.5316 124.372 80.7107 124.297 80.8975 124.297Z" fill="#D65359"/>
<path fill-rule="evenodd" clip-rule="evenodd" d="M79.0386 124.297C79.1876 124.297 79.3332 124.342 79.4571 124.424C79.581 124.507 79.6776 124.625 79.7346 124.762C79.7917 124.9 79.8066 125.052 79.7775 125.198C79.7484 125.344 79.6767 125.478 79.5713 125.584C79.466 125.689 79.3317 125.761 79.1856 125.79C79.0394 125.819 78.8879 125.804 78.7503 125.747C78.6126 125.69 78.4949 125.593 78.4121 125.469C78.3293 125.345 78.2852 125.2 78.2852 125.051C78.2852 124.851 78.3645 124.659 78.5058 124.518C78.6471 124.377 78.8388 124.297 79.0386 124.297Z" fill="#F0AD00"/>
<path fill-rule="evenodd" clip-rule="evenodd" d="M78.2437 133.986C78.3947 133.985 78.5427 134.028 78.6688 134.111C78.7949 134.194 78.8935 134.313 78.9519 134.452C79.0103 134.592 79.026 134.745 78.9969 134.893C78.9677 135.041 78.8952 135.177 78.7884 135.284C78.6816 135.391 78.5455 135.464 78.3973 135.493C78.2492 135.522 78.0957 135.506 77.9564 135.448C77.8172 135.389 77.6985 135.291 77.6155 135.165C77.5325 135.039 77.4889 134.891 77.4903 134.74C77.4903 134.54 77.5696 134.348 77.7109 134.207C77.8522 134.065 78.0439 133.986 78.2437 133.986Z" fill="#E1760C"/>
</g>
</svg>
