<svg width="359" height="168" viewBox="0 0 359 168" fill="none" xmlns="http://www.w3.org/2000/svg">
<rect width="359" height="168" rx="12" fill="white"/>
<rect x="0.5" y="0.5" width="358" height="167" rx="11.5" stroke="#5B5151" stroke-opacity="0.1"/>
<path d="M16 36C16 24.9543 24.9543 16 36 16H281C292.046 16 301 24.9543 301 36V56C301 67.0457 292.046 76 281 76H16V36Z" fill="#EACFFF"/>
<path d="M65.232 32.032H66.38V42H65.232V32.032ZM78.5538 31.696V42H77.4338V40.726C77.2284 41.1647 76.9158 41.5053 76.4958 41.748C76.0851 41.9813 75.6044 42.098 75.0538 42.098C74.4378 42.098 73.8918 41.944 73.4158 41.636C72.9491 41.328 72.5851 40.8987 72.3238 40.348C72.0624 39.788 71.9318 39.144 71.9318 38.416C71.9318 37.688 72.0578 37.0533 72.3098 36.512C72.5711 35.9613 72.9398 35.5367 73.4158 35.238C73.8918 34.9393 74.4378 34.79 75.0538 34.79C75.6044 34.79 76.0851 34.9113 76.4958 35.154C76.9064 35.3873 77.2144 35.7187 77.4198 36.148V31.696H78.5538ZM75.2778 41.16C75.9684 41.16 76.5004 40.9267 76.8738 40.46C77.2471 39.984 77.4338 39.312 77.4338 38.444C77.4338 37.5853 77.2471 36.9227 76.8738 36.456C76.5004 35.98 75.9684 35.742 75.2778 35.742C74.5871 35.742 74.0458 35.9753 73.6538 36.442C73.2711 36.9087 73.0798 37.5667 73.0798 38.416C73.0798 39.284 73.2711 39.9607 73.6538 40.446C74.0458 40.922 74.5871 41.16 75.2778 41.16ZM83.6583 42.098C82.9956 42.098 82.4123 41.9487 81.9083 41.65C81.4043 41.3513 81.0123 40.9267 80.7323 40.376C80.4616 39.8253 80.3263 39.1813 80.3263 38.444C80.3263 37.7067 80.4616 37.0627 80.7323 36.512C81.0123 35.9613 81.4043 35.5367 81.9083 35.238C82.4123 34.9393 82.9956 34.79 83.6583 34.79C84.321 34.79 84.9043 34.9393 85.4083 35.238C85.9123 35.5367 86.2996 35.9613 86.5703 36.512C86.8503 37.0627 86.9903 37.7067 86.9903 38.444C86.9903 39.1813 86.8503 39.8253 86.5703 40.376C86.2996 40.9267 85.9123 41.3513 85.4083 41.65C84.9043 41.9487 84.321 42.098 83.6583 42.098ZM83.6583 41.16C84.3583 41.16 84.895 40.9313 85.2683 40.474C85.6416 40.0073 85.8283 39.3307 85.8283 38.444C85.8283 37.5853 85.637 36.9227 85.2543 36.456C84.8716 35.98 84.3396 35.742 83.6583 35.742C82.9676 35.742 82.431 35.98 82.0483 36.456C81.6656 36.9227 81.4743 37.5853 81.4743 38.444C81.4743 39.3307 81.661 40.0073 82.0343 40.474C82.417 40.9313 82.9583 41.16 83.6583 41.16ZM95.9224 34.79C97.6117 34.79 98.4564 35.7187 98.4564 37.576V42H97.3224V37.632C97.3224 36.9787 97.1917 36.5027 96.9304 36.204C96.6691 35.896 96.2584 35.742 95.6984 35.742C95.0451 35.742 94.5224 35.9427 94.1304 36.344C93.7384 36.7453 93.5424 37.2867 93.5424 37.968V42H92.4084V36.932C92.4084 36.204 92.3711 35.546 92.2964 34.958H93.3744L93.4864 36.218C93.7011 35.7607 94.0231 35.4107 94.4524 35.168C94.8817 34.916 95.3717 34.79 95.9224 34.79ZM103.51 42.098C102.847 42.098 102.264 41.9487 101.76 41.65C101.256 41.3513 100.864 40.9267 100.584 40.376C100.313 39.8253 100.178 39.1813 100.178 38.444C100.178 37.7067 100.313 37.0627 100.584 36.512C100.864 35.9613 101.256 35.5367 101.76 35.238C102.264 34.9393 102.847 34.79 103.51 34.79C104.173 34.79 104.756 34.9393 105.26 35.238C105.764 35.5367 106.151 35.9613 106.422 36.512C106.702 37.0627 106.842 37.7067 106.842 38.444C106.842 39.1813 106.702 39.8253 106.422 40.376C106.151 40.9267 105.764 41.3513 105.26 41.65C104.756 41.9487 104.173 42.098 103.51 42.098ZM103.51 41.16C104.21 41.16 104.747 40.9313 105.12 40.474C105.493 40.0073 105.68 39.3307 105.68 38.444C105.68 37.5853 105.489 36.9227 105.106 36.456C104.723 35.98 104.191 35.742 103.51 35.742C102.819 35.742 102.283 35.98 101.9 36.456C101.517 36.9227 101.326 37.5853 101.326 38.444C101.326 39.3307 101.513 40.0073 101.886 40.474C102.269 40.9313 102.81 41.16 103.51 41.16ZM110.108 35.854V39.704C110.108 40.2267 110.215 40.5953 110.43 40.81C110.645 41.0153 110.948 41.118 111.34 41.118C111.601 41.118 111.853 41.076 112.096 40.992V41.958C111.807 42.0513 111.48 42.098 111.116 42.098C110.444 42.098 109.917 41.9113 109.534 41.538C109.161 41.1553 108.974 40.5953 108.974 39.858V35.854H107.602V34.958H108.974V33.152L110.108 32.746V34.958H112.124V35.854H110.108ZM120.655 34.79C122.344 34.79 123.189 35.7187 123.189 37.576V42H122.055V37.632C122.055 36.9787 121.924 36.5027 121.663 36.204C121.401 35.896 120.991 35.742 120.431 35.742C119.777 35.742 119.255 35.9427 118.863 36.344C118.471 36.7453 118.275 37.2867 118.275 37.968V42H117.141V31.696H118.275V36.106C118.499 35.6767 118.816 35.35 119.227 35.126C119.647 34.902 120.123 34.79 120.655 34.79ZM131.532 34.958V42H130.412V40.726C130.207 41.1647 129.894 41.5053 129.474 41.748C129.064 41.9813 128.583 42.098 128.032 42.098C127.407 42.098 126.856 41.9487 126.38 41.65C125.914 41.3513 125.55 40.9313 125.288 40.39C125.036 39.8393 124.91 39.2 124.91 38.472C124.91 37.744 125.041 37.1047 125.302 36.554C125.564 35.994 125.928 35.56 126.394 35.252C126.87 34.944 127.416 34.79 128.032 34.79C128.583 34.79 129.064 34.9113 129.474 35.154C129.885 35.3967 130.198 35.7373 130.412 36.176V34.958H131.532ZM128.256 41.16C128.947 41.16 129.479 40.9267 129.852 40.46C130.226 39.984 130.412 39.312 130.412 38.444C130.412 37.576 130.226 36.9087 129.852 36.442C129.479 35.9753 128.947 35.742 128.256 35.742C127.566 35.742 127.024 35.9847 126.632 36.47C126.25 36.946 126.058 37.6133 126.058 38.472C126.058 39.3307 126.25 39.9933 126.632 40.46C127.015 40.9267 127.556 41.16 128.256 41.16ZM139.913 34.972L136.875 42H135.797L132.801 34.972H133.991L136.371 40.768L138.779 34.972H139.913ZM146.974 38.444H141.808C141.818 39.34 142.023 40.0167 142.424 40.474C142.835 40.9313 143.428 41.16 144.202 41.16C145.024 41.16 145.78 40.8847 146.47 40.334L146.848 41.16C146.54 41.4493 146.144 41.678 145.658 41.846C145.182 42.014 144.692 42.098 144.188 42.098C143.087 42.098 142.224 41.776 141.598 41.132C140.973 40.4787 140.66 39.5873 140.66 38.458C140.66 37.7393 140.8 37.1047 141.08 36.554C141.36 35.994 141.752 35.56 142.256 35.252C142.76 34.944 143.334 34.79 143.978 34.79C144.912 34.79 145.644 35.098 146.176 35.714C146.708 36.3207 146.974 37.1607 146.974 38.234V38.444ZM143.992 35.672C143.404 35.672 142.924 35.8493 142.55 36.204C142.186 36.5587 141.953 37.058 141.85 37.702H145.952C145.896 37.0393 145.7 36.5353 145.364 36.19C145.038 35.8447 144.58 35.672 143.992 35.672ZM158.24 34.958V42H157.134V40.782C156.91 41.2113 156.597 41.538 156.196 41.762C155.795 41.986 155.342 42.098 154.838 42.098C154.007 42.098 153.377 41.8647 152.948 41.398C152.519 40.9313 152.304 40.2407 152.304 39.326V34.958H153.438V39.298C153.438 39.9327 153.569 40.3993 153.83 40.698C154.091 40.9967 154.488 41.146 155.02 41.146C155.645 41.146 156.149 40.9453 156.532 40.544C156.915 40.1333 157.106 39.5967 157.106 38.934V34.958H158.24ZM163.94 34.79C165.629 34.79 166.474 35.7187 166.474 37.576V42H165.34V37.632C165.34 36.9787 165.209 36.5027 164.948 36.204C164.687 35.896 164.276 35.742 163.716 35.742C163.063 35.742 162.54 35.9427 162.148 36.344C161.756 36.7453 161.56 37.2867 161.56 37.968V42H160.426V36.932C160.426 36.204 160.389 35.546 160.314 34.958H161.392L161.504 36.218C161.719 35.7607 162.041 35.4107 162.47 35.168C162.899 34.916 163.389 34.79 163.94 34.79ZM168.615 31.696H169.749V42H168.615V31.696ZM171.951 34.958H173.085V42H171.951V34.958ZM173.225 31.976V33.264H171.839V31.976H173.225ZM183.099 34.79C184.658 34.79 185.437 35.7187 185.437 37.576V42H184.303V37.632C184.303 36.9693 184.187 36.4887 183.953 36.19C183.729 35.8913 183.361 35.742 182.847 35.742C182.25 35.742 181.783 35.9427 181.447 36.344C181.111 36.7453 180.943 37.2913 180.943 37.982V42H179.809V37.632C179.809 36.9787 179.693 36.5027 179.459 36.204C179.226 35.896 178.853 35.742 178.339 35.742C177.742 35.742 177.271 35.9427 176.925 36.344C176.589 36.7453 176.421 37.2913 176.421 37.982V42H175.287V36.932C175.287 36.204 175.25 35.546 175.175 34.958H176.253L176.365 36.19C176.561 35.742 176.851 35.3967 177.233 35.154C177.625 34.9113 178.078 34.79 178.591 34.79C179.151 34.79 179.609 34.902 179.963 35.126C180.318 35.35 180.579 35.6953 180.747 36.162C180.962 35.742 181.275 35.4107 181.685 35.168C182.105 34.916 182.577 34.79 183.099 34.79ZM187.592 34.958H188.726V42H187.592V34.958ZM188.866 31.976V33.264H187.48V31.976H188.866ZM192.44 35.854V39.704C192.44 40.2267 192.547 40.5953 192.762 40.81C192.977 41.0153 193.28 41.118 193.672 41.118C193.933 41.118 194.185 41.076 194.428 40.992V41.958C194.139 42.0513 193.812 42.098 193.448 42.098C192.776 42.098 192.249 41.9113 191.866 41.538C191.493 41.1553 191.306 40.5953 191.306 39.858V35.854H189.934V34.958H191.306V33.152L192.44 32.746V34.958H194.456V35.854H192.44ZM201.716 38.444H196.55C196.56 39.34 196.765 40.0167 197.166 40.474C197.577 40.9313 198.17 41.16 198.944 41.16C199.766 41.16 200.522 40.8847 201.212 40.334L201.59 41.16C201.282 41.4493 200.886 41.678 200.4 41.846C199.924 42.014 199.434 42.098 198.93 42.098C197.829 42.098 196.966 41.776 196.34 41.132C195.715 40.4787 195.402 39.5873 195.402 38.458C195.402 37.7393 195.542 37.1047 195.822 36.554C196.102 35.994 196.494 35.56 196.998 35.252C197.502 34.944 198.076 34.79 198.72 34.79C199.654 34.79 200.386 35.098 200.918 35.714C201.45 36.3207 201.716 37.1607 201.716 38.234V38.444ZM198.734 35.672C198.146 35.672 197.666 35.8493 197.292 36.204C196.928 36.5587 196.695 37.058 196.592 37.702H200.694C200.638 37.0393 200.442 36.5353 200.106 36.19C199.78 35.8447 199.322 35.672 198.734 35.672ZM209.64 31.696V42H208.52V40.726C208.314 41.1647 208.002 41.5053 207.582 41.748C207.171 41.9813 206.69 42.098 206.14 42.098C205.524 42.098 204.978 41.944 204.502 41.636C204.035 41.328 203.671 40.8987 203.41 40.348C203.148 39.788 203.018 39.144 203.018 38.416C203.018 37.688 203.144 37.0533 203.396 36.512C203.657 35.9613 204.026 35.5367 204.502 35.238C204.978 34.9393 205.524 34.79 206.14 34.79C206.69 34.79 207.171 34.9113 207.582 35.154C207.992 35.3873 208.3 35.7187 208.506 36.148V31.696H209.64ZM206.364 41.16C207.054 41.16 207.586 40.9267 207.96 40.46C208.333 39.984 208.52 39.312 208.52 38.444C208.52 37.5853 208.333 36.9227 207.96 36.456C207.586 35.98 207.054 35.742 206.364 35.742C205.673 35.742 205.132 35.9753 204.74 36.442C204.357 36.9087 204.166 37.5667 204.166 38.416C204.166 39.284 204.357 39.9607 204.74 40.446C205.132 40.922 205.673 41.16 206.364 41.16ZM68.046 60.098C67.3647 60.098 66.7673 59.9487 66.254 59.65C65.75 59.3513 65.358 58.9313 65.078 58.39C64.8073 57.8393 64.672 57.2 64.672 56.472C64.672 55.744 64.812 55.1047 65.092 54.554C65.372 53.994 65.7687 53.56 66.282 53.252C66.8047 52.944 67.4113 52.79 68.102 52.79C68.578 52.79 69.0353 52.874 69.474 53.042C69.922 53.2007 70.2907 53.4247 70.58 53.714L70.202 54.554C69.8473 54.274 69.502 54.0687 69.166 53.938C68.8393 53.8073 68.5033 53.742 68.158 53.742C67.4393 53.742 66.8747 53.9847 66.464 54.47C66.0533 54.946 65.848 55.6133 65.848 56.472C65.848 57.3213 66.0487 57.984 66.45 58.46C66.8607 58.9267 67.43 59.16 68.158 59.16C68.5033 59.16 68.8393 59.0947 69.166 58.964C69.502 58.8333 69.8473 58.628 70.202 58.348L70.58 59.188C70.2813 59.468 69.9033 59.692 69.446 59.86C68.998 60.0187 68.5313 60.098 68.046 60.098ZM74.9356 60.098C74.273 60.098 73.6896 59.9487 73.1856 59.65C72.6816 59.3513 72.2896 58.9267 72.0096 58.376C71.739 57.8253 71.6036 57.1813 71.6036 56.444C71.6036 55.7067 71.739 55.0627 72.0096 54.512C72.2896 53.9613 72.6816 53.5367 73.1856 53.238C73.6896 52.9393 74.273 52.79 74.9356 52.79C75.5983 52.79 76.1816 52.9393 76.6856 53.238C77.1896 53.5367 77.577 53.9613 77.8476 54.512C78.1276 55.0627 78.2676 55.7067 78.2676 56.444C78.2676 57.1813 78.1276 57.8253 77.8476 58.376C77.577 58.9267 77.1896 59.3513 76.6856 59.65C76.1816 59.9487 75.5983 60.098 74.9356 60.098ZM74.9356 59.16C75.6356 59.16 76.1723 58.9313 76.5456 58.474C76.919 58.0073 77.1056 57.3307 77.1056 56.444C77.1056 55.5853 76.9143 54.9227 76.5316 54.456C76.149 53.98 75.617 53.742 74.9356 53.742C74.245 53.742 73.7083 53.98 73.3256 54.456C72.943 54.9227 72.7516 55.5853 72.7516 56.444C72.7516 57.3307 72.9383 58.0073 73.3116 58.474C73.6943 58.9313 74.2356 59.16 74.9356 59.16ZM83.5494 52.79C84.1654 52.79 84.7114 52.944 85.1874 53.252C85.6634 53.56 86.032 53.994 86.2934 54.554C86.5547 55.1047 86.6854 55.744 86.6854 56.472C86.6854 57.2 86.5547 57.8393 86.2934 58.39C86.032 58.9313 85.6634 59.3513 85.1874 59.65C84.7207 59.9487 84.1747 60.098 83.5494 60.098C82.9987 60.098 82.518 59.9767 82.1074 59.734C81.6967 59.4913 81.384 59.146 81.1694 58.698V63.024H80.0354V54.932C80.0354 54.204 79.998 53.546 79.9234 52.958H81.0014L81.1134 54.316C81.3094 53.8307 81.6174 53.4573 82.0374 53.196C82.4667 52.9253 82.9707 52.79 83.5494 52.79ZM83.3394 59.16C84.03 59.16 84.562 58.9267 84.9354 58.46C85.318 57.9933 85.5094 57.3307 85.5094 56.472C85.5094 55.6133 85.318 54.946 84.9354 54.47C84.5527 53.9847 84.0207 53.742 83.3394 53.742C82.6394 53.742 82.1027 53.9753 81.7294 54.442C81.356 54.9087 81.1694 55.576 81.1694 56.444C81.1694 57.312 81.356 57.984 81.7294 58.46C82.1027 58.9267 82.6394 59.16 83.3394 59.16ZM94.5359 52.958L91.2459 60.644C90.9005 61.4467 90.4665 62.0347 89.9439 62.408C89.4212 62.7813 88.7772 63.038 88.0119 63.178L87.7739 62.296C88.4365 62.1467 88.9359 61.946 89.2719 61.694C89.6172 61.4513 89.9019 61.0733 90.1259 60.56L90.4059 59.93L87.4239 52.958H88.6139L90.9939 58.768L93.4019 52.958H94.5359ZM106.481 52.958L103.877 60H102.785L100.769 54.498L98.7674 60H97.6754L95.0714 52.958H96.2614L98.2494 58.642L100.307 52.958H101.301L103.331 58.656L105.361 52.958H106.481ZM111.229 52.79C111.463 52.79 111.677 52.818 111.873 52.874L111.845 53.91C111.631 53.8353 111.383 53.798 111.103 53.798C110.422 53.798 109.913 54.0127 109.577 54.442C109.251 54.862 109.087 55.3753 109.087 55.982V60H107.953V54.932C107.953 54.204 107.916 53.546 107.841 52.958H108.919L109.031 54.26C109.209 53.784 109.493 53.42 109.885 53.168C110.277 52.916 110.725 52.79 111.229 52.79ZM113.026 52.958H114.16V60H113.026V52.958ZM114.3 49.976V51.264H112.914V49.976H114.3ZM117.874 53.854V57.704C117.874 58.2267 117.981 58.5953 118.196 58.81C118.41 59.0153 118.714 59.118 119.106 59.118C119.367 59.118 119.619 59.076 119.862 58.992V59.958C119.572 60.0513 119.246 60.098 118.882 60.098C118.21 60.098 117.682 59.9113 117.3 59.538C116.926 59.1553 116.74 58.5953 116.74 57.858V53.854H115.368V52.958H116.74V51.152L117.874 50.746V52.958H119.89V53.854H117.874ZM121.256 52.958H122.39V60H121.256V52.958ZM122.53 49.976V51.264H121.144V49.976H122.53ZM128.106 52.79C129.795 52.79 130.64 53.7187 130.64 55.576V60H129.506V55.632C129.506 54.9787 129.375 54.5027 129.114 54.204C128.853 53.896 128.442 53.742 127.882 53.742C127.229 53.742 126.706 53.9427 126.314 54.344C125.922 54.7453 125.726 55.2867 125.726 55.968V60H124.592V54.932C124.592 54.204 124.555 53.546 124.48 52.958H125.558L125.67 54.218C125.885 53.7607 126.207 53.4107 126.636 53.168C127.065 52.916 127.555 52.79 128.106 52.79ZM139.053 52.958V59.944C139.053 60.9893 138.783 61.778 138.241 62.31C137.709 62.8513 136.921 63.122 135.875 63.122C134.802 63.122 133.878 62.8793 133.103 62.394L133.299 61.47C133.747 61.722 134.167 61.904 134.559 62.016C134.961 62.128 135.399 62.184 135.875 62.184C136.557 62.184 137.07 62.002 137.415 61.638C137.761 61.2833 137.933 60.7513 137.933 60.042V58.376C137.719 58.824 137.401 59.174 136.981 59.426C136.571 59.6687 136.081 59.79 135.511 59.79C134.895 59.79 134.345 59.6453 133.859 59.356C133.383 59.0667 133.015 58.656 132.753 58.124C132.492 57.592 132.361 56.9807 132.361 56.29C132.361 55.5993 132.492 54.988 132.753 54.456C133.015 53.924 133.383 53.5133 133.859 53.224C134.345 52.9347 134.895 52.79 135.511 52.79C136.071 52.79 136.557 52.9113 136.967 53.154C137.387 53.3967 137.705 53.7373 137.919 54.176V52.958H139.053ZM135.735 58.838C136.417 58.838 136.949 58.614 137.331 58.166C137.723 57.7087 137.919 57.0833 137.919 56.29C137.919 55.4967 137.723 54.876 137.331 54.428C136.949 53.9707 136.417 53.742 135.735 53.742C135.045 53.742 134.499 53.9707 134.097 54.428C133.705 54.876 133.509 55.4967 133.509 56.29C133.509 57.0833 133.705 57.7087 134.097 58.166C134.499 58.614 135.045 58.838 135.735 58.838ZM148.157 52.79C148.39 52.79 148.605 52.818 148.801 52.874L148.773 53.91C148.558 53.8353 148.311 53.798 148.031 53.798C147.35 53.798 146.841 54.0127 146.505 54.442C146.178 54.862 146.015 55.3753 146.015 55.982V60H144.881V54.932C144.881 54.204 144.844 53.546 144.769 52.958H145.847L145.959 54.26C146.136 53.784 146.421 53.42 146.813 53.168C147.205 52.916 147.653 52.79 148.157 52.79ZM155.711 56.444H150.545C150.554 57.34 150.759 58.0167 151.161 58.474C151.571 58.9313 152.164 59.16 152.939 59.16C153.76 59.16 154.516 58.8847 155.207 58.334L155.585 59.16C155.277 59.4493 154.88 59.678 154.395 59.846C153.919 60.014 153.429 60.098 152.925 60.098C151.823 60.098 150.96 59.776 150.335 59.132C149.709 58.4787 149.397 57.5873 149.397 56.458C149.397 55.7393 149.537 55.1047 149.817 54.554C150.097 53.994 150.489 53.56 150.993 53.252C151.497 52.944 152.071 52.79 152.715 52.79C153.648 52.79 154.381 53.098 154.913 53.714C155.445 54.3207 155.711 55.1607 155.711 56.234V56.444ZM152.729 53.672C152.141 53.672 151.66 53.8493 151.287 54.204C150.923 54.5587 150.689 55.058 150.587 55.702H154.689C154.633 55.0393 154.437 54.5353 154.101 54.19C153.774 53.8447 153.317 53.672 152.729 53.672ZM159.812 60.098C158.627 60.098 157.689 59.7947 156.998 59.188L157.376 58.348C157.759 58.6467 158.146 58.8613 158.538 58.992C158.93 59.1227 159.369 59.188 159.854 59.188C160.386 59.188 160.787 59.0993 161.058 58.922C161.338 58.7353 161.478 58.4693 161.478 58.124C161.478 57.844 161.385 57.62 161.198 57.452C161.011 57.284 160.703 57.1533 160.274 57.06L159.084 56.78C158.496 56.6493 158.039 56.416 157.712 56.08C157.395 55.744 157.236 55.3427 157.236 54.876C157.236 54.26 157.483 53.7607 157.978 53.378C158.473 52.986 159.126 52.79 159.938 52.79C160.433 52.79 160.899 52.8693 161.338 53.028C161.777 53.1867 162.145 53.4153 162.444 53.714L162.066 54.54C161.403 53.9893 160.694 53.714 159.938 53.714C159.434 53.714 159.042 53.812 158.762 54.008C158.491 54.1947 158.356 54.4607 158.356 54.806C158.356 55.0953 158.44 55.324 158.608 55.492C158.785 55.66 159.065 55.7907 159.448 55.884L160.638 56.178C161.291 56.3273 161.777 56.5607 162.094 56.878C162.411 57.186 162.57 57.592 162.57 58.096C162.57 58.7027 162.323 59.188 161.828 59.552C161.333 59.916 160.661 60.098 159.812 60.098ZM167.289 60.098C166.626 60.098 166.043 59.9487 165.539 59.65C165.035 59.3513 164.643 58.9267 164.363 58.376C164.092 57.8253 163.957 57.1813 163.957 56.444C163.957 55.7067 164.092 55.0627 164.363 54.512C164.643 53.9613 165.035 53.5367 165.539 53.238C166.043 52.9393 166.626 52.79 167.289 52.79C167.952 52.79 168.535 52.9393 169.039 53.238C169.543 53.5367 169.93 53.9613 170.201 54.512C170.481 55.0627 170.621 55.7067 170.621 56.444C170.621 57.1813 170.481 57.8253 170.201 58.376C169.93 58.9267 169.543 59.3513 169.039 59.65C168.535 59.9487 167.952 60.098 167.289 60.098ZM167.289 59.16C167.989 59.16 168.526 58.9313 168.899 58.474C169.272 58.0073 169.459 57.3307 169.459 56.444C169.459 55.5853 169.268 54.9227 168.885 54.456C168.502 53.98 167.97 53.742 167.289 53.742C166.598 53.742 166.062 53.98 165.679 54.456C165.296 54.9227 165.105 55.5853 165.105 56.444C165.105 57.3307 165.292 58.0073 165.665 58.474C166.048 58.9313 166.589 59.16 167.289 59.16ZM178.283 52.958V60H177.177V58.782C176.953 59.2113 176.64 59.538 176.239 59.762C175.838 59.986 175.385 60.098 174.881 60.098C174.05 60.098 173.42 59.8647 172.991 59.398C172.562 58.9313 172.347 58.2407 172.347 57.326V52.958H173.481V57.298C173.481 57.9327 173.612 58.3993 173.873 58.698C174.134 58.9967 174.531 59.146 175.063 59.146C175.688 59.146 176.192 58.9453 176.575 58.544C176.958 58.1333 177.149 57.5967 177.149 56.934V52.958H178.283ZM183.745 52.79C183.978 52.79 184.193 52.818 184.389 52.874L184.361 53.91C184.146 53.8353 183.899 53.798 183.619 53.798C182.938 53.798 182.429 54.0127 182.093 54.442C181.766 54.862 181.603 55.3753 181.603 55.982V60H180.469V54.932C180.469 54.204 180.432 53.546 180.357 52.958H181.435L181.547 54.26C181.724 53.784 182.009 53.42 182.401 53.168C182.793 52.916 183.241 52.79 183.745 52.79ZM188.359 60.098C187.677 60.098 187.08 59.9487 186.567 59.65C186.063 59.3513 185.671 58.9313 185.391 58.39C185.12 57.8393 184.985 57.2 184.985 56.472C184.985 55.744 185.125 55.1047 185.405 54.554C185.685 53.994 186.081 53.56 186.595 53.252C187.117 52.944 187.724 52.79 188.415 52.79C188.891 52.79 189.348 52.874 189.787 53.042C190.235 53.2007 190.603 53.4247 190.893 53.714L190.515 54.554C190.16 54.274 189.815 54.0687 189.479 53.938C189.152 53.8073 188.816 53.742 188.471 53.742C187.752 53.742 187.187 53.9847 186.777 54.47C186.366 54.946 186.16 55.6133 186.16 56.472C186.16 57.3213 186.361 57.984 186.763 58.46C187.173 58.9267 187.743 59.16 188.471 59.16C188.816 59.16 189.152 59.0947 189.479 58.964C189.815 58.8333 190.16 58.628 190.515 58.348L190.893 59.188C190.594 59.468 190.216 59.692 189.759 59.86C189.311 60.0187 188.844 60.098 188.359 60.098ZM198.23 56.444H193.064C193.073 57.34 193.279 58.0167 193.68 58.474C194.091 58.9313 194.683 59.16 195.458 59.16C196.279 59.16 197.035 58.8847 197.726 58.334L198.104 59.16C197.796 59.4493 197.399 59.678 196.914 59.846C196.438 60.014 195.948 60.098 195.444 60.098C194.343 60.098 193.479 59.776 192.854 59.132C192.229 58.4787 191.916 57.5873 191.916 56.458C191.916 55.7393 192.056 55.1047 192.336 54.554C192.616 53.994 193.008 53.56 193.512 53.252C194.016 52.944 194.59 52.79 195.234 52.79C196.167 52.79 196.9 53.098 197.432 53.714C197.964 54.3207 198.23 55.1607 198.23 56.234V56.444ZM195.248 53.672C194.66 53.672 194.179 53.8493 193.806 54.204C193.442 54.5587 193.209 55.058 193.106 55.702H197.208C197.152 55.0393 196.956 54.5353 196.62 54.19C196.293 53.8447 195.836 53.672 195.248 53.672ZM202.331 60.098C201.146 60.098 200.208 59.7947 199.517 59.188L199.895 58.348C200.278 58.6467 200.665 58.8613 201.057 58.992C201.449 59.1227 201.888 59.188 202.373 59.188C202.905 59.188 203.307 59.0993 203.577 58.922C203.857 58.7353 203.997 58.4693 203.997 58.124C203.997 57.844 203.904 57.62 203.717 57.452C203.531 57.284 203.223 57.1533 202.793 57.06L201.603 56.78C201.015 56.6493 200.558 56.416 200.231 56.08C199.914 55.744 199.755 55.3427 199.755 54.876C199.755 54.26 200.003 53.7607 200.497 53.378C200.992 52.986 201.645 52.79 202.457 52.79C202.952 52.79 203.419 52.8693 203.857 53.028C204.296 53.1867 204.665 53.4153 204.963 53.714L204.585 54.54C203.923 53.9893 203.213 53.714 202.457 53.714C201.953 53.714 201.561 53.812 201.281 54.008C201.011 54.1947 200.875 54.4607 200.875 54.806C200.875 55.0953 200.959 55.324 201.127 55.492C201.305 55.66 201.585 55.7907 201.967 55.884L203.157 56.178C203.811 56.3273 204.296 56.5607 204.613 56.878C204.931 57.186 205.089 57.592 205.089 58.096C205.089 58.7027 204.842 59.188 204.347 59.552C203.853 59.916 203.181 60.098 202.331 60.098Z" fill="#5B5151"/>
<circle cx="41" cy="43" r="15" fill="white"/>
<mask id="mask0" mask-type="alpha" maskUnits="userSpaceOnUse" x="26" y="28" width="30" height="30">
<circle cx="41" cy="43" r="15" fill="white"/>
</mask>
<g mask="url(#mask0)">
<path d="M46.3763 40.5393C46.3763 42.0615 45.8304 43.3792 44.7535 44.4562C43.6766 45.5331 42.3587 46.079 40.8365 46.079H40.8338C39.3135 46.0785 37.9966 45.5326 36.9197 44.4562C35.8426 43.3792 35.2969 42.0615 35.2969 40.5393C35.2969 39.0175 35.8426 37.6997 36.9197 36.6228C37.996 35.5463 39.313 35.0005 40.8338 35H40.8365C42.3582 35 43.676 35.5459 44.7535 36.6228C45.8304 37.6997 46.3763 39.0175 46.3763 40.5393Z" fill="#FFD589"/>
<path d="M50.5759 54.0444C50.5759 55.2454 50.1939 56.2177 49.4415 56.9338C48.6978 57.6415 47.7142 58 46.5184 58H35.4437C34.2479 58 33.2643 57.6415 32.5212 56.9338C31.7682 56.2172 31.3867 55.245 31.3867 54.0444C31.3867 53.5826 31.402 53.1256 31.4325 52.6862C31.4636 52.237 31.5264 51.7482 31.619 51.2324C31.7124 50.7125 31.8324 50.221 31.9761 49.7718C32.1253 49.3068 32.3271 48.8481 32.5768 48.4087C32.8362 47.9526 33.1408 47.5553 33.4823 47.2282C33.8402 46.8859 34.2779 46.6109 34.7838 46.4105C35.2879 46.2112 35.8468 46.1101 36.4448 46.1101C36.6794 46.1101 36.9067 46.2061 37.3447 46.4914C37.6188 46.6702 37.9346 46.8738 38.2833 47.0966C38.5844 47.2886 38.9922 47.4686 39.4963 47.6313C39.9394 47.7747 40.3892 47.8547 40.8335 47.8686C40.8824 47.8703 40.9314 47.8712 40.9803 47.8712C41.4738 47.8712 41.9728 47.7903 42.4649 47.6313C42.969 47.4686 43.3774 47.2886 43.6783 47.0966C44.0306 46.8715 44.3465 46.6681 44.6166 46.4919C45.0549 46.2061 45.2818 46.1101 45.5169 46.1101C46.1144 46.1101 46.6733 46.2112 47.1778 46.4105C47.6837 46.6109 48.1213 46.8864 48.479 47.2282C48.821 47.5553 49.1256 47.9526 49.3848 48.4087C49.6347 48.8484 49.8368 49.3068 49.9854 49.7712C50.1293 50.221 50.2497 50.7125 50.3431 51.2328C50.4352 51.749 50.4982 52.2379 50.5291 52.6859C50.5601 53.1239 50.5754 53.5808 50.5759 54.0444Z" fill="#D55A5F"/>
</g>
<path d="M50 112C50 100.954 58.9543 92 70 92H323C334.046 92 343 100.954 343 112V152H70C58.9543 152 50 143.046 50 132V112Z" fill="#FCFCFC"/>
<path d="M105.232 108.032H109.208C110.235 108.032 111.033 108.279 111.602 108.774C112.181 109.269 112.47 109.95 112.47 110.818C112.47 111.686 112.181 112.372 111.602 112.876C111.023 113.371 110.225 113.618 109.208 113.618H106.38V118H105.232V108.032ZM109.11 112.666C109.847 112.666 110.403 112.507 110.776 112.19C111.149 111.873 111.336 111.415 111.336 110.818C111.336 110.221 111.149 109.768 110.776 109.46C110.403 109.143 109.847 108.984 109.11 108.984H106.38V112.666H109.11ZM119.886 114.444H114.72C114.73 115.34 114.935 116.017 115.336 116.474C115.747 116.931 116.34 117.16 117.114 117.16C117.936 117.16 118.692 116.885 119.382 116.334L119.76 117.16C119.452 117.449 119.056 117.678 118.57 117.846C118.094 118.014 117.604 118.098 117.1 118.098C115.999 118.098 115.136 117.776 114.51 117.132C113.885 116.479 113.572 115.587 113.572 114.458C113.572 113.739 113.712 113.105 113.992 112.554C114.272 111.994 114.664 111.56 115.168 111.252C115.672 110.944 116.246 110.79 116.89 110.79C117.824 110.79 118.556 111.098 119.088 111.714C119.62 112.321 119.886 113.161 119.886 114.234V114.444ZM116.904 111.672C116.316 111.672 115.836 111.849 115.462 112.204C115.098 112.559 114.865 113.058 114.762 113.702H118.864C118.808 113.039 118.612 112.535 118.276 112.19C117.95 111.845 117.492 111.672 116.904 111.672ZM124.884 110.79C125.117 110.79 125.332 110.818 125.528 110.874L125.5 111.91C125.285 111.835 125.038 111.798 124.758 111.798C124.076 111.798 123.568 112.013 123.232 112.442C122.905 112.862 122.742 113.375 122.742 113.982V118H121.608V112.932C121.608 112.204 121.57 111.546 121.496 110.958H122.574L122.686 112.26C122.863 111.784 123.148 111.42 123.54 111.168C123.932 110.916 124.38 110.79 124.884 110.79ZM129.929 108.62C129.555 108.62 129.261 108.727 129.047 108.942C128.841 109.147 128.739 109.507 128.739 110.02V110.958H130.461V111.854H128.739V118H127.605V111.854H126.233V110.958H127.605V109.88C127.605 109.143 127.787 108.587 128.151 108.214C128.524 107.831 129.042 107.64 129.705 107.64C130.031 107.64 130.349 107.682 130.657 107.766V108.732C130.395 108.657 130.153 108.62 129.929 108.62ZM137.769 114.444H132.603C132.613 115.34 132.818 116.017 133.219 116.474C133.63 116.931 134.223 117.16 134.997 117.16C135.819 117.16 136.575 116.885 137.265 116.334L137.643 117.16C137.335 117.449 136.939 117.678 136.453 117.846C135.977 118.014 135.487 118.098 134.983 118.098C133.882 118.098 133.019 117.776 132.393 117.132C131.768 116.479 131.455 115.587 131.455 114.458C131.455 113.739 131.595 113.105 131.875 112.554C132.155 111.994 132.547 111.56 133.051 111.252C133.555 110.944 134.129 110.79 134.773 110.79C135.707 110.79 136.439 111.098 136.971 111.714C137.503 112.321 137.769 113.161 137.769 114.234V114.444ZM134.787 111.672C134.199 111.672 133.719 111.849 133.345 112.204C132.981 112.559 132.748 113.058 132.645 113.702H136.747C136.691 113.039 136.495 112.535 136.159 112.19C135.833 111.845 135.375 111.672 134.787 111.672ZM142.444 118.098C141.763 118.098 141.166 117.949 140.652 117.65C140.148 117.351 139.756 116.931 139.476 116.39C139.206 115.839 139.07 115.2 139.07 114.472C139.07 113.744 139.21 113.105 139.49 112.554C139.77 111.994 140.167 111.56 140.68 111.252C141.203 110.944 141.81 110.79 142.5 110.79C142.976 110.79 143.434 110.874 143.872 111.042C144.32 111.201 144.689 111.425 144.978 111.714L144.6 112.554C144.246 112.274 143.9 112.069 143.564 111.938C143.238 111.807 142.902 111.742 142.556 111.742C141.838 111.742 141.273 111.985 140.862 112.47C140.452 112.946 140.246 113.613 140.246 114.472C140.246 115.321 140.447 115.984 140.848 116.46C141.259 116.927 141.828 117.16 142.556 117.16C142.902 117.16 143.238 117.095 143.564 116.964C143.9 116.833 144.246 116.628 144.6 116.348L144.978 117.188C144.68 117.468 144.302 117.692 143.844 117.86C143.396 118.019 142.93 118.098 142.444 118.098ZM147.948 111.854V115.704C147.948 116.227 148.055 116.595 148.27 116.81C148.484 117.015 148.788 117.118 149.18 117.118C149.441 117.118 149.693 117.076 149.936 116.992V117.958C149.646 118.051 149.32 118.098 148.956 118.098C148.284 118.098 147.756 117.911 147.374 117.538C147 117.155 146.814 116.595 146.814 115.858V111.854H145.442V110.958H146.814V109.152L147.948 108.746V110.958H149.964V111.854H147.948ZM157.935 118.098C157.253 118.098 156.656 117.949 156.143 117.65C155.639 117.351 155.247 116.931 154.967 116.39C154.696 115.839 154.561 115.2 154.561 114.472C154.561 113.744 154.701 113.105 154.981 112.554C155.261 111.994 155.657 111.56 156.171 111.252C156.693 110.944 157.3 110.79 157.991 110.79C158.467 110.79 158.924 110.874 159.363 111.042C159.811 111.201 160.179 111.425 160.469 111.714L160.091 112.554C159.736 112.274 159.391 112.069 159.055 111.938C158.728 111.807 158.392 111.742 158.047 111.742C157.328 111.742 156.763 111.985 156.353 112.47C155.942 112.946 155.737 113.613 155.737 114.472C155.737 115.321 155.937 115.984 156.339 116.46C156.749 116.927 157.319 117.16 158.047 117.16C158.392 117.16 158.728 117.095 159.055 116.964C159.391 116.833 159.736 116.628 160.091 116.348L160.469 117.188C160.17 117.468 159.792 117.692 159.335 117.86C158.887 118.019 158.42 118.098 157.935 118.098ZM164.824 118.098C164.162 118.098 163.578 117.949 163.074 117.65C162.57 117.351 162.178 116.927 161.898 116.376C161.628 115.825 161.492 115.181 161.492 114.444C161.492 113.707 161.628 113.063 161.898 112.512C162.178 111.961 162.57 111.537 163.074 111.238C163.578 110.939 164.162 110.79 164.824 110.79C165.487 110.79 166.07 110.939 166.574 111.238C167.078 111.537 167.466 111.961 167.736 112.512C168.016 113.063 168.156 113.707 168.156 114.444C168.156 115.181 168.016 115.825 167.736 116.376C167.466 116.927 167.078 117.351 166.574 117.65C166.07 117.949 165.487 118.098 164.824 118.098ZM164.824 117.16C165.524 117.16 166.061 116.931 166.434 116.474C166.808 116.007 166.994 115.331 166.994 114.444C166.994 113.585 166.803 112.923 166.42 112.456C166.038 111.98 165.506 111.742 164.824 111.742C164.134 111.742 163.597 111.98 163.214 112.456C162.832 112.923 162.64 113.585 162.64 114.444C162.64 115.331 162.827 116.007 163.2 116.474C163.583 116.931 164.124 117.16 164.824 117.16ZM173.438 110.79C175.127 110.79 175.972 111.719 175.972 113.576V118H174.838V113.632C174.838 112.979 174.707 112.503 174.446 112.204C174.185 111.896 173.774 111.742 173.214 111.742C172.561 111.742 172.038 111.943 171.646 112.344C171.254 112.745 171.058 113.287 171.058 113.968V118H169.924V112.932C169.924 112.204 169.887 111.546 169.812 110.958H170.89L171.002 112.218C171.217 111.761 171.539 111.411 171.968 111.168C172.397 110.916 172.887 110.79 173.438 110.79ZM179.625 111.854V115.704C179.625 116.227 179.733 116.595 179.947 116.81C180.162 117.015 180.465 117.118 180.857 117.118C181.119 117.118 181.371 117.076 181.613 116.992V117.958C181.324 118.051 180.997 118.098 180.633 118.098C179.961 118.098 179.434 117.911 179.051 117.538C178.678 117.155 178.491 116.595 178.491 115.858V111.854H177.119V110.958H178.491V109.152L179.625 108.746V110.958H181.641V111.854H179.625ZM188.902 114.444H183.736C183.745 115.34 183.951 116.017 184.352 116.474C184.763 116.931 185.355 117.16 186.13 117.16C186.951 117.16 187.707 116.885 188.398 116.334L188.776 117.16C188.468 117.449 188.071 117.678 187.586 117.846C187.11 118.014 186.62 118.098 186.116 118.098C185.015 118.098 184.151 117.776 183.526 117.132C182.901 116.479 182.588 115.587 182.588 114.458C182.588 113.739 182.728 113.105 183.008 112.554C183.288 111.994 183.68 111.56 184.184 111.252C184.688 110.944 185.262 110.79 185.906 110.79C186.839 110.79 187.572 111.098 188.104 111.714C188.636 112.321 188.902 113.161 188.902 114.234V114.444ZM185.92 111.672C185.332 111.672 184.851 111.849 184.478 112.204C184.114 112.559 183.881 113.058 183.778 113.702H187.88C187.824 113.039 187.628 112.535 187.292 112.19C186.965 111.845 186.508 111.672 185.92 111.672ZM194.137 110.79C195.827 110.79 196.671 111.719 196.671 113.576V118H195.537V113.632C195.537 112.979 195.407 112.503 195.145 112.204C194.884 111.896 194.473 111.742 193.913 111.742C193.26 111.742 192.737 111.943 192.345 112.344C191.953 112.745 191.757 113.287 191.757 113.968V118H190.623V112.932C190.623 112.204 190.586 111.546 190.511 110.958H191.589L191.701 112.218C191.916 111.761 192.238 111.411 192.667 111.168C193.097 110.916 193.587 110.79 194.137 110.79ZM200.325 111.854V115.704C200.325 116.227 200.432 116.595 200.647 116.81C200.861 117.015 201.165 117.118 201.557 117.118C201.818 117.118 202.07 117.076 202.313 116.992V117.958C202.023 118.051 201.697 118.098 201.333 118.098C200.661 118.098 200.133 117.911 199.751 117.538C199.377 117.155 199.191 116.595 199.191 115.858V111.854H197.819V110.958H199.191V109.152L200.325 108.746V110.958H202.341V111.854H200.325ZM213.56 110.958V118H212.44V116.726C212.234 117.165 211.922 117.505 211.502 117.748C211.091 117.981 210.61 118.098 210.06 118.098C209.434 118.098 208.884 117.949 208.408 117.65C207.941 117.351 207.577 116.931 207.316 116.39C207.064 115.839 206.938 115.2 206.938 114.472C206.938 113.744 207.068 113.105 207.33 112.554C207.591 111.994 207.955 111.56 208.422 111.252C208.898 110.944 209.444 110.79 210.06 110.79C210.61 110.79 211.091 110.911 211.502 111.154C211.912 111.397 212.225 111.737 212.44 112.176V110.958H213.56ZM210.284 117.16C210.974 117.16 211.506 116.927 211.88 116.46C212.253 115.984 212.44 115.312 212.44 114.444C212.44 113.576 212.253 112.909 211.88 112.442C211.506 111.975 210.974 111.742 210.284 111.742C209.593 111.742 209.052 111.985 208.66 112.47C208.277 112.946 208.086 113.613 208.086 114.472C208.086 115.331 208.277 115.993 208.66 116.46C209.042 116.927 209.584 117.16 210.284 117.16ZM222.024 110.958V117.944C222.024 118.989 221.753 119.778 221.212 120.31C220.68 120.851 219.891 121.122 218.846 121.122C217.773 121.122 216.849 120.879 216.074 120.394L216.27 119.47C216.718 119.722 217.138 119.904 217.53 120.016C217.931 120.128 218.37 120.184 218.846 120.184C219.527 120.184 220.041 120.002 220.386 119.638C220.731 119.283 220.904 118.751 220.904 118.042V116.376C220.689 116.824 220.372 117.174 219.952 117.426C219.541 117.669 219.051 117.79 218.482 117.79C217.866 117.79 217.315 117.645 216.83 117.356C216.354 117.067 215.985 116.656 215.724 116.124C215.463 115.592 215.332 114.981 215.332 114.29C215.332 113.599 215.463 112.988 215.724 112.456C215.985 111.924 216.354 111.513 216.83 111.224C217.315 110.935 217.866 110.79 218.482 110.79C219.042 110.79 219.527 110.911 219.938 111.154C220.358 111.397 220.675 111.737 220.89 112.176V110.958H222.024ZM218.706 116.838C219.387 116.838 219.919 116.614 220.302 116.166C220.694 115.709 220.89 115.083 220.89 114.29C220.89 113.497 220.694 112.876 220.302 112.428C219.919 111.971 219.387 111.742 218.706 111.742C218.015 111.742 217.469 111.971 217.068 112.428C216.676 112.876 216.48 113.497 216.48 114.29C216.48 115.083 216.676 115.709 217.068 116.166C217.469 116.614 218.015 116.838 218.706 116.838ZM230.473 110.958V117.944C230.473 118.989 230.203 119.778 229.661 120.31C229.129 120.851 228.341 121.122 227.295 121.122C226.222 121.122 225.298 120.879 224.523 120.394L224.719 119.47C225.167 119.722 225.587 119.904 225.979 120.016C226.381 120.128 226.819 120.184 227.295 120.184C227.977 120.184 228.49 120.002 228.835 119.638C229.181 119.283 229.353 118.751 229.353 118.042V116.376C229.139 116.824 228.821 117.174 228.401 117.426C227.991 117.669 227.501 117.79 226.931 117.79C226.315 117.79 225.765 117.645 225.279 117.356C224.803 117.067 224.435 116.656 224.173 116.124C223.912 115.592 223.781 114.981 223.781 114.29C223.781 113.599 223.912 112.988 224.173 112.456C224.435 111.924 224.803 111.513 225.279 111.224C225.765 110.935 226.315 110.79 226.931 110.79C227.491 110.79 227.977 110.911 228.387 111.154C228.807 111.397 229.125 111.737 229.339 112.176V110.958H230.473ZM227.155 116.838C227.837 116.838 228.369 116.614 228.751 116.166C229.143 115.709 229.339 115.083 229.339 114.29C229.339 113.497 229.143 112.876 228.751 112.428C228.369 111.971 227.837 111.742 227.155 111.742C226.465 111.742 225.919 111.971 225.517 112.428C225.125 112.876 224.929 113.497 224.929 114.29C224.929 115.083 225.125 115.709 225.517 116.166C225.919 116.614 226.465 116.838 227.155 116.838ZM235.927 110.79C236.16 110.79 236.375 110.818 236.571 110.874L236.543 111.91C236.328 111.835 236.081 111.798 235.801 111.798C235.119 111.798 234.611 112.013 234.275 112.442C233.948 112.862 233.785 113.375 233.785 113.982V118H232.651V112.932C232.651 112.204 232.613 111.546 232.539 110.958H233.617L233.729 112.26C233.906 111.784 234.191 111.42 234.583 111.168C234.975 110.916 235.423 110.79 235.927 110.79ZM243.48 114.444H238.314C238.323 115.34 238.529 116.017 238.93 116.474C239.341 116.931 239.933 117.16 240.708 117.16C241.529 117.16 242.285 116.885 242.976 116.334L243.354 117.16C243.046 117.449 242.649 117.678 242.164 117.846C241.688 118.014 241.198 118.098 240.694 118.098C239.593 118.098 238.729 117.776 238.104 117.132C237.479 116.479 237.166 115.587 237.166 114.458C237.166 113.739 237.306 113.105 237.586 112.554C237.866 111.994 238.258 111.56 238.762 111.252C239.266 110.944 239.84 110.79 240.484 110.79C241.417 110.79 242.15 111.098 242.682 111.714C243.214 112.321 243.48 113.161 243.48 114.234V114.444ZM240.498 111.672C239.91 111.672 239.429 111.849 239.056 112.204C238.692 112.559 238.459 113.058 238.356 113.702H242.458C242.402 113.039 242.206 112.535 241.87 112.19C241.543 111.845 241.086 111.672 240.498 111.672ZM251.473 110.958V117.944C251.473 118.989 251.203 119.778 250.661 120.31C250.129 120.851 249.341 121.122 248.295 121.122C247.222 121.122 246.298 120.879 245.523 120.394L245.719 119.47C246.167 119.722 246.587 119.904 246.979 120.016C247.381 120.128 247.819 120.184 248.295 120.184C248.977 120.184 249.49 120.002 249.835 119.638C250.181 119.283 250.353 118.751 250.353 118.042V116.376C250.139 116.824 249.821 117.174 249.401 117.426C248.991 117.669 248.501 117.79 247.931 117.79C247.315 117.79 246.765 117.645 246.279 117.356C245.803 117.067 245.435 116.656 245.173 116.124C244.912 115.592 244.781 114.981 244.781 114.29C244.781 113.599 244.912 112.988 245.173 112.456C245.435 111.924 245.803 111.513 246.279 111.224C246.765 110.935 247.315 110.79 247.931 110.79C248.491 110.79 248.977 110.911 249.387 111.154C249.807 111.397 250.125 111.737 250.339 112.176V110.958H251.473ZM248.155 116.838C248.837 116.838 249.369 116.614 249.751 116.166C250.143 115.709 250.339 115.083 250.339 114.29C250.339 113.497 250.143 112.876 249.751 112.428C249.369 111.971 248.837 111.742 248.155 111.742C247.465 111.742 246.919 111.971 246.517 112.428C246.125 112.876 245.929 113.497 245.929 114.29C245.929 115.083 246.125 115.709 246.517 116.166C246.919 116.614 247.465 116.838 248.155 116.838ZM259.853 110.958V118H258.733V116.726C258.527 117.165 258.215 117.505 257.795 117.748C257.384 117.981 256.903 118.098 256.353 118.098C255.727 118.098 255.177 117.949 254.701 117.65C254.234 117.351 253.87 116.931 253.609 116.39C253.357 115.839 253.231 115.2 253.231 114.472C253.231 113.744 253.361 113.105 253.623 112.554C253.884 111.994 254.248 111.56 254.715 111.252C255.191 110.944 255.737 110.79 256.353 110.79C256.903 110.79 257.384 110.911 257.795 111.154C258.205 111.397 258.518 111.737 258.733 112.176V110.958H259.853ZM256.577 117.16C257.267 117.16 257.799 116.927 258.173 116.46C258.546 115.984 258.733 115.312 258.733 114.444C258.733 113.576 258.546 112.909 258.173 112.442C257.799 111.975 257.267 111.742 256.577 111.742C255.886 111.742 255.345 111.985 254.953 112.47C254.57 112.946 254.379 113.613 254.379 114.472C254.379 115.331 254.57 115.993 254.953 116.46C255.335 116.927 255.877 117.16 256.577 117.16ZM263.557 111.854V115.704C263.557 116.227 263.664 116.595 263.879 116.81C264.094 117.015 264.397 117.118 264.789 117.118C265.05 117.118 265.302 117.076 265.545 116.992V117.958C265.256 118.051 264.929 118.098 264.565 118.098C263.893 118.098 263.366 117.911 262.983 117.538C262.61 117.155 262.423 116.595 262.423 115.858V111.854H261.051V110.958H262.423V109.152L263.557 108.746V110.958H265.573V111.854H263.557ZM266.94 110.958H268.074V118H266.94V110.958ZM268.214 107.976V109.264H266.828V107.976H268.214ZM273.188 118.098C272.525 118.098 271.942 117.949 271.438 117.65C270.934 117.351 270.542 116.927 270.262 116.376C269.991 115.825 269.856 115.181 269.856 114.444C269.856 113.707 269.991 113.063 270.262 112.512C270.542 111.961 270.934 111.537 271.438 111.238C271.942 110.939 272.525 110.79 273.188 110.79C273.85 110.79 274.434 110.939 274.938 111.238C275.442 111.537 275.829 111.961 276.1 112.512C276.38 113.063 276.52 113.707 276.52 114.444C276.52 115.181 276.38 115.825 276.1 116.376C275.829 116.927 275.442 117.351 274.938 117.65C274.434 117.949 273.85 118.098 273.188 118.098ZM273.188 117.16C273.888 117.16 274.424 116.931 274.798 116.474C275.171 116.007 275.358 115.331 275.358 114.444C275.358 113.585 275.166 112.923 274.784 112.456C274.401 111.98 273.869 111.742 273.188 111.742C272.497 111.742 271.96 111.98 271.578 112.456C271.195 112.923 271.004 113.585 271.004 114.444C271.004 115.331 271.19 116.007 271.564 116.474C271.946 116.931 272.488 117.16 273.188 117.16ZM281.801 110.79C283.491 110.79 284.335 111.719 284.335 113.576V118H283.201V113.632C283.201 112.979 283.071 112.503 282.809 112.204C282.548 111.896 282.137 111.742 281.577 111.742C280.924 111.742 280.401 111.943 280.009 112.344C279.617 112.745 279.421 113.287 279.421 113.968V118H278.287V112.932C278.287 112.204 278.25 111.546 278.175 110.958H279.253L279.365 112.218C279.58 111.761 279.902 111.411 280.331 111.168C280.761 110.916 281.251 110.79 281.801 110.79ZM296.021 110.958V118H294.915V116.782C294.691 117.211 294.378 117.538 293.977 117.762C293.576 117.986 293.123 118.098 292.619 118.098C291.788 118.098 291.158 117.865 290.729 117.398C290.3 116.931 290.085 116.241 290.085 115.326V110.958H291.219V115.298C291.219 115.933 291.35 116.399 291.611 116.698C291.872 116.997 292.269 117.146 292.801 117.146C293.426 117.146 293.93 116.945 294.313 116.544C294.696 116.133 294.887 115.597 294.887 114.934V110.958H296.021ZM300.587 118.098C299.402 118.098 298.464 117.795 297.773 117.188L298.151 116.348C298.534 116.647 298.921 116.861 299.313 116.992C299.705 117.123 300.144 117.188 300.629 117.188C301.161 117.188 301.563 117.099 301.833 116.922C302.113 116.735 302.253 116.469 302.253 116.124C302.253 115.844 302.16 115.62 301.973 115.452C301.787 115.284 301.479 115.153 301.049 115.06L299.859 114.78C299.271 114.649 298.814 114.416 298.487 114.08C298.17 113.744 298.011 113.343 298.011 112.876C298.011 112.26 298.259 111.761 298.753 111.378C299.248 110.986 299.901 110.79 300.713 110.79C301.208 110.79 301.675 110.869 302.113 111.028C302.552 111.187 302.921 111.415 303.219 111.714L302.841 112.54C302.179 111.989 301.469 111.714 300.713 111.714C300.209 111.714 299.817 111.812 299.537 112.008C299.267 112.195 299.131 112.461 299.131 112.806C299.131 113.095 299.215 113.324 299.383 113.492C299.561 113.66 299.841 113.791 300.223 113.884L301.413 114.178C302.067 114.327 302.552 114.561 302.869 114.878C303.187 115.186 303.345 115.592 303.345 116.096C303.345 116.703 303.098 117.188 302.603 117.552C302.109 117.916 301.437 118.098 300.587 118.098ZM305.153 110.958H306.287V118H305.153V110.958ZM306.427 107.976V109.264H305.041V107.976H306.427ZM312.002 110.79C313.692 110.79 314.536 111.719 314.536 113.576V118H313.402V113.632C313.402 112.979 313.272 112.503 313.01 112.204C312.749 111.896 312.338 111.742 311.778 111.742C311.125 111.742 310.602 111.943 310.21 112.344C309.818 112.745 309.622 113.287 309.622 113.968V118H308.488V112.932C308.488 112.204 308.451 111.546 308.376 110.958H309.454L309.566 112.218C309.781 111.761 310.103 111.411 310.532 111.168C310.962 110.916 311.452 110.79 312.002 110.79ZM322.95 110.958V117.944C322.95 118.989 322.679 119.778 322.138 120.31C321.606 120.851 320.817 121.122 319.772 121.122C318.699 121.122 317.775 120.879 317 120.394L317.196 119.47C317.644 119.722 318.064 119.904 318.456 120.016C318.857 120.128 319.296 120.184 319.772 120.184C320.453 120.184 320.967 120.002 321.312 119.638C321.657 119.283 321.83 118.751 321.83 118.042V116.376C321.615 116.824 321.298 117.174 320.878 117.426C320.467 117.669 319.977 117.79 319.408 117.79C318.792 117.79 318.241 117.645 317.756 117.356C317.28 117.067 316.911 116.656 316.65 116.124C316.389 115.592 316.258 114.981 316.258 114.29C316.258 113.599 316.389 112.988 316.65 112.456C316.911 111.924 317.28 111.513 317.756 111.224C318.241 110.935 318.792 110.79 319.408 110.79C319.968 110.79 320.453 110.911 320.864 111.154C321.284 111.397 321.601 111.737 321.816 112.176V110.958H322.95ZM319.632 116.838C320.313 116.838 320.845 116.614 321.228 116.166C321.62 115.709 321.816 115.083 321.816 114.29C321.816 113.497 321.62 112.876 321.228 112.428C320.845 111.971 320.313 111.742 319.632 111.742C318.941 111.742 318.395 111.971 317.994 112.428C317.602 112.876 317.406 113.497 317.406 114.29C317.406 115.083 317.602 115.709 317.994 116.166C318.395 116.614 318.941 116.838 319.632 116.838ZM113.226 126.032V136H112.33L106.31 127.978V136H105.232V126.032H106.114L112.134 134.054V126.032H113.226ZM115.677 126.032H116.825V135.02H121.823V136H115.677V126.032ZM123.306 126.032H127.282C128.309 126.032 129.107 126.279 129.676 126.774C130.255 127.269 130.544 127.95 130.544 128.818C130.544 129.686 130.255 130.372 129.676 130.876C129.098 131.371 128.3 131.618 127.282 131.618H124.454V136H123.306V126.032ZM127.184 130.666C127.922 130.666 128.477 130.507 128.85 130.19C129.224 129.873 129.41 129.415 129.41 128.818C129.41 128.221 129.224 127.768 128.85 127.46C128.477 127.143 127.922 126.984 127.184 126.984H124.454V130.666H127.184ZM137.448 129.854V133.704C137.448 134.227 137.555 134.595 137.77 134.81C137.984 135.015 138.288 135.118 138.68 135.118C138.941 135.118 139.193 135.076 139.436 134.992V135.958C139.146 136.051 138.82 136.098 138.456 136.098C137.784 136.098 137.256 135.911 136.874 135.538C136.5 135.155 136.314 134.595 136.314 133.858V129.854H134.942V128.958H136.314V127.152L137.448 126.746V128.958H139.464V129.854H137.448ZM143.742 136.098C143.08 136.098 142.496 135.949 141.992 135.65C141.488 135.351 141.096 134.927 140.816 134.376C140.546 133.825 140.41 133.181 140.41 132.444C140.41 131.707 140.546 131.063 140.816 130.512C141.096 129.961 141.488 129.537 141.992 129.238C142.496 128.939 143.08 128.79 143.742 128.79C144.405 128.79 144.988 128.939 145.492 129.238C145.996 129.537 146.384 129.961 146.654 130.512C146.934 131.063 147.074 131.707 147.074 132.444C147.074 133.181 146.934 133.825 146.654 134.376C146.384 134.927 145.996 135.351 145.492 135.65C144.988 135.949 144.405 136.098 143.742 136.098ZM143.742 135.16C144.442 135.16 144.979 134.931 145.352 134.474C145.726 134.007 145.912 133.331 145.912 132.444C145.912 131.585 145.721 130.923 145.338 130.456C144.956 129.98 144.424 129.742 143.742 129.742C143.052 129.742 142.515 129.98 142.132 130.456C141.75 130.923 141.558 131.585 141.558 132.444C141.558 133.331 141.745 134.007 142.118 134.474C142.501 134.931 143.042 135.16 143.742 135.16ZM152.492 128.958H153.626V136H152.492V128.958ZM153.766 125.976V127.264H152.38V125.976H153.766ZM163.64 128.79C165.199 128.79 165.978 129.719 165.978 131.576V136H164.844V131.632C164.844 130.969 164.728 130.489 164.494 130.19C164.27 129.891 163.902 129.742 163.388 129.742C162.791 129.742 162.324 129.943 161.988 130.344C161.652 130.745 161.484 131.291 161.484 131.982V136H160.35V131.632C160.35 130.979 160.234 130.503 160 130.204C159.767 129.896 159.394 129.742 158.88 129.742C158.283 129.742 157.812 129.943 157.466 130.344C157.13 130.745 156.962 131.291 156.962 131.982V136H155.828V130.932C155.828 130.204 155.791 129.546 155.716 128.958H156.794L156.906 130.19C157.102 129.742 157.392 129.397 157.774 129.154C158.166 128.911 158.619 128.79 159.132 128.79C159.692 128.79 160.15 128.902 160.504 129.126C160.859 129.35 161.12 129.695 161.288 130.162C161.503 129.742 161.816 129.411 162.226 129.168C162.646 128.916 163.118 128.79 163.64 128.79ZM171.647 128.79C172.263 128.79 172.809 128.944 173.285 129.252C173.761 129.56 174.13 129.994 174.391 130.554C174.652 131.105 174.783 131.744 174.783 132.472C174.783 133.2 174.652 133.839 174.391 134.39C174.13 134.931 173.761 135.351 173.285 135.65C172.818 135.949 172.272 136.098 171.647 136.098C171.096 136.098 170.616 135.977 170.205 135.734C169.794 135.491 169.482 135.146 169.267 134.698V139.024H168.133V130.932C168.133 130.204 168.096 129.546 168.021 128.958H169.099L169.211 130.316C169.407 129.831 169.715 129.457 170.135 129.196C170.564 128.925 171.068 128.79 171.647 128.79ZM171.437 135.16C172.128 135.16 172.66 134.927 173.033 134.46C173.416 133.993 173.607 133.331 173.607 132.472C173.607 131.613 173.416 130.946 173.033 130.47C172.65 129.985 172.118 129.742 171.437 129.742C170.737 129.742 170.2 129.975 169.827 130.442C169.454 130.909 169.267 131.576 169.267 132.444C169.267 133.312 169.454 133.984 169.827 134.46C170.2 134.927 170.737 135.16 171.437 135.16ZM179.804 128.79C180.037 128.79 180.252 128.818 180.448 128.874L180.42 129.91C180.205 129.835 179.958 129.798 179.678 129.798C178.996 129.798 178.488 130.013 178.152 130.442C177.825 130.862 177.662 131.375 177.662 131.982V136H176.528V130.932C176.528 130.204 176.49 129.546 176.416 128.958H177.494L177.606 130.26C177.783 129.784 178.068 129.42 178.46 129.168C178.852 128.916 179.3 128.79 179.804 128.79ZM184.375 136.098C183.712 136.098 183.129 135.949 182.625 135.65C182.121 135.351 181.729 134.927 181.449 134.376C181.178 133.825 181.043 133.181 181.043 132.444C181.043 131.707 181.178 131.063 181.449 130.512C181.729 129.961 182.121 129.537 182.625 129.238C183.129 128.939 183.712 128.79 184.375 128.79C185.038 128.79 185.621 128.939 186.125 129.238C186.629 129.537 187.016 129.961 187.287 130.512C187.567 131.063 187.707 131.707 187.707 132.444C187.707 133.181 187.567 133.825 187.287 134.376C187.016 134.927 186.629 135.351 186.125 135.65C185.621 135.949 185.038 136.098 184.375 136.098ZM184.375 135.16C185.075 135.16 185.612 134.931 185.985 134.474C186.358 134.007 186.545 133.331 186.545 132.444C186.545 131.585 186.354 130.923 185.971 130.456C185.588 129.98 185.056 129.742 184.375 129.742C183.684 129.742 183.148 129.98 182.765 130.456C182.382 130.923 182.191 131.585 182.191 132.444C182.191 133.331 182.378 134.007 182.751 134.474C183.134 134.931 183.675 135.16 184.375 135.16ZM195.581 128.972L192.543 136H191.465L188.469 128.972H189.659L192.039 134.768L194.447 128.972H195.581ZM202.642 132.444H197.476C197.486 133.34 197.691 134.017 198.092 134.474C198.503 134.931 199.096 135.16 199.87 135.16C200.692 135.16 201.448 134.885 202.138 134.334L202.516 135.16C202.208 135.449 201.812 135.678 201.326 135.846C200.85 136.014 200.36 136.098 199.856 136.098C198.755 136.098 197.892 135.776 197.266 135.132C196.641 134.479 196.328 133.587 196.328 132.458C196.328 131.739 196.468 131.105 196.748 130.554C197.028 129.994 197.42 129.56 197.924 129.252C198.428 128.944 199.002 128.79 199.646 128.79C200.58 128.79 201.312 129.098 201.844 129.714C202.376 130.321 202.642 131.161 202.642 132.234V132.444ZM199.66 129.672C199.072 129.672 198.592 129.849 198.218 130.204C197.854 130.559 197.621 131.058 197.518 131.702H201.62C201.564 131.039 201.368 130.535 201.032 130.19C200.706 129.845 200.248 129.672 199.66 129.672ZM210.394 136.098C209.209 136.098 208.271 135.795 207.58 135.188L207.958 134.348C208.341 134.647 208.728 134.861 209.12 134.992C209.512 135.123 209.951 135.188 210.436 135.188C210.968 135.188 211.369 135.099 211.64 134.922C211.92 134.735 212.06 134.469 212.06 134.124C212.06 133.844 211.967 133.62 211.78 133.452C211.593 133.284 211.285 133.153 210.856 133.06L209.666 132.78C209.078 132.649 208.621 132.416 208.294 132.08C207.977 131.744 207.818 131.343 207.818 130.876C207.818 130.26 208.065 129.761 208.56 129.378C209.055 128.986 209.708 128.79 210.52 128.79C211.015 128.79 211.481 128.869 211.92 129.028C212.359 129.187 212.727 129.415 213.026 129.714L212.648 130.54C211.985 129.989 211.276 129.714 210.52 129.714C210.016 129.714 209.624 129.812 209.344 130.008C209.073 130.195 208.938 130.461 208.938 130.806C208.938 131.095 209.022 131.324 209.19 131.492C209.367 131.66 209.647 131.791 210.03 131.884L211.22 132.178C211.873 132.327 212.359 132.561 212.676 132.878C212.993 133.186 213.152 133.592 213.152 134.096C213.152 134.703 212.905 135.188 212.41 135.552C211.915 135.916 211.243 136.098 210.394 136.098ZM220.853 132.444H215.687C215.697 133.34 215.902 134.017 216.303 134.474C216.714 134.931 217.307 135.16 218.081 135.16C218.903 135.16 219.659 134.885 220.349 134.334L220.727 135.16C220.419 135.449 220.023 135.678 219.537 135.846C219.061 136.014 218.571 136.098 218.067 136.098C216.966 136.098 216.103 135.776 215.477 135.132C214.852 134.479 214.539 133.587 214.539 132.458C214.539 131.739 214.679 131.105 214.959 130.554C215.239 129.994 215.631 129.56 216.135 129.252C216.639 128.944 217.213 128.79 217.857 128.79C218.791 128.79 219.523 129.098 220.055 129.714C220.587 130.321 220.853 131.161 220.853 132.234V132.444ZM217.871 129.672C217.283 129.672 216.803 129.849 216.429 130.204C216.065 130.559 215.832 131.058 215.729 131.702H219.831C219.775 131.039 219.579 130.535 219.243 130.19C218.917 129.845 218.459 129.672 217.871 129.672ZM230.386 128.79C231.945 128.79 232.724 129.719 232.724 131.576V136H231.59V131.632C231.59 130.969 231.474 130.489 231.24 130.19C231.016 129.891 230.648 129.742 230.134 129.742C229.537 129.742 229.07 129.943 228.734 130.344C228.398 130.745 228.23 131.291 228.23 131.982V136H227.096V131.632C227.096 130.979 226.98 130.503 226.746 130.204C226.513 129.896 226.14 129.742 225.626 129.742C225.029 129.742 224.558 129.943 224.212 130.344C223.876 130.745 223.708 131.291 223.708 131.982V136H222.574V130.932C222.574 130.204 222.537 129.546 222.462 128.958H223.54L223.652 130.19C223.848 129.742 224.138 129.397 224.52 129.154C224.912 128.911 225.365 128.79 225.878 128.79C226.438 128.79 226.896 128.902 227.25 129.126C227.605 129.35 227.866 129.695 228.034 130.162C228.249 129.742 228.562 129.411 228.972 129.168C229.392 128.916 229.864 128.79 230.386 128.79ZM241.081 128.958V136H239.961V134.726C239.756 135.165 239.443 135.505 239.023 135.748C238.612 135.981 238.132 136.098 237.581 136.098C236.956 136.098 236.405 135.949 235.929 135.65C235.462 135.351 235.098 134.931 234.837 134.39C234.585 133.839 234.459 133.2 234.459 132.472C234.459 131.744 234.59 131.105 234.851 130.554C235.112 129.994 235.476 129.56 235.943 129.252C236.419 128.944 236.965 128.79 237.581 128.79C238.132 128.79 238.612 128.911 239.023 129.154C239.434 129.397 239.746 129.737 239.961 130.176V128.958H241.081ZM237.805 135.16C238.496 135.16 239.028 134.927 239.401 134.46C239.774 133.984 239.961 133.312 239.961 132.444C239.961 131.576 239.774 130.909 239.401 130.442C239.028 129.975 238.496 129.742 237.805 129.742C237.114 129.742 236.573 129.985 236.181 130.47C235.798 130.946 235.607 131.613 235.607 132.472C235.607 133.331 235.798 133.993 236.181 134.46C236.564 134.927 237.105 135.16 237.805 135.16ZM246.788 128.79C248.477 128.79 249.322 129.719 249.322 131.576V136H248.188V131.632C248.188 130.979 248.057 130.503 247.796 130.204C247.534 129.896 247.124 129.742 246.564 129.742C245.91 129.742 245.388 129.943 244.996 130.344C244.604 130.745 244.408 131.287 244.408 131.968V136H243.274V130.932C243.274 130.204 243.236 129.546 243.162 128.958H244.24L244.352 130.218C244.566 129.761 244.888 129.411 245.318 129.168C245.747 128.916 246.237 128.79 246.788 128.79ZM252.975 129.854V133.704C252.975 134.227 253.082 134.595 253.297 134.81C253.512 135.015 253.815 135.118 254.207 135.118C254.468 135.118 254.72 135.076 254.963 134.992V135.958C254.674 136.051 254.347 136.098 253.983 136.098C253.311 136.098 252.784 135.911 252.401 135.538C252.028 135.155 251.841 134.595 251.841 133.858V129.854H250.469V128.958H251.841V127.152L252.975 126.746V128.958H254.991V129.854H252.975ZM256.358 128.958H257.492V136H256.358V128.958ZM257.632 125.976V127.264H256.246V125.976H257.632ZM262.648 136.098C261.966 136.098 261.369 135.949 260.856 135.65C260.352 135.351 259.96 134.931 259.68 134.39C259.409 133.839 259.274 133.2 259.274 132.472C259.274 131.744 259.414 131.105 259.694 130.554C259.974 129.994 260.37 129.56 260.884 129.252C261.406 128.944 262.013 128.79 262.704 128.79C263.18 128.79 263.637 128.874 264.076 129.042C264.524 129.201 264.892 129.425 265.182 129.714L264.804 130.554C264.449 130.274 264.104 130.069 263.768 129.938C263.441 129.807 263.105 129.742 262.76 129.742C262.041 129.742 261.476 129.985 261.066 130.47C260.655 130.946 260.45 131.613 260.45 132.472C260.45 133.321 260.65 133.984 261.052 134.46C261.462 134.927 262.032 135.16 262.76 135.16C263.105 135.16 263.441 135.095 263.768 134.964C264.104 134.833 264.449 134.628 264.804 134.348L265.182 135.188C264.883 135.468 264.505 135.692 264.048 135.86C263.6 136.019 263.133 136.098 262.648 136.098ZM273.23 136.098C272.548 136.098 271.951 135.949 271.438 135.65C270.934 135.351 270.542 134.931 270.262 134.39C269.991 133.839 269.856 133.2 269.856 132.472C269.856 131.744 269.996 131.105 270.276 130.554C270.556 129.994 270.952 129.56 271.466 129.252C271.988 128.944 272.595 128.79 273.286 128.79C273.762 128.79 274.219 128.874 274.658 129.042C275.106 129.201 275.474 129.425 275.764 129.714L275.386 130.554C275.031 130.274 274.686 130.069 274.35 129.938C274.023 129.807 273.687 129.742 273.342 129.742C272.623 129.742 272.058 129.985 271.648 130.47C271.237 130.946 271.032 131.613 271.032 132.472C271.032 133.321 271.232 133.984 271.634 134.46C272.044 134.927 272.614 135.16 273.342 135.16C273.687 135.16 274.023 135.095 274.35 134.964C274.686 134.833 275.031 134.628 275.386 134.348L275.764 135.188C275.465 135.468 275.087 135.692 274.63 135.86C274.182 136.019 273.715 136.098 273.23 136.098ZM280.119 136.098C279.457 136.098 278.873 135.949 278.369 135.65C277.865 135.351 277.473 134.927 277.193 134.376C276.923 133.825 276.787 133.181 276.787 132.444C276.787 131.707 276.923 131.063 277.193 130.512C277.473 129.961 277.865 129.537 278.369 129.238C278.873 128.939 279.457 128.79 280.119 128.79C280.782 128.79 281.365 128.939 281.869 129.238C282.373 129.537 282.761 129.961 283.031 130.512C283.311 131.063 283.451 131.707 283.451 132.444C283.451 133.181 283.311 133.825 283.031 134.376C282.761 134.927 282.373 135.351 281.869 135.65C281.365 135.949 280.782 136.098 280.119 136.098ZM280.119 135.16C280.819 135.16 281.356 134.931 281.729 134.474C282.103 134.007 282.289 133.331 282.289 132.444C282.289 131.585 282.098 130.923 281.715 130.456C281.333 129.98 280.801 129.742 280.119 129.742C279.429 129.742 278.892 129.98 278.509 130.456C278.127 130.923 277.935 131.585 277.935 132.444C277.935 133.331 278.122 134.007 278.495 134.474C278.878 134.931 279.419 135.16 280.119 135.16ZM288.733 128.79C290.422 128.79 291.267 129.719 291.267 131.576V136H290.133V131.632C290.133 130.979 290.002 130.503 289.741 130.204C289.48 129.896 289.069 129.742 288.509 129.742C287.856 129.742 287.333 129.943 286.941 130.344C286.549 130.745 286.353 131.287 286.353 131.968V136H285.219V130.932C285.219 130.204 285.182 129.546 285.107 128.958H286.185L286.297 130.218C286.512 129.761 286.834 129.411 287.263 129.168C287.692 128.916 288.182 128.79 288.733 128.79ZM294.92 129.854V133.704C294.92 134.227 295.028 134.595 295.242 134.81C295.457 135.015 295.76 135.118 296.152 135.118C296.414 135.118 296.666 135.076 296.908 134.992V135.958C296.619 136.051 296.292 136.098 295.928 136.098C295.256 136.098 294.729 135.911 294.346 135.538C293.973 135.155 293.786 134.595 293.786 133.858V129.854H292.414V128.958H293.786V127.152L294.92 126.746V128.958H296.936V129.854H294.92ZM304.197 132.444H299.031C299.04 133.34 299.246 134.017 299.647 134.474C300.058 134.931 300.65 135.16 301.425 135.16C302.246 135.16 303.002 134.885 303.693 134.334L304.071 135.16C303.763 135.449 303.366 135.678 302.881 135.846C302.405 136.014 301.915 136.098 301.411 136.098C300.31 136.098 299.446 135.776 298.821 135.132C298.196 134.479 297.883 133.587 297.883 132.458C297.883 131.739 298.023 131.105 298.303 130.554C298.583 129.994 298.975 129.56 299.479 129.252C299.983 128.944 300.557 128.79 301.201 128.79C302.134 128.79 302.867 129.098 303.399 129.714C303.931 130.321 304.197 131.161 304.197 132.234V132.444ZM301.215 129.672C300.627 129.672 300.146 129.849 299.773 130.204C299.409 130.559 299.176 131.058 299.073 131.702H303.175C303.119 131.039 302.923 130.535 302.587 130.19C302.26 129.845 301.803 129.672 301.215 129.672ZM312.052 136H310.694L308.468 133.228L306.27 136H304.884L307.81 132.374L305.052 128.958H306.424L308.468 131.548L310.512 128.958H311.898L309.154 132.374L312.052 136ZM314.827 129.854V133.704C314.827 134.227 314.934 134.595 315.149 134.81C315.363 135.015 315.667 135.118 316.059 135.118C316.32 135.118 316.572 135.076 316.815 134.992V135.958C316.525 136.051 316.199 136.098 315.835 136.098C315.163 136.098 314.635 135.911 314.253 135.538C313.879 135.155 313.693 134.595 313.693 133.858V129.854H312.321V128.958H313.693V127.152L314.827 126.746V128.958H316.843V129.854H314.827Z" fill="#5B5151"/>
<circle cx="81" cy="119" r="15" fill="white"/>
<mask id="mask1" mask-type="alpha" maskUnits="userSpaceOnUse" x="66" y="104" width="30" height="30">
<circle cx="81" cy="119" r="15" fill="#F4F4EA"/>
</mask>
<g mask="url(#mask1)">
<path fill-rule="evenodd" clip-rule="evenodd" d="M86.9322 111.298C85.524 115.565 84.165 119.437 82.785 123.704C82.7024 124.067 82.5194 124.399 82.2569 124.662C81.8951 124.926 81.4494 125.048 81.0035 125.007H79.3418L80.2853 127.274H82.8976C83.252 127.296 83.6053 127.216 83.9158 127.044C84.2264 126.872 84.4814 126.614 84.6509 126.302C84.7643 126.09 84.8609 125.868 84.9396 125.641L89.798 111.298H86.9322Z" fill="#635452"/>
<path fill-rule="evenodd" clip-rule="evenodd" d="M77.376 119.043H79.087C79.2676 119.052 79.4378 119.13 79.5623 119.261C79.6868 119.392 79.7562 119.566 79.7559 119.747V119.902C79.7562 120.083 79.6868 120.257 79.5623 120.388C79.4378 120.519 79.2676 120.597 79.087 120.606H77.376C77.1893 120.606 77.0102 120.532 76.8781 120.4C76.7461 120.268 76.6719 120.089 76.6719 119.902V119.747C76.6719 119.56 76.7461 119.381 76.8781 119.249C77.0102 119.117 77.1893 119.043 77.376 119.043Z" fill="#F0AD00"/>
<path fill-rule="evenodd" clip-rule="evenodd" d="M80.8545 119.043H82.643C82.8297 119.043 83.0088 119.117 83.1409 119.249C83.2729 119.381 83.3471 119.56 83.3471 119.747V119.902C83.3471 120.089 83.2729 120.268 83.1409 120.4C83.0088 120.532 82.8297 120.606 82.643 120.606H80.8545C80.6678 120.606 80.4887 120.532 80.3566 120.4C80.2246 120.268 80.1504 120.089 80.1504 119.902V119.747C80.1504 119.56 80.2246 119.381 80.3566 119.249C80.4887 119.117 80.6678 119.043 80.8545 119.043Z" fill="#E1760C"/>
<path fill-rule="evenodd" clip-rule="evenodd" d="M76.7354 117.114H78.5872C78.768 117.113 78.942 117.183 79.0731 117.307C79.2041 117.432 79.2823 117.602 79.2913 117.782V117.944C79.2913 118.131 79.2172 118.31 79.0851 118.442C78.9531 118.574 78.774 118.649 78.5872 118.649H76.7354C76.5486 118.649 76.3695 118.574 76.2375 118.442C76.1054 118.31 76.0312 118.131 76.0312 117.944V117.782C76.0403 117.602 76.1184 117.432 76.2495 117.307C76.3806 117.183 76.5546 117.113 76.7354 117.114Z" fill="#E1760C"/>
<path fill-rule="evenodd" clip-rule="evenodd" d="M80.3682 117.114H83.3114C83.4861 117.122 83.6513 117.195 83.7749 117.319C83.8986 117.443 83.9718 117.608 83.9803 117.782V117.944C83.9806 118.125 83.9112 118.299 83.7867 118.43C83.6622 118.561 83.492 118.639 83.3114 118.649H80.3682C80.1814 118.649 80.0023 118.574 79.8703 118.442C79.7382 118.31 79.6641 118.131 79.6641 117.944V117.782C79.6731 117.602 79.7513 117.432 79.8823 117.307C80.0134 117.183 80.1874 117.113 80.3682 117.114Z" fill="#F0AD00"/>
<path fill-rule="evenodd" clip-rule="evenodd" d="M80.1026 120.986H82.0107C82.1913 120.995 82.3615 121.074 82.486 121.205C82.6105 121.336 82.6799 121.51 82.6797 121.69V121.859C82.6799 122.04 82.6105 122.214 82.486 122.345C82.3615 122.476 82.1913 122.555 82.0107 122.564H80.1026C79.9158 122.564 79.7367 122.489 79.6047 122.357C79.4726 122.225 79.3984 122.046 79.3984 121.859V121.697C79.3984 121.511 79.4726 121.332 79.6047 121.2C79.7367 121.068 79.9158 120.993 80.1026 120.993V120.986Z" fill="#D65359"/>
<path fill-rule="evenodd" clip-rule="evenodd" d="M79.0166 122.923H81.3684C81.5551 122.923 81.7342 122.997 81.8663 123.129C81.9983 123.261 82.0725 123.44 82.0725 123.627V123.789C82.0725 123.976 81.9983 124.155 81.8663 124.287C81.7342 124.419 81.5551 124.493 81.3684 124.493H79.0166C78.8299 124.493 78.6508 124.419 78.5187 124.287C78.3867 124.155 78.3125 123.976 78.3125 123.789V123.627C78.3125 123.44 78.3867 123.261 78.5187 123.129C78.6508 122.997 78.8299 122.923 79.0166 122.923Z" fill="#F0AD00"/>
<path fill-rule="evenodd" clip-rule="evenodd" d="M78.0811 115.17H80.3836C80.5703 115.17 80.7494 115.244 80.8814 115.376C81.0135 115.508 81.0877 115.688 81.0877 115.874V116.036C81.0877 116.223 81.0135 116.402 80.8814 116.534C80.7494 116.666 80.5703 116.74 80.3836 116.74H78.0811C77.8943 116.74 77.7152 116.666 77.5832 116.534C77.4511 116.402 77.377 116.223 77.377 116.036V115.874C77.377 115.688 77.4511 115.508 77.5832 115.376C77.7152 115.244 77.8943 115.17 78.0811 115.17Z" fill="#F0AD00"/>
<path fill-rule="evenodd" clip-rule="evenodd" d="M82.1358 115.17H83.9665C84.1532 115.17 84.3323 115.244 84.4644 115.376C84.5964 115.508 84.6706 115.688 84.6706 115.874V116.036C84.6706 116.223 84.5964 116.402 84.4644 116.534C84.3323 116.666 84.1532 116.74 83.9665 116.74H82.1358C81.949 116.74 81.7699 116.666 81.6379 116.534C81.5058 116.402 81.4316 116.223 81.4316 116.036V115.874C81.4316 115.688 81.5058 115.508 81.6379 115.376C81.7699 115.244 81.949 115.17 82.1358 115.17Z" fill="#E1760C"/>
<path fill-rule="evenodd" clip-rule="evenodd" d="M76.2429 115.17C76.3933 115.17 76.5403 115.215 76.6654 115.298C76.7904 115.382 76.8879 115.501 76.9455 115.64C77.003 115.779 77.0181 115.931 76.9888 116.079C76.9594 116.227 76.887 116.362 76.7806 116.468C76.6743 116.575 76.5388 116.647 76.3913 116.676C76.2437 116.706 76.0909 116.691 75.9519 116.633C75.8129 116.576 75.6942 116.478 75.6106 116.353C75.5271 116.228 75.4825 116.081 75.4825 115.931C75.4815 115.831 75.5005 115.731 75.5384 115.639C75.5763 115.546 75.6323 115.462 75.7031 115.391C75.7739 115.32 75.8581 115.264 75.9508 115.226C76.0435 115.188 76.1428 115.169 76.2429 115.17Z" fill="#D65359"/>
<path fill-rule="evenodd" clip-rule="evenodd" d="M74.8975 113.234H79.4884C79.6751 113.234 79.8542 113.308 79.9863 113.44C80.1183 113.572 80.1925 113.751 80.1925 113.938V114.1C80.1925 114.287 80.1183 114.466 79.9863 114.598C79.8542 114.73 79.6751 114.804 79.4884 114.804H74.8975C74.7107 114.804 74.5316 114.73 74.3996 114.598C74.2675 114.466 74.1934 114.287 74.1934 114.1V113.938C74.1934 113.751 74.2675 113.572 74.3996 113.44C74.5316 113.308 74.7107 113.234 74.8975 113.234Z" fill="#D65359"/>
<path fill-rule="evenodd" clip-rule="evenodd" d="M81.2139 113.234H84.6218C84.8086 113.234 84.9877 113.308 85.1197 113.44C85.2518 113.572 85.326 113.751 85.326 113.938V114.1C85.326 114.287 85.2518 114.466 85.1197 114.598C84.9877 114.73 84.8086 114.804 84.6218 114.804H81.2139C81.0271 114.804 80.848 114.73 80.716 114.598C80.5839 114.466 80.5098 114.287 80.5098 114.1V113.938C80.5098 113.751 80.5839 113.572 80.716 113.44C80.848 113.308 81.0271 113.234 81.2139 113.234Z" fill="#F0AD00"/>
<path fill-rule="evenodd" clip-rule="evenodd" d="M73.6162 111.297H77.1791C77.3658 111.297 77.5449 111.372 77.677 111.504C77.809 111.636 77.8832 111.815 77.8832 112.001V112.156C77.8832 112.343 77.809 112.522 77.677 112.654C77.5449 112.786 77.3658 112.861 77.1791 112.861H73.6162C73.4295 112.861 73.2504 112.786 73.1183 112.654C72.9863 112.522 72.9121 112.343 72.9121 112.156V112.001C72.9121 111.815 72.9863 111.636 73.1183 111.504C73.2504 111.372 73.4295 111.297 73.6162 111.297Z" fill="#E1760C"/>
<path fill-rule="evenodd" clip-rule="evenodd" d="M80.8975 111.297H85.256C85.4428 111.297 85.6218 111.372 85.7539 111.504C85.8859 111.636 85.9601 111.815 85.9601 112.001V112.156C85.9601 112.343 85.8859 112.522 85.7539 112.654C85.6218 112.786 85.4428 112.861 85.256 112.861H80.8975C80.7107 112.861 80.5316 112.786 80.3996 112.654C80.2675 112.522 80.1934 112.343 80.1934 112.156V112.001C80.1934 111.815 80.2675 111.636 80.3996 111.504C80.5316 111.372 80.7107 111.297 80.8975 111.297Z" fill="#D65359"/>
<path fill-rule="evenodd" clip-rule="evenodd" d="M79.0386 111.297C79.1876 111.297 79.3332 111.342 79.4571 111.424C79.581 111.507 79.6776 111.625 79.7346 111.762C79.7917 111.9 79.8066 112.052 79.7775 112.198C79.7484 112.344 79.6767 112.478 79.5713 112.584C79.466 112.689 79.3317 112.761 79.1856 112.79C79.0394 112.819 78.8879 112.804 78.7503 112.747C78.6126 112.69 78.4949 112.593 78.4121 112.469C78.3293 112.345 78.2852 112.2 78.2852 112.051C78.2852 111.851 78.3645 111.659 78.5058 111.518C78.6471 111.377 78.8388 111.297 79.0386 111.297Z" fill="#F0AD00"/>
<path fill-rule="evenodd" clip-rule="evenodd" d="M78.2437 120.986C78.3947 120.985 78.5427 121.028 78.6688 121.111C78.7949 121.194 78.8935 121.313 78.9519 121.452C79.0103 121.592 79.026 121.745 78.9969 121.893C78.9677 122.041 78.8952 122.177 78.7884 122.284C78.6816 122.391 78.5455 122.464 78.3973 122.493C78.2492 122.522 78.0957 122.506 77.9564 122.448C77.8172 122.389 77.6985 122.291 77.6155 122.165C77.5325 122.039 77.4889 121.891 77.4903 121.74C77.4903 121.54 77.5696 121.348 77.7109 121.207C77.8522 121.065 78.0439 120.986 78.2437 120.986Z" fill="#E1760C"/>
</g>
</svg>
