<svg width="359" height="241" viewBox="0 0 359 241" fill="none" xmlns="http://www.w3.org/2000/svg">
<rect width="359" height="241" rx="12" fill="white"/>
<rect x="0.5" y="0.5" width="358" height="240" rx="11.5" stroke="#5B5151" stroke-opacity="0.1"/>
<path d="M16 57C16 45.9543 24.9543 37 36 37H242C253.046 37 262 45.9543 262 57V77C262 88.0457 253.046 97 242 97H16V57Z" fill="#E6FFFC"/>
<path d="M65.232 53.032H66.38V63H65.232V53.032ZM78.5538 52.696V63H77.4338V61.726C77.2284 62.1647 76.9158 62.5053 76.4958 62.748C76.0851 62.9813 75.6044 63.098 75.0538 63.098C74.4378 63.098 73.8918 62.944 73.4158 62.636C72.9491 62.328 72.5851 61.8987 72.3238 61.348C72.0624 60.788 71.9318 60.144 71.9318 59.416C71.9318 58.688 72.0578 58.0533 72.3098 57.512C72.5711 56.9613 72.9398 56.5367 73.4158 56.238C73.8918 55.9393 74.4378 55.79 75.0538 55.79C75.6044 55.79 76.0851 55.9113 76.4958 56.154C76.9064 56.3873 77.2144 56.7187 77.4198 57.148V52.696H78.5538ZM75.2778 62.16C75.9684 62.16 76.5004 61.9267 76.8738 61.46C77.2471 60.984 77.4338 60.312 77.4338 59.444C77.4338 58.5853 77.2471 57.9227 76.8738 57.456C76.5004 56.98 75.9684 56.742 75.2778 56.742C74.5871 56.742 74.0458 56.9753 73.6538 57.442C73.2711 57.9087 73.0798 58.5667 73.0798 59.416C73.0798 60.284 73.2711 60.9607 73.6538 61.446C74.0458 61.922 74.5871 62.16 75.2778 62.16ZM83.6583 63.098C82.9956 63.098 82.4123 62.9487 81.9083 62.65C81.4043 62.3513 81.0123 61.9267 80.7323 61.376C80.4616 60.8253 80.3263 60.1813 80.3263 59.444C80.3263 58.7067 80.4616 58.0627 80.7323 57.512C81.0123 56.9613 81.4043 56.5367 81.9083 56.238C82.4123 55.9393 82.9956 55.79 83.6583 55.79C84.321 55.79 84.9043 55.9393 85.4083 56.238C85.9123 56.5367 86.2996 56.9613 86.5703 57.512C86.8503 58.0627 86.9903 58.7067 86.9903 59.444C86.9903 60.1813 86.8503 60.8253 86.5703 61.376C86.2996 61.9267 85.9123 62.3513 85.4083 62.65C84.9043 62.9487 84.321 63.098 83.6583 63.098ZM83.6583 62.16C84.3583 62.16 84.895 61.9313 85.2683 61.474C85.6416 61.0073 85.8283 60.3307 85.8283 59.444C85.8283 58.5853 85.637 57.9227 85.2543 57.456C84.8716 56.98 84.3396 56.742 83.6583 56.742C82.9676 56.742 82.431 56.98 82.0483 57.456C81.6656 57.9227 81.4743 58.5853 81.4743 59.444C81.4743 60.3307 81.661 61.0073 82.0343 61.474C82.417 61.9313 82.9583 62.16 83.6583 62.16ZM92.272 55.79C93.9613 55.79 94.806 56.7187 94.806 58.576V63H93.672V58.632C93.672 57.9787 93.5413 57.5027 93.28 57.204C93.0187 56.896 92.608 56.742 92.048 56.742C91.3947 56.742 90.872 56.9427 90.48 57.344C90.088 57.7453 89.892 58.2867 89.892 58.968V63H88.758V57.932C88.758 57.204 88.7207 56.546 88.646 55.958H89.724L89.836 57.218C90.0507 56.7607 90.3727 56.4107 90.802 56.168C91.2313 55.916 91.7213 55.79 92.272 55.79ZM97.9337 53.032V54.054C97.9337 54.446 97.8684 54.8053 97.7377 55.132C97.607 55.4587 97.3877 55.7807 97.0797 56.098L96.5477 55.678C96.9117 55.258 97.117 54.8567 97.1637 54.474H96.4917V53.032H97.9337ZM101.481 56.854V60.704C101.481 61.2267 101.588 61.5953 101.803 61.81C102.018 62.0153 102.321 62.118 102.713 62.118C102.974 62.118 103.226 62.076 103.469 61.992V62.958C103.18 63.0513 102.853 63.098 102.489 63.098C101.817 63.098 101.29 62.9113 100.907 62.538C100.534 62.1553 100.347 61.5953 100.347 60.858V56.854H98.975V55.958H100.347V54.152L101.481 53.746V55.958H103.497V56.854H101.481ZM112.028 55.79C113.717 55.79 114.562 56.7187 114.562 58.576V63H113.428V58.632C113.428 57.9787 113.297 57.5027 113.036 57.204C112.775 56.896 112.364 56.742 111.804 56.742C111.151 56.742 110.628 56.9427 110.236 57.344C109.844 57.7453 109.648 58.2867 109.648 58.968V63H108.514V52.696H109.648V57.106C109.872 56.6767 110.189 56.35 110.6 56.126C111.02 55.902 111.496 55.79 112.028 55.79ZM122.905 55.958V63H121.785V61.726C121.58 62.1647 121.267 62.5053 120.847 62.748C120.437 62.9813 119.956 63.098 119.405 63.098C118.78 63.098 118.229 62.9487 117.753 62.65C117.287 62.3513 116.923 61.9313 116.661 61.39C116.409 60.8393 116.283 60.2 116.283 59.472C116.283 58.744 116.414 58.1047 116.675 57.554C116.937 56.994 117.301 56.56 117.767 56.252C118.243 55.944 118.789 55.79 119.405 55.79C119.956 55.79 120.437 55.9113 120.847 56.154C121.258 56.3967 121.571 56.7373 121.785 57.176V55.958H122.905ZM119.629 62.16C120.32 62.16 120.852 61.9267 121.225 61.46C121.599 60.984 121.785 60.312 121.785 59.444C121.785 58.576 121.599 57.9087 121.225 57.442C120.852 56.9753 120.32 56.742 119.629 56.742C118.939 56.742 118.397 56.9847 118.005 57.47C117.623 57.946 117.431 58.6133 117.431 59.472C117.431 60.3307 117.623 60.9933 118.005 61.46C118.388 61.9267 118.929 62.16 119.629 62.16ZM131.286 55.972L128.248 63H127.17L124.174 55.972H125.364L127.744 61.768L130.152 55.972H131.286ZM138.347 59.444H133.181C133.191 60.34 133.396 61.0167 133.797 61.474C134.208 61.9313 134.801 62.16 135.575 62.16C136.397 62.16 137.153 61.8847 137.843 61.334L138.221 62.16C137.913 62.4493 137.517 62.678 137.031 62.846C136.555 63.014 136.065 63.098 135.561 63.098C134.46 63.098 133.597 62.776 132.971 62.132C132.346 61.4787 132.033 60.5873 132.033 59.458C132.033 58.7393 132.173 58.1047 132.453 57.554C132.733 56.994 133.125 56.56 133.629 56.252C134.133 55.944 134.707 55.79 135.351 55.79C136.285 55.79 137.017 56.098 137.549 56.714C138.081 57.3207 138.347 58.1607 138.347 59.234V59.444ZM135.365 56.672C134.777 56.672 134.297 56.8493 133.923 57.204C133.559 57.5587 133.326 58.058 133.223 58.702H137.325C137.269 58.0393 137.073 57.5353 136.737 57.19C136.411 56.8447 135.953 56.672 135.365 56.672ZM149.613 59.444H144.447C144.456 60.34 144.662 61.0167 145.063 61.474C145.474 61.9313 146.066 62.16 146.841 62.16C147.662 62.16 148.418 61.8847 149.109 61.334L149.487 62.16C149.179 62.4493 148.782 62.678 148.297 62.846C147.821 63.014 147.331 63.098 146.827 63.098C145.726 63.098 144.862 62.776 144.237 62.132C143.612 61.4787 143.299 60.5873 143.299 59.458C143.299 58.7393 143.439 58.1047 143.719 57.554C143.999 56.994 144.391 56.56 144.895 56.252C145.399 55.944 145.973 55.79 146.617 55.79C147.55 55.79 148.283 56.098 148.815 56.714C149.347 57.3207 149.613 58.1607 149.613 59.234V59.444ZM146.631 56.672C146.043 56.672 145.562 56.8493 145.189 57.204C144.825 57.5587 144.592 58.058 144.489 58.702H148.591C148.535 58.0393 148.339 57.5353 148.003 57.19C147.676 56.8447 147.219 56.672 146.631 56.672ZM157.536 55.958V63H156.416V61.726C156.211 62.1647 155.898 62.5053 155.478 62.748C155.068 62.9813 154.587 63.098 154.036 63.098C153.411 63.098 152.86 62.9487 152.384 62.65C151.918 62.3513 151.554 61.9313 151.292 61.39C151.04 60.8393 150.914 60.2 150.914 59.472C150.914 58.744 151.045 58.1047 151.306 57.554C151.568 56.994 151.932 56.56 152.398 56.252C152.874 55.944 153.42 55.79 154.036 55.79C154.587 55.79 155.068 55.9113 155.478 56.154C155.889 56.3967 156.202 56.7373 156.416 57.176V55.958H157.536ZM154.26 62.16C154.951 62.16 155.483 61.9267 155.856 61.46C156.23 60.984 156.416 60.312 156.416 59.444C156.416 58.576 156.23 57.9087 155.856 57.442C155.483 56.9753 154.951 56.742 154.26 56.742C153.57 56.742 153.028 56.9847 152.636 57.47C152.254 57.946 152.062 58.6133 152.062 59.472C152.062 60.3307 152.254 60.9933 152.636 61.46C153.019 61.9267 153.56 62.16 154.26 62.16ZM162.109 63.098C160.923 63.098 159.985 62.7947 159.295 62.188L159.673 61.348C160.055 61.6467 160.443 61.8613 160.835 61.992C161.227 62.1227 161.665 62.188 162.151 62.188C162.683 62.188 163.084 62.0993 163.355 61.922C163.635 61.7353 163.775 61.4693 163.775 61.124C163.775 60.844 163.681 60.62 163.495 60.452C163.308 60.284 163 60.1533 162.571 60.06L161.381 59.78C160.793 59.6493 160.335 59.416 160.009 59.08C159.691 58.744 159.533 58.3427 159.533 57.876C159.533 57.26 159.78 56.7607 160.275 56.378C160.769 55.986 161.423 55.79 162.235 55.79C162.729 55.79 163.196 55.8693 163.635 56.028C164.073 56.1867 164.442 56.4153 164.741 56.714L164.363 57.54C163.7 56.9893 162.991 56.714 162.235 56.714C161.731 56.714 161.339 56.812 161.059 57.008C160.788 57.1947 160.653 57.4607 160.653 57.806C160.653 58.0953 160.737 58.324 160.905 58.492C161.082 58.66 161.362 58.7907 161.745 58.884L162.935 59.178C163.588 59.3273 164.073 59.5607 164.391 59.878C164.708 60.186 164.867 60.592 164.867 61.096C164.867 61.7027 164.619 62.188 164.125 62.552C163.63 62.916 162.958 63.098 162.109 63.098ZM172.739 55.958L169.449 63.644C169.104 64.4467 168.67 65.0347 168.147 65.408C167.624 65.7813 166.98 66.038 166.215 66.178L165.977 65.296C166.64 65.1467 167.139 64.946 167.475 64.694C167.82 64.4513 168.105 64.0733 168.329 63.56L168.609 62.93L165.627 55.958H166.817L169.197 61.768L171.605 55.958H172.739ZM180.593 63.098C179.912 63.098 179.314 62.9487 178.801 62.65C178.297 62.3513 177.905 61.9313 177.625 61.39C177.354 60.8393 177.219 60.2 177.219 59.472C177.219 58.744 177.359 58.1047 177.639 57.554C177.919 56.994 178.316 56.56 178.829 56.252C179.352 55.944 179.958 55.79 180.649 55.79C181.125 55.79 181.582 55.874 182.021 56.042C182.469 56.2007 182.838 56.4247 183.127 56.714L182.749 57.554C182.394 57.274 182.049 57.0687 181.713 56.938C181.386 56.8073 181.05 56.742 180.705 56.742C179.986 56.742 179.422 56.9847 179.011 57.47C178.6 57.946 178.395 58.6133 178.395 59.472C178.395 60.3213 178.596 60.984 178.997 61.46C179.408 61.9267 179.977 62.16 180.705 62.16C181.05 62.16 181.386 62.0947 181.713 61.964C182.049 61.8333 182.394 61.628 182.749 61.348L183.127 62.188C182.828 62.468 182.45 62.692 181.993 62.86C181.545 63.0187 181.078 63.098 180.593 63.098ZM187.483 63.098C186.82 63.098 186.237 62.9487 185.733 62.65C185.229 62.3513 184.837 61.9267 184.557 61.376C184.286 60.8253 184.151 60.1813 184.151 59.444C184.151 58.7067 184.286 58.0627 184.557 57.512C184.837 56.9613 185.229 56.5367 185.733 56.238C186.237 55.9393 186.82 55.79 187.483 55.79C188.145 55.79 188.729 55.9393 189.233 56.238C189.737 56.5367 190.124 56.9613 190.395 57.512C190.675 58.0627 190.815 58.7067 190.815 59.444C190.815 60.1813 190.675 60.8253 190.395 61.376C190.124 61.9267 189.737 62.3513 189.233 62.65C188.729 62.9487 188.145 63.098 187.483 63.098ZM187.483 62.16C188.183 62.16 188.719 61.9313 189.093 61.474C189.466 61.0073 189.653 60.3307 189.653 59.444C189.653 58.5853 189.461 57.9227 189.079 57.456C188.696 56.98 188.164 56.742 187.483 56.742C186.792 56.742 186.255 56.98 185.873 57.456C185.49 57.9227 185.299 58.5853 185.299 59.444C185.299 60.3307 185.485 61.0073 185.859 61.474C186.241 61.9313 186.783 62.16 187.483 62.16ZM196.096 55.79C197.786 55.79 198.63 56.7187 198.63 58.576V63H197.496V58.632C197.496 57.9787 197.366 57.5027 197.104 57.204C196.843 56.896 196.432 56.742 195.872 56.742C195.219 56.742 194.696 56.9427 194.304 57.344C193.912 57.7453 193.716 58.2867 193.716 58.968V63H192.582V57.932C192.582 57.204 192.545 56.546 192.47 55.958H193.548L193.66 57.218C193.875 56.7607 194.197 56.4107 194.626 56.168C195.056 55.916 195.546 55.79 196.096 55.79ZM202.284 56.854V60.704C202.284 61.2267 202.391 61.5953 202.606 61.81C202.82 62.0153 203.124 62.118 203.516 62.118C203.777 62.118 204.029 62.076 204.272 61.992V62.958C203.982 63.0513 203.656 63.098 203.292 63.098C202.62 63.098 202.092 62.9113 201.71 62.538C201.336 62.1553 201.15 61.5953 201.15 60.858V56.854H199.778V55.958H201.15V54.152L202.284 53.746V55.958H204.3V56.854H202.284ZM208.942 55.79C209.176 55.79 209.39 55.818 209.586 55.874L209.558 56.91C209.344 56.8353 209.096 56.798 208.816 56.798C208.135 56.798 207.626 57.0127 207.29 57.442C206.964 57.862 206.8 58.3753 206.8 58.982V63H205.666V57.932C205.666 57.204 205.629 56.546 205.554 55.958H206.632L206.744 57.26C206.922 56.784 207.206 56.42 207.598 56.168C207.99 55.916 208.438 55.79 208.942 55.79ZM213.514 63.098C212.851 63.098 212.268 62.9487 211.764 62.65C211.26 62.3513 210.868 61.9267 210.588 61.376C210.317 60.8253 210.182 60.1813 210.182 59.444C210.182 58.7067 210.317 58.0627 210.588 57.512C210.868 56.9613 211.26 56.5367 211.764 56.238C212.268 55.9393 212.851 55.79 213.514 55.79C214.176 55.79 214.76 55.9393 215.264 56.238C215.768 56.5367 216.155 56.9613 216.426 57.512C216.706 58.0627 216.846 58.7067 216.846 59.444C216.846 60.1813 216.706 60.8253 216.426 61.376C216.155 61.9267 215.768 62.3513 215.264 62.65C214.76 62.9487 214.176 63.098 213.514 63.098ZM213.514 62.16C214.214 62.16 214.75 61.9313 215.124 61.474C215.497 61.0073 215.684 60.3307 215.684 59.444C215.684 58.5853 215.492 57.9227 215.11 57.456C214.727 56.98 214.195 56.742 213.514 56.742C212.823 56.742 212.286 56.98 211.904 57.456C211.521 57.9227 211.33 58.5853 211.33 59.444C211.33 60.3307 211.516 61.0073 211.89 61.474C212.272 61.9313 212.814 62.16 213.514 62.16ZM218.613 52.696H219.747V63H218.613V52.696ZM228.512 63.098C227.849 63.098 227.266 62.9487 226.762 62.65C226.258 62.3513 225.866 61.9267 225.586 61.376C225.315 60.8253 225.18 60.1813 225.18 59.444C225.18 58.7067 225.315 58.0627 225.586 57.512C225.866 56.9613 226.258 56.5367 226.762 56.238C227.266 55.9393 227.849 55.79 228.512 55.79C229.174 55.79 229.758 55.9393 230.262 56.238C230.766 56.5367 231.153 56.9613 231.424 57.512C231.704 58.0627 231.844 58.7067 231.844 59.444C231.844 60.1813 231.704 60.8253 231.424 61.376C231.153 61.9267 230.766 62.3513 230.262 62.65C229.758 62.9487 229.174 63.098 228.512 63.098ZM228.512 62.16C229.212 62.16 229.748 61.9313 230.122 61.474C230.495 61.0073 230.682 60.3307 230.682 59.444C230.682 58.5853 230.49 57.9227 230.108 57.456C229.725 56.98 229.193 56.742 228.512 56.742C227.821 56.742 227.284 56.98 226.902 57.456C226.519 57.9227 226.328 58.5853 226.328 59.444C226.328 60.3307 226.514 61.0073 226.888 61.474C227.27 61.9313 227.812 62.16 228.512 62.16ZM237.126 55.79C238.815 55.79 239.66 56.7187 239.66 58.576V63H238.526V58.632C238.526 57.9787 238.395 57.5027 238.134 57.204C237.872 56.896 237.462 56.742 236.902 56.742C236.248 56.742 235.726 56.9427 235.334 57.344C234.942 57.7453 234.746 58.2867 234.746 58.968V63H233.612V57.932C233.612 57.204 233.574 56.546 233.5 55.958H234.578L234.69 57.218C234.904 56.7607 235.226 56.4107 235.656 56.168C236.085 55.916 236.575 55.79 237.126 55.79ZM73.492 71.032V81H72.344V76.422H66.366V81H65.232V71.032H66.366V75.456H72.344V71.032H73.492ZM82.0688 80.034V81H76.5108V80.034H78.7088V72.46L76.6648 73.762V72.656L79.2128 71.032H79.8708V80.034H82.0688ZM94.0577 73.958V81H92.9377V79.726C92.7323 80.1647 92.4197 80.5053 91.9997 80.748C91.589 80.9813 91.1083 81.098 90.5577 81.098C89.9323 81.098 89.3817 80.9487 88.9057 80.65C88.439 80.3513 88.075 79.9313 87.8137 79.39C87.5617 78.8393 87.4357 78.2 87.4357 77.472C87.4357 76.744 87.5663 76.1047 87.8277 75.554C88.089 74.994 88.453 74.56 88.9197 74.252C89.3957 73.944 89.9417 73.79 90.5577 73.79C91.1083 73.79 91.589 73.9113 91.9997 74.154C92.4103 74.3967 92.723 74.7373 92.9377 75.176V73.958H94.0577ZM90.7817 80.16C91.4723 80.16 92.0043 79.9267 92.3777 79.46C92.751 78.984 92.9377 78.312 92.9377 77.444C92.9377 76.576 92.751 75.9087 92.3777 75.442C92.0043 74.9753 91.4723 74.742 90.7817 74.742C90.091 74.742 89.5497 74.9847 89.1577 75.47C88.775 75.946 88.5837 76.6133 88.5837 77.472C88.5837 78.3307 88.775 78.9933 89.1577 79.46C89.5403 79.9267 90.0817 80.16 90.7817 80.16ZM99.7642 73.79C101.454 73.79 102.298 74.7187 102.298 76.576V81H101.164V76.632C101.164 75.9787 101.034 75.5027 100.772 75.204C100.511 74.896 100.1 74.742 99.5402 74.742C98.8869 74.742 98.3642 74.9427 97.9722 75.344C97.5802 75.7453 97.3842 76.2867 97.3842 76.968V81H96.2502V75.932C96.2502 75.204 96.2129 74.546 96.1382 73.958H97.2162L97.3282 75.218C97.5429 74.7607 97.8649 74.4107 98.2942 74.168C98.7235 73.916 99.2135 73.79 99.7642 73.79ZM110.642 70.696V81H109.522V79.726C109.316 80.1647 109.004 80.5053 108.584 80.748C108.173 80.9813 107.692 81.098 107.142 81.098C106.526 81.098 105.98 80.944 105.504 80.636C105.037 80.328 104.673 79.8987 104.412 79.348C104.15 78.788 104.02 78.144 104.02 77.416C104.02 76.688 104.146 76.0533 104.398 75.512C104.659 74.9613 105.028 74.5367 105.504 74.238C105.98 73.9393 106.526 73.79 107.142 73.79C107.692 73.79 108.173 73.9113 108.584 74.154C108.994 74.3873 109.302 74.7187 109.508 75.148V70.696H110.642ZM107.366 80.16C108.056 80.16 108.588 79.9267 108.962 79.46C109.335 78.984 109.522 78.312 109.522 77.444C109.522 76.5853 109.335 75.9227 108.962 75.456C108.588 74.98 108.056 74.742 107.366 74.742C106.675 74.742 106.134 74.9753 105.742 75.442C105.359 75.9087 105.168 76.5667 105.168 77.416C105.168 78.284 105.359 78.9607 105.742 79.446C106.134 79.922 106.675 80.16 107.366 80.16ZM124.297 73.79C125.855 73.79 126.635 74.7187 126.635 76.576V81H125.501V76.632C125.501 75.9693 125.384 75.4887 125.151 75.19C124.927 74.8913 124.558 74.742 124.045 74.742C123.447 74.742 122.981 74.9427 122.645 75.344C122.309 75.7453 122.141 76.2913 122.141 76.982V81H121.007V76.632C121.007 75.9787 120.89 75.5027 120.657 75.204C120.423 74.896 120.05 74.742 119.537 74.742C118.939 74.742 118.468 74.9427 118.123 75.344C117.787 75.7453 117.619 76.2913 117.619 76.982V81H116.485V75.932C116.485 75.204 116.447 74.546 116.373 73.958H117.451L117.563 75.19C117.759 74.742 118.048 74.3967 118.431 74.154C118.823 73.9113 119.275 73.79 119.789 73.79C120.349 73.79 120.806 73.902 121.161 74.126C121.515 74.35 121.777 74.6953 121.945 75.162C122.159 74.742 122.472 74.4107 122.883 74.168C123.303 73.916 123.774 73.79 124.297 73.79ZM134.683 77.444H129.517C129.527 78.34 129.732 79.0167 130.133 79.474C130.544 79.9313 131.137 80.16 131.911 80.16C132.733 80.16 133.489 79.8847 134.179 79.334L134.557 80.16C134.249 80.4493 133.853 80.678 133.367 80.846C132.891 81.014 132.401 81.098 131.897 81.098C130.796 81.098 129.933 80.776 129.307 80.132C128.682 79.4787 128.369 78.5873 128.369 77.458C128.369 76.7393 128.509 76.1047 128.789 75.554C129.069 74.994 129.461 74.56 129.965 74.252C130.469 73.944 131.043 73.79 131.687 73.79C132.621 73.79 133.353 74.098 133.885 74.714C134.417 75.3207 134.683 76.1607 134.683 77.234V77.444ZM131.701 74.672C131.113 74.672 130.633 74.8493 130.259 75.204C129.895 75.5587 129.662 76.058 129.559 76.702H133.661C133.605 76.0393 133.409 75.5353 133.073 75.19C132.747 74.8447 132.289 74.672 131.701 74.672ZM137.875 74.854V78.704C137.875 79.2267 137.983 79.5953 138.197 79.81C138.412 80.0153 138.715 80.118 139.107 80.118C139.369 80.118 139.621 80.076 139.863 79.992V80.958C139.574 81.0513 139.247 81.098 138.883 81.098C138.211 81.098 137.684 80.9113 137.301 80.538C136.928 80.1553 136.741 79.5953 136.741 78.858V74.854H135.369V73.958H136.741V72.152L137.875 71.746V73.958H139.891V74.854H137.875ZM147.46 73.958V81H146.34V79.726C146.135 80.1647 145.822 80.5053 145.402 80.748C144.991 80.9813 144.511 81.098 143.96 81.098C143.335 81.098 142.784 80.9487 142.308 80.65C141.841 80.3513 141.477 79.9313 141.216 79.39C140.964 78.8393 140.838 78.2 140.838 77.472C140.838 76.744 140.969 76.1047 141.23 75.554C141.491 74.994 141.855 74.56 142.322 74.252C142.798 73.944 143.344 73.79 143.96 73.79C144.511 73.79 144.991 73.9113 145.402 74.154C145.813 74.3967 146.125 74.7373 146.34 75.176V73.958H147.46ZM144.184 80.16C144.875 80.16 145.407 79.9267 145.78 79.46C146.153 78.984 146.34 78.312 146.34 77.444C146.34 76.576 146.153 75.9087 145.78 75.442C145.407 74.9753 144.875 74.742 144.184 74.742C143.493 74.742 142.952 74.9847 142.56 75.47C142.177 75.946 141.986 76.6133 141.986 77.472C141.986 78.3307 142.177 78.9933 142.56 79.46C142.943 79.9267 143.484 80.16 144.184 80.16ZM159.575 73.958V80.944C159.575 81.9893 159.304 82.778 158.763 83.31C158.231 83.8513 157.442 84.122 156.397 84.122C155.324 84.122 154.4 83.8793 153.625 83.394L153.821 82.47C154.269 82.722 154.689 82.904 155.081 83.016C155.482 83.128 155.921 83.184 156.397 83.184C157.078 83.184 157.592 83.002 157.937 82.638C158.282 82.2833 158.455 81.7513 158.455 81.042V79.376C158.24 79.824 157.923 80.174 157.503 80.426C157.092 80.6687 156.602 80.79 156.033 80.79C155.417 80.79 154.866 80.6453 154.381 80.356C153.905 80.0667 153.536 79.656 153.275 79.124C153.014 78.592 152.883 77.9807 152.883 77.29C152.883 76.5993 153.014 75.988 153.275 75.456C153.536 74.924 153.905 74.5133 154.381 74.224C154.866 73.9347 155.417 73.79 156.033 73.79C156.593 73.79 157.078 73.9113 157.489 74.154C157.909 74.3967 158.226 74.7373 158.441 75.176V73.958H159.575ZM156.257 79.838C156.938 79.838 157.47 79.614 157.853 79.166C158.245 78.7087 158.441 78.0833 158.441 77.29C158.441 76.4967 158.245 75.876 157.853 75.428C157.47 74.9707 156.938 74.742 156.257 74.742C155.566 74.742 155.02 74.9707 154.619 75.428C154.227 75.876 154.031 76.4967 154.031 77.29C154.031 78.0833 154.227 78.7087 154.619 79.166C155.02 79.614 155.566 79.838 156.257 79.838ZM167.646 77.444H162.48C162.489 78.34 162.695 79.0167 163.096 79.474C163.507 79.9313 164.099 80.16 164.874 80.16C165.695 80.16 166.451 79.8847 167.142 79.334L167.52 80.16C167.212 80.4493 166.815 80.678 166.33 80.846C165.854 81.014 165.364 81.098 164.86 81.098C163.759 81.098 162.895 80.776 162.27 80.132C161.645 79.4787 161.332 78.5873 161.332 77.458C161.332 76.7393 161.472 76.1047 161.752 75.554C162.032 74.994 162.424 74.56 162.928 74.252C163.432 73.944 164.006 73.79 164.65 73.79C165.583 73.79 166.316 74.098 166.848 74.714C167.38 75.3207 167.646 76.1607 167.646 77.234V77.444ZM164.664 74.672C164.076 74.672 163.595 74.8493 163.222 75.204C162.858 75.5587 162.625 76.058 162.522 76.702H166.624C166.568 76.0393 166.372 75.5353 166.036 75.19C165.709 74.8447 165.252 74.672 164.664 74.672ZM172.881 73.79C174.571 73.79 175.415 74.7187 175.415 76.576V81H174.281V76.632C174.281 75.9787 174.151 75.5027 173.889 75.204C173.628 74.896 173.217 74.742 172.657 74.742C172.004 74.742 171.481 74.9427 171.089 75.344C170.697 75.7453 170.501 76.2867 170.501 76.968V81H169.367V75.932C169.367 75.204 169.33 74.546 169.255 73.958H170.333L170.445 75.218C170.66 74.7607 170.982 74.4107 171.411 74.168C171.841 73.916 172.331 73.79 172.881 73.79ZM183.451 77.444H178.285C178.294 78.34 178.5 79.0167 178.901 79.474C179.312 79.9313 179.904 80.16 180.679 80.16C181.5 80.16 182.256 79.8847 182.947 79.334L183.325 80.16C183.017 80.4493 182.62 80.678 182.135 80.846C181.659 81.014 181.169 81.098 180.665 81.098C179.564 81.098 178.7 80.776 178.075 80.132C177.45 79.4787 177.137 78.5873 177.137 77.458C177.137 76.7393 177.277 76.1047 177.557 75.554C177.837 74.994 178.229 74.56 178.733 74.252C179.237 73.944 179.811 73.79 180.455 73.79C181.388 73.79 182.121 74.098 182.653 74.714C183.185 75.3207 183.451 76.1607 183.451 77.234V77.444ZM180.469 74.672C179.881 74.672 179.4 74.8493 179.027 75.204C178.663 75.5587 178.43 76.058 178.327 76.702H182.429C182.373 76.0393 182.177 75.5353 181.841 75.19C181.514 74.8447 181.057 74.672 180.469 74.672ZM188.448 73.79C188.681 73.79 188.896 73.818 189.092 73.874L189.064 74.91C188.849 74.8353 188.602 74.798 188.322 74.798C187.641 74.798 187.132 75.0127 186.796 75.442C186.469 75.862 186.306 76.3753 186.306 76.982V81H185.172V75.932C185.172 75.204 185.135 74.546 185.06 73.958H186.138L186.25 75.26C186.427 74.784 186.712 74.42 187.104 74.168C187.496 73.916 187.944 73.79 188.448 73.79ZM196.31 73.958V81H195.19V79.726C194.984 80.1647 194.672 80.5053 194.252 80.748C193.841 80.9813 193.36 81.098 192.81 81.098C192.184 81.098 191.634 80.9487 191.158 80.65C190.691 80.3513 190.327 79.9313 190.066 79.39C189.814 78.8393 189.688 78.2 189.688 77.472C189.688 76.744 189.818 76.1047 190.08 75.554C190.341 74.994 190.705 74.56 191.172 74.252C191.648 73.944 192.194 73.79 192.81 73.79C193.36 73.79 193.841 73.9113 194.252 74.154C194.662 74.3967 194.975 74.7373 195.19 75.176V73.958H196.31ZM193.034 80.16C193.724 80.16 194.256 79.9267 194.63 79.46C195.003 78.984 195.19 78.312 195.19 77.444C195.19 76.576 195.003 75.9087 194.63 75.442C194.256 74.9753 193.724 74.742 193.034 74.742C192.343 74.742 191.802 74.9847 191.41 75.47C191.027 75.946 190.836 76.6133 190.836 77.472C190.836 78.3307 191.027 78.9933 191.41 79.46C191.792 79.9267 192.334 80.16 193.034 80.16ZM200.014 74.854V78.704C200.014 79.2267 200.121 79.5953 200.336 79.81C200.551 80.0153 200.854 80.118 201.246 80.118C201.507 80.118 201.759 80.076 202.002 79.992V80.958C201.713 81.0513 201.386 81.098 201.022 81.098C200.35 81.098 199.823 80.9113 199.44 80.538C199.067 80.1553 198.88 79.5953 198.88 78.858V74.854H197.508V73.958H198.88V72.152L200.014 71.746V73.958H202.03V74.854H200.014ZM203.397 73.958H204.531V81H203.397V73.958ZM204.671 70.976V72.264H203.285V70.976H204.671ZM209.645 81.098C208.982 81.098 208.399 80.9487 207.895 80.65C207.391 80.3513 206.999 79.9267 206.719 79.376C206.448 78.8253 206.313 78.1813 206.313 77.444C206.313 76.7067 206.448 76.0627 206.719 75.512C206.999 74.9613 207.391 74.5367 207.895 74.238C208.399 73.9393 208.982 73.79 209.645 73.79C210.307 73.79 210.891 73.9393 211.395 74.238C211.899 74.5367 212.286 74.9613 212.557 75.512C212.837 76.0627 212.977 76.7067 212.977 77.444C212.977 78.1813 212.837 78.8253 212.557 79.376C212.286 79.9267 211.899 80.3513 211.395 80.65C210.891 80.9487 210.307 81.098 209.645 81.098ZM209.645 80.16C210.345 80.16 210.881 79.9313 211.255 79.474C211.628 79.0073 211.815 78.3307 211.815 77.444C211.815 76.5853 211.623 75.9227 211.241 75.456C210.858 74.98 210.326 74.742 209.645 74.742C208.954 74.742 208.417 74.98 208.035 75.456C207.652 75.9227 207.461 76.5853 207.461 77.444C207.461 78.3307 207.647 79.0073 208.021 79.474C208.403 79.9313 208.945 80.16 209.645 80.16ZM218.258 73.79C219.948 73.79 220.792 74.7187 220.792 76.576V81H219.658V76.632C219.658 75.9787 219.528 75.5027 219.266 75.204C219.005 74.896 218.594 74.742 218.034 74.742C217.381 74.742 216.858 74.9427 216.466 75.344C216.074 75.7453 215.878 76.2867 215.878 76.968V81H214.744V75.932C214.744 75.204 214.707 74.546 214.632 73.958H215.71L215.822 75.218C216.037 74.7607 216.359 74.4107 216.788 74.168C217.218 73.916 217.708 73.79 218.258 73.79Z" fill="#5B5151"/>
<circle cx="41" cy="64" r="15" fill="white"/>
<mask id="mask0" mask-type="alpha" maskUnits="userSpaceOnUse" x="26" y="49" width="30" height="30">
<circle cx="41" cy="64" r="15" fill="white"/>
</mask>
<g mask="url(#mask0)">
<path d="M46.3763 61.5393C46.3763 63.0615 45.8304 64.3792 44.7535 65.4562C43.6766 66.5331 42.3587 67.079 40.8365 67.079H40.8338C39.3135 67.0785 37.9966 66.5326 36.9197 65.4562C35.8426 64.3792 35.2969 63.0615 35.2969 61.5393C35.2969 60.0175 35.8426 58.6997 36.9197 57.6228C37.996 56.5463 39.313 56.0005 40.8338 56H40.8365C42.3582 56 43.676 56.5459 44.7535 57.6228C45.8304 58.6997 46.3763 60.0175 46.3763 61.5393Z" fill="#FFD589"/>
<path d="M50.5759 75.0444C50.5759 76.2454 50.1939 77.2177 49.4415 77.9338C48.6978 78.6415 47.7142 79 46.5184 79H35.4437C34.2479 79 33.2643 78.6415 32.5212 77.9338C31.7682 77.2172 31.3867 76.245 31.3867 75.0444C31.3867 74.5826 31.402 74.1256 31.4325 73.6862C31.4636 73.237 31.5264 72.7482 31.619 72.2324C31.7124 71.7125 31.8324 71.221 31.9761 70.7718C32.1253 70.3068 32.3271 69.8481 32.5768 69.4087C32.8362 68.9526 33.1408 68.5553 33.4823 68.2282C33.8402 67.8859 34.2779 67.6109 34.7838 67.4105C35.2879 67.2112 35.8468 67.1101 36.4448 67.1101C36.6794 67.1101 36.9067 67.2061 37.3447 67.4914C37.6188 67.6702 37.9346 67.8738 38.2833 68.0966C38.5844 68.2886 38.9922 68.4686 39.4963 68.6313C39.9394 68.7747 40.3892 68.8547 40.8335 68.8686C40.8824 68.8703 40.9314 68.8712 40.9803 68.8712C41.4738 68.8712 41.9728 68.7903 42.4649 68.6313C42.969 68.4686 43.3774 68.2886 43.6783 68.0966C44.0306 67.8715 44.3465 67.6681 44.6166 67.4919C45.0549 67.2061 45.2818 67.1101 45.5169 67.1101C46.1144 67.1101 46.6733 67.2112 47.1778 67.4105C47.6837 67.6109 48.1213 67.8864 48.479 68.2282C48.821 68.5553 49.1256 68.9526 49.3848 69.4087C49.6347 69.8484 49.8368 70.3068 49.9854 70.7712C50.1293 71.221 50.2497 71.7125 50.3431 72.2328C50.4352 72.749 50.4982 73.2379 50.5291 73.6859C50.5601 74.1239 50.5754 74.5808 50.5759 75.0444Z" fill="#D55A5F"/>
</g>
<path d="M50 133C50 121.954 58.9543 113 70 113H323C334.046 113 343 121.954 343 133V173H70C58.9543 173 50 164.046 50 153V133Z" fill="#FCFCFC"/>
<path d="M108.816 134.968V139H107.668V134.954L103.748 129.032H105.092L108.256 133.932L111.42 129.032H112.736L108.816 134.968ZM115.428 139.098C114.765 139.098 114.182 138.949 113.678 138.65C113.174 138.351 112.782 137.927 112.502 137.376C112.231 136.825 112.096 136.181 112.096 135.444C112.096 134.707 112.231 134.063 112.502 133.512C112.782 132.961 113.174 132.537 113.678 132.238C114.182 131.939 114.765 131.79 115.428 131.79C116.09 131.79 116.674 131.939 117.178 132.238C117.682 132.537 118.069 132.961 118.34 133.512C118.62 134.063 118.76 134.707 118.76 135.444C118.76 136.181 118.62 136.825 118.34 137.376C118.069 137.927 117.682 138.351 117.178 138.65C116.674 138.949 116.09 139.098 115.428 139.098ZM115.428 138.16C116.128 138.16 116.664 137.931 117.038 137.474C117.411 137.007 117.598 136.331 117.598 135.444C117.598 134.585 117.406 133.923 117.024 133.456C116.641 132.98 116.109 132.742 115.428 132.742C114.737 132.742 114.2 132.98 113.818 133.456C113.435 133.923 113.244 134.585 113.244 135.444C113.244 136.331 113.43 137.007 113.804 137.474C114.186 137.931 114.728 138.16 115.428 138.16ZM126.422 131.958V139H125.316V137.782C125.092 138.211 124.779 138.538 124.378 138.762C123.976 138.986 123.524 139.098 123.02 139.098C122.189 139.098 121.559 138.865 121.13 138.398C120.7 137.931 120.486 137.241 120.486 136.326V131.958H121.62V136.298C121.62 136.933 121.75 137.399 122.012 137.698C122.273 137.997 122.67 138.146 123.202 138.146C123.827 138.146 124.331 137.945 124.714 137.544C125.096 137.133 125.288 136.597 125.288 135.934V131.958H126.422ZM135.212 139.098C134.531 139.098 133.933 138.949 133.42 138.65C132.916 138.351 132.524 137.931 132.244 137.39C131.973 136.839 131.838 136.2 131.838 135.472C131.838 134.744 131.978 134.105 132.258 133.554C132.538 132.994 132.935 132.56 133.448 132.252C133.971 131.944 134.577 131.79 135.268 131.79C135.744 131.79 136.201 131.874 136.64 132.042C137.088 132.201 137.457 132.425 137.746 132.714L137.368 133.554C137.013 133.274 136.668 133.069 136.332 132.938C136.005 132.807 135.669 132.742 135.324 132.742C134.605 132.742 134.041 132.985 133.63 133.47C133.219 133.946 133.014 134.613 133.014 135.472C133.014 136.321 133.215 136.984 133.616 137.46C134.027 137.927 134.596 138.16 135.324 138.16C135.669 138.16 136.005 138.095 136.332 137.964C136.668 137.833 137.013 137.628 137.368 137.348L137.746 138.188C137.447 138.468 137.069 138.692 136.612 138.86C136.164 139.019 135.697 139.098 135.212 139.098ZM145.392 131.958V139H144.272V137.726C144.066 138.165 143.754 138.505 143.334 138.748C142.923 138.981 142.442 139.098 141.892 139.098C141.266 139.098 140.716 138.949 140.24 138.65C139.773 138.351 139.409 137.931 139.148 137.39C138.896 136.839 138.77 136.2 138.77 135.472C138.77 134.744 138.9 134.105 139.162 133.554C139.423 132.994 139.787 132.56 140.254 132.252C140.73 131.944 141.276 131.79 141.892 131.79C142.442 131.79 142.923 131.911 143.334 132.154C143.744 132.397 144.057 132.737 144.272 133.176V131.958H145.392ZM142.116 138.16C142.806 138.16 143.338 137.927 143.712 137.46C144.085 136.984 144.272 136.312 144.272 135.444C144.272 134.576 144.085 133.909 143.712 133.442C143.338 132.975 142.806 132.742 142.116 132.742C141.425 132.742 140.884 132.985 140.492 133.47C140.109 133.946 139.918 134.613 139.918 135.472C139.918 136.331 140.109 136.993 140.492 137.46C140.874 137.927 141.416 138.16 142.116 138.16ZM151.098 131.79C152.788 131.79 153.632 132.719 153.632 134.576V139H152.498V134.632C152.498 133.979 152.368 133.503 152.106 133.204C151.845 132.896 151.434 132.742 150.874 132.742C150.221 132.742 149.698 132.943 149.306 133.344C148.914 133.745 148.718 134.287 148.718 134.968V139H147.584V133.932C147.584 133.204 147.547 132.546 147.472 131.958H148.55L148.662 133.218C148.877 132.761 149.199 132.411 149.628 132.168C150.058 131.916 150.548 131.79 151.098 131.79ZM165.318 135.444H160.152C160.161 136.34 160.367 137.017 160.768 137.474C161.179 137.931 161.771 138.16 162.546 138.16C163.367 138.16 164.123 137.885 164.814 137.334L165.192 138.16C164.884 138.449 164.487 138.678 164.002 138.846C163.526 139.014 163.036 139.098 162.532 139.098C161.431 139.098 160.567 138.776 159.942 138.132C159.317 137.479 159.004 136.587 159.004 135.458C159.004 134.739 159.144 134.105 159.424 133.554C159.704 132.994 160.096 132.56 160.6 132.252C161.104 131.944 161.678 131.79 162.322 131.79C163.255 131.79 163.988 132.098 164.52 132.714C165.052 133.321 165.318 134.161 165.318 135.234V135.444ZM162.336 132.672C161.748 132.672 161.267 132.849 160.894 133.204C160.53 133.559 160.297 134.058 160.194 134.702H164.296C164.24 134.039 164.044 133.535 163.708 133.19C163.381 132.845 162.924 132.672 162.336 132.672ZM173.241 131.958V139H172.121V137.726C171.916 138.165 171.603 138.505 171.183 138.748C170.773 138.981 170.292 139.098 169.741 139.098C169.116 139.098 168.565 138.949 168.089 138.65C167.623 138.351 167.259 137.931 166.997 137.39C166.745 136.839 166.619 136.2 166.619 135.472C166.619 134.744 166.75 134.105 167.011 133.554C167.273 132.994 167.637 132.56 168.103 132.252C168.579 131.944 169.125 131.79 169.741 131.79C170.292 131.79 170.773 131.911 171.183 132.154C171.594 132.397 171.907 132.737 172.121 133.176V131.958H173.241ZM169.965 138.16C170.656 138.16 171.188 137.927 171.561 137.46C171.935 136.984 172.121 136.312 172.121 135.444C172.121 134.576 171.935 133.909 171.561 133.442C171.188 132.975 170.656 132.742 169.965 132.742C169.275 132.742 168.733 132.985 168.341 133.47C167.959 133.946 167.767 134.613 167.767 135.472C167.767 136.331 167.959 136.993 168.341 137.46C168.724 137.927 169.265 138.16 169.965 138.16ZM177.814 139.098C176.628 139.098 175.69 138.795 175 138.188L175.378 137.348C175.76 137.647 176.148 137.861 176.54 137.992C176.932 138.123 177.37 138.188 177.856 138.188C178.388 138.188 178.789 138.099 179.06 137.922C179.34 137.735 179.48 137.469 179.48 137.124C179.48 136.844 179.386 136.62 179.2 136.452C179.013 136.284 178.705 136.153 178.276 136.06L177.086 135.78C176.498 135.649 176.04 135.416 175.714 135.08C175.396 134.744 175.238 134.343 175.238 133.876C175.238 133.26 175.485 132.761 175.98 132.378C176.474 131.986 177.128 131.79 177.94 131.79C178.434 131.79 178.901 131.869 179.34 132.028C179.778 132.187 180.147 132.415 180.446 132.714L180.068 133.54C179.405 132.989 178.696 132.714 177.94 132.714C177.436 132.714 177.044 132.812 176.764 133.008C176.493 133.195 176.358 133.461 176.358 133.806C176.358 134.095 176.442 134.324 176.61 134.492C176.787 134.66 177.067 134.791 177.45 134.884L178.64 135.178C179.293 135.327 179.778 135.561 180.096 135.878C180.413 136.186 180.572 136.592 180.572 137.096C180.572 137.703 180.324 138.188 179.83 138.552C179.335 138.916 178.663 139.098 177.814 139.098ZM182.379 131.958H183.513V139H182.379V131.958ZM183.653 128.976V130.264H182.267V128.976H183.653ZM185.715 128.696H186.849V139H185.715V128.696ZM195.239 131.958L191.949 139.644C191.604 140.447 191.17 141.035 190.647 141.408C190.124 141.781 189.48 142.038 188.715 142.178L188.477 141.296C189.14 141.147 189.639 140.946 189.975 140.694C190.32 140.451 190.605 140.073 190.829 139.56L191.109 138.93L188.127 131.958H189.317L191.697 137.768L194.105 131.958H195.239ZM206.033 131.958V139H204.927V137.782C204.703 138.211 204.39 138.538 203.989 138.762C203.588 138.986 203.135 139.098 202.631 139.098C201.8 139.098 201.17 138.865 200.741 138.398C200.312 137.931 200.097 137.241 200.097 136.326V131.958H201.231V136.298C201.231 136.933 201.362 137.399 201.623 137.698C201.884 137.997 202.281 138.146 202.813 138.146C203.438 138.146 203.942 137.945 204.325 137.544C204.708 137.133 204.899 136.597 204.899 135.934V131.958H206.033ZM211.733 131.79C212.349 131.79 212.895 131.944 213.371 132.252C213.847 132.56 214.216 132.994 214.477 133.554C214.738 134.105 214.869 134.744 214.869 135.472C214.869 136.2 214.738 136.839 214.477 137.39C214.216 137.931 213.847 138.351 213.371 138.65C212.904 138.949 212.358 139.098 211.733 139.098C211.182 139.098 210.702 138.977 210.291 138.734C209.88 138.491 209.568 138.146 209.353 137.698V142.024H208.219V133.932C208.219 133.204 208.182 132.546 208.107 131.958H209.185L209.297 133.316C209.493 132.831 209.801 132.457 210.221 132.196C210.65 131.925 211.154 131.79 211.733 131.79ZM211.523 138.16C212.214 138.16 212.746 137.927 213.119 137.46C213.502 136.993 213.693 136.331 213.693 135.472C213.693 134.613 213.502 133.946 213.119 133.47C212.736 132.985 212.204 132.742 211.523 132.742C210.823 132.742 210.286 132.975 209.913 133.442C209.54 133.909 209.353 134.576 209.353 135.444C209.353 136.312 209.54 136.984 209.913 137.46C210.286 137.927 210.823 138.16 211.523 138.16ZM222.815 128.696V139H221.695V137.726C221.49 138.165 221.177 138.505 220.757 138.748C220.347 138.981 219.866 139.098 219.315 139.098C218.699 139.098 218.153 138.944 217.677 138.636C217.211 138.328 216.847 137.899 216.585 137.348C216.324 136.788 216.193 136.144 216.193 135.416C216.193 134.688 216.319 134.053 216.571 133.512C216.833 132.961 217.201 132.537 217.677 132.238C218.153 131.939 218.699 131.79 219.315 131.79C219.866 131.79 220.347 131.911 220.757 132.154C221.168 132.387 221.476 132.719 221.681 133.148V128.696H222.815ZM219.539 138.16C220.23 138.16 220.762 137.927 221.135 137.46C221.509 136.984 221.695 136.312 221.695 135.444C221.695 134.585 221.509 133.923 221.135 133.456C220.762 132.98 220.23 132.742 219.539 132.742C218.849 132.742 218.307 132.975 217.915 133.442C217.533 133.909 217.341 134.567 217.341 135.416C217.341 136.284 217.533 136.961 217.915 137.446C218.307 137.922 218.849 138.16 219.539 138.16ZM231.21 131.958V139H230.09V137.726C229.885 138.165 229.572 138.505 229.152 138.748C228.741 138.981 228.261 139.098 227.71 139.098C227.085 139.098 226.534 138.949 226.058 138.65C225.591 138.351 225.227 137.931 224.966 137.39C224.714 136.839 224.588 136.2 224.588 135.472C224.588 134.744 224.719 134.105 224.98 133.554C225.241 132.994 225.605 132.56 226.072 132.252C226.548 131.944 227.094 131.79 227.71 131.79C228.261 131.79 228.741 131.911 229.152 132.154C229.563 132.397 229.875 132.737 230.09 133.176V131.958H231.21ZM227.934 138.16C228.625 138.16 229.157 137.927 229.53 137.46C229.903 136.984 230.09 136.312 230.09 135.444C230.09 134.576 229.903 133.909 229.53 133.442C229.157 132.975 228.625 132.742 227.934 132.742C227.243 132.742 226.702 132.985 226.31 133.47C225.927 133.946 225.736 134.613 225.736 135.472C225.736 136.331 225.927 136.993 226.31 137.46C226.693 137.927 227.234 138.16 227.934 138.16ZM234.915 132.854V136.704C234.915 137.227 235.022 137.595 235.237 137.81C235.451 138.015 235.755 138.118 236.147 138.118C236.408 138.118 236.66 138.076 236.903 137.992V138.958C236.613 139.051 236.287 139.098 235.923 139.098C235.251 139.098 234.723 138.911 234.341 138.538C233.967 138.155 233.781 137.595 233.781 136.858V132.854H232.409V131.958H233.781V130.152L234.915 129.746V131.958H236.931V132.854H234.915ZM244.191 135.444H239.025C239.034 136.34 239.24 137.017 239.641 137.474C240.052 137.931 240.644 138.16 241.419 138.16C242.24 138.16 242.996 137.885 243.687 137.334L244.065 138.16C243.757 138.449 243.36 138.678 242.875 138.846C242.399 139.014 241.909 139.098 241.405 139.098C240.304 139.098 239.44 138.776 238.815 138.132C238.19 137.479 237.877 136.587 237.877 135.458C237.877 134.739 238.017 134.105 238.297 133.554C238.577 132.994 238.969 132.56 239.473 132.252C239.977 131.944 240.551 131.79 241.195 131.79C242.128 131.79 242.861 132.098 243.393 132.714C243.925 133.321 244.191 134.161 244.191 135.234V135.444ZM241.209 132.672C240.621 132.672 240.14 132.849 239.767 133.204C239.403 133.559 239.17 134.058 239.067 134.702H243.169C243.113 134.039 242.917 133.535 242.581 133.19C242.254 132.845 241.797 132.672 241.209 132.672ZM251.075 132.854V136.704C251.075 137.227 251.182 137.595 251.397 137.81C251.611 138.015 251.915 138.118 252.307 138.118C252.568 138.118 252.82 138.076 253.063 137.992V138.958C252.773 139.051 252.447 139.098 252.083 139.098C251.411 139.098 250.883 138.911 250.501 138.538C250.127 138.155 249.941 137.595 249.941 136.858V132.854H248.569V131.958H249.941V130.152L251.075 129.746V131.958H253.091V132.854H251.075ZM257.971 131.79C259.661 131.79 260.505 132.719 260.505 134.576V139H259.371V134.632C259.371 133.979 259.241 133.503 258.979 133.204C258.718 132.896 258.307 132.742 257.747 132.742C257.094 132.742 256.571 132.943 256.179 133.344C255.787 133.745 255.591 134.287 255.591 134.968V139H254.457V128.696H255.591V133.106C255.815 132.677 256.133 132.35 256.543 132.126C256.963 131.902 257.439 131.79 257.971 131.79ZM268.541 135.444H263.375C263.384 136.34 263.589 137.017 263.991 137.474C264.401 137.931 264.994 138.16 265.769 138.16C266.59 138.16 267.346 137.885 268.037 137.334L268.415 138.16C268.107 138.449 267.71 138.678 267.225 138.846C266.749 139.014 266.259 139.098 265.755 139.098C264.653 139.098 263.79 138.776 263.165 138.132C262.539 137.479 262.227 136.587 262.227 135.458C262.227 134.739 262.367 134.105 262.647 133.554C262.927 132.994 263.319 132.56 263.823 132.252C264.327 131.944 264.901 131.79 265.545 131.79C266.478 131.79 267.211 132.098 267.743 132.714C268.275 133.321 268.541 134.161 268.541 135.234V135.444ZM265.559 132.672C264.971 132.672 264.49 132.849 264.117 133.204C263.753 133.559 263.519 134.058 263.417 134.702H267.519C267.463 134.039 267.267 133.535 266.931 133.19C266.604 132.845 266.147 132.672 265.559 132.672ZM282.312 129.032V139H281.164V134.422H275.186V139H274.052V129.032H275.186V133.456H281.164V129.032H282.312ZM290.889 138.034V139H285.331V138.034H287.529V130.46L285.485 131.762V130.656L288.033 129.032H288.691V138.034H290.889ZM302.878 131.958V139H301.758V137.726C301.553 138.165 301.24 138.505 300.82 138.748C300.409 138.981 299.929 139.098 299.378 139.098C298.753 139.098 298.202 138.949 297.726 138.65C297.259 138.351 296.895 137.931 296.634 137.39C296.382 136.839 296.256 136.2 296.256 135.472C296.256 134.744 296.387 134.105 296.648 133.554C296.909 132.994 297.273 132.56 297.74 132.252C298.216 131.944 298.762 131.79 299.378 131.79C299.929 131.79 300.409 131.911 300.82 132.154C301.231 132.397 301.543 132.737 301.758 133.176V131.958H302.878ZM299.602 138.16C300.293 138.16 300.825 137.927 301.198 137.46C301.571 136.984 301.758 136.312 301.758 135.444C301.758 134.576 301.571 133.909 301.198 133.442C300.825 132.975 300.293 132.742 299.602 132.742C298.911 132.742 298.37 132.985 297.978 133.47C297.595 133.946 297.404 134.613 297.404 135.472C297.404 136.331 297.595 136.993 297.978 137.46C298.361 137.927 298.902 138.16 299.602 138.16ZM308.585 131.79C310.274 131.79 311.119 132.719 311.119 134.576V139H309.985V134.632C309.985 133.979 309.854 133.503 309.593 133.204C309.331 132.896 308.921 132.742 308.361 132.742C307.707 132.742 307.185 132.943 306.793 133.344C306.401 133.745 306.205 134.287 306.205 134.968V139H305.071V133.932C305.071 133.204 305.033 132.546 304.959 131.958H306.037L306.149 133.218C306.363 132.761 306.685 132.411 307.115 132.168C307.544 131.916 308.034 131.79 308.585 131.79ZM319.462 128.696V139H318.342V137.726C318.137 138.165 317.824 138.505 317.404 138.748C316.993 138.981 316.513 139.098 315.962 139.098C315.346 139.098 314.8 138.944 314.324 138.636C313.857 138.328 313.493 137.899 313.232 137.348C312.971 136.788 312.84 136.144 312.84 135.416C312.84 134.688 312.966 134.053 313.218 133.512C313.479 132.961 313.848 132.537 314.324 132.238C314.8 131.939 315.346 131.79 315.962 131.79C316.513 131.79 316.993 131.911 317.404 132.154C317.815 132.387 318.123 132.719 318.328 133.148V128.696H319.462ZM316.186 138.16C316.877 138.16 317.409 137.927 317.782 137.46C318.155 136.984 318.342 136.312 318.342 135.444C318.342 134.585 318.155 133.923 317.782 133.456C317.409 132.98 316.877 132.742 316.186 132.742C315.495 132.742 314.954 132.975 314.562 133.442C314.179 133.909 313.988 134.567 313.988 135.416C313.988 136.284 314.179 136.961 314.562 137.446C314.954 137.922 315.495 138.16 316.186 138.16ZM112.904 149.79C114.463 149.79 115.242 150.719 115.242 152.576V157H114.108V152.632C114.108 151.969 113.991 151.489 113.758 151.19C113.534 150.891 113.165 150.742 112.652 150.742C112.055 150.742 111.588 150.943 111.252 151.344C110.916 151.745 110.748 152.291 110.748 152.982V157H109.614V152.632C109.614 151.979 109.497 151.503 109.264 151.204C109.031 150.896 108.657 150.742 108.144 150.742C107.547 150.742 107.075 150.943 106.73 151.344C106.394 151.745 106.226 152.291 106.226 152.982V157H105.092V151.932C105.092 151.204 105.055 150.546 104.98 149.958H106.058L106.17 151.19C106.366 150.742 106.655 150.397 107.038 150.154C107.43 149.911 107.883 149.79 108.396 149.79C108.956 149.79 109.413 149.902 109.768 150.126C110.123 150.35 110.384 150.695 110.552 151.162C110.767 150.742 111.079 150.411 111.49 150.168C111.91 149.916 112.381 149.79 112.904 149.79ZM123.291 153.444H118.125C118.134 154.34 118.339 155.017 118.741 155.474C119.151 155.931 119.744 156.16 120.519 156.16C121.34 156.16 122.096 155.885 122.787 155.334L123.165 156.16C122.857 156.449 122.46 156.678 121.975 156.846C121.499 157.014 121.009 157.098 120.505 157.098C119.403 157.098 118.54 156.776 117.915 156.132C117.289 155.479 116.977 154.587 116.977 153.458C116.977 152.739 117.117 152.105 117.397 151.554C117.677 150.994 118.069 150.56 118.573 150.252C119.077 149.944 119.651 149.79 120.295 149.79C121.228 149.79 121.961 150.098 122.493 150.714C123.025 151.321 123.291 152.161 123.291 153.234V153.444ZM120.309 150.672C119.721 150.672 119.24 150.849 118.867 151.204C118.503 151.559 118.269 152.058 118.167 152.702H122.269C122.213 152.039 122.017 151.535 121.681 151.19C121.354 150.845 120.897 150.672 120.309 150.672ZM126.483 150.854V154.704C126.483 155.227 126.59 155.595 126.805 155.81C127.02 156.015 127.323 156.118 127.715 156.118C127.976 156.118 128.228 156.076 128.471 155.992V156.958C128.182 157.051 127.855 157.098 127.491 157.098C126.819 157.098 126.292 156.911 125.909 156.538C125.536 156.155 125.349 155.595 125.349 154.858V150.854H123.977V149.958H125.349V148.152L126.483 147.746V149.958H128.499V150.854H126.483ZM136.067 149.958V157H134.947V155.726C134.742 156.165 134.429 156.505 134.009 156.748C133.599 156.981 133.118 157.098 132.567 157.098C131.942 157.098 131.391 156.949 130.915 156.65C130.449 156.351 130.085 155.931 129.823 155.39C129.571 154.839 129.445 154.2 129.445 153.472C129.445 152.744 129.576 152.105 129.837 151.554C130.099 150.994 130.463 150.56 130.929 150.252C131.405 149.944 131.951 149.79 132.567 149.79C133.118 149.79 133.599 149.911 134.009 150.154C134.42 150.397 134.733 150.737 134.947 151.176V149.958H136.067ZM132.791 156.16C133.482 156.16 134.014 155.927 134.387 155.46C134.761 154.984 134.947 154.312 134.947 153.444C134.947 152.576 134.761 151.909 134.387 151.442C134.014 150.975 133.482 150.742 132.791 150.742C132.101 150.742 131.559 150.985 131.167 151.47C130.785 151.946 130.593 152.613 130.593 153.472C130.593 154.331 130.785 154.993 131.167 155.46C131.55 155.927 132.091 156.16 132.791 156.16ZM144.462 146.696V157H143.342V155.726C143.137 156.165 142.824 156.505 142.404 156.748C141.993 156.981 141.513 157.098 140.962 157.098C140.346 157.098 139.8 156.944 139.324 156.636C138.857 156.328 138.493 155.899 138.232 155.348C137.971 154.788 137.84 154.144 137.84 153.416C137.84 152.688 137.966 152.053 138.218 151.512C138.479 150.961 138.848 150.537 139.324 150.238C139.8 149.939 140.346 149.79 140.962 149.79C141.513 149.79 141.993 149.911 142.404 150.154C142.815 150.387 143.123 150.719 143.328 151.148V146.696H144.462ZM141.186 156.16C141.877 156.16 142.409 155.927 142.782 155.46C143.155 154.984 143.342 154.312 143.342 153.444C143.342 152.585 143.155 151.923 142.782 151.456C142.409 150.98 141.877 150.742 141.186 150.742C140.495 150.742 139.954 150.975 139.562 151.442C139.179 151.909 138.988 152.567 138.988 153.416C138.988 154.284 139.179 154.961 139.562 155.446C139.954 155.922 140.495 156.16 141.186 156.16ZM152.549 153.444H147.383C147.392 154.34 147.597 155.017 147.999 155.474C148.409 155.931 149.002 156.16 149.777 156.16C150.598 156.16 151.354 155.885 152.045 155.334L152.423 156.16C152.115 156.449 151.718 156.678 151.233 156.846C150.757 157.014 150.267 157.098 149.763 157.098C148.661 157.098 147.798 156.776 147.173 156.132C146.547 155.479 146.235 154.587 146.235 153.458C146.235 152.739 146.375 152.105 146.655 151.554C146.935 150.994 147.327 150.56 147.831 150.252C148.335 149.944 148.909 149.79 149.553 149.79C150.486 149.79 151.219 150.098 151.751 150.714C152.283 151.321 152.549 152.161 152.549 153.234V153.444ZM149.567 150.672C148.979 150.672 148.498 150.849 148.125 151.204C147.761 151.559 147.527 152.058 147.425 152.702H151.527C151.471 152.039 151.275 151.535 150.939 151.19C150.612 150.845 150.155 150.672 149.567 150.672ZM156.65 157.098C155.464 157.098 154.526 156.795 153.836 156.188L154.214 155.348C154.596 155.647 154.984 155.861 155.376 155.992C155.768 156.123 156.206 156.188 156.692 156.188C157.224 156.188 157.625 156.099 157.896 155.922C158.176 155.735 158.316 155.469 158.316 155.124C158.316 154.844 158.222 154.62 158.036 154.452C157.849 154.284 157.541 154.153 157.112 154.06L155.922 153.78C155.334 153.649 154.876 153.416 154.55 153.08C154.232 152.744 154.074 152.343 154.074 151.876C154.074 151.26 154.321 150.761 154.816 150.378C155.31 149.986 155.964 149.79 156.776 149.79C157.27 149.79 157.737 149.869 158.176 150.028C158.614 150.187 158.983 150.415 159.282 150.714L158.904 151.54C158.241 150.989 157.532 150.714 156.776 150.714C156.272 150.714 155.88 150.812 155.6 151.008C155.329 151.195 155.194 151.461 155.194 151.806C155.194 152.095 155.278 152.324 155.446 152.492C155.623 152.66 155.903 152.791 156.286 152.884L157.476 153.178C158.129 153.327 158.614 153.561 158.932 153.878C159.249 154.186 159.408 154.592 159.408 155.096C159.408 155.703 159.16 156.188 158.666 156.552C158.171 156.916 157.499 157.098 156.65 157.098ZM164.169 157.098C163.488 157.098 162.89 156.949 162.377 156.65C161.873 156.351 161.481 155.931 161.201 155.39C160.93 154.839 160.795 154.2 160.795 153.472C160.795 152.744 160.935 152.105 161.215 151.554C161.495 150.994 161.892 150.56 162.405 150.252C162.928 149.944 163.534 149.79 164.225 149.79C164.701 149.79 165.158 149.874 165.597 150.042C166.045 150.201 166.414 150.425 166.703 150.714L166.325 151.554C165.97 151.274 165.625 151.069 165.289 150.938C164.962 150.807 164.626 150.742 164.281 150.742C163.562 150.742 162.998 150.985 162.587 151.47C162.176 151.946 161.971 152.613 161.971 153.472C161.971 154.321 162.172 154.984 162.573 155.46C162.984 155.927 163.553 156.16 164.281 156.16C164.626 156.16 164.962 156.095 165.289 155.964C165.625 155.833 165.97 155.628 166.325 155.348L166.703 156.188C166.404 156.468 166.026 156.692 165.569 156.86C165.121 157.019 164.654 157.098 164.169 157.098ZM171.423 149.79C171.656 149.79 171.871 149.818 172.067 149.874L172.039 150.91C171.824 150.835 171.577 150.798 171.297 150.798C170.615 150.798 170.107 151.013 169.771 151.442C169.444 151.862 169.281 152.375 169.281 152.982V157H168.147V151.932C168.147 151.204 168.109 150.546 168.035 149.958H169.113L169.225 151.26C169.402 150.784 169.687 150.42 170.079 150.168C170.471 149.916 170.919 149.79 171.423 149.79ZM173.219 149.958H174.353V157H173.219V149.958ZM174.493 146.976V148.264H173.107V146.976H174.493ZM180.069 149.79C180.685 149.79 181.231 149.944 181.707 150.252C182.183 150.56 182.552 150.994 182.813 151.554C183.074 152.105 183.205 152.744 183.205 153.472C183.205 154.2 183.074 154.839 182.813 155.39C182.552 155.931 182.183 156.351 181.707 156.65C181.24 156.949 180.694 157.098 180.069 157.098C179.518 157.098 179.038 156.977 178.627 156.734C178.216 156.491 177.904 156.146 177.689 155.698V160.024H176.555V151.932C176.555 151.204 176.518 150.546 176.443 149.958H177.521L177.633 151.316C177.829 150.831 178.137 150.457 178.557 150.196C178.986 149.925 179.49 149.79 180.069 149.79ZM179.859 156.16C180.55 156.16 181.082 155.927 181.455 155.46C181.838 154.993 182.029 154.331 182.029 153.472C182.029 152.613 181.838 151.946 181.455 151.47C181.072 150.985 180.54 150.742 179.859 150.742C179.159 150.742 178.622 150.975 178.249 151.442C177.876 151.909 177.689 152.576 177.689 153.444C177.689 154.312 177.876 154.984 178.249 155.46C178.622 155.927 179.159 156.16 179.859 156.16ZM186.448 150.854V154.704C186.448 155.227 186.555 155.595 186.77 155.81C186.984 156.015 187.288 156.118 187.68 156.118C187.941 156.118 188.193 156.076 188.436 155.992V156.958C188.146 157.051 187.82 157.098 187.456 157.098C186.784 157.098 186.256 156.911 185.874 156.538C185.5 156.155 185.314 155.595 185.314 154.858V150.854H183.942V149.958H185.314V148.152L186.448 147.746V149.958H188.464V150.854H186.448ZM189.83 149.958H190.964V157H189.83V149.958ZM191.104 146.976V148.264H189.718V146.976H191.104ZM196.078 157.098C195.416 157.098 194.832 156.949 194.328 156.65C193.824 156.351 193.432 155.927 193.152 155.376C192.882 154.825 192.746 154.181 192.746 153.444C192.746 152.707 192.882 152.063 193.152 151.512C193.432 150.961 193.824 150.537 194.328 150.238C194.832 149.939 195.416 149.79 196.078 149.79C196.741 149.79 197.324 149.939 197.828 150.238C198.332 150.537 198.72 150.961 198.99 151.512C199.27 152.063 199.41 152.707 199.41 153.444C199.41 154.181 199.27 154.825 198.99 155.376C198.72 155.927 198.332 156.351 197.828 156.65C197.324 156.949 196.741 157.098 196.078 157.098ZM196.078 156.16C196.778 156.16 197.315 155.931 197.688 155.474C198.062 155.007 198.248 154.331 198.248 153.444C198.248 152.585 198.057 151.923 197.674 151.456C197.292 150.98 196.76 150.742 196.078 150.742C195.388 150.742 194.851 150.98 194.468 151.456C194.086 151.923 193.894 152.585 193.894 153.444C193.894 154.331 194.081 155.007 194.454 155.474C194.837 155.931 195.378 156.16 196.078 156.16ZM204.692 149.79C206.381 149.79 207.226 150.719 207.226 152.576V157H206.092V152.632C206.092 151.979 205.961 151.503 205.7 151.204C205.439 150.896 205.028 150.742 204.468 150.742C203.815 150.742 203.292 150.943 202.9 151.344C202.508 151.745 202.312 152.287 202.312 152.968V157H201.178V151.932C201.178 151.204 201.141 150.546 201.066 149.958H202.144L202.256 151.218C202.471 150.761 202.793 150.411 203.222 150.168C203.651 149.916 204.141 149.79 204.692 149.79ZM215.72 147.62C215.346 147.62 215.052 147.727 214.838 147.942C214.632 148.147 214.53 148.507 214.53 149.02V149.958H216.252V150.854H214.53V157H213.396V150.854H212.024V149.958H213.396V148.88C213.396 148.143 213.578 147.587 213.942 147.214C214.315 146.831 214.833 146.64 215.496 146.64C215.822 146.64 216.14 146.682 216.448 146.766V147.732C216.186 147.657 215.944 147.62 215.72 147.62ZM220.578 157.098C219.916 157.098 219.332 156.949 218.828 156.65C218.324 156.351 217.932 155.927 217.652 155.376C217.382 154.825 217.246 154.181 217.246 153.444C217.246 152.707 217.382 152.063 217.652 151.512C217.932 150.961 218.324 150.537 218.828 150.238C219.332 149.939 219.916 149.79 220.578 149.79C221.241 149.79 221.824 149.939 222.328 150.238C222.832 150.537 223.22 150.961 223.49 151.512C223.77 152.063 223.91 152.707 223.91 153.444C223.91 154.181 223.77 154.825 223.49 155.376C223.22 155.927 222.832 156.351 222.328 156.65C221.824 156.949 221.241 157.098 220.578 157.098ZM220.578 156.16C221.278 156.16 221.815 155.931 222.188 155.474C222.562 155.007 222.748 154.331 222.748 153.444C222.748 152.585 222.557 151.923 222.174 151.456C221.792 150.98 221.26 150.742 220.578 150.742C219.888 150.742 219.351 150.98 218.968 151.456C218.586 151.923 218.394 152.585 218.394 153.444C218.394 154.331 218.581 155.007 218.954 155.474C219.337 155.931 219.878 156.16 220.578 156.16ZM228.954 149.79C229.187 149.79 229.402 149.818 229.598 149.874L229.57 150.91C229.355 150.835 229.108 150.798 228.828 150.798C228.147 150.798 227.638 151.013 227.302 151.442C226.975 151.862 226.812 152.375 226.812 152.982V157H225.678V151.932C225.678 151.204 225.641 150.546 225.566 149.958H226.644L226.756 151.26C226.933 150.784 227.218 150.42 227.61 150.168C228.002 149.916 228.45 149.79 228.954 149.79ZM240.295 153.444H235.129C235.138 154.34 235.343 155.017 235.745 155.474C236.155 155.931 236.748 156.16 237.523 156.16C238.344 156.16 239.1 155.885 239.791 155.334L240.169 156.16C239.861 156.449 239.464 156.678 238.979 156.846C238.503 157.014 238.013 157.098 237.509 157.098C236.407 157.098 235.544 156.776 234.919 156.132C234.293 155.479 233.981 154.587 233.981 153.458C233.981 152.739 234.121 152.105 234.401 151.554C234.681 150.994 235.073 150.56 235.577 150.252C236.081 149.944 236.655 149.79 237.299 149.79C238.232 149.79 238.965 150.098 239.497 150.714C240.029 151.321 240.295 152.161 240.295 153.234V153.444ZM237.313 150.672C236.725 150.672 236.244 150.849 235.871 151.204C235.507 151.559 235.273 152.058 235.171 152.702H239.273C239.217 152.039 239.021 151.535 238.685 151.19C238.358 150.845 237.901 150.672 237.313 150.672ZM248.218 149.958V157H247.098V155.726C246.892 156.165 246.58 156.505 246.16 156.748C245.749 156.981 245.268 157.098 244.718 157.098C244.092 157.098 243.542 156.949 243.066 156.65C242.599 156.351 242.235 155.931 241.974 155.39C241.722 154.839 241.596 154.2 241.596 153.472C241.596 152.744 241.726 152.105 241.988 151.554C242.249 150.994 242.613 150.56 243.08 150.252C243.556 149.944 244.102 149.79 244.718 149.79C245.268 149.79 245.749 149.911 246.16 150.154C246.57 150.397 246.883 150.737 247.098 151.176V149.958H248.218ZM244.942 156.16C245.632 156.16 246.164 155.927 246.538 155.46C246.911 154.984 247.098 154.312 247.098 153.444C247.098 152.576 246.911 151.909 246.538 151.442C246.164 150.975 245.632 150.742 244.942 150.742C244.251 150.742 243.71 150.985 243.318 151.47C242.935 151.946 242.744 152.613 242.744 153.472C242.744 154.331 242.935 154.993 243.318 155.46C243.7 155.927 244.242 156.16 244.942 156.16ZM253.364 157.098C252.683 157.098 252.086 156.949 251.572 156.65C251.068 156.351 250.676 155.931 250.396 155.39C250.126 154.839 249.99 154.2 249.99 153.472C249.99 152.744 250.13 152.105 250.41 151.554C250.69 150.994 251.087 150.56 251.6 150.252C252.123 149.944 252.73 149.79 253.42 149.79C253.896 149.79 254.354 149.874 254.792 150.042C255.24 150.201 255.609 150.425 255.898 150.714L255.52 151.554C255.166 151.274 254.82 151.069 254.484 150.938C254.158 150.807 253.822 150.742 253.476 150.742C252.758 150.742 252.193 150.985 251.782 151.47C251.372 151.946 251.166 152.613 251.166 153.472C251.166 154.321 251.367 154.984 251.768 155.46C252.179 155.927 252.748 156.16 253.476 156.16C253.822 156.16 254.158 156.095 254.484 155.964C254.82 155.833 255.166 155.628 255.52 155.348L255.898 156.188C255.6 156.468 255.222 156.692 254.764 156.86C254.316 157.019 253.85 157.098 253.364 157.098ZM260.856 149.79C262.545 149.79 263.39 150.719 263.39 152.576V157H262.256V152.632C262.256 151.979 262.125 151.503 261.864 151.204C261.603 150.896 261.192 150.742 260.632 150.742C259.979 150.742 259.456 150.943 259.064 151.344C258.672 151.745 258.476 152.287 258.476 152.968V157H257.342V146.696H258.476V151.106C258.7 150.677 259.017 150.35 259.428 150.126C259.848 149.902 260.324 149.79 260.856 149.79ZM272.696 149.79C273.312 149.79 273.858 149.944 274.334 150.252C274.81 150.56 275.179 150.994 275.44 151.554C275.701 152.105 275.832 152.744 275.832 153.472C275.832 154.2 275.701 154.839 275.44 155.39C275.179 155.931 274.81 156.351 274.334 156.65C273.867 156.949 273.321 157.098 272.696 157.098C272.145 157.098 271.665 156.977 271.254 156.734C270.843 156.491 270.531 156.146 270.316 155.698V160.024H269.182V151.932C269.182 151.204 269.145 150.546 269.07 149.958H270.148L270.26 151.316C270.456 150.831 270.764 150.457 271.184 150.196C271.613 149.925 272.117 149.79 272.696 149.79ZM272.486 156.16C273.177 156.16 273.709 155.927 274.082 155.46C274.465 154.993 274.656 154.331 274.656 153.472C274.656 152.613 274.465 151.946 274.082 151.47C273.699 150.985 273.167 150.742 272.486 150.742C271.786 150.742 271.249 150.975 270.876 151.442C270.503 151.909 270.316 152.576 270.316 153.444C270.316 154.312 270.503 154.984 270.876 155.46C271.249 155.927 271.786 156.16 272.486 156.16ZM283.778 149.958V157H282.658V155.726C282.453 156.165 282.14 156.505 281.72 156.748C281.31 156.981 280.829 157.098 280.278 157.098C279.653 157.098 279.102 156.949 278.626 156.65C278.16 156.351 277.796 155.931 277.534 155.39C277.282 154.839 277.156 154.2 277.156 153.472C277.156 152.744 277.287 152.105 277.548 151.554C277.81 150.994 278.174 150.56 278.64 150.252C279.116 149.944 279.662 149.79 280.278 149.79C280.829 149.79 281.31 149.911 281.72 150.154C282.131 150.397 282.444 150.737 282.658 151.176V149.958H283.778ZM280.502 156.16C281.193 156.16 281.725 155.927 282.098 155.46C282.472 154.984 282.658 154.312 282.658 153.444C282.658 152.576 282.472 151.909 282.098 151.442C281.725 150.975 281.193 150.742 280.502 150.742C279.812 150.742 279.27 150.985 278.878 151.47C278.496 151.946 278.304 152.613 278.304 153.472C278.304 154.331 278.496 154.993 278.878 155.46C279.261 155.927 279.802 156.16 280.502 156.16ZM292.243 149.958V156.944C292.243 157.989 291.972 158.778 291.431 159.31C290.899 159.851 290.11 160.122 289.065 160.122C287.992 160.122 287.068 159.879 286.293 159.394L286.489 158.47C286.937 158.722 287.357 158.904 287.749 159.016C288.15 159.128 288.589 159.184 289.065 159.184C289.746 159.184 290.26 159.002 290.605 158.638C290.95 158.283 291.123 157.751 291.123 157.042V155.376C290.908 155.824 290.591 156.174 290.171 156.426C289.76 156.669 289.27 156.79 288.701 156.79C288.085 156.79 287.534 156.645 287.049 156.356C286.573 156.067 286.204 155.656 285.943 155.124C285.682 154.592 285.551 153.981 285.551 153.29C285.551 152.599 285.682 151.988 285.943 151.456C286.204 150.924 286.573 150.513 287.049 150.224C287.534 149.935 288.085 149.79 288.701 149.79C289.261 149.79 289.746 149.911 290.157 150.154C290.577 150.397 290.894 150.737 291.109 151.176V149.958H292.243ZM288.925 155.838C289.606 155.838 290.138 155.614 290.521 155.166C290.913 154.709 291.109 154.083 291.109 153.29C291.109 152.497 290.913 151.876 290.521 151.428C290.138 150.971 289.606 150.742 288.925 150.742C288.234 150.742 287.688 150.971 287.287 151.428C286.895 151.876 286.699 152.497 286.699 153.29C286.699 154.083 286.895 154.709 287.287 155.166C287.688 155.614 288.234 155.838 288.925 155.838ZM300.314 153.444H295.148C295.157 154.34 295.363 155.017 295.764 155.474C296.175 155.931 296.767 156.16 297.542 156.16C298.363 156.16 299.119 155.885 299.81 155.334L300.188 156.16C299.88 156.449 299.483 156.678 298.998 156.846C298.522 157.014 298.032 157.098 297.528 157.098C296.427 157.098 295.563 156.776 294.938 156.132C294.313 155.479 294 154.587 294 153.458C294 152.739 294.14 152.105 294.42 151.554C294.7 150.994 295.092 150.56 295.596 150.252C296.1 149.944 296.674 149.79 297.318 149.79C298.251 149.79 298.984 150.098 299.516 150.714C300.048 151.321 300.314 152.161 300.314 153.234V153.444ZM297.332 150.672C296.744 150.672 296.263 150.849 295.89 151.204C295.526 151.559 295.293 152.058 295.19 152.702H299.292C299.236 152.039 299.04 151.535 298.704 151.19C298.377 150.845 297.92 150.672 297.332 150.672Z" fill="#5B5151"/>
<circle cx="81" cy="140" r="15" fill="white"/>
<mask id="mask1" mask-type="alpha" maskUnits="userSpaceOnUse" x="66" y="125" width="30" height="30">
<circle cx="81" cy="140" r="15" fill="#F4F4EA"/>
</mask>
<g mask="url(#mask1)">
<path fill-rule="evenodd" clip-rule="evenodd" d="M86.9322 132.298C85.524 136.565 84.165 140.437 82.785 144.704C82.7024 145.067 82.5194 145.399 82.2569 145.662C81.8951 145.926 81.4494 146.048 81.0035 146.007H79.3418L80.2853 148.274H82.8976C83.252 148.296 83.6053 148.216 83.9158 148.044C84.2264 147.872 84.4814 147.614 84.6509 147.302C84.7643 147.09 84.8609 146.868 84.9396 146.641L89.798 132.298H86.9322Z" fill="#635452"/>
<path fill-rule="evenodd" clip-rule="evenodd" d="M77.376 140.043H79.087C79.2676 140.052 79.4378 140.13 79.5623 140.261C79.6868 140.392 79.7562 140.566 79.7559 140.747V140.902C79.7562 141.083 79.6868 141.257 79.5623 141.388C79.4378 141.519 79.2676 141.597 79.087 141.606H77.376C77.1893 141.606 77.0102 141.532 76.8781 141.4C76.7461 141.268 76.6719 141.089 76.6719 140.902V140.747C76.6719 140.56 76.7461 140.381 76.8781 140.249C77.0102 140.117 77.1893 140.043 77.376 140.043Z" fill="#F0AD00"/>
<path fill-rule="evenodd" clip-rule="evenodd" d="M80.8545 140.043H82.643C82.8297 140.043 83.0088 140.117 83.1409 140.249C83.2729 140.381 83.3471 140.56 83.3471 140.747V140.902C83.3471 141.089 83.2729 141.268 83.1409 141.4C83.0088 141.532 82.8297 141.606 82.643 141.606H80.8545C80.6678 141.606 80.4887 141.532 80.3566 141.4C80.2246 141.268 80.1504 141.089 80.1504 140.902V140.747C80.1504 140.56 80.2246 140.381 80.3566 140.249C80.4887 140.117 80.6678 140.043 80.8545 140.043Z" fill="#E1760C"/>
<path fill-rule="evenodd" clip-rule="evenodd" d="M76.7354 138.114H78.5872C78.768 138.113 78.942 138.183 79.0731 138.307C79.2041 138.432 79.2823 138.602 79.2913 138.782V138.944C79.2913 139.131 79.2172 139.31 79.0851 139.442C78.9531 139.574 78.774 139.649 78.5872 139.649H76.7354C76.5486 139.649 76.3695 139.574 76.2375 139.442C76.1054 139.31 76.0312 139.131 76.0312 138.944V138.782C76.0403 138.602 76.1184 138.432 76.2495 138.307C76.3806 138.183 76.5546 138.113 76.7354 138.114Z" fill="#E1760C"/>
<path fill-rule="evenodd" clip-rule="evenodd" d="M80.3682 138.114H83.3114C83.4861 138.122 83.6513 138.195 83.7749 138.319C83.8986 138.443 83.9718 138.608 83.9803 138.782V138.944C83.9806 139.125 83.9112 139.299 83.7867 139.43C83.6622 139.561 83.492 139.639 83.3114 139.649H80.3682C80.1814 139.649 80.0023 139.574 79.8703 139.442C79.7382 139.31 79.6641 139.131 79.6641 138.944V138.782C79.6731 138.602 79.7513 138.432 79.8823 138.307C80.0134 138.183 80.1874 138.113 80.3682 138.114Z" fill="#F0AD00"/>
<path fill-rule="evenodd" clip-rule="evenodd" d="M80.1026 141.986H82.0107C82.1913 141.995 82.3615 142.074 82.486 142.205C82.6105 142.336 82.6799 142.51 82.6797 142.69V142.859C82.6799 143.04 82.6105 143.214 82.486 143.345C82.3615 143.476 82.1913 143.555 82.0107 143.564H80.1026C79.9158 143.564 79.7367 143.489 79.6047 143.357C79.4726 143.225 79.3984 143.046 79.3984 142.859V142.697C79.3984 142.511 79.4726 142.332 79.6047 142.2C79.7367 142.068 79.9158 141.993 80.1026 141.993V141.986Z" fill="#D65359"/>
<path fill-rule="evenodd" clip-rule="evenodd" d="M79.0166 143.923H81.3684C81.5551 143.923 81.7342 143.997 81.8663 144.129C81.9983 144.261 82.0725 144.44 82.0725 144.627V144.789C82.0725 144.976 81.9983 145.155 81.8663 145.287C81.7342 145.419 81.5551 145.493 81.3684 145.493H79.0166C78.8299 145.493 78.6508 145.419 78.5187 145.287C78.3867 145.155 78.3125 144.976 78.3125 144.789V144.627C78.3125 144.44 78.3867 144.261 78.5187 144.129C78.6508 143.997 78.8299 143.923 79.0166 143.923Z" fill="#F0AD00"/>
<path fill-rule="evenodd" clip-rule="evenodd" d="M78.0811 136.17H80.3836C80.5703 136.17 80.7494 136.244 80.8814 136.376C81.0135 136.508 81.0877 136.688 81.0877 136.874V137.036C81.0877 137.223 81.0135 137.402 80.8814 137.534C80.7494 137.666 80.5703 137.74 80.3836 137.74H78.0811C77.8943 137.74 77.7152 137.666 77.5832 137.534C77.4511 137.402 77.377 137.223 77.377 137.036V136.874C77.377 136.688 77.4511 136.508 77.5832 136.376C77.7152 136.244 77.8943 136.17 78.0811 136.17Z" fill="#F0AD00"/>
<path fill-rule="evenodd" clip-rule="evenodd" d="M82.1358 136.17H83.9665C84.1532 136.17 84.3323 136.244 84.4644 136.376C84.5964 136.508 84.6706 136.688 84.6706 136.874V137.036C84.6706 137.223 84.5964 137.402 84.4644 137.534C84.3323 137.666 84.1532 137.74 83.9665 137.74H82.1358C81.949 137.74 81.7699 137.666 81.6379 137.534C81.5058 137.402 81.4316 137.223 81.4316 137.036V136.874C81.4316 136.688 81.5058 136.508 81.6379 136.376C81.7699 136.244 81.949 136.17 82.1358 136.17Z" fill="#E1760C"/>
<path fill-rule="evenodd" clip-rule="evenodd" d="M76.2429 136.17C76.3933 136.17 76.5403 136.215 76.6654 136.298C76.7904 136.382 76.8879 136.501 76.9455 136.64C77.003 136.779 77.0181 136.931 76.9888 137.079C76.9594 137.227 76.887 137.362 76.7806 137.468C76.6743 137.575 76.5388 137.647 76.3913 137.676C76.2437 137.706 76.0909 137.691 75.9519 137.633C75.8129 137.576 75.6942 137.478 75.6106 137.353C75.5271 137.228 75.4825 137.081 75.4825 136.931C75.4815 136.831 75.5005 136.731 75.5384 136.639C75.5763 136.546 75.6323 136.462 75.7031 136.391C75.7739 136.32 75.8581 136.264 75.9508 136.226C76.0435 136.188 76.1428 136.169 76.2429 136.17Z" fill="#D65359"/>
<path fill-rule="evenodd" clip-rule="evenodd" d="M74.8975 134.234H79.4884C79.6751 134.234 79.8542 134.308 79.9863 134.44C80.1183 134.572 80.1925 134.751 80.1925 134.938V135.1C80.1925 135.287 80.1183 135.466 79.9863 135.598C79.8542 135.73 79.6751 135.804 79.4884 135.804H74.8975C74.7107 135.804 74.5316 135.73 74.3996 135.598C74.2675 135.466 74.1934 135.287 74.1934 135.1V134.938C74.1934 134.751 74.2675 134.572 74.3996 134.44C74.5316 134.308 74.7107 134.234 74.8975 134.234Z" fill="#D65359"/>
<path fill-rule="evenodd" clip-rule="evenodd" d="M81.2139 134.234H84.6218C84.8086 134.234 84.9877 134.308 85.1197 134.44C85.2518 134.572 85.326 134.751 85.326 134.938V135.1C85.326 135.287 85.2518 135.466 85.1197 135.598C84.9877 135.73 84.8086 135.804 84.6218 135.804H81.2139C81.0271 135.804 80.848 135.73 80.716 135.598C80.5839 135.466 80.5098 135.287 80.5098 135.1V134.938C80.5098 134.751 80.5839 134.572 80.716 134.44C80.848 134.308 81.0271 134.234 81.2139 134.234Z" fill="#F0AD00"/>
<path fill-rule="evenodd" clip-rule="evenodd" d="M73.6162 132.297H77.1791C77.3658 132.297 77.5449 132.372 77.677 132.504C77.809 132.636 77.8832 132.815 77.8832 133.001V133.156C77.8832 133.343 77.809 133.522 77.677 133.654C77.5449 133.786 77.3658 133.861 77.1791 133.861H73.6162C73.4295 133.861 73.2504 133.786 73.1183 133.654C72.9863 133.522 72.9121 133.343 72.9121 133.156V133.001C72.9121 132.815 72.9863 132.636 73.1183 132.504C73.2504 132.372 73.4295 132.297 73.6162 132.297Z" fill="#E1760C"/>
<path fill-rule="evenodd" clip-rule="evenodd" d="M80.8975 132.297H85.256C85.4428 132.297 85.6218 132.372 85.7539 132.504C85.8859 132.636 85.9601 132.815 85.9601 133.001V133.156C85.9601 133.343 85.8859 133.522 85.7539 133.654C85.6218 133.786 85.4428 133.861 85.256 133.861H80.8975C80.7107 133.861 80.5316 133.786 80.3996 133.654C80.2675 133.522 80.1934 133.343 80.1934 133.156V133.001C80.1934 132.815 80.2675 132.636 80.3996 132.504C80.5316 132.372 80.7107 132.297 80.8975 132.297Z" fill="#D65359"/>
<path fill-rule="evenodd" clip-rule="evenodd" d="M79.0386 132.297C79.1876 132.297 79.3332 132.342 79.4571 132.424C79.581 132.507 79.6776 132.625 79.7346 132.762C79.7917 132.9 79.8066 133.052 79.7775 133.198C79.7484 133.344 79.6767 133.478 79.5713 133.584C79.466 133.689 79.3317 133.761 79.1856 133.79C79.0394 133.819 78.8879 133.804 78.7503 133.747C78.6126 133.69 78.4949 133.593 78.4121 133.469C78.3293 133.345 78.2852 133.2 78.2852 133.051C78.2852 132.851 78.3645 132.659 78.5058 132.518C78.6471 132.377 78.8388 132.297 79.0386 132.297Z" fill="#F0AD00"/>
<path fill-rule="evenodd" clip-rule="evenodd" d="M78.2437 141.986C78.3947 141.985 78.5427 142.028 78.6688 142.111C78.7949 142.194 78.8935 142.313 78.9519 142.452C79.0103 142.592 79.026 142.745 78.9969 142.893C78.9677 143.041 78.8952 143.177 78.7884 143.284C78.6816 143.391 78.5455 143.464 78.3973 143.493C78.2492 143.522 78.0957 143.506 77.9564 143.448C77.8172 143.389 77.6985 143.291 77.6155 143.165C77.5325 143.039 77.4889 142.891 77.4903 142.74C77.4903 142.54 77.5696 142.348 77.7109 142.207C77.8522 142.065 78.0439 141.986 78.2437 141.986Z" fill="#E1760C"/>
</g>
<path d="M169 20.08C168.2 20.08 167.59 19.7733 167.17 19.16C166.757 18.54 166.55 17.6333 166.55 16.44C166.55 15.2467 166.757 14.3433 167.17 13.73C167.583 13.11 168.193 12.8 169 12.8C169.807 12.8 170.417 13.1067 170.83 13.72C171.243 14.3333 171.45 15.2367 171.45 16.43C171.45 17.6233 171.24 18.53 170.82 19.15C170.407 19.77 169.8 20.08 169 20.08ZM169 19.53C169.613 19.53 170.067 19.28 170.36 18.78C170.66 18.2733 170.81 17.49 170.81 16.43C170.81 15.37 170.663 14.5933 170.37 14.1C170.077 13.6 169.62 13.35 169 13.35C168.387 13.35 167.93 13.6 167.63 14.1C167.337 14.6 167.19 15.3767 167.19 16.43C167.19 17.4833 167.337 18.2633 167.63 18.77C167.93 19.2767 168.387 19.53 169 19.53ZM176.006 16.35C176.479 16.47 176.846 16.6867 177.106 17C177.366 17.3133 177.496 17.69 177.496 18.13C177.496 18.73 177.273 19.2033 176.826 19.55C176.379 19.8967 175.769 20.07 174.996 20.07C174.223 20.07 173.613 19.8967 173.166 19.55C172.719 19.2033 172.496 18.73 172.496 18.13C172.496 17.6967 172.629 17.3233 172.896 17.01C173.163 16.69 173.526 16.47 173.986 16.35C173.559 16.2233 173.229 16.0133 172.996 15.72C172.769 15.4267 172.656 15.08 172.656 14.68C172.656 14.3067 172.753 13.9767 172.946 13.69C173.139 13.4033 173.413 13.1833 173.766 13.03C174.126 12.8767 174.536 12.8 174.996 12.8C175.456 12.8 175.863 12.8767 176.216 13.03C176.576 13.1833 176.853 13.4033 177.046 13.69C177.239 13.9767 177.336 14.3067 177.336 14.68C177.336 15.08 177.219 15.4267 176.986 15.72C176.759 16.0133 176.433 16.2233 176.006 16.35ZM173.286 14.71C173.286 15.1167 173.439 15.4467 173.746 15.7C174.053 15.9533 174.469 16.1067 174.996 16.16C175.523 16.1067 175.939 15.9533 176.246 15.7C176.553 15.4467 176.706 15.1167 176.706 14.71C176.706 14.2833 176.556 13.95 176.256 13.71C175.956 13.4633 175.536 13.34 174.996 13.34C174.456 13.34 174.036 13.4633 173.736 13.71C173.436 13.95 173.286 14.2833 173.286 14.71ZM174.996 19.53C175.603 19.53 176.066 19.41 176.386 19.17C176.706 18.9233 176.866 18.5667 176.866 18.1C176.866 17.6733 176.693 17.3333 176.346 17.08C176.006 16.8267 175.556 16.6733 174.996 16.62C174.436 16.6733 173.983 16.8267 173.636 17.08C173.296 17.3333 173.126 17.6733 173.126 18.1C173.126 18.5667 173.286 18.9233 173.606 19.17C173.926 19.41 174.389 19.53 174.996 19.53ZM179.532 15.1V15.96L178.682 15.96V15.1L179.532 15.1ZM179.532 19.13V20H178.682V19.13H179.532ZM185.329 19.46V20L181.559 20V19.46H183.139L183.139 13.7L181.669 14.65V14.02L183.409 12.88L183.759 12.88L183.759 19.46L185.329 19.46ZM191.575 19.46V20L187.085 20V19.54L189.615 16.71C189.975 16.2967 190.235 15.9333 190.395 15.62C190.555 15.3 190.635 14.9833 190.635 14.67C190.635 14.2433 190.512 13.9167 190.265 13.69C190.025 13.4567 189.678 13.34 189.225 13.34C188.525 13.34 187.842 13.6267 187.175 14.2L186.915 13.71C187.195 13.4367 187.545 13.2167 187.965 13.05C188.385 12.8833 188.805 12.8 189.225 12.8C189.858 12.8 190.355 12.9667 190.715 13.3C191.082 13.6267 191.265 14.0733 191.265 14.64C191.265 15.0467 191.168 15.4433 190.975 15.83C190.788 16.2167 190.482 16.6467 190.055 17.12L187.915 19.46L191.575 19.46Z" fill="#5B5151"/>
<rect y="201" width="359" height="40" rx="10" fill="white"/>
<rect x="0.5" y="201.5" width="358" height="39" rx="9.5" stroke="#5B5151" stroke-opacity="0.1"/>
<rect x="319" y="201" width="40" height="40" rx="10" fill="#E37D38"/>
<path fill-rule="evenodd" clip-rule="evenodd" d="M345.003 229.657C343.225 228.774 344.092 226.48 345.313 224.914C346.37 223.558 347 221.853 347 220C347 215.582 343.418 212 339 212C334.582 212 331 215.582 331 220C331 224.418 334.582 228 339 228C339.185 228 339.359 228.084 339.478 228.226C340.79 229.78 342.979 230.433 345.001 229.698C345.02 229.691 345.021 229.666 345.003 229.657Z" fill="white" fill-opacity="0.55"/>
<path d="M19.64 217.012H16.168V216.032H24.274V217.012H20.802V226H19.64V217.012ZM30.6902 218.958L27.4002 226.644C27.0548 227.447 26.6208 228.035 26.0982 228.408C25.5755 228.781 24.9315 229.038 24.1662 229.178L23.9282 228.296C24.5908 228.147 25.0902 227.946 25.4262 227.694C25.7715 227.451 26.0562 227.073 26.2802 226.56L26.5602 225.93L23.5782 218.958H24.7682L27.1482 224.768L29.5562 218.958H30.6902ZM35.4537 218.79C36.0697 218.79 36.6157 218.944 37.0917 219.252C37.5677 219.56 37.9363 219.994 38.1977 220.554C38.459 221.105 38.5897 221.744 38.5897 222.472C38.5897 223.2 38.459 223.839 38.1977 224.39C37.9363 224.931 37.5677 225.351 37.0917 225.65C36.625 225.949 36.079 226.098 35.4537 226.098C34.903 226.098 34.4223 225.977 34.0117 225.734C33.601 225.491 33.2883 225.146 33.0737 224.698V229.024H31.9397V220.932C31.9397 220.204 31.9023 219.546 31.8277 218.958H32.9057L33.0177 220.316C33.2137 219.831 33.5217 219.457 33.9417 219.196C34.371 218.925 34.875 218.79 35.4537 218.79ZM35.2437 225.16C35.9343 225.16 36.4663 224.927 36.8397 224.46C37.2223 223.993 37.4137 223.331 37.4137 222.472C37.4137 221.613 37.2223 220.946 36.8397 220.47C36.457 219.985 35.925 219.742 35.2437 219.742C34.5437 219.742 34.007 219.975 33.6337 220.442C33.2603 220.909 33.0737 221.576 33.0737 222.444C33.0737 223.312 33.2603 223.984 33.6337 224.46C34.007 224.927 34.5437 225.16 35.2437 225.16ZM40.3342 218.958H41.4682V226H40.3342V218.958ZM41.6082 215.976V217.264H40.2222V215.976H41.6082ZM47.1841 218.79C48.8735 218.79 49.7181 219.719 49.7181 221.576V226H48.5841V221.632C48.5841 220.979 48.4535 220.503 48.1921 220.204C47.9308 219.896 47.5201 219.742 46.9601 219.742C46.3068 219.742 45.7841 219.943 45.3921 220.344C45.0001 220.745 44.8041 221.287 44.8041 221.968V226H43.6701V220.932C43.6701 220.204 43.6328 219.546 43.5581 218.958H44.6361L44.7481 220.218C44.9628 219.761 45.2848 219.411 45.7141 219.168C46.1435 218.916 46.6335 218.79 47.1841 218.79ZM58.1316 218.958V225.944C58.1316 226.989 57.8609 227.778 57.3196 228.31C56.7876 228.851 55.9989 229.122 54.9536 229.122C53.8802 229.122 52.9562 228.879 52.1816 228.394L52.3776 227.47C52.8256 227.722 53.2456 227.904 53.6376 228.016C54.0389 228.128 54.4776 228.184 54.9536 228.184C55.6349 228.184 56.1482 228.002 56.4936 227.638C56.8389 227.283 57.0116 226.751 57.0116 226.042V224.376C56.7969 224.824 56.4796 225.174 56.0596 225.426C55.6489 225.669 55.1589 225.79 54.5896 225.79C53.9736 225.79 53.4229 225.645 52.9376 225.356C52.4616 225.067 52.0929 224.656 51.8316 224.124C51.5702 223.592 51.4396 222.981 51.4396 222.29C51.4396 221.599 51.5702 220.988 51.8316 220.456C52.0929 219.924 52.4616 219.513 52.9376 219.224C53.4229 218.935 53.9736 218.79 54.5896 218.79C55.1496 218.79 55.6349 218.911 56.0456 219.154C56.4656 219.397 56.7829 219.737 56.9976 220.176V218.958H58.1316ZM54.8136 224.838C55.4949 224.838 56.0269 224.614 56.4096 224.166C56.8016 223.709 56.9976 223.083 56.9976 222.29C56.9976 221.497 56.8016 220.876 56.4096 220.428C56.0269 219.971 55.4949 219.742 54.8136 219.742C54.1229 219.742 53.5769 219.971 53.1756 220.428C52.7836 220.876 52.5876 221.497 52.5876 222.29C52.5876 223.083 52.7836 223.709 53.1756 224.166C53.5769 224.614 54.1229 224.838 54.8136 224.838ZM61.5548 224.558V226H60.1128V224.558H61.5548ZM64.795 224.558V226H63.353V224.558H64.795ZM68.0353 224.558V226H66.5933V224.558H68.0353Z" fill="#5B5151"/>
</svg>
