<svg width="359" height="186" viewBox="0 0 359 186" fill="none" xmlns="http://www.w3.org/2000/svg">
<rect width="359" height="186" rx="12" fill="white"/>
<rect x="0.5" y="0.5" width="358" height="185" rx="11.5" stroke="#5B5151" stroke-opacity="0.1"/>
<path d="M16 36C16 24.9543 24.9543 16 36 16H292C303.046 16 312 24.9543 312 36V56C312 67.0457 303.046 76 292 76H16V36Z" fill="#FFE5D1"/>
<path d="M65.232 32.032H66.38V42H65.232V32.032ZM70.2134 35.854V39.704C70.2134 40.2267 70.3207 40.5953 70.5354 40.81C70.75 41.0153 71.0534 41.118 71.4454 41.118C71.7067 41.118 71.9587 41.076 72.2014 40.992V41.958C71.912 42.0513 71.5854 42.098 71.2214 42.098C70.5494 42.098 70.022 41.9113 69.6394 41.538C69.266 41.1553 69.0794 40.5953 69.0794 39.858V35.854H67.7074V34.958H69.0794V33.152L70.2134 32.746V34.958H72.2294V35.854H70.2134ZM74.7735 32.032V33.054C74.7735 33.446 74.7082 33.8053 74.5775 34.132C74.4469 34.4587 74.2275 34.7807 73.9195 35.098L73.3875 34.678C73.7515 34.258 73.9569 33.8567 74.0035 33.474H73.3315V32.032H74.7735ZM78.7376 42.098C77.5523 42.098 76.6143 41.7947 75.9236 41.188L76.3016 40.348C76.6843 40.6467 77.0716 40.8613 77.4636 40.992C77.8556 41.1227 78.2943 41.188 78.7796 41.188C79.3116 41.188 79.713 41.0993 79.9836 40.922C80.2636 40.7353 80.4036 40.4693 80.4036 40.124C80.4036 39.844 80.3103 39.62 80.1236 39.452C79.937 39.284 79.629 39.1533 79.1996 39.06L78.0096 38.78C77.4216 38.6493 76.9643 38.416 76.6376 38.08C76.3203 37.744 76.1616 37.3427 76.1616 36.876C76.1616 36.26 76.409 35.7607 76.9036 35.378C77.3983 34.986 78.0516 34.79 78.8636 34.79C79.3583 34.79 79.825 34.8693 80.2636 35.028C80.7023 35.1867 81.071 35.4153 81.3696 35.714L80.9916 36.54C80.329 35.9893 79.6196 35.714 78.8636 35.714C78.3596 35.714 77.9676 35.812 77.6876 36.008C77.417 36.1947 77.2816 36.4607 77.2816 36.806C77.2816 37.0953 77.3656 37.324 77.5336 37.492C77.711 37.66 77.991 37.7907 78.3736 37.884L79.5636 38.178C80.217 38.3273 80.7023 38.5607 81.0196 38.878C81.337 39.186 81.4956 39.592 81.4956 40.096C81.4956 40.7027 81.2483 41.188 80.7536 41.552C80.259 41.916 79.587 42.098 78.7376 42.098ZM90.4673 34.79C92.1567 34.79 93.0013 35.7187 93.0013 37.576V42H91.8673V37.632C91.8673 36.9787 91.7367 36.5027 91.4753 36.204C91.214 35.896 90.8033 35.742 90.2433 35.742C89.59 35.742 89.0673 35.9427 88.6753 36.344C88.2833 36.7453 88.0873 37.2867 88.0873 37.968V42H86.9533V36.932C86.9533 36.204 86.916 35.546 86.8413 34.958H87.9193L88.0313 36.218C88.246 35.7607 88.568 35.4107 88.9973 35.168C89.4267 34.916 89.9167 34.79 90.4673 34.79ZM98.0548 42.098C97.3921 42.098 96.8088 41.9487 96.3048 41.65C95.8008 41.3513 95.4088 40.9267 95.1288 40.376C94.8581 39.8253 94.7228 39.1813 94.7228 38.444C94.7228 37.7067 94.8581 37.0627 95.1288 36.512C95.4088 35.9613 95.8008 35.5367 96.3048 35.238C96.8088 34.9393 97.3921 34.79 98.0548 34.79C98.7174 34.79 99.3008 34.9393 99.8048 35.238C100.309 35.5367 100.696 35.9613 100.967 36.512C101.247 37.0627 101.387 37.7067 101.387 38.444C101.387 39.1813 101.247 39.8253 100.967 40.376C100.696 40.9267 100.309 41.3513 99.8048 41.65C99.3008 41.9487 98.7174 42.098 98.0548 42.098ZM98.0548 41.16C98.7548 41.16 99.2914 40.9313 99.6648 40.474C100.038 40.0073 100.225 39.3307 100.225 38.444C100.225 37.5853 100.033 36.9227 99.6508 36.456C99.2681 35.98 98.7361 35.742 98.0548 35.742C97.3641 35.742 96.8274 35.98 96.4448 36.456C96.0621 36.9227 95.8708 37.5853 95.8708 38.444C95.8708 39.3307 96.0574 40.0073 96.4308 40.474C96.8134 40.9313 97.3548 41.16 98.0548 41.16ZM104.653 35.854V39.704C104.653 40.2267 104.76 40.5953 104.975 40.81C105.189 41.0153 105.493 41.118 105.885 41.118C106.146 41.118 106.398 41.076 106.641 40.992V41.958C106.351 42.0513 106.025 42.098 105.661 42.098C104.989 42.098 104.461 41.9113 104.079 41.538C103.705 41.1553 103.519 40.5953 103.519 39.858V35.854H102.147V34.958H103.519V33.152L104.653 32.746V34.958H106.669V35.854H104.653ZM117.58 38.444H112.414C112.423 39.34 112.628 40.0167 113.03 40.474C113.44 40.9313 114.033 41.16 114.808 41.16C115.629 41.16 116.385 40.8847 117.076 40.334L117.454 41.16C117.146 41.4493 116.749 41.678 116.264 41.846C115.788 42.014 115.298 42.098 114.794 42.098C113.692 42.098 112.829 41.776 112.204 41.132C111.578 40.4787 111.266 39.5873 111.266 38.458C111.266 37.7393 111.406 37.1047 111.686 36.554C111.966 35.994 112.358 35.56 112.862 35.252C113.366 34.944 113.94 34.79 114.584 34.79C115.517 34.79 116.25 35.098 116.782 35.714C117.314 36.3207 117.58 37.1607 117.58 38.234V38.444ZM114.598 35.672C114.01 35.672 113.529 35.8493 113.156 36.204C112.792 36.5587 112.558 37.058 112.456 37.702H116.558C116.502 37.0393 116.306 36.5353 115.97 36.19C115.643 35.8447 115.186 35.672 114.598 35.672ZM125.503 34.958V42H124.383V40.726C124.178 41.1647 123.865 41.5053 123.445 41.748C123.034 41.9813 122.554 42.098 122.003 42.098C121.378 42.098 120.827 41.9487 120.351 41.65C119.884 41.3513 119.52 40.9313 119.259 40.39C119.007 39.8393 118.881 39.2 118.881 38.472C118.881 37.744 119.012 37.1047 119.273 36.554C119.534 35.994 119.898 35.56 120.365 35.252C120.841 34.944 121.387 34.79 122.003 34.79C122.554 34.79 123.034 34.9113 123.445 35.154C123.856 35.3967 124.168 35.7373 124.383 36.176V34.958H125.503ZM122.227 41.16C122.918 41.16 123.45 40.9267 123.823 40.46C124.196 39.984 124.383 39.312 124.383 38.444C124.383 37.576 124.196 36.9087 123.823 36.442C123.45 35.9753 122.918 35.742 122.227 35.742C121.536 35.742 120.995 35.9847 120.603 36.47C120.22 36.946 120.029 37.6133 120.029 38.472C120.029 39.3307 120.22 39.9933 120.603 40.46C120.986 40.9267 121.527 41.16 122.227 41.16ZM130.076 42.098C128.89 42.098 127.952 41.7947 127.262 41.188L127.64 40.348C128.022 40.6467 128.41 40.8613 128.802 40.992C129.194 41.1227 129.632 41.188 130.118 41.188C130.65 41.188 131.051 41.0993 131.322 40.922C131.602 40.7353 131.742 40.4693 131.742 40.124C131.742 39.844 131.648 39.62 131.462 39.452C131.275 39.284 130.967 39.1533 130.538 39.06L129.348 38.78C128.76 38.6493 128.302 38.416 127.976 38.08C127.658 37.744 127.5 37.3427 127.5 36.876C127.5 36.26 127.747 35.7607 128.242 35.378C128.736 34.986 129.39 34.79 130.202 34.79C130.696 34.79 131.163 34.8693 131.602 35.028C132.04 35.1867 132.409 35.4153 132.708 35.714L132.33 36.54C131.667 35.9893 130.958 35.714 130.202 35.714C129.698 35.714 129.306 35.812 129.026 36.008C128.755 36.1947 128.62 36.4607 128.62 36.806C128.62 37.0953 128.704 37.324 128.872 37.492C129.049 37.66 129.329 37.7907 129.712 37.884L130.902 38.178C131.555 38.3273 132.04 38.5607 132.358 38.878C132.675 39.186 132.834 39.592 132.834 40.096C132.834 40.7027 132.586 41.188 132.092 41.552C131.597 41.916 130.925 42.098 130.076 42.098ZM140.706 34.958L137.416 42.644C137.07 43.4467 136.636 44.0347 136.114 44.408C135.591 44.7813 134.947 45.038 134.182 45.178L133.944 44.296C134.606 44.1467 135.106 43.946 135.442 43.694C135.787 43.4513 136.072 43.0733 136.296 42.56L136.576 41.93L133.594 34.958H134.784L137.164 40.768L139.572 34.958H140.706ZM147.118 35.854V39.704C147.118 40.2267 147.225 40.5953 147.44 40.81C147.654 41.0153 147.958 41.118 148.35 41.118C148.611 41.118 148.863 41.076 149.106 40.992V41.958C148.816 42.0513 148.49 42.098 148.126 42.098C147.454 42.098 146.926 41.9113 146.544 41.538C146.17 41.1553 145.984 40.5953 145.984 39.858V35.854H144.612V34.958H145.984V33.152L147.118 32.746V34.958H149.134V35.854H147.118ZM153.412 42.098C152.75 42.098 152.166 41.9487 151.662 41.65C151.158 41.3513 150.766 40.9267 150.486 40.376C150.216 39.8253 150.08 39.1813 150.08 38.444C150.08 37.7067 150.216 37.0627 150.486 36.512C150.766 35.9613 151.158 35.5367 151.662 35.238C152.166 34.9393 152.75 34.79 153.412 34.79C154.075 34.79 154.658 34.9393 155.162 35.238C155.666 35.5367 156.054 35.9613 156.324 36.512C156.604 37.0627 156.744 37.7067 156.744 38.444C156.744 39.1813 156.604 39.8253 156.324 40.376C156.054 40.9267 155.666 41.3513 155.162 41.65C154.658 41.9487 154.075 42.098 153.412 42.098ZM153.412 41.16C154.112 41.16 154.649 40.9313 155.022 40.474C155.396 40.0073 155.582 39.3307 155.582 38.444C155.582 37.5853 155.391 36.9227 155.008 36.456C154.626 35.98 154.094 35.742 153.412 35.742C152.722 35.742 152.185 35.98 151.802 36.456C151.42 36.9227 151.228 37.5853 151.228 38.444C151.228 39.3307 151.415 40.0073 151.788 40.474C152.171 40.9313 152.712 41.16 153.412 41.16ZM168.434 34.958V41.944C168.434 42.9893 168.164 43.778 167.622 44.31C167.09 44.8513 166.302 45.122 165.256 45.122C164.183 45.122 163.259 44.8793 162.484 44.394L162.68 43.47C163.128 43.722 163.548 43.904 163.94 44.016C164.342 44.128 164.78 44.184 165.256 44.184C165.938 44.184 166.451 44.002 166.796 43.638C167.142 43.2833 167.314 42.7513 167.314 42.042V40.376C167.1 40.824 166.782 41.174 166.362 41.426C165.952 41.6687 165.462 41.79 164.892 41.79C164.276 41.79 163.726 41.6453 163.24 41.356C162.764 41.0667 162.396 40.656 162.134 40.124C161.873 39.592 161.742 38.9807 161.742 38.29C161.742 37.5993 161.873 36.988 162.134 36.456C162.396 35.924 162.764 35.5133 163.24 35.224C163.726 34.9347 164.276 34.79 164.892 34.79C165.452 34.79 165.938 34.9113 166.348 35.154C166.768 35.3967 167.086 35.7373 167.3 36.176V34.958H168.434ZM165.116 40.838C165.798 40.838 166.33 40.614 166.712 40.166C167.104 39.7087 167.3 39.0833 167.3 38.29C167.3 37.4967 167.104 36.876 166.712 36.428C166.33 35.9707 165.798 35.742 165.116 35.742C164.426 35.742 163.88 35.9707 163.478 36.428C163.086 36.876 162.89 37.4967 162.89 38.29C162.89 39.0833 163.086 39.7087 163.478 40.166C163.88 40.614 164.426 40.838 165.116 40.838ZM176.506 38.444H171.34C171.349 39.34 171.554 40.0167 171.956 40.474C172.366 40.9313 172.959 41.16 173.734 41.16C174.555 41.16 175.311 40.8847 176.002 40.334L176.38 41.16C176.072 41.4493 175.675 41.678 175.19 41.846C174.714 42.014 174.224 42.098 173.72 42.098C172.618 42.098 171.755 41.776 171.13 41.132C170.504 40.4787 170.192 39.5873 170.192 38.458C170.192 37.7393 170.332 37.1047 170.612 36.554C170.892 35.994 171.284 35.56 171.788 35.252C172.292 34.944 172.866 34.79 173.51 34.79C174.443 34.79 175.176 35.098 175.708 35.714C176.24 36.3207 176.506 37.1607 176.506 38.234V38.444ZM173.524 35.672C172.936 35.672 172.455 35.8493 172.082 36.204C171.718 36.5587 171.484 37.058 171.382 37.702H175.484C175.428 37.0393 175.232 36.5353 174.896 36.19C174.569 35.8447 174.112 35.672 173.524 35.672ZM179.698 35.854V39.704C179.698 40.2267 179.805 40.5953 180.02 40.81C180.234 41.0153 180.538 41.118 180.93 41.118C181.191 41.118 181.443 41.076 181.686 40.992V41.958C181.396 42.0513 181.07 42.098 180.706 42.098C180.034 42.098 179.506 41.9113 179.124 41.538C178.75 41.1553 178.564 40.5953 178.564 39.858V35.854H177.192V34.958H178.564V33.152L179.698 32.746V34.958H181.714V35.854H179.698ZM194.543 34.79C196.101 34.79 196.881 35.7187 196.881 37.576V42H195.747V37.632C195.747 36.9693 195.63 36.4887 195.397 36.19C195.173 35.8913 194.804 35.742 194.291 35.742C193.693 35.742 193.227 35.9427 192.891 36.344C192.555 36.7453 192.387 37.2913 192.387 37.982V42H191.253V37.632C191.253 36.9787 191.136 36.5027 190.903 36.204C190.669 35.896 190.296 35.742 189.783 35.742C189.185 35.742 188.714 35.9427 188.369 36.344C188.033 36.7453 187.865 37.2913 187.865 37.982V42H186.731V36.932C186.731 36.204 186.693 35.546 186.619 34.958H187.697L187.809 36.19C188.005 35.742 188.294 35.3967 188.677 35.154C189.069 34.9113 189.521 34.79 190.035 34.79C190.595 34.79 191.052 34.902 191.407 35.126C191.761 35.35 192.023 35.6953 192.191 36.162C192.405 35.742 192.718 35.4107 193.129 35.168C193.549 34.916 194.02 34.79 194.543 34.79ZM205.237 34.958V42H204.117V40.726C203.912 41.1647 203.599 41.5053 203.179 41.748C202.769 41.9813 202.288 42.098 201.737 42.098C201.112 42.098 200.561 41.9487 200.085 41.65C199.619 41.3513 199.255 40.9313 198.993 40.39C198.741 39.8393 198.615 39.2 198.615 38.472C198.615 37.744 198.746 37.1047 199.007 36.554C199.269 35.994 199.633 35.56 200.099 35.252C200.575 34.944 201.121 34.79 201.737 34.79C202.288 34.79 202.769 34.9113 203.179 35.154C203.59 35.3967 203.903 35.7373 204.117 36.176V34.958H205.237ZM201.961 41.16C202.652 41.16 203.184 40.9267 203.557 40.46C203.931 39.984 204.117 39.312 204.117 38.444C204.117 37.576 203.931 36.9087 203.557 36.442C203.184 35.9753 202.652 35.742 201.961 35.742C201.271 35.742 200.729 35.9847 200.337 36.47C199.955 36.946 199.763 37.6133 199.763 38.472C199.763 39.3307 199.955 39.9933 200.337 40.46C200.72 40.9267 201.261 41.16 201.961 41.16ZM210.944 34.79C212.633 34.79 213.478 35.7187 213.478 37.576V42H212.344V37.632C212.344 36.9787 212.213 36.5027 211.952 36.204C211.691 35.896 211.28 35.742 210.72 35.742C210.067 35.742 209.544 35.9427 209.152 36.344C208.76 36.7453 208.564 37.2867 208.564 37.968V42H207.43V36.932C207.43 36.204 207.393 35.546 207.318 34.958H208.396L208.508 36.218C208.723 35.7607 209.045 35.4107 209.474 35.168C209.903 34.916 210.393 34.79 210.944 34.79ZM221.807 34.958L218.517 42.644C218.172 43.4467 217.738 44.0347 217.215 44.408C216.693 44.7813 216.049 45.038 215.283 45.178L215.045 44.296C215.708 44.1467 216.207 43.946 216.543 43.694C216.889 43.4513 217.173 43.0733 217.397 42.56L217.677 41.93L214.695 34.958H215.885L218.265 40.768L220.673 34.958H221.807ZM233.021 34.958C232.947 35.546 232.909 36.204 232.909 36.932V45.024H231.775V40.754C231.57 41.1833 231.262 41.5147 230.851 41.748C230.441 41.9813 229.96 42.098 229.409 42.098C228.784 42.098 228.233 41.9487 227.757 41.65C227.291 41.3513 226.927 40.9313 226.665 40.39C226.413 39.8393 226.287 39.2 226.287 38.472C226.287 37.744 226.418 37.1047 226.679 36.554C226.941 35.994 227.305 35.56 227.771 35.252C228.247 34.944 228.793 34.79 229.409 34.79C229.979 34.79 230.473 34.9207 230.893 35.182C231.313 35.434 231.626 35.798 231.831 36.274L231.971 34.958H233.021ZM229.633 41.16C230.324 41.16 230.856 40.9267 231.229 40.46C231.603 39.984 231.789 39.312 231.789 38.444C231.789 37.576 231.603 36.9087 231.229 36.442C230.856 35.9753 230.324 35.742 229.633 35.742C228.943 35.742 228.401 35.9847 228.009 36.47C227.627 36.946 227.435 37.6133 227.435 38.472C227.435 39.3307 227.627 39.9933 228.009 40.46C228.392 40.9267 228.933 41.16 229.633 41.16ZM240.996 34.958V42H239.89V40.782C239.666 41.2113 239.353 41.538 238.952 41.762C238.55 41.986 238.098 42.098 237.594 42.098C236.763 42.098 236.133 41.8647 235.704 41.398C235.274 40.9313 235.06 40.2407 235.06 39.326V34.958H236.194V39.298C236.194 39.9327 236.324 40.3993 236.586 40.698C236.847 40.9967 237.244 41.146 237.776 41.146C238.401 41.146 238.905 40.9453 239.288 40.544C239.67 40.1333 239.862 39.5967 239.862 38.934V34.958H240.996ZM249.384 34.958V42H248.264V40.726C248.059 41.1647 247.746 41.5053 247.326 41.748C246.915 41.9813 246.435 42.098 245.884 42.098C245.259 42.098 244.708 41.9487 244.232 41.65C243.765 41.3513 243.401 40.9313 243.14 40.39C242.888 39.8393 242.762 39.2 242.762 38.472C242.762 37.744 242.893 37.1047 243.154 36.554C243.415 35.994 243.779 35.56 244.246 35.252C244.722 34.944 245.268 34.79 245.884 34.79C246.435 34.79 246.915 34.9113 247.326 35.154C247.737 35.3967 248.049 35.7373 248.264 36.176V34.958H249.384ZM246.108 41.16C246.799 41.16 247.331 40.9267 247.704 40.46C248.077 39.984 248.264 39.312 248.264 38.444C248.264 37.576 248.077 36.9087 247.704 36.442C247.331 35.9753 246.799 35.742 246.108 35.742C245.417 35.742 244.876 35.9847 244.484 36.47C244.101 36.946 243.91 37.6133 243.91 38.472C243.91 39.3307 244.101 39.9933 244.484 40.46C244.867 40.9267 245.408 41.16 246.108 41.16ZM251.576 31.696H252.71V42H251.576V31.696ZM254.912 34.958H256.046V42H254.912V34.958ZM256.186 31.976V33.264H254.8V31.976H256.186ZM259.76 35.854V39.704C259.76 40.2267 259.868 40.5953 260.082 40.81C260.297 41.0153 260.6 41.118 260.992 41.118C261.254 41.118 261.506 41.076 261.748 40.992V41.958C261.459 42.0513 261.132 42.098 260.768 42.098C260.096 42.098 259.569 41.9113 259.186 41.538C258.813 41.1553 258.626 40.5953 258.626 39.858V35.854H257.254V34.958H258.626V33.152L259.76 32.746V34.958H261.776V35.854H259.76ZM269.345 34.958V42H268.225V40.726C268.019 41.1647 267.707 41.5053 267.287 41.748C266.876 41.9813 266.395 42.098 265.845 42.098C265.219 42.098 264.669 41.9487 264.193 41.65C263.726 41.3513 263.362 40.9313 263.101 40.39C262.849 39.8393 262.723 39.2 262.723 38.472C262.723 37.744 262.853 37.1047 263.115 36.554C263.376 35.994 263.74 35.56 264.207 35.252C264.683 34.944 265.229 34.79 265.845 34.79C266.395 34.79 266.876 34.9113 267.287 35.154C267.697 35.3967 268.01 35.7373 268.225 36.176V34.958H269.345ZM266.069 41.16C266.759 41.16 267.291 40.9267 267.665 40.46C268.038 39.984 268.225 39.312 268.225 38.444C268.225 37.576 268.038 36.9087 267.665 36.442C267.291 35.9753 266.759 35.742 266.069 35.742C265.378 35.742 264.837 35.9847 264.445 36.47C264.062 36.946 263.871 37.6133 263.871 38.472C263.871 39.3307 264.062 39.9933 264.445 40.46C264.827 40.9267 265.369 41.16 266.069 41.16ZM273.049 35.854V39.704C273.049 40.2267 273.157 40.5953 273.371 40.81C273.586 41.0153 273.889 41.118 274.281 41.118C274.543 41.118 274.795 41.076 275.037 40.992V41.958C274.748 42.0513 274.421 42.098 274.057 42.098C273.385 42.098 272.858 41.9113 272.475 41.538C272.102 41.1553 271.915 40.5953 271.915 39.858V35.854H270.543V34.958H271.915V33.152L273.049 32.746V34.958H275.065V35.854H273.049ZM276.432 34.958H277.566V42H276.432V34.958ZM277.706 31.976V33.264H276.32V31.976H277.706ZM285.956 34.972L282.918 42H281.84L278.844 34.972H280.034L282.414 40.768L284.822 34.972H285.956ZM293.017 38.444H287.851C287.861 39.34 288.066 40.0167 288.467 40.474C288.878 40.9313 289.471 41.16 290.245 41.16C291.067 41.16 291.823 40.8847 292.513 40.334L292.891 41.16C292.583 41.4493 292.187 41.678 291.701 41.846C291.225 42.014 290.735 42.098 290.231 42.098C289.13 42.098 288.267 41.776 287.641 41.132C287.016 40.4787 286.703 39.5873 286.703 38.458C286.703 37.7393 286.843 37.1047 287.123 36.554C287.403 35.994 287.795 35.56 288.299 35.252C288.803 34.944 289.377 34.79 290.021 34.79C290.955 34.79 291.687 35.098 292.219 35.714C292.751 36.3207 293.017 37.1607 293.017 38.234V38.444ZM290.035 35.672C289.447 35.672 288.967 35.8493 288.593 36.204C288.229 36.5587 287.996 37.058 287.893 37.702H291.995C291.939 37.0393 291.743 36.5353 291.407 36.19C291.081 35.8447 290.623 35.672 290.035 35.672ZM68.606 52.79C69.222 52.79 69.768 52.944 70.244 53.252C70.72 53.56 71.0887 53.994 71.35 54.554C71.6113 55.1047 71.742 55.744 71.742 56.472C71.742 57.2 71.6113 57.8393 71.35 58.39C71.0887 58.9313 70.72 59.3513 70.244 59.65C69.7773 59.9487 69.2313 60.098 68.606 60.098C68.0553 60.098 67.5747 59.9767 67.164 59.734C66.7533 59.4913 66.4407 59.146 66.226 58.698V63.024H65.092V54.932C65.092 54.204 65.0547 53.546 64.98 52.958H66.058L66.17 54.316C66.366 53.8307 66.674 53.4573 67.094 53.196C67.5233 52.9253 68.0273 52.79 68.606 52.79ZM68.396 59.16C69.0867 59.16 69.6187 58.9267 69.992 58.46C70.3747 57.9933 70.566 57.3307 70.566 56.472C70.566 55.6133 70.3747 54.946 69.992 54.47C69.6093 53.9847 69.0773 53.742 68.396 53.742C67.696 53.742 67.1593 53.9753 66.786 54.442C66.4127 54.9087 66.226 55.576 66.226 56.444C66.226 57.312 66.4127 57.984 66.786 58.46C67.1593 58.9267 67.696 59.16 68.396 59.16ZM79.6885 52.958V60H78.5685V58.726C78.3632 59.1647 78.0505 59.5053 77.6305 59.748C77.2199 59.9813 76.7392 60.098 76.1885 60.098C75.5632 60.098 75.0125 59.9487 74.5365 59.65C74.0699 59.3513 73.7059 58.9313 73.4445 58.39C73.1925 57.8393 73.0665 57.2 73.0665 56.472C73.0665 55.744 73.1972 55.1047 73.4585 54.554C73.7199 53.994 74.0839 53.56 74.5505 53.252C75.0265 52.944 75.5725 52.79 76.1885 52.79C76.7392 52.79 77.2199 52.9113 77.6305 53.154C78.0412 53.3967 78.3539 53.7373 78.5685 54.176V52.958H79.6885ZM76.4125 59.16C77.1032 59.16 77.6352 58.9267 78.0085 58.46C78.3819 57.984 78.5685 57.312 78.5685 56.444C78.5685 55.576 78.3819 54.9087 78.0085 54.442C77.6352 53.9753 77.1032 53.742 76.4125 53.742C75.7219 53.742 75.1805 53.9847 74.7885 54.47C74.4059 54.946 74.2145 55.6133 74.2145 56.472C74.2145 57.3307 74.4059 57.9933 74.7885 58.46C75.1712 58.9267 75.7125 59.16 76.4125 59.16ZM88.1531 52.958V59.944C88.1531 60.9893 87.8824 61.778 87.3411 62.31C86.8091 62.8513 86.0204 63.122 84.9751 63.122C83.9017 63.122 82.9777 62.8793 82.2031 62.394L82.3991 61.47C82.8471 61.722 83.2671 61.904 83.6591 62.016C84.0604 62.128 84.4991 62.184 84.9751 62.184C85.6564 62.184 86.1697 62.002 86.5151 61.638C86.8604 61.2833 87.0331 60.7513 87.0331 60.042V58.376C86.8184 58.824 86.5011 59.174 86.0811 59.426C85.6704 59.6687 85.1804 59.79 84.6111 59.79C83.9951 59.79 83.4444 59.6453 82.9591 59.356C82.4831 59.0667 82.1144 58.656 81.8531 58.124C81.5917 57.592 81.4611 56.9807 81.4611 56.29C81.4611 55.5993 81.5917 54.988 81.8531 54.456C82.1144 53.924 82.4831 53.5133 82.9591 53.224C83.4444 52.9347 83.9951 52.79 84.6111 52.79C85.1711 52.79 85.6564 52.9113 86.0671 53.154C86.4871 53.3967 86.8044 53.7373 87.0191 54.176V52.958H88.1531ZM84.8351 58.838C85.5164 58.838 86.0484 58.614 86.4311 58.166C86.8231 57.7087 87.0191 57.0833 87.0191 56.29C87.0191 55.4967 86.8231 54.876 86.4311 54.428C86.0484 53.9707 85.5164 53.742 84.8351 53.742C84.1444 53.742 83.5984 53.9707 83.1971 54.428C82.8051 54.876 82.6091 55.4967 82.6091 56.29C82.6091 57.0833 82.8051 57.7087 83.1971 58.166C83.5984 58.614 84.1444 58.838 84.8351 58.838ZM96.2243 56.444H91.0583C91.0676 57.34 91.2729 58.0167 91.6743 58.474C92.0849 58.9313 92.6776 59.16 93.4523 59.16C94.2736 59.16 95.0296 58.8847 95.7203 58.334L96.0983 59.16C95.7903 59.4493 95.3936 59.678 94.9083 59.846C94.4323 60.014 93.9423 60.098 93.4383 60.098C92.3369 60.098 91.4736 59.776 90.8483 59.132C90.2229 58.4787 89.9103 57.5873 89.9103 56.458C89.9103 55.7393 90.0503 55.1047 90.3303 54.554C90.6103 53.994 91.0023 53.56 91.5063 53.252C92.0103 52.944 92.5843 52.79 93.2283 52.79C94.1616 52.79 94.8943 53.098 95.4263 53.714C95.9583 54.3207 96.2243 55.1607 96.2243 56.234V56.444ZM93.2423 53.672C92.6543 53.672 92.1736 53.8493 91.8003 54.204C91.4363 54.5587 91.2029 55.058 91.1003 55.702H95.2023C95.1463 55.0393 94.9503 54.5353 94.6143 54.19C94.2876 53.8447 93.8303 53.672 93.2423 53.672ZM100.326 60.098C99.1402 60.098 98.2022 59.7947 97.5115 59.188L97.8895 58.348C98.2722 58.6467 98.6595 58.8613 99.0515 58.992C99.4435 59.1227 99.8822 59.188 100.368 59.188C100.9 59.188 101.301 59.0993 101.572 58.922C101.852 58.7353 101.992 58.4693 101.992 58.124C101.992 57.844 101.898 57.62 101.712 57.452C101.525 57.284 101.217 57.1533 100.788 57.06L99.5975 56.78C99.0095 56.6493 98.5522 56.416 98.2255 56.08C97.9082 55.744 97.7495 55.3427 97.7495 54.876C97.7495 54.26 97.9968 53.7607 98.4915 53.378C98.9862 52.986 99.6395 52.79 100.452 52.79C100.946 52.79 101.413 52.8693 101.852 53.028C102.29 53.1867 102.659 53.4153 102.958 53.714L102.58 54.54C101.917 53.9893 101.208 53.714 100.452 53.714C99.9475 53.714 99.5555 53.812 99.2755 54.008C99.0048 54.1947 98.8695 54.4607 98.8695 54.806C98.8695 55.0953 98.9535 55.324 99.1215 55.492C99.2988 55.66 99.5788 55.7907 99.9615 55.884L101.152 56.178C101.805 56.3273 102.29 56.5607 102.608 56.878C102.925 57.186 103.084 57.592 103.084 58.096C103.084 58.7027 102.836 59.188 102.342 59.552C101.847 59.916 101.175 60.098 100.326 60.098ZM111.243 50.62C110.87 50.62 110.576 50.7273 110.361 50.942C110.156 51.1473 110.053 51.5067 110.053 52.02V52.958H111.775V53.854H110.053V60H108.919V53.854H107.547V52.958H108.919V51.88C108.919 51.1427 109.101 50.5873 109.465 50.214C109.839 49.8313 110.357 49.64 111.019 49.64C111.346 49.64 111.663 49.682 111.971 49.766V50.732C111.71 50.6573 111.467 50.62 111.243 50.62ZM116.102 60.098C115.439 60.098 114.856 59.9487 114.352 59.65C113.848 59.3513 113.456 58.9267 113.176 58.376C112.905 57.8253 112.77 57.1813 112.77 56.444C112.77 55.7067 112.905 55.0627 113.176 54.512C113.456 53.9613 113.848 53.5367 114.352 53.238C114.856 52.9393 115.439 52.79 116.102 52.79C116.764 52.79 117.348 52.9393 117.852 53.238C118.356 53.5367 118.743 53.9613 119.014 54.512C119.294 55.0627 119.434 55.7067 119.434 56.444C119.434 57.1813 119.294 57.8253 119.014 58.376C118.743 58.9267 118.356 59.3513 117.852 59.65C117.348 59.9487 116.764 60.098 116.102 60.098ZM116.102 59.16C116.802 59.16 117.338 58.9313 117.712 58.474C118.085 58.0073 118.272 57.3307 118.272 56.444C118.272 55.5853 118.08 54.9227 117.698 54.456C117.315 53.98 116.783 53.742 116.102 53.742C115.411 53.742 114.874 53.98 114.492 54.456C114.109 54.9227 113.918 55.5853 113.918 56.444C113.918 57.3307 114.104 58.0073 114.478 58.474C114.86 58.9313 115.402 59.16 116.102 59.16ZM124.477 52.79C124.711 52.79 124.925 52.818 125.121 52.874L125.093 53.91C124.879 53.8353 124.631 53.798 124.351 53.798C123.67 53.798 123.161 54.0127 122.825 54.442C122.499 54.862 122.335 55.3753 122.335 55.982V60H121.201V54.932C121.201 54.204 121.164 53.546 121.089 52.958H122.167L122.279 54.26C122.457 53.784 122.741 53.42 123.133 53.168C123.525 52.916 123.973 52.79 124.477 52.79ZM129.924 49.696H131.058V60H129.924V49.696ZM136.172 60.098C135.509 60.098 134.926 59.9487 134.422 59.65C133.918 59.3513 133.526 58.9267 133.246 58.376C132.975 57.8253 132.84 57.1813 132.84 56.444C132.84 55.7067 132.975 55.0627 133.246 54.512C133.526 53.9613 133.918 53.5367 134.422 53.238C134.926 52.9393 135.509 52.79 136.172 52.79C136.835 52.79 137.418 52.9393 137.922 53.238C138.426 53.5367 138.813 53.9613 139.084 54.512C139.364 55.0627 139.504 55.7067 139.504 56.444C139.504 57.1813 139.364 57.8253 139.084 58.376C138.813 58.9267 138.426 59.3513 137.922 59.65C137.418 59.9487 136.835 60.098 136.172 60.098ZM136.172 59.16C136.872 59.16 137.409 58.9313 137.782 58.474C138.155 58.0073 138.342 57.3307 138.342 56.444C138.342 55.5853 138.151 54.9227 137.768 54.456C137.385 53.98 136.853 53.742 136.172 53.742C135.481 53.742 134.945 53.98 134.562 54.456C134.179 54.9227 133.988 55.5853 133.988 56.444C133.988 57.3307 134.175 58.0073 134.548 58.474C134.931 58.9313 135.472 59.16 136.172 59.16ZM144.786 52.79C146.475 52.79 147.32 53.7187 147.32 55.576V60H146.186V55.632C146.186 54.9787 146.055 54.5027 145.794 54.204C145.532 53.896 145.122 53.742 144.562 53.742C143.908 53.742 143.386 53.9427 142.994 54.344C142.602 54.7453 142.406 55.2867 142.406 55.968V60H141.272V54.932C141.272 54.204 141.234 53.546 141.16 52.958H142.238L142.35 54.218C142.564 53.7607 142.886 53.4107 143.316 53.168C143.745 52.916 144.235 52.79 144.786 52.79ZM155.733 52.958V59.944C155.733 60.9893 155.462 61.778 154.921 62.31C154.389 62.8513 153.6 63.122 152.555 63.122C151.482 63.122 150.558 62.8793 149.783 62.394L149.979 61.47C150.427 61.722 150.847 61.904 151.239 62.016C151.64 62.128 152.079 62.184 152.555 62.184C153.236 62.184 153.75 62.002 154.095 61.638C154.44 61.2833 154.613 60.7513 154.613 60.042V58.376C154.398 58.824 154.081 59.174 153.661 59.426C153.25 59.6687 152.76 59.79 152.191 59.79C151.575 59.79 151.024 59.6453 150.539 59.356C150.063 59.0667 149.694 58.656 149.433 58.124C149.172 57.592 149.041 56.9807 149.041 56.29C149.041 55.5993 149.172 54.988 149.433 54.456C149.694 53.924 150.063 53.5133 150.539 53.224C151.024 52.9347 151.575 52.79 152.191 52.79C152.751 52.79 153.236 52.9113 153.647 53.154C154.067 53.3967 154.384 53.7373 154.599 54.176V52.958H155.733ZM152.415 58.838C153.096 58.838 153.628 58.614 154.011 58.166C154.403 57.7087 154.599 57.0833 154.599 56.29C154.599 55.4967 154.403 54.876 154.011 54.428C153.628 53.9707 153.096 53.742 152.415 53.742C151.724 53.742 151.178 53.9707 150.777 54.428C150.385 54.876 150.189 55.4967 150.189 56.29C150.189 57.0833 150.385 57.7087 150.777 58.166C151.178 58.614 151.724 58.838 152.415 58.838ZM163.073 53.854V57.704C163.073 58.2267 163.18 58.5953 163.395 58.81C163.609 59.0153 163.913 59.118 164.305 59.118C164.566 59.118 164.818 59.076 165.061 58.992V59.958C164.771 60.0513 164.445 60.098 164.081 60.098C163.409 60.098 162.881 59.9113 162.499 59.538C162.125 59.1553 161.939 58.5953 161.939 57.858V53.854H160.567V52.958H161.939V51.152L163.073 50.746V52.958H165.089V53.854H163.073ZM172.657 52.958V60H171.537V58.726C171.332 59.1647 171.019 59.5053 170.599 59.748C170.189 59.9813 169.708 60.098 169.157 60.098C168.532 60.098 167.981 59.9487 167.505 59.65C167.039 59.3513 166.675 58.9313 166.413 58.39C166.161 57.8393 166.035 57.2 166.035 56.472C166.035 55.744 166.166 55.1047 166.427 54.554C166.689 53.994 167.053 53.56 167.519 53.252C167.995 52.944 168.541 52.79 169.157 52.79C169.708 52.79 170.189 52.9113 170.599 53.154C171.01 53.3967 171.323 53.7373 171.537 54.176V52.958H172.657ZM169.381 59.16C170.072 59.16 170.604 58.9267 170.977 58.46C171.351 57.984 171.537 57.312 171.537 56.444C171.537 55.576 171.351 54.9087 170.977 54.442C170.604 53.9753 170.072 53.742 169.381 53.742C168.691 53.742 168.149 53.9847 167.757 54.47C167.375 54.946 167.183 55.6133 167.183 56.472C167.183 57.3307 167.375 57.9933 167.757 58.46C168.14 58.9267 168.681 59.16 169.381 59.16ZM174.85 52.958H175.984V60H174.85V52.958ZM176.124 49.976V51.264H174.738V49.976H176.124ZM178.186 49.696H179.32V60H178.186V49.696ZM189.918 60L186.306 56.612V60H185.172V49.696H186.306V56.192L189.624 52.972H191.066L187.538 56.346L191.402 60H189.918ZM198.148 56.444H192.982C192.991 57.34 193.197 58.0167 193.598 58.474C194.009 58.9313 194.601 59.16 195.376 59.16C196.197 59.16 196.953 58.8847 197.644 58.334L198.022 59.16C197.714 59.4493 197.317 59.678 196.832 59.846C196.356 60.014 195.866 60.098 195.362 60.098C194.261 60.098 193.397 59.776 192.772 59.132C192.147 58.4787 191.834 57.5873 191.834 56.458C191.834 55.7393 191.974 55.1047 192.254 54.554C192.534 53.994 192.926 53.56 193.43 53.252C193.934 52.944 194.508 52.79 195.152 52.79C196.085 52.79 196.818 53.098 197.35 53.714C197.882 54.3207 198.148 55.1607 198.148 56.234V56.444ZM195.166 53.672C194.578 53.672 194.097 53.8493 193.724 54.204C193.36 54.5587 193.127 55.058 193.024 55.702H197.126C197.07 55.0393 196.874 54.5353 196.538 54.19C196.211 53.8447 195.754 53.672 195.166 53.672ZM205.975 52.958L202.685 60.644C202.34 61.4467 201.906 62.0347 201.383 62.408C200.861 62.7813 200.217 63.038 199.451 63.178L199.213 62.296C199.876 62.1467 200.375 61.946 200.711 61.694C201.057 61.4513 201.341 61.0733 201.565 60.56L201.845 59.93L198.863 52.958H200.053L202.433 58.768L204.841 52.958H205.975ZM217.921 52.958L215.317 60H214.225L212.209 54.498L210.207 60H209.115L206.511 52.958H207.701L209.689 58.642L211.747 52.958H212.741L214.771 58.656L216.801 52.958H217.921ZM222.223 60.098C221.56 60.098 220.977 59.9487 220.473 59.65C219.969 59.3513 219.577 58.9267 219.297 58.376C219.026 57.8253 218.891 57.1813 218.891 56.444C218.891 55.7067 219.026 55.0627 219.297 54.512C219.577 53.9613 219.969 53.5367 220.473 53.238C220.977 52.9393 221.56 52.79 222.223 52.79C222.885 52.79 223.469 52.9393 223.973 53.238C224.477 53.5367 224.864 53.9613 225.135 54.512C225.415 55.0627 225.555 55.7067 225.555 56.444C225.555 57.1813 225.415 57.8253 225.135 58.376C224.864 58.9267 224.477 59.3513 223.973 59.65C223.469 59.9487 222.885 60.098 222.223 60.098ZM222.223 59.16C222.923 59.16 223.459 58.9313 223.833 58.474C224.206 58.0073 224.393 57.3307 224.393 56.444C224.393 55.5853 224.201 54.9227 223.819 54.456C223.436 53.98 222.904 53.742 222.223 53.742C221.532 53.742 220.995 53.98 220.613 54.456C220.23 54.9227 220.039 55.5853 220.039 56.444C220.039 57.3307 220.225 58.0073 220.599 58.474C220.981 58.9313 221.523 59.16 222.223 59.16ZM230.598 52.79C230.832 52.79 231.046 52.818 231.242 52.874L231.214 53.91C231 53.8353 230.752 53.798 230.472 53.798C229.791 53.798 229.282 54.0127 228.946 54.442C228.62 54.862 228.456 55.3753 228.456 55.982V60H227.322V54.932C227.322 54.204 227.285 53.546 227.21 52.958H228.288L228.4 54.26C228.578 53.784 228.862 53.42 229.254 53.168C229.646 52.916 230.094 52.79 230.598 52.79ZM238.46 49.696V60H237.34V58.726C237.135 59.1647 236.822 59.5053 236.402 59.748C235.991 59.9813 235.511 60.098 234.96 60.098C234.344 60.098 233.798 59.944 233.322 59.636C232.855 59.328 232.491 58.8987 232.23 58.348C231.969 57.788 231.838 57.144 231.838 56.416C231.838 55.688 231.964 55.0533 232.216 54.512C232.477 53.9613 232.846 53.5367 233.322 53.238C233.798 52.9393 234.344 52.79 234.96 52.79C235.511 52.79 235.991 52.9113 236.402 53.154C236.813 53.3873 237.121 53.7187 237.326 54.148V49.696H238.46ZM235.184 59.16C235.875 59.16 236.407 58.9267 236.78 58.46C237.153 57.984 237.34 57.312 237.34 56.444C237.34 55.5853 237.153 54.9227 236.78 54.456C236.407 53.98 235.875 53.742 235.184 53.742C234.493 53.742 233.952 53.9753 233.56 54.442C233.177 54.9087 232.986 55.5667 232.986 56.416C232.986 57.284 233.177 57.9607 233.56 58.446C233.952 58.922 234.493 59.16 235.184 59.16ZM243.033 60.098C241.847 60.098 240.909 59.7947 240.219 59.188L240.597 58.348C240.979 58.6467 241.367 58.8613 241.759 58.992C242.151 59.1227 242.589 59.188 243.075 59.188C243.607 59.188 244.008 59.0993 244.279 58.922C244.559 58.7353 244.699 58.4693 244.699 58.124C244.699 57.844 244.605 57.62 244.419 57.452C244.232 57.284 243.924 57.1533 243.495 57.06L242.305 56.78C241.717 56.6493 241.259 56.416 240.933 56.08C240.615 55.744 240.457 55.3427 240.457 54.876C240.457 54.26 240.704 53.7607 241.199 53.378C241.693 52.986 242.347 52.79 243.159 52.79C243.653 52.79 244.12 52.8693 244.559 53.028C244.997 53.1867 245.366 53.4153 245.665 53.714L245.287 54.54C244.624 53.9893 243.915 53.714 243.159 53.714C242.655 53.714 242.263 53.812 241.983 54.008C241.712 54.1947 241.577 54.4607 241.577 54.806C241.577 55.0953 241.661 55.324 241.829 55.492C242.006 55.66 242.286 55.7907 242.669 55.884L243.859 56.178C244.512 56.3273 244.997 56.5607 245.315 56.878C245.632 57.186 245.791 57.592 245.791 58.096C245.791 58.7027 245.543 59.188 245.049 59.552C244.554 59.916 243.882 60.098 243.033 60.098Z" fill="#5B5151"/>
<circle cx="41" cy="43" r="15" fill="white"/>
<mask id="mask0" mask-type="alpha" maskUnits="userSpaceOnUse" x="26" y="28" width="30" height="30">
<circle cx="41" cy="43" r="15" fill="white"/>
</mask>
<g mask="url(#mask0)">
<path d="M46.3763 40.5393C46.3763 42.0615 45.8304 43.3792 44.7535 44.4562C43.6766 45.5331 42.3587 46.079 40.8365 46.079H40.8338C39.3135 46.0785 37.9966 45.5326 36.9197 44.4562C35.8426 43.3792 35.2969 42.0615 35.2969 40.5393C35.2969 39.0175 35.8426 37.6997 36.9197 36.6228C37.996 35.5463 39.313 35.0005 40.8338 35H40.8365C42.3582 35 43.676 35.5459 44.7535 36.6228C45.8304 37.6997 46.3763 39.0175 46.3763 40.5393Z" fill="#FFD589"/>
<path d="M50.5759 54.0444C50.5759 55.2454 50.1939 56.2177 49.4415 56.9338C48.6978 57.6415 47.7142 58 46.5184 58H35.4437C34.2479 58 33.2643 57.6415 32.5212 56.9338C31.7682 56.2172 31.3867 55.245 31.3867 54.0444C31.3867 53.5826 31.402 53.1256 31.4325 52.6862C31.4636 52.237 31.5264 51.7482 31.619 51.2324C31.7124 50.7125 31.8324 50.221 31.9761 49.7718C32.1253 49.3068 32.3271 48.8481 32.5768 48.4087C32.8362 47.9526 33.1408 47.5553 33.4823 47.2282C33.8402 46.8859 34.2779 46.6109 34.7838 46.4105C35.2879 46.2112 35.8468 46.1101 36.4448 46.1101C36.6794 46.1101 36.9067 46.2061 37.3447 46.4914C37.6188 46.6702 37.9346 46.8738 38.2833 47.0966C38.5844 47.2886 38.9922 47.4686 39.4963 47.6313C39.9394 47.7747 40.3892 47.8547 40.8335 47.8686C40.8824 47.8703 40.9314 47.8712 40.9803 47.8712C41.4738 47.8712 41.9728 47.7903 42.4649 47.6313C42.969 47.4686 43.3774 47.2886 43.6783 47.0966C44.0306 46.8715 44.3465 46.6681 44.6166 46.4919C45.0549 46.2061 45.2818 46.1101 45.5169 46.1101C46.1144 46.1101 46.6733 46.2112 47.1778 46.4105C47.6837 46.6109 48.1213 46.8864 48.479 47.2282C48.821 47.5553 49.1256 47.9526 49.3848 48.4087C49.6347 48.8484 49.8368 49.3068 49.9854 49.7712C50.1293 50.221 50.2497 50.7125 50.3431 51.2328C50.4352 51.749 50.4982 52.2379 50.5291 52.6859C50.5601 53.1239 50.5754 53.5808 50.5759 54.0444Z" fill="#D55A5F"/>
</g>
<path d="M50 112C50 100.954 58.9543 92 70 92H323C334.046 92 343 100.954 343 112V170H70C58.9543 170 50 161.046 50 150V112Z" fill="#FCFCFC"/>
<path d="M108.816 113.968V118H107.668V113.954L103.748 108.032H105.092L108.256 112.932L111.42 108.032H112.736L108.816 113.968ZM115.428 118.098C114.765 118.098 114.182 117.949 113.678 117.65C113.174 117.351 112.782 116.927 112.502 116.376C112.231 115.825 112.096 115.181 112.096 114.444C112.096 113.707 112.231 113.063 112.502 112.512C112.782 111.961 113.174 111.537 113.678 111.238C114.182 110.939 114.765 110.79 115.428 110.79C116.09 110.79 116.674 110.939 117.178 111.238C117.682 111.537 118.069 111.961 118.34 112.512C118.62 113.063 118.76 113.707 118.76 114.444C118.76 115.181 118.62 115.825 118.34 116.376C118.069 116.927 117.682 117.351 117.178 117.65C116.674 117.949 116.09 118.098 115.428 118.098ZM115.428 117.16C116.128 117.16 116.664 116.931 117.038 116.474C117.411 116.007 117.598 115.331 117.598 114.444C117.598 113.585 117.406 112.923 117.024 112.456C116.641 111.98 116.109 111.742 115.428 111.742C114.737 111.742 114.2 111.98 113.818 112.456C113.435 112.923 113.244 113.585 113.244 114.444C113.244 115.331 113.43 116.007 113.804 116.474C114.186 116.931 114.728 117.16 115.428 117.16ZM126.422 110.958V118H125.316V116.782C125.092 117.211 124.779 117.538 124.378 117.762C123.976 117.986 123.524 118.098 123.02 118.098C122.189 118.098 121.559 117.865 121.13 117.398C120.7 116.931 120.486 116.241 120.486 115.326V110.958H121.62V115.298C121.62 115.933 121.75 116.399 122.012 116.698C122.273 116.997 122.67 117.146 123.202 117.146C123.827 117.146 124.331 116.945 124.714 116.544C125.096 116.133 125.288 115.597 125.288 114.934V110.958H126.422ZM133.77 111.854V115.704C133.77 116.227 133.877 116.595 134.092 116.81C134.307 117.015 134.61 117.118 135.002 117.118C135.263 117.118 135.515 117.076 135.758 116.992V117.958C135.469 118.051 135.142 118.098 134.778 118.098C134.106 118.098 133.579 117.911 133.196 117.538C132.823 117.155 132.636 116.595 132.636 115.858V111.854H131.264V110.958H132.636V109.152L133.77 108.746V110.958H135.786V111.854H133.77ZM143.355 110.958V118H142.235V116.726C142.029 117.165 141.717 117.505 141.297 117.748C140.886 117.981 140.405 118.098 139.855 118.098C139.229 118.098 138.679 117.949 138.203 117.65C137.736 117.351 137.372 116.931 137.111 116.39C136.859 115.839 136.733 115.2 136.733 114.472C136.733 113.744 136.863 113.105 137.125 112.554C137.386 111.994 137.75 111.56 138.217 111.252C138.693 110.944 139.239 110.79 139.855 110.79C140.405 110.79 140.886 110.911 141.297 111.154C141.707 111.397 142.02 111.737 142.235 112.176V110.958H143.355ZM140.079 117.16C140.769 117.16 141.301 116.927 141.675 116.46C142.048 115.984 142.235 115.312 142.235 114.444C142.235 113.576 142.048 112.909 141.675 112.442C141.301 111.975 140.769 111.742 140.079 111.742C139.388 111.742 138.847 111.985 138.455 112.47C138.072 112.946 137.881 113.613 137.881 114.472C137.881 115.331 138.072 115.993 138.455 116.46C138.837 116.927 139.379 117.16 140.079 117.16ZM150.293 118L146.681 114.612V118H145.547V107.696H146.681V114.192L149.999 110.972H151.441L147.913 114.346L151.777 118H150.293ZM158.523 114.444H153.357C153.366 115.34 153.572 116.017 153.973 116.474C154.384 116.931 154.976 117.16 155.751 117.16C156.572 117.16 157.328 116.885 158.019 116.334L158.397 117.16C158.089 117.449 157.692 117.678 157.207 117.846C156.731 118.014 156.241 118.098 155.737 118.098C154.636 118.098 153.772 117.776 153.147 117.132C152.522 116.479 152.209 115.587 152.209 114.458C152.209 113.739 152.349 113.105 152.629 112.554C152.909 111.994 153.301 111.56 153.805 111.252C154.309 110.944 154.883 110.79 155.527 110.79C156.46 110.79 157.193 111.098 157.725 111.714C158.257 112.321 158.523 113.161 158.523 114.234V114.444ZM155.541 111.672C154.953 111.672 154.472 111.849 154.099 112.204C153.735 112.559 153.502 113.058 153.399 113.702H157.501C157.445 113.039 157.249 112.535 156.913 112.19C156.586 111.845 156.129 111.672 155.541 111.672ZM166.849 118.098C166.167 118.098 165.57 117.949 165.057 117.65C164.553 117.351 164.161 116.931 163.881 116.39C163.61 115.839 163.475 115.2 163.475 114.472C163.475 113.744 163.615 113.105 163.895 112.554C164.175 111.994 164.571 111.56 165.085 111.252C165.607 110.944 166.214 110.79 166.905 110.79C167.381 110.79 167.838 110.874 168.277 111.042C168.725 111.201 169.093 111.425 169.383 111.714L169.005 112.554C168.65 112.274 168.305 112.069 167.969 111.938C167.642 111.807 167.306 111.742 166.961 111.742C166.242 111.742 165.677 111.985 165.267 112.47C164.856 112.946 164.651 113.613 164.651 114.472C164.651 115.321 164.851 115.984 165.253 116.46C165.663 116.927 166.233 117.16 166.961 117.16C167.306 117.16 167.642 117.095 167.969 116.964C168.305 116.833 168.65 116.628 169.005 116.348L169.383 117.188C169.084 117.468 168.706 117.692 168.249 117.86C167.801 118.019 167.334 118.098 166.849 118.098ZM173.738 118.098C173.076 118.098 172.492 117.949 171.988 117.65C171.484 117.351 171.092 116.927 170.812 116.376C170.542 115.825 170.406 115.181 170.406 114.444C170.406 113.707 170.542 113.063 170.812 112.512C171.092 111.961 171.484 111.537 171.988 111.238C172.492 110.939 173.076 110.79 173.738 110.79C174.401 110.79 174.984 110.939 175.488 111.238C175.992 111.537 176.38 111.961 176.65 112.512C176.93 113.063 177.07 113.707 177.07 114.444C177.07 115.181 176.93 115.825 176.65 116.376C176.38 116.927 175.992 117.351 175.488 117.65C174.984 117.949 174.401 118.098 173.738 118.098ZM173.738 117.16C174.438 117.16 174.975 116.931 175.348 116.474C175.722 116.007 175.908 115.331 175.908 114.444C175.908 113.585 175.717 112.923 175.334 112.456C174.952 111.98 174.42 111.742 173.738 111.742C173.048 111.742 172.511 111.98 172.128 112.456C171.746 112.923 171.554 113.585 171.554 114.444C171.554 115.331 171.741 116.007 172.114 116.474C172.497 116.931 173.038 117.16 173.738 117.16ZM182.352 110.79C184.041 110.79 184.886 111.719 184.886 113.576V118H183.752V113.632C183.752 112.979 183.621 112.503 183.36 112.204C183.099 111.896 182.688 111.742 182.128 111.742C181.475 111.742 180.952 111.943 180.56 112.344C180.168 112.745 179.972 113.287 179.972 113.968V118H178.838V112.932C178.838 112.204 178.801 111.546 178.726 110.958H179.804L179.916 112.218C180.131 111.761 180.453 111.411 180.882 111.168C181.311 110.916 181.801 110.79 182.352 110.79ZM188.54 111.854V115.704C188.54 116.227 188.647 116.595 188.862 116.81C189.076 117.015 189.38 117.118 189.772 117.118C190.033 117.118 190.285 117.076 190.528 116.992V117.958C190.238 118.051 189.912 118.098 189.548 118.098C188.876 118.098 188.348 117.911 187.966 117.538C187.592 117.155 187.406 116.595 187.406 115.858V111.854H186.034V110.958H187.406V109.152L188.54 108.746V110.958H190.556V111.854H188.54ZM195.198 110.79C195.431 110.79 195.646 110.818 195.842 110.874L195.814 111.91C195.599 111.835 195.352 111.798 195.072 111.798C194.391 111.798 193.882 112.013 193.546 112.442C193.219 112.862 193.056 113.375 193.056 113.982V118H191.922V112.932C191.922 112.204 191.885 111.546 191.81 110.958H192.888L193 112.26C193.177 111.784 193.462 111.42 193.854 111.168C194.246 110.916 194.694 110.79 195.198 110.79ZM199.77 118.098C199.107 118.098 198.524 117.949 198.02 117.65C197.516 117.351 197.124 116.927 196.844 116.376C196.573 115.825 196.438 115.181 196.438 114.444C196.438 113.707 196.573 113.063 196.844 112.512C197.124 111.961 197.516 111.537 198.02 111.238C198.524 110.939 199.107 110.79 199.77 110.79C200.432 110.79 201.016 110.939 201.52 111.238C202.024 111.537 202.411 111.961 202.682 112.512C202.962 113.063 203.102 113.707 203.102 114.444C203.102 115.181 202.962 115.825 202.682 116.376C202.411 116.927 202.024 117.351 201.52 117.65C201.016 117.949 200.432 118.098 199.77 118.098ZM199.77 117.16C200.47 117.16 201.006 116.931 201.38 116.474C201.753 116.007 201.94 115.331 201.94 114.444C201.94 113.585 201.748 112.923 201.366 112.456C200.983 111.98 200.451 111.742 199.77 111.742C199.079 111.742 198.542 111.98 198.16 112.456C197.777 112.923 197.586 113.585 197.586 114.444C197.586 115.331 197.772 116.007 198.146 116.474C198.528 116.931 199.07 117.16 199.77 117.16ZM204.869 107.696H206.003V118H204.869V107.696ZM214.768 118.098C214.105 118.098 213.522 117.949 213.018 117.65C212.514 117.351 212.122 116.927 211.842 116.376C211.571 115.825 211.436 115.181 211.436 114.444C211.436 113.707 211.571 113.063 211.842 112.512C212.122 111.961 212.514 111.537 213.018 111.238C213.522 110.939 214.105 110.79 214.768 110.79C215.43 110.79 216.014 110.939 216.518 111.238C217.022 111.537 217.409 111.961 217.68 112.512C217.96 113.063 218.1 113.707 218.1 114.444C218.1 115.181 217.96 115.825 217.68 116.376C217.409 116.927 217.022 117.351 216.518 117.65C216.014 117.949 215.43 118.098 214.768 118.098ZM214.768 117.16C215.468 117.16 216.004 116.931 216.378 116.474C216.751 116.007 216.938 115.331 216.938 114.444C216.938 113.585 216.746 112.923 216.364 112.456C215.981 111.98 215.449 111.742 214.768 111.742C214.077 111.742 213.54 111.98 213.158 112.456C212.775 112.923 212.584 113.585 212.584 114.444C212.584 115.331 212.77 116.007 213.144 116.474C213.526 116.931 214.068 117.16 214.768 117.16ZM222.556 108.62C222.182 108.62 221.888 108.727 221.674 108.942C221.468 109.147 221.366 109.507 221.366 110.02V110.958H223.088V111.854H221.366V118H220.232V111.854H218.86V110.958H220.232V109.88C220.232 109.143 220.414 108.587 220.778 108.214C221.151 107.831 221.669 107.64 222.332 107.64C222.658 107.64 222.976 107.682 223.284 107.766V108.732C223.022 108.657 222.78 108.62 222.556 108.62ZM231.735 110.79C232.351 110.79 232.897 110.944 233.373 111.252C233.849 111.56 234.218 111.994 234.479 112.554C234.74 113.105 234.871 113.744 234.871 114.472C234.871 115.2 234.74 115.839 234.479 116.39C234.218 116.931 233.849 117.351 233.373 117.65C232.906 117.949 232.36 118.098 231.735 118.098C231.184 118.098 230.704 117.977 230.293 117.734C229.882 117.491 229.57 117.146 229.355 116.698V121.024H228.221V112.932C228.221 112.204 228.184 111.546 228.109 110.958H229.187L229.299 112.316C229.495 111.831 229.803 111.457 230.223 111.196C230.652 110.925 231.156 110.79 231.735 110.79ZM231.525 117.16C232.216 117.16 232.748 116.927 233.121 116.46C233.504 115.993 233.695 115.331 233.695 114.472C233.695 113.613 233.504 112.946 233.121 112.47C232.738 111.985 232.206 111.742 231.525 111.742C230.825 111.742 230.288 111.975 229.915 112.442C229.542 112.909 229.355 113.576 229.355 114.444C229.355 115.312 229.542 115.984 229.915 116.46C230.288 116.927 230.825 117.16 231.525 117.16ZM242.817 110.958V118H241.697V116.726C241.492 117.165 241.179 117.505 240.759 117.748C240.349 117.981 239.868 118.098 239.317 118.098C238.692 118.098 238.141 117.949 237.665 117.65C237.199 117.351 236.835 116.931 236.573 116.39C236.321 115.839 236.195 115.2 236.195 114.472C236.195 113.744 236.326 113.105 236.587 112.554C236.849 111.994 237.213 111.56 237.679 111.252C238.155 110.944 238.701 110.79 239.317 110.79C239.868 110.79 240.349 110.911 240.759 111.154C241.17 111.397 241.483 111.737 241.697 112.176V110.958H242.817ZM239.541 117.16C240.232 117.16 240.764 116.927 241.137 116.46C241.511 115.984 241.697 115.312 241.697 114.444C241.697 113.576 241.511 112.909 241.137 112.442C240.764 111.975 240.232 111.742 239.541 111.742C238.851 111.742 238.309 111.985 237.917 112.47C237.535 112.946 237.343 113.613 237.343 114.472C237.343 115.331 237.535 115.993 237.917 116.46C238.3 116.927 238.841 117.16 239.541 117.16ZM251.282 110.958V117.944C251.282 118.989 251.011 119.778 250.47 120.31C249.938 120.851 249.149 121.122 248.104 121.122C247.031 121.122 246.107 120.879 245.332 120.394L245.528 119.47C245.976 119.722 246.396 119.904 246.788 120.016C247.189 120.128 247.628 120.184 248.104 120.184C248.785 120.184 249.299 120.002 249.644 119.638C249.989 119.283 250.162 118.751 250.162 118.042V116.376C249.947 116.824 249.63 117.174 249.21 117.426C248.799 117.669 248.309 117.79 247.74 117.79C247.124 117.79 246.573 117.645 246.088 117.356C245.612 117.067 245.243 116.656 244.982 116.124C244.721 115.592 244.59 114.981 244.59 114.29C244.59 113.599 244.721 112.988 244.982 112.456C245.243 111.924 245.612 111.513 246.088 111.224C246.573 110.935 247.124 110.79 247.74 110.79C248.3 110.79 248.785 110.911 249.196 111.154C249.616 111.397 249.933 111.737 250.148 112.176V110.958H251.282ZM247.964 116.838C248.645 116.838 249.177 116.614 249.56 116.166C249.952 115.709 250.148 115.083 250.148 114.29C250.148 113.497 249.952 112.876 249.56 112.428C249.177 111.971 248.645 111.742 247.964 111.742C247.273 111.742 246.727 111.971 246.326 112.428C245.934 112.876 245.738 113.497 245.738 114.29C245.738 115.083 245.934 115.709 246.326 116.166C246.727 116.614 247.273 116.838 247.964 116.838ZM259.353 114.444H254.187C254.197 115.34 254.402 116.017 254.803 116.474C255.214 116.931 255.807 117.16 256.581 117.16C257.403 117.16 258.159 116.885 258.849 116.334L259.227 117.16C258.919 117.449 258.523 117.678 258.037 117.846C257.561 118.014 257.071 118.098 256.567 118.098C255.466 118.098 254.603 117.776 253.977 117.132C253.352 116.479 253.039 115.587 253.039 114.458C253.039 113.739 253.179 113.105 253.459 112.554C253.739 111.994 254.131 111.56 254.635 111.252C255.139 110.944 255.713 110.79 256.357 110.79C257.291 110.79 258.023 111.098 258.555 111.714C259.087 112.321 259.353 113.161 259.353 114.234V114.444ZM256.371 111.672C255.783 111.672 255.303 111.849 254.929 112.204C254.565 112.559 254.332 113.058 254.229 113.702H258.331C258.275 113.039 258.079 112.535 257.743 112.19C257.417 111.845 256.959 111.672 256.371 111.672ZM267.679 118.098C266.997 118.098 266.4 117.949 265.887 117.65C265.383 117.351 264.991 116.931 264.711 116.39C264.44 115.839 264.305 115.2 264.305 114.472C264.305 113.744 264.445 113.105 264.725 112.554C265.005 111.994 265.401 111.56 265.915 111.252C266.437 110.944 267.044 110.79 267.735 110.79C268.211 110.79 268.668 110.874 269.107 111.042C269.555 111.201 269.923 111.425 270.213 111.714L269.835 112.554C269.48 112.274 269.135 112.069 268.799 111.938C268.472 111.807 268.136 111.742 267.791 111.742C267.072 111.742 266.507 111.985 266.097 112.47C265.686 112.946 265.481 113.613 265.481 114.472C265.481 115.321 265.681 115.984 266.083 116.46C266.493 116.927 267.063 117.16 267.791 117.16C268.136 117.16 268.472 117.095 268.799 116.964C269.135 116.833 269.48 116.628 269.835 116.348L270.213 117.188C269.914 117.468 269.536 117.692 269.079 117.86C268.631 118.019 268.164 118.098 267.679 118.098ZM274.932 110.79C275.166 110.79 275.38 110.818 275.576 110.874L275.548 111.91C275.334 111.835 275.086 111.798 274.806 111.798C274.125 111.798 273.616 112.013 273.28 112.442C272.954 112.862 272.79 113.375 272.79 113.982V118H271.656V112.932C271.656 112.204 271.619 111.546 271.544 110.958H272.622L272.734 112.26C272.912 111.784 273.196 111.42 273.588 111.168C273.98 110.916 274.428 110.79 274.932 110.79ZM282.486 114.444H277.32C277.329 115.34 277.535 116.017 277.936 116.474C278.347 116.931 278.939 117.16 279.714 117.16C280.535 117.16 281.291 116.885 281.982 116.334L282.36 117.16C282.052 117.449 281.655 117.678 281.17 117.846C280.694 118.014 280.204 118.098 279.7 118.098C278.599 118.098 277.735 117.776 277.11 117.132C276.485 116.479 276.172 115.587 276.172 114.458C276.172 113.739 276.312 113.105 276.592 112.554C276.872 111.994 277.264 111.56 277.768 111.252C278.272 110.944 278.846 110.79 279.49 110.79C280.423 110.79 281.156 111.098 281.688 111.714C282.22 112.321 282.486 113.161 282.486 114.234V114.444ZM279.504 111.672C278.916 111.672 278.435 111.849 278.062 112.204C277.698 112.559 277.465 113.058 277.362 113.702H281.464C281.408 113.039 281.212 112.535 280.876 112.19C280.549 111.845 280.092 111.672 279.504 111.672ZM290.409 110.958V118H289.289V116.726C289.084 117.165 288.771 117.505 288.351 117.748C287.941 117.981 287.46 118.098 286.909 118.098C286.284 118.098 285.733 117.949 285.257 117.65C284.791 117.351 284.427 116.931 284.165 116.39C283.913 115.839 283.787 115.2 283.787 114.472C283.787 113.744 283.918 113.105 284.179 112.554C284.441 111.994 284.805 111.56 285.271 111.252C285.747 110.944 286.293 110.79 286.909 110.79C287.46 110.79 287.941 110.911 288.351 111.154C288.762 111.397 289.075 111.737 289.289 112.176V110.958H290.409ZM287.133 117.16C287.824 117.16 288.356 116.927 288.729 116.46C289.103 115.984 289.289 115.312 289.289 114.444C289.289 113.576 289.103 112.909 288.729 112.442C288.356 111.975 287.824 111.742 287.133 111.742C286.443 111.742 285.901 111.985 285.509 112.47C285.127 112.946 284.935 113.613 284.935 114.472C284.935 115.331 285.127 115.993 285.509 116.46C285.892 116.927 286.433 117.16 287.133 117.16ZM294.114 111.854V115.704C294.114 116.227 294.221 116.595 294.436 116.81C294.65 117.015 294.954 117.118 295.346 117.118C295.607 117.118 295.859 117.076 296.102 116.992V117.958C295.812 118.051 295.486 118.098 295.122 118.098C294.45 118.098 293.922 117.911 293.54 117.538C293.166 117.155 292.98 116.595 292.98 115.858V111.854H291.608V110.958H292.98V109.152L294.114 108.746V110.958H296.13V111.854H294.114ZM297.496 110.958H298.63V118H297.496V110.958ZM298.77 107.976V109.264H297.384V107.976H298.77ZM303.744 118.098C303.082 118.098 302.498 117.949 301.994 117.65C301.49 117.351 301.098 116.927 300.818 116.376C300.548 115.825 300.412 115.181 300.412 114.444C300.412 113.707 300.548 113.063 300.818 112.512C301.098 111.961 301.49 111.537 301.994 111.238C302.498 110.939 303.082 110.79 303.744 110.79C304.407 110.79 304.99 110.939 305.494 111.238C305.998 111.537 306.386 111.961 306.656 112.512C306.936 113.063 307.076 113.707 307.076 114.444C307.076 115.181 306.936 115.825 306.656 116.376C306.386 116.927 305.998 117.351 305.494 117.65C304.99 117.949 304.407 118.098 303.744 118.098ZM303.744 117.16C304.444 117.16 304.981 116.931 305.354 116.474C305.728 116.007 305.914 115.331 305.914 114.444C305.914 113.585 305.723 112.923 305.34 112.456C304.958 111.98 304.426 111.742 303.744 111.742C303.054 111.742 302.517 111.98 302.134 112.456C301.752 112.923 301.56 113.585 301.56 114.444C301.56 115.331 301.747 116.007 302.12 116.474C302.503 116.931 303.044 117.16 303.744 117.16ZM312.358 110.79C314.047 110.79 314.892 111.719 314.892 113.576V118H313.758V113.632C313.758 112.979 313.627 112.503 313.366 112.204C313.105 111.896 312.694 111.742 312.134 111.742C311.481 111.742 310.958 111.943 310.566 112.344C310.174 112.745 309.978 113.287 309.978 113.968V118H308.844V112.932C308.844 112.204 308.807 111.546 308.732 110.958H309.81L309.922 112.218C310.137 111.761 310.459 111.411 310.888 111.168C311.317 110.916 311.807 110.79 312.358 110.79ZM107.794 126.62C107.421 126.62 107.127 126.727 106.912 126.942C106.707 127.147 106.604 127.507 106.604 128.02V128.958H108.326V129.854H106.604V136H105.47V129.854H104.098V128.958H105.47V127.88C105.47 127.143 105.652 126.587 106.016 126.214C106.389 125.831 106.907 125.64 107.57 125.64C107.897 125.64 108.214 125.682 108.522 125.766V126.732C108.261 126.657 108.018 126.62 107.794 126.62ZM112.652 136.098C111.99 136.098 111.406 135.949 110.902 135.65C110.398 135.351 110.006 134.927 109.726 134.376C109.456 133.825 109.32 133.181 109.32 132.444C109.32 131.707 109.456 131.063 109.726 130.512C110.006 129.961 110.398 129.537 110.902 129.238C111.406 128.939 111.99 128.79 112.652 128.79C113.315 128.79 113.898 128.939 114.402 129.238C114.906 129.537 115.294 129.961 115.564 130.512C115.844 131.063 115.984 131.707 115.984 132.444C115.984 133.181 115.844 133.825 115.564 134.376C115.294 134.927 114.906 135.351 114.402 135.65C113.898 135.949 113.315 136.098 112.652 136.098ZM112.652 135.16C113.352 135.16 113.889 134.931 114.262 134.474C114.636 134.007 114.822 133.331 114.822 132.444C114.822 131.585 114.631 130.923 114.248 130.456C113.866 129.98 113.334 129.742 112.652 129.742C111.962 129.742 111.425 129.98 111.042 130.456C110.66 130.923 110.468 131.585 110.468 132.444C110.468 133.331 110.655 134.007 111.028 134.474C111.411 134.931 111.952 135.16 112.652 135.16ZM121.028 128.79C121.261 128.79 121.476 128.818 121.672 128.874L121.644 129.91C121.429 129.835 121.182 129.798 120.902 129.798C120.221 129.798 119.712 130.013 119.376 130.442C119.049 130.862 118.886 131.375 118.886 131.982V136H117.752V130.932C117.752 130.204 117.715 129.546 117.64 128.958H118.718L118.83 130.26C119.007 129.784 119.292 129.42 119.684 129.168C120.076 128.916 120.524 128.79 121.028 128.79ZM132.677 128.958V136H131.557V134.726C131.351 135.165 131.039 135.505 130.619 135.748C130.208 135.981 129.727 136.098 129.177 136.098C128.551 136.098 128.001 135.949 127.525 135.65C127.058 135.351 126.694 134.931 126.433 134.39C126.181 133.839 126.055 133.2 126.055 132.472C126.055 131.744 126.185 131.105 126.447 130.554C126.708 129.994 127.072 129.56 127.539 129.252C128.015 128.944 128.561 128.79 129.177 128.79C129.727 128.79 130.208 128.911 130.619 129.154C131.029 129.397 131.342 129.737 131.557 130.176V128.958H132.677ZM129.401 135.16C130.091 135.16 130.623 134.927 130.997 134.46C131.37 133.984 131.557 133.312 131.557 132.444C131.557 131.576 131.37 130.909 130.997 130.442C130.623 129.975 130.091 129.742 129.401 129.742C128.71 129.742 128.169 129.985 127.777 130.47C127.394 130.946 127.203 131.613 127.203 132.472C127.203 133.331 127.394 133.993 127.777 134.46C128.159 134.927 128.701 135.16 129.401 135.16ZM134.869 125.696H136.003V136H134.869V125.696ZM138.205 125.696H139.339V136H138.205V125.696ZM146.704 129.854V133.704C146.704 134.227 146.811 134.595 147.026 134.81C147.24 135.015 147.544 135.118 147.936 135.118C148.197 135.118 148.449 135.076 148.692 134.992V135.958C148.402 136.051 148.076 136.098 147.712 136.098C147.04 136.098 146.512 135.911 146.13 135.538C145.756 135.155 145.57 134.595 145.57 133.858V129.854H144.198V128.958H145.57V127.152L146.704 126.746V128.958H148.72V129.854H146.704ZM153.6 128.79C155.289 128.79 156.134 129.719 156.134 131.576V136H155V131.632C155 130.979 154.869 130.503 154.608 130.204C154.347 129.896 153.936 129.742 153.376 129.742C152.723 129.742 152.2 129.943 151.808 130.344C151.416 130.745 151.22 131.287 151.22 131.968V136H150.086V125.696H151.22V130.106C151.444 129.677 151.761 129.35 152.172 129.126C152.592 128.902 153.068 128.79 153.6 128.79ZM164.17 132.444H159.004C159.013 133.34 159.218 134.017 159.62 134.474C160.03 134.931 160.623 135.16 161.398 135.16C162.219 135.16 162.975 134.885 163.666 134.334L164.044 135.16C163.736 135.449 163.339 135.678 162.854 135.846C162.378 136.014 161.888 136.098 161.384 136.098C160.282 136.098 159.419 135.776 158.794 135.132C158.168 134.479 157.856 133.587 157.856 132.458C157.856 131.739 157.996 131.105 158.276 130.554C158.556 129.994 158.948 129.56 159.452 129.252C159.956 128.944 160.53 128.79 161.174 128.79C162.107 128.79 162.84 129.098 163.372 129.714C163.904 130.321 164.17 131.161 164.17 132.234V132.444ZM161.188 129.672C160.6 129.672 160.119 129.849 159.746 130.204C159.382 130.559 159.148 131.058 159.046 131.702H163.148C163.092 131.039 162.896 130.535 162.56 130.19C162.233 129.845 161.776 129.672 161.188 129.672ZM169.541 125.696H170.675V136H169.541V125.696ZM175.789 136.098C175.126 136.098 174.543 135.949 174.039 135.65C173.535 135.351 173.143 134.927 172.863 134.376C172.592 133.825 172.457 133.181 172.457 132.444C172.457 131.707 172.592 131.063 172.863 130.512C173.143 129.961 173.535 129.537 174.039 129.238C174.543 128.939 175.126 128.79 175.789 128.79C176.452 128.79 177.035 128.939 177.539 129.238C178.043 129.537 178.43 129.961 178.701 130.512C178.981 131.063 179.121 131.707 179.121 132.444C179.121 133.181 178.981 133.825 178.701 134.376C178.43 134.927 178.043 135.351 177.539 135.65C177.035 135.949 176.452 136.098 175.789 136.098ZM175.789 135.16C176.489 135.16 177.026 134.931 177.399 134.474C177.772 134.007 177.959 133.331 177.959 132.444C177.959 131.585 177.768 130.923 177.385 130.456C177.002 129.98 176.47 129.742 175.789 129.742C175.098 129.742 174.562 129.98 174.179 130.456C173.796 130.923 173.605 131.585 173.605 132.444C173.605 133.331 173.792 134.007 174.165 134.474C174.548 134.931 175.089 135.16 175.789 135.16ZM184.403 128.79C186.092 128.79 186.937 129.719 186.937 131.576V136H185.803V131.632C185.803 130.979 185.672 130.503 185.411 130.204C185.15 129.896 184.739 129.742 184.179 129.742C183.526 129.742 183.003 129.943 182.611 130.344C182.219 130.745 182.023 131.287 182.023 131.968V136H180.889V130.932C180.889 130.204 180.852 129.546 180.777 128.958H181.855L181.967 130.218C182.182 129.761 182.504 129.411 182.933 129.168C183.362 128.916 183.852 128.79 184.403 128.79ZM195.35 128.958V135.944C195.35 136.989 195.08 137.778 194.538 138.31C194.006 138.851 193.218 139.122 192.172 139.122C191.099 139.122 190.175 138.879 189.4 138.394L189.596 137.47C190.044 137.722 190.464 137.904 190.856 138.016C191.258 138.128 191.696 138.184 192.172 138.184C192.854 138.184 193.367 138.002 193.712 137.638C194.058 137.283 194.23 136.751 194.23 136.042V134.376C194.016 134.824 193.698 135.174 193.278 135.426C192.868 135.669 192.378 135.79 191.808 135.79C191.192 135.79 190.642 135.645 190.156 135.356C189.68 135.067 189.312 134.656 189.05 134.124C188.789 133.592 188.658 132.981 188.658 132.29C188.658 131.599 188.789 130.988 189.05 130.456C189.312 129.924 189.68 129.513 190.156 129.224C190.642 128.935 191.192 128.79 191.808 128.79C192.368 128.79 192.854 128.911 193.264 129.154C193.684 129.397 194.002 129.737 194.216 130.176V128.958H195.35ZM192.032 134.838C192.714 134.838 193.246 134.614 193.628 134.166C194.02 133.709 194.216 133.083 194.216 132.29C194.216 131.497 194.02 130.876 193.628 130.428C193.246 129.971 192.714 129.742 192.032 129.742C191.342 129.742 190.796 129.971 190.394 130.428C190.002 130.876 189.806 131.497 189.806 132.29C189.806 133.083 190.002 133.709 190.394 134.166C190.796 134.614 191.342 134.838 192.032 134.838ZM202.69 129.854V133.704C202.69 134.227 202.797 134.595 203.012 134.81C203.227 135.015 203.53 135.118 203.922 135.118C204.183 135.118 204.435 135.076 204.678 134.992V135.958C204.389 136.051 204.062 136.098 203.698 136.098C203.026 136.098 202.499 135.911 202.116 135.538C201.743 135.155 201.556 134.595 201.556 133.858V129.854H200.184V128.958H201.556V127.152L202.69 126.746V128.958H204.706V129.854H202.69ZM212.274 128.958V136H211.154V134.726C210.949 135.165 210.636 135.505 210.216 135.748C209.806 135.981 209.325 136.098 208.774 136.098C208.149 136.098 207.598 135.949 207.122 135.65C206.656 135.351 206.292 134.931 206.03 134.39C205.778 133.839 205.652 133.2 205.652 132.472C205.652 131.744 205.783 131.105 206.044 130.554C206.306 129.994 206.67 129.56 207.136 129.252C207.612 128.944 208.158 128.79 208.774 128.79C209.325 128.79 209.806 128.911 210.216 129.154C210.627 129.397 210.94 129.737 211.154 130.176V128.958H212.274ZM208.998 135.16C209.689 135.16 210.221 134.927 210.594 134.46C210.968 133.984 211.154 133.312 211.154 132.444C211.154 131.576 210.968 130.909 210.594 130.442C210.221 129.975 209.689 129.742 208.998 129.742C208.308 129.742 207.766 129.985 207.374 130.47C206.992 130.946 206.8 131.613 206.8 132.472C206.8 133.331 206.992 133.993 207.374 134.46C207.757 134.927 208.298 135.16 208.998 135.16ZM214.467 128.958H215.601V136H214.467V128.958ZM215.741 125.976V127.264H214.355V125.976H215.741ZM217.803 125.696H218.937V136H217.803V125.696ZM229.535 136L225.923 132.612V136H224.789V125.696H225.923V132.192L229.241 128.972H230.683L227.155 132.346L231.019 136H229.535ZM237.765 132.444H232.599C232.609 133.34 232.814 134.017 233.215 134.474C233.626 134.931 234.219 135.16 234.993 135.16C235.815 135.16 236.571 134.885 237.261 134.334L237.639 135.16C237.331 135.449 236.935 135.678 236.449 135.846C235.973 136.014 235.483 136.098 234.979 136.098C233.878 136.098 233.015 135.776 232.389 135.132C231.764 134.479 231.451 133.587 231.451 132.458C231.451 131.739 231.591 131.105 231.871 130.554C232.151 129.994 232.543 129.56 233.047 129.252C233.551 128.944 234.125 128.79 234.769 128.79C235.703 128.79 236.435 129.098 236.967 129.714C237.499 130.321 237.765 131.161 237.765 132.234V132.444ZM234.783 129.672C234.195 129.672 233.715 129.849 233.341 130.204C232.977 130.559 232.744 131.058 232.641 131.702H236.743C236.687 131.039 236.491 130.535 236.155 130.19C235.829 129.845 235.371 129.672 234.783 129.672ZM245.593 128.958L242.303 136.644C241.957 137.447 241.523 138.035 241.001 138.408C240.478 138.781 239.834 139.038 239.069 139.178L238.831 138.296C239.493 138.147 239.993 137.946 240.329 137.694C240.674 137.451 240.959 137.073 241.183 136.56L241.463 135.93L238.481 128.958H239.671L242.051 134.768L244.459 128.958H245.593ZM257.538 128.958L254.934 136H253.842L251.826 130.498L249.824 136H248.732L246.128 128.958H247.318L249.306 134.642L251.364 128.958H252.358L254.388 134.656L256.418 128.958H257.538ZM261.84 136.098C261.177 136.098 260.594 135.949 260.09 135.65C259.586 135.351 259.194 134.927 258.914 134.376C258.643 133.825 258.508 133.181 258.508 132.444C258.508 131.707 258.643 131.063 258.914 130.512C259.194 129.961 259.586 129.537 260.09 129.238C260.594 128.939 261.177 128.79 261.84 128.79C262.503 128.79 263.086 128.939 263.59 129.238C264.094 129.537 264.481 129.961 264.752 130.512C265.032 131.063 265.172 131.707 265.172 132.444C265.172 133.181 265.032 133.825 264.752 134.376C264.481 134.927 264.094 135.351 263.59 135.65C263.086 135.949 262.503 136.098 261.84 136.098ZM261.84 135.16C262.54 135.16 263.077 134.931 263.45 134.474C263.823 134.007 264.01 133.331 264.01 132.444C264.01 131.585 263.819 130.923 263.436 130.456C263.053 129.98 262.521 129.742 261.84 129.742C261.149 129.742 260.613 129.98 260.23 130.456C259.847 130.923 259.656 131.585 259.656 132.444C259.656 133.331 259.843 134.007 260.216 134.474C260.599 134.931 261.14 135.16 261.84 135.16ZM270.216 128.79C270.449 128.79 270.664 128.818 270.86 128.874L270.832 129.91C270.617 129.835 270.37 129.798 270.09 129.798C269.408 129.798 268.9 130.013 268.564 130.442C268.237 130.862 268.074 131.375 268.074 131.982V136H266.94V130.932C266.94 130.204 266.902 129.546 266.828 128.958H267.906L268.018 130.26C268.195 129.784 268.48 129.42 268.872 129.168C269.264 128.916 269.712 128.79 270.216 128.79ZM278.077 125.696V136H276.957V134.726C276.752 135.165 276.439 135.505 276.019 135.748C275.609 135.981 275.128 136.098 274.577 136.098C273.961 136.098 273.415 135.944 272.939 135.636C272.473 135.328 272.109 134.899 271.847 134.348C271.586 133.788 271.455 133.144 271.455 132.416C271.455 131.688 271.581 131.053 271.833 130.512C272.095 129.961 272.463 129.537 272.939 129.238C273.415 128.939 273.961 128.79 274.577 128.79C275.128 128.79 275.609 128.911 276.019 129.154C276.43 129.387 276.738 129.719 276.943 130.148V125.696H278.077ZM274.801 135.16C275.492 135.16 276.024 134.927 276.397 134.46C276.771 133.984 276.957 133.312 276.957 132.444C276.957 131.585 276.771 130.923 276.397 130.456C276.024 129.98 275.492 129.742 274.801 129.742C274.111 129.742 273.569 129.975 273.177 130.442C272.795 130.909 272.603 131.567 272.603 132.416C272.603 133.284 272.795 133.961 273.177 134.446C273.569 134.922 274.111 135.16 274.801 135.16ZM282.65 136.098C281.464 136.098 280.526 135.795 279.836 135.188L280.214 134.348C280.596 134.647 280.984 134.861 281.376 134.992C281.768 135.123 282.206 135.188 282.692 135.188C283.224 135.188 283.625 135.099 283.896 134.922C284.176 134.735 284.316 134.469 284.316 134.124C284.316 133.844 284.222 133.62 284.036 133.452C283.849 133.284 283.541 133.153 283.112 133.06L281.922 132.78C281.334 132.649 280.876 132.416 280.55 132.08C280.232 131.744 280.074 131.343 280.074 130.876C280.074 130.26 280.321 129.761 280.816 129.378C281.31 128.986 281.964 128.79 282.776 128.79C283.27 128.79 283.737 128.869 284.176 129.028C284.614 129.187 284.983 129.415 285.282 129.714L284.904 130.54C284.241 129.989 283.532 129.714 282.776 129.714C282.272 129.714 281.88 129.812 281.6 130.008C281.329 130.195 281.194 130.461 281.194 130.806C281.194 131.095 281.278 131.324 281.446 131.492C281.623 131.66 281.903 131.791 282.286 131.884L283.476 132.178C284.129 132.327 284.614 132.561 284.932 132.878C285.249 133.186 285.408 133.592 285.408 134.096C285.408 134.703 285.16 135.188 284.666 135.552C284.171 135.916 283.499 136.098 282.65 136.098ZM111.28 146.958L107.99 154.644C107.645 155.447 107.211 156.035 106.688 156.408C106.165 156.781 105.521 157.038 104.756 157.178L104.518 156.296C105.181 156.147 105.68 155.946 106.016 155.694C106.361 155.451 106.646 155.073 106.87 154.56L107.15 153.93L104.168 146.958H105.358L107.738 152.768L110.146 146.958H111.28ZM115.359 154.098C114.697 154.098 114.113 153.949 113.609 153.65C113.105 153.351 112.713 152.927 112.433 152.376C112.163 151.825 112.027 151.181 112.027 150.444C112.027 149.707 112.163 149.063 112.433 148.512C112.713 147.961 113.105 147.537 113.609 147.238C114.113 146.939 114.697 146.79 115.359 146.79C116.022 146.79 116.605 146.939 117.109 147.238C117.613 147.537 118.001 147.961 118.271 148.512C118.551 149.063 118.691 149.707 118.691 150.444C118.691 151.181 118.551 151.825 118.271 152.376C118.001 152.927 117.613 153.351 117.109 153.65C116.605 153.949 116.022 154.098 115.359 154.098ZM115.359 153.16C116.059 153.16 116.596 152.931 116.969 152.474C117.343 152.007 117.529 151.331 117.529 150.444C117.529 149.585 117.338 148.923 116.955 148.456C116.573 147.98 116.041 147.742 115.359 147.742C114.669 147.742 114.132 147.98 113.749 148.456C113.367 148.923 113.175 149.585 113.175 150.444C113.175 151.331 113.362 152.007 113.735 152.474C114.118 152.931 114.659 153.16 115.359 153.16ZM126.353 146.958V154H125.247V152.782C125.023 153.211 124.711 153.538 124.309 153.762C123.908 153.986 123.455 154.098 122.951 154.098C122.121 154.098 121.491 153.865 121.061 153.398C120.632 152.931 120.417 152.241 120.417 151.326V146.958H121.551V151.298C121.551 151.933 121.682 152.399 121.943 152.698C122.205 152.997 122.601 153.146 123.133 153.146C123.759 153.146 124.263 152.945 124.645 152.544C125.028 152.133 125.219 151.597 125.219 150.934V146.958H126.353ZM129.785 144.032V145.054C129.785 145.446 129.72 145.805 129.589 146.132C129.459 146.459 129.239 146.781 128.931 147.098L128.399 146.678C128.763 146.258 128.969 145.857 129.015 145.474H128.343V144.032H129.785ZM138.009 146.972L134.971 154H133.893L130.897 146.972H132.087L134.467 152.768L136.875 146.972H138.009ZM145.07 150.444H139.904C139.913 151.34 140.119 152.017 140.52 152.474C140.931 152.931 141.523 153.16 142.298 153.16C143.119 153.16 143.875 152.885 144.566 152.334L144.944 153.16C144.636 153.449 144.239 153.678 143.754 153.846C143.278 154.014 142.788 154.098 142.284 154.098C141.183 154.098 140.319 153.776 139.694 153.132C139.069 152.479 138.756 151.587 138.756 150.458C138.756 149.739 138.896 149.105 139.176 148.554C139.456 147.994 139.848 147.56 140.352 147.252C140.856 146.944 141.43 146.79 142.074 146.79C143.007 146.79 143.74 147.098 144.272 147.714C144.804 148.321 145.07 149.161 145.07 150.234V150.444ZM142.088 147.672C141.5 147.672 141.019 147.849 140.646 148.204C140.282 148.559 140.049 149.058 139.946 149.702H144.048C143.992 149.039 143.796 148.535 143.46 148.19C143.133 147.845 142.676 147.672 142.088 147.672ZM153.956 146.79C154.572 146.79 155.118 146.939 155.594 147.238C156.07 147.537 156.438 147.961 156.7 148.512C156.961 149.053 157.092 149.688 157.092 150.416C157.092 151.144 156.961 151.788 156.7 152.348C156.438 152.899 156.07 153.328 155.594 153.636C155.118 153.944 154.572 154.098 153.956 154.098C153.405 154.098 152.924 153.977 152.514 153.734C152.103 153.491 151.79 153.146 151.576 152.698V154H150.442V143.696H151.576V148.204C151.781 147.747 152.089 147.397 152.5 147.154C152.92 146.911 153.405 146.79 153.956 146.79ZM153.746 153.16C154.427 153.16 154.959 152.922 155.342 152.446C155.724 151.961 155.916 151.284 155.916 150.416C155.916 149.567 155.724 148.909 155.342 148.442C154.968 147.975 154.436 147.742 153.746 147.742C153.046 147.742 152.509 147.975 152.136 148.442C151.762 148.909 151.576 149.576 151.576 150.444C151.576 151.312 151.762 151.984 152.136 152.46C152.509 152.927 153.046 153.16 153.746 153.16ZM164.73 150.444H159.564C159.573 151.34 159.779 152.017 160.18 152.474C160.591 152.931 161.183 153.16 161.958 153.16C162.779 153.16 163.535 152.885 164.226 152.334L164.604 153.16C164.296 153.449 163.899 153.678 163.414 153.846C162.938 154.014 162.448 154.098 161.944 154.098C160.843 154.098 159.979 153.776 159.354 153.132C158.729 152.479 158.416 151.587 158.416 150.458C158.416 149.739 158.556 149.105 158.836 148.554C159.116 147.994 159.508 147.56 160.012 147.252C160.516 146.944 161.09 146.79 161.734 146.79C162.667 146.79 163.4 147.098 163.932 147.714C164.464 148.321 164.73 149.161 164.73 150.234V150.444ZM161.748 147.672C161.16 147.672 160.679 147.849 160.306 148.204C159.942 148.559 159.709 149.058 159.606 149.702H163.708C163.652 149.039 163.456 148.535 163.12 148.19C162.793 147.845 162.336 147.672 161.748 147.672ZM172.345 150.444H167.179C167.189 151.34 167.394 152.017 167.795 152.474C168.206 152.931 168.799 153.16 169.573 153.16C170.395 153.16 171.151 152.885 171.841 152.334L172.219 153.16C171.911 153.449 171.515 153.678 171.029 153.846C170.553 154.014 170.063 154.098 169.559 154.098C168.458 154.098 167.595 153.776 166.969 153.132C166.344 152.479 166.031 151.587 166.031 150.458C166.031 149.739 166.171 149.105 166.451 148.554C166.731 147.994 167.123 147.56 167.627 147.252C168.131 146.944 168.705 146.79 169.349 146.79C170.283 146.79 171.015 147.098 171.547 147.714C172.079 148.321 172.345 149.161 172.345 150.234V150.444ZM169.363 147.672C168.775 147.672 168.295 147.849 167.921 148.204C167.557 148.559 167.324 149.058 167.221 149.702H171.323C171.267 149.039 171.071 148.535 170.735 148.19C170.409 147.845 169.951 147.672 169.363 147.672ZM177.581 146.79C179.27 146.79 180.115 147.719 180.115 149.576V154H178.981V149.632C178.981 148.979 178.85 148.503 178.589 148.204C178.327 147.896 177.917 147.742 177.357 147.742C176.703 147.742 176.181 147.943 175.789 148.344C175.397 148.745 175.201 149.287 175.201 149.968V154H174.067V148.932C174.067 148.204 174.029 147.546 173.955 146.958H175.033L175.145 148.218C175.359 147.761 175.681 147.411 176.111 147.168C176.54 146.916 177.03 146.79 177.581 146.79ZM193.718 146.79C195.277 146.79 196.056 147.719 196.056 149.576V154H194.922V149.632C194.922 148.969 194.806 148.489 194.572 148.19C194.348 147.891 193.98 147.742 193.466 147.742C192.869 147.742 192.402 147.943 192.066 148.344C191.73 148.745 191.562 149.291 191.562 149.982V154H190.428V149.632C190.428 148.979 190.312 148.503 190.078 148.204C189.845 147.896 189.472 147.742 188.958 147.742C188.361 147.742 187.89 147.943 187.544 148.344C187.208 148.745 187.04 149.291 187.04 149.982V154H185.906V148.932C185.906 148.204 185.869 147.546 185.794 146.958H186.872L186.984 148.19C187.18 147.742 187.47 147.397 187.852 147.154C188.244 146.911 188.697 146.79 189.21 146.79C189.77 146.79 190.228 146.902 190.582 147.126C190.937 147.35 191.198 147.695 191.366 148.162C191.581 147.742 191.894 147.411 192.304 147.168C192.724 146.916 193.196 146.79 193.718 146.79ZM198.211 146.958H199.345V154H198.211V146.958ZM199.485 143.976V145.264H198.099V143.976H199.485ZM203.927 154.098C202.742 154.098 201.804 153.795 201.113 153.188L201.491 152.348C201.874 152.647 202.261 152.861 202.653 152.992C203.045 153.123 203.484 153.188 203.969 153.188C204.501 153.188 204.902 153.099 205.173 152.922C205.453 152.735 205.593 152.469 205.593 152.124C205.593 151.844 205.5 151.62 205.313 151.452C205.126 151.284 204.818 151.153 204.389 151.06L203.199 150.78C202.611 150.649 202.154 150.416 201.827 150.08C201.51 149.744 201.351 149.343 201.351 148.876C201.351 148.26 201.598 147.761 202.093 147.378C202.588 146.986 203.241 146.79 204.053 146.79C204.548 146.79 205.014 146.869 205.453 147.028C205.892 147.187 206.26 147.415 206.559 147.714L206.181 148.54C205.518 147.989 204.809 147.714 204.053 147.714C203.549 147.714 203.157 147.812 202.877 148.008C202.606 148.195 202.471 148.461 202.471 148.806C202.471 149.095 202.555 149.324 202.723 149.492C202.9 149.66 203.18 149.791 203.563 149.884L204.753 150.178C205.406 150.327 205.892 150.561 206.209 150.878C206.526 151.186 206.685 151.592 206.685 152.096C206.685 152.703 206.438 153.188 205.943 153.552C205.448 153.916 204.776 154.098 203.927 154.098ZM210.872 154.098C209.687 154.098 208.749 153.795 208.058 153.188L208.436 152.348C208.819 152.647 209.206 152.861 209.598 152.992C209.99 153.123 210.429 153.188 210.914 153.188C211.446 153.188 211.848 153.099 212.118 152.922C212.398 152.735 212.538 152.469 212.538 152.124C212.538 151.844 212.445 151.62 212.258 151.452C212.072 151.284 211.764 151.153 211.334 151.06L210.144 150.78C209.556 150.649 209.099 150.416 208.772 150.08C208.455 149.744 208.296 149.343 208.296 148.876C208.296 148.26 208.544 147.761 209.038 147.378C209.533 146.986 210.186 146.79 210.998 146.79C211.493 146.79 211.96 146.869 212.398 147.028C212.837 147.187 213.206 147.415 213.504 147.714L213.126 148.54C212.464 147.989 211.754 147.714 210.998 147.714C210.494 147.714 210.102 147.812 209.822 148.008C209.552 148.195 209.416 148.461 209.416 148.806C209.416 149.095 209.5 149.324 209.668 149.492C209.846 149.66 210.126 149.791 210.508 149.884L211.698 150.178C212.352 150.327 212.837 150.561 213.154 150.878C213.472 151.186 213.63 151.592 213.63 152.096C213.63 152.703 213.383 153.188 212.888 153.552C212.394 153.916 211.722 154.098 210.872 154.098ZM215.438 146.958H216.572V154H215.438V146.958ZM216.712 143.976V145.264H215.326V143.976H216.712ZM222.288 146.79C223.977 146.79 224.822 147.719 224.822 149.576V154H223.688V149.632C223.688 148.979 223.557 148.503 223.296 148.204C223.034 147.896 222.624 147.742 222.064 147.742C221.41 147.742 220.888 147.943 220.496 148.344C220.104 148.745 219.908 149.287 219.908 149.968V154H218.774V148.932C218.774 148.204 218.736 147.546 218.662 146.958H219.74L219.852 148.218C220.066 147.761 220.388 147.411 220.818 147.168C221.247 146.916 221.737 146.79 222.288 146.79ZM233.235 146.958V153.944C233.235 154.989 232.964 155.778 232.423 156.31C231.891 156.851 231.102 157.122 230.057 157.122C228.984 157.122 228.06 156.879 227.285 156.394L227.481 155.47C227.929 155.722 228.349 155.904 228.741 156.016C229.142 156.128 229.581 156.184 230.057 156.184C230.738 156.184 231.252 156.002 231.597 155.638C231.942 155.283 232.115 154.751 232.115 154.042V152.376C231.9 152.824 231.583 153.174 231.163 153.426C230.752 153.669 230.262 153.79 229.693 153.79C229.077 153.79 228.526 153.645 228.041 153.356C227.565 153.067 227.196 152.656 226.935 152.124C226.674 151.592 226.543 150.981 226.543 150.29C226.543 149.599 226.674 148.988 226.935 148.456C227.196 147.924 227.565 147.513 228.041 147.224C228.526 146.935 229.077 146.79 229.693 146.79C230.253 146.79 230.738 146.911 231.149 147.154C231.569 147.397 231.886 147.737 232.101 148.176V146.958H233.235ZM229.917 152.838C230.598 152.838 231.13 152.614 231.513 152.166C231.905 151.709 232.101 151.083 232.101 150.29C232.101 149.497 231.905 148.876 231.513 148.428C231.13 147.971 230.598 147.742 229.917 147.742C229.226 147.742 228.68 147.971 228.279 148.428C227.887 148.876 227.691 149.497 227.691 150.29C227.691 151.083 227.887 151.709 228.279 152.166C228.68 152.614 229.226 152.838 229.917 152.838Z" fill="#5B5151"/>
<circle cx="81" cy="119" r="15" fill="white"/>
<mask id="mask1" mask-type="alpha" maskUnits="userSpaceOnUse" x="66" y="104" width="30" height="30">
<circle cx="81" cy="119" r="15" fill="#F4F4EA"/>
</mask>
<g mask="url(#mask1)">
<path fill-rule="evenodd" clip-rule="evenodd" d="M86.9322 111.298C85.524 115.565 84.165 119.437 82.785 123.704C82.7024 124.067 82.5194 124.399 82.2569 124.662C81.8951 124.926 81.4494 125.048 81.0035 125.007H79.3418L80.2853 127.274H82.8976C83.252 127.296 83.6053 127.216 83.9158 127.044C84.2264 126.872 84.4814 126.614 84.6509 126.302C84.7643 126.09 84.8609 125.868 84.9396 125.641L89.798 111.298H86.9322Z" fill="#635452"/>
<path fill-rule="evenodd" clip-rule="evenodd" d="M77.376 119.043H79.087C79.2676 119.052 79.4378 119.13 79.5623 119.261C79.6868 119.392 79.7562 119.566 79.7559 119.747V119.902C79.7562 120.083 79.6868 120.257 79.5623 120.388C79.4378 120.519 79.2676 120.597 79.087 120.606H77.376C77.1893 120.606 77.0102 120.532 76.8781 120.4C76.7461 120.268 76.6719 120.089 76.6719 119.902V119.747C76.6719 119.56 76.7461 119.381 76.8781 119.249C77.0102 119.117 77.1893 119.043 77.376 119.043Z" fill="#F0AD00"/>
<path fill-rule="evenodd" clip-rule="evenodd" d="M80.8545 119.043H82.643C82.8297 119.043 83.0088 119.117 83.1409 119.249C83.2729 119.381 83.3471 119.56 83.3471 119.747V119.902C83.3471 120.089 83.2729 120.268 83.1409 120.4C83.0088 120.532 82.8297 120.606 82.643 120.606H80.8545C80.6678 120.606 80.4887 120.532 80.3566 120.4C80.2246 120.268 80.1504 120.089 80.1504 119.902V119.747C80.1504 119.56 80.2246 119.381 80.3566 119.249C80.4887 119.117 80.6678 119.043 80.8545 119.043Z" fill="#E1760C"/>
<path fill-rule="evenodd" clip-rule="evenodd" d="M76.7354 117.114H78.5872C78.768 117.113 78.942 117.183 79.0731 117.307C79.2041 117.432 79.2823 117.602 79.2913 117.782V117.944C79.2913 118.131 79.2172 118.31 79.0851 118.442C78.9531 118.574 78.774 118.649 78.5872 118.649H76.7354C76.5486 118.649 76.3695 118.574 76.2375 118.442C76.1054 118.31 76.0312 118.131 76.0312 117.944V117.782C76.0403 117.602 76.1184 117.432 76.2495 117.307C76.3806 117.183 76.5546 117.113 76.7354 117.114Z" fill="#E1760C"/>
<path fill-rule="evenodd" clip-rule="evenodd" d="M80.3682 117.114H83.3114C83.4861 117.122 83.6513 117.195 83.7749 117.319C83.8986 117.443 83.9718 117.608 83.9803 117.782V117.944C83.9806 118.125 83.9112 118.299 83.7867 118.43C83.6622 118.561 83.492 118.639 83.3114 118.649H80.3682C80.1814 118.649 80.0023 118.574 79.8703 118.442C79.7382 118.31 79.6641 118.131 79.6641 117.944V117.782C79.6731 117.602 79.7513 117.432 79.8823 117.307C80.0134 117.183 80.1874 117.113 80.3682 117.114Z" fill="#F0AD00"/>
<path fill-rule="evenodd" clip-rule="evenodd" d="M80.1026 120.986H82.0107C82.1913 120.995 82.3615 121.074 82.486 121.205C82.6105 121.336 82.6799 121.51 82.6797 121.69V121.859C82.6799 122.04 82.6105 122.214 82.486 122.345C82.3615 122.476 82.1913 122.555 82.0107 122.564H80.1026C79.9158 122.564 79.7367 122.489 79.6047 122.357C79.4726 122.225 79.3984 122.046 79.3984 121.859V121.697C79.3984 121.511 79.4726 121.332 79.6047 121.2C79.7367 121.068 79.9158 120.993 80.1026 120.993V120.986Z" fill="#D65359"/>
<path fill-rule="evenodd" clip-rule="evenodd" d="M79.0166 122.923H81.3684C81.5551 122.923 81.7342 122.997 81.8663 123.129C81.9983 123.261 82.0725 123.44 82.0725 123.627V123.789C82.0725 123.976 81.9983 124.155 81.8663 124.287C81.7342 124.419 81.5551 124.493 81.3684 124.493H79.0166C78.8299 124.493 78.6508 124.419 78.5187 124.287C78.3867 124.155 78.3125 123.976 78.3125 123.789V123.627C78.3125 123.44 78.3867 123.261 78.5187 123.129C78.6508 122.997 78.8299 122.923 79.0166 122.923Z" fill="#F0AD00"/>
<path fill-rule="evenodd" clip-rule="evenodd" d="M78.0811 115.17H80.3836C80.5703 115.17 80.7494 115.244 80.8814 115.376C81.0135 115.508 81.0877 115.688 81.0877 115.874V116.036C81.0877 116.223 81.0135 116.402 80.8814 116.534C80.7494 116.666 80.5703 116.74 80.3836 116.74H78.0811C77.8943 116.74 77.7152 116.666 77.5832 116.534C77.4511 116.402 77.377 116.223 77.377 116.036V115.874C77.377 115.688 77.4511 115.508 77.5832 115.376C77.7152 115.244 77.8943 115.17 78.0811 115.17Z" fill="#F0AD00"/>
<path fill-rule="evenodd" clip-rule="evenodd" d="M82.1358 115.17H83.9665C84.1532 115.17 84.3323 115.244 84.4644 115.376C84.5964 115.508 84.6706 115.688 84.6706 115.874V116.036C84.6706 116.223 84.5964 116.402 84.4644 116.534C84.3323 116.666 84.1532 116.74 83.9665 116.74H82.1358C81.949 116.74 81.7699 116.666 81.6379 116.534C81.5058 116.402 81.4316 116.223 81.4316 116.036V115.874C81.4316 115.688 81.5058 115.508 81.6379 115.376C81.7699 115.244 81.949 115.17 82.1358 115.17Z" fill="#E1760C"/>
<path fill-rule="evenodd" clip-rule="evenodd" d="M76.2429 115.17C76.3933 115.17 76.5403 115.215 76.6654 115.298C76.7904 115.382 76.8879 115.501 76.9455 115.64C77.003 115.779 77.0181 115.931 76.9888 116.079C76.9594 116.227 76.887 116.362 76.7806 116.468C76.6743 116.575 76.5388 116.647 76.3913 116.676C76.2437 116.706 76.0909 116.691 75.9519 116.633C75.8129 116.576 75.6942 116.478 75.6106 116.353C75.5271 116.228 75.4825 116.081 75.4825 115.931C75.4815 115.831 75.5005 115.731 75.5384 115.639C75.5763 115.546 75.6323 115.462 75.7031 115.391C75.7739 115.32 75.8581 115.264 75.9508 115.226C76.0435 115.188 76.1428 115.169 76.2429 115.17Z" fill="#D65359"/>
<path fill-rule="evenodd" clip-rule="evenodd" d="M74.8975 113.234H79.4884C79.6751 113.234 79.8542 113.308 79.9863 113.44C80.1183 113.572 80.1925 113.751 80.1925 113.938V114.1C80.1925 114.287 80.1183 114.466 79.9863 114.598C79.8542 114.73 79.6751 114.804 79.4884 114.804H74.8975C74.7107 114.804 74.5316 114.73 74.3996 114.598C74.2675 114.466 74.1934 114.287 74.1934 114.1V113.938C74.1934 113.751 74.2675 113.572 74.3996 113.44C74.5316 113.308 74.7107 113.234 74.8975 113.234Z" fill="#D65359"/>
<path fill-rule="evenodd" clip-rule="evenodd" d="M81.2139 113.234H84.6218C84.8086 113.234 84.9877 113.308 85.1197 113.44C85.2518 113.572 85.326 113.751 85.326 113.938V114.1C85.326 114.287 85.2518 114.466 85.1197 114.598C84.9877 114.73 84.8086 114.804 84.6218 114.804H81.2139C81.0271 114.804 80.848 114.73 80.716 114.598C80.5839 114.466 80.5098 114.287 80.5098 114.1V113.938C80.5098 113.751 80.5839 113.572 80.716 113.44C80.848 113.308 81.0271 113.234 81.2139 113.234Z" fill="#F0AD00"/>
<path fill-rule="evenodd" clip-rule="evenodd" d="M73.6162 111.297H77.1791C77.3658 111.297 77.5449 111.372 77.677 111.504C77.809 111.636 77.8832 111.815 77.8832 112.001V112.156C77.8832 112.343 77.809 112.522 77.677 112.654C77.5449 112.786 77.3658 112.861 77.1791 112.861H73.6162C73.4295 112.861 73.2504 112.786 73.1183 112.654C72.9863 112.522 72.9121 112.343 72.9121 112.156V112.001C72.9121 111.815 72.9863 111.636 73.1183 111.504C73.2504 111.372 73.4295 111.297 73.6162 111.297Z" fill="#E1760C"/>
<path fill-rule="evenodd" clip-rule="evenodd" d="M80.8975 111.297H85.256C85.4428 111.297 85.6218 111.372 85.7539 111.504C85.8859 111.636 85.9601 111.815 85.9601 112.001V112.156C85.9601 112.343 85.8859 112.522 85.7539 112.654C85.6218 112.786 85.4428 112.861 85.256 112.861H80.8975C80.7107 112.861 80.5316 112.786 80.3996 112.654C80.2675 112.522 80.1934 112.343 80.1934 112.156V112.001C80.1934 111.815 80.2675 111.636 80.3996 111.504C80.5316 111.372 80.7107 111.297 80.8975 111.297Z" fill="#D65359"/>
<path fill-rule="evenodd" clip-rule="evenodd" d="M79.0386 111.297C79.1876 111.297 79.3332 111.342 79.4571 111.424C79.581 111.507 79.6776 111.625 79.7346 111.762C79.7917 111.9 79.8066 112.052 79.7775 112.198C79.7484 112.344 79.6767 112.478 79.5713 112.584C79.466 112.689 79.3317 112.761 79.1856 112.79C79.0394 112.819 78.8879 112.804 78.7503 112.747C78.6126 112.69 78.4949 112.593 78.4121 112.469C78.3293 112.345 78.2852 112.2 78.2852 112.051C78.2852 111.851 78.3645 111.659 78.5058 111.518C78.6471 111.377 78.8388 111.297 79.0386 111.297Z" fill="#F0AD00"/>
<path fill-rule="evenodd" clip-rule="evenodd" d="M78.2437 120.986C78.3947 120.985 78.5427 121.028 78.6688 121.111C78.7949 121.194 78.8935 121.313 78.9519 121.452C79.0103 121.592 79.026 121.745 78.9969 121.893C78.9677 122.041 78.8952 122.177 78.7884 122.284C78.6816 122.391 78.5455 122.464 78.3973 122.493C78.2492 122.522 78.0957 122.506 77.9564 122.448C77.8172 122.389 77.6985 122.291 77.6155 122.165C77.5325 122.039 77.4889 121.891 77.4903 121.74C77.4903 121.54 77.5696 121.348 77.7109 121.207C77.8522 121.065 78.0439 120.986 78.2437 120.986Z" fill="#E1760C"/>
</g>
</svg>
