<svg width="359" height="259" viewBox="0 0 359 259" fill="none" xmlns="http://www.w3.org/2000/svg">
<rect width="359" height="259" rx="12" fill="white"/>
<rect x="0.5" y="0.5" width="358" height="258" rx="11.5" stroke="#5B5151" stroke-opacity="0.1"/>
<path d="M16 57C16 45.9543 24.9543 37 36 37H217C228.046 37 237 45.9543 237 57V77C237 88.0457 228.046 97 217 97H16V57Z" fill="#FEFFCB"/>
<path d="M74.654 53.032V63H73.59V55.594L70.356 63H69.544L66.282 55.65L66.296 63H65.232V53.032H66.184L69.964 61.628L73.702 53.032H74.654ZM83.1609 55.958L79.8709 63.644C79.5255 64.4467 79.0915 65.0347 78.5689 65.408C78.0462 65.7813 77.4022 66.038 76.6369 66.178L76.3989 65.296C77.0615 65.1467 77.5609 64.946 77.8969 64.694C78.2422 64.4513 78.5269 64.0733 78.7509 63.56L79.0309 62.93L76.0489 55.958H77.2389L79.6189 61.768L82.0269 55.958H83.1609ZM91.0148 63.098C90.3334 63.098 89.7361 62.9487 89.2228 62.65C88.7188 62.3513 88.3268 61.9313 88.0468 61.39C87.7761 60.8393 87.6408 60.2 87.6408 59.472C87.6408 58.744 87.7808 58.1047 88.0608 57.554C88.3408 56.994 88.7374 56.56 89.2508 56.252C89.7734 55.944 90.3801 55.79 91.0708 55.79C91.5468 55.79 92.0041 55.874 92.4428 56.042C92.8908 56.2007 93.2594 56.4247 93.5488 56.714L93.1708 57.554C92.8161 57.274 92.4708 57.0687 92.1348 56.938C91.8081 56.8073 91.4721 56.742 91.1268 56.742C90.4081 56.742 89.8434 56.9847 89.4328 57.47C89.0221 57.946 88.8167 58.6133 88.8167 59.472C88.8167 60.3213 89.0174 60.984 89.4188 61.46C89.8294 61.9267 90.3988 62.16 91.1268 62.16C91.4721 62.16 91.8081 62.0947 92.1348 61.964C92.4708 61.8333 92.8161 61.628 93.1708 61.348L93.5488 62.188C93.2501 62.468 92.8721 62.692 92.4148 62.86C91.9668 63.0187 91.5001 63.098 91.0148 63.098ZM97.9044 63.098C97.2417 63.098 96.6584 62.9487 96.1544 62.65C95.6504 62.3513 95.2584 61.9267 94.9784 61.376C94.7077 60.8253 94.5724 60.1813 94.5724 59.444C94.5724 58.7067 94.7077 58.0627 94.9784 57.512C95.2584 56.9613 95.6504 56.5367 96.1544 56.238C96.6584 55.9393 97.2417 55.79 97.9044 55.79C98.5671 55.79 99.1504 55.9393 99.6544 56.238C100.158 56.5367 100.546 56.9613 100.816 57.512C101.096 58.0627 101.236 58.7067 101.236 59.444C101.236 60.1813 101.096 60.8253 100.816 61.376C100.546 61.9267 100.158 62.3513 99.6544 62.65C99.1504 62.9487 98.5671 63.098 97.9044 63.098ZM97.9044 62.16C98.6044 62.16 99.1411 61.9313 99.5144 61.474C99.8877 61.0073 100.074 60.3307 100.074 59.444C100.074 58.5853 99.8831 57.9227 99.5004 57.456C99.1177 56.98 98.5857 56.742 97.9044 56.742C97.2137 56.742 96.6771 56.98 96.2944 57.456C95.9117 57.9227 95.7204 58.5853 95.7204 59.444C95.7204 60.3307 95.9071 61.0073 96.2804 61.474C96.6631 61.9313 97.2044 62.16 97.9044 62.16ZM110.816 55.79C112.375 55.79 113.154 56.7187 113.154 58.576V63H112.02V58.632C112.02 57.9693 111.903 57.4887 111.67 57.19C111.446 56.8913 111.077 56.742 110.564 56.742C109.967 56.742 109.5 56.9427 109.164 57.344C108.828 57.7453 108.66 58.2913 108.66 58.982V63H107.526V58.632C107.526 57.9787 107.409 57.5027 107.176 57.204C106.943 56.896 106.569 56.742 106.056 56.742C105.459 56.742 104.987 56.9427 104.642 57.344C104.306 57.7453 104.138 58.2913 104.138 58.982V63H103.004V57.932C103.004 57.204 102.967 56.546 102.892 55.958H103.97L104.082 57.19C104.278 56.742 104.567 56.3967 104.95 56.154C105.342 55.9113 105.795 55.79 106.308 55.79C106.868 55.79 107.325 55.902 107.68 56.126C108.035 56.35 108.296 56.6953 108.464 57.162C108.679 56.742 108.991 56.4107 109.402 56.168C109.822 55.916 110.293 55.79 110.816 55.79ZM118.823 55.79C119.439 55.79 119.985 55.944 120.461 56.252C120.937 56.56 121.305 56.994 121.567 57.554C121.828 58.1047 121.959 58.744 121.959 59.472C121.959 60.2 121.828 60.8393 121.567 61.39C121.305 61.9313 120.937 62.3513 120.461 62.65C119.994 62.9487 119.448 63.098 118.823 63.098C118.272 63.098 117.791 62.9767 117.381 62.734C116.97 62.4913 116.657 62.146 116.443 61.698V66.024H115.309V57.932C115.309 57.204 115.271 56.546 115.197 55.958H116.275L116.387 57.316C116.583 56.8307 116.891 56.4573 117.311 56.196C117.74 55.9253 118.244 55.79 118.823 55.79ZM118.613 62.16C119.303 62.16 119.835 61.9267 120.209 61.46C120.591 60.9933 120.783 60.3307 120.783 59.472C120.783 58.6133 120.591 57.946 120.209 57.47C119.826 56.9847 119.294 56.742 118.613 56.742C117.913 56.742 117.376 56.9753 117.003 57.442C116.629 57.9087 116.443 58.576 116.443 59.444C116.443 60.312 116.629 60.984 117.003 61.46C117.376 61.9267 117.913 62.16 118.613 62.16ZM129.597 59.444H124.431C124.441 60.34 124.646 61.0167 125.047 61.474C125.458 61.9313 126.051 62.16 126.825 62.16C127.647 62.16 128.403 61.8847 129.093 61.334L129.471 62.16C129.163 62.4493 128.767 62.678 128.281 62.846C127.805 63.014 127.315 63.098 126.811 63.098C125.71 63.098 124.847 62.776 124.221 62.132C123.596 61.4787 123.283 60.5873 123.283 59.458C123.283 58.7393 123.423 58.1047 123.703 57.554C123.983 56.994 124.375 56.56 124.879 56.252C125.383 55.944 125.957 55.79 126.601 55.79C127.535 55.79 128.267 56.098 128.799 56.714C129.331 57.3207 129.597 58.1607 129.597 59.234V59.444ZM126.615 56.672C126.027 56.672 125.547 56.8493 125.173 57.204C124.809 57.5587 124.576 58.058 124.473 58.702H128.575C128.519 58.0393 128.323 57.5353 127.987 57.19C127.661 56.8447 127.203 56.672 126.615 56.672ZM132.79 56.854V60.704C132.79 61.2267 132.897 61.5953 133.112 61.81C133.326 62.0153 133.63 62.118 134.022 62.118C134.283 62.118 134.535 62.076 134.778 61.992V62.958C134.488 63.0513 134.162 63.098 133.798 63.098C133.126 63.098 132.598 62.9113 132.216 62.538C131.842 62.1553 131.656 61.5953 131.656 60.858V56.854H130.284V55.958H131.656V54.152L132.79 53.746V55.958H134.806V56.854H132.79ZM136.172 55.958H137.306V63H136.172V55.958ZM137.446 52.976V54.264H136.06V52.976H137.446ZM141.02 56.854V60.704C141.02 61.2267 141.127 61.5953 141.342 61.81C141.557 62.0153 141.86 62.118 142.252 62.118C142.513 62.118 142.765 62.076 143.008 61.992V62.958C142.719 63.0513 142.392 63.098 142.028 63.098C141.356 63.098 140.829 62.9113 140.446 62.538C140.073 62.1553 139.886 61.5953 139.886 60.858V56.854H138.514V55.958H139.886V54.152L141.02 53.746V55.958H143.036V56.854H141.02ZM147.315 63.098C146.652 63.098 146.069 62.9487 145.565 62.65C145.061 62.3513 144.669 61.9267 144.389 61.376C144.118 60.8253 143.983 60.1813 143.983 59.444C143.983 58.7067 144.118 58.0627 144.389 57.512C144.669 56.9613 145.061 56.5367 145.565 56.238C146.069 55.9393 146.652 55.79 147.315 55.79C147.977 55.79 148.561 55.9393 149.065 56.238C149.569 56.5367 149.956 56.9613 150.227 57.512C150.507 58.0627 150.647 58.7067 150.647 59.444C150.647 60.1813 150.507 60.8253 150.227 61.376C149.956 61.9267 149.569 62.3513 149.065 62.65C148.561 62.9487 147.977 63.098 147.315 63.098ZM147.315 62.16C148.015 62.16 148.551 61.9313 148.925 61.474C149.298 61.0073 149.485 60.3307 149.485 59.444C149.485 58.5853 149.293 57.9227 148.911 57.456C148.528 56.98 147.996 56.742 147.315 56.742C146.624 56.742 146.087 56.98 145.705 57.456C145.322 57.9227 145.131 58.5853 145.131 59.444C145.131 60.3307 145.317 61.0073 145.691 61.474C146.073 61.9313 146.615 62.16 147.315 62.16ZM155.69 55.79C155.924 55.79 156.138 55.818 156.334 55.874L156.306 56.91C156.092 56.8353 155.844 56.798 155.564 56.798C154.883 56.798 154.374 57.0127 154.038 57.442C153.712 57.862 153.548 58.3753 153.548 58.982V63H152.414V57.932C152.414 57.204 152.377 56.546 152.302 55.958H153.38L153.492 57.26C153.67 56.784 153.954 56.42 154.346 56.168C154.738 55.916 155.186 55.79 155.69 55.79ZM159.798 63.098C158.613 63.098 157.675 62.7947 156.984 62.188L157.362 61.348C157.745 61.6467 158.132 61.8613 158.524 61.992C158.916 62.1227 159.355 62.188 159.84 62.188C160.372 62.188 160.774 62.0993 161.044 61.922C161.324 61.7353 161.464 61.4693 161.464 61.124C161.464 60.844 161.371 60.62 161.184 60.452C160.998 60.284 160.69 60.1533 160.26 60.06L159.07 59.78C158.482 59.6493 158.025 59.416 157.698 59.08C157.381 58.744 157.222 58.3427 157.222 57.876C157.222 57.26 157.47 56.7607 157.964 56.378C158.459 55.986 159.112 55.79 159.924 55.79C160.419 55.79 160.886 55.8693 161.324 56.028C161.763 56.1867 162.132 56.4153 162.43 56.714L162.052 57.54C161.39 56.9893 160.68 56.714 159.924 56.714C159.42 56.714 159.028 56.812 158.748 57.008C158.478 57.1947 158.342 57.4607 158.342 57.806C158.342 58.0953 158.426 58.324 158.594 58.492C158.772 58.66 159.052 58.7907 159.434 58.884L160.624 59.178C161.278 59.3273 161.763 59.5607 162.08 59.878C162.398 60.186 162.556 60.592 162.556 61.096C162.556 61.7027 162.309 62.188 161.814 62.552C161.32 62.916 160.648 63.098 159.798 63.098ZM171.528 55.79C173.217 55.79 174.062 56.7187 174.062 58.576V63H172.928V58.632C172.928 57.9787 172.797 57.5027 172.536 57.204C172.275 56.896 171.864 56.742 171.304 56.742C170.651 56.742 170.128 56.9427 169.736 57.344C169.344 57.7453 169.148 58.2867 169.148 58.968V63H168.014V52.696H169.148V57.106C169.372 56.6767 169.689 56.35 170.1 56.126C170.52 55.902 170.996 55.79 171.528 55.79ZM182.405 55.958V63H181.285V61.726C181.08 62.1647 180.767 62.5053 180.347 62.748C179.937 62.9813 179.456 63.098 178.905 63.098C178.28 63.098 177.729 62.9487 177.253 62.65C176.787 62.3513 176.423 61.9313 176.161 61.39C175.909 60.8393 175.783 60.2 175.783 59.472C175.783 58.744 175.914 58.1047 176.175 57.554C176.437 56.994 176.801 56.56 177.267 56.252C177.743 55.944 178.289 55.79 178.905 55.79C179.456 55.79 179.937 55.9113 180.347 56.154C180.758 56.3967 181.071 56.7373 181.285 57.176V55.958H182.405ZM179.129 62.16C179.82 62.16 180.352 61.9267 180.725 61.46C181.099 60.984 181.285 60.312 181.285 59.444C181.285 58.576 181.099 57.9087 180.725 57.442C180.352 56.9753 179.82 56.742 179.129 56.742C178.439 56.742 177.897 56.9847 177.505 57.47C177.123 57.946 176.931 58.6133 176.931 59.472C176.931 60.3307 177.123 60.9933 177.505 61.46C177.888 61.9267 178.429 62.16 179.129 62.16ZM190.786 55.972L187.748 63H186.67L183.674 55.972H184.864L187.244 61.768L189.652 55.972H190.786ZM197.847 59.444H192.681C192.691 60.34 192.896 61.0167 193.297 61.474C193.708 61.9313 194.301 62.16 195.075 62.16C195.897 62.16 196.653 61.8847 197.343 61.334L197.721 62.16C197.413 62.4493 197.017 62.678 196.531 62.846C196.055 63.014 195.565 63.098 195.061 63.098C193.96 63.098 193.097 62.776 192.471 62.132C191.846 61.4787 191.533 60.5873 191.533 59.458C191.533 58.7393 191.673 58.1047 191.953 57.554C192.233 56.994 192.625 56.56 193.129 56.252C193.633 55.944 194.207 55.79 194.851 55.79C195.785 55.79 196.517 56.098 197.049 56.714C197.581 57.3207 197.847 58.1607 197.847 59.234V59.444ZM194.865 56.672C194.277 56.672 193.797 56.8493 193.423 57.204C193.059 57.5587 192.826 58.058 192.723 58.702H196.825C196.769 58.0393 196.573 57.5353 196.237 57.19C195.911 56.8447 195.453 56.672 194.865 56.672ZM71.364 73.958V80.944C71.364 81.9893 71.0933 82.778 70.552 83.31C70.02 83.8513 69.2313 84.122 68.186 84.122C67.1127 84.122 66.1887 83.8793 65.414 83.394L65.61 82.47C66.058 82.722 66.478 82.904 66.87 83.016C67.2713 83.128 67.71 83.184 68.186 83.184C68.8673 83.184 69.3807 83.002 69.726 82.638C70.0713 82.2833 70.244 81.7513 70.244 81.042V79.376C70.0293 79.824 69.712 80.174 69.292 80.426C68.8813 80.6687 68.3913 80.79 67.822 80.79C67.206 80.79 66.6553 80.6453 66.17 80.356C65.694 80.0667 65.3253 79.656 65.064 79.124C64.8027 78.592 64.672 77.9807 64.672 77.29C64.672 76.5993 64.8027 75.988 65.064 75.456C65.3253 74.924 65.694 74.5133 66.17 74.224C66.6553 73.9347 67.206 73.79 67.822 73.79C68.382 73.79 68.8673 73.9113 69.278 74.154C69.698 74.3967 70.0153 74.7373 70.23 75.176V73.958H71.364ZM68.046 79.838C68.7273 79.838 69.2593 79.614 69.642 79.166C70.034 78.7087 70.23 78.0833 70.23 77.29C70.23 76.4967 70.034 75.876 69.642 75.428C69.2593 74.9707 68.7273 74.742 68.046 74.742C67.3553 74.742 66.8093 74.9707 66.408 75.428C66.016 75.876 65.82 76.4967 65.82 77.29C65.82 78.0833 66.016 78.7087 66.408 79.166C66.8093 79.614 67.3553 79.838 68.046 79.838ZM76.8172 73.79C77.0506 73.79 77.2652 73.818 77.4612 73.874L77.4332 74.91C77.2186 74.8353 76.9712 74.798 76.6912 74.798C76.0099 74.798 75.5012 75.0127 75.1652 75.442C74.8386 75.862 74.6752 76.3753 74.6752 76.982V81H73.5412V75.932C73.5412 75.204 73.5039 74.546 73.4292 73.958H74.5072L74.6192 75.26C74.7966 74.784 75.0812 74.42 75.4732 74.168C75.8652 73.916 76.3132 73.79 76.8172 73.79ZM84.3708 77.444H79.2048C79.2141 78.34 79.4194 79.0167 79.8208 79.474C80.2314 79.9313 80.8241 80.16 81.5988 80.16C82.4201 80.16 83.1761 79.8847 83.8668 79.334L84.2448 80.16C83.9368 80.4493 83.5401 80.678 83.0548 80.846C82.5788 81.014 82.0888 81.098 81.5848 81.098C80.4834 81.098 79.6201 80.776 78.9948 80.132C78.3694 79.4787 78.0568 78.5873 78.0568 77.458C78.0568 76.7393 78.1968 76.1047 78.4768 75.554C78.7568 74.994 79.1488 74.56 79.6528 74.252C80.1568 73.944 80.7308 73.79 81.3748 73.79C82.3081 73.79 83.0408 74.098 83.5728 74.714C84.1048 75.3207 84.3708 76.1607 84.3708 77.234V77.444ZM81.3888 74.672C80.8008 74.672 80.3201 74.8493 79.9468 75.204C79.5828 75.5587 79.3494 76.058 79.2468 76.702H83.3488C83.2928 76.0393 83.0968 75.5353 82.7608 75.19C82.4341 74.8447 81.9768 74.672 81.3888 74.672ZM92.294 73.958V81H91.174V79.726C90.9687 80.1647 90.656 80.5053 90.236 80.748C89.8253 80.9813 89.3447 81.098 88.794 81.098C88.1687 81.098 87.618 80.9487 87.142 80.65C86.6753 80.3513 86.3113 79.9313 86.05 79.39C85.798 78.8393 85.672 78.2 85.672 77.472C85.672 76.744 85.8027 76.1047 86.064 75.554C86.3253 74.994 86.6893 74.56 87.156 74.252C87.632 73.944 88.178 73.79 88.794 73.79C89.3447 73.79 89.8253 73.9113 90.236 74.154C90.6467 74.3967 90.9593 74.7373 91.174 75.176V73.958H92.294ZM89.018 80.16C89.7087 80.16 90.2407 79.9267 90.614 79.46C90.9873 78.984 91.174 78.312 91.174 77.444C91.174 76.576 90.9873 75.9087 90.614 75.442C90.2407 74.9753 89.7087 74.742 89.018 74.742C88.3273 74.742 87.786 74.9847 87.394 75.47C87.0113 75.946 86.82 76.6133 86.82 77.472C86.82 78.3307 87.0113 78.9933 87.394 79.46C87.7767 79.9267 88.318 80.16 89.018 80.16ZM95.9985 74.854V78.704C95.9985 79.2267 96.1059 79.5953 96.3205 79.81C96.5352 80.0153 96.8385 80.118 97.2305 80.118C97.4919 80.118 97.7439 80.076 97.9865 79.992V80.958C97.6972 81.0513 97.3705 81.098 97.0065 81.098C96.3345 81.098 95.8072 80.9113 95.4245 80.538C95.0512 80.1553 94.8645 79.5953 94.8645 78.858V74.854H93.4925V73.958H94.8645V72.152L95.9985 71.746V73.958H98.0145V74.854H95.9985ZM106.545 73.79C107.161 73.79 107.707 73.944 108.183 74.252C108.659 74.56 109.028 74.994 109.289 75.554C109.551 76.1047 109.681 76.744 109.681 77.472C109.681 78.2 109.551 78.8393 109.289 79.39C109.028 79.9313 108.659 80.3513 108.183 80.65C107.717 80.9487 107.171 81.098 106.545 81.098C105.995 81.098 105.514 80.9767 105.103 80.734C104.693 80.4913 104.38 80.146 104.165 79.698V84.024H103.031V75.932C103.031 75.204 102.994 74.546 102.919 73.958H103.997L104.109 75.316C104.305 74.8307 104.613 74.4573 105.033 74.196C105.463 73.9253 105.967 73.79 106.545 73.79ZM106.335 80.16C107.026 80.16 107.558 79.9267 107.931 79.46C108.314 78.9933 108.505 78.3307 108.505 77.472C108.505 76.6133 108.314 75.946 107.931 75.47C107.549 74.9847 107.017 74.742 106.335 74.742C105.635 74.742 105.099 74.9753 104.725 75.442C104.352 75.9087 104.165 76.576 104.165 77.444C104.165 78.312 104.352 78.984 104.725 79.46C105.099 79.9267 105.635 80.16 106.335 80.16ZM117.628 73.958V81H116.508V79.726C116.303 80.1647 115.99 80.5053 115.57 80.748C115.159 80.9813 114.679 81.098 114.128 81.098C113.503 81.098 112.952 80.9487 112.476 80.65C112.009 80.3513 111.645 79.9313 111.384 79.39C111.132 78.8393 111.006 78.2 111.006 77.472C111.006 76.744 111.137 76.1047 111.398 75.554C111.659 74.994 112.023 74.56 112.49 74.252C112.966 73.944 113.512 73.79 114.128 73.79C114.679 73.79 115.159 73.9113 115.57 74.154C115.981 74.3967 116.293 74.7373 116.508 75.176V73.958H117.628ZM114.352 80.16C115.043 80.16 115.575 79.9267 115.948 79.46C116.321 78.984 116.508 78.312 116.508 77.444C116.508 76.576 116.321 75.9087 115.948 75.442C115.575 74.9753 115.043 74.742 114.352 74.742C113.661 74.742 113.12 74.9847 112.728 75.47C112.345 75.946 112.154 76.6133 112.154 77.472C112.154 78.3307 112.345 78.9933 112.728 79.46C113.111 79.9267 113.652 80.16 114.352 80.16ZM126.093 73.958V80.944C126.093 81.9893 125.822 82.778 125.281 83.31C124.749 83.8513 123.96 84.122 122.915 84.122C121.841 84.122 120.917 83.8793 120.143 83.394L120.339 82.47C120.787 82.722 121.207 82.904 121.599 83.016C122 83.128 122.439 83.184 122.915 83.184C123.596 83.184 124.109 83.002 124.455 82.638C124.8 82.2833 124.973 81.7513 124.973 81.042V79.376C124.758 79.824 124.441 80.174 124.021 80.426C123.61 80.6687 123.12 80.79 122.551 80.79C121.935 80.79 121.384 80.6453 120.899 80.356C120.423 80.0667 120.054 79.656 119.793 79.124C119.531 78.592 119.401 77.9807 119.401 77.29C119.401 76.5993 119.531 75.988 119.793 75.456C120.054 74.924 120.423 74.5133 120.899 74.224C121.384 73.9347 121.935 73.79 122.551 73.79C123.111 73.79 123.596 73.9113 124.007 74.154C124.427 74.3967 124.744 74.7373 124.959 75.176V73.958H126.093ZM122.775 79.838C123.456 79.838 123.988 79.614 124.371 79.166C124.763 78.7087 124.959 78.0833 124.959 77.29C124.959 76.4967 124.763 75.876 124.371 75.428C123.988 74.9707 123.456 74.742 122.775 74.742C122.084 74.742 121.538 74.9707 121.137 75.428C120.745 75.876 120.549 76.4967 120.549 77.29C120.549 78.0833 120.745 78.7087 121.137 79.166C121.538 79.614 122.084 79.838 122.775 79.838ZM134.164 77.444H128.998C129.007 78.34 129.212 79.0167 129.614 79.474C130.024 79.9313 130.617 80.16 131.392 80.16C132.213 80.16 132.969 79.8847 133.66 79.334L134.038 80.16C133.73 80.4493 133.333 80.678 132.848 80.846C132.372 81.014 131.882 81.098 131.378 81.098C130.276 81.098 129.413 80.776 128.788 80.132C128.162 79.4787 127.85 78.5873 127.85 77.458C127.85 76.7393 127.99 76.1047 128.27 75.554C128.55 74.994 128.942 74.56 129.446 74.252C129.95 73.944 130.524 73.79 131.168 73.79C132.101 73.79 132.834 74.098 133.366 74.714C133.898 75.3207 134.164 76.1607 134.164 77.234V77.444ZM131.182 74.672C130.594 74.672 130.113 74.8493 129.74 75.204C129.376 75.5587 129.142 76.058 129.04 76.702H133.142C133.086 76.0393 132.89 75.5353 132.554 75.19C132.227 74.8447 131.77 74.672 131.182 74.672ZM138.265 81.098C137.08 81.098 136.142 80.7947 135.451 80.188L135.829 79.348C136.212 79.6467 136.599 79.8613 136.991 79.992C137.383 80.1227 137.822 80.188 138.307 80.188C138.839 80.188 139.24 80.0993 139.511 79.922C139.791 79.7353 139.931 79.4693 139.931 79.124C139.931 78.844 139.838 78.62 139.651 78.452C139.464 78.284 139.156 78.1533 138.727 78.06L137.537 77.78C136.949 77.6493 136.492 77.416 136.165 77.08C135.848 76.744 135.689 76.3427 135.689 75.876C135.689 75.26 135.936 74.7607 136.431 74.378C136.926 73.986 137.579 73.79 138.391 73.79C138.886 73.79 139.352 73.8693 139.791 74.028C140.23 74.1867 140.598 74.4153 140.897 74.714L140.519 75.54C139.856 74.9893 139.147 74.714 138.391 74.714C137.887 74.714 137.495 74.812 137.215 75.008C136.944 75.1947 136.809 75.4607 136.809 75.806C136.809 76.0953 136.893 76.324 137.061 76.492C137.238 76.66 137.518 76.7907 137.901 76.884L139.091 77.178C139.744 77.3273 140.23 77.5607 140.547 77.878C140.864 78.186 141.023 78.592 141.023 79.096C141.023 79.7027 140.776 80.188 140.281 80.552C139.786 80.916 139.114 81.098 138.265 81.098Z" fill="#5B5151"/>
<circle cx="41" cy="64" r="15" fill="white"/>
<mask id="mask0" mask-type="alpha" maskUnits="userSpaceOnUse" x="26" y="49" width="30" height="30">
<circle cx="41" cy="64" r="15" fill="white"/>
</mask>
<g mask="url(#mask0)">
<path d="M46.3763 61.5393C46.3763 63.0615 45.8304 64.3792 44.7535 65.4562C43.6766 66.5331 42.3587 67.079 40.8365 67.079H40.8338C39.3135 67.0785 37.9966 66.5326 36.9197 65.4562C35.8426 64.3792 35.2969 63.0615 35.2969 61.5393C35.2969 60.0175 35.8426 58.6997 36.9197 57.6228C37.996 56.5463 39.313 56.0005 40.8338 56H40.8365C42.3582 56 43.676 56.5459 44.7535 57.6228C45.8304 58.6997 46.3763 60.0175 46.3763 61.5393Z" fill="#FFD589"/>
<path d="M50.5759 75.0444C50.5759 76.2454 50.1939 77.2177 49.4415 77.9338C48.6978 78.6415 47.7142 79 46.5184 79H35.4437C34.2479 79 33.2643 78.6415 32.5212 77.9338C31.7682 77.2172 31.3867 76.245 31.3867 75.0444C31.3867 74.5826 31.402 74.1256 31.4325 73.6862C31.4636 73.237 31.5264 72.7482 31.619 72.2324C31.7124 71.7125 31.8324 71.221 31.9761 70.7718C32.1253 70.3068 32.3271 69.8481 32.5768 69.4087C32.8362 68.9526 33.1408 68.5553 33.4823 68.2282C33.8402 67.8859 34.2779 67.6109 34.7838 67.4105C35.2879 67.2112 35.8468 67.1101 36.4448 67.1101C36.6794 67.1101 36.9067 67.2061 37.3447 67.4914C37.6188 67.6702 37.9346 67.8738 38.2833 68.0966C38.5844 68.2886 38.9922 68.4686 39.4963 68.6313C39.9394 68.7747 40.3892 68.8547 40.8335 68.8686C40.8824 68.8703 40.9314 68.8712 40.9803 68.8712C41.4738 68.8712 41.9728 68.7903 42.4649 68.6313C42.969 68.4686 43.3774 68.2886 43.6783 68.0966C44.0306 67.8715 44.3465 67.6681 44.6166 67.4919C45.0549 67.2061 45.2818 67.1101 45.5169 67.1101C46.1144 67.1101 46.6733 67.2112 47.1778 67.4105C47.6837 67.6109 48.1213 67.8864 48.479 68.2282C48.821 68.5553 49.1256 68.9526 49.3848 69.4087C49.6347 69.8484 49.8368 70.3068 49.9854 70.7712C50.1293 71.221 50.2497 71.7125 50.3431 72.2328C50.4352 72.749 50.4982 73.2379 50.5291 73.6859C50.5601 74.1239 50.5754 74.5808 50.5759 75.0444Z" fill="#D55A5F"/>
</g>
<path d="M50 133C50 121.954 58.9543 113 70 113H323C334.046 113 343 121.954 343 133V191H70C58.9543 191 50 182.046 50 171V133Z" fill="#FCFCFC"/>
<path d="M108.816 134.968V139H107.668V134.954L103.748 129.032H105.092L108.256 133.932L111.42 129.032H112.736L108.816 134.968ZM115.428 139.098C114.765 139.098 114.182 138.949 113.678 138.65C113.174 138.351 112.782 137.927 112.502 137.376C112.231 136.825 112.096 136.181 112.096 135.444C112.096 134.707 112.231 134.063 112.502 133.512C112.782 132.961 113.174 132.537 113.678 132.238C114.182 131.939 114.765 131.79 115.428 131.79C116.09 131.79 116.674 131.939 117.178 132.238C117.682 132.537 118.069 132.961 118.34 133.512C118.62 134.063 118.76 134.707 118.76 135.444C118.76 136.181 118.62 136.825 118.34 137.376C118.069 137.927 117.682 138.351 117.178 138.65C116.674 138.949 116.09 139.098 115.428 139.098ZM115.428 138.16C116.128 138.16 116.664 137.931 117.038 137.474C117.411 137.007 117.598 136.331 117.598 135.444C117.598 134.585 117.406 133.923 117.024 133.456C116.641 132.98 116.109 132.742 115.428 132.742C114.737 132.742 114.2 132.98 113.818 133.456C113.435 133.923 113.244 134.585 113.244 135.444C113.244 136.331 113.43 137.007 113.804 137.474C114.186 137.931 114.728 138.16 115.428 138.16ZM126.422 131.958V139H125.316V137.782C125.092 138.211 124.779 138.538 124.378 138.762C123.976 138.986 123.524 139.098 123.02 139.098C122.189 139.098 121.559 138.865 121.13 138.398C120.7 137.931 120.486 137.241 120.486 136.326V131.958H121.62V136.298C121.62 136.933 121.75 137.399 122.012 137.698C122.273 137.997 122.67 138.146 123.202 138.146C123.827 138.146 124.331 137.945 124.714 137.544C125.096 137.133 125.288 136.597 125.288 135.934V131.958H126.422ZM135.212 139.098C134.531 139.098 133.933 138.949 133.42 138.65C132.916 138.351 132.524 137.931 132.244 137.39C131.973 136.839 131.838 136.2 131.838 135.472C131.838 134.744 131.978 134.105 132.258 133.554C132.538 132.994 132.935 132.56 133.448 132.252C133.971 131.944 134.577 131.79 135.268 131.79C135.744 131.79 136.201 131.874 136.64 132.042C137.088 132.201 137.457 132.425 137.746 132.714L137.368 133.554C137.013 133.274 136.668 133.069 136.332 132.938C136.005 132.807 135.669 132.742 135.324 132.742C134.605 132.742 134.041 132.985 133.63 133.47C133.219 133.946 133.014 134.613 133.014 135.472C133.014 136.321 133.215 136.984 133.616 137.46C134.027 137.927 134.596 138.16 135.324 138.16C135.669 138.16 136.005 138.095 136.332 137.964C136.668 137.833 137.013 137.628 137.368 137.348L137.746 138.188C137.447 138.468 137.069 138.692 136.612 138.86C136.164 139.019 135.697 139.098 135.212 139.098ZM142.466 131.79C142.699 131.79 142.914 131.818 143.11 131.874L143.082 132.91C142.867 132.835 142.62 132.798 142.34 132.798C141.658 132.798 141.15 133.013 140.814 133.442C140.487 133.862 140.324 134.375 140.324 134.982V139H139.19V133.932C139.19 133.204 139.152 132.546 139.078 131.958H140.156L140.268 133.26C140.445 132.784 140.73 132.42 141.122 132.168C141.514 131.916 141.962 131.79 142.466 131.79ZM150.019 135.444H144.853C144.863 136.34 145.068 137.017 145.469 137.474C145.88 137.931 146.473 138.16 147.247 138.16C148.069 138.16 148.825 137.885 149.515 137.334L149.893 138.16C149.585 138.449 149.189 138.678 148.703 138.846C148.227 139.014 147.737 139.098 147.233 139.098C146.132 139.098 145.269 138.776 144.643 138.132C144.018 137.479 143.705 136.587 143.705 135.458C143.705 134.739 143.845 134.105 144.125 133.554C144.405 132.994 144.797 132.56 145.301 132.252C145.805 131.944 146.379 131.79 147.023 131.79C147.957 131.79 148.689 132.098 149.221 132.714C149.753 133.321 150.019 134.161 150.019 135.234V135.444ZM147.037 132.672C146.449 132.672 145.969 132.849 145.595 133.204C145.231 133.559 144.998 134.058 144.895 134.702H148.997C148.941 134.039 148.745 133.535 148.409 133.19C148.083 132.845 147.625 132.672 147.037 132.672ZM157.942 131.958V139H156.822V137.726C156.617 138.165 156.304 138.505 155.884 138.748C155.474 138.981 154.993 139.098 154.442 139.098C153.817 139.098 153.266 138.949 152.79 138.65C152.324 138.351 151.96 137.931 151.698 137.39C151.446 136.839 151.32 136.2 151.32 135.472C151.32 134.744 151.451 134.105 151.712 133.554C151.974 132.994 152.338 132.56 152.804 132.252C153.28 131.944 153.826 131.79 154.442 131.79C154.993 131.79 155.474 131.911 155.884 132.154C156.295 132.397 156.608 132.737 156.822 133.176V131.958H157.942ZM154.666 138.16C155.357 138.16 155.889 137.927 156.262 137.46C156.636 136.984 156.822 136.312 156.822 135.444C156.822 134.576 156.636 133.909 156.262 133.442C155.889 132.975 155.357 132.742 154.666 132.742C153.976 132.742 153.434 132.985 153.042 133.47C152.66 133.946 152.468 134.613 152.468 135.472C152.468 136.331 152.66 136.993 153.042 137.46C153.425 137.927 153.966 138.16 154.666 138.16ZM161.647 132.854V136.704C161.647 137.227 161.754 137.595 161.969 137.81C162.184 138.015 162.487 138.118 162.879 138.118C163.14 138.118 163.392 138.076 163.635 137.992V138.958C163.346 139.051 163.019 139.098 162.655 139.098C161.983 139.098 161.456 138.911 161.073 138.538C160.7 138.155 160.513 137.595 160.513 136.858V132.854H159.141V131.958H160.513V130.152L161.647 129.746V131.958H163.663V132.854H161.647ZM170.924 135.444H165.758C165.767 136.34 165.972 137.017 166.374 137.474C166.784 137.931 167.377 138.16 168.152 138.16C168.973 138.16 169.729 137.885 170.42 137.334L170.798 138.16C170.49 138.449 170.093 138.678 169.608 138.846C169.132 139.014 168.642 139.098 168.138 139.098C167.036 139.098 166.173 138.776 165.548 138.132C164.922 137.479 164.61 136.587 164.61 135.458C164.61 134.739 164.75 134.105 165.03 133.554C165.31 132.994 165.702 132.56 166.206 132.252C166.71 131.944 167.284 131.79 167.928 131.79C168.861 131.79 169.594 132.098 170.126 132.714C170.658 133.321 170.924 134.161 170.924 135.234V135.444ZM167.942 132.672C167.354 132.672 166.873 132.849 166.5 133.204C166.136 133.559 165.902 134.058 165.8 134.702H169.902C169.846 134.039 169.65 133.535 169.314 133.19C168.987 132.845 168.53 132.672 167.942 132.672ZM178.675 139.098C177.49 139.098 176.552 138.795 175.861 138.188L176.239 137.348C176.622 137.647 177.009 137.861 177.401 137.992C177.793 138.123 178.232 138.188 178.717 138.188C179.249 138.188 179.65 138.099 179.921 137.922C180.201 137.735 180.341 137.469 180.341 137.124C180.341 136.844 180.248 136.62 180.061 136.452C179.874 136.284 179.566 136.153 179.137 136.06L177.947 135.78C177.359 135.649 176.902 135.416 176.575 135.08C176.258 134.744 176.099 134.343 176.099 133.876C176.099 133.26 176.346 132.761 176.841 132.378C177.336 131.986 177.989 131.79 178.801 131.79C179.296 131.79 179.762 131.869 180.201 132.028C180.64 132.187 181.008 132.415 181.307 132.714L180.929 133.54C180.266 132.989 179.557 132.714 178.801 132.714C178.297 132.714 177.905 132.812 177.625 133.008C177.354 133.195 177.219 133.461 177.219 133.806C177.219 134.095 177.303 134.324 177.471 134.492C177.648 134.66 177.928 134.791 178.311 134.884L179.501 135.178C180.154 135.327 180.64 135.561 180.957 135.878C181.274 136.186 181.433 136.592 181.433 137.096C181.433 137.703 181.186 138.188 180.691 138.552C180.196 138.916 179.524 139.098 178.675 139.098ZM189.134 131.958V139H188.028V137.782C187.804 138.211 187.492 138.538 187.09 138.762C186.689 138.986 186.236 139.098 185.732 139.098C184.902 139.098 184.272 138.865 183.842 138.398C183.413 137.931 183.198 137.241 183.198 136.326V131.958H184.332V136.298C184.332 136.933 184.463 137.399 184.724 137.698C184.986 137.997 185.382 138.146 185.914 138.146C186.54 138.146 187.044 137.945 187.426 137.544C187.809 137.133 188 136.597 188 135.934V131.958H189.134ZM194.835 131.79C195.451 131.79 195.997 131.944 196.473 132.252C196.949 132.56 197.317 132.994 197.579 133.554C197.84 134.105 197.971 134.744 197.971 135.472C197.971 136.2 197.84 136.839 197.579 137.39C197.317 137.931 196.949 138.351 196.473 138.65C196.006 138.949 195.46 139.098 194.835 139.098C194.284 139.098 193.803 138.977 193.393 138.734C192.982 138.491 192.669 138.146 192.455 137.698V142.024H191.321V133.932C191.321 133.204 191.283 132.546 191.209 131.958H192.287L192.399 133.316C192.595 132.831 192.903 132.457 193.323 132.196C193.752 131.925 194.256 131.79 194.835 131.79ZM194.625 138.16C195.315 138.16 195.847 137.927 196.221 137.46C196.603 136.993 196.795 136.331 196.795 135.472C196.795 134.613 196.603 133.946 196.221 133.47C195.838 132.985 195.306 132.742 194.625 132.742C193.925 132.742 193.388 132.975 193.015 133.442C192.641 133.909 192.455 134.576 192.455 135.444C192.455 136.312 192.641 136.984 193.015 137.46C193.388 137.927 193.925 138.16 194.625 138.16ZM205.609 135.444H200.443C200.452 136.34 200.658 137.017 201.059 137.474C201.47 137.931 202.062 138.16 202.837 138.16C203.658 138.16 204.414 137.885 205.105 137.334L205.483 138.16C205.175 138.449 204.778 138.678 204.293 138.846C203.817 139.014 203.327 139.098 202.823 139.098C201.722 139.098 200.858 138.776 200.233 138.132C199.608 137.479 199.295 136.587 199.295 135.458C199.295 134.739 199.435 134.105 199.715 133.554C199.995 132.994 200.387 132.56 200.891 132.252C201.395 131.944 201.969 131.79 202.613 131.79C203.546 131.79 204.279 132.098 204.811 132.714C205.343 133.321 205.609 134.161 205.609 135.234V135.444ZM202.627 132.672C202.039 132.672 201.558 132.849 201.185 133.204C200.821 133.559 200.588 134.058 200.485 134.702H204.587C204.531 134.039 204.335 133.535 203.999 133.19C203.672 132.845 203.215 132.672 202.627 132.672ZM210.606 131.79C210.84 131.79 211.054 131.818 211.25 131.874L211.222 132.91C211.008 132.835 210.76 132.798 210.48 132.798C209.799 132.798 209.29 133.013 208.954 133.442C208.628 133.862 208.464 134.375 208.464 134.982V139H207.33V133.932C207.33 133.204 207.293 132.546 207.218 131.958H208.296L208.408 133.26C208.586 132.784 208.87 132.42 209.262 132.168C209.654 131.916 210.102 131.79 210.606 131.79ZM218.965 139.098C218.302 139.098 217.719 138.949 217.215 138.65C216.711 138.351 216.319 137.927 216.039 137.376C215.768 136.825 215.633 136.181 215.633 135.444C215.633 134.707 215.768 134.063 216.039 133.512C216.319 132.961 216.711 132.537 217.215 132.238C217.719 131.939 218.302 131.79 218.965 131.79C219.628 131.79 220.211 131.939 220.715 132.238C221.219 132.537 221.606 132.961 221.877 133.512C222.157 134.063 222.297 134.707 222.297 135.444C222.297 136.181 222.157 136.825 221.877 137.376C221.606 137.927 221.219 138.351 220.715 138.65C220.211 138.949 219.628 139.098 218.965 139.098ZM218.965 138.16C219.665 138.16 220.202 137.931 220.575 137.474C220.948 137.007 221.135 136.331 221.135 135.444C221.135 134.585 220.944 133.923 220.561 133.456C220.178 132.98 219.646 132.742 218.965 132.742C218.274 132.742 217.738 132.98 217.355 133.456C216.972 133.923 216.781 134.585 216.781 135.444C216.781 136.331 216.968 137.007 217.341 137.474C217.724 137.931 218.265 138.16 218.965 138.16ZM227.579 131.79C228.195 131.79 228.741 131.944 229.217 132.252C229.693 132.56 230.061 132.994 230.323 133.554C230.584 134.105 230.715 134.744 230.715 135.472C230.715 136.2 230.584 136.839 230.323 137.39C230.061 137.931 229.693 138.351 229.217 138.65C228.75 138.949 228.204 139.098 227.579 139.098C227.028 139.098 226.547 138.977 226.137 138.734C225.726 138.491 225.413 138.146 225.199 137.698V142.024H224.065V133.932C224.065 133.204 224.027 132.546 223.953 131.958H225.031L225.143 133.316C225.339 132.831 225.647 132.457 226.067 132.196C226.496 131.925 227 131.79 227.579 131.79ZM227.369 138.16C228.059 138.16 228.591 137.927 228.965 137.46C229.347 136.993 229.539 136.331 229.539 135.472C229.539 134.613 229.347 133.946 228.965 133.47C228.582 132.985 228.05 132.742 227.369 132.742C226.669 132.742 226.132 132.975 225.759 133.442C225.385 133.909 225.199 134.576 225.199 135.444C225.199 136.312 225.385 136.984 225.759 137.46C226.132 137.927 226.669 138.16 227.369 138.16ZM233.958 132.854V136.704C233.958 137.227 234.065 137.595 234.28 137.81C234.494 138.015 234.798 138.118 235.19 138.118C235.451 138.118 235.703 138.076 235.946 137.992V138.958C235.656 139.051 235.33 139.098 234.966 139.098C234.294 139.098 233.766 138.911 233.384 138.538C233.01 138.155 232.824 137.595 232.824 136.858V132.854H231.452V131.958H232.824V130.152L233.958 129.746V131.958H235.974V132.854H233.958ZM237.34 131.958H238.474V139H237.34V131.958ZM238.614 128.976V130.264H237.228V128.976H238.614ZM248.488 131.79C250.047 131.79 250.826 132.719 250.826 134.576V139H249.692V134.632C249.692 133.969 249.575 133.489 249.342 133.19C249.118 132.891 248.749 132.742 248.236 132.742C247.639 132.742 247.172 132.943 246.836 133.344C246.5 133.745 246.332 134.291 246.332 134.982V139H245.198V134.632C245.198 133.979 245.081 133.503 244.848 133.204C244.615 132.896 244.241 132.742 243.728 132.742C243.131 132.742 242.659 132.943 242.314 133.344C241.978 133.745 241.81 134.291 241.81 134.982V139H240.676V133.932C240.676 133.204 240.639 132.546 240.564 131.958H241.642L241.754 133.19C241.95 132.742 242.239 132.397 242.622 132.154C243.014 131.911 243.467 131.79 243.98 131.79C244.54 131.79 244.997 131.902 245.352 132.126C245.707 132.35 245.968 132.695 246.136 133.162C246.351 132.742 246.663 132.411 247.074 132.168C247.494 131.916 247.965 131.79 248.488 131.79ZM252.981 131.958H254.115V139H252.981V131.958ZM254.255 128.976V130.264H252.869V128.976H254.255ZM261.875 138.104V139H255.925V138.216L260.363 132.854H256.079V131.958H261.721V132.784L257.325 138.104H261.875ZM269.306 135.444H264.14C264.15 136.34 264.355 137.017 264.756 137.474C265.167 137.931 265.76 138.16 266.534 138.16C267.356 138.16 268.112 137.885 268.802 137.334L269.18 138.16C268.872 138.449 268.476 138.678 267.99 138.846C267.514 139.014 267.024 139.098 266.52 139.098C265.419 139.098 264.556 138.776 263.93 138.132C263.305 137.479 262.992 136.587 262.992 135.458C262.992 134.739 263.132 134.105 263.412 133.554C263.692 132.994 264.084 132.56 264.588 132.252C265.092 131.944 265.666 131.79 266.31 131.79C267.244 131.79 267.976 132.098 268.508 132.714C269.04 133.321 269.306 134.161 269.306 135.234V135.444ZM266.324 132.672C265.736 132.672 265.256 132.849 264.882 133.204C264.518 133.559 264.285 134.058 264.182 134.702H268.284C268.228 134.039 268.032 133.535 267.696 133.19C267.37 132.845 266.912 132.672 266.324 132.672ZM277.23 128.696V139H276.11V137.726C275.904 138.165 275.592 138.505 275.172 138.748C274.761 138.981 274.28 139.098 273.73 139.098C273.114 139.098 272.568 138.944 272.092 138.636C271.625 138.328 271.261 137.899 271 137.348C270.738 136.788 270.608 136.144 270.608 135.416C270.608 134.688 270.734 134.053 270.986 133.512C271.247 132.961 271.616 132.537 272.092 132.238C272.568 131.939 273.114 131.79 273.73 131.79C274.28 131.79 274.761 131.911 275.172 132.154C275.582 132.387 275.89 132.719 276.096 133.148V128.696H277.23ZM273.954 138.16C274.644 138.16 275.176 137.927 275.55 137.46C275.923 136.984 276.11 136.312 276.11 135.444C276.11 134.585 275.923 133.923 275.55 133.456C275.176 132.98 274.644 132.742 273.954 132.742C273.263 132.742 272.722 132.975 272.33 133.442C271.947 133.909 271.756 134.567 271.756 135.416C271.756 136.284 271.947 136.961 272.33 137.446C272.722 137.922 273.263 138.16 273.954 138.16ZM286.586 131.79C287.202 131.79 287.748 131.944 288.224 132.252C288.7 132.56 289.069 132.994 289.33 133.554C289.592 134.105 289.722 134.744 289.722 135.472C289.722 136.2 289.592 136.839 289.33 137.39C289.069 137.931 288.7 138.351 288.224 138.65C287.758 138.949 287.212 139.098 286.586 139.098C286.036 139.098 285.555 138.977 285.144 138.734C284.734 138.491 284.421 138.146 284.206 137.698V142.024H283.072V133.932C283.072 133.204 283.035 132.546 282.96 131.958H284.038L284.15 133.316C284.346 132.831 284.654 132.457 285.074 132.196C285.504 131.925 286.008 131.79 286.586 131.79ZM286.376 138.16C287.067 138.16 287.599 137.927 287.972 137.46C288.355 136.993 288.546 136.331 288.546 135.472C288.546 134.613 288.355 133.946 287.972 133.47C287.59 132.985 287.058 132.742 286.376 132.742C285.676 132.742 285.14 132.975 284.766 133.442C284.393 133.909 284.206 134.576 284.206 135.444C284.206 136.312 284.393 136.984 284.766 137.46C285.14 137.927 285.676 138.16 286.376 138.16ZM297.669 131.958V139H296.549V137.726C296.344 138.165 296.031 138.505 295.611 138.748C295.2 138.981 294.72 139.098 294.169 139.098C293.544 139.098 292.993 138.949 292.517 138.65C292.05 138.351 291.686 137.931 291.425 137.39C291.173 136.839 291.047 136.2 291.047 135.472C291.047 134.744 291.178 134.105 291.439 133.554C291.7 132.994 292.064 132.56 292.531 132.252C293.007 131.944 293.553 131.79 294.169 131.79C294.72 131.79 295.2 131.911 295.611 132.154C296.022 132.397 296.334 132.737 296.549 133.176V131.958H297.669ZM294.393 138.16C295.084 138.16 295.616 137.927 295.989 137.46C296.362 136.984 296.549 136.312 296.549 135.444C296.549 134.576 296.362 133.909 295.989 133.442C295.616 132.975 295.084 132.742 294.393 132.742C293.702 132.742 293.161 132.985 292.769 133.47C292.386 133.946 292.195 134.613 292.195 135.472C292.195 136.331 292.386 136.993 292.769 137.46C293.152 137.927 293.693 138.16 294.393 138.16ZM306.134 131.958V138.944C306.134 139.989 305.863 140.778 305.322 141.31C304.79 141.851 304.001 142.122 302.956 142.122C301.882 142.122 300.958 141.879 300.184 141.394L300.38 140.47C300.828 140.722 301.248 140.904 301.64 141.016C302.041 141.128 302.48 141.184 302.956 141.184C303.637 141.184 304.15 141.002 304.496 140.638C304.841 140.283 305.014 139.751 305.014 139.042V137.376C304.799 137.824 304.482 138.174 304.062 138.426C303.651 138.669 303.161 138.79 302.592 138.79C301.976 138.79 301.425 138.645 300.94 138.356C300.464 138.067 300.095 137.656 299.834 137.124C299.572 136.592 299.442 135.981 299.442 135.29C299.442 134.599 299.572 133.988 299.834 133.456C300.095 132.924 300.464 132.513 300.94 132.224C301.425 131.935 301.976 131.79 302.592 131.79C303.152 131.79 303.637 131.911 304.048 132.154C304.468 132.397 304.785 132.737 305 133.176V131.958H306.134ZM302.816 137.838C303.497 137.838 304.029 137.614 304.412 137.166C304.804 136.709 305 136.083 305 135.29C305 134.497 304.804 133.876 304.412 133.428C304.029 132.971 303.497 132.742 302.816 132.742C302.125 132.742 301.579 132.971 301.178 133.428C300.786 133.876 300.59 134.497 300.59 135.29C300.59 136.083 300.786 136.709 301.178 137.166C301.579 137.614 302.125 137.838 302.816 137.838ZM314.205 135.444H309.039C309.048 136.34 309.253 137.017 309.655 137.474C310.065 137.931 310.658 138.16 311.433 138.16C312.254 138.16 313.01 137.885 313.701 137.334L314.079 138.16C313.771 138.449 313.374 138.678 312.889 138.846C312.413 139.014 311.923 139.098 311.419 139.098C310.317 139.098 309.454 138.776 308.829 138.132C308.203 137.479 307.891 136.587 307.891 135.458C307.891 134.739 308.031 134.105 308.311 133.554C308.591 132.994 308.983 132.56 309.487 132.252C309.991 131.944 310.565 131.79 311.209 131.79C312.142 131.79 312.875 132.098 313.407 132.714C313.939 133.321 314.205 134.161 314.205 135.234V135.444ZM311.223 132.672C310.635 132.672 310.154 132.849 309.781 133.204C309.417 133.559 309.183 134.058 309.081 134.702H313.183C313.127 134.039 312.931 133.535 312.595 133.19C312.268 132.845 311.811 132.672 311.223 132.672ZM318.306 139.098C317.121 139.098 316.183 138.795 315.492 138.188L315.87 137.348C316.253 137.647 316.64 137.861 317.032 137.992C317.424 138.123 317.863 138.188 318.348 138.188C318.88 138.188 319.281 138.099 319.552 137.922C319.832 137.735 319.972 137.469 319.972 137.124C319.972 136.844 319.879 136.62 319.692 136.452C319.505 136.284 319.197 136.153 318.768 136.06L317.578 135.78C316.99 135.649 316.533 135.416 316.206 135.08C315.889 134.744 315.73 134.343 315.73 133.876C315.73 133.26 315.977 132.761 316.472 132.378C316.967 131.986 317.62 131.79 318.432 131.79C318.927 131.79 319.393 131.869 319.832 132.028C320.271 132.187 320.639 132.415 320.938 132.714L320.56 133.54C319.897 132.989 319.188 132.714 318.432 132.714C317.928 132.714 317.536 132.812 317.256 133.008C316.985 133.195 316.85 133.461 316.85 133.806C316.85 134.095 316.934 134.324 317.102 134.492C317.279 134.66 317.559 134.791 317.942 134.884L319.132 135.178C319.785 135.327 320.271 135.561 320.588 135.878C320.905 136.186 321.064 136.592 321.064 137.096C321.064 137.703 320.817 138.188 320.322 138.552C319.827 138.916 319.155 139.098 318.306 139.098ZM111.294 149.958V157H110.174V155.726C109.969 156.165 109.656 156.505 109.236 156.748C108.825 156.981 108.345 157.098 107.794 157.098C107.169 157.098 106.618 156.949 106.142 156.65C105.675 156.351 105.311 155.931 105.05 155.39C104.798 154.839 104.672 154.2 104.672 153.472C104.672 152.744 104.803 152.105 105.064 151.554C105.325 150.994 105.689 150.56 106.156 150.252C106.632 149.944 107.178 149.79 107.794 149.79C108.345 149.79 108.825 149.911 109.236 150.154C109.647 150.397 109.959 150.737 110.174 151.176V149.958H111.294ZM108.018 156.16C108.709 156.16 109.241 155.927 109.614 155.46C109.987 154.984 110.174 154.312 110.174 153.444C110.174 152.576 109.987 151.909 109.614 151.442C109.241 150.975 108.709 150.742 108.018 150.742C107.327 150.742 106.786 150.985 106.394 151.47C106.011 151.946 105.82 152.613 105.82 153.472C105.82 154.331 106.011 154.993 106.394 155.46C106.777 155.927 107.318 156.16 108.018 156.16ZM117.001 149.79C118.69 149.79 119.535 150.719 119.535 152.576V157H118.401V152.632C118.401 151.979 118.27 151.503 118.009 151.204C117.747 150.896 117.337 150.742 116.777 150.742C116.123 150.742 115.601 150.943 115.209 151.344C114.817 151.745 114.621 152.287 114.621 152.968V157H113.487V151.932C113.487 151.204 113.449 150.546 113.375 149.958H114.453L114.565 151.218C114.779 150.761 115.101 150.411 115.531 150.168C115.96 149.916 116.45 149.79 117.001 149.79ZM127.878 146.696V157H126.758V155.726C126.553 156.165 126.24 156.505 125.82 156.748C125.409 156.981 124.929 157.098 124.378 157.098C123.762 157.098 123.216 156.944 122.74 156.636C122.273 156.328 121.909 155.899 121.648 155.348C121.387 154.788 121.256 154.144 121.256 153.416C121.256 152.688 121.382 152.053 121.634 151.512C121.895 150.961 122.264 150.537 122.74 150.238C123.216 149.939 123.762 149.79 124.378 149.79C124.929 149.79 125.409 149.911 125.82 150.154C126.231 150.387 126.539 150.719 126.744 151.148V146.696H127.878ZM124.602 156.16C125.293 156.16 125.825 155.927 126.198 155.46C126.571 154.984 126.758 154.312 126.758 153.444C126.758 152.585 126.571 151.923 126.198 151.456C125.825 150.98 125.293 150.742 124.602 150.742C123.911 150.742 123.37 150.975 122.978 151.442C122.595 151.909 122.404 152.567 122.404 153.416C122.404 154.284 122.595 154.961 122.978 155.446C123.37 155.922 123.911 156.16 124.602 156.16ZM139.993 149.958V156.944C139.993 157.989 139.722 158.778 139.181 159.31C138.649 159.851 137.86 160.122 136.815 160.122C135.742 160.122 134.818 159.879 134.043 159.394L134.239 158.47C134.687 158.722 135.107 158.904 135.499 159.016C135.9 159.128 136.339 159.184 136.815 159.184C137.496 159.184 138.01 159.002 138.355 158.638C138.7 158.283 138.873 157.751 138.873 157.042V155.376C138.658 155.824 138.341 156.174 137.921 156.426C137.51 156.669 137.02 156.79 136.451 156.79C135.835 156.79 135.284 156.645 134.799 156.356C134.323 156.067 133.954 155.656 133.693 155.124C133.432 154.592 133.301 153.981 133.301 153.29C133.301 152.599 133.432 151.988 133.693 151.456C133.954 150.924 134.323 150.513 134.799 150.224C135.284 149.935 135.835 149.79 136.451 149.79C137.011 149.79 137.496 149.911 137.907 150.154C138.327 150.397 138.644 150.737 138.859 151.176V149.958H139.993ZM136.675 155.838C137.356 155.838 137.888 155.614 138.271 155.166C138.663 154.709 138.859 154.083 138.859 153.29C138.859 152.497 138.663 151.876 138.271 151.428C137.888 150.971 137.356 150.742 136.675 150.742C135.984 150.742 135.438 150.971 135.037 151.428C134.645 151.876 134.449 152.497 134.449 153.29C134.449 154.083 134.645 154.709 135.037 155.166C135.438 155.614 135.984 155.838 136.675 155.838ZM148.064 153.444H142.898C142.907 154.34 143.113 155.017 143.514 155.474C143.925 155.931 144.517 156.16 145.292 156.16C146.113 156.16 146.869 155.885 147.56 155.334L147.938 156.16C147.63 156.449 147.233 156.678 146.748 156.846C146.272 157.014 145.782 157.098 145.278 157.098C144.177 157.098 143.313 156.776 142.688 156.132C142.063 155.479 141.75 154.587 141.75 153.458C141.75 152.739 141.89 152.105 142.17 151.554C142.45 150.994 142.842 150.56 143.346 150.252C143.85 149.944 144.424 149.79 145.068 149.79C146.001 149.79 146.734 150.098 147.266 150.714C147.798 151.321 148.064 152.161 148.064 153.234V153.444ZM145.082 150.672C144.494 150.672 144.013 150.849 143.64 151.204C143.276 151.559 143.043 152.058 142.94 152.702H147.042C146.986 152.039 146.79 151.535 146.454 151.19C146.127 150.845 145.67 150.672 145.082 150.672ZM151.256 150.854V154.704C151.256 155.227 151.364 155.595 151.578 155.81C151.793 156.015 152.096 156.118 152.488 156.118C152.75 156.118 153.002 156.076 153.244 155.992V156.958C152.955 157.051 152.628 157.098 152.264 157.098C151.592 157.098 151.065 156.911 150.682 156.538C150.309 156.155 150.122 155.595 150.122 154.858V150.854H148.75V149.958H150.122V148.152L151.256 147.746V149.958H153.272V150.854H151.256ZM161.565 149.79C161.799 149.79 162.013 149.818 162.209 149.874L162.181 150.91C161.967 150.835 161.719 150.798 161.439 150.798C160.758 150.798 160.249 151.013 159.913 151.442C159.587 151.862 159.423 152.375 159.423 152.982V157H158.289V151.932C158.289 151.204 158.252 150.546 158.177 149.958H159.255L159.367 151.26C159.545 150.784 159.829 150.42 160.221 150.168C160.613 149.916 161.061 149.79 161.565 149.79ZM169.119 153.444H163.953C163.962 154.34 164.167 155.017 164.569 155.474C164.979 155.931 165.572 156.16 166.347 156.16C167.168 156.16 167.924 155.885 168.615 155.334L168.993 156.16C168.685 156.449 168.288 156.678 167.803 156.846C167.327 157.014 166.837 157.098 166.333 157.098C165.231 157.098 164.368 156.776 163.743 156.132C163.117 155.479 162.805 154.587 162.805 153.458C162.805 152.739 162.945 152.105 163.225 151.554C163.505 150.994 163.897 150.56 164.401 150.252C164.905 149.944 165.479 149.79 166.123 149.79C167.056 149.79 167.789 150.098 168.321 150.714C168.853 151.321 169.119 152.161 169.119 153.234V153.444ZM166.137 150.672C165.549 150.672 165.068 150.849 164.695 151.204C164.331 151.559 164.097 152.058 163.995 152.702H168.097C168.041 152.039 167.845 151.535 167.509 151.19C167.182 150.845 166.725 150.672 166.137 150.672ZM177.042 149.958V157H175.922V155.726C175.717 156.165 175.404 156.505 174.984 156.748C174.573 156.981 174.093 157.098 173.542 157.098C172.917 157.098 172.366 156.949 171.89 156.65C171.423 156.351 171.059 155.931 170.798 155.39C170.546 154.839 170.42 154.2 170.42 153.472C170.42 152.744 170.551 152.105 170.812 151.554C171.073 150.994 171.437 150.56 171.904 150.252C172.38 149.944 172.926 149.79 173.542 149.79C174.093 149.79 174.573 149.911 174.984 150.154C175.395 150.397 175.707 150.737 175.922 151.176V149.958H177.042ZM173.766 156.16C174.457 156.16 174.989 155.927 175.362 155.46C175.735 154.984 175.922 154.312 175.922 153.444C175.922 152.576 175.735 151.909 175.362 151.442C174.989 150.975 174.457 150.742 173.766 150.742C173.075 150.742 172.534 150.985 172.142 151.47C171.759 151.946 171.568 152.613 171.568 153.472C171.568 154.331 171.759 154.993 172.142 155.46C172.525 155.927 173.066 156.16 173.766 156.16ZM179.235 146.696H180.369V157H179.235V146.696ZM182.501 152.772H186.463V153.71H182.501V152.772ZM190.084 150.854V154.704C190.084 155.227 190.192 155.595 190.406 155.81C190.621 156.015 190.924 156.118 191.316 156.118C191.578 156.118 191.83 156.076 192.072 155.992V156.958C191.783 157.051 191.456 157.098 191.092 157.098C190.42 157.098 189.893 156.911 189.51 156.538C189.137 156.155 188.95 155.595 188.95 154.858V150.854H187.578V149.958H188.95V148.152L190.084 147.746V149.958H192.1V150.854H190.084ZM193.467 149.958H194.601V157H193.467V149.958ZM194.741 146.976V148.264H193.355V146.976H194.741ZM204.615 149.79C206.174 149.79 206.953 150.719 206.953 152.576V157H205.819V152.632C205.819 151.969 205.702 151.489 205.469 151.19C205.245 150.891 204.876 150.742 204.363 150.742C203.766 150.742 203.299 150.943 202.963 151.344C202.627 151.745 202.459 152.291 202.459 152.982V157H201.325V152.632C201.325 151.979 201.208 151.503 200.975 151.204C200.742 150.896 200.368 150.742 199.855 150.742C199.258 150.742 198.786 150.943 198.441 151.344C198.105 151.745 197.937 152.291 197.937 152.982V157H196.803V151.932C196.803 151.204 196.766 150.546 196.691 149.958H197.769L197.881 151.19C198.077 150.742 198.366 150.397 198.749 150.154C199.141 149.911 199.594 149.79 200.107 149.79C200.667 149.79 201.124 149.902 201.479 150.126C201.834 150.35 202.095 150.695 202.263 151.162C202.478 150.742 202.79 150.411 203.201 150.168C203.621 149.916 204.092 149.79 204.615 149.79ZM215.002 153.444H209.836C209.845 154.34 210.05 155.017 210.452 155.474C210.862 155.931 211.455 156.16 212.23 156.16C213.051 156.16 213.807 155.885 214.498 155.334L214.876 156.16C214.568 156.449 214.171 156.678 213.686 156.846C213.21 157.014 212.72 157.098 212.216 157.098C211.114 157.098 210.251 156.776 209.626 156.132C209 155.479 208.688 154.587 208.688 153.458C208.688 152.739 208.828 152.105 209.108 151.554C209.388 150.994 209.78 150.56 210.284 150.252C210.788 149.944 211.362 149.79 212.006 149.79C212.939 149.79 213.672 150.098 214.204 150.714C214.736 151.321 215.002 152.161 215.002 153.234V153.444ZM212.02 150.672C211.432 150.672 210.951 150.849 210.578 151.204C210.214 151.559 209.98 152.058 209.878 152.702H213.98C213.924 152.039 213.728 151.535 213.392 151.19C213.065 150.845 212.608 150.672 212.02 150.672ZM223.677 157.112C222.119 157.112 220.877 156.692 219.953 155.852L220.387 154.97C220.882 155.39 221.386 155.689 221.899 155.866C222.413 156.043 223.01 156.132 223.691 156.132C224.494 156.132 225.11 155.978 225.539 155.67C225.978 155.353 226.197 154.909 226.197 154.34C226.197 154.004 226.09 153.733 225.875 153.528C225.67 153.313 225.395 153.145 225.049 153.024C224.713 152.903 224.261 152.777 223.691 152.646C222.926 152.478 222.296 152.296 221.801 152.1C221.307 151.904 220.905 151.624 220.597 151.26C220.289 150.887 220.135 150.401 220.135 149.804C220.135 149.235 220.285 148.735 220.583 148.306C220.882 147.867 221.302 147.527 221.843 147.284C222.394 147.041 223.033 146.92 223.761 146.92C224.452 146.92 225.096 147.027 225.693 147.242C226.291 147.457 226.795 147.769 227.205 148.18L226.757 149.062C226.291 148.661 225.815 148.367 225.329 148.18C224.853 147.993 224.331 147.9 223.761 147.9C222.987 147.9 222.38 148.068 221.941 148.404C221.503 148.731 221.283 149.183 221.283 149.762C221.283 150.266 221.475 150.644 221.857 150.896C222.24 151.148 222.828 151.367 223.621 151.554C224.48 151.759 225.152 151.951 225.637 152.128C226.132 152.296 226.543 152.557 226.869 152.912C227.196 153.257 227.359 153.719 227.359 154.298C227.359 154.858 227.21 155.353 226.911 155.782C226.613 156.202 226.183 156.529 225.623 156.762C225.073 156.995 224.424 157.112 223.677 157.112ZM229.236 147.032H235.536V147.984H230.37V151.456H235.256V152.422H230.37V156.048H235.536V157H229.236V147.032ZM245.292 157H244.074L242.842 153.682C242.693 153.271 242.483 152.996 242.212 152.856C241.951 152.716 241.578 152.646 241.092 152.646H238.6V157H237.466V147.032H241.428C242.502 147.032 243.323 147.27 243.892 147.746C244.471 148.222 244.76 148.908 244.76 149.804C244.76 150.457 244.588 151.008 244.242 151.456C243.906 151.895 243.416 152.207 242.772 152.394C243.062 152.441 243.309 152.567 243.514 152.772C243.72 152.968 243.892 153.253 244.032 153.626L245.292 157ZM241.33 151.694C242.861 151.694 243.626 151.069 243.626 149.818C243.626 149.202 243.44 148.745 243.066 148.446C242.693 148.138 242.114 147.984 241.33 147.984H238.6V151.694H241.33ZM247.173 147.032H251.149C252.176 147.032 252.974 147.279 253.543 147.774C254.122 148.269 254.411 148.95 254.411 149.818C254.411 150.686 254.122 151.372 253.543 151.876C252.965 152.371 252.167 152.618 251.149 152.618H248.321V157H247.173V147.032ZM251.051 151.666C251.789 151.666 252.344 151.507 252.717 151.19C253.091 150.873 253.277 150.415 253.277 149.818C253.277 149.221 253.091 148.768 252.717 148.46C252.344 148.143 251.789 147.984 251.051 147.984H248.321V151.666H251.051ZM263.317 149.79C263.933 149.79 264.479 149.944 264.955 150.252C265.431 150.56 265.8 150.994 266.061 151.554C266.322 152.105 266.453 152.744 266.453 153.472C266.453 154.2 266.322 154.839 266.061 155.39C265.8 155.931 265.431 156.351 264.955 156.65C264.488 156.949 263.942 157.098 263.317 157.098C262.766 157.098 262.286 156.977 261.875 156.734C261.464 156.491 261.152 156.146 260.937 155.698V160.024H259.803V151.932C259.803 151.204 259.766 150.546 259.691 149.958H260.769L260.881 151.316C261.077 150.831 261.385 150.457 261.805 150.196C262.234 149.925 262.738 149.79 263.317 149.79ZM263.107 156.16C263.798 156.16 264.33 155.927 264.703 155.46C265.086 154.993 265.277 154.331 265.277 153.472C265.277 152.613 265.086 151.946 264.703 151.47C264.32 150.985 263.788 150.742 263.107 150.742C262.407 150.742 261.87 150.975 261.497 151.442C261.124 151.909 260.937 152.576 260.937 153.444C260.937 154.312 261.124 154.984 261.497 155.46C261.87 155.927 262.407 156.16 263.107 156.16ZM271.109 157.098C270.447 157.098 269.863 156.949 269.359 156.65C268.855 156.351 268.463 155.927 268.183 155.376C267.913 154.825 267.777 154.181 267.777 153.444C267.777 152.707 267.913 152.063 268.183 151.512C268.463 150.961 268.855 150.537 269.359 150.238C269.863 149.939 270.447 149.79 271.109 149.79C271.772 149.79 272.355 149.939 272.859 150.238C273.363 150.537 273.751 150.961 274.021 151.512C274.301 152.063 274.441 152.707 274.441 153.444C274.441 154.181 274.301 154.825 274.021 155.376C273.751 155.927 273.363 156.351 272.859 156.65C272.355 156.949 271.772 157.098 271.109 157.098ZM271.109 156.16C271.809 156.16 272.346 155.931 272.719 155.474C273.093 155.007 273.279 154.331 273.279 153.444C273.279 152.585 273.088 151.923 272.705 151.456C272.323 150.98 271.791 150.742 271.109 150.742C270.419 150.742 269.882 150.98 269.499 151.456C269.117 151.923 268.925 152.585 268.925 153.444C268.925 154.331 269.112 155.007 269.485 155.474C269.868 155.931 270.409 156.16 271.109 156.16ZM278.589 157.098C277.404 157.098 276.466 156.795 275.775 156.188L276.153 155.348C276.536 155.647 276.923 155.861 277.315 155.992C277.707 156.123 278.146 156.188 278.631 156.188C279.163 156.188 279.565 156.099 279.835 155.922C280.115 155.735 280.255 155.469 280.255 155.124C280.255 154.844 280.162 154.62 279.975 154.452C279.789 154.284 279.481 154.153 279.051 154.06L277.861 153.78C277.273 153.649 276.816 153.416 276.489 153.08C276.172 152.744 276.013 152.343 276.013 151.876C276.013 151.26 276.261 150.761 276.755 150.378C277.25 149.986 277.903 149.79 278.715 149.79C279.21 149.79 279.677 149.869 280.115 150.028C280.554 150.187 280.923 150.415 281.221 150.714L280.843 151.54C280.181 150.989 279.471 150.714 278.715 150.714C278.211 150.714 277.819 150.812 277.539 151.008C277.269 151.195 277.133 151.461 277.133 151.806C277.133 152.095 277.217 152.324 277.385 152.492C277.563 152.66 277.843 152.791 278.225 152.884L279.415 153.178C280.069 153.327 280.554 153.561 280.871 153.878C281.189 154.186 281.347 154.592 281.347 155.096C281.347 155.703 281.1 156.188 280.605 156.552C280.111 156.916 279.439 157.098 278.589 157.098ZM283.155 149.958H284.289V157H283.155V149.958ZM284.429 146.976V148.264H283.043V146.976H284.429ZM288.002 150.854V154.704C288.002 155.227 288.11 155.595 288.324 155.81C288.539 156.015 288.842 156.118 289.234 156.118C289.496 156.118 289.748 156.076 289.99 155.992V156.958C289.701 157.051 289.374 157.098 289.01 157.098C288.338 157.098 287.811 156.911 287.428 156.538C287.055 156.155 286.868 155.595 286.868 154.858V150.854H285.496V149.958H286.868V148.152L288.002 147.746V149.958H290.018V150.854H288.002ZM291.385 149.958H292.519V157H291.385V149.958ZM292.659 146.976V148.264H291.273V146.976H292.659ZM297.633 157.098C296.97 157.098 296.387 156.949 295.883 156.65C295.379 156.351 294.987 155.927 294.707 155.376C294.436 154.825 294.301 154.181 294.301 153.444C294.301 152.707 294.436 152.063 294.707 151.512C294.987 150.961 295.379 150.537 295.883 150.238C296.387 149.939 296.97 149.79 297.633 149.79C298.296 149.79 298.879 149.939 299.383 150.238C299.887 150.537 300.274 150.961 300.545 151.512C300.825 152.063 300.965 152.707 300.965 153.444C300.965 154.181 300.825 154.825 300.545 155.376C300.274 155.927 299.887 156.351 299.383 156.65C298.879 156.949 298.296 157.098 297.633 157.098ZM297.633 156.16C298.333 156.16 298.87 155.931 299.243 155.474C299.616 155.007 299.803 154.331 299.803 153.444C299.803 152.585 299.612 151.923 299.229 151.456C298.846 150.98 298.314 150.742 297.633 150.742C296.942 150.742 296.406 150.98 296.023 151.456C295.64 151.923 295.449 152.585 295.449 153.444C295.449 154.331 295.636 155.007 296.009 155.474C296.392 155.931 296.933 156.16 297.633 156.16ZM306.247 149.79C307.936 149.79 308.781 150.719 308.781 152.576V157H307.647V152.632C307.647 151.979 307.516 151.503 307.255 151.204C306.993 150.896 306.583 150.742 306.023 150.742C305.369 150.742 304.847 150.943 304.455 151.344C304.063 151.745 303.867 152.287 303.867 152.968V157H302.733V151.932C302.733 151.204 302.695 150.546 302.621 149.958H303.699L303.811 151.218C304.025 150.761 304.347 150.411 304.777 150.168C305.206 149.916 305.696 149.79 306.247 149.79ZM107.794 165.62C107.421 165.62 107.127 165.727 106.912 165.942C106.707 166.147 106.604 166.507 106.604 167.02V167.958H108.326V168.854H106.604V175H105.47V168.854H104.098V167.958H105.47V166.88C105.47 166.143 105.652 165.587 106.016 165.214C106.389 164.831 106.907 164.64 107.57 164.64C107.897 164.64 108.214 164.682 108.522 164.766V165.732C108.261 165.657 108.018 165.62 107.794 165.62ZM112.652 175.098C111.99 175.098 111.406 174.949 110.902 174.65C110.398 174.351 110.006 173.927 109.726 173.376C109.456 172.825 109.32 172.181 109.32 171.444C109.32 170.707 109.456 170.063 109.726 169.512C110.006 168.961 110.398 168.537 110.902 168.238C111.406 167.939 111.99 167.79 112.652 167.79C113.315 167.79 113.898 167.939 114.402 168.238C114.906 168.537 115.294 168.961 115.564 169.512C115.844 170.063 115.984 170.707 115.984 171.444C115.984 172.181 115.844 172.825 115.564 173.376C115.294 173.927 114.906 174.351 114.402 174.65C113.898 174.949 113.315 175.098 112.652 175.098ZM112.652 174.16C113.352 174.16 113.889 173.931 114.262 173.474C114.636 173.007 114.822 172.331 114.822 171.444C114.822 170.585 114.631 169.923 114.248 169.456C113.866 168.98 113.334 168.742 112.652 168.742C111.962 168.742 111.425 168.98 111.042 169.456C110.66 169.923 110.468 170.585 110.468 171.444C110.468 172.331 110.655 173.007 111.028 173.474C111.411 173.931 111.952 174.16 112.652 174.16ZM121.028 167.79C121.261 167.79 121.476 167.818 121.672 167.874L121.644 168.91C121.429 168.835 121.182 168.798 120.902 168.798C120.221 168.798 119.712 169.013 119.376 169.442C119.049 169.862 118.886 170.375 118.886 170.982V175H117.752V169.932C117.752 169.204 117.715 168.546 117.64 167.958H118.718L118.83 169.26C119.007 168.784 119.292 168.42 119.684 168.168C120.076 167.916 120.524 167.79 121.028 167.79ZM132.677 167.958V175H131.557V173.726C131.351 174.165 131.039 174.505 130.619 174.748C130.208 174.981 129.727 175.098 129.177 175.098C128.551 175.098 128.001 174.949 127.525 174.65C127.058 174.351 126.694 173.931 126.433 173.39C126.181 172.839 126.055 172.2 126.055 171.472C126.055 170.744 126.185 170.105 126.447 169.554C126.708 168.994 127.072 168.56 127.539 168.252C128.015 167.944 128.561 167.79 129.177 167.79C129.727 167.79 130.208 167.911 130.619 168.154C131.029 168.397 131.342 168.737 131.557 169.176V167.958H132.677ZM129.401 174.16C130.091 174.16 130.623 173.927 130.997 173.46C131.37 172.984 131.557 172.312 131.557 171.444C131.557 170.576 131.37 169.909 130.997 169.442C130.623 168.975 130.091 168.742 129.401 168.742C128.71 168.742 128.169 168.985 127.777 169.47C127.394 169.946 127.203 170.613 127.203 171.472C127.203 172.331 127.394 172.993 127.777 173.46C128.159 173.927 128.701 174.16 129.401 174.16ZM134.869 164.696H136.003V175H134.869V164.696ZM138.205 164.696H139.339V175H138.205V164.696ZM151.38 167.958L148.09 175.644C147.744 176.447 147.31 177.035 146.788 177.408C146.265 177.781 145.621 178.038 144.856 178.178L144.618 177.296C145.28 177.147 145.78 176.946 146.116 176.694C146.461 176.451 146.746 176.073 146.97 175.56L147.25 174.93L144.268 167.958H145.458L147.838 173.768L150.246 167.958H151.38ZM155.459 175.098C154.796 175.098 154.213 174.949 153.709 174.65C153.205 174.351 152.813 173.927 152.533 173.376C152.262 172.825 152.127 172.181 152.127 171.444C152.127 170.707 152.262 170.063 152.533 169.512C152.813 168.961 153.205 168.537 153.709 168.238C154.213 167.939 154.796 167.79 155.459 167.79C156.122 167.79 156.705 167.939 157.209 168.238C157.713 168.537 158.1 168.961 158.371 169.512C158.651 170.063 158.791 170.707 158.791 171.444C158.791 172.181 158.651 172.825 158.371 173.376C158.1 173.927 157.713 174.351 157.209 174.65C156.705 174.949 156.122 175.098 155.459 175.098ZM155.459 174.16C156.159 174.16 156.696 173.931 157.069 173.474C157.442 173.007 157.629 172.331 157.629 171.444C157.629 170.585 157.438 169.923 157.055 169.456C156.672 168.98 156.14 168.742 155.459 168.742C154.768 168.742 154.232 168.98 153.849 169.456C153.466 169.923 153.275 170.585 153.275 171.444C153.275 172.331 153.462 173.007 153.835 173.474C154.218 173.931 154.759 174.16 155.459 174.16ZM166.453 167.958V175H165.347V173.782C165.123 174.211 164.81 174.538 164.409 174.762C164.007 174.986 163.555 175.098 163.051 175.098C162.22 175.098 161.59 174.865 161.161 174.398C160.731 173.931 160.517 173.241 160.517 172.326V167.958H161.651V172.298C161.651 172.933 161.781 173.399 162.043 173.698C162.304 173.997 162.701 174.146 163.233 174.146C163.858 174.146 164.362 173.945 164.745 173.544C165.127 173.133 165.319 172.597 165.319 171.934V167.958H166.453ZM171.915 167.79C172.148 167.79 172.363 167.818 172.559 167.874L172.531 168.91C172.316 168.835 172.069 168.798 171.789 168.798C171.108 168.798 170.599 169.013 170.263 169.442C169.936 169.862 169.773 170.375 169.773 170.982V175H168.639V169.932C168.639 169.204 168.602 168.546 168.527 167.958H169.605L169.717 169.26C169.894 168.784 170.179 168.42 170.571 168.168C170.963 167.916 171.411 167.79 171.915 167.79ZM182.108 175L178.496 171.612V175H177.362V164.696H178.496V171.192L181.814 167.972H183.256L179.728 171.346L183.592 175H182.108ZM190.338 171.444H185.172C185.181 172.34 185.386 173.017 185.788 173.474C186.198 173.931 186.791 174.16 187.566 174.16C188.387 174.16 189.143 173.885 189.834 173.334L190.212 174.16C189.904 174.449 189.507 174.678 189.022 174.846C188.546 175.014 188.056 175.098 187.552 175.098C186.45 175.098 185.587 174.776 184.962 174.132C184.336 173.479 184.024 172.587 184.024 171.458C184.024 170.739 184.164 170.105 184.444 169.554C184.724 168.994 185.116 168.56 185.62 168.252C186.124 167.944 186.698 167.79 187.342 167.79C188.275 167.79 189.008 168.098 189.54 168.714C190.072 169.321 190.338 170.161 190.338 171.234V171.444ZM187.356 168.672C186.768 168.672 186.287 168.849 185.914 169.204C185.55 169.559 185.316 170.058 185.214 170.702H189.316C189.26 170.039 189.064 169.535 188.728 169.19C188.401 168.845 187.944 168.672 187.356 168.672ZM198.165 167.958L194.875 175.644C194.529 176.447 194.095 177.035 193.573 177.408C193.05 177.781 192.406 178.038 191.641 178.178L191.403 177.296C192.065 177.147 192.565 176.946 192.901 176.694C193.246 176.451 193.531 176.073 193.755 175.56L194.035 174.93L191.053 167.958H192.243L194.623 173.768L197.031 167.958H198.165ZM210.11 167.958L207.506 175H206.414L204.398 169.498L202.396 175H201.304L198.7 167.958H199.89L201.878 173.642L203.936 167.958H204.93L206.96 173.656L208.99 167.958H210.11ZM214.412 175.098C213.75 175.098 213.166 174.949 212.662 174.65C212.158 174.351 211.766 173.927 211.486 173.376C211.216 172.825 211.08 172.181 211.08 171.444C211.08 170.707 211.216 170.063 211.486 169.512C211.766 168.961 212.158 168.537 212.662 168.238C213.166 167.939 213.75 167.79 214.412 167.79C215.075 167.79 215.658 167.939 216.162 168.238C216.666 168.537 217.054 168.961 217.324 169.512C217.604 170.063 217.744 170.707 217.744 171.444C217.744 172.181 217.604 172.825 217.324 173.376C217.054 173.927 216.666 174.351 216.162 174.65C215.658 174.949 215.075 175.098 214.412 175.098ZM214.412 174.16C215.112 174.16 215.649 173.931 216.022 173.474C216.396 173.007 216.582 172.331 216.582 171.444C216.582 170.585 216.391 169.923 216.008 169.456C215.626 168.98 215.094 168.742 214.412 168.742C213.722 168.742 213.185 168.98 212.802 169.456C212.42 169.923 212.228 170.585 212.228 171.444C212.228 172.331 212.415 173.007 212.788 173.474C213.171 173.931 213.712 174.16 214.412 174.16ZM222.788 167.79C223.021 167.79 223.236 167.818 223.432 167.874L223.404 168.91C223.189 168.835 222.942 168.798 222.662 168.798C221.981 168.798 221.472 169.013 221.136 169.442C220.809 169.862 220.646 170.375 220.646 170.982V175H219.512V169.932C219.512 169.204 219.475 168.546 219.4 167.958H220.478L220.59 169.26C220.767 168.784 221.052 168.42 221.444 168.168C221.836 167.916 222.284 167.79 222.788 167.79ZM230.649 164.696V175H229.529V173.726C229.324 174.165 229.011 174.505 228.591 174.748C228.181 174.981 227.7 175.098 227.149 175.098C226.533 175.098 225.987 174.944 225.511 174.636C225.045 174.328 224.681 173.899 224.419 173.348C224.158 172.788 224.027 172.144 224.027 171.416C224.027 170.688 224.153 170.053 224.405 169.512C224.667 168.961 225.035 168.537 225.511 168.238C225.987 167.939 226.533 167.79 227.149 167.79C227.7 167.79 228.181 167.911 228.591 168.154C229.002 168.387 229.31 168.719 229.515 169.148V164.696H230.649ZM227.373 174.16C228.064 174.16 228.596 173.927 228.969 173.46C229.343 172.984 229.529 172.312 229.529 171.444C229.529 170.585 229.343 169.923 228.969 169.456C228.596 168.98 228.064 168.742 227.373 168.742C226.683 168.742 226.141 168.975 225.749 169.442C225.367 169.909 225.175 170.567 225.175 171.416C225.175 172.284 225.367 172.961 225.749 173.446C226.141 173.922 226.683 174.16 227.373 174.16ZM235.222 175.098C234.037 175.098 233.099 174.795 232.408 174.188L232.786 173.348C233.169 173.647 233.556 173.861 233.948 173.992C234.34 174.123 234.779 174.188 235.264 174.188C235.796 174.188 236.197 174.099 236.468 173.922C236.748 173.735 236.888 173.469 236.888 173.124C236.888 172.844 236.795 172.62 236.608 172.452C236.421 172.284 236.113 172.153 235.684 172.06L234.494 171.78C233.906 171.649 233.449 171.416 233.122 171.08C232.805 170.744 232.646 170.343 232.646 169.876C232.646 169.26 232.893 168.761 233.388 168.378C233.883 167.986 234.536 167.79 235.348 167.79C235.843 167.79 236.309 167.869 236.748 168.028C237.187 168.187 237.555 168.415 237.854 168.714L237.476 169.54C236.813 168.989 236.104 168.714 235.348 168.714C234.844 168.714 234.452 168.812 234.172 169.008C233.901 169.195 233.766 169.461 233.766 169.806C233.766 170.095 233.85 170.324 234.018 170.492C234.195 170.66 234.475 170.791 234.858 170.884L236.048 171.178C236.701 171.327 237.187 171.561 237.504 171.878C237.821 172.186 237.98 172.592 237.98 173.096C237.98 173.703 237.733 174.188 237.238 174.552C236.743 174.916 236.071 175.098 235.222 175.098Z" fill="#5B5151"/>
<circle cx="81" cy="140" r="15" fill="white"/>
<mask id="mask1" mask-type="alpha" maskUnits="userSpaceOnUse" x="66" y="125" width="30" height="30">
<circle cx="81" cy="140" r="15" fill="#F4F4EA"/>
</mask>
<g mask="url(#mask1)">
<path fill-rule="evenodd" clip-rule="evenodd" d="M86.9322 132.298C85.524 136.565 84.165 140.437 82.785 144.704C82.7024 145.067 82.5194 145.399 82.2569 145.662C81.8951 145.926 81.4494 146.048 81.0035 146.007H79.3418L80.2853 148.274H82.8976C83.252 148.296 83.6053 148.216 83.9158 148.044C84.2264 147.872 84.4814 147.614 84.6509 147.302C84.7643 147.09 84.8609 146.868 84.9396 146.641L89.798 132.298H86.9322Z" fill="#635452"/>
<path fill-rule="evenodd" clip-rule="evenodd" d="M77.376 140.043H79.087C79.2676 140.052 79.4378 140.13 79.5623 140.261C79.6868 140.392 79.7562 140.566 79.7559 140.747V140.902C79.7562 141.083 79.6868 141.257 79.5623 141.388C79.4378 141.519 79.2676 141.597 79.087 141.606H77.376C77.1893 141.606 77.0102 141.532 76.8781 141.4C76.7461 141.268 76.6719 141.089 76.6719 140.902V140.747C76.6719 140.56 76.7461 140.381 76.8781 140.249C77.0102 140.117 77.1893 140.043 77.376 140.043Z" fill="#F0AD00"/>
<path fill-rule="evenodd" clip-rule="evenodd" d="M80.8545 140.043H82.643C82.8297 140.043 83.0088 140.117 83.1409 140.249C83.2729 140.381 83.3471 140.56 83.3471 140.747V140.902C83.3471 141.089 83.2729 141.268 83.1409 141.4C83.0088 141.532 82.8297 141.606 82.643 141.606H80.8545C80.6678 141.606 80.4887 141.532 80.3566 141.4C80.2246 141.268 80.1504 141.089 80.1504 140.902V140.747C80.1504 140.56 80.2246 140.381 80.3566 140.249C80.4887 140.117 80.6678 140.043 80.8545 140.043Z" fill="#E1760C"/>
<path fill-rule="evenodd" clip-rule="evenodd" d="M76.7354 138.114H78.5872C78.768 138.113 78.942 138.183 79.0731 138.307C79.2041 138.432 79.2823 138.602 79.2913 138.782V138.944C79.2913 139.131 79.2172 139.31 79.0851 139.442C78.9531 139.574 78.774 139.649 78.5872 139.649H76.7354C76.5486 139.649 76.3695 139.574 76.2375 139.442C76.1054 139.31 76.0312 139.131 76.0312 138.944V138.782C76.0403 138.602 76.1184 138.432 76.2495 138.307C76.3806 138.183 76.5546 138.113 76.7354 138.114Z" fill="#E1760C"/>
<path fill-rule="evenodd" clip-rule="evenodd" d="M80.3682 138.114H83.3114C83.4861 138.122 83.6513 138.195 83.7749 138.319C83.8986 138.443 83.9718 138.608 83.9803 138.782V138.944C83.9806 139.125 83.9112 139.299 83.7867 139.43C83.6622 139.561 83.492 139.639 83.3114 139.649H80.3682C80.1814 139.649 80.0023 139.574 79.8703 139.442C79.7382 139.31 79.6641 139.131 79.6641 138.944V138.782C79.6731 138.602 79.7513 138.432 79.8823 138.307C80.0134 138.183 80.1874 138.113 80.3682 138.114Z" fill="#F0AD00"/>
<path fill-rule="evenodd" clip-rule="evenodd" d="M80.1026 141.986H82.0107C82.1913 141.995 82.3615 142.074 82.486 142.205C82.6105 142.336 82.6799 142.51 82.6797 142.69V142.859C82.6799 143.04 82.6105 143.214 82.486 143.345C82.3615 143.476 82.1913 143.555 82.0107 143.564H80.1026C79.9158 143.564 79.7367 143.489 79.6047 143.357C79.4726 143.225 79.3984 143.046 79.3984 142.859V142.697C79.3984 142.511 79.4726 142.332 79.6047 142.2C79.7367 142.068 79.9158 141.993 80.1026 141.993V141.986Z" fill="#D65359"/>
<path fill-rule="evenodd" clip-rule="evenodd" d="M79.0166 143.923H81.3684C81.5551 143.923 81.7342 143.997 81.8663 144.129C81.9983 144.261 82.0725 144.44 82.0725 144.627V144.789C82.0725 144.976 81.9983 145.155 81.8663 145.287C81.7342 145.419 81.5551 145.493 81.3684 145.493H79.0166C78.8299 145.493 78.6508 145.419 78.5187 145.287C78.3867 145.155 78.3125 144.976 78.3125 144.789V144.627C78.3125 144.44 78.3867 144.261 78.5187 144.129C78.6508 143.997 78.8299 143.923 79.0166 143.923Z" fill="#F0AD00"/>
<path fill-rule="evenodd" clip-rule="evenodd" d="M78.0811 136.17H80.3836C80.5703 136.17 80.7494 136.244 80.8814 136.376C81.0135 136.508 81.0877 136.688 81.0877 136.874V137.036C81.0877 137.223 81.0135 137.402 80.8814 137.534C80.7494 137.666 80.5703 137.74 80.3836 137.74H78.0811C77.8943 137.74 77.7152 137.666 77.5832 137.534C77.4511 137.402 77.377 137.223 77.377 137.036V136.874C77.377 136.688 77.4511 136.508 77.5832 136.376C77.7152 136.244 77.8943 136.17 78.0811 136.17Z" fill="#F0AD00"/>
<path fill-rule="evenodd" clip-rule="evenodd" d="M82.1358 136.17H83.9665C84.1532 136.17 84.3323 136.244 84.4644 136.376C84.5964 136.508 84.6706 136.688 84.6706 136.874V137.036C84.6706 137.223 84.5964 137.402 84.4644 137.534C84.3323 137.666 84.1532 137.74 83.9665 137.74H82.1358C81.949 137.74 81.7699 137.666 81.6379 137.534C81.5058 137.402 81.4316 137.223 81.4316 137.036V136.874C81.4316 136.688 81.5058 136.508 81.6379 136.376C81.7699 136.244 81.949 136.17 82.1358 136.17Z" fill="#E1760C"/>
<path fill-rule="evenodd" clip-rule="evenodd" d="M76.2429 136.17C76.3933 136.17 76.5403 136.215 76.6654 136.298C76.7904 136.382 76.8879 136.501 76.9455 136.64C77.003 136.779 77.0181 136.931 76.9888 137.079C76.9594 137.227 76.887 137.362 76.7806 137.468C76.6743 137.575 76.5388 137.647 76.3913 137.676C76.2437 137.706 76.0909 137.691 75.9519 137.633C75.8129 137.576 75.6942 137.478 75.6106 137.353C75.5271 137.228 75.4825 137.081 75.4825 136.931C75.4815 136.831 75.5005 136.731 75.5384 136.639C75.5763 136.546 75.6323 136.462 75.7031 136.391C75.7739 136.32 75.8581 136.264 75.9508 136.226C76.0435 136.188 76.1428 136.169 76.2429 136.17Z" fill="#D65359"/>
<path fill-rule="evenodd" clip-rule="evenodd" d="M74.8975 134.234H79.4884C79.6751 134.234 79.8542 134.308 79.9863 134.44C80.1183 134.572 80.1925 134.751 80.1925 134.938V135.1C80.1925 135.287 80.1183 135.466 79.9863 135.598C79.8542 135.73 79.6751 135.804 79.4884 135.804H74.8975C74.7107 135.804 74.5316 135.73 74.3996 135.598C74.2675 135.466 74.1934 135.287 74.1934 135.1V134.938C74.1934 134.751 74.2675 134.572 74.3996 134.44C74.5316 134.308 74.7107 134.234 74.8975 134.234Z" fill="#D65359"/>
<path fill-rule="evenodd" clip-rule="evenodd" d="M81.2139 134.234H84.6218C84.8086 134.234 84.9877 134.308 85.1197 134.44C85.2518 134.572 85.326 134.751 85.326 134.938V135.1C85.326 135.287 85.2518 135.466 85.1197 135.598C84.9877 135.73 84.8086 135.804 84.6218 135.804H81.2139C81.0271 135.804 80.848 135.73 80.716 135.598C80.5839 135.466 80.5098 135.287 80.5098 135.1V134.938C80.5098 134.751 80.5839 134.572 80.716 134.44C80.848 134.308 81.0271 134.234 81.2139 134.234Z" fill="#F0AD00"/>
<path fill-rule="evenodd" clip-rule="evenodd" d="M73.6162 132.297H77.1791C77.3658 132.297 77.5449 132.372 77.677 132.504C77.809 132.636 77.8832 132.815 77.8832 133.001V133.156C77.8832 133.343 77.809 133.522 77.677 133.654C77.5449 133.786 77.3658 133.861 77.1791 133.861H73.6162C73.4295 133.861 73.2504 133.786 73.1183 133.654C72.9863 133.522 72.9121 133.343 72.9121 133.156V133.001C72.9121 132.815 72.9863 132.636 73.1183 132.504C73.2504 132.372 73.4295 132.297 73.6162 132.297Z" fill="#E1760C"/>
<path fill-rule="evenodd" clip-rule="evenodd" d="M80.8975 132.297H85.256C85.4428 132.297 85.6218 132.372 85.7539 132.504C85.8859 132.636 85.9601 132.815 85.9601 133.001V133.156C85.9601 133.343 85.8859 133.522 85.7539 133.654C85.6218 133.786 85.4428 133.861 85.256 133.861H80.8975C80.7107 133.861 80.5316 133.786 80.3996 133.654C80.2675 133.522 80.1934 133.343 80.1934 133.156V133.001C80.1934 132.815 80.2675 132.636 80.3996 132.504C80.5316 132.372 80.7107 132.297 80.8975 132.297Z" fill="#D65359"/>
<path fill-rule="evenodd" clip-rule="evenodd" d="M79.0386 132.297C79.1876 132.297 79.3332 132.342 79.4571 132.424C79.581 132.507 79.6776 132.625 79.7346 132.762C79.7917 132.9 79.8066 133.052 79.7775 133.198C79.7484 133.344 79.6767 133.478 79.5713 133.584C79.466 133.689 79.3317 133.761 79.1856 133.79C79.0394 133.819 78.8879 133.804 78.7503 133.747C78.6126 133.69 78.4949 133.593 78.4121 133.469C78.3293 133.345 78.2852 133.2 78.2852 133.051C78.2852 132.851 78.3645 132.659 78.5058 132.518C78.6471 132.377 78.8388 132.297 79.0386 132.297Z" fill="#F0AD00"/>
<path fill-rule="evenodd" clip-rule="evenodd" d="M78.2437 141.986C78.3947 141.985 78.5427 142.028 78.6688 142.111C78.7949 142.194 78.8935 142.313 78.9519 142.452C79.0103 142.592 79.026 142.745 78.9969 142.893C78.9677 143.041 78.8952 143.177 78.7884 143.284C78.6816 143.391 78.5455 143.464 78.3973 143.493C78.2492 143.522 78.0957 143.506 77.9564 143.448C77.8172 143.389 77.6985 143.291 77.6155 143.165C77.5325 143.039 77.4889 142.891 77.4903 142.74C77.4903 142.54 77.5696 142.348 77.7109 142.207C77.8522 142.065 78.0439 141.986 78.2437 141.986Z" fill="#E1760C"/>
</g>
<path d="M169 20.08C168.2 20.08 167.59 19.7733 167.17 19.16C166.757 18.54 166.55 17.6333 166.55 16.44C166.55 15.2467 166.757 14.3433 167.17 13.73C167.583 13.11 168.193 12.8 169 12.8C169.807 12.8 170.417 13.1067 170.83 13.72C171.243 14.3333 171.45 15.2367 171.45 16.43C171.45 17.6233 171.24 18.53 170.82 19.15C170.407 19.77 169.8 20.08 169 20.08ZM169 19.53C169.613 19.53 170.067 19.28 170.36 18.78C170.66 18.2733 170.81 17.49 170.81 16.43C170.81 15.37 170.663 14.5933 170.37 14.1C170.077 13.6 169.62 13.35 169 13.35C168.387 13.35 167.93 13.6 167.63 14.1C167.337 14.6 167.19 15.3767 167.19 16.43C167.19 17.4833 167.337 18.2633 167.63 18.77C167.93 19.2767 168.387 19.53 169 19.53ZM176.006 16.35C176.479 16.47 176.846 16.6867 177.106 17C177.366 17.3133 177.496 17.69 177.496 18.13C177.496 18.73 177.273 19.2033 176.826 19.55C176.379 19.8967 175.769 20.07 174.996 20.07C174.223 20.07 173.613 19.8967 173.166 19.55C172.719 19.2033 172.496 18.73 172.496 18.13C172.496 17.6967 172.629 17.3233 172.896 17.01C173.163 16.69 173.526 16.47 173.986 16.35C173.559 16.2233 173.229 16.0133 172.996 15.72C172.769 15.4267 172.656 15.08 172.656 14.68C172.656 14.3067 172.753 13.9767 172.946 13.69C173.139 13.4033 173.413 13.1833 173.766 13.03C174.126 12.8767 174.536 12.8 174.996 12.8C175.456 12.8 175.863 12.8767 176.216 13.03C176.576 13.1833 176.853 13.4033 177.046 13.69C177.239 13.9767 177.336 14.3067 177.336 14.68C177.336 15.08 177.219 15.4267 176.986 15.72C176.759 16.0133 176.433 16.2233 176.006 16.35ZM173.286 14.71C173.286 15.1167 173.439 15.4467 173.746 15.7C174.053 15.9533 174.469 16.1067 174.996 16.16C175.523 16.1067 175.939 15.9533 176.246 15.7C176.553 15.4467 176.706 15.1167 176.706 14.71C176.706 14.2833 176.556 13.95 176.256 13.71C175.956 13.4633 175.536 13.34 174.996 13.34C174.456 13.34 174.036 13.4633 173.736 13.71C173.436 13.95 173.286 14.2833 173.286 14.71ZM174.996 19.53C175.603 19.53 176.066 19.41 176.386 19.17C176.706 18.9233 176.866 18.5667 176.866 18.1C176.866 17.6733 176.693 17.3333 176.346 17.08C176.006 16.8267 175.556 16.6733 174.996 16.62C174.436 16.6733 173.983 16.8267 173.636 17.08C173.296 17.3333 173.126 17.6733 173.126 18.1C173.126 18.5667 173.286 18.9233 173.606 19.17C173.926 19.41 174.389 19.53 174.996 19.53ZM179.532 15.1V15.96L178.682 15.96V15.1L179.532 15.1ZM179.532 19.13V20H178.682V19.13H179.532ZM185.329 19.46V20L181.559 20V19.46H183.139L183.139 13.7L181.669 14.65V14.02L183.409 12.88L183.759 12.88L183.759 19.46L185.329 19.46ZM191.575 19.46V20L187.085 20V19.54L189.615 16.71C189.975 16.2967 190.235 15.9333 190.395 15.62C190.555 15.3 190.635 14.9833 190.635 14.67C190.635 14.2433 190.512 13.9167 190.265 13.69C190.025 13.4567 189.678 13.34 189.225 13.34C188.525 13.34 187.842 13.6267 187.175 14.2L186.915 13.71C187.195 13.4367 187.545 13.2167 187.965 13.05C188.385 12.8833 188.805 12.8 189.225 12.8C189.858 12.8 190.355 12.9667 190.715 13.3C191.082 13.6267 191.265 14.0733 191.265 14.64C191.265 15.0467 191.168 15.4433 190.975 15.83C190.788 16.2167 190.482 16.6467 190.055 17.12L187.915 19.46L191.575 19.46Z" fill="#5B5151"/>
<rect y="219" width="359" height="40" rx="10" fill="white"/>
<rect x="0.5" y="219.5" width="358" height="39" rx="9.5" stroke="#5B5151" stroke-opacity="0.1"/>
<rect x="319" y="219" width="40" height="40" rx="10" fill="#E37D38"/>
<path fill-rule="evenodd" clip-rule="evenodd" d="M345.003 247.657C343.225 246.774 344.092 244.48 345.313 242.914C346.37 241.558 347 239.853 347 238C347 233.582 343.418 230 339 230C334.582 230 331 233.582 331 238C331 242.418 334.582 246 339 246C339.185 246 339.359 246.084 339.478 246.226C340.79 247.78 342.979 248.433 345.001 247.698C345.02 247.691 345.021 247.666 345.003 247.657Z" fill="white" fill-opacity="0.55"/>
<path d="M19.64 235.012H16.168V234.032H24.274V235.012H20.802V244H19.64V235.012ZM30.6902 236.958L27.4002 244.644C27.0548 245.447 26.6208 246.035 26.0982 246.408C25.5755 246.781 24.9315 247.038 24.1662 247.178L23.9282 246.296C24.5908 246.147 25.0902 245.946 25.4262 245.694C25.7715 245.451 26.0562 245.073 26.2802 244.56L26.5602 243.93L23.5782 236.958H24.7682L27.1482 242.768L29.5562 236.958H30.6902ZM35.4537 236.79C36.0697 236.79 36.6157 236.944 37.0917 237.252C37.5677 237.56 37.9363 237.994 38.1977 238.554C38.459 239.105 38.5897 239.744 38.5897 240.472C38.5897 241.2 38.459 241.839 38.1977 242.39C37.9363 242.931 37.5677 243.351 37.0917 243.65C36.625 243.949 36.079 244.098 35.4537 244.098C34.903 244.098 34.4223 243.977 34.0117 243.734C33.601 243.491 33.2883 243.146 33.0737 242.698V247.024H31.9397V238.932C31.9397 238.204 31.9023 237.546 31.8277 236.958H32.9057L33.0177 238.316C33.2137 237.831 33.5217 237.457 33.9417 237.196C34.371 236.925 34.875 236.79 35.4537 236.79ZM35.2437 243.16C35.9343 243.16 36.4663 242.927 36.8397 242.46C37.2223 241.993 37.4137 241.331 37.4137 240.472C37.4137 239.613 37.2223 238.946 36.8397 238.47C36.457 237.985 35.925 237.742 35.2437 237.742C34.5437 237.742 34.007 237.975 33.6337 238.442C33.2603 238.909 33.0737 239.576 33.0737 240.444C33.0737 241.312 33.2603 241.984 33.6337 242.46C34.007 242.927 34.5437 243.16 35.2437 243.16ZM40.3342 236.958H41.4682V244H40.3342V236.958ZM41.6082 233.976V235.264H40.2222V233.976H41.6082ZM47.1841 236.79C48.8735 236.79 49.7181 237.719 49.7181 239.576V244H48.5841V239.632C48.5841 238.979 48.4535 238.503 48.1921 238.204C47.9308 237.896 47.5201 237.742 46.9601 237.742C46.3068 237.742 45.7841 237.943 45.3921 238.344C45.0001 238.745 44.8041 239.287 44.8041 239.968V244H43.6701V238.932C43.6701 238.204 43.6328 237.546 43.5581 236.958H44.6361L44.7481 238.218C44.9628 237.761 45.2848 237.411 45.7141 237.168C46.1435 236.916 46.6335 236.79 47.1841 236.79ZM58.1316 236.958V243.944C58.1316 244.989 57.8609 245.778 57.3196 246.31C56.7876 246.851 55.9989 247.122 54.9536 247.122C53.8802 247.122 52.9562 246.879 52.1816 246.394L52.3776 245.47C52.8256 245.722 53.2456 245.904 53.6376 246.016C54.0389 246.128 54.4776 246.184 54.9536 246.184C55.6349 246.184 56.1482 246.002 56.4936 245.638C56.8389 245.283 57.0116 244.751 57.0116 244.042V242.376C56.7969 242.824 56.4796 243.174 56.0596 243.426C55.6489 243.669 55.1589 243.79 54.5896 243.79C53.9736 243.79 53.4229 243.645 52.9376 243.356C52.4616 243.067 52.0929 242.656 51.8316 242.124C51.5702 241.592 51.4396 240.981 51.4396 240.29C51.4396 239.599 51.5702 238.988 51.8316 238.456C52.0929 237.924 52.4616 237.513 52.9376 237.224C53.4229 236.935 53.9736 236.79 54.5896 236.79C55.1496 236.79 55.6349 236.911 56.0456 237.154C56.4656 237.397 56.7829 237.737 56.9976 238.176V236.958H58.1316ZM54.8136 242.838C55.4949 242.838 56.0269 242.614 56.4096 242.166C56.8016 241.709 56.9976 241.083 56.9976 240.29C56.9976 239.497 56.8016 238.876 56.4096 238.428C56.0269 237.971 55.4949 237.742 54.8136 237.742C54.1229 237.742 53.5769 237.971 53.1756 238.428C52.7836 238.876 52.5876 239.497 52.5876 240.29C52.5876 241.083 52.7836 241.709 53.1756 242.166C53.5769 242.614 54.1229 242.838 54.8136 242.838ZM61.5548 242.558V244H60.1128V242.558H61.5548ZM64.795 242.558V244H63.353V242.558H64.795ZM68.0353 242.558V244H66.5933V242.558H68.0353Z" fill="#5B5151"/>
</svg>
