<svg width="280" height="106" viewBox="0 0 280 106" fill="none" xmlns="http://www.w3.org/2000/svg">
<path d="M279.445 36.1289L235.409 61.3207L199.371 40.6358L243.407 15.444L279.445 36.1289Z" fill="#FEF3F4"/>
<path d="M199.371 40.6356V49.0416L235.409 69.7265V61.3205L199.371 40.6356Z" fill="#EEAB34"/>
<path d="M279.446 36.1292V44.5351L235.41 69.727V61.321L279.446 36.1292Z" fill="#C98000"/>
<path d="M279.958 35.8339L279.445 35.53L243.416 14.8538L199.38 40.0369L198.859 40.3322V49.3286L234.897 70.0135L235.418 70.3088L235.931 70.0135L279.715 44.9693L279.966 44.8217V35.8339H279.958ZM243.416 16.0434L278.412 36.1292L254.097 50.0233L235.401 60.7566L200.396 40.6622L243.416 16.0434ZM199.901 48.7468V41.5305L234.897 61.6163V68.8326L199.901 48.7468ZM278.924 44.2312L235.922 68.8326V61.6163L278.924 37.0236V44.2312Z" fill="#C98000"/>
<path d="M243.414 15.444L212.708 32.9853C210.989 34.0039 209.015 34.5144 207.017 34.4575C205.019 34.4006 203.078 33.7788 201.419 32.664C200.759 39.2551 207.637 44.8735 210.52 46.9142C210.85 47.183 211.201 47.4241 211.571 47.635L235.417 61.3207L279.452 36.1376L243.414 15.444Z" fill="#FEF3F4"/>
<path d="M211.757 47.6352L235.602 61.321L275.991 38.2219L243.861 19.7775L213.155 37.3188C211.517 38.3025 209.642 38.8221 207.732 38.8221C205.821 38.8221 203.946 38.3025 202.309 37.3188C204.045 41.8258 208.535 45.4035 210.706 46.9492C211.038 47.2041 211.39 47.4334 211.757 47.6352Z" fill="white"/>
<path d="M235.411 61.9202L211.288 48.0782C210.895 47.8564 210.523 47.6007 210.176 47.314C207.163 45.1864 200.19 39.4464 200.884 32.6122L200.971 31.7438L201.709 32.2909C203.282 33.3554 205.127 33.9479 207.025 33.9987C208.924 34.0495 210.798 33.5564 212.425 32.5775L243.418 14.8538L279.43 35.5213C279.536 35.5832 279.624 35.6719 279.686 35.7786C279.747 35.8853 279.779 36.0061 279.779 36.1292C279.779 36.2522 279.747 36.3731 279.686 36.4798C279.624 36.5864 279.536 36.6751 279.43 36.7371L235.411 61.9202ZM201.892 33.5588C201.892 39.4985 208.066 44.5438 210.819 46.4977C211.134 46.7554 211.471 46.985 211.826 47.1837L235.411 60.7305L278.405 36.1292L243.418 16.0434L212.972 33.4111C211.299 34.4011 209.396 34.9357 207.452 34.9616C205.508 34.9875 203.591 34.5038 201.892 33.5588Z" fill="#E37D38"/>
<path d="M247.175 23.39C246.313 23.404 245.462 23.2009 244.7 22.7995C244.366 22.6422 244.081 22.3979 243.875 22.0922C243.668 21.7866 243.548 21.4309 243.527 21.0627C243.547 20.694 243.666 20.3375 243.872 20.0315C244.079 19.7256 244.365 19.4816 244.7 19.3259L252.828 14.6627C253.817 14.1573 254.912 13.8938 256.023 13.8938C257.134 13.8938 258.23 14.1573 259.219 14.6627C259.654 14.8247 260.029 15.1158 260.293 15.4968C260.558 15.8778 260.7 16.3307 260.7 16.7946C260.7 17.2585 260.558 17.7113 260.293 18.0924C260.029 18.4734 259.654 18.7644 259.219 18.9265L254.009 21.905L253.488 21.0366L258.698 18.0581C258.951 17.9542 259.173 17.7856 259.34 17.5692C259.508 17.3528 259.616 17.0962 259.653 16.825C259.653 16.3734 259.315 15.9566 258.698 15.5832C257.864 15.1739 256.948 14.961 256.019 14.961C255.09 14.961 254.174 15.1739 253.34 15.5832L245.221 20.2464C244.804 20.4896 244.561 20.7848 244.561 21.1148C244.561 21.4448 244.804 21.6966 245.221 21.9398C245.83 22.2355 246.498 22.3892 247.175 22.3892C247.851 22.3892 248.52 22.2355 249.128 21.9398L256.405 17.7541L256.927 18.6225L249.641 22.7995C248.883 23.2045 248.034 23.4079 247.175 23.39Z" fill="#5B5151"/>
<path d="M235.15 64.2216L199.121 44.0056L199.625 43.4325L235.663 63.6485L235.15 64.2216Z" fill="#C98000"/>
<path d="M235.147 67.4953L199.109 46.9059L199.63 46.3328L235.66 66.9308L235.147 67.4953Z" fill="#C98000"/>
<path d="M235.66 64.508V63.5962L279.184 38.882L279.149 39.7851L235.66 64.508Z" fill="#EEAB34"/>
<path d="M235.66 67.2521V66.349L279.184 41.6261L279.149 42.5292L235.66 67.2521Z" fill="#EEAB34"/>
<path d="M249.627 45.1614C254.108 42.5562 253.587 38.0667 248.463 35.1142C243.34 32.1617 235.55 31.8491 231.096 34.4455C226.641 37.042 227.136 41.5315 232.259 44.484C232.389 44.5622 232.52 44.623 232.659 44.6925C232.294 45.4914 231.399 46.4292 229.246 46.7766C229.185 46.7766 229.168 46.8287 229.246 46.8461C230.114 47.0718 234.343 48.1052 236.879 46.2816C241.299 47.3931 246.344 47.0458 249.627 45.1614Z" fill="#E37D38"/>
<path d="M232.84 45.8381C231.573 45.8264 230.312 45.6543 229.088 45.3258L228.784 45.2476V44.909V44.5964L229.14 44.5095C229.716 44.4635 230.277 44.3031 230.79 44.0377C231.303 43.7723 231.757 43.4072 232.128 42.9638H232.067C229.262 41.3399 227.664 39.1689 227.664 36.9893C227.664 35.1396 228.81 33.455 230.903 32.2479C235.488 29.6428 243.469 29.9033 248.688 32.9166C251.484 34.5318 253.09 36.7114 253.09 38.8824C253.09 40.7407 251.944 42.4254 249.851 43.6325C246.647 45.4821 241.593 45.951 236.93 44.8395C235.693 45.5652 234.271 45.9124 232.84 45.8381ZM230.703 44.8829C232.336 45.1521 234.898 45.2997 236.6 44.084L236.739 43.9798L236.912 44.0232C241.437 45.1434 246.352 44.7092 249.426 42.9377C251.275 41.8696 252.283 40.4281 252.283 38.8563C252.283 36.9633 250.824 35.0354 248.271 33.5592C243.26 30.6675 235.627 30.3635 231.259 32.8905C229.41 33.95 228.394 35.4002 228.394 36.9633C228.394 38.8563 229.861 40.7928 232.414 42.2691L232.64 42.382L233.118 42.6425L232.996 42.9638C232.763 43.422 232.44 43.8282 232.046 44.1581C231.652 44.4879 231.195 44.7345 230.703 44.8829Z" fill="#5B5151"/>
<path d="M237.249 36.4682C236.759 36.7197 236.216 36.8508 235.664 36.8508C235.113 36.8508 234.57 36.7197 234.08 36.4682C233.891 36.4008 233.727 36.2766 233.611 36.1126C233.496 35.9485 233.434 35.7528 233.434 35.552C233.434 35.3513 233.496 35.1555 233.611 34.9915C233.727 34.8275 233.891 34.7033 234.08 34.6359C234.57 34.3844 235.113 34.2533 235.664 34.2533C236.216 34.2533 236.759 34.3844 237.249 34.6359C237.438 34.7033 237.602 34.8275 237.718 34.9915C237.833 35.1555 237.895 35.3513 237.895 35.552C237.895 35.7528 237.833 35.9485 237.718 36.1126C237.602 36.2766 237.438 36.4008 237.249 36.4682Z" fill="white"/>
<path d="M237.249 37.3621C236.759 37.6136 236.216 37.7447 235.664 37.7447C235.113 37.7447 234.57 37.6136 234.08 37.3621C233.891 37.2947 233.727 37.1705 233.611 37.0065C233.496 36.8425 233.434 36.6467 233.434 36.446C233.434 36.2453 233.496 36.0495 233.611 35.8854C233.727 35.7214 233.891 35.5972 234.08 35.5298C234.57 35.2784 235.113 35.1472 235.664 35.1472C236.216 35.1472 236.759 35.2784 237.249 35.5298C237.438 35.5972 237.602 35.7214 237.718 35.8854C237.833 36.0495 237.895 36.2453 237.895 36.446C237.895 36.6467 237.833 36.8425 237.718 37.0065C237.602 37.1705 237.438 37.2947 237.249 37.3621Z" fill="#F4F4EA"/>
<path d="M235.663 37.2316C235.057 37.2349 234.46 37.0856 233.926 36.7974C233.675 36.6997 233.46 36.5284 233.308 36.3061C233.156 36.0837 233.074 35.8206 233.074 35.5513C233.074 35.2819 233.156 35.0189 233.308 34.7965C233.46 34.5742 233.675 34.4029 233.926 34.3052C234.475 34.0226 235.084 33.8751 235.702 33.8751C236.32 33.8751 236.929 34.0226 237.478 34.3052C237.729 34.4029 237.944 34.5742 238.097 34.7965C238.249 35.0189 238.33 35.2819 238.33 35.5513C238.33 35.8206 238.249 36.0837 238.097 36.3061C237.944 36.5284 237.729 36.6997 237.478 36.7974C236.921 37.0971 236.295 37.2467 235.663 37.2316ZM235.663 34.6265C235.179 34.6182 234.702 34.7317 234.274 34.9565C234.141 34.9847 234.023 35.0574 233.938 35.1625C233.853 35.2676 233.806 35.3987 233.806 35.5339C233.806 35.6691 233.853 35.8002 233.938 35.9053C234.023 36.0104 234.141 36.0832 234.274 36.1114C234.705 36.3257 235.181 36.4371 235.663 36.4371C236.145 36.4371 236.621 36.3257 237.052 36.1114C237.348 35.9464 237.521 35.7293 237.521 35.5383C237.521 35.3472 237.348 35.1214 237.052 34.9565C236.623 34.7356 236.145 34.6279 235.663 34.6438V34.6265Z" fill="#5B5151"/>
<path d="M241.73 39.0294C241.239 39.2808 240.696 39.412 240.145 39.412C239.594 39.412 239.051 39.2808 238.56 39.0294C238.371 38.962 238.208 38.8377 238.092 38.6737C237.976 38.5097 237.914 38.3139 237.914 38.1132C237.914 37.9125 237.976 37.7167 238.092 37.5527C238.208 37.3887 238.371 37.2644 238.56 37.1971C239.051 36.9456 239.594 36.8145 240.145 36.8145C240.696 36.8145 241.239 36.9456 241.73 37.1971C241.919 37.2644 242.082 37.3887 242.198 37.5527C242.314 37.7167 242.376 37.9125 242.376 38.1132C242.376 38.3139 242.314 38.5097 242.198 38.6737C242.082 38.8377 241.919 38.962 241.73 39.0294Z" fill="white"/>
<path d="M241.681 39.9243C241.191 40.1744 240.65 40.3047 240.1 40.3047C239.551 40.3047 239.009 40.1744 238.52 39.9243C238.327 39.8612 238.158 39.7385 238.039 39.574C237.92 39.4095 237.855 39.2114 237.855 39.0082C237.855 38.805 237.92 38.6069 238.039 38.4424C238.158 38.2779 238.327 38.1552 238.52 38.0921C239.009 37.842 239.551 37.7117 240.1 37.7117C240.65 37.7117 241.191 37.842 241.681 38.0921C241.874 38.1552 242.042 38.2779 242.161 38.4424C242.281 38.6069 242.345 38.805 242.345 39.0082C242.345 39.2114 242.281 39.4095 242.161 39.574C242.042 39.7385 241.874 39.8612 241.681 39.9243Z" fill="#F4F4EA"/>
<path d="M240.1 39.7943C239.494 39.7983 238.897 39.649 238.364 39.3601C238.113 39.2624 237.897 39.0911 237.745 38.8687C237.593 38.6464 237.512 38.3833 237.512 38.114C237.512 37.8446 237.593 37.5815 237.745 37.3592C237.897 37.1369 238.113 36.9656 238.364 36.8678C238.911 36.5853 239.519 36.4379 240.135 36.4379C240.752 36.4379 241.359 36.5853 241.907 36.8678C242.158 36.9656 242.373 37.1369 242.525 37.3592C242.677 37.5815 242.759 37.8446 242.759 38.114C242.759 38.3833 242.677 38.6464 242.525 38.8687C242.373 39.0911 242.158 39.2624 241.907 39.3601C241.353 39.6606 240.73 39.8103 240.1 39.7943ZM240.1 37.1891C239.617 37.1797 239.139 37.2933 238.711 37.5191C238.416 37.6841 238.251 37.9012 238.251 38.0923C238.271 38.2206 238.324 38.3416 238.405 38.4435C238.485 38.5455 238.591 38.6249 238.711 38.6741C239.143 38.8883 239.618 38.9998 240.1 38.9998C240.582 38.9998 241.058 38.8883 241.49 38.6741C241.61 38.6249 241.716 38.5455 241.796 38.4435C241.877 38.3416 241.93 38.2206 241.95 38.0923C241.95 37.9012 241.785 37.6841 241.49 37.5191C241.061 37.2993 240.583 37.1918 240.1 37.2065V37.1891Z" fill="#5B5151"/>
<path d="M246.063 41.617C245.574 41.867 245.032 41.9974 244.483 41.9974C243.934 41.9974 243.392 41.867 242.903 41.617C242.709 41.5538 242.541 41.4312 242.422 41.2666C242.303 41.1021 242.238 40.9041 242.238 40.7008C242.238 40.4976 242.303 40.2996 242.422 40.135C242.541 39.9705 242.709 39.8479 242.903 39.7847C243.392 39.5347 243.934 39.4043 244.483 39.4043C245.032 39.4043 245.574 39.5347 246.063 39.7847C246.257 39.8479 246.425 39.9705 246.544 40.135C246.663 40.2996 246.728 40.4976 246.728 40.7008C246.728 40.9041 246.663 41.1021 246.544 41.2666C246.425 41.4312 246.257 41.5538 246.063 41.617Z" fill="white"/>
<path d="M246.063 42.5125C245.574 42.7625 245.032 42.8929 244.483 42.8929C243.934 42.8929 243.392 42.7625 242.903 42.5125C242.709 42.4493 242.541 42.3267 242.422 42.1621C242.303 41.9976 242.238 41.7996 242.238 41.5963C242.238 41.3931 242.303 41.1951 242.422 41.0305C242.541 40.866 242.709 40.7434 242.903 40.6802C243.392 40.4302 243.934 40.2998 244.483 40.2998C245.032 40.2998 245.574 40.4302 246.063 40.6802C246.257 40.7434 246.425 40.866 246.544 41.0305C246.663 41.1951 246.728 41.3931 246.728 41.5963C246.728 41.7996 246.663 41.9976 246.544 42.1621C246.425 42.3267 246.257 42.4493 246.063 42.5125Z" fill="#F4F4EA"/>
<path d="M244.483 42.3825C243.877 42.3858 243.28 42.2364 242.747 41.9483C242.496 41.8505 242.28 41.6793 242.128 41.4569C241.976 41.2346 241.895 40.9715 241.895 40.7022C241.895 40.4328 241.976 40.1697 242.128 39.9474C242.28 39.725 242.496 39.5538 242.747 39.456C243.295 39.1713 243.904 39.0227 244.522 39.0227C245.14 39.0227 245.75 39.1713 246.298 39.456C246.546 39.5571 246.758 39.7296 246.907 39.9515C247.056 40.1735 247.135 40.4348 247.135 40.7022C247.135 40.9695 247.056 41.2308 246.907 41.4528C246.758 41.6747 246.546 41.8472 246.298 41.9483C245.741 42.248 245.116 42.3976 244.483 42.3825ZM244.483 39.7773C244 39.7691 243.522 39.8825 243.094 40.1073C242.799 40.2723 242.634 40.4894 242.634 40.6804C242.654 40.8088 242.707 40.9298 242.787 41.0317C242.868 41.1337 242.974 41.213 243.094 41.2623C243.526 41.4765 244.001 41.588 244.483 41.588C244.965 41.588 245.441 41.4765 245.873 41.2623C245.993 41.213 246.099 41.1337 246.179 41.0317C246.26 40.9298 246.313 40.8088 246.333 40.6804C246.333 40.4894 246.168 40.2723 245.873 40.1073C245.443 39.8875 244.965 39.7799 244.483 39.7947V39.7773Z" fill="#5B5151"/>
<path d="M186.14 66.783L126.221 101.353L43.5859 53.6443L103.504 21.8007L186.149 66.783H186.14Z" fill="#EEAB34"/>
<path d="M126.236 101.893L125.985 101.737L43.1406 53.9059V53.3849L43.3577 53.2372L103.511 21.2546L103.745 21.4023L186.589 66.4888V67.0272L186.355 67.1661L126.236 101.893ZM44.5214 53.6541L126.245 100.833L185.217 66.784L103.485 22.2967L44.5214 53.6541Z" fill="#5B5151"/>
<path d="M186.14 51.4212L126.221 86.0003L43.5859 38.2826L103.504 3.71216L186.149 51.4212H186.14Z" fill="#EEAB34"/>
<path d="M126.236 86.5302L125.985 86.3739L43.1406 38.552V38.0223L43.3577 37.8833L103.502 3.14795L103.745 3.30426L186.572 51.1262V51.6646L186.329 51.8122L126.236 86.5302ZM44.4953 38.2741L126.245 85.4795L185.243 51.4128L103.485 4.21607L44.4953 38.2741Z" fill="#5B5151"/>
<path d="M183.871 52.733L126.245 86.0008L43.6094 38.2831V40.5409L126.254 88.302L183.871 55.0429V68.0687L126.245 101.336L43.6094 53.6274V55.8765L126.254 103.638L186.172 69.0586V51.4304L183.871 52.733Z" fill="#5B5151"/>
<path d="M126.237 104.168L125.985 104.012L43.402 56.3287L43.1328 56.2418V53.3848L43.6017 53.1156L43.8362 53.2546L126.246 100.833L183.42 67.8348V55.7989L126.237 88.7976L125.985 88.6412L43.1328 40.8106V38.0144L43.6017 37.7539L43.8362 37.8929L126.246 85.4716L186.164 50.8926L186.633 51.1444V69.2763L186.425 69.4239L126.237 104.168ZM44.0446 55.6513L126.246 103.109L185.695 68.79V52.2038L126.237 86.5311L125.985 86.3748L44.0446 39.0652V40.2896L126.246 87.7555L183.863 54.4877L184.323 54.7482V68.3558L184.089 68.486L126.229 101.893L125.977 101.736L44.0359 54.4269L44.0446 55.6513Z" fill="#5B5151"/>
<path d="M183.862 68.0763L180.484 65.7925V56.9349L183.862 55.0419V68.0676C183.862 68.0676 183.862 68.085 183.862 68.0763Z" fill="white"/>
<path d="M183.87 68.6072L183.601 68.4596L180.023 66.0368V56.6756L180.232 56.5367L183.862 54.4873L184.322 54.7478V68.3294L183.87 68.6072ZM180.935 65.5505L183.419 67.2352V55.7812L180.935 57.1793V65.5505Z" fill="#5B5151"/>
<path d="M45.7539 41.8259V52.3767L125.88 98.705L181.752 66.6616V56.241L126.253 88.3105L45.7886 41.8519C45.7886 41.8519 45.7539 41.8172 45.7539 41.8259Z" fill="#FEF3F4"/>
<path d="M125.882 99.2514L125.639 99.0951L45.3047 52.6452V41.5473L45.791 41.2867L46.0254 41.4344L126.247 87.754L181.745 55.6759L182.214 55.9451V66.8954L182.006 67.0344L125.882 99.2514ZM46.2165 52.1155L125.899 98.192L181.302 66.3917V56.9871L126.238 88.8047L125.986 88.6484L46.2165 42.6241V52.1155Z" fill="#5B5151"/>
<path d="M176.516 53.8351L126.02 82.9868L52.7539 40.8441L103.259 11.6837L176.516 53.8264C176.516 53.8264 176.525 53.8264 176.516 53.8351Z" fill="white"/>
<path d="M126.019 80.9113L125.871 80.8592L52.293 38.5515V38.0304L52.5014 37.8915L103.276 8.57483L103.519 8.73114L176.984 50.9954V51.5251L176.759 51.6641L126.175 80.8592L126.019 80.9113ZM53.6476 38.2736L126.019 79.9039L175.621 51.2472L103.25 9.63426L53.6476 38.2736Z" fill="#5B5151"/>
<path d="M126.227 92.4527L125.984 92.2964L48.4805 47.5485L48.932 46.7583L126.244 91.3933L178.512 61.1908L178.964 61.9724L126.227 92.4527Z" fill="#5B5151"/>
<path d="M126.227 95.587L125.984 95.4307L48.4805 50.6828L48.932 49.8926L126.244 94.5275L178.512 64.3251L178.964 65.1154L126.227 95.587Z" fill="#5B5151"/>
<path d="M125.913 86.0041L125.902 88.01L126.588 88.0136L126.599 86.0077L125.913 86.0041Z" fill="white"/>
<path d="M125.921 101.36L125.91 103.366L126.596 103.37L126.607 101.364L125.921 101.36Z" fill="white"/>
<path d="M176.465 100.234C176.52 100.249 176.579 100.242 176.629 100.215C176.68 100.189 176.718 100.144 176.737 100.09C176.756 100.036 176.753 99.977 176.73 99.9248C176.707 99.8726 176.665 99.831 176.613 99.8085L169.067 95.3797C166.873 94.0978 165.231 92.0504 164.455 89.631L163.335 86.0967C162.593 83.7651 160.995 81.8012 158.863 80.5998L152.315 76.9092L143.527 81.9545L150.092 85.6538C152.212 86.8424 153.806 88.7866 154.556 91.0986L155.719 94.6937C156.495 97.0965 158.131 99.1282 160.313 100.399L168.276 105.08C168.318 105.103 168.365 105.114 168.412 105.11C168.46 105.106 168.505 105.087 168.541 105.057C168.578 105.027 168.605 104.987 168.618 104.941C168.631 104.895 168.63 104.847 168.615 104.802L166.878 99.6695C166.859 99.6119 166.855 99.5503 166.865 99.4905C166.876 99.4307 166.902 99.3745 166.94 99.327C166.978 99.2796 167.027 99.2424 167.083 99.2188C167.139 99.1952 167.2 99.186 167.26 99.1919L176.465 100.234Z" fill="white"/>
<path d="M166.921 98.9743L170.733 99.4085L168.571 98.132C166.374 96.8539 164.731 94.8051 163.96 92.3833L162.84 88.8577C162.1 86.5244 160.502 84.5594 158.368 83.3608L151.829 79.6788L145.75 83.1524L149.771 85.4189C151.888 86.6084 153.479 88.5527 154.225 90.8636L155.389 94.4587C156.171 96.8584 157.805 98.8882 159.983 100.164L167.043 104.306L166.383 102.439C166.364 102.381 166.359 102.32 166.37 102.26C166.381 102.2 166.406 102.144 166.444 102.097C166.482 102.049 166.531 102.012 166.587 101.988C166.643 101.965 166.704 101.956 166.765 101.962L167.399 102.031L166.53 99.4259C166.516 99.3691 166.516 99.3097 166.529 99.2527C166.543 99.1957 166.57 99.1428 166.608 99.0985C166.647 99.0542 166.695 99.0198 166.75 98.9982C166.804 98.9766 166.863 98.9684 166.921 98.9743Z" fill="#E37D38"/>
<path d="M168.398 105.566C168.276 105.564 168.156 105.531 168.05 105.47L160.087 100.781C157.809 99.4629 156.101 97.3464 155.294 94.8413L154.13 91.2462C153.425 89.0323 151.903 87.1696 149.875 86.0359L142.633 81.9545L152.315 76.4055L159.08 80.209C161.314 81.4613 162.987 83.5166 163.761 85.9577L164.881 89.4834C165.618 91.802 167.19 93.7641 169.292 94.989L176.838 99.4177C176.968 99.498 177.067 99.6197 177.119 99.763C177.171 99.9064 177.173 100.063 177.124 100.208C177.076 100.352 176.981 100.476 176.853 100.56C176.726 100.644 176.574 100.682 176.422 100.668L167.347 99.6522L169.032 104.663C169.078 104.792 169.083 104.933 169.046 105.065C169.008 105.198 168.931 105.315 168.823 105.401C168.705 105.503 168.554 105.562 168.398 105.566ZM144.422 81.9545L150.309 85.2717C152.529 86.5156 154.195 88.5541 154.973 90.977L156.136 94.5634C156.88 96.8598 158.445 98.8014 160.53 100.017L168.016 104.42L166.461 99.8172C166.418 99.6898 166.408 99.5536 166.433 99.4214C166.457 99.2892 166.515 99.1654 166.6 99.0617C166.684 98.9558 166.793 98.873 166.918 98.8213C167.042 98.7696 167.178 98.7507 167.312 98.7664L175.527 99.6869L168.841 95.7618C166.552 94.4249 164.841 92.2868 164.038 89.7613L162.91 86.2356C162.201 84.0207 160.677 82.158 158.646 81.0253L152.324 77.4649L144.422 81.9545Z" fill="#5B5151"/>
<path d="M78.2123 27.4116C85.2115 23.5908 92.5927 17.1387 92.1759 7.03066C92.1722 6.8267 92.2244 6.62562 92.3266 6.44911C92.4289 6.27259 92.5773 6.12735 92.7561 6.02905C92.9348 5.93074 93.137 5.88311 93.3408 5.89128C93.5446 5.89946 93.7424 5.96313 93.9127 6.07544L103.283 12.5362C103.472 12.6633 103.618 12.8456 103.7 13.0585C103.783 13.2713 103.797 13.5043 103.743 13.7259C102.996 16.6176 98.9927 26.8385 79.3325 30.6855C78.9109 30.7895 78.4656 30.7318 78.0844 30.5237C77.7032 30.3157 77.4138 29.9724 77.2732 29.5615C77.1326 29.1507 77.1511 28.702 77.3249 28.3041C77.4987 27.9061 77.8153 27.5877 78.2123 27.4116Z" fill="#FEF3F4"/>
<path d="M109.311 37.5188C117.439 34.5576 132.392 26.9505 130.065 11.6757L142.066 19.9166C142.066 19.9166 140.156 36.0339 109.623 38.7432C109.466 38.77 109.305 38.7367 109.172 38.65C109.038 38.5633 108.942 38.4295 108.903 38.2752C108.863 38.1208 108.883 37.9574 108.959 37.8172C109.035 37.6771 109.16 37.5705 109.311 37.5188Z" fill="white"/>
<path d="M107.756 36.4081C115.884 33.4382 130.837 25.8312 128.51 10.5563L140.485 18.8059C140.485 18.8059 138.583 34.9145 108.042 37.6325C107.889 37.6482 107.735 37.6075 107.61 37.5181C107.484 37.4286 107.396 37.2964 107.36 37.1464C107.325 36.9963 107.346 36.8385 107.419 36.7026C107.492 36.5668 107.611 36.462 107.756 36.4081Z" fill="#FEF3F4"/>
<path d="M153.26 21.8973C152.947 20.5252 139.522 8.16811 139.522 8.16811L109.128 1.29919L79.0995 12.2843L74.332 21.2286L79.5423 29.8343H79.6205C80.7581 26.0221 83.8669 22.3662 88.9643 19.4137C102.077 11.8414 123.344 11.8414 136.456 19.4137C141.927 22.5659 145.14 26.5431 146.009 30.6593L148.822 31.3193C148.822 31.3193 153.563 23.2693 153.26 21.8973Z" fill="#FEF3F4"/>
<path d="M79.1255 12.0673L74.332 21.0029L79.5423 29.6173H79.6205C80.7581 25.7964 83.8669 22.1405 88.9643 19.1967C99.3155 13.2222 114.729 11.9804 127.173 15.4366C124.061 10.3967 120.039 5.9796 115.311 2.41081L109.111 1.00403L79.1255 12.0673Z" fill="#5B5151"/>
<path d="M149.015 31.8653L145.611 31.0664L145.55 30.7972C144.629 26.6202 141.399 22.8341 136.206 19.8381C123.232 12.344 102.122 12.344 89.1482 19.8381C84.32 22.6257 81.159 26.1426 80.0128 29.9982L79.8738 30.4759L79.2833 30.2153L79.127 30.059L73.8125 21.2362L78.7797 11.9272L109.086 0.837891H109.217L139.697 7.73286L139.784 7.81102C142.962 10.7288 153.339 20.3765 153.678 21.7746C153.999 23.2075 150.335 29.5901 149.206 31.5613L149.015 31.8653ZM146.409 30.3282L148.633 30.8493C150.803 27.1065 152.974 22.7386 152.844 22.0004C152.488 20.9584 144.403 13.2471 139.323 8.56651L109.199 1.75838L79.4396 12.6479L74.8632 21.2189L79.4917 28.8867C80.8898 25.1527 84.0681 21.7746 88.74 19.074C101.957 11.4409 123.475 11.4496 136.684 19.074C141.989 22.1307 145.333 26.021 146.409 30.3282Z" fill="#5B5151"/>
<path d="M151.976 27.6287L145.81 33.5511L138.915 41.6271L118.873 46.5682L104.527 47.4887L82.5484 39.6732L79.4136 34.3587L73.5086 25.5707L70.3477 24.9194V33.1951C70.3477 39.4561 74.4812 45.7172 82.7569 50.4933C99.2996 60.0455 126.124 60.0455 142.675 50.4933C150.942 45.6477 155.093 39.4214 155.093 33.1603V24.8846L151.976 27.6287Z" fill="#FEF3F4"/>
<path d="M151.973 27.35L145.808 33.2724L138.913 41.357L118.87 46.2982L117.663 46.3676C117.221 46.6542 116.795 46.9408 116.283 47.236C109.405 51.2045 100.765 53.5231 91.8203 54.1831C107.981 59.4802 128.892 58.1603 142.664 50.1972C150.94 45.4211 155.073 39.16 155.073 32.9077V24.632L151.973 27.35Z" fill="#5B5151"/>
<path d="M112.714 58.0482C101.781 58.0482 90.8565 55.6515 82.5287 50.8406C74.3832 46.1427 69.9023 39.8643 69.9023 33.1603V24.3462L73.7667 25.1452L79.7846 34.0808L82.8413 39.2911L104.551 47.0371L118.801 46.1687L138.626 41.2797L145.434 33.308L151.652 27.3335L155.482 23.9468V33.2038C155.482 39.9077 151.001 46.1861 142.855 50.8841C134.571 55.6428 123.638 58.0482 112.714 58.0482ZM70.7881 25.4317V33.1603C70.7881 39.5343 75.13 45.5348 82.9455 50.0765C99.3493 59.5419 126.026 59.5419 142.421 50.0765C150.28 45.5348 154.579 39.5343 154.579 33.1603V25.8746L152.225 27.95L146.06 33.8724L139.113 42.0266L118.931 47.0024L104.412 47.9316H104.325L82.1987 40.0466L78.9856 34.5758L73.1935 25.9614L70.7881 25.4317Z" fill="#5B5151"/>
<path d="M142.664 7.59496C126.122 -1.95727 99.2972 -1.95727 82.7458 7.59496C66.1944 17.1472 66.2118 32.6218 82.7545 42.174C99.2972 51.7263 126.122 51.7263 142.673 42.174C159.224 32.6218 159.216 17.1472 142.664 7.59496ZM136.455 38.5963C123.343 46.1686 102.076 46.1686 88.9634 38.5963C75.8508 31.024 75.8508 18.7537 88.9634 11.1814C102.076 3.60907 123.343 3.60907 136.455 11.1814C149.568 18.7537 149.577 31.024 136.455 38.5963Z" fill="#EEAB34"/>
<path d="M142.664 10.6682C126.121 1.11597 99.2965 1.11597 82.7451 10.6682C75.0947 15.0796 70.9959 20.7588 70.4141 26.5423C70.9959 32.317 75.0947 37.9963 82.7451 42.4163C99.2879 51.9686 126.112 51.9686 142.664 42.4163C150.314 38.0049 154.422 32.3257 154.995 26.5509C154.422 20.7588 150.314 15.0796 142.664 10.6682ZM136.455 41.6695C123.342 49.2418 102.075 49.2418 88.9628 41.6695C81.7812 37.5273 78.5422 31.961 79.2282 26.5423C78.5422 21.1149 81.7812 15.5572 88.9628 11.4063C102.075 3.83401 123.342 3.83401 136.455 11.4063C143.645 15.5572 146.875 21.1149 146.198 26.5423C146.884 31.961 143.645 37.5273 136.455 41.6695Z" fill="white"/>
<path d="M112.714 49.7715C101.781 49.7715 90.8565 47.3747 82.5287 42.5639C74.3832 37.8659 69.9023 31.5875 69.9023 24.8836C69.9023 18.1796 74.3832 11.9099 82.5287 7.20325C99.1756 -2.40108 126.252 -2.40108 142.89 7.20325C151.036 11.9099 155.516 18.1883 155.516 24.8836C155.516 31.5788 151.036 37.8312 142.933 42.5639C134.571 47.3834 123.638 49.7715 112.714 49.7715ZM112.714 0.872726C101.946 0.872726 91.1778 3.24342 82.9715 7.97611C75.1127 12.5091 70.8142 18.5183 70.8142 24.8836C70.8142 31.2488 75.1561 37.258 82.9715 41.7997C99.3753 51.2651 126.052 51.2651 142.447 41.7997C150.306 37.258 154.605 31.2575 154.605 24.8836C154.605 18.5096 150.263 12.5091 142.447 7.97611C134.25 3.24342 123.482 0.872726 112.714 0.872726ZM112.714 44.7088C104.03 44.7088 95.346 42.7983 88.7376 38.9861C82.2595 35.226 78.673 30.2328 78.673 24.8836C78.673 19.5343 82.2508 14.5411 88.7289 10.7897C101.946 3.16526 123.464 3.16526 136.672 10.7897C143.159 14.5411 146.728 19.543 146.728 24.8836C146.728 30.2241 143.168 35.226 136.681 38.9774C130.073 42.7983 121.389 44.7088 112.714 44.7088ZM112.714 5.94409C104.186 5.94409 95.676 7.81112 89.1805 11.5625C83.015 15.1403 79.5414 19.873 79.5414 24.8836C79.5414 29.8941 82.9542 34.6355 89.1544 38.2133C102.128 45.7074 123.239 45.7074 136.212 38.2133C142.412 34.6355 145.825 29.9028 145.825 24.8836C145.825 19.8643 142.412 15.1403 136.212 11.5625C129.751 7.8198 121.224 5.94409 112.714 5.94409Z" fill="#5B5151"/>
<path d="M102.649 28.5835C99.1741 28.6501 95.7397 27.8281 92.6714 26.1954C89.8318 24.5629 88.2773 22.3311 88.2773 19.917C88.2773 17.5029 89.8318 15.2798 92.6714 13.6473C98.1769 10.469 107.13 10.469 112.644 13.6473C115.484 15.2798 117.047 17.5116 117.047 19.917C117.047 22.3224 115.484 24.5629 112.644 26.1954C109.571 27.8307 106.13 28.6527 102.649 28.5835ZM102.649 13.0047C99.4822 12.9441 96.3524 13.6944 93.5571 15.1843C91.2907 16.4869 90.0836 18.1716 90.0836 19.917C90.0836 21.6625 91.3254 23.3905 93.5571 24.6584C98.5764 27.5588 106.739 27.5588 111.75 24.6584C114.016 23.3558 115.223 21.6711 115.223 19.917C115.223 18.1629 113.982 16.4435 111.75 15.1843C108.952 13.6933 105.819 12.943 102.649 13.0047Z" fill="#EEAB34"/>
<path d="M102.649 26.9162C99.1748 26.9859 95.7403 26.1669 92.6714 24.5369C89.8318 22.8956 88.2773 20.6726 88.2773 18.2584C88.2773 15.8443 89.8318 13.6213 92.6714 11.98C98.1769 8.80174 107.13 8.80174 112.644 11.98C115.484 13.6213 117.047 15.8443 117.047 18.2584C117.047 20.6726 115.484 22.8956 112.644 24.5369C109.57 26.1695 106.129 26.9885 102.649 26.9162ZM102.649 11.3461C99.4829 11.2829 96.3532 12.0302 93.5571 13.5171C91.2907 14.8196 90.0836 16.5043 90.0836 18.2584C90.0836 20.0126 91.3254 21.732 93.5571 22.9998C98.5764 25.8915 106.739 25.8915 111.75 22.9998C114.016 21.6886 115.223 20.0126 115.223 18.2584C115.223 16.5043 113.982 14.7849 111.75 13.5171C108.951 12.0291 105.818 11.2818 102.649 11.3461Z" fill="#5B5151"/>
<path d="M92.6097 12.1457C90.2477 13.5177 88.7801 15.2979 88.3633 17.2518C89.084 16.9478 89.8222 16.6526 90.5777 16.3834C91.3011 15.2435 92.3099 14.3125 93.5041 13.6827C96.2997 12.1948 99.4298 11.4474 102.596 11.5117C105.695 11.4558 108.759 12.1689 111.514 13.5872C112.643 13.648 113.764 13.7435 114.866 13.8738C114.183 13.199 113.415 12.6153 112.583 12.137C107.077 8.96738 98.1239 8.96738 92.6097 12.1457Z" fill="white"/>
<path d="M83.2229 46.5157C82.9804 45.469 82.4476 44.5119 81.6859 43.7543C80.7046 42.7904 79.7928 42.5385 79.1328 42.7817L78.8115 42.9467L73.141 46.0555C73.1114 46.072 73.0894 46.0993 73.0797 46.1318C73.07 46.1642 73.0733 46.1991 73.0889 46.2292L76.5624 52.3513C76.5789 52.3808 76.6062 52.4028 76.6387 52.4125C76.6711 52.4222 76.706 52.4189 76.7361 52.4034L82.5542 49.2077C83.2055 48.8517 83.5442 47.9051 83.2229 46.5157Z" fill="#EEAB34"/>
<path d="M82.6684 48.4441C82.4265 47.3952 81.8903 46.4372 81.1226 45.6826C80.15 44.7187 79.2382 44.4669 78.5783 44.71L78.2569 44.875L73.6719 47.3846L76.4334 52.2736C76.4499 52.3032 76.4772 52.3252 76.5096 52.3349C76.542 52.3446 76.577 52.3413 76.607 52.3257L82.4252 49.1214C82.5447 49.0583 82.6533 48.9761 82.7465 48.8783C82.7281 48.7323 82.7021 48.5873 82.6684 48.4441Z" fill="white"/>
<path d="M83.0142 47.2356L77.2047 50.4312C77.1809 50.4526 77.1499 50.4644 77.1179 50.4644C77.0859 50.4644 77.0549 50.4526 77.031 50.4312L74.2435 45.4901L73.1494 46.0893C73.1192 46.1074 73.0971 46.1363 73.0874 46.1702C73.0777 46.204 73.0812 46.2403 73.0973 46.2717L76.5708 52.3938C76.5887 52.4218 76.6167 52.442 76.649 52.45C76.6813 52.4581 76.7155 52.4535 76.7445 52.4372L82.5627 49.2415C83.1532 48.9376 83.4832 48.1734 83.3442 47.0445C83.2439 47.1236 83.1328 47.188 83.0142 47.2356Z" fill="#5B5151"/>
<path d="M76.6578 52.8556H76.5014C76.4285 52.8387 76.3603 52.8058 76.3017 52.7592C76.2432 52.7126 76.1957 52.6536 76.1628 52.5864L72.6892 46.4643C72.6507 46.3996 72.6261 46.3275 72.6171 46.2527C72.6081 46.1779 72.615 46.1021 72.6371 46.0301C72.6565 45.9571 72.6903 45.8888 72.7365 45.8291C72.7828 45.7695 72.8405 45.7197 72.9063 45.6827L78.9242 42.4002C79.8534 42.0529 80.9563 42.4437 81.981 43.4597C82.8066 44.274 83.3821 45.3075 83.6396 46.4382C83.9869 47.9492 83.6396 49.1389 82.7191 49.6165L76.9356 52.7861C76.85 52.8314 76.7546 52.8552 76.6578 52.8556ZM73.6358 46.2819L76.7793 51.8569L82.3196 48.8089C82.8667 48.531 83.0404 47.6887 82.7972 46.6032C82.5673 45.6396 82.0742 44.7587 81.3731 44.0588C80.6002 43.3034 79.8447 42.9821 79.289 43.1905L79.0111 43.3294L73.6358 46.2819Z" fill="#5B5151"/>
<path d="M80.0363 48.9387C79.6834 47.4305 78.9129 46.0522 77.8133 44.9615C76.3978 43.5634 75.0865 43.2247 74.14 43.5547L73.6797 43.7892L65.5082 48.2527C65.4653 48.2765 65.4333 48.316 65.4187 48.3629C65.4042 48.4098 65.4083 48.4605 65.4301 48.5045L70.4146 57.3273C70.4263 57.3486 70.4422 57.3674 70.4613 57.3825C70.4805 57.3975 70.5024 57.4087 70.5259 57.4151C70.5493 57.4216 70.5739 57.4233 70.598 57.4202C70.6222 57.417 70.6454 57.409 70.6664 57.3967L79.0377 52.7943C80.0103 52.308 80.4966 50.9533 80.0363 48.9387Z" fill="#EEAB34"/>
<path d="M79.2749 51.8218C78.9271 50.3142 78.1558 48.9373 77.0518 47.8533C75.6363 46.4552 74.3338 46.1165 73.3872 46.4465L72.9183 46.681L66.3359 50.2848L70.2958 57.3013C70.3211 57.3427 70.3612 57.373 70.4079 57.3859C70.4547 57.3988 70.5047 57.3934 70.5476 57.3708L78.9275 52.7597C79.0946 52.6672 79.2468 52.5501 79.3791 52.4123C79.353 52.2213 79.3183 52.0303 79.2749 51.8218Z" fill="white"/>
<path d="M80.2978 48.8344C80.1142 48.0782 79.8217 47.3528 79.4295 46.6808C79.4903 48.0355 79.0387 48.9733 78.2745 49.3641L69.8946 53.9665C69.8736 53.9788 69.8503 53.9868 69.8262 53.9899C69.8021 53.9931 69.7775 53.9914 69.754 53.9849C69.7306 53.9784 69.7086 53.9673 69.6895 53.9522C69.6704 53.9372 69.6545 53.9184 69.6428 53.8971L66.2561 47.8878L65.735 48.1744C65.7137 48.1861 65.695 48.202 65.6799 48.2211C65.6648 48.2403 65.6537 48.2622 65.6472 48.2857C65.6407 48.3091 65.639 48.3337 65.6422 48.3578C65.6453 48.382 65.6533 48.4052 65.6656 48.4262L70.6414 57.2403C70.6653 57.2832 70.7048 57.3153 70.7517 57.3298C70.7986 57.3444 70.8493 57.3403 70.8933 57.3185L79.2732 52.7074C80.2718 52.2124 80.7581 50.8577 80.2978 48.8344Z" fill="#5B5151"/>
<path d="M70.5806 57.8822C70.4687 57.8842 70.3584 57.8553 70.2619 57.7986C70.1653 57.7419 70.0863 57.6596 70.0335 57.5609L65.049 48.7468C65.0071 48.6738 64.9802 48.5932 64.9697 48.5097C64.9593 48.4263 64.9656 48.3415 64.9882 48.2605C65.0117 48.1812 65.0507 48.1074 65.1028 48.0434C65.155 47.9793 65.2194 47.9261 65.2922 47.8871L73.976 43.1631C75.2265 42.6941 76.7288 43.2412 78.153 44.6393C79.3135 45.789 80.1261 47.2428 80.4976 48.8336C80.9752 50.9264 80.4976 52.559 79.2732 53.1755L70.8585 57.804C70.7731 57.8511 70.678 57.8778 70.5806 57.8822ZM65.9522 48.5297L70.6762 56.9009L78.8303 52.42C79.6987 51.9772 79.9766 50.6833 79.6032 49.0333C79.2745 47.6056 78.5455 46.3013 77.5017 45.2732C76.338 44.127 75.1657 43.6494 74.2973 43.9707L73.8718 44.1878L65.9522 48.5297Z" fill="#5B5151"/>
<path d="M71.812 54.9903C71.7414 53.699 71.3673 52.4426 70.72 51.323C70.0727 50.2035 69.1705 49.2523 68.0867 48.5469C67.7132 48.2788 67.2755 48.1143 66.818 48.0701C66.3605 48.0258 65.8994 48.1035 65.4815 48.2951L47.1673 55.494C47.1498 55.5001 47.1339 55.5102 47.1209 55.5234C47.1079 55.5366 47.098 55.5526 47.0922 55.5703C47.0863 55.5879 47.0845 55.6066 47.087 55.6249C47.0895 55.6433 47.0962 55.6609 47.1065 55.6763L55.113 69.9613C55.1252 69.9759 55.1405 69.9876 55.1577 69.9957C55.175 70.0037 55.1938 70.0079 55.2128 70.0079C55.2319 70.0079 55.2507 70.0037 55.268 69.9957C55.2852 69.9876 55.3005 69.9759 55.3127 69.9613L70.6484 57.4305C71.047 57.1691 71.3663 56.8034 71.5715 56.3731C71.7767 55.9429 71.8599 55.4646 71.812 54.9903Z" fill="#EEAB34"/>
<path d="M66.1525 52.2561C65.7791 51.988 65.3414 51.8235 64.8839 51.7793C64.4263 51.7351 63.9652 51.8127 63.5474 52.0043L48.5156 57.9093L55.1414 69.6672C55.1536 69.6818 55.1689 69.6936 55.1862 69.7016C55.2034 69.7097 55.2222 69.7139 55.2413 69.7139C55.2603 69.7139 55.2791 69.7097 55.2964 69.7016C55.3136 69.6936 55.3289 69.6818 55.3411 69.6672L69.8345 57.8138C69.6367 56.6838 69.2075 55.6068 68.5739 54.6504C67.9403 53.6941 67.1159 52.8789 66.1525 52.2561Z" fill="white"/>
<path d="M52.2852 64.8134L55.1161 69.8239C55.1283 69.8385 55.1436 69.8503 55.1609 69.8583C55.1781 69.8664 55.1969 69.8705 55.216 69.8705C55.235 69.8705 55.2538 69.8664 55.2711 69.8583C55.2883 69.8503 55.3036 69.8385 55.3158 69.8239L70.6515 57.2844C71.0537 57.0288 71.376 56.6653 71.5818 56.2355C71.7875 55.8056 71.8684 55.3266 71.8151 54.853C71.8009 54.155 71.6778 53.4636 71.4504 52.8036L52.2852 64.8134Z" fill="#5B5151"/>
<path d="M55.229 70.4404H55.1248C55.0421 70.4288 54.9635 70.3975 54.8955 70.3491C54.8275 70.3007 54.7721 70.2368 54.734 70.1625L46.6928 55.9123C46.6584 55.8374 46.6406 55.756 46.6406 55.6735C46.6406 55.5911 46.6584 55.5097 46.6928 55.4347C46.7195 55.3575 46.7629 55.2871 46.8199 55.2286C46.877 55.17 46.9462 55.1248 47.0227 55.0961L65.3283 47.8971C65.8123 47.6732 66.3471 47.5818 66.878 47.6321C67.4089 47.6825 67.9169 47.8728 68.3502 48.1837C69.4992 48.9298 70.4553 49.9371 71.1405 51.1234C71.8257 52.3096 72.2205 53.6412 72.2927 55.0092C72.3419 55.5556 72.2419 56.105 72.0033 56.599C71.7647 57.093 71.3965 57.5129 70.938 57.8141L55.5937 70.3102C55.489 70.3911 55.3613 70.4367 55.229 70.4404ZM47.6393 55.7734L55.3245 69.3897L70.4431 57.0412C70.7718 56.8185 71.0326 56.5092 71.1966 56.1476C71.3606 55.7859 71.4214 55.3859 71.3722 54.9918C71.3105 53.7772 70.9639 52.5942 70.3605 51.5382C69.7571 50.4822 68.9138 49.583 67.8987 48.9132C67.5878 48.6799 67.2205 48.5336 66.8343 48.4893C66.4482 48.4451 66.0573 48.5044 65.7017 48.6613L47.6393 55.7734Z" fill="#5B5151"/>
<path d="M56.164 64.2738C55.5503 61.6091 54.1169 59.2038 52.0652 57.3962C49.7206 55.3468 47.5583 55.0168 46.1429 55.946L14.7247 76.7872C14.6153 76.8571 14.5366 76.9659 14.5043 77.0916C14.4721 77.2173 14.4888 77.3506 14.551 77.4645L19.6224 87.0341C19.6854 87.1553 19.7936 87.2469 19.9235 87.2891C20.0535 87.3314 20.1948 87.3209 20.3171 87.2599L54.488 70.5088C56.0945 69.7533 56.9629 67.5736 56.164 64.2738Z" fill="#EEAB34"/>
<path d="M55.931 68.7112C55.931 68.5896 55.931 68.4767 55.8702 68.3465C55.2533 65.6831 53.8204 63.2788 51.7714 61.4689C49.4268 59.4195 47.2645 59.0808 45.8491 60.0187L15.8203 79.896L19.5196 86.9299C19.5843 87.0495 19.6925 87.1397 19.8218 87.1817C19.9512 87.2237 20.0917 87.2144 20.2143 87.1557L54.3592 70.4045C55.0796 70.0608 55.6418 69.4552 55.931 68.7112Z" fill="white"/>
<path d="M56.0186 62.7798C55.9317 62.8319 55.567 62.7798 55.3065 62.9274L18.4609 84.2376L19.8503 86.8427C19.9134 86.9639 20.0216 87.0555 20.1515 87.0977C20.2815 87.14 20.4228 87.1295 20.5451 87.0685L54.7247 70.3174C56.3312 69.5619 57.1648 67.3909 56.4093 64.0824C56.3031 63.6413 56.1727 63.2065 56.0186 62.7798Z" fill="#5B5151"/>
<path d="M20.0665 87.7548C19.8884 87.7589 19.7127 87.713 19.5592 87.6225C19.4058 87.532 19.2807 87.4003 19.1981 87.2424L14.1355 77.6381C14.0263 77.4251 13.9986 77.1796 14.0578 76.9477C14.117 76.7158 14.2589 76.5135 14.4568 76.3789L45.8836 55.5377C47.6204 54.4175 49.9998 54.9732 52.3357 57.0313C54.4604 58.8994 55.9456 61.3868 56.5821 64.1434C57.3376 67.4433 56.5821 69.9529 54.6456 70.8734L20.492 87.6592C20.3596 87.7238 20.2139 87.7565 20.0665 87.7548ZM47.8549 55.8937C47.3327 55.8861 46.8196 56.0309 46.3786 56.3106L14.9604 77.1518C14.9492 77.1668 14.9431 77.1851 14.9431 77.2039C14.9431 77.2227 14.9492 77.241 14.9604 77.256L20.0144 86.8603C20.0288 86.8732 20.0473 86.8802 20.0665 86.8802C20.0858 86.8802 20.1043 86.8732 20.1186 86.8603L54.2982 70.1092C55.8613 69.3797 56.4084 67.2348 55.7485 64.3779C55.1592 61.8025 53.7737 59.4781 51.7886 57.7347C50.7395 56.6757 49.3486 56.0234 47.8635 55.8937H47.8549Z" fill="#5B5151"/>
<path d="M21.4402 84.6031C21.4402 87.2777 19.5645 88.3632 17.2459 87.0259C16.0236 86.2298 15.006 85.1569 14.2758 83.894C13.5455 82.6312 13.1232 81.2141 13.043 79.7575C13.043 77.0829 14.9274 75.9974 17.2459 77.3347C18.4672 78.1313 19.4834 79.2045 20.2122 80.4674C20.941 81.7303 21.3617 83.1472 21.4402 84.6031Z" fill="#FEF3F4"/>
<path d="M19.1214 88.0512C18.3768 88.0238 17.6524 87.8023 17.0199 87.4085C15.7348 86.5693 14.6652 85.4395 13.8974 84.1105C13.1295 82.7815 12.6851 81.2906 12.5998 79.7581C12.4989 79.1558 12.5844 78.537 12.8449 77.9846C13.1055 77.4323 13.5286 76.9727 14.0577 76.6676C14.5867 76.3624 15.1963 76.2263 15.8049 76.2773C16.4135 76.3284 16.992 76.5642 17.4628 76.9532C18.7488 77.7915 19.8192 78.921 20.5871 80.2502C21.3551 81.5794 21.799 83.0709 21.8829 84.6037C21.941 85.2029 21.8371 85.8068 21.582 86.3522C21.3269 86.8975 20.9299 87.3643 20.4326 87.7038C20.0357 87.9377 19.5821 88.0579 19.1214 88.0512ZM15.37 77.205C15.0665 77.2003 14.7671 77.2751 14.5016 77.4221C14.1419 77.6879 13.8586 78.0437 13.6802 78.4538C13.5018 78.8639 13.4347 79.3138 13.4856 79.7581C13.5632 81.1371 13.9635 82.4787 14.6543 83.6747C15.3451 84.8708 16.3071 85.888 17.4628 86.6444C17.7955 86.9608 18.2218 87.1611 18.6778 87.2153C19.1338 87.2695 19.595 87.1747 19.9927 86.9451C20.3904 86.7155 20.7031 86.3634 20.8842 85.9414C21.0652 85.5193 21.1048 85.0501 20.9971 84.6037C20.9215 83.2241 20.522 81.8818 19.8311 80.6854C19.1401 79.4891 18.177 78.4722 17.0199 77.7174C16.5248 77.4039 15.9555 77.2271 15.37 77.205Z" fill="#5B5151"/>
<path d="M18.1841 83.448C17.8874 82.4653 17.3536 81.5706 16.6297 80.8428C15.3271 79.4794 14.0767 79.1581 13.2604 79.601L12.913 79.8007L3.05686 85.341C3.02979 85.3562 3.00614 85.3768 2.98738 85.4015C2.96861 85.4262 2.95513 85.4545 2.9478 85.4847C2.94046 85.5148 2.93943 85.5461 2.94475 85.5767C2.95007 85.6073 2.96163 85.6364 2.97871 85.6623L7.14696 92.6094C7.16212 92.6365 7.1827 92.6601 7.20741 92.6789C7.23212 92.6977 7.26043 92.7111 7.29058 92.7185C7.32073 92.7258 7.35208 92.7268 7.38265 92.7215C7.41322 92.7162 7.44236 92.7047 7.46826 92.6876L17.1681 87.2341C16.8208 87.4425 17.446 87.0691 17.5328 87.0257L17.6544 86.9475C18.462 86.5047 18.7573 85.2542 18.1841 83.448Z" fill="#EEAB34"/>
<path d="M17.573 86.0008C17.2759 85.0183 16.7422 84.1237 16.0186 83.3957C14.716 82.0323 13.4569 81.7023 12.6406 82.1452L12.2932 82.3449L3.60938 87.2252L6.93529 92.7916C6.96777 92.8442 7.01907 92.8825 7.07875 92.8986C7.13844 92.9147 7.20203 92.9075 7.25659 92.8784L17.0172 87.4336L17.382 87.2165L17.4948 87.1297C17.6139 87.0661 17.72 86.9807 17.8075 86.8779C17.7206 86.6 17.6598 86.3134 17.573 86.0008Z" fill="white"/>
<path d="M17.2096 87.2336C17.0967 87.3292 17.0185 87.3292 17.2096 87.2336V87.2336Z" fill="#5B5151"/>
<path d="M18.2175 83.37C18.0942 83.5644 17.9278 83.7278 17.7312 83.8476L17.6183 83.9258L17.2536 84.1429C17.0886 84.2384 17.1407 84.2036 17.2536 84.1429L7.55376 89.5963C7.50021 89.6262 7.43735 89.6347 7.37776 89.6203C7.31818 89.6058 7.26628 89.5693 7.23244 89.5182L4.31467 84.6205L3.10762 85.2978C3.05501 85.3303 3.01674 85.3816 3.00061 85.4413C2.98448 85.501 2.9917 85.5645 3.02079 85.6191L7.19772 92.6096C7.21303 92.6365 7.23351 92.6601 7.25798 92.679C7.28245 92.6979 7.31041 92.7118 7.34028 92.7199C7.37014 92.728 7.40132 92.7301 7.432 92.7261C7.46267 92.722 7.49224 92.712 7.51901 92.6964L17.2189 87.243L17.5749 87.0259L17.6965 86.9391C18.5041 86.4701 18.7472 85.2023 18.2262 83.4047L18.2175 83.37Z" fill="#5B5151"/>
<path d="M7.35322 93.2085C7.23483 93.2084 7.11844 93.178 7.0151 93.1202C6.91175 93.0625 6.82488 92.9793 6.76273 92.8785L2.59448 85.9314C2.54801 85.8555 2.51716 85.7711 2.50374 85.6832C2.49032 85.5952 2.4946 85.5054 2.51633 85.4191C2.53936 85.3317 2.57966 85.2498 2.63484 85.1782C2.69002 85.1066 2.75897 85.0468 2.83762 85.0023L13.0325 79.2536C14.1353 78.6631 15.6376 79.158 16.9489 80.5822C17.7244 81.356 18.2945 82.3112 18.6075 83.361C19.1806 85.3236 18.9114 86.8346 17.8781 87.4077L16.9315 87.9722L7.69189 93.1825C7.58329 93.221 7.46643 93.2299 7.35322 93.2085ZM3.46286 85.5928L7.42269 92.2272L17.4004 86.5914C18.0778 86.192 18.1994 85.0631 17.7565 83.5434C17.4797 82.6288 16.9816 81.7966 16.3063 81.1206C15.2555 80.0264 14.17 79.5749 13.4667 79.957L13.128 80.1567L3.46286 85.5928Z" fill="#5B5151"/>
<path d="M7.18459 92.9026C8.37247 92.2167 8.37124 89.9907 7.18184 87.9306C5.99244 85.8705 4.06528 84.7565 2.87741 85.4423C1.68953 86.1281 1.69076 88.3541 2.88015 90.4142C4.06955 92.4743 5.99672 93.5884 7.18459 92.9026Z" fill="#FEF3F4"/>
<path d="M6.39889 93.5481C5.83643 93.5312 5.28834 93.3664 4.80975 93.0704C3.85364 92.4573 3.05828 91.6242 2.49022 90.6406C1.92216 89.6571 1.5979 88.5518 1.54461 87.4173C1.46571 86.9574 1.52955 86.4844 1.72754 86.0619C1.92552 85.6395 2.24814 85.2877 2.65201 85.0541C3.05588 84.8205 3.52162 84.7162 3.98656 84.7552C4.4515 84.7942 4.89333 84.9747 5.25262 85.2724C6.21051 85.8864 7.00752 86.7207 7.57706 87.7057C8.1466 88.6907 8.47213 89.7977 8.52643 90.9342C8.5683 91.3909 8.48637 91.8505 8.28925 92.2646C8.09213 92.6787 7.78709 93.0321 7.40621 93.2875C7.09919 93.4615 6.75174 93.5513 6.39889 93.5481ZM3.67216 85.6805C3.47164 85.6799 3.2743 85.7307 3.09903 85.8281C2.85888 86.0119 2.67086 86.2551 2.55358 86.5339C2.43631 86.8126 2.39384 87.1171 2.43037 87.4173C2.48511 88.3963 2.76902 89.3487 3.25923 90.1979C3.74943 91.0471 4.43223 91.7693 5.25262 92.3063C5.476 92.5226 5.76371 92.6604 6.07231 92.6989C6.3809 92.7373 6.69362 92.6743 6.96326 92.5194C7.2329 92.3645 7.44483 92.126 7.56703 91.8401C7.68923 91.5541 7.71508 91.2362 7.64068 90.9342C7.5863 89.953 7.30169 88.9983 6.80988 88.1474C6.31808 87.2966 5.63289 86.5734 4.80975 86.0365C4.46739 85.8222 4.07563 85.6996 3.67216 85.6805Z" fill="#5B5151"/>
<path d="M6.12949 89.7355C5.93522 89.0687 5.58382 88.4582 5.10479 87.9553C4.23641 87.0435 3.36802 86.8264 2.86436 87.0869L2.62989 87.2259L1.12759 88.0942C1.09328 88.1173 1.06889 88.1524 1.05924 88.1926C1.04959 88.2328 1.05539 88.2752 1.07549 88.3113L3.85432 92.9572C3.86339 92.9755 3.87615 92.9917 3.89179 93.0047C3.90743 93.0178 3.92562 93.0275 3.9452 93.0333C3.96478 93.039 3.98534 93.0406 4.00557 93.0379C4.0258 93.0353 4.04526 93.0285 4.06273 93.018L5.46951 92.2104L5.70398 92.0714L5.78213 92.0193C6.32921 91.7241 6.48553 90.9425 6.12949 89.7355Z" fill="#EEAB34"/>
<path d="M5.88496 91.8803L5.96312 91.8282C6.50152 91.5068 6.64915 90.7253 6.30179 89.5183C6.26613 89.3941 6.22261 89.2722 6.17153 89.1535C5.94304 88.8839 5.63774 88.6904 5.29637 88.5988C4.95501 88.5073 4.59383 88.5221 4.26108 88.6412L4.03531 88.7801L2.53301 89.6485C2.51517 89.6592 2.49965 89.6733 2.48735 89.6901C2.47504 89.7068 2.4662 89.7259 2.46135 89.7461C2.4565 89.7663 2.45573 89.7873 2.45908 89.8078C2.46244 89.8284 2.46985 89.848 2.48089 89.8656L4.21766 92.8268L5.5984 92.0366L5.84155 91.8889L5.88496 91.8803Z" fill="white"/>
<path d="M5.64389 92.0182C5.57442 92.0616 5.53969 92.079 5.64389 92.0182V92.0182Z" fill="white"/>
<path d="M6.18846 89.6488C6.18846 89.5359 6.1103 89.423 6.06689 89.3188C6.03967 89.4512 5.98653 89.5769 5.91052 89.6887C5.83451 89.8005 5.73714 89.8961 5.62401 89.9701L5.54585 90.0309L5.3027 90.1698C5.1985 90.2306 5.23323 90.1698 5.3027 90.1698L3.9046 90.9688C3.88766 90.9796 3.86868 90.9869 3.84883 90.9901C3.82898 90.9934 3.80868 90.9926 3.78916 90.9877C3.76965 90.9828 3.75133 90.974 3.73534 90.9618C3.71935 90.9496 3.70604 90.9342 3.6962 90.9167L1.76838 87.6949L1.19525 88.0336C1.17698 88.0427 1.16078 88.0554 1.14769 88.0711C1.1346 88.0867 1.1249 88.1049 1.11919 88.1245C1.11348 88.1441 1.11188 88.1646 1.11451 88.1849C1.11714 88.2051 1.12394 88.2246 1.13447 88.242L3.9133 92.8966C3.92398 92.9144 3.93812 92.9299 3.95488 92.9422C3.97163 92.9545 3.99068 92.9634 4.0109 92.9682C4.03112 92.9731 4.05209 92.9738 4.07261 92.9705C4.09312 92.9671 4.11278 92.9597 4.13039 92.9487L5.52849 92.1498L5.77164 92.0108L5.84979 91.95C6.3795 91.6722 6.53581 90.8559 6.18846 89.6488Z" fill="#5B5151"/>
<path d="M3.99444 93.5033C3.89032 93.5042 3.78772 93.4783 3.69649 93.4281C3.60525 93.3779 3.52843 93.3051 3.4734 93.2168L0.694572 88.5622C0.614218 88.4229 0.592366 88.2574 0.633792 88.102C0.651974 88.0263 0.685167 87.955 0.731408 87.8923C0.777649 87.8297 0.835995 87.7769 0.902989 87.7372L2.63976 86.7386C3.43867 86.3131 4.47204 86.6518 5.42727 87.6504C5.95747 88.2046 6.34752 88.8775 6.56486 89.613C7.09457 91.4626 6.45197 92.166 6.01777 92.4265H5.96567C5.84697 92.527 5.71183 92.6063 5.56621 92.661L4.28968 93.3904C4.20256 93.4527 4.1009 93.4916 3.99444 93.5033ZM1.60638 88.3538L4.08996 92.5134L5.54016 91.645C5.93093 91.4105 5.97435 90.7766 5.70515 89.8214C5.53403 89.2213 5.21792 88.6726 4.78467 88.2235C4.15075 87.5549 3.47341 87.2683 3.0479 87.4767L1.60638 88.3538Z" fill="#5B5151"/>
<path d="M4.46942 91.8457C4.46942 93.1309 3.60103 93.6607 2.44608 93.0094C1.85953 92.6294 1.37018 92.1173 1.01729 91.5141C0.664406 90.9108 0.457811 90.2333 0.414062 89.5358C0.414062 88.2419 1.32586 87.7209 2.44608 88.3635C3.03121 88.7463 3.51884 89.2605 3.87012 89.865C4.2214 90.4696 4.42662 91.1478 4.46942 91.8457Z" fill="#FEF3F4"/>
<path d="M3.35018 93.7382C2.96401 93.7191 2.58837 93.6058 2.25602 93.4082C1.59768 92.9844 1.0501 92.4095 0.658884 91.7313C0.26767 91.0531 0.0441449 90.2912 0.00690633 89.5092C-0.0217182 89.1796 0.0389791 88.8484 0.182621 88.5504C0.326263 88.2525 0.547545 87.9987 0.82319 87.8158C1.11844 87.6645 1.44967 87.5974 1.78055 87.6219C2.11143 87.6464 2.42916 87.7616 2.69889 87.9548C3.35984 88.3765 3.90988 88.9507 4.30277 89.6292C4.69566 90.3077 4.91992 91.0706 4.9567 91.8538C4.99251 92.1903 4.93534 92.5301 4.79141 92.8363C4.64748 93.1426 4.42231 93.4034 4.14041 93.5906C3.89476 93.709 3.62202 93.76 3.35018 93.7382ZM1.54394 88.5279C1.43455 88.5249 1.32645 88.5519 1.23133 88.606C1.09607 88.7171 0.990956 88.8604 0.925696 89.0228C0.860436 89.1852 0.837126 89.3614 0.85792 89.5352C0.898404 90.1601 1.08243 90.7672 1.39569 91.3094C1.70896 91.8516 2.14303 92.3142 2.66416 92.6614C2.80422 92.7657 2.9679 92.8337 3.14061 92.8595C3.31332 92.8853 3.48972 92.8679 3.65412 92.809C3.79065 92.699 3.89668 92.5558 3.96206 92.3932C4.02744 92.2305 4.04997 92.0537 4.02752 91.8799C3.98966 91.2532 3.80681 90.6438 3.49338 90.0998C3.17994 89.5558 2.74448 89.092 2.22129 88.745C2.02092 88.6042 1.78761 88.5175 1.54394 88.4932V88.5279Z" fill="#5B5151"/>
<path d="M55.8514 69.3369L55.2695 69.0416C55.686 68.1728 55.9222 67.2286 55.964 66.266C56.0058 65.3034 55.8523 64.3423 55.5127 63.4406L56.1032 63.1801C56.4909 64.1676 56.6687 65.225 56.6253 66.285C56.582 67.345 56.3184 68.3843 55.8514 69.3369Z" fill="white"/>
<path d="M71.5797 56.9963L71.3192 56.8226C71.2562 56.7642 71.2137 56.687 71.1981 56.6025C71.1824 56.5181 71.1944 56.4308 71.2323 56.3537C71.5167 55.4433 71.5167 54.4679 71.2323 53.5575L71.8576 53.3751C72.0957 54.2074 72.1491 55.0818 72.0139 55.9369L73.4293 55.0685L73.768 55.6242L71.5797 56.9963Z" fill="white"/>
<path d="M80.5332 50.6412L79.8906 50.5543C79.9282 50.0716 79.9282 49.5868 79.8906 49.1041L80.5332 49.0433C80.5846 49.5747 80.5846 50.1098 80.5332 50.6412Z" fill="white"/>
</svg>
