<svg width="573" height="115" viewBox="0 0 573 115" fill="none" xmlns="http://www.w3.org/2000/svg">
<mask id="mask0" mask-type="alpha" maskUnits="userSpaceOnUse" x="0" y="0" width="573" height="115">
<path d="M0 16C0 7.16344 7.16344 0 16 0H557C565.837 0 573 7.16344 573 16V99C573 107.837 565.837 115 557 115H16C7.16345 115 0 107.837 0 99V16Z" fill="white"/>
<path d="M0.5 16C0.5 7.43958 7.43959 0.5 16 0.5H557C565.56 0.5 572.5 7.43959 572.5 16V99C572.5 107.56 565.56 114.5 557 114.5H16C7.4396 114.5 0.5 107.56 0.5 99V16Z" stroke="#5B5151" stroke-opacity="0.1"/>
</mask>
<g mask="url(#mask0)">
<path d="M286.5 92.5C231.714 57.0774 330 15 208 -1.5L631 -20L578 122.5C538.333 134.167 499.4 157.9 471 135.5C435.5 107.5 344.85 130.227 286.5 92.5Z" fill="#F4F4EA"/>
</g>
</svg>
